<?xml version="1.0" encoding="UTF-8" standalone="no"?>
<!-- Created with Inkscape (http://www.inkscape.org/) -->

<svg
   xmlns:dc="http://purl.org/dc/elements/1.1/"
   xmlns:cc="http://creativecommons.org/ns#"
   xmlns:rdf="http://www.w3.org/1999/02/22-rdf-syntax-ns#"
   xmlns:svg="http://www.w3.org/2000/svg"
   xmlns="http://www.w3.org/2000/svg"
   xmlns:sodipodi="http://sodipodi.sourceforge.net/DTD/sodipodi-0.dtd"
   xmlns:inkscape="http://www.inkscape.org/namespaces/inkscape"
   width="60"
   height="60"
   viewBox="0 0 60.000001 60.000001"
   id="svg4154"
   version="1.1"
   inkscape:version="0.91 r13725"
   sodipodi:docname="favicon.svg">
  <defs
     id="defs4156" />
  <sodipodi:namedview
     id="base"
     pagecolor="#ffffff"
     bordercolor="#666666"
     borderopacity="1.0"
     inkscape:pageopacity="0.0"
     inkscape:pageshadow="2"
     inkscape:zoom="7.0545455"
     inkscape:cx="34.270938"
     inkscape:cy="29.99996"
     inkscape:document-units="px"
     inkscape:current-layer="layer1"
     showgrid="false"
     units="px"
     showguides="false"
     inkscape:window-width="1278"
     inkscape:window-height="990"
     inkscape:window-x="0"
     inkscape:window-y="33"
     inkscape:window-maximized="0" />
  <metadata
     id="metadata4159">
    <rdf:RDF>
      <cc:Work
         rdf:about="">
        <dc:format>image/svg+xml</dc:format>
        <dc:type
           rdf:resource="http://purl.org/dc/dcmitype/StillImage" />
        <dc:title></dc:title>
      </cc:Work>
    </rdf:RDF>
  </metadata>
  <g
     inkscape:label="Layer 1"
     inkscape:groupmode="layer"
     id="layer1"
     transform="translate(0,-992.36216)">
    <rect
       style="opacity:1;fill:#214478;fill-opacity:1;stroke:none;stroke-width:5;stroke-linecap:butt;stroke-linejoin:round;stroke-miterlimit:4;stroke-dasharray:none;stroke-dashoffset:0;stroke-opacity:1"
       id="rect4714"
       width="60"
       height="60"
       x="0"
       y="992.36218" />
    <g
       id="g4710"
       transform="translate(1.6665623,-5.27779)">
      <path
         id="path4188"
         d="m 22.040034,1005.4177 -2.170139,11.1111 5.989583,0 0.347222,-11.1111 z m 8.420139,0 0.347222,11.1111 5.989583,0 -2.170138,-11.1111 z m -12.456597,20.5296 -4.687499,23.9149 11.545137,0 0.694445,-23.9149 z m 13.107639,0 0.694445,23.9149 11.545138,0 -4.687499,-23.9149 z m -27.7777775,-6.6406 0,3.6024 3.9930554,0 c 0.8626306,0.032 1.5787768,0.8409 1.5625005,1.6926 l 0,4.4272 3.4722216,0 1.041667,-4.8178 c 0.157335,-0.7704 0.906034,-1.3454 1.692708,-1.302 l 26.475695,0 c 0.786674,-0.044 1.535373,0.5316 1.692707,1.302 l 1.041667,4.8178 3.472222,0 0,-4.4272 c -0.01627,-0.8517 0.69987,-1.66 1.562501,-1.6926 l 3.993056,0 0,-3.6024 z m 0,0"
         style="fill:#ffffff;fill-opacity:1;fill-rule:evenodd;stroke:none"
         inkscape:connector-curvature="0" />
      <path
         id="path4195"
         style="font-style:normal;font-variant:normal;font-weight:normal;font-stretch:normal;font-size:40px;line-height:100%;font-family:'Helvetica Neue';-inkscape-font-specification:'Helvetica Neue';letter-spacing:0px;word-spacing:0px;fill:#ff0000;fill-opacity:1;stroke:none;stroke-width:1px;stroke-linecap:butt;stroke-linejoin:miter;stroke-opacity:1"
         d="m 20.524493,1029.2749 q 1.057943,0 1.600478,1.7362 1.08507,3.2552 1.546224,3.2552 0.352647,0 0.732423,-0.5426 7.622612,-12.207 14.105902,-19.7482 1.681857,-1.9531 5.343967,-1.9531 0.868055,0 1.16645,0.1628 0.298393,0.1627 0.298393,0.4068 0,0.3798 -0.895182,1.492 -10.470919,12.5868 -19.422744,26.5843 -0.623915,0.9765 -2.549911,0.9765 -1.953125,0 -2.305773,-0.1628 -0.922309,-0.4069 -2.170139,-4.1503 -1.41059,-4.1505 -1.41059,-5.2084 0,-1.1393 1.898871,-2.1973 1.166449,-0.6511 2.061631,-0.6511 z"
         inkscape:connector-curvature="0" />
    </g>
  </g>
</svg>
