<?xml version="1.0" encoding="UTF-8" standalone="no"?>
<svg
   xmlns:dc="http://purl.org/dc/elements/1.1/"
   xmlns:cc="http://creativecommons.org/ns#"
   xmlns:rdf="http://www.w3.org/1999/02/22-rdf-syntax-ns#"
   xmlns:svg="http://www.w3.org/2000/svg"
   xmlns="http://www.w3.org/2000/svg"
   xmlns:sodipodi="http://sodipodi.sourceforge.net/DTD/sodipodi-0.dtd"
   xmlns:inkscape="http://www.inkscape.org/namespaces/inkscape"
   width="256.04297pt"
   height="48pt"
   viewBox="0 0 256.04297 48"
   version="1.1"
   id="svg4185"
   inkscape:version="0.91 r13725"
   sodipodi:docname="logo.svg">
  <metadata
     id="metadata4194">
    <rdf:RDF>
      <cc:Work
         rdf:about="">
        <dc:format>image/svg+xml</dc:format>
        <dc:type
           rdf:resource="http://purl.org/dc/dcmitype/StillImage" />
        <dc:title></dc:title>
      </cc:Work>
    </rdf:RDF>
  </metadata>
  <defs
     id="defs4192" />
  <sodipodi:namedview
     pagecolor="#ffffff"
     bordercolor="#666666"
     borderopacity="1"
     objecttolerance="10"
     gridtolerance="10"
     guidetolerance="10"
     inkscape:pageopacity="0"
     inkscape:pageshadow="2"
     inkscape:window-width="1278"
     inkscape:window-height="1005"
     id="namedview4190"
     showgrid="false"
     fit-margin-top="0"
     fit-margin-left="0"
     fit-margin-right="0"
     fit-margin-bottom="0"
     inkscape:zoom="3.4957592"
     inkscape:cx="122.98128"
     inkscape:cy="21.254784"
     inkscape:window-x="0"
     inkscape:window-y="17"
     inkscape:window-maximized="0"
     inkscape:current-layer="svg4185" />
  <g
     id="surface3"
     style="fill:#ffffff"
     transform="scale(1.5,1.5)">
    <path
       style="fill:#ffffff;fill-opacity:1;fill-rule:evenodd;stroke:none"
       d="m 13.46875,0 -1.5625,8 4.3125,0 0.25,-8 z m 6.0625,0 0.25,8 4.3125,0 -1.5625,-8 z M 10.5625,14.78125 7.1875,32 15.5,32 16,14.78125 Z m 9.4375,0 L 20.5,32 28.8125,32 25.4375,14.78125 Z M 0,10 l 0,2.59375 2.875,0 C 3.496094,12.617188 4.011719,13.199219 4,13.8125 L 4,17 6.5,17 7.25,13.53125 c 0.113281,-0.554688 0.652344,-0.96875 1.21875,-0.9375 l 19.0625,0 c 0.566406,-0.03125 1.105469,0.382812 1.21875,0.9375 L 29.5,17 32,17 32,13.8125 c -0.01172,-0.613281 0.503906,-1.195312 1.125,-1.21875 l 2.875,0 L 36,10 Z m 0,0"
       id="path4188"
       inkscape:connector-curvature="0" />
  </g>
  <path
     inkscape:connector-curvature="0"
     id="path4195"
     style="font-style:normal;font-variant:normal;font-weight:normal;font-stretch:normal;font-size:40px;line-height:100%;font-family:'Helvetica Neue';-inkscape-font-specification:'Helvetica Neue';letter-spacing:0px;word-spacing:0px;fill:#ff0000;fill-opacity:1;stroke:none;stroke-width:1px;stroke-linecap:butt;stroke-linejoin:miter;stroke-opacity:1"
     d="m 18.566341,25.765824 q 1.142579,0 1.728516,1.875 1.171875,3.515625 1.669922,3.515625 0.380859,0 0.791016,-0.585938 8.232421,-13.183594 15.234375,-21.328125 1.816405,-2.109375 5.771484,-2.109375 0.9375,0 1.259766,0.175781 0.322265,0.175781 0.322265,0.439453 0,0.410156 -0.966797,1.611328 -11.308593,13.593751 -20.976563,28.710938 -0.673828,1.054688 -2.753905,1.054688 -2.109375,0 -2.490236,-0.175782 -0.996093,-0.439454 -2.34375,-4.482422 -1.523437,-4.482421 -1.523437,-5.625 0,-1.230469 2.050782,-2.373046 1.259766,-0.703125 2.226562,-0.703125 z" />
  <path
     style="font-style:normal;font-variant:normal;font-weight:500;font-stretch:normal;font-size:18px;line-height:100%;font-family:'Helvetica Neue';-inkscape-font-specification:'Helvetica Neue Medium';letter-spacing:0px;word-spacing:0px;fill:#ffffff;fill-opacity:1;stroke:none;stroke-width:1px;stroke-linecap:butt;stroke-linejoin:miter;stroke-opacity:1"
     d="m 66.602345,14.360157 0,2.917969 6.103125,0 0,16.361717 3.375,0 0,-16.361717 6.128905,0 0,-2.917969 -15.60703,0 z m 68.615625,0 0,19.279686 3.07969,0 0,-19.279686 -3.07969,0 z m 14.27343,0 0,19.279686 3.21094,0 0,-14.878124 0.0539,0 5.34609,14.878124 2.78203,0 5.3461,-14.878124 0.0539,0 0,14.878124 3.21329,0 0,-19.279686 -4.69923,0 -5.18203,15.09375 -0.0562,0 -5.31797,-15.09375 -4.75079,0 z m 71.7375,0 0,2.917969 3.07735,0 0,-2.917969 -3.07735,0 z M 88.579685,19.303125 c -0.486,0 -0.94612,0.107532 -1.37812,0.269531 -0.459,0.189 -0.861845,0.431907 -1.239845,0.728907 -0.378,0.297 -0.676875,0.619311 -0.946875,0.970311 -0.27,0.378002 -0.43228,0.730595 -0.51328,1.108595 l -0.05391,0 0,-2.7 -2.8875,0 0,13.959374 3.077345,0 0,-6.642186 c -0.027,-0.756 0.08165,-1.432126 0.297655,-2.053126 0.189,-0.594 0.457595,-1.078594 0.808595,-1.483594 0.324,-0.405 0.72928,-0.70275 1.18828,-0.91875 0.459,-0.216 0.94594,-0.296437 1.48594,-0.323437 0.216,0 0.430875,0.0269 0.646875,0.05391 0.216,0.027 0.459,0.05269 0.675,0.07969 l 0,-2.969531 c -0.162,0 -0.29625,-0.0269 -0.43125,-0.05391 -0.135,0 -0.37791,-0.02578 -0.72891,-0.02578 z m 8.57344,0 c -0.783,0 -1.537405,0.08063 -2.266405,0.215625 -0.756,0.162 -1.40522,0.403687 -1.99922,0.754687 -0.594,0.378 -1.051685,0.838032 -1.429685,1.432032 -0.378,0.594 -0.59522,1.349624 -0.64922,2.240625 l 3.07734,0 c 0.054,-0.756 0.37988,-1.295438 0.94688,-1.673438 0.54,-0.351 1.26881,-0.541406 2.13281,-0.541406 0.297,0 0.61931,0.02803 0.97031,0.08203 0.324,0.054 0.64875,0.134532 0.91875,0.269532 0.27,0.135 0.51413,0.324187 0.70313,0.567187 0.189,0.27 0.29531,0.594657 0.29531,0.972657 0,0.459 -0.13322,0.808218 -0.34922,1.024217 -0.216,0.216001 -0.54075,0.379501 -0.91875,0.487501 -0.378,0.108 -0.83822,0.18975 -1.32422,0.243751 -0.513,0.054 -1.051405,0.107624 -1.591405,0.215624 -0.648,0.081 -1.29731,0.188437 -1.94531,0.323437 -0.648,0.135 -1.214345,0.349876 -1.727345,0.646876 -0.513,0.324 -0.91819,0.730312 -1.24219,1.270311 -0.324,0.540001 -0.45937,1.240689 -0.45937,2.104689 0,0.702 0.10734,1.296374 0.37734,1.809374 0.27,0.513 0.62269,0.946313 1.05469,1.270313 0.432,0.324 0.9435,0.592687 1.5375,0.754687 0.567,0.162 1.161375,0.24375 1.809375,0.24375 0.81,0 1.675405,-0.135468 2.566405,-0.405468 0.891,-0.27 1.645405,-0.702093 2.266405,-1.296093 0.108,0.647999 0.37894,1.081218 0.81094,1.324218 0.405,0.27 0.91762,0.377343 1.56562,0.377343 0.108,0 0.27038,-0.0012 0.45938,-0.02813 0.162,0 0.35006,-0.02569 0.53906,-0.07969 0.162,-0.027 0.35128,-0.05381 0.51328,-0.107812 0.162,-0.054 0.29859,-0.08194 0.43359,-0.135937 l 0,-2.132813 c -0.162,0.054 -0.32559,0.05391 -0.43359,0.05391 l -0.32344,0 c -0.297,0 -0.48497,-0.08175 -0.59297,-0.24375 -0.108,-0.162 -0.13593,-0.430595 -0.13593,-0.808595 l 0,-7.181249 c 0,-0.729001 -0.16116,-1.350282 -0.48516,-1.863282 -0.324,-0.513 -0.75609,-0.946312 -1.29609,-1.270312 -0.54,-0.297 -1.135595,-0.538781 -1.783595,-0.700781 -0.675,-0.135 -1.35,-0.188625 -2.025,-0.215625 z m 29.029685,0 c -1.053,0 -1.99781,0.214968 -2.80781,0.592969 -0.837,0.405 -1.53881,0.944532 -2.13281,1.619531 -0.594,0.675 -1.026,1.457438 -1.35001,2.348438 -0.324,0.891 -0.45937,1.835812 -0.45937,2.807812 0,1.079999 0.13659,2.080875 0.43359,2.971875 0.297,0.918 0.72787,1.672313 1.32187,2.320313 0.594,0.648 1.29695,1.163061 2.16095,1.514063 0.837,0.377998 1.80862,0.539061 2.91562,0.539061 0.729,0 1.45659,-0.08166 2.15859,-0.297656 0.702,-0.216 1.32441,-0.511407 1.89141,-0.916406 0.54,-0.405 1.02469,-0.920062 1.42969,-1.514062 0.378,-0.594 0.64772,-1.269 0.83672,-2.025 l -2.91562,0 c -0.27,0.783 -0.7022,1.377468 -1.2422,1.755468 -0.54,0.378 -1.26759,0.567188 -2.15859,0.567188 -0.648,0 -1.21444,-0.107438 -1.67344,-0.323438 -0.486,-0.216 -0.8655,-0.54075 -1.1625,-0.91875 -0.324,-0.378 -0.53877,-0.808875 -0.70077,-1.321875 -0.162,-0.486 -0.21563,-1.025625 -0.21563,-1.565625 l 10.25859,0 c 0.108,-1.026 0.0544,-2.053781 -0.21562,-3.025781 -0.27,-0.972 -0.6752,-1.861969 -1.2422,-2.617969 -0.594,-0.756 -1.32271,-1.350374 -2.18671,-1.809375 -0.864,-0.459 -1.86375,-0.700781 -2.94375,-0.700781 z m 53.025,0 c -0.783,0 -1.53741,0.08063 -2.26641,0.215625 -0.756,0.162 -1.40521,0.403687 -1.99921,0.754687 -0.594,0.378 -1.05169,0.838032 -1.42969,1.432032 -0.378,0.594 -0.59522,1.349624 -0.64922,2.240625 l 3.07735,0 c 0.054,-0.756 0.37987,-1.295438 0.94687,-1.673438 0.54,-0.351 1.26881,-0.541406 2.13281,-0.541406 0.297,0 0.61932,0.02803 0.97032,0.08203 0.324,0.054 0.64874,0.134532 0.91874,0.269532 0.27,0.135 0.51413,0.324187 0.70313,0.567187 0.189,0.27 0.29531,0.594657 0.29531,0.972657 0,0.459 -0.13322,0.808218 -0.34921,1.024217 -0.216,0.216001 -0.54076,0.379501 -0.91876,0.487501 -0.378,0.108 -0.83821,0.18975 -1.32421,0.243751 -0.513,0.054 -1.0514,0.107624 -1.5914,0.215624 -0.648,0.081 -1.29733,0.188437 -1.94533,0.323437 -0.64799,0.135 -1.21433,0.349876 -1.72734,0.646876 -0.513,0.324 -0.91819,0.730312 -1.24219,1.270311 -0.324,0.540001 -0.45937,1.240689 -0.45937,2.104689 0,0.702 0.10734,1.296374 0.37734,1.809374 0.27,0.513 0.62269,0.946313 1.05469,1.270313 0.432,0.324 0.9435,0.592687 1.5375,0.754687 0.567,0.162 1.16137,0.24375 1.80937,0.24375 0.81,0 1.67541,-0.135468 2.56641,-0.405468 0.891,-0.27 1.64541,-0.702093 2.26641,-1.296093 0.108,0.647999 0.37894,1.081218 0.81094,1.324218 0.405,0.27 0.91761,0.377343 1.56561,0.377343 0.108,0 0.27039,-0.0012 0.45939,-0.02813 0.162,0 0.35006,-0.02569 0.53906,-0.07969 0.162,-0.027 0.35128,-0.05381 0.51328,-0.107812 0.162,-0.054 0.29859,-0.08194 0.43359,-0.135937 l 0,-2.132813 c -0.162,0.054 -0.32559,0.05391 -0.43359,0.05391 l -0.32344,0 c -0.297,0 -0.48497,-0.08175 -0.59297,-0.24375 -0.108,-0.162 -0.13593,-0.430595 -0.13593,-0.808595 l 0,-7.181249 c 0,-0.729001 -0.16116,-1.350282 -0.48516,-1.863282 -0.324,-0.513 -0.7561,-0.946312 -1.2961,-1.270312 -0.54,-0.297 -1.13559,-0.538781 -1.78359,-0.700781 -0.675,-0.135 -1.35,-0.188625 -2.025,-0.215625 z m 16.29844,0 c -0.918,0 -1.75416,0.188062 -2.51016,0.539062 -0.783,0.351 -1.37737,0.917344 -1.80937,1.727344 l -0.0539,0 0,-1.889062 -2.91562,0 0,19.115624 3.07734,0 0,-6.965624 0.0539,0 c 0.216,0.378 0.51384,0.728438 0.86484,0.998437 0.351,0.27 0.72816,0.513 1.16016,0.675 0.405,0.189 0.8371,0.324468 1.2961,0.405468 0.432,0.081 0.891,0.107813 1.35,0.107813 1.026,0 1.91821,-0.190312 2.67421,-0.595312 0.756,-0.405001 1.37495,-0.944532 1.86095,-1.619532 0.486,-0.675 0.86558,-1.457437 1.10858,-2.348437 0.243,-0.864 0.37736,-1.780782 0.37736,-2.725781 0,-1.026001 -0.13547,-1.971844 -0.40547,-2.889844 -0.27,-0.891 -0.67407,-1.673438 -1.21407,-2.348438 -0.54,-0.675 -1.24312,-1.21575 -2.05312,-1.59375 -0.81,-0.378 -1.78173,-0.565968 -2.86172,-0.592968 z m 16.50703,0 c -0.918,0 -1.7565,0.188062 -2.5125,0.539062 -0.783,0.351 -1.37503,0.917344 -1.80703,1.727344 l -0.0563,0 0,-1.889062 -2.91563,0 0,19.115624 3.0797,0 0,-6.965624 0.0539,0 c 0.216,0.378 0.5115,0.728438 0.8625,0.998437 0.351,0.27 0.7305,0.513 1.1625,0.675 0.405,0.189 0.8371,0.324468 1.2961,0.405468 0.432,0.081 0.891,0.107813 1.35,0.107813 1.026,0 1.91587,-0.190312 2.67187,-0.595312 0.756,-0.405001 1.37729,-0.944532 1.86329,-1.619532 0.486,-0.675 0.86324,-1.457437 1.10624,-2.348437 0.243,-0.864 0.37969,-1.780782 0.37969,-2.725781 0,-1.026001 -0.13547,-1.971844 -0.40547,-2.889844 -0.27,-0.891 -0.67641,-1.673438 -1.21641,-2.348438 -0.54,-0.675 -1.24078,-1.21575 -2.05078,-1.59375 -0.81,-0.378 -1.78172,-0.565968 -2.86172,-0.592968 z m 22.93829,0 c -0.91801,0 -1.7565,0.243001 -2.5125,0.675001 -0.756,0.431998 -1.37616,1.05103 -1.83516,1.80703 l -0.0539,-0.05391 0,-2.050781 -2.91563,0 0,13.959374 3.07736,0 0,-8.235936 c 0,-0.486001 0.0817,-0.973032 0.24374,-1.432033 0.162,-0.431999 0.378,-0.836155 0.675,-1.160155 0.27,-0.324 0.62034,-0.593813 1.05234,-0.782812 0.405,-0.189001 0.86391,-0.297657 1.40392,-0.297657 0.918,0 1.593,0.271031 2.025,0.757031 0.432,0.486 0.64911,1.296563 0.70311,2.376563 l 0,8.775 3.07735,0 0,-9.585937 c 0,-1.566 -0.46022,-2.754844 -1.32422,-3.564844 -0.891,-0.783 -2.1044,-1.158937 -3.6164,-1.185937 z m 13.82812,0 c -0.999,0 -1.88888,0.186844 -2.67188,0.564844 -0.783,0.378 -1.43108,0.891844 -1.97108,1.539844 -0.54,0.648 -0.9722,1.377844 -1.2422,2.214844 -0.297,0.863999 -0.43125,1.753874 -0.43125,2.671874 0,1.026 0.10856,1.971938 0.35156,2.835938 0.216,0.891 0.59326,1.673437 1.10626,2.348437 0.513,0.675001 1.15997,1.215751 1.94297,1.59375 0.783,0.378 1.72771,0.567187 2.86171,0.567187 0.837,0 1.64869,-0.217218 2.40469,-0.649218 0.756,-0.432 1.32226,-1.026375 1.78126,-1.809375 l 0.0539,0 0,2.132813 c 0,1.161 -0.29786,2.052093 -0.86486,2.646093 -0.594,0.621 -1.48377,0.91875 -2.72577,0.91875 -0.405,0 -0.78337,9.4e-5 -1.13437,-0.05391 -0.378,-0.054 -0.70144,-0.135657 -0.99844,-0.297657 -0.297,-0.162 -0.54103,-0.376874 -0.75703,-0.646874 -0.216,-0.27 -0.37838,-0.620344 -0.45938,-1.052344 l -3.07734,0 c 0.054,0.81 0.29813,1.510781 0.70313,2.050781 0.378,0.567 0.8638,1.026 1.4578,1.35 0.594,0.351 1.24097,0.593907 1.94297,0.728907 0.702,0.162 1.40382,0.215624 2.13282,0.215624 2.187,0 3.88857,-0.5115 5.07657,-1.5375 1.188,-1.026 1.78124,-2.619 1.78124,-4.725 l 0,-13.230468 -3.07734,0 0,1.917187 -0.0539,0 c -0.405,-0.783 -0.97257,-1.351687 -1.70157,-1.729687 -0.756,-0.378 -1.56647,-0.564844 -2.43047,-0.564844 z m -144.075,0.377344 5.07422,13.959374 3.45703,0 4.99453,-13.959374 -3.18515,0 -3.40313,10.717968 -0.0539,0 -3.53671,-10.717968 -3.34688,0 z m 116.52421,0 0,13.959374 3.07735,0 0,-13.959374 -3.07735,0 z m -95.04609,2.050781 c 0.513,0 0.97192,0.109781 1.40392,0.325781 0.43199,0.216 0.78346,0.484594 1.08046,0.808594 0.297,0.324 0.54112,0.7305 0.70312,1.162501 0.162,0.459 0.26944,0.917905 0.32343,1.403905 l -7.18124,0 c 0,-0.513 0.10631,-1.001156 0.29531,-1.460157 0.189,-0.431999 0.43303,-0.836155 0.75703,-1.160155 0.324,-0.324 0.70239,-0.593813 1.13439,-0.782812 0.432,-0.189 0.91658,-0.297657 1.48358,-0.297657 z m 68.91796,0 c 0.621,0 1.18979,0.163594 1.67579,0.433594 0.486,0.269999 0.89007,0.64725 1.21407,1.10625 0.324,0.458999 0.5669,0.971625 0.7289,1.565625 0.162,0.594 0.24374,1.214155 0.24374,1.835156 0,0.620999 -0.0806,1.215375 -0.21561,1.809375 -0.135,0.594 -0.351,1.106625 -0.675,1.565625 -0.324,0.459001 -0.70229,0.838594 -1.18829,1.108594 -0.486,0.297 -1.0816,0.43125 -1.7836,0.43125 -0.648,0 -1.18743,-0.107345 -1.67343,-0.377345 -0.486,-0.243 -0.89007,-0.594561 -1.21407,-1.026561 -0.351,-0.405 -0.6208,-0.945844 -0.7828,-1.539844 -0.162,-0.594 -0.24375,-1.242095 -0.24375,-1.971094 -0.027,-1.485 0.32465,-2.672625 0.97265,-3.590625 0.648,-0.891 1.6184,-1.35 2.9414,-1.35 z m 16.50704,0 c 0.621,0 1.18743,0.163594 1.67344,0.433594 0.486,0.269999 0.89241,0.64725 1.21641,1.10625 0.324,0.458999 0.5669,0.971625 0.7289,1.565625 0.162,0.594 0.24141,1.214155 0.24141,1.835156 0,0.620999 -0.0806,1.215375 -0.21563,1.809375 -0.135,0.594 -0.351,1.106625 -0.675,1.565625 -0.324,0.459001 -0.70228,0.838594 -1.18828,1.108594 -0.486,0.297 -1.07925,0.43125 -1.78125,0.43125 -0.648,0 -1.18744,-0.107345 -1.67344,-0.377345 -0.486,-0.243 -0.8924,-0.594561 -1.2164,-1.026561 -0.351,-0.405 -0.62081,-0.945844 -0.78281,-1.539844 -0.162,-0.594 -0.24141,-1.242095 -0.24142,-1.971094 -0.027,-1.485 0.32232,-2.672625 0.97032,-3.590625 0.648,-0.891 1.62075,-1.35 2.94375,-1.35 z m 37.60546,0 c 0.648,0 1.21557,0.136687 1.70157,0.379687 0.486,0.27 0.86316,0.59222 1.16016,1.024219 0.297,0.432 0.513,0.945938 0.675,1.485937 0.135,0.567001 0.21563,1.133344 0.21563,1.727344 0,0.594 -0.0806,1.189594 -0.21563,1.783594 -0.135,0.594 -0.35223,1.106626 -0.64923,1.565625 -0.297,0.459 -0.67414,0.83625 -1.16014,1.10625 -0.486,0.27 -1.05236,0.405468 -1.72736,0.405468 -0.64799,0 -1.21443,-0.135468 -1.67343,-0.405468 -0.459,-0.27 -0.83737,-0.620343 -1.13437,-1.052343 -0.297,-0.405 -0.51422,-0.917813 -0.64922,-1.457813 -0.162,-0.54 -0.21562,-1.107563 -0.21562,-1.701563 0,-0.567 0.0548,-1.133344 0.18984,-1.727343 0.108,-0.594001 0.3241,-1.108968 0.6211,-1.567969 0.27,-0.459 0.64603,-0.835032 1.13202,-1.132032 0.459,-0.27 1.02768,-0.406593 1.72968,-0.433593 z m -149.547645,4.914844 0,2.294531 c 0,0.486 -0.13556,0.918188 -0.35156,1.242188 -0.243,0.324 -0.53963,0.594937 -0.89063,0.810937 -0.351,0.216 -0.73059,0.378375 -1.10859,0.459375 -0.405,0.108 -0.78225,0.133594 -1.10625,0.133594 -0.27,0 -0.59475,-0.02569 -0.91875,-0.07969 -0.324,-0.054 -0.64641,-0.136875 -0.91641,-0.271874 -0.27,-0.135001 -0.51412,-0.324188 -0.70312,-0.567188 -0.216,-0.216 -0.29766,-0.5115 -0.29766,-0.8625 0,-0.378 0.05485,-0.728438 0.189845,-0.998438 0.135,-0.27 0.324185,-0.513 0.567185,-0.675 0.216,-0.162 0.48694,-0.297468 0.81094,-0.405468 0.297,-0.108 0.59353,-0.18975 0.94453,-0.24375 0.675,-0.108 1.34878,-0.215532 2.05078,-0.269532 0.675,-0.054 1.24369,-0.243188 1.72969,-0.567187 z m 82.054685,0 0,2.294531 c 0,0.486 -0.13557,0.918188 -0.35156,1.242188 -0.243,0.324 -0.53962,0.594937 -0.89062,0.810937 -0.351,0.216 -0.7306,0.378375 -1.1086,0.459375 -0.405,0.108 -0.78225,0.133594 -1.10625,0.133594 -0.27001,0 -0.59475,-0.02569 -0.91875,-0.07969 -0.324,-0.054 -0.6464,-0.136875 -0.9164,-0.271874 -0.27,-0.135001 -0.51413,-0.324188 -0.70313,-0.567188 -0.216,-0.216 -0.29766,-0.5115 -0.29766,-0.8625 0,-0.378 0.0549,-0.728438 0.18985,-0.998438 0.135,-0.27 0.32418,-0.513 0.56718,-0.675 0.216,-0.162 0.48694,-0.297468 0.81094,-0.405468 0.297,-0.108 0.59353,-0.18975 0.94453,-0.24375 0.675,-0.108 1.34879,-0.215532 2.05079,-0.269532 0.675,-0.054 1.24368,-0.243188 1.72968,-0.567187 z"
     id="path4154"
     inkscape:connector-curvature="0" />
</svg>
