<?xml version="1.0" encoding="UTF-8" standalone="no"?>
<svg
   xmlns:dc="http://purl.org/dc/elements/1.1/"
   xmlns:cc="http://creativecommons.org/ns#"
   xmlns:rdf="http://www.w3.org/1999/02/22-rdf-syntax-ns#"
   xmlns:svg="http://www.w3.org/2000/svg"
   xmlns="http://www.w3.org/2000/svg"
   id="svg4185"
   version="1.1"
   viewBox="0 0 240 48"
   height="60"
   width="300">
  <metadata
     id="metadata4194">
    <rdf:RDF>
      <cc:Work
         rdf:about="">
        <dc:format>image/svg+xml</dc:format>
        <dc:type
           rdf:resource="http://purl.org/dc/dcmitype/StillImage" />
        <dc:title></dc:title>
      </cc:Work>
    </rdf:RDF>
  </metadata>
  <defs
     id="defs4192" />
  <path
     style="fill:#ffffff;fill-opacity:1;fill-rule:evenodd;stroke:none"
     d="m 21.186281,2 -2.148437,11 5.929687,0 0.34375,-11 z m 8.335938,0 0.34375,11 5.929687,0 L 33.647219,2 Z M 17.190188,22.324219 12.549563,46 23.97925,46 24.66675,22.324219 Z m 12.976562,0 L 30.85425,46 42.283938,46 37.643313,22.324219 Z m -27.5,-6.574219 0,3.566406 3.953125,0 c 0.8540043,0.03223 1.5629886,0.83252 1.546875,1.675781 l 0,4.382813 3.4375,0 1.03125,-4.769531 c 0.155761,-0.762696 0.896973,-1.332032 1.675781,-1.289063 l 26.210938,0 c 0.778808,-0.04296 1.520019,0.526367 1.675781,1.289063 l 1.03125,4.769531 3.4375,0 0,-4.382813 c -0.01611,-0.843261 0.692871,-1.643553 1.546875,-1.675781 l 3.953125,0 0,-3.566406 z m 0,0"
     id="path4188" />
  <path
     d="m 19.685896,25.618672 q 1.047364,0 1.584473,1.71875 1.074219,3.222656 1.530762,3.222656 0.349121,0 0.725098,-0.53711 7.546386,-12.084961 13.964844,-19.550781 1.665037,-1.933594 5.290527,-1.933594 0.859375,0 1.154785,0.161133 0.29541,0.161133 0.29541,0.402832 0,0.375976 -0.886231,1.477051 -10.36621,12.460938 -19.228516,26.318359 -0.617676,0.966798 -2.524413,0.966798 -1.933594,0 -2.282716,-0.161134 -0.913086,-0.402833 -2.148438,-4.108887 -1.396484,-4.108886 -1.396484,-5.15625 0,-1.12793 1.879884,-2.175292 1.154785,-0.644531 2.041015,-0.644531 z"
     style="font-style:normal;font-variant:normal;font-weight:normal;font-stretch:normal;font-size:40px;line-height:100%;font-family:'Helvetica Neue';-inkscape-font-specification:'Helvetica Neue';letter-spacing:0px;word-spacing:0px;fill:#ff0000;fill-opacity:1;stroke:none;stroke-width:1px;stroke-linecap:butt;stroke-linejoin:miter;stroke-opacity:1"
     id="path4195" />
  <path
     id="path4154"
     d="m 63.67935,15.163477 0,2.674805 5.594531,0 0,14.998241 3.09375,0 0,-14.998241 5.618163,0 0,-2.674805 -14.306444,0 z m 62.89765,0 0,17.673046 2.82305,0 0,-17.673046 -2.82305,0 z m 13.08398,0 0,17.673046 2.94336,0 0,-13.638281 0.0494,0 4.90058,13.638281 2.5502,0 4.90059,-13.638281 0.0494,0 0,13.638281 2.94551,0 0,-17.673046 -4.30763,0 -4.75019,13.835938 -0.0515,0 -4.8748,-13.835938 -4.35489,0 z m 65.75937,0 0,2.674805 2.82091,0 0,-2.674805 -2.82091,0 z M 83.825245,19.694531 c -0.4455,0 -0.867277,0.09857 -1.263277,0.24707 -0.42075,0.17325 -0.790024,0.395915 -1.136524,0.668165 -0.3465,0.27225 -0.620469,0.567702 -0.867969,0.889452 -0.2475,0.346502 -0.396257,0.669712 -0.470507,1.016212 l -0.04942,0 0,-2.475 -2.646875,0 0,12.796093 2.820899,0 0,-6.088671 c -0.02475,-0.693 0.07485,-1.312782 0.272851,-1.882032 0.17325,-0.5445 0.419462,-0.988711 0.741212,-1.359961 0.297,-0.37125 0.668507,-0.644188 1.089257,-0.842188 0.42075,-0.198 0.867111,-0.271734 1.362111,-0.296483 0.198,0 0.394969,0.02466 0.592969,0.04942 0.198,0.02475 0.42075,0.0483 0.61875,0.07305 l 0,-2.72207 c -0.1485,0 -0.271562,-0.02466 -0.395313,-0.04942 -0.12375,0 -0.346417,-0.02363 -0.668167,-0.02363 z m 7.858987,0 c -0.71775,0 -1.409288,0.07391 -2.077538,0.197656 -0.693,0.1485 -1.288119,0.370047 -1.832619,0.691797 -0.5445,0.3465 -0.964044,0.768196 -1.310544,1.312696 -0.3465,0.5445 -0.545618,1.237155 -0.595118,2.053906 l 2.820895,0 c 0.0495,-0.693 0.348223,-1.187485 0.867973,-1.533985 0.495,-0.32175 1.163076,-0.496288 1.955076,-0.496288 0.27225,0 0.567701,0.02569 0.889451,0.07519 0.297,0.0495 0.594687,0.123321 0.842187,0.247071 0.2475,0.12375 0.471286,0.297171 0.644536,0.519921 0.17325,0.2475 0.270701,0.545102 0.270701,0.891602 0,0.42075 -0.122119,0.740867 -0.320119,0.938866 -0.198,0.198001 -0.495687,0.347876 -0.842187,0.446876 -0.3465,0.099 -0.768368,0.173937 -1.213868,0.223438 -0.47025,0.0495 -0.963788,0.09866 -1.458788,0.197656 -0.594,0.07425 -1.189201,0.172734 -1.783201,0.296484 -0.594,0.12375 -1.11315,0.320719 -1.5834,0.592969 -0.47025,0.297 -0.841674,0.669453 -1.138674,1.164452 -0.297,0.495001 -0.421089,1.137298 -0.421089,1.929298 0,0.6435 0.09839,1.188343 0.345895,1.658593 0.2475,0.47025 0.570799,0.867454 0.966799,1.164454 0.396,0.297 0.864875,0.543296 1.409375,0.691796 0.51975,0.1485 1.064594,0.223437 1.658594,0.223437 0.7425,0 1.535788,-0.124179 2.352538,-0.371678 0.81675,-0.2475 1.508288,-0.643586 2.077538,-1.188086 0.099,0.593999 0.347357,0.991117 0.743366,1.213867 0.37125,0.2475 0.841142,0.345898 1.435142,0.345898 0.099,0 0.247849,-0.0011 0.421099,-0.02579 0.1485,0 0.320888,-0.02355 0.494138,-0.07305 0.148509,-0.02475 0.322016,-0.04933 0.470507,-0.09883 0.1485,-0.0495 0.273707,-0.07511 0.397457,-0.124609 l 0,-1.955079 c -0.1485,0.0495 -0.298457,0.04942 -0.397457,0.04942 l -0.296487,0 c -0.27225,0 -0.444556,-0.07494 -0.543556,-0.223438 -0.099,-0.1485 -0.124602,-0.394712 -0.124602,-0.741212 l 0,-6.582811 c 0,-0.668251 -0.14773,-1.237759 -0.44473,-1.708009 -0.296991,-0.47025 -0.693083,-0.867452 -1.188083,-1.164452 -0.495,-0.27225 -1.040957,-0.493883 -1.634957,-0.642383 -0.61875,-0.12375 -1.2375,-0.172906 -1.85625,-0.197656 z m 26.610538,0 c -0.96525,0 -1.83132,0.197054 -2.57382,0.543555 -0.76725,0.37125 -1.41058,0.865821 -1.95508,1.48457 -0.5445,0.61875 -0.9405,1.335985 -1.23751,2.152735 -0.297,0.81675 -0.42109,1.682828 -0.42109,2.573828 0,0.989999 0.12521,1.907468 0.39746,2.724218 0.27225,0.841501 0.66721,1.532954 1.21171,2.126954 0.5445,0.594 1.18887,1.066139 1.98087,1.387891 0.76725,0.346498 1.65791,0.494139 2.67266,0.494139 0.66825,0 1.3352,-0.07485 1.9787,-0.272851 0.6435,-0.198 1.21405,-0.46879 1.7338,-0.840039 0.495,-0.37125 0.9393,-0.84339 1.31055,-1.38789 0.3465,-0.5445 0.59374,-1.16325 0.76699,-1.85625 l -2.67265,0 c -0.2475,0.71775 -0.64369,1.262679 -1.13868,1.609179 -0.495,0.3465 -1.16195,0.519922 -1.9787,0.519922 -0.594,0 -1.11324,-0.09848 -1.53399,-0.296484 -0.4455,-0.198 -0.79338,-0.495688 -1.06563,-0.842188 -0.297,-0.3465 -0.49387,-0.741469 -0.64237,-1.211719 -0.1485,-0.4455 -0.19766,-0.940156 -0.19766,-1.435156 l 9.4037,0 c 0.099,-0.9405 0.0499,-1.882633 -0.19765,-2.773633 -0.2475,-0.891 -0.61893,-1.706804 -1.13869,-2.399804 -0.54449,-0.693 -1.21248,-1.237843 -2.00448,-1.658594 -0.792,-0.42075 -1.70843,-0.642383 -2.69843,-0.642383 z m 48.60625,0 c -0.71775,0 -1.40929,0.07391 -2.07754,0.197656 -0.693,0.1485 -1.28811,0.370047 -1.83261,0.691797 -0.5445,0.3465 -0.96405,0.768196 -1.31055,1.312696 -0.3465,0.5445 -0.54562,1.237155 -0.59512,2.053906 l 2.82091,0 c 0.0495,-0.693 0.34821,-1.187485 0.86796,-1.533985 0.495,-0.32175 1.16308,-0.496288 1.95508,-0.496288 0.27225,0 0.56771,0.02569 0.88946,0.07519 0.297,0.0495 0.59467,0.123321 0.84217,0.247071 0.2475,0.12375 0.47129,0.297171 0.64454,0.519921 0.17325,0.2475 0.2707,0.545102 0.2707,0.891602 0,0.42075 -0.12212,0.740867 -0.32011,0.938866 -0.198,0.198001 -0.49569,0.347876 -0.84219,0.446876 -0.3465,0.099 -0.76836,0.173937 -1.21386,0.223438 -0.47025,0.0495 -0.96379,0.09866 -1.45879,0.197656 -0.594,0.07425 -1.18922,0.172734 -1.78322,0.296484 -0.59399,0.12375 -1.11313,0.320719 -1.58339,0.592969 -0.47025,0.297 -0.84168,0.669453 -1.13868,1.164452 -0.297,0.495001 -0.42108,1.137298 -0.42108,1.929298 0,0.6435 0.0984,1.188343 0.34589,1.658593 0.2475,0.47025 0.5708,0.867454 0.9668,1.164454 0.396,0.297 0.86487,0.543296 1.40937,0.691796 0.51975,0.1485 1.06459,0.223437 1.65859,0.223437 0.7425,0 1.5358,-0.124179 2.35255,-0.371678 0.81675,-0.2475 1.50829,-0.643586 2.07754,-1.188086 0.099,0.593999 0.34736,0.991117 0.74336,1.213867 0.37125,0.2475 0.84114,0.345898 1.43514,0.345898 0.099,0 0.24786,-0.0011 0.42111,-0.02579 0.1485,0 0.32089,-0.02355 0.49414,-0.07305 0.1485,-0.02475 0.32201,-0.04933 0.47051,-0.09883 0.1485,-0.0495 0.2737,-0.07511 0.39745,-0.124609 l 0,-1.955079 c -0.1485,0.0495 -0.29845,0.04942 -0.39745,0.04942 l -0.29649,0 c -0.27225,0 -0.44456,-0.07494 -0.54356,-0.223438 -0.099,-0.1485 -0.1246,-0.394712 -0.1246,-0.741212 l 0,-6.582811 c 0,-0.668251 -0.14773,-1.237759 -0.44473,-1.708009 -0.297,-0.47025 -0.69309,-0.867452 -1.18809,-1.164452 -0.495,-0.27225 -1.04096,-0.493883 -1.63496,-0.642383 -0.61875,-0.12375 -1.2375,-0.172906 -1.85625,-0.197656 z m 14.94024,0 c -0.8415,0 -1.60798,0.17239 -2.30098,0.49414 -0.71775,0.32175 -1.26259,0.840899 -1.65859,1.583399 l -0.0494,0 0,-1.73164 -2.67265,0 0,17.522655 2.82089,0 0,-6.385155 0.0494,0 c 0.198,0.3465 0.47102,0.667735 0.79277,0.915234 0.32175,0.2475 0.66748,0.47025 1.06348,0.61875 0.37125,0.17325 0.76734,0.297429 1.18809,0.371679 0.396,0.07425 0.81675,0.09883 1.2375,0.09883 0.9405,0 1.75836,-0.174452 2.45136,-0.545702 0.693,-0.371251 1.26037,-0.865821 1.70587,-1.484571 0.4455,-0.61875 0.79345,-1.335984 1.0162,-2.152734 0.22275,-0.792 0.34592,-1.632384 0.34592,-2.498633 0,-0.940501 -0.12419,-1.807523 -0.37169,-2.649023 -0.2475,-0.81675 -0.61789,-1.533985 -1.11289,-2.152735 -0.495,-0.61875 -1.13953,-1.114438 -1.88203,-1.460938 -0.7425,-0.3465 -1.63325,-0.518804 -2.62324,-0.543554 z m 15.13144,0 c -0.8415,0 -1.61012,0.17239 -2.30312,0.49414 -0.71774,0.32175 -1.26045,0.840899 -1.65644,1.583399 l -0.0516,0 0,-1.73164 -2.67266,0 0,17.522655 2.82306,0 0,-6.385155 0.0494,0 c 0.198,0.3465 0.46888,0.667735 0.79063,0.915234 0.32175,0.2475 0.66962,0.47025 1.06562,0.61875 0.37125,0.17325 0.76734,0.297429 1.18809,0.371679 0.396,0.07425 0.81675,0.09883 1.2375,0.09883 0.9405,0 1.75622,-0.174452 2.44922,-0.545702 0.693,-0.371251 1.26251,-0.865821 1.70801,-1.484571 0.4455,-0.61875 0.79131,-1.335984 1.01406,-2.152734 0.22275,-0.792 0.34804,-1.632384 0.34804,-2.498633 0,-0.940501 -0.12418,-1.807523 -0.37168,-2.649023 -0.2475,-0.81675 -0.62004,-1.533985 -1.11504,-2.152735 -0.495,-0.61875 -1.13738,-1.114438 -1.87988,-1.460938 -0.7425,-0.3465 -1.63324,-0.518804 -2.62324,-0.543554 z m 21.02677,0 c -0.84151,0 -1.61013,0.222751 -2.30313,0.618751 -0.693,0.395998 -1.26148,0.963444 -1.68223,1.656444 l -0.0494,-0.04942 0,-1.879883 -2.67267,0 0,12.796093 2.82092,0 0,-7.549608 c 0,-0.445501 0.0749,-0.891946 0.22344,-1.312697 0.1485,-0.395999 0.34649,-0.766475 0.61875,-1.063475 0.2475,-0.297 0.56864,-0.544329 0.96463,-0.717578 0.37125,-0.173251 0.79193,-0.272852 1.28693,-0.272852 0.84151,0 1.46025,0.248445 1.85626,0.693945 0.39599,0.4455 0.59501,1.188516 0.64451,2.178516 l 0,8.04375 2.82091,0 0,-8.787109 c 0,-1.4355 -0.42187,-2.525274 -1.21387,-3.267774 -0.81675,-0.71775 -1.92903,-1.062358 -3.31503,-1.087108 z m 12.67578,0 c -0.91575,0 -1.73148,0.171274 -2.44922,0.517774 -0.71775,0.3465 -1.31183,0.817524 -1.80682,1.411524 -0.495,0.594 -0.89119,1.263023 -1.13869,2.030273 -0.27225,0.791999 -0.39531,1.607718 -0.39531,2.449218 0,0.9405 0.0995,1.80761 0.32227,2.59961 0.198,0.81675 0.54381,1.533984 1.01407,2.152734 0.47025,0.618751 1.06329,1.114438 1.78105,1.460937 0.71774,0.3465 1.58374,0.519922 2.62323,0.519922 0.76725,0 1.5113,-0.199117 2.2043,-0.595117 0.693,-0.396 1.21207,-0.940844 1.63282,-1.658594 l 0.0494,0 0,1.955079 c 0,1.06425 -0.27304,1.881085 -0.79279,2.425585 -0.5445,0.56925 -1.36012,0.842188 -2.49862,0.842188 -0.37125,0 -0.71809,8.6e-5 -1.03984,-0.04942 -0.34649,-0.0495 -0.64299,-0.124352 -0.91524,-0.272852 -0.27224,-0.1485 -0.49594,-0.345468 -0.69393,-0.592968 -0.198,-0.2475 -0.34685,-0.568648 -0.4211,-0.964648 l -2.8209,0 c 0.0495,0.7425 0.27328,1.384882 0.64453,1.879882 0.3465,0.51975 0.79182,0.9405 1.33632,1.2375 0.5445,0.32175 1.13755,0.544415 1.78105,0.668165 0.6435,0.1485 1.28684,0.197655 1.9551,0.197655 2.00475,0 3.56451,-0.468875 4.65352,-1.409375 1.08899,-0.9405 1.6328,-2.40075 1.6328,-4.33125 l 0,-12.127929 -2.82089,0 0,1.757422 -0.0494,0 c -0.37125,-0.71775 -0.89152,-1.239047 -1.55977,-1.585547 -0.693,-0.3465 -1.43594,-0.517773 -2.22794,-0.517773 z m -132.068746,0.345899 4.651366,12.796093 3.16895,0 4.57832,-12.796093 -2.91972,0 -3.11954,9.824804 -0.0494,0 -3.24198,-9.824804 -3.067977,0 z m 106.813846,0 0,12.796093 2.82091,0 0,-12.796093 -2.82091,0 z m -87.12558,1.879883 c 0.47026,0 0.89093,0.100632 1.28693,0.298632 0.39599,0.198 0.71817,0.444211 0.99042,0.741211 0.27225,0.297 0.49603,0.669625 0.64453,1.065626 0.14851,0.42075 0.24698,0.841413 0.29647,1.286913 l -6.58279,0 c 0,-0.47025 0.0974,-0.917726 0.2707,-1.338477 0.17325,-0.395999 0.39695,-0.766476 0.69395,-1.063476 0.297,-0.297 0.64385,-0.544328 1.03985,-0.717577 0.396,-0.17325 0.8402,-0.272852 1.35995,-0.272852 z m 63.1748,0 c 0.56925,0 1.09064,0.149961 1.53614,0.397461 0.4455,0.247499 0.81591,0.593312 1.1129,1.014062 0.29701,0.420749 0.51966,0.890656 0.66816,1.435156 0.1485,0.5445 0.22343,1.112976 0.22343,1.682227 0,0.569249 -0.0739,1.114094 -0.19764,1.658594 -0.12375,0.5445 -0.32175,1.014406 -0.61876,1.435156 -0.297,0.420751 -0.64376,0.768711 -1.08926,1.016211 -0.4455,0.27225 -0.99147,0.395312 -1.63497,0.395312 -0.594,0 -1.08848,-0.0984 -1.53398,-0.345899 -0.44549,-0.22275 -0.8159,-0.545014 -1.11289,-0.941014 -0.32175,-0.37125 -0.56907,-0.867024 -0.71757,-1.411524 -0.1485,-0.5445 -0.22344,-1.138587 -0.22344,-1.806836 -0.0248,-1.36125 0.2976,-2.449906 0.8916,-3.291406 0.594,-0.81675 1.48353,-1.2375 2.69628,-1.2375 z m 15.13145,0 c 0.56925,0 1.08848,0.149961 1.53399,0.397461 0.4455,0.247499 0.81804,0.593312 1.11504,1.014062 0.297,0.420749 0.51966,0.890656 0.66816,1.435156 0.1485,0.5445 0.22129,1.112976 0.22129,1.682227 0,0.569249 -0.0739,1.114094 -0.19766,1.658594 -0.12375,0.5445 -0.32175,1.014406 -0.61875,1.435156 -0.297,0.420751 -0.64376,0.768711 -1.08926,1.016211 -0.4455,0.27225 -0.98931,0.395312 -1.63281,0.395312 -0.594,0 -1.08849,-0.0984 -1.53398,-0.345899 -0.4455,-0.22275 -0.81804,-0.545014 -1.11504,-0.941014 -0.32175,-0.37125 -0.56907,-0.867024 -0.71757,-1.411524 -0.1485,-0.5445 -0.2213,-1.138587 -0.22131,-1.806836 -0.0248,-1.36125 0.29546,-2.449906 0.88946,-3.291406 0.594,-0.81675 1.48569,-1.2375 2.69844,-1.2375 z m 34.47167,0 c 0.594,0 1.11428,0.125296 1.55978,0.348046 0.4455,0.2475 0.79123,0.542868 1.06348,0.938867 0.27225,0.396 0.47025,0.86711 0.61875,1.362109 0.12375,0.519751 0.19766,1.038899 0.19766,1.583399 0,0.5445 -0.0739,1.090461 -0.19766,1.634961 -0.12375,0.5445 -0.32288,1.014407 -0.59513,1.435156 -0.27225,0.42075 -0.61796,0.766563 -1.06346,1.014063 -0.4455,0.2475 -0.96467,0.371679 -1.58342,0.371679 -0.59399,0 -1.11322,-0.124179 -1.53397,-0.371679 -0.42075,-0.2475 -0.76759,-0.568648 -1.03984,-0.964648 -0.27225,-0.37125 -0.47137,-0.841328 -0.59512,-1.336329 -0.1485,-0.495 -0.19765,-1.015266 -0.19765,-1.559766 0,-0.51975 0.0502,-1.038898 0.17402,-1.583397 0.099,-0.544501 0.29709,-1.016554 0.56934,-1.437305 0.2475,-0.42075 0.59219,-0.765446 1.03768,-1.037696 0.42076,-0.2475 0.94205,-0.372711 1.58555,-0.397461 z m -137.085333,4.505273 0,2.10332 c 0,0.4455 -0.124264,0.841673 -0.322264,1.138673 -0.22275,0.297 -0.494661,0.545359 -0.816411,0.743359 -0.32175,0.198 -0.669707,0.346843 -1.016207,0.421093 -0.37125,0.099 -0.717063,0.122461 -1.014063,0.122461 -0.2475,0 -0.545187,-0.02355 -0.842187,-0.07305 -0.297,-0.0495 -0.592543,-0.125469 -0.840043,-0.249218 -0.2475,-0.12375 -0.471276,-0.297172 -0.644526,-0.519922 -0.198,-0.198 -0.272855,-0.468875 -0.272855,-0.790625 0,-0.3465 0.05028,-0.667735 0.174024,-0.915235 0.12375,-0.2475 0.29717,-0.47025 0.51992,-0.61875 0.198,-0.1485 0.446362,-0.272679 0.743362,-0.371679 0.27225,-0.099 0.544069,-0.173937 0.865819,-0.223437 0.61875,-0.099 1.236381,-0.197571 1.879881,-0.247071 0.61875,-0.0495 1.14005,-0.222923 1.58555,-0.519922 z m 75.216793,0 0,2.10332 c 0,0.4455 -0.12428,0.841673 -0.32227,1.138673 -0.22275,0.297 -0.49465,0.545359 -0.8164,0.743359 -0.32175,0.198 -0.66972,0.346843 -1.01622,0.421093 -0.37125,0.099 -0.71706,0.122461 -1.01406,0.122461 -0.24751,0 -0.54519,-0.02355 -0.84219,-0.07305 -0.297,-0.0495 -0.59253,-0.125469 -0.84003,-0.249218 -0.2475,-0.12375 -0.47128,-0.297172 -0.64453,-0.519922 -0.198,-0.198 -0.27286,-0.468875 -0.27286,-0.790625 0,-0.3465 0.0503,-0.667735 0.17403,-0.915235 0.12375,-0.2475 0.29717,-0.47025 0.51992,-0.61875 0.198,-0.1485 0.44637,-0.272679 0.74336,-0.371679 0.27225,-0.099 0.54407,-0.173937 0.86582,-0.223437 0.61875,-0.099 1.23639,-0.197571 1.87989,-0.247071 0.61875,-0.0495 1.14004,-0.222923 1.58554,-0.519922 z"
     style="font-style:normal;font-variant:normal;font-weight:500;font-stretch:normal;font-size:18px;line-height:100%;font-family:'Helvetica Neue';-inkscape-font-specification:'Helvetica Neue Medium';letter-spacing:0px;word-spacing:0px;fill:#ffffff;fill-opacity:1;stroke:none;stroke-width:1px;stroke-linecap:butt;stroke-linejoin:miter;stroke-opacity:1" />
</svg>
