<?xml version="1.0" standalone="no"?>
<!DOCTYPE svg PUBLIC "-//W3C//DTD SVG 1.1//EN" "http://www.w3.org/Graphics/SVG/1.1/DTD/svg11.dtd" >
<svg xmlns="http://www.w3.org/2000/svg" xmlns:xlink="http://www.w3.org/1999/xlink" version="1.1">
<metadata></metadata>
<defs>
<font id="roadgeek_2005_series_5bRg" horiz-adv-x="495" >
<font-face units-per-em="1000" ascent="800" descent="-200" />
<missing-glyph horiz-adv-x="258" />
<glyph horiz-adv-x="0" />
<glyph horiz-adv-x="333" />
<glyph d="M432 723q-10 -73 -59 -113.5t-127 -40.5t-125.5 40.5t-58.5 113.5h83q19 -63 103 -63q85 0 104 63h80z" />
<glyph d="M324 643q0 -29 -23 -51.5t-54 -22.5t-54.5 22.5t-23.5 51.5q0 31 23.5 53t54.5 22t54 -22t23 -53z" />
<glyph d="M381 697q0 -56 -38 -92t-96 -36q-57 0 -95 36t-38 92q0 55 38 92t95 37q58 0 96 -37t38 -92zM306 697q0 24 -17 40.5t-42 16.5q-24 0 -41 -16.5t-17 -40.5t17 -41t41 -17q25 0 42 17t17 41z" />
<glyph unicode="&#xa;" d="M509 723l-144 -154h-116l86 154h174zM291 723l-144 -154h-115l86 154h173z" />
<glyph d="M375 -140q-61 -45 -125 -45q-99 0 -99 80q0 56 76 105h59q-51 -56 -51 -95q0 -29 35 -29q37 0 79 23z" />
<glyph d="M437 723l-120 -154h-139l-121 154h92l99 -72l99 72h90z" />
<glyph unicode="&#xd;" horiz-adv-x="373" d="M259 549v-549h-142v549h142z" />
<glyph horiz-adv-x="628" d="M67 -29l369 817h125l-368 -817h-126v0z" />
<glyph horiz-adv-x="822" d="M60 422v114h77q0 70 11.5 109t34.5 58t58 23.5t83 4.5q19 0 36 -0.5t35 -2.5v-105q-13 0 -25.5 1.5t-25.5 1.5q-23 0 -43.5 -7.5t-21.5 -34.5v-9.5t0.5 -14.5t0.5 -14.5v-9.5h108v-114h-108v-422h-142v422h-78zM708 549v-549h-142v549h142zM549 683q0 29 15 45.5t43 27.5 h59q14 -8 24.5 -13.5t17.5 -12t10.5 -17.5t3.5 -30q0 -11 -4 -23.5t-12 -23t-19 -17.5t-26 -7h-49q-13 0 -24.5 6.5t-20 16.5t-13.5 23t-5 25z" />
<glyph horiz-adv-x="872" d="M60 422v114h77q0 70 11.5 109t34.5 58t58 23.5t83 4.5q19 0 36 -0.5t35 -2.5v-105q-13 0 -25.5 1.5t-25.5 1.5q-23 0 -43.5 -7.5t-21.5 -34.5v-9.5t0.5 -14.5t0.5 -14.5v-9.5h108v-114h-108v-422h-142v422h-78zM711 726v-584q0 -9 7 -20.5t18 -11.5h62v-110l-2 -2 q-1 -1 -15 -3t-22 -2q-24 0 -56.5 -0.5t-62 7t-50 25.5t-20.5 56v645h141z" />
<glyph horiz-adv-x="612" d="M121 670h148v-548h262v-122h-410v670v0zM60 -29l369 817h125l-368 -817h-126v0z" />
<glyph horiz-adv-x="423" d="M262 726v-584q0 -9 7 -20.5t18 -11.5h62v-110l-2 -2q-1 -1 -15 -3t-22 -2q-24 0 -56.5 -0.5t-62 7t-50 25.5t-20.5 56v645h141zM1.23438 298.737l315.218 429.992h106.781l-314.363 -429.992h-107.636v0z" />
<glyph horiz-adv-x="654" d="M380 543h-283v125h467v-112l-302 -433v-3h312v-120h-494v107zM517 858l-120 -154h-139l-121 154h92l99 -72l99 72h90z" />
<glyph horiz-adv-x="565" d="M73 98q4 6 9.5 12.5t15.5 20t26 35t41.5 56.5t61.5 85.5t86 121.5h-235v115h409v-107l-230 -322h235v-115h-419v98v0zM472 723l-120 -154h-139l-121 154h92l99 -72l99 72h90z" />
<glyph unicode=" "  horiz-adv-x="258" />
<glyph unicode="&#x09;" horiz-adv-x="258" />
<glyph unicode="&#xa0;" horiz-adv-x="258" />
<glyph unicode="!" horiz-adv-x="398" d="M108 60q0 19 8 32.5t21 22.5t29 13.5t33 4.5q16 0 32.5 -4.5t29.5 -13.5t21 -23t8 -32q0 -19 -8 -33t-21 -23t-29.5 -13.5t-33.5 -4.5t-33.5 4.5t-29 13.5t-20 23t-7.5 33zM121 670h157l-21 -475h-116z" />
<glyph unicode="&#x22;" horiz-adv-x="663" d="M108 440l49 242h157l-106 -242h-100v0zM353 440l48 242h154l-105 -242h-97v0z" />
<glyph unicode="#" horiz-adv-x="781" d="M183 114l18 117h-107l12 105h107l13 121h-101l12 103h106l19 110h109l-14 -109h117l20 109h108l-16 -110h101l-16 -103h-100l-15 -121h102l-15 -105h-107l-16 -117h-112l15 116h-108l-23 -116h-109v0zM325 337h116l17 119h-117z" />
<glyph unicode="$" horiz-adv-x="635" d="M81 97l33 63q2 12 11.5 22.5t9.5 14.5h4q39 -27 84.5 -43.5t93.5 -16.5q16 0 33.5 2.5t32.5 9t24.5 19t9.5 32.5q0 22 -15.5 37t-36.5 25.5t-43.5 17.5t-37.5 13q-26 9 -51 19t-49 23q-1 0 -1.5 1t-1.5 1q-21 15 -37 28.5t-27 30t-16.5 37t-5.5 48.5q0 30 10 61.5 t34 52.5q25 23 54 34.5t62 16.5v77h132v-77q3 0 13.5 -1.5t13.5 -2.5q2 -1 20 -5.5t39 -10.5t38 -12t17 -10q2 0 0 -1t-2 -8l-45 -100h-2q-38 19 -73.5 30.5t-78.5 11.5q-13 0 -29 -1t-30 -6t-23.5 -15t-9.5 -27q0 -21 14.5 -33t32.5 -19.5t33.5 -11.5t17.5 -8 q40 -17 79.5 -31.5t71 -36t51 -54t19.5 -83.5q0 -76 -44.5 -119.5t-116.5 -57.5l-6 -2v-79h-132v79q0 -1 -23.5 4t-53.5 14t-58.5 21t-38.5 25v1z" />
<glyph unicode="%" horiz-adv-x="886" d="M418 484q0 -65 -36 -111q-40 -53 -110 -53q-69 0 -110 52q-35 46 -35 112q0 65 35 111q41 53 110 53q70 0 110 -52q36 -46 36 -112zM744 648l-478 -656h-89l478 656h89zM795 156q0 -65 -35 -111q-41 -53 -110 -53q-70 0 -111 52q-35 46 -35 112q0 65 35 111q41 53 111 53 q69 0 110 -52q35 -46 35 -112zM334 484q0 42 -10 64q-15 33 -52 33q-35 0 -48.5 -28t-13.5 -69q0 -42 10 -64q15 -33 52 -33q36 0 51 32q11 24 11 65zM712 156q0 42 -11 64q-15 33 -51 33t-49.5 -28t-13.5 -69q0 -42 11 -64q15 -33 52 -33q35 0 50 32q12 24 12 65z" />
<glyph unicode="&#x26;" horiz-adv-x="730" d="M94 204q0 26 6 51.5t18.5 47t32 37.5t46.5 24q-26 12 -46 33t-29 48q0 2 -2 10.5t-5 12.5v68q6 41 28.5 69t53 45t67 24.5t71.5 7.5q17 0 41 -2.5t46.5 -7t38 -11.5t15.5 -16l-23 -72q-1 -5 -2.5 -14.5t-8.5 -9.5q-8 0 -14.5 3t-14.5 5q-16 4 -31.5 6.5t-32.5 2.5 q-18 0 -35.5 -4t-31 -13t-22 -23.5t-8.5 -35.5q0 -28 22 -48t51 -20h138v76h133v-77h87v-119h-85v-104q0 -1 -1 -7.5t-2.5 -15t-3.5 -17t-3 -13.5q-11 -44 -34 -74t-54.5 -48t-70 -26t-80.5 -8q-54 0 -101 12.5t-81 38.5t-53.5 67t-19.5 97zM234 212q0 -107 113 -107 q40 0 63.5 12t35 33t14.5 48.5t3 58.5v44h-159q-20 0 -33 -8t-21.5 -20.5t-12 -28.5t-3.5 -32z" />
<glyph unicode="'" horiz-adv-x="367" d="M110 690h157l-102 -256h-98z" />
<glyph unicode="(" horiz-adv-x="416" d="M186 -99q-40 103 -62 211.5t-22 219.5q0 110 23 218.5t61 211.5l1 1l1 1q2 2 5.5 11.5t4.5 11.5h14q16 -4 30 -8q12 -3 25 -7t21 -6q2 0 7 -1.5t5 -3.5v-2q-14 -40 -23.5 -81.5t-18.5 -83.5l-3.5 -28t-5.5 -42.5t-5.5 -43t-3.5 -28.5q-1 -5 -2 -17t-1 -15v-177l19 -163 l12 -56l2 -4q0 -2 2 -13t2 -13q1 -5 4.5 -17t7.5 -26t7 -26t5 -17v-4q0 -5 -3 -5l-93 -26h-1q-5 0 -9 12t-6 16z" />
<glyph unicode=")" horiz-adv-x="414" d="M118 -87q34 102 48 207.5t14 213.5v9l-11 177q0 3 -3.5 21.5t-8 41.5t-9 46.5t-7.5 36.5q-1 5 -4.5 18.5t-7.5 28.5t-8 28t-6 18v2v1q1 0 1.5 1t1.5 1l86 23h14l60 -179q0 -2 3.5 -17.5t7.5 -36.5t8 -43t7 -35q6 -36 6.5 -72.5t0.5 -73.5v-68q0 -3 -0.5 -9.5l-1 -13 t-1 -11.5t-0.5 -6l-30 -170l-4.5 -15.5t-11.5 -36t-14 -42.5t-12 -36q0 -1 -2 -6t-2 -6q-1 -1 -3 -6.5t-2 -7.5q-2 -4 -6 -14q-2 -4 -3 -9h-7l-93 26v14z" />
<glyph unicode="*" horiz-adv-x="498" d="M264 448q-2 2 -2.5 4.5t-2.5 4.5q-1 2 -4 9.5t-5 9.5q-1 -2 -4.5 -8t-4.5 -8l-7.5 -15l-11.5 -23t-11 -22.5t-7 -14.5h-7q-1 0 -10.5 6.5t-15.5 10.5l-1 1q-1 0 -1 1l-51 35q-1 0 -3 2l-2 2v2v1q18 19 37.5 36t36.5 36q-5 0 -18.5 1.5t-28 3t-28 3t-18.5 1.5q-2 0 -7 1 t-7 2v1v1q8 25 16 48t17 47h7q22 -11 44.5 -21t43.5 -23v7l-16 93h112v-14l-15 -85l94 46h1h1q2 -2 2 -3q7 -21 16 -43.5t15 -44.5v-4q0 -5 -7 -5l-100 -12l76 -72v-3q-2 -2 -7.5 -5.5t-12 -8t-12 -8.5t-7.5 -5q-9 -7 -23.5 -18t-25.5 -15h-1h-1l-33 65v0z" />
<glyph unicode="+" horiz-adv-x="644" d="M258 269h-171v123h171v157h128v-157h171v-123h-171v-171h-128v171v0z" />
<glyph unicode="," horiz-adv-x="367" d="M110 118h157l-102 -256h-98z" />
<glyph unicode="-" horiz-adv-x="473" d="M100 442h273v-123h-273v123v0z" />
<glyph unicode="." horiz-adv-x="370" d="M94 62q0 18 8 32t20.5 23t29 13.5t33.5 4.5q16 0 32.5 -4.5t29.5 -13.5t21 -22.5t8 -32.5q0 -18 -8 -31.5t-20.5 -23t-28.5 -14.5t-32 -5q-17 0 -33.5 4.5t-30 13.5t-21.5 23t-8 33z" />
<glyph unicode="/" horiz-adv-x="628" d="M67 -29l369 817h125l-368 -817h-126v0z" />
<glyph unicode="0" horiz-adv-x="761" d="M278 2q-1 3 -8 5l-6 2q-29 14 -53.5 32t-44.5 45q-2 4 -8 12.5t-8 10.5q-1 1 -3.5 7t-3.5 7l-2 2q-23 50 -31.5 103.5t-8.5 107.5q0 44 6.5 85t17.5 83q8 14 12.5 28.5t12.5 27.5q39 65 107 98q12 6 17.5 7.5t15.5 6.5q23 4 46 6.5t46 2.5q41 0 77.5 -8.5t72.5 -28.5 q2 -1 11.5 -8t11.5 -8q3 -2 4.5 -2t2.5 -5l33 -33q5 -13 15.5 -29t16.5 -29q21 -46 27 -95t6 -99q0 -72 -14 -135t-46.5 -110.5t-85.5 -75t-132 -27.5q-28 0 -52.5 3.5t-51.5 10.5zM246 333q0 -36 4 -76t17.5 -73.5t40.5 -55.5t74 -22q46 0 72.5 21.5t40 54.5t17.5 72.5 t4 75.5q0 37 -3 78t-16.5 75t-40 56t-74.5 22q-47 0 -74.5 -22t-41 -55.5t-17 -73.5t-3.5 -77z" />
<glyph unicode="1" horiz-adv-x="492" d="M231 489q-14 -6 -23 -15.5t-20 -17.5q-18 -14 -37 -28.5t-37 -27.5q-2 0 -11.5 15.5t-20.5 34.5t-20 35.5t-9 19.5q35 28 69 55.5t66 55.5q17 14 35 25.5t33 28.5h116v-670h-141v489v0z" />
<glyph unicode="2" horiz-adv-x="636" d="M67 121q36 35 74.5 68t77.5 65q20 17 50 43t57.5 57t47 65t19.5 67q0 35 -23.5 55t-58.5 20q-49 0 -86.5 -25t-71.5 -57h-2q-20 20 -38.5 45t-35.5 48q-3 3 -3 7q22 27 50 46t60.5 32t66.5 19t68 6q32 0 62 -4.5t56 -16.5t47.5 -32.5t36.5 -51.5q13 -26 13.5 -50.5 t0.5 -57.5q0 -41 -16 -77.5t-41 -68.5t-54.5 -59t-56.5 -48q-6 -5 -25 -19t-41 -29.5t-41 -29.5t-25 -18h307v-120h-454l-21 119v2z" />
<glyph unicode="3" horiz-adv-x="633" d="M60 62q0 3 8.5 20t19 35.5t20.5 33.5t13 14q35 -28 73.5 -43.5t83.5 -15.5q15 0 32 2t32 8t27 16t19 26q2 2 4.5 9.5t2.5 11.5v46q0 12 -7 23t-18 20t-23.5 14t-23.5 5h-118v117q35 1 65 2t63 10q2 4 6.5 4.5t6.5 2.5q31 20 31 58q0 45 -27 61t-68 16q-25 0 -49.5 -5.5 t-46.5 -17.5q-7 -4 -15 -10.5t-15.5 -12.5t-14.5 -10.5t-11 -4.5q-5 0 -16 16t-22.5 35.5t-20.5 35l-9 15.5l5 3.5t12.5 8t16 10t16.5 9.5l21 10.5t18.5 8.5t20.5 8t28 10q4 4 17.5 6.5t29 4t30.5 1.5h24q37 0 72 -7t67 -26q42 -24 61.5 -66t19.5 -90q0 -20 -4 -40.5 t-13 -38.5t-23 -32.5t-34 -22.5q51 -25 72 -60.5t21 -92.5q0 -58 -21 -98.5t-56 -66.5t-82.5 -38t-99.5 -12q-47 -1 -90.5 8t-85.5 32q-14 7 -29.5 16.5t-15.5 17.5z" />
<glyph unicode="4" horiz-adv-x="677" d="M99 136l-32 107l39 55l83 121q9 12 17 23q7 9 12.5 17.5t5.5 10.5l44 63q1 2 7 11.5t13.5 19.5t13.5 18.5l6 8.5l44 63q2 5 6 9t6 9h150v-417h96v-119h-96v-136h-144v136h-271zM350 465q-20 -32 -39.5 -62.5t-39.5 -62.5q-3 -5 -12 -17t-18.5 -25t-16.5 -24.5t-7 -17.5 h158v247q-10 -8 -13 -19.5t-12 -18.5z" />
<glyph unicode="5" horiz-adv-x="649" d="M80 58q0 4 9.5 20t21.5 34t22 32.5t12 14.5q4 0 5 -3l40 -25q26 -9 48.5 -17.5t51.5 -8.5q63 0 93 34.5t30 93.5q0 57 -28.5 86.5t-84.5 29.5q-38 0 -64 -14.5t-51 -41.5q-8 -1 -14 7l-53 38q-3 3 -8.5 6.5l-11 7t-9.5 7.5t-4 7l29 181l22 123h377v-122h-264l-24 -124 q23 23 55.5 30t63.5 7q52 0 92 -16.5t66 -46.5t39.5 -71.5t13.5 -92.5q0 -28 -4.5 -56.5t-15 -54.5t-27 -49t-41.5 -39q-15 -10 -33 -17.5t-35 -12.5t-31 -8.5l-22 -5.5h-103q-8 0 -28.5 3t-34.5 9q2 0 -2 1.5t-10 3t-12.5 4t-10.5 5.5q-3 1 -13.5 5t-22 10t-20.5 13t-9 13z " />
<glyph unicode="6" horiz-adv-x="698" d="M135 120q-18 48 -25.5 96t-7.5 99q0 35 2 69.5t10 68.5q2 7 5.5 19.5t6.5 24.5t6 21l3 9l32 59q9 7 15.5 15.5t15.5 16.5q42 36 86 49.5t100 13.5q20 0 48.5 -1.5t49.5 -10.5l72 -30q2 -4 8 -4.5t6 -5.5q0 -2 -3.5 -8t-8 -13t-9 -13.5t-5.5 -8.5q-11 -18 -22 -37.5 t-15 -19.5l-22 10q-9 4 -17 8l-12 6q-17 8 -35 9t-35 1q-38 0 -65 -13.5t-43.5 -36.5t-24 -55t-7.5 -68q30 34 61 46.5t76 12.5q51 0 92.5 -16t70 -45t44 -70t15.5 -91q0 -55 -18.5 -99t-51.5 -74.5t-78.5 -47t-98.5 -16.5q-63 0 -107.5 20t-85.5 66q-8 9 -13.5 24t-14.5 20 zM253 219q0 -51 26 -81t79 -30q27 0 47 9.5t33 25.5t19 37t6 44q0 48 -26 78t-77 30q-53 0 -80 -31.5t-27 -81.5z" />
<glyph unicode="7" horiz-adv-x="604" d="M195 174q3 11 4 25.5t3 23.5q9 52 24.5 100.5t40.5 95.5q15 20 26.5 36.5t23 31t24 28t29.5 27.5q0 1 1 2t1 2h-312v122h468l16 -103v-14q-2 -2 -9.5 -10t-11.5 -8q-29 -27 -53.5 -52.5t-44.5 -53.5t-35.5 -59t-26.5 -70q-6 -22 -12 -45t-7 -46l-7 -207h-148q0 87 6 174z " />
<glyph unicode="8" horiz-adv-x="705" d="M236 2q-15 8 -30 14t-30 16q-21 13 -35.5 31.5t-23 40.5t-12.5 45.5t-4 46.5q0 61 22 97t78 65q-24 17 -40 32t-26 31t-14 34.5t-4 43.5q0 30 8.5 64t31.5 55q5 4 12.5 11t8.5 8q2 1 10.5 5.5t10.5 8.5q42 17 77 23.5t77 6.5q41 -1 78.5 -7.5t83.5 -29.5q19 -10 32.5 -26 t21.5 -35t12 -40t4 -40q0 -39 -10.5 -71t-42.5 -58q-6 -5 -14.5 -7.5t-13.5 -8.5q1 -1 6.5 -4.5t11.5 -7t11.5 -6.5t7.5 -3q18 -16 30 -30.5t19.5 -30.5t10.5 -35t3 -43q0 -96 -55.5 -148.5t-147.5 -59.5h-49.5t-40 1t-36.5 3.5t-39 7.5zM243 198q0 -51 25.5 -74t82.5 -23 q50 0 80.5 20t30.5 75q0 35 -10 55t-26 29.5t-35.5 12t-37.5 2.5q-55 0 -82.5 -20.5t-27.5 -76.5zM259 489q0 -44 25 -63.5t67 -19.5q40 0 67.5 19t27.5 63q0 45 -25 62t-68 17q-45 0 -69.5 -16t-24.5 -62z" />
<glyph unicode="9" horiz-adv-x="617" d="M174 4q-1 0 -13.5 5t-27.5 11.5t-27 15t-12 16.5q0 3 5 11t11 16.5t11.5 16t7.5 10.5q2 2 6 8t8.5 12t8 12t5.5 8h5q54 -42 119 -42q40 0 66.5 14.5t42 39t22 57t6.5 68.5q-26 -36 -62 -49.5t-79 -13.5q-16 0 -35 2t-37.5 6.5t-35 12t-28.5 19.5q-48 38 -66 81t-18 103 q0 54 17.5 98t49.5 75t77 47.5t100 16.5q79 0 136.5 -33.5t89.5 -103.5q7 -14 10 -31.5t11 -29.5q7 -40 9.5 -72t2.5 -73q0 -36 -2 -68.5t-10 -67.5q0 -1 -1 -2.5t-1 -2.5q-10 -33 -19.5 -58t-23 -45.5t-32.5 -38t-48 -35.5q-10 -6 -21 -9.5t-21 -8.5q-19 -5 -34.5 -7.5 t-31 -3.5t-34.5 -1h-45q1 0 -8 1.5t-20.5 3t-21.5 3.5t-10 4l-2 2v0zM197 446q0 -51 24.5 -78t77.5 -27q21 0 40.5 5t34.5 18t24 34t9 54q0 51 -27 81t-80 30q-27 0 -46 -9t-32 -25t-19 -37t-6 -46z" />
<glyph unicode=":" horiz-adv-x="370" d="M127 2q-16 15 -24.5 27.5t-8.5 34.5q0 8 1 16.5t6 14.5q19 21 37.5 30.5t46.5 9.5q16 0 32.5 -4.5t29.5 -13.5t21 -22.5t8 -32.5t-9.5 -33.5t-23.5 -26.5q-15 -4 -27 -9t-29 -5t-30.5 4.5t-29.5 9.5zM152 337q-2 5 -11 6t-14 6q-16 14 -24.5 26.5t-8.5 33.5q0 18 8 31.5 t21 22.5t29.5 13.5t32.5 4.5q15 0 31.5 -4.5t29.5 -13.5t21.5 -22t8.5 -31q0 -19 -7.5 -33t-20.5 -23.5t-29 -14.5t-33 -5q-10 0 -16.5 0.5t-17.5 2.5z" />
<glyph unicode=";" horiz-adv-x="367" d="M110 118h157l-102 -256h-98zM168 337q-2 5 -11 6t-14 6q-16 14 -24.5 26.5t-8.5 33.5q0 18 8 31.5t21 22.5t29.5 13.5t32.5 4.5q15 0 31.5 -4.5t29.5 -13.5t21.5 -22t8.5 -31q0 -19 -7.5 -33t-20.5 -23.5t-29 -14.5t-33 -5q-10 0 -16.5 0.5t-17.5 2.5z" />
<glyph unicode="&#x3c;" horiz-adv-x="445" d="M384 27l-328 257v90l328 258v-165l-185 -137l185 -138v-165z" />
<glyph unicode="=" horiz-adv-x="649" d="M115 362h419v-119h-419v119v0zM115 583h419v-119h-419v119v0z" />
<glyph unicode="&#x3e;" horiz-adv-x="445" d="M389 284l-328 -257v164l185 137l-185 138v166l328 -258v-90z" />
<glyph unicode="?" horiz-adv-x="600" d="M177 61q0 19 7.5 32.5t20 22.5t28.5 13.5t33 4.5q16 0 32.5 -4.5t29.5 -13.5t21 -22.5t8 -31.5q0 -12 -5 -25t-13.5 -23.5t-20 -17t-24.5 -6.5h-54q-13 0 -24.5 6.5t-20 17t-13.5 23t-5 24.5zM382 482q0 21 -8 36.5t-21.5 25t-31.5 14.5t-37 5q-38 0 -70.5 -14t-61.5 -38 q-6 0 -13 8.5t-15.5 22.5t-18.5 30.5t-21 33.5v5t3 5q28 16 53 28.5t50.5 20.5t53 12t60.5 4q25 0 51 -1.5t50 -10.5q57 -22 87 -68.5t30 -106.5q0 -40 -11 -69.5t-31.5 -53t-50.5 -43t-68 -38.5q-17 -8 -21.5 -26t-4.5 -36q0 -9 0.5 -17t0.5 -16h-133v97q0 25 13.5 41.5 t33 28.5t43 22t43 22.5t33 30t13.5 45.5z" />
<glyph unicode="@" horiz-adv-x="867" d="M199 67q-9 14 -23.5 29t-25.5 29q-32 43 -44 98.5t-12 108.5q-1 101 39.5 179.5t128.5 129.5q11 6 25 12t27.5 11.5t24.5 9t16 5.5q28 5 55 8t55 3q68 0 124.5 -19t97.5 -56t64 -90.5t23 -122.5q0 -43 -11 -87.5t-33.5 -80.5t-57 -58.5t-81.5 -22.5q-23 0 -44.5 8 t-33.5 29q-1 1 -3.5 7t-3.5 7l-2 2l-35 -30q-6 -2 -13 -5.5t-6 -3.5q-14 -5 -26.5 -7.5t-29.5 -2.5q-42 0 -67.5 14.5t-39.5 38t-18.5 52t-4.5 55.5q0 37 9.5 74t30 66t51 47.5t72.5 18.5q26 0 46 -6t38 -29q2 5 2.5 15t4.5 10h98q0 -11 -0.5 -25.5t-2.5 -18.5l-28 -225 q0 -12 8 -18t19 -6q31 0 50 20.5t29.5 49.5t14 60.5t3.5 53.5q0 67 -23 110.5t-58.5 68.5t-79 35t-84.5 10q-68 0 -123 -20.5t-94 -58.5t-60 -92.5t-21 -123.5q0 -65 17.5 -117t52 -89t85 -57t115.5 -20q32 0 67 4.5t64 19.5q8 4 18 9.5t19.5 11.5t17.5 10.5t12 7.5h5 q1 -2 5 -8t9 -14t9.5 -15.5t6.5 -11.5q-50 -43 -112.5 -58.5t-126.5 -15.5q-63 0 -122.5 17.5t-108.5 59.5zM369 309q0 -31 9 -50.5t44 -19.5q28 0 43 15.5t22 38.5t8.5 49t3.5 46q2 29 -12 41.5t-38 12.5q-27 0 -43 -13t-24.5 -32.5t-10.5 -43t-2 -44.5z" />
<glyph unicode="A" horiz-adv-x="761" d="M297 675h162l248 -673v-2h-156l-2 2q-2 5 -5 12t-9 22t-14.5 40t-20.5 66h-241l-52 -142h-153zM376 530l-83 -265h172v3z" />
<glyph unicode="B" horiz-adv-x="732" d="M352 680q33 0 67 -3t65.5 -11.5t59 -24.5t47.5 -41q11 -17 17 -29.5t9 -24.5t4 -23.5t1 -24.5q0 -51 -23.5 -89.5t-74.5 -52.5l46 -19q4 -5 19 -16t23 -19q20 -24 26.5 -55.5t6.5 -60.5q0 -94 -53 -140t-147 -46h-324v665q0 3 14 5.5t36.5 4t49.5 2.5t52.5 1.5t46.5 1 t32 0.5zM289 109h85q23 0 45 2.5t39 11.5t27.5 26.5t10.5 47.5q0 32 -11.5 51t-31 29t-44 13t-51.5 3h-19.5t-30.5 -0.5t-28 -1.5t-12 -3v-176zM275 398q15 0 40 -1t45 -1q23 0 44 2.5t36.5 11.5t25 26t9.5 46q0 26 -9 42.5t-24.5 25.5t-36.5 12t-44 3q-9 0 -24.5 -0.5 t-31 -1.5t-26.5 -2.5t-11 -2.5v-158z" />
<glyph unicode="C" horiz-adv-x="715" d="M134 141q-21 49 -30.5 99t-9.5 103t10.5 102.5t35 92t64 76t97.5 55.5q3 3 6.5 3t5.5 2q26 5 49.5 7t49.5 2q25 0 39 -0.5t26 -3t27 -8t42 -16.5q3 -2 11.5 -7t17.5 -10.5t16 -10t8 -4.5q8 -8 25.5 -21.5t25.5 -25.5v-4q0 -5 -13.5 -20t-30 -31t-29.5 -29l-13 -13h-2 q-32 35 -66.5 57t-83.5 22q-58 0 -92 -26t-56 -79q-6 -14 -10 -30.5t-4 -32.5v-100q0 -5 1.5 -12.5t3 -16.5t3.5 -17t4 -12q17 -55 55.5 -86t96.5 -31q50 0 88.5 23.5t73.5 56.5q2 0 14.5 -14.5t27 -32t26 -33.5t11.5 -19t-7 -10t-15.5 -14t-17 -13.5t-11.5 -8.5 q-16 -9 -27 -15.5t-24 -14.5q-1 0 -1.5 -1t-1.5 -1q-34 -16 -69.5 -22t-72.5 -6q-33 0 -66 5t-64.5 16t-59.5 29.5t-49 44.5q-2 3 -7.5 12t-12 19t-11 17.5z" />
<glyph unicode="D" horiz-adv-x="771" d="M147 668q10 2 37.5 3.5t58 2t58 1t38.5 0.5h27.5t33 -1t30 -3t17.5 -6q126 -34 178 -117.5t52 -210.5q0 -55 -9.5 -103t-31 -88.5t-57.5 -72t-88 -52.5q-9 -4 -22.5 -7.5t-27 -6.5t-25.5 -5t-18 -2h-277v663zM268 115q44 0 84 1.5t73 13.5t56 39t33 78q2 4 1 4.5t2 4.5 q3 15 4 29.5t1 28.5q0 41 -4 82t-18.5 74.5t-42.5 57t-77 28.5h-70h-22t-20 -2v-439z" />
<glyph unicode="E" horiz-adv-x="650" d="M121 668h433v-122h-284v-142h258v-124h-258v-160h293v-120h-442v668v0z" />
<glyph unicode="F" horiz-adv-x="619" d="M121 668h424v-122h-277v-145h251v-125h-252v-276h-146v668v0z" />
<glyph unicode="G" horiz-adv-x="784" d="M113 186q-6 25 -12.5 51t-6.5 42v111q0 12 3.5 28t8.5 32t9.5 30t6.5 22q41 82 112 130.5t174 48.5q32 0 65.5 -5.5t58.5 -17.5q30 -14 57 -31.5t52 -40.5q0 -1 1 -2.5t1 -2.5q4 -1 -5.5 -12.5t-24 -27.5t-30 -32t-23.5 -25h-3q-2 2 -9 8t-9 8q-32 26 -59.5 41t-67.5 15 q-49 0 -80.5 -18.5t-50 -49.5t-26 -70.5t-7.5 -81.5q0 -32 2.5 -66t13.5 -66q6 -15 16.5 -33t26 -33.5t34.5 -25.5t42 -10h60q23 0 42.5 11.5t33.5 29.5t23 39.5t11 42.5q0 4 -1 16t-1 16h-143v120h281q0 -40 -1 -86.5t-9 -91.5t-26.5 -85t-53.5 -68q-9 -7 -21.5 -15 t-25 -15t-23.5 -11.5t-16 -4.5q-25 -7 -51 -9.5t-52 -2.5q-69 0 -129 22.5t-108 72.5q-23 24 -34 50t-26 53z" />
<glyph unicode="H" horiz-adv-x="768" d="M120 670h146v-247h235v247h147v-670h-147v284h-235v-284h-146v670v0z" />
<glyph unicode="I" horiz-adv-x="383" d="M119 670h145v-670h-145v670v0z" />
<glyph unicode="J" horiz-adv-x="548" d="M59 53q2 4 8.5 14.5t8.5 13.5q0 1 6 12.5t13.5 25t14.5 24.5t9 11q23 -17 45 -30t53 -13q32 0 49.5 17t17.5 51v491h145v-512l-9 -58q-5 -8 -8 -18.5t-8 -18.5q-14 -23 -32.5 -38t-40.5 -23.5t-46.5 -12t-49.5 -3.5q-30 0 -52.5 3.5t-42 10.5t-39 18t-42.5 26v9z" />
<glyph unicode="K" horiz-adv-x="719" d="M120 670h146v-277l3 2l193 275h180l-219 -293l243 -377h-176l-177 272l-47 -53v-219h-146v670v0z" />
<glyph unicode="L" horiz-adv-x="612" d="M121 670h148v-548h262v-122h-410v670v0z" />
<glyph unicode="M" horiz-adv-x="868" d="M251 670q67 -101 104.5 -156.5t54.5 -80.5q20 -30 24 -35l184 272h130v-670h-140v412l-174 -240l-173 237v-409h-141v670h131z" />
<glyph unicode="N" horiz-adv-x="806" d="M120 670h138l285 -402v402h143v-670h-135l-290 416v-416h-141v670v0z" />
<glyph unicode="O" horiz-adv-x="828" d="M94 335q0 58 12 110t37 103l5 5q27 34 54.5 58t59.5 39t69 22t82 7q48 0 79 -6t54 -13q46 -14 81.5 -45.5t59 -73t35.5 -88t12 -90.5q0 -83 -16.5 -152t-54 -118t-98.5 -76t-149 -27q-83 0 -143.5 24t-100 68.5t-59 108.5t-19.5 144zM248 332q0 -45 6.5 -86t24.5 -71.5 t50.5 -48.5t84.5 -18q53 0 85.5 19t50 50.5t23.5 72t6 84.5q0 45 -6 85.5t-24 71t-51 49t-87 18.5q-52 0 -84 -18.5t-49.5 -49.5t-23.5 -72t-6 -86z" />
<glyph unicode="P" horiz-adv-x="704" d="M124 665l23 1.5t57 3.5t71 4t65 3q57 0 108.5 -9.5t90.5 -33.5t62 -65.5t23 -106.5q0 -24 -3.5 -50t-12 -50t-22 -45t-34.5 -36q-3 -2 -11.5 -6.5t-17.5 -9.5t-15.5 -9t-6.5 -5q-23 -4 -44.5 -9.5t-32.5 -5.5h-157v-236h-146v663zM354 558q-22 0 -41 -0.5t-45 -3.5v-201 q55 0 94.5 1t64.5 10t36.5 30t11.5 62q0 60 -30.5 81t-90.5 21z" />
<glyph unicode="Q" horiz-adv-x="826" d="M304 2q-5 3 -12 4.5t-9 2.5q-51 17 -87.5 51.5t-61.5 79.5q-26 42 -33 95.5t-7 103.5q0 9 1.5 34.5t4.5 52t7.5 47t10.5 20.5q13 40 31 67.5t40.5 47t49.5 33.5t60 27q1 0 2.5 1t2.5 1q26 7 54.5 9.5t55.5 2.5q45 0 89.5 -8.5t84.5 -31.5q41 -26 69 -59t44.5 -72 t23.5 -83t7 -92q0 -85 -24 -153t-86 -127q16 -6 29.5 -14.5t27.5 -17t28.5 -14.5t31.5 -8v-4q-7 -14 -13.5 -29.5t-12 -29.5t-11 -24.5t-10.5 -14.5q-28 0 -52.5 7.5t-47 18.5t-44.5 25l-44 28q-5 2 -12.5 6.5t-8.5 4.5h-116zM248 336q0 -43 6 -84t24 -72.5t50 -51t85 -19.5 q51 0 83 19t50.5 50.5t25 72.5t6.5 85q0 43 -6 84t-24 72t-50 50t-84 19t-84.5 -17.5t-50.5 -48.5t-24.5 -72t-6.5 -87z" />
<glyph unicode="R" horiz-adv-x="722" d="M144 668q7 0 25 1t38.5 2.5t38.5 2.5t26 1q43 0 85.5 -1t81.5 -7t73 -19t59 -35.5t39.5 -57t14.5 -84.5q0 -48 -16 -90.5t-56 -71.5q-3 -2 -8.5 -4.5t-11.5 -5.5t-11 -6t-6 -5q19 -16 27 -40t17 -46q14 -32 27 -64.5t27 -65.5q3 -7 7.5 -16t9 -19t8 -19.5t3.5 -17.5h-159 q-6 19 -13.5 42.5t-18.5 41.5l-56 146q-3 8 -5 11.5t-4.5 5t-6 2t-10.5 2.5h-101v-251h-148v663q2 2 9 2.5t15 2.5zM347 559q-19 0 -39.5 -0.5t-38.5 -4.5v-184h124q12 0 26 4.5t25.5 13t19.5 20t8 25.5v58q0 6 -4.5 13t-7.5 12q-20 29 -50 36t-63 7z" />
<glyph unicode="S" horiz-adv-x="663" d="M210 2q-20 6 -36.5 11.5t-33.5 13.5q-5 2 -16.5 7.5t-23.5 12t-20 13t-5 11.5l52 96q0 1 2.5 5t5.5 4q43 -30 89 -50t100 -20q19 0 37.5 3t33.5 11.5t24.5 22.5t9.5 37q0 16 -7 29t-18 22.5t-24.5 16.5t-27.5 12q-17 6 -48.5 17t-62.5 22t-54 21.5t-23 16.5 q-34 32 -52 66.5t-18 82.5q0 51 19.5 88t52.5 60t76 34t90 11q59 0 111.5 -15t104.5 -41q0 -11 -3 -17.5t-7 -15.5q-3 -6 -8.5 -19.5t-11.5 -27t-10.5 -24l-4.5 -10.5q-5 -1 -13.5 4t-11.5 7q-32 17 -65 28.5t-70 11.5q-17 0 -34.5 -2t-32 -9t-24 -19t-9.5 -33 q0 -20 10.5 -32.5t25.5 -20.5t33 -13.5t33 -10.5q51 -16 93.5 -32.5t73 -41t47.5 -60t17 -89.5q0 -95 -64 -151t-185 -56q-29 0 -58.5 2.5t-58.5 9.5z" />
<glyph unicode="T" horiz-adv-x="616" d="M234 543h-174v127h496v-127h-176v-543h-146v543v0z" />
<glyph unicode="U" horiz-adv-x="780" d="M168 74q-26 45 -36.5 92t-10.5 99v405h148v-424q0 -61 27.5 -97t90.5 -36q20 0 35 2t34 10t30.5 27t17.5 40t7.5 40.5t1.5 30.5v407h146v-431q0 -28 -5 -57.5t-16 -57t-28.5 -51.5t-41.5 -41q-16 -11 -32.5 -17t-32.5 -15l-65 -12h-96q-23 0 -48 6t-48.5 17t-43 26.5 t-32.5 34.5l-2 2v0z" />
<glyph unicode="V" horiz-adv-x="707" d="M60 670h156l141 -500l138 500h152l-212 -670h-161z" />
<glyph unicode="W" horiz-adv-x="1049" d="M67 670h161l100 -493l128 493h142l125 -498l105 498h154l-177 -670h-162l-121 461l-121 -461h-166z" />
<glyph unicode="X" horiz-adv-x="686" d="M254 348l-189 322h171l2 -2q6 -13 19.5 -39t30.5 -56t34 -61t30 -54l116 212h166l-194 -332l206 -338h-168l-133 226l-135 -226h-170z" />
<glyph unicode="Y" horiz-adv-x="679" d="M199 670l5.5 -10.5t21 -40.5t43 -84.5t71.5 -143.5l147 279h159q-57 -104 -115 -207t-120 -205v-258h-144v256q-55 91 -115 199.5t-119 214.5h166z" />
<glyph unicode="Z" horiz-adv-x="654" d="M380 543h-283v125h467v-112l-302 -433v-3h312v-120h-494v107z" />
<glyph unicode="[" horiz-adv-x="411" d="M348 -105h-254v775h254v-105h-120v-565h120v-105z" />
<glyph unicode="\" horiz-adv-x="628" d="M561 -29h-126l-368 817h125l369 -817v0z" />
<glyph unicode="]" horiz-adv-x="411" d="M317 -105h-255v105h121v565h-121v105h255v-775z" />
<glyph unicode="^" horiz-adv-x="572" d="M525 366h-140l-100 178l-100 -178h-139l185 304h109z" />
<glyph unicode="_" d="M495 -179h-495v110h495v-110z" />
<glyph unicode="`" d="M358 569h-116l-143 154h173z" />
<glyph unicode="a" horiz-adv-x="672" d="M167 1q-5 8 -17.5 12t-19.5 11q-26 26 -37.5 59.5t-11.5 69.5q0 56 28 99.5t82 64.5q21 8 48.5 17t51.5 11l121 9q0 54 -16.5 75t-65.5 21q-33 0 -65 -7.5t-63 -18.5q-14 -5 -31.5 -16.5t-29.5 -11.5q-4 0 -10 13t-12 29.5t-11.5 32.5t-7.5 21q-2 4 2 6.5t7 4.5 q30 12 58 22t56 17t57 11t62 4q43 0 81.5 -8t68 -29t46.5 -58.5t17 -95.5v-244q0 -9 5.5 -17.5t11.5 -15t11.5 -11.5t5.5 -8q3 3 -1 -2t-11.5 -12.5t-15.5 -15t-12 -11.5t-10 -10.5t-12.5 -12.5t-13 -10.5t-11.5 -4.5q-26 0 -46 19.5t-30 41.5q-19 -15 -40 -28t-44 -21 l-2 -2l-52 -12h-79l-42 12v0zM223 161q0 -32 15 -53.5t57 -21.5q35 0 62 12.5t55 32.5v138q-34 0 -68 -4t-61 -16t-43.5 -33t-16.5 -55z" />
<glyph unicode="b" horiz-adv-x="715" d="M232 0h-112v725h143v-232q25 36 59.5 49.5t76.5 13.5q60 0 102.5 -23t69 -62t38.5 -89.5t12 -105.5q0 -34 -5 -72t-17.5 -73t-34 -65.5t-53.5 -49.5q-16 -10 -34 -19t-38 -9h-77q-18 0 -34.5 7t-31 18.5t-26 25t-17.5 26.5l-2 2zM365 444q-17 0 -35.5 -5t-33.5 -14.5 t-24.5 -24.5t-9.5 -35v-172q0 -46 28 -72t71 -26q39 0 61 16.5t33 43t14 58.5t3 62q0 31 -2 53.5t-8 48.5q-8 34 -36.5 50.5t-60.5 16.5z" />
<glyph unicode="c" horiz-adv-x="619" d="M183 46q-52 50 -70.5 106t-18.5 125q0 35 5 66t16 63l3 3q33 78 96.5 114.5t148.5 36.5q16 0 29.5 -1t27 -3t28.5 -6t35 -11q5 -3 16 -8t23 -11.5t22 -13.5t13 -13v-3q-3 -4 -11 -19t-18 -31t-20 -28.5t-16 -12.5q-25 23 -55.5 36t-64.5 13q-38 0 -63 -14.5t-40 -38.5 t-21.5 -55t-6.5 -64t7 -64t22.5 -55t41 -38.5t62.5 -14.5q19 0 37.5 2t36.5 10q17 8 34 21.5t31 13.5l16 -33q3 -1 7.5 -10t8.5 -20t7.5 -21t4.5 -12l1 -1q0 -4 -3 -6t-7.5 -4t-9 -4.5t-6.5 -5.5q-45 -24 -85.5 -34t-85.5 -10q-51 0 -92.5 12t-85.5 44z" />
<glyph unicode="d" horiz-adv-x="715" d="M115 129q-8 38 -14.5 69.5t-6.5 63.5q0 80 17 136t46.5 91.5t69 51.5t85.5 16q45 0 75 -12.5t62 -43.5v226h146v-726h-121l-1.5 9t-3.5 20.5t-3.5 21.5t-1.5 12h-2q-12 -21 -29.5 -36t-37.5 -24t-41 -13t-40 -4q-76 0 -121.5 38t-77.5 104zM241 278q0 -29 3 -61t14 -59 t32.5 -44.5t59.5 -17.5t61 15.5t35 52.5q3 10 3.5 19.5t3.5 19.5v156q0 22 -9 38.5t-23.5 27t-33.5 16t-38 5.5q-37 0 -58.5 -14t-32.5 -37.5t-14 -54t-3 -62.5z" />
<glyph unicode="e" horiz-adv-x="697" d="M94 277q0 61 17 113t50.5 90t83 59.5t113.5 21.5q94 0 156.5 -52t82.5 -146q4 -21 5 -59t1 -75h-359q0 -66 32.5 -96.5t99.5 -30.5q38 0 70 10t65 28q0 2 8 5.5t10 3.5l42 -91q2 -3 2.5 -4.5t0.5 -4.5q-20 -14 -41.5 -23.5t-47.5 -18.5q-1 0 -1 -0.5t-1 -0.5q-1 -1 -2 -1 q-29 -6 -57 -10t-57 -4q-66 0 -116.5 20t-85.5 57t-53 90t-18 119zM363 454q-61 0 -90.5 -36.5t-29.5 -93.5h227q0 26 -6 49.5t-19 41.5t-33.5 28.5t-48.5 10.5z" />
<glyph unicode="f" horiz-adv-x="449" d="M60 422v114h77q0 70 11.5 109t34.5 58t58 23.5t83 4.5q19 0 36 -0.5t35 -2.5v-105q-13 0 -25.5 1.5t-25.5 1.5q-23 0 -43.5 -7.5t-21.5 -34.5v-9.5t0.5 -14.5t0.5 -14.5v-9.5h108v-114h-108v-422h-142v422h-78z" />
<glyph unicode="g" horiz-adv-x="718" d="M166 -55q3 5 5 5q1 0 2 -1q18 -7 33 -15t33 -15q53 -19 112 -19q14 0 28 1t27 5t23.5 12t16.5 22q3 8 3.5 16t3.5 16v110q-2 -5 -4.5 -6.5t-5.5 -5.5q-25 -32 -57.5 -43t-71.5 -11q-46 0 -90 15t-74 53q-6 17 -17.5 30.5t-17.5 30.5q-12 35 -16.5 69t-4.5 71 q0 56 11 105.5t37 86.5t68 58.5t104 21.5q36 0 65.5 -7.5t56.5 -30.5q8 -7 13 -15.5t13 -14.5l12 58h123v-563q0 -2 -1 -11.5t-1 -14.5q-8 -54 -27 -87.5t-49 -53t-71 -26.5t-91 -7q-29 0 -60 4t-61 11t-57.5 17.5t-49.5 23.5v4zM241 288q0 -29 4 -58t16 -51.5t33.5 -36.5 t56.5 -14q48 0 70.5 24t28.5 69q0 2 1 6t2 6v128q-4 7 -4 14.5t-3 15.5q-14 30 -39 42t-57 12q-36 0 -57.5 -13.5t-33 -35.5t-15 -50.5t-3.5 -57.5z" />
<glyph unicode="h" horiz-adv-x="726" d="M264 728v-221h6q13 17 29.5 27t35 15.5t38 7.5t39.5 2q43 0 78.5 -10.5t61 -35t39.5 -63.5t14 -96v-354h-145v340q0 47 -22 73.5t-68 26.5q-19 0 -38 -5.5t-34 -17t-24.5 -29t-9.5 -41.5v-347h-143v728h143zM266 505q-2 0 -2 -3q0 -2 2 -2q1 0 1 2q0 3 -1 3z" />
<glyph unicode="i" horiz-adv-x="373" d="M259 549v-549h-142v549h142zM100 683q0 29 15 45.5t43 27.5h59q14 -8 24.5 -13.5t17.5 -12t10.5 -17.5t3.5 -30q0 -11 -4 -23.5t-12 -23t-19 -17.5t-26 -7h-49q-13 0 -24.5 6.5t-20 16.5t-13.5 23t-5 25z" />
<glyph unicode="j" horiz-adv-x="381" d="M-27 -86q16 0 31.5 -1.5t31.5 -1.5q10 0 23 2t25 7t20.5 13.5t10.5 22.5l6 41v554h143v-549q0 -106 -51.5 -160t-157.5 -54q-5 0 -16 0.5t-24 1t-24.5 2t-17.5 3.5v119v0zM108 667q0 11 1.5 26.5t7.5 30t17.5 24.5t31.5 10h56q33 -17 46 -30.5t13 -42.5q0 -39 -26.5 -55 t-61.5 -16q-29 0 -53 11t-32 42z" />
<glyph unicode="k" horiz-adv-x="667" d="M120 726h141v-393l171 211h172l-181 -224l191 -320h-168l-130 230l-55 -60v-170h-141v726v0z" />
<glyph unicode="l" horiz-adv-x="423" d="M262 726v-584q0 -9 7 -20.5t18 -11.5h62v-110l-2 -2q-1 -1 -15 -3t-22 -2q-24 0 -56.5 -0.5t-62 7t-50 25.5t-20.5 56v645h141z" />
<glyph unicode="m" horiz-adv-x="1015" d="M246 544q0 1 1.5 -4.5t3 -15t3.5 -20t4 -18.5q22 39 58 56t80 17q23 0 41 -3.5t33.5 -10.5t30 -19t29.5 -28q0 -1 2.5 -6.5t5.5 -5.5l8 7.5t17.5 16.5t19 17t14.5 10q48 22 100 22q100 0 149 -57.5t49 -154.5v-347h-143v351q0 40 -22.5 62t-56.5 22q-18 0 -35.5 -5.5 t-31 -16t-21.5 -26t-8 -36.5v-351h-141v326q0 21 -3 41t-12 35t-24.5 24t-40.5 9q-31 0 -57.5 -15.5t-35.5 -51.5v-368h-143v544h126z" />
<glyph unicode="n" horiz-adv-x="720" d="M244 544l9 -51l2 -4q11 21 29 34t40 20.5t45 10t44 2.5q51 0 86.5 -15t58 -43t32.5 -67.5t10 -88.5v-342h-144v333q0 45 -20 73.5t-69 28.5q-42 0 -70.5 -20t-35.5 -68v-347h-141v544h124z" />
<glyph unicode="o" horiz-adv-x="724" d="M94 275q0 133 66.5 208.5t201.5 75.5q35 0 65 -5.5t63 -17.5q14 -5 25.5 -15t25.5 -16q50 -44 69.5 -104.5t19.5 -125.5t-17.5 -117.5t-51.5 -90t-84 -58t-116 -20.5q-68 0 -118 20t-83 57.5t-49.5 90t-16.5 118.5zM241 274q0 -33 4 -64t16.5 -55.5t36.5 -39.5t64 -15 q38 0 61 15.5t35 41t16 57t4 63.5q0 33 -4.5 63.5t-17 53t-36 36t-62.5 13.5q-38 0 -61 -14t-35.5 -37.5t-16.5 -54t-4 -63.5z" />
<glyph unicode="p" horiz-adv-x="715" d="M241 550l10 -55q10 8 18 18t19 19q23 20 53.5 25t59.5 5q60 0 102 -24t68.5 -63.5t38 -90.5t11.5 -104q0 -52 -12.5 -103.5t-39.5 -92.5t-70 -66.5t-103 -25.5q-41 0 -74.5 13t-58.5 48v-254h-143v751h121zM362 451q-19 0 -37 -5t-32 -15.5t-22.5 -26t-8.5 -37.5v-166 q0 -48 27 -74t74 -26q36 0 58 17.5t34 44t15.5 58t3.5 60.5q0 30 -3.5 60.5t-15 55t-34 39.5t-59.5 15z" />
<glyph unicode="q" horiz-adv-x="713" d="M453 51q-8 -5 -12 -11.5t-10 -11.5q-26 -23 -53 -31.5t-61 -8.5q-53 0 -90 17t-73 55q-5 6 -7.5 13.5t-8.5 12.5q-25 45 -35 93t-10 100q0 53 11.5 104t37.5 90.5t67.5 63.5t101.5 24q25 0 45.5 -3t38.5 -11t34 -21t32 -33q0 -2 1 4t2.5 14.5t3 18t2.5 16.5l3 3h124v-624 q0 -17 14.5 -31.5t28.5 -21.5v-5l-12 -14.5t-27 -32t-28 -32t-16 -14.5q-24 0 -43 11.5t-32.5 29t-21 39t-7.5 41.5v156v0zM240 278q0 -30 3.5 -62t15 -58.5t33.5 -43.5t60 -17q32 0 58 17t35 49q2 9 3 18.5t4 18.5v167q-2 8 -3 15.5t-4 14.5q-13 29 -40 39.5t-56 10.5 q-39 0 -60.5 -15t-32.5 -39t-13.5 -54.5t-2.5 -60.5z" />
<glyph unicode="r" horiz-adv-x="508" d="M244 549l2 -2q0 -3 1.5 -11.5t3 -18t3 -18.5t1.5 -15h3q7 15 19 28t27 23.5t31.5 16.5t33.5 6h72v-123q-23 0 -49 -1t-50 -6.5t-42.5 -18t-27.5 -34.5q-2 -5 -5.5 -15t-3.5 -11v-349h-143v549h124z" />
<glyph unicode="s" horiz-adv-x="595" d="M69 51q-1 4 6 20.5t16 34.5t18 32.5t12 14.5q21 -10 42 -20.5t42 -18.5t43.5 -13.5t47.5 -5.5q15 0 29.5 2.5t26 8.5t18.5 17t7 28q0 19 -15.5 31t-31.5 18q-29 11 -61.5 20t-63 22t-56.5 32t-42 49q-5 10 -11 22.5t-6 24.5v58q0 12 5.5 23.5t11.5 22.5q15 27 37 44 t48 26.5t55 13t58 3.5q51 0 95.5 -10.5t92.5 -29.5q2 -1 2 -4q0 3 -4 -12.5t-9.5 -36t-12 -38t-11.5 -17.5q-11 0 -23.5 7.5t-20.5 11.5q-26 11 -51 15t-53 4q-11 0 -25.5 -0.5t-28 -4.5t-22.5 -12t-9 -24q0 -22 23.5 -36t56.5 -25t69 -21.5t61 -25.5q1 -1 13.5 -9.5 t18.5 -13.5q12 -9 21 -22t15 -29t8.5 -32.5t2.5 -32.5q0 -53 -17 -87t-46 -53.5t-69 -27t-85 -7.5q-60 0 -119 14t-109 49z" />
<glyph unicode="t" horiz-adv-x="463" d="M47 432v116h83v145h144v-145h115v-116h-114v-278q0 -12 9.5 -21t21.5 -10l83 -4v-114l-5 -1t-12 -2t-14.5 -1.5t-12.5 -0.5h-73t-69.5 11t-52 38t-20.5 81v302h-83z" />
<glyph unicode="u" horiz-adv-x="712" d="M262 550v-349q0 -30 16.5 -56.5t47.5 -31.5q17 0 38 1.5t40 9t31.5 24t12.5 46.5v356h143v-544h-128q-1 7 -2.5 16.5t-3 17.5t-2.5 13.5l-1 5.5q-3 -2 -5 -7q-17 -18 -33 -29.5t-33.5 -18.5t-37 -9.5t-43.5 -2.5q-30 0 -55.5 4t-47 15t-38 30t-26.5 49q-5 14 -9.5 29.5 t-4.5 30.5v400h141z" />
<glyph unicode="v" horiz-adv-x="642" d="M235 0q-34 101 -60 178t-44.5 134t-31.5 96.5t-22 65.5q-20 60 -23 70h150l116 -416l118 416h150l-1 -2l-184 -542h-168v0z" />
<glyph unicode="w" horiz-adv-x="928" d="M67 544h150l83 -404l106 404h117l107 -402l87 402h144q0 -1 -1 -5t-5 -20.5t-13 -49.5t-25.5 -93t-41.5 -151.5t-62 -224.5h-148l-102 340l-99 -340h-148z" />
<glyph unicode="x" horiz-adv-x="635" d="M229 286l-159 258h159l95 -172l96 172h146l-160 -256l182 -288h-166l-107 191l-105 -191h-163z" />
<glyph unicode="y" horiz-adv-x="650" d="M96 -89q12 0 24.5 -1.5t24.5 -1.5q22 0 35.5 2t23.5 8.5t17.5 19t16.5 33.5q4 8 8 18t4 19v5l-196 532h149l126 -386l114 386h153l-195 -535q0 -1 -1 -5.5t-4 -5.5q-20 -48 -35.5 -87.5t-38 -67t-58 -42.5t-95.5 -15h-31q-5 0 -12 0.5t-13.5 1.5t-11.5 2l-5 1v119v0z" />
<glyph unicode="z" horiz-adv-x="565" d="M73 98q4 6 9.5 12.5t15.5 20t26 35t41.5 56.5t61.5 85.5t86 121.5h-235v115h409v-107l-230 -322h235v-115h-419v98v0z" />
<glyph unicode="{" horiz-adv-x="455" d="M403 -105q-263 0 -263 202v68q0 66 -59 66h-22v107h22q59 0 59 66v69q0 202 263 202v-87q-73 -7 -98.5 -35t-25.5 -90v-29q0 -74 -23 -107q-20 -28 -71 -43q51 -14 71 -43q23 -32 23 -106v-29q0 -61 25 -88q26 -29 99 -36v-87z" />
<glyph unicode="|" horiz-adv-x="282" d="M203 -177h-124v943h124v-943z" />
<glyph unicode="}" horiz-adv-x="455" d="M396 232h-22q-59 0 -59 -66v-69q0 -202 -263 -202v87q73 7 99 36q25 27 25 88v30q0 74 23 106q20 29 71 43q-51 15 -71 43q-23 33 -23 107v28q0 62 -25.5 90t-98.5 35v87q263 0 263 -202v-68q0 -66 59 -66h22v-107z" />
<glyph unicode="~" horiz-adv-x="556" d="M514 406q-58 -145 -151 -145q-46 0 -95 33q-57 38 -77 38q-21 0 -33 -12t-35 -56l-81 40q58 145 151 145q45 0 95 -33q57 -38 77 -38q21 0 33 12t35 56z" />
<glyph unicode="&#xa1;" horiz-adv-x="398" d="M108 596q0 19 7.5 33t20 23t29 13.5t33.5 4.5t33.5 -4.5t29.5 -13.5t21 -23t8 -33q0 -18 -8 -32t-21 -23t-29.5 -13.5t-32.5 -4.5q-17 0 -33 4.5t-29 13.5t-21 22.5t-8 32.5zM141 461h116l21 -475h-157z" />
<glyph unicode="&#xa2;" horiz-adv-x="604" d="M277 -8q-48 11 -82.5 35.5t-57 58.5t-33 76t-10.5 88q0 47 10.5 89t33 76t57 57.5t82.5 33.5v77h130v-75q34 -8 61.5 -21.5t56.5 -31.5q3 -2 5 -3t2 -5q0 -7 -6 -17.5t-11 -14.5q-2 -3 -7 -11.5t-11 -18.5t-11.5 -18.5t-7.5 -11.5q0 -1 -1 -2.5t-1 -2.5h-1h-1q-2 1 -8 5 t-12 8.5t-12 8.5t-8 6q-19 12 -37.5 15.5t-40.5 3.5q-33 0 -55.5 -11t-36.5 -30.5t-20 -45.5t-6 -57t6 -59t20 -49t37.5 -33.5t58.5 -12.5q45 0 86 25q1 1 6 5l10 8l10 8t6 5q4 2 7 5h2l56 -89l1 -1q0 -5 -14.5 -15.5t-33 -21t-35.5 -19.5t-22 -10q-2 -1 -7 -2t-10.5 -2.5 t-10 -3t-4.5 -2.5v-74h-130v77v0z" />
<glyph unicode="&#xa3;" horiz-adv-x="663" d="M617 590l-83 -99q-69 60 -171 60q-100 0 -100 -65q0 -25 25 -67q22 -36 27 -52h151v-109h-142q-5 -74 -65 -143h344v-115h-516v98q84 66 96 160h-96v109h78q-9 16 -25 43q-28 52 -28 94q0 85 66 131t187 46q147 0 252 -91z" />
<glyph unicode="&#xa4;" horiz-adv-x="537" d="M100 435l-64 62l54 54l65 -63q51 33 112 33q62 0 112 -33l66 63l55 -54l-66 -62q33 -49 33 -106q0 -58 -33 -107l66 -61l-55 -55l-66 63q-50 -32 -112 -32q-61 0 -112 32l-65 -63l-54 55l64 61q-32 49 -32 107q0 57 32 106zM144 329q0 -49 35.5 -83.5t86.5 -34.5t87 34.5 t36 83.5t-36 83t-87 34t-86.5 -34t-35.5 -83z" />
<glyph unicode="&#xa5;" horiz-adv-x="677" d="M655 670l-250 -410v-47h161v-113h-161v-100h-133v100h-161v113h161v44l-250 413h159l91 -159q52 -90 67 -131q22 52 68 131l91 159h157z" />
<glyph unicode="&#xa6;" horiz-adv-x="251" d="M163 675v-358h-76v358h76zM163 164v-359h-76v359h76z" />
<glyph unicode="&#xa7;" horiz-adv-x="693" d="M638 240q0 -103 -109 -158q20 -31 20 -83q0 -69 -52 -111q-56 -45 -154 -45q-121 0 -212 65l68 92q69 -47 153 -47q69 0 69 45q0 22 -30 37q-25 13 -132.5 47t-151.5 75q-53 47 -53 126q0 104 108 158q-19 33 -19 84q0 68 54 112t152 44q122 0 213 -66l-68 -91 q-70 46 -154 46q-69 0 -69 -45q0 -22 31 -37q24 -12 133 -47q106 -33 151 -74q52 -47 52 -127zM506 231q0 36 -43 61q-25 14 -95 37q-79 26 -118 44q-63 -26 -63 -80q0 -36 43 -61q24 -15 94 -38q80 -26 118 -44q64 26 64 81z" />
<glyph unicode="&#xa8;" d="M431 643q0 -29 -22.5 -51.5t-53.5 -22.5t-54.5 22.5t-23.5 51.5q0 31 23.5 53t54.5 22t53.5 -22t22.5 -53zM218 643q0 -29 -23.5 -51.5t-54.5 -22.5q-30 0 -53.5 22.5t-23.5 51.5q0 31 23 53t54 22q32 0 55 -22t23 -53z" />
<glyph unicode="&#xa9;" horiz-adv-x="827" d="M771 335q0 -147 -102.5 -246.5t-254.5 -99.5q-153 0 -255.5 99.5t-102.5 246.5t102.5 246.5t255.5 99.5q152 0 254.5 -99.5t102.5 -246.5zM707 335q0 122 -84 203t-209 81q-126 0 -210 -81t-84 -203t84 -203t210 -81q125 0 209 81t84 203zM562 449l-78 -42q-25 42 -66 42 q-78 0 -78 -112q0 -111 79 -111q39 0 71 49l69 -46q-51 -86 -142 -86q-77 0 -123.5 52.5t-46.5 141.5q0 85 48.5 140t123.5 55q100 0 143 -83z" />
<glyph unicode="&#xaa;" horiz-adv-x="472" d="M411 264h-108v30q-37 -37 -97 -37q-65 0 -108 35q-50 39 -50 109q0 65 50 101q46 34 122 34q49 0 83 -16v20q0 53 -63 53q-64 0 -116 -27l-42 74q77 41 158 41q78 0 124.5 -38t46.5 -105v-274zM303 384v52q-30 17 -79 17q-67 0 -67 -52q0 -56 67 -56q52 0 79 39z" />
<glyph unicode="&#xab;" horiz-adv-x="621" d="M582 0h-142l-161 251l161 251h142l-157 -250zM332 0h-141l-161 251l161 251h141l-156 -250z" />
<glyph unicode="&#xac;" horiz-adv-x="565" d="M511 192h-79v199h-378v76h457v-275z" />
<glyph unicode="&#xad;" horiz-adv-x="613" d="M559 286h-505v123h505v-123z" />
<glyph unicode="&#xae;" horiz-adv-x="827" d="M771 335q0 -147 -102.5 -246.5t-254.5 -99.5q-153 0 -255.5 99.5t-102.5 246.5t102.5 246.5t255.5 99.5q152 0 254.5 -99.5t102.5 -246.5zM707 335q0 122 -84 203t-209 81q-126 0 -210 -81t-84 -203t84 -203t210 -81q125 0 209 81t84 203zM584 412q0 -82 -77 -111 l75 -148h-93l-71 138h-67v-138h-82v377h181q59 0 95 -28q39 -32 39 -90zM500 410q0 48 -56 48h-93v-97h93q56 0 56 49z" />
<glyph unicode="&#xaf;" horiz-adv-x="490" d="M387 559h-284v96h284v-96z" />
<glyph unicode="&#xb0;" horiz-adv-x="481" d="M436 492q0 -81 -56 -136t-140 -55q-82 0 -138.5 55.5t-56.5 135.5q0 79 56.5 134t138.5 55q84 0 140 -55t56 -134zM332 492q0 37 -26.5 63t-65.5 26q-38 0 -65 -26.5t-27 -62.5q0 -38 27 -64.5t65 -26.5q40 0 66 26t26 65z" />
<glyph unicode="&#xb1;" horiz-adv-x="530" d="M225 118v182h-189v75h189v182h81v-182h186v-75h-186v-182h-81zM492 0h-456v76h456v-76z" />
<glyph unicode="&#xb2;" horiz-adv-x="321" d="M12 332q2 26 23 52q28 38 96 86t80 61q18 18 18 38q0 22 -15.5 36t-47.5 14q-33 0 -47.5 -10.5t-25.5 -41.5l-71 8q14 50 48 73.5t96 23.5q72 0 105 -26.5t33 -65.5q0 -38 -29 -71q-20 -26 -95 -78q-40 -28 -56 -44h182v-55h-294z" />
<glyph unicode="&#xb3;" horiz-adv-x="321" d="M16 421l67 6q10 -27 27 -36q20 -14 47 -14q34 0 54.5 18t20.5 42q0 23 -17 36.5t-60 13.5q-6 0 -14 -1h-11l11 49q39 0 55.5 13.5t16.5 33.5q0 17 -13.5 28.5t-42.5 11.5q-26 0 -40 -10t-26 -36l-68 10q21 48 50.5 67t83.5 19q70 0 101 -24t31 -60q0 -25 -17 -45t-49 -27 q43 -11 63 -34t20 -54q0 -41 -38.5 -72.5t-106.5 -31.5q-66 0 -101 25.5t-44 71.5z" />
<glyph unicode="&#xb4;" d="M396 723l-144 -154h-115l86 154h173z" />
<glyph unicode="&#xb5;" horiz-adv-x="557" d="M480 481v-481h-75v58q-26 -37 -51 -51q-31 -18 -75 -18q-39 0 -70 15q-21 11 -50 44v-233h-83v666h83v-204q0 -110 12.5 -143.5t40.5 -52.5t63 -19q38 0 68.5 20t42 52t11.5 141v206h83z" />
<glyph unicode="&#xb6;" horiz-adv-x="716" d="M628 -177h-113v746h-63v-746h-113v427h-68q-95 0 -158 54q-67 59 -67 156t68 155q62 55 157 55h357v-847z" />
<glyph unicode="&#xb7;" horiz-adv-x="266" d="M226 336q0 -35 -28 -60.5t-64 -25.5q-38 0 -65 25.5t-27 60.5t27 60.5t65 25.5q36 0 64 -25.5t28 -60.5z" />
<glyph unicode="&#xb8;" d="M373 -101q0 -84 -118 -84q-72 0 -129 35l20 36q45 -23 88 -23q54 0 54 33q0 25 -31 25q-16 0 -29 -7l-36 13l27 108h55l-17 -75q14 7 39 7q77 0 77 -68z" />
<glyph unicode="&#xb9;" horiz-adv-x="321" d="M155 332v251q-47 -37 -105 -51v56q30 9 65.5 33t58.5 51h51v-340h-70z" />
<glyph unicode="&#xba;" horiz-adv-x="486" d="M433 468q0 -93 -54 -152t-137 -59t-136.5 59t-53.5 152t53.5 153t136.5 60t137 -60t54 -153zM321 468q0 49 -20.5 79t-58.5 30q-78 0 -78 -109q0 -108 78 -108q38 0 58.5 31.5t20.5 76.5z" />
<glyph unicode="&#xbb;" horiz-adv-x="621" d="M598 251l-162 -251h-141l156 252l-156 250h141zM348 251l-161 -251h-141l156 252l-156 250h141z" />
<glyph unicode="&#xbc;" horiz-adv-x="1797" d="M231 604q-14 -6 -23 -15.5t-20 -17.5q-18 -14 -37 -28.5t-37 -27.5q-2 0 -11.5 15.5t-20.5 34.5t-20 35.5t-9 19.5q35 28 69 55.5t66 55.5q17 14 35 25.5t33 28.5h116v-670h-141v489v0zM559.865 -224.993l368.257 1014.02h124.748l-367.259 -1014.02h-125.746v0z M1219 -89l-32 107l39 55l83 121q9 12 17 23q7 9 12.5 17.5t5.5 10.5l44 63q1 2 7 11.5t13.5 19.5t13.5 18.5l6 8.5l44 63q2 5 6 9t6 9h150v-417h96v-119h-96v-136h-144v136h-271zM1470 240q-20 -32 -39.5 -62.5t-39.5 -62.5q-3 -5 -12 -17t-18.5 -25t-16.5 -24.5t-7 -17.5 h158v247q-10 -8 -13 -19.5t-12 -18.5z" />
<glyph unicode="&#xbd;" horiz-adv-x="1756" d="M231 606q-14 -6 -23 -15.5t-20 -17.5q-18 -14 -37 -28.5t-37 -27.5q-2 0 -11.5 15.5t-20.5 34.5t-20 35.5t-9 19.5q35 28 69 55.5t66 55.5q17 14 35 25.5t33 28.5h116v-670h-141v489v0zM559 -227.064l369 1016.01h125l-368 -1016.01h-126v0zM1187 -108q36 35 74.5 68 t77.5 65q20 17 50 43t57.5 57t47 65t19.5 67q0 35 -23.5 55t-58.5 20q-49 0 -86.5 -25t-71.5 -57h-2q-20 20 -38.5 45t-35.5 48q-3 3 -3 7q22 27 50 46t60.5 32t66.5 19t68 6q32 0 62 -4.5t56 -16.5t47.5 -32.5t36.5 -51.5q13 -26 13.5 -50.5t0.5 -57.5q0 -41 -16 -77.5 t-41 -68.5t-54.5 -59t-56.5 -48q-6 -5 -25 -19t-41 -29.5t-41 -29.5t-25 -18h307v-120h-454l-21 119v2z" />
<glyph unicode="&#xbe;" horiz-adv-x="1938" d="M60 171q0 3 8.5 20t19 35.5t20.5 33.5t13 14q35 -28 73.5 -43.5t83.5 -15.5q15 0 32 2t32 8t27 16t19 26q2 2 4.5 9.5t2.5 11.5v46q0 12 -7 23t-18 20t-23.5 14t-23.5 5h-118v117q35 1 65 2t63 10q2 4 6.5 4.5t6.5 2.5q31 20 31 58q0 45 -27 61t-68 16q-25 0 -49.5 -5.5 t-46.5 -17.5q-7 -4 -15 -10.5t-15.5 -12.5t-14.5 -10.5t-11 -4.5q-5 0 -16 16t-22.5 35.5t-20.5 35l-9 15.5l5 3.5t12.5 8t16 10t16.5 9.5l21 10.5t18.5 8.5t20.5 8t28 10q4 4 17.5 6.5t29 4t30.5 1.5h24q37 0 72 -7t67 -26q42 -24 61.5 -66t19.5 -90q0 -20 -4 -40.5 t-13 -38.5t-23 -32.5t-34 -22.5q51 -25 72 -60.5t21 -92.5q0 -58 -21 -98.5t-56 -66.5t-82.5 -38t-99.5 -12q-47 -1 -90.5 8t-85.5 32q-14 7 -29.5 16.5t-15.5 17.5zM692.949 -226.028l374.225 1015.02h126.77l-373.211 -1015.02h-127.783v0zM1360 -93l-32 107l39 55l83 121 q9 12 17 23q7 9 12.5 17.5t5.5 10.5l44 63q1 2 7 11.5t13.5 19.5t13.5 18.5l6 8.5l44 63q2 5 6 9t6 9h150v-417h96v-119h-96v-136h-144v136h-271zM1611 236q-20 -32 -39.5 -62.5t-39.5 -62.5q-3 -5 -12 -17t-18.5 -25t-16.5 -24.5t-7 -17.5h158v247q-10 -8 -13 -19.5 t-12 -18.5z" />
<glyph unicode="&#xbf;" horiz-adv-x="600" d="M427 609q0 -19 -7.5 -32.5t-20 -22.5t-28.5 -13.5t-33 -4.5t-33 4.5t-29 13.5t-21 22.5t-8 31.5q0 12 5 24.5t13.5 23t20 17.5t24.5 7h54q13 0 24.5 -6.5t20 -17t13.5 -23t5 -24.5zM222 188q0 -21 8 -36.5t21.5 -25t31.5 -14.5t37 -5q38 0 70.5 14t61.5 38q6 0 13 -8.5 t15.5 -22.5t18.5 -31t21 -33v-5t-3 -5q-28 -17 -53 -29t-50.5 -20t-53 -12t-60.5 -4q-25 0 -51 1.5t-50 10.5q-57 22 -87 68.5t-30 106.5q0 40 11 69.5t31.5 53t50.5 42.5t68 39q17 8 21.5 26t4.5 36q0 9 -0.5 17t-0.5 16h133v-97q0 -25 -13.5 -41.5t-33 -28.5t-43 -22 t-43 -22.5t-33 -30.5t-13.5 -45z" />
<glyph unicode="&#xc0;" horiz-adv-x="761" d="M297 675h162l248 -673v-2h-156l-2 2q-2 5 -5 12t-9 22t-14.5 40t-20.5 66h-241l-52 -142h-153zM376 530l-83 -265h172v3zM510 704h-116l-143 154h173z" />
<glyph unicode="&#xc1;" horiz-adv-x="761" d="M297 675h162l248 -673v-2h-156l-2 2q-2 5 -5 12t-9 22t-14.5 40t-20.5 66h-241l-52 -142h-153zM376 530l-83 -265h172v3zM510 858l-144 -154h-115l86 154h173z" />
<glyph unicode="&#xc2;" horiz-adv-x="761" d="M297 675h162l248 -673v-2h-156l-2 2q-2 5 -5 12t-9 22t-14.5 40t-20.5 66h-241l-52 -142h-153zM376 530l-83 -265h172v3zM570 704h-92l-99 72l-99 -72h-90l121 154h139z" />
<glyph unicode="&#xc3;" horiz-adv-x="761" d="M297 675h162l248 -673v-2h-156l-2 2q-2 5 -5 12t-9 22t-14.5 40t-20.5 66h-241l-52 -142h-153zM376 530l-83 -265h172v3zM574 839q0 -63 -31 -100t-83 -37q-46 0 -99 29q-35 19 -52 19q-26 0 -34 -46h-89q0 64 31.5 101t82.5 37q47 0 100 -29q35 -19 52 -19q25 0 33 45 h89z" />
<glyph unicode="&#xc4;" horiz-adv-x="761" d="M297 675h162l248 -673v-2h-156l-2 2q-2 5 -5 12t-9 22t-14.5 40t-20.5 66h-241l-52 -142h-153zM376 530l-83 -265h172v3zM564 778q0 -29 -22.5 -51.5t-53.5 -22.5t-54.5 22.5t-23.5 51.5q0 31 23.5 53t54.5 22t53.5 -22t22.5 -53zM351 778q0 -29 -23.5 -51.5t-54.5 -22.5 q-30 0 -53.5 22.5t-23.5 51.5q0 31 23 53t54 22q32 0 55 -22t23 -53z" />
<glyph unicode="&#xc5;" horiz-adv-x="761" d="M297 675h162l248 -673v-2h-156l-2 2q-2 5 -5 12t-9 22t-14.5 40t-20.5 66h-241l-52 -142h-153zM376 530l-83 -265h172v3zM514 832q0 -56 -38 -92t-96 -36q-57 0 -95 36t-38 92q0 55 38 92t95 37q58 0 96 -37t38 -92zM439 832q0 24 -17 40.5t-42 16.5q-24 0 -41 -16.5 t-17 -40.5t17 -41t41 -17q25 0 42 17t17 41z" />
<glyph unicode="&#xc6;" horiz-adv-x="1027" d="M969 0h-470v120h-247l-80 -120h-158l465 670h475v-128h-323v-121h179v-126h-179v-167h338v-128zM501 500q-24 -45 -80 -129l-90 -134h168v123q0 21 1 74.5t1 65.5z" />
<glyph unicode="&#xc7;" horiz-adv-x="715" d="M134 141q-21 49 -30.5 99t-9.5 103t10.5 102.5t35 92t64 76t97.5 55.5q3 3 6.5 3t5.5 2q26 5 49.5 7t49.5 2q25 0 39 -0.5t26 -3t27 -8t42 -16.5q3 -2 11.5 -7t17.5 -10.5t16 -10t8 -4.5q8 -8 25.5 -21.5t25.5 -25.5v-4q0 -5 -13.5 -20t-30 -31t-29.5 -29l-13 -13h-2 q-32 35 -66.5 57t-83.5 22q-58 0 -92 -26t-56 -79q-6 -14 -10 -30.5t-4 -32.5v-100q0 -5 1.5 -12.5t3 -16.5t3.5 -17t4 -12q17 -55 55.5 -86t96.5 -31q50 0 88.5 23.5t73.5 56.5q2 0 14.5 -14.5t27 -32t26 -33.5t11.5 -19t-7 -10t-15.5 -14t-17 -13.5t-11.5 -8.5 q-16 -9 -27 -15.5t-24 -14.5q-1 0 -1.5 -1t-1.5 -1q-34 -16 -69.5 -22t-72.5 -6q-33 0 -66 5t-64.5 16t-59.5 29.5t-49 44.5q-2 3 -7.5 12t-12 19t-11 17.5zM481 -101q0 -84 -118 -84q-72 0 -129 35l20 36q45 -23 88 -23q54 0 54 33q0 25 -31 25q-16 0 -29 -7l-36 13l27 108 h55l-17 -75q14 7 39 7q77 0 77 -68z" />
<glyph unicode="&#xc8;" horiz-adv-x="650" d="M121 668h433v-122h-284v-142h258v-124h-258v-160h293v-120h-442v668v0zM454 704h-116l-143 154h173z" />
<glyph unicode="&#xc9;" horiz-adv-x="650" d="M121 668h433v-122h-284v-142h258v-124h-258v-160h293v-120h-442v668v0zM454 858l-144 -154h-115l86 154h173z" />
<glyph unicode="&#xca;" horiz-adv-x="650" d="M121 668h433v-122h-284v-142h258v-124h-258v-160h293v-120h-442v668v0zM515 704h-92l-99 72l-99 -72h-90l121 154h139z" />
<glyph unicode="&#xcb;" horiz-adv-x="650" d="M121 668h433v-122h-284v-142h258v-124h-258v-160h293v-120h-442v668v0zM509 778q0 -29 -22.5 -51.5t-53.5 -22.5t-54.5 22.5t-23.5 51.5q0 31 23.5 53t54.5 22t53.5 -22t22.5 -53zM296 778q0 -29 -23.5 -51.5t-54.5 -22.5q-30 0 -53.5 22.5t-23.5 51.5q0 31 23 53t54 22 q32 0 55 -22t23 -53z" />
<glyph unicode="&#xcc;" horiz-adv-x="383" d="M119 670h145v-670h-145v670v0zM322 704h-116l-143 154h173z" />
<glyph unicode="&#xcd;" horiz-adv-x="383" d="M119 670h145v-670h-145v670v0zM322 858l-144 -154h-115l86 154h173z" />
<glyph unicode="&#xce;" horiz-adv-x="383" d="M119 670h145v-670h-145v670v0zM383 704h-92l-99 72l-99 -72h-90l121 154h139z" />
<glyph unicode="&#xcf;" horiz-adv-x="383" d="M119 670h145v-670h-145v670v0zM377 778q0 -29 -22.5 -51.5t-53.5 -22.5t-54.5 22.5t-23.5 51.5q0 31 23.5 53t54.5 22t53.5 -22t22.5 -53zM164 778q0 -29 -23.5 -51.5t-54.5 -22.5q-30 0 -53.5 22.5t-23.5 51.5q0 31 23 53t54 22q32 0 55 -22t23 -53z" />
<glyph unicode="&#xd0;" horiz-adv-x="699" d="M74 0v302h-76v60h76v302h239q80 0 124 -10q58 -12 100 -47q56 -44 83 -113.5t27 -157.5q0 -102 -33 -175t-80.5 -106t-109.5 -47q-33 -8 -98 -8h-252zM166 78h147q70 0 108.5 12.5t60.5 34.5q33 31 51.5 83.5t18.5 128.5q0 78 -17.5 124.5t-47.5 74.5t-66 39t-109 11 h-146v-224h190v-60h-190v-224z" />
<glyph unicode="&#xd1;" horiz-adv-x="806" d="M120 670h138l285 -402v402h143v-670h-135l-290 416v-416h-141v670v0zM597 839q0 -63 -31 -100t-83 -37q-46 0 -99 29q-35 19 -52 19q-26 0 -34 -46h-89q0 64 31.5 101t82.5 37q47 0 100 -29q35 -19 52 -19q25 0 33 45h89z" />
<glyph unicode="&#xd2;" horiz-adv-x="828" d="M94 335q0 58 12 110t37 103l5 5q27 34 54.5 58t59.5 39t69 22t82 7q48 0 79 -6t54 -13q46 -14 81.5 -45.5t59 -73t35.5 -88t12 -90.5q0 -83 -16.5 -152t-54 -118t-98.5 -76t-149 -27q-83 0 -143.5 24t-100 68.5t-59 108.5t-19.5 144zM248 332q0 -45 6.5 -86t24.5 -71.5 t50.5 -48.5t84.5 -18q53 0 85.5 19t50 50.5t23.5 72t6 84.5q0 45 -6 85.5t-24 71t-51 49t-87 18.5q-52 0 -84 -18.5t-49.5 -49.5t-23.5 -72t-6 -86zM543 704h-116l-143 154h173z" />
<glyph unicode="&#xd3;" horiz-adv-x="828" d="M94 335q0 58 12 110t37 103l5 5q27 34 54.5 58t59.5 39t69 22t82 7q48 0 79 -6t54 -13q46 -14 81.5 -45.5t59 -73t35.5 -88t12 -90.5q0 -83 -16.5 -152t-54 -118t-98.5 -76t-149 -27q-83 0 -143.5 24t-100 68.5t-59 108.5t-19.5 144zM248 332q0 -45 6.5 -86t24.5 -71.5 t50.5 -48.5t84.5 -18q53 0 85.5 19t50 50.5t23.5 72t6 84.5q0 45 -6 85.5t-24 71t-51 49t-87 18.5q-52 0 -84 -18.5t-49.5 -49.5t-23.5 -72t-6 -86zM543 858l-144 -154h-115l86 154h173z" />
<glyph unicode="&#xd4;" horiz-adv-x="828" d="M94 335q0 58 12 110t37 103l5 5q27 34 54.5 58t59.5 39t69 22t82 7q48 0 79 -6t54 -13q46 -14 81.5 -45.5t59 -73t35.5 -88t12 -90.5q0 -83 -16.5 -152t-54 -118t-98.5 -76t-149 -27q-83 0 -143.5 24t-100 68.5t-59 108.5t-19.5 144zM248 332q0 -45 6.5 -86t24.5 -71.5 t50.5 -48.5t84.5 -18q53 0 85.5 19t50 50.5t23.5 72t6 84.5q0 45 -6 85.5t-24 71t-51 49t-87 18.5q-52 0 -84 -18.5t-49.5 -49.5t-23.5 -72t-6 -86zM604 704h-92l-99 72l-99 -72h-90l121 154h139z" />
<glyph unicode="&#xd5;" horiz-adv-x="828" d="M94 335q0 58 12 110t37 103l5 5q27 34 54.5 58t59.5 39t69 22t82 7q48 0 79 -6t54 -13q46 -14 81.5 -45.5t59 -73t35.5 -88t12 -90.5q0 -83 -16.5 -152t-54 -118t-98.5 -76t-149 -27q-83 0 -143.5 24t-100 68.5t-59 108.5t-19.5 144zM248 332q0 -45 6.5 -86t24.5 -71.5 t50.5 -48.5t84.5 -18q53 0 85.5 19t50 50.5t23.5 72t6 84.5q0 45 -6 85.5t-24 71t-51 49t-87 18.5q-52 0 -84 -18.5t-49.5 -49.5t-23.5 -72t-6 -86zM608 839q0 -63 -31 -100t-83 -37q-46 0 -99 29q-35 19 -52 19q-26 0 -34 -46h-89q0 64 31.5 101t82.5 37q47 0 100 -29 q35 -19 52 -19q25 0 33 45h89z" />
<glyph unicode="&#xd6;" horiz-adv-x="828" d="M94 335q0 58 12 110t37 103l5 5q27 34 54.5 58t59.5 39t69 22t82 7q48 0 79 -6t54 -13q46 -14 81.5 -45.5t59 -73t35.5 -88t12 -90.5q0 -83 -16.5 -152t-54 -118t-98.5 -76t-149 -27q-83 0 -143.5 24t-100 68.5t-59 108.5t-19.5 144zM248 332q0 -45 6.5 -86t24.5 -71.5 t50.5 -48.5t84.5 -18q53 0 85.5 19t50 50.5t23.5 72t6 84.5q0 45 -6 85.5t-24 71t-51 49t-87 18.5q-52 0 -84 -18.5t-49.5 -49.5t-23.5 -72t-6 -86zM598 778q0 -29 -22.5 -51.5t-53.5 -22.5t-54.5 22.5t-23.5 51.5q0 31 23.5 53t54.5 22t53.5 -22t22.5 -53zM385 778 q0 -29 -23.5 -51.5t-54.5 -22.5q-30 0 -53.5 22.5t-23.5 51.5q0 31 23 53t54 22q32 0 55 -22t23 -53z" />
<glyph unicode="&#xd7;" horiz-adv-x="565" d="M76 186l149 142l-149 142l57 55l148 -141l151 141l54 -55l-147 -142l147 -141l-54 -56l-151 142l-148 -142z" />
<glyph unicode="&#xd8;" horiz-adv-x="828" d="M94 335q0 58 12 110t37 103l5 5q27 34 54.5 58t59.5 39t69 22t82 7q48 0 79 -6t54 -13q46 -14 81.5 -45.5t59 -73t35.5 -88t12 -90.5q0 -83 -16.5 -152t-54 -118t-98.5 -76t-149 -27q-83 0 -143.5 24t-100 68.5t-59 108.5t-19.5 144zM248 332q0 -45 6.5 -86t24.5 -71.5 t50.5 -48.5t84.5 -18q53 0 85.5 19t50 50.5t23.5 72t6 84.5q0 45 -6 85.5t-24 71t-51 49t-87 18.5q-52 0 -84 -18.5t-49.5 -49.5t-23.5 -72t-6 -86zM165.73 0.230469l367.514 725.995h124.496l-366.518 -725.995h-125.492v0z" />
<glyph unicode="&#xd9;" horiz-adv-x="780" d="M168 74q-26 45 -36.5 92t-10.5 99v405h148v-424q0 -61 27.5 -97t90.5 -36q20 0 35 2t34 10t30.5 27t17.5 40t7.5 40.5t1.5 30.5v407h146v-431q0 -28 -5 -57.5t-16 -57t-28.5 -51.5t-41.5 -41q-16 -11 -32.5 -17t-32.5 -15l-65 -12h-96q-23 0 -48 6t-48.5 17t-43 26.5 t-32.5 34.5l-2 2v0zM519 704h-116l-143 154h173z" />
<glyph unicode="&#xda;" horiz-adv-x="780" d="M168 74q-26 45 -36.5 92t-10.5 99v405h148v-424q0 -61 27.5 -97t90.5 -36q20 0 35 2t34 10t30.5 27t17.5 40t7.5 40.5t1.5 30.5v407h146v-431q0 -28 -5 -57.5t-16 -57t-28.5 -51.5t-41.5 -41q-16 -11 -32.5 -17t-32.5 -15l-65 -12h-96q-23 0 -48 6t-48.5 17t-43 26.5 t-32.5 34.5l-2 2v0zM519 858l-144 -154h-115l86 154h173z" />
<glyph unicode="&#xdb;" horiz-adv-x="780" d="M168 74q-26 45 -36.5 92t-10.5 99v405h148v-424q0 -61 27.5 -97t90.5 -36q20 0 35 2t34 10t30.5 27t17.5 40t7.5 40.5t1.5 30.5v407h146v-431q0 -28 -5 -57.5t-16 -57t-28.5 -51.5t-41.5 -41q-16 -11 -32.5 -17t-32.5 -15l-65 -12h-96q-23 0 -48 6t-48.5 17t-43 26.5 t-32.5 34.5l-2 2v0zM580 704h-92l-99 72l-99 -72h-90l121 154h139z" />
<glyph unicode="&#xdc;" horiz-adv-x="780" d="M168 74q-26 45 -36.5 92t-10.5 99v405h148v-424q0 -61 27.5 -97t90.5 -36q20 0 35 2t34 10t30.5 27t17.5 40t7.5 40.5t1.5 30.5v407h146v-431q0 -28 -5 -57.5t-16 -57t-28.5 -51.5t-41.5 -41q-16 -11 -32.5 -17t-32.5 -15l-65 -12h-96q-23 0 -48 6t-48.5 17t-43 26.5 t-32.5 34.5l-2 2v0zM574 778q0 -29 -22.5 -51.5t-53.5 -22.5t-54.5 22.5t-23.5 51.5q0 31 23.5 53t54.5 22t53.5 -22t22.5 -53zM361 778q0 -29 -23.5 -51.5t-54.5 -22.5q-30 0 -53.5 22.5t-23.5 51.5q0 31 23 53t54 22q32 0 55 -22t23 -53z" />
<glyph unicode="&#xdd;" horiz-adv-x="679" d="M199 670l5.5 -10.5t21 -40.5t43 -84.5t71.5 -143.5l147 279h159q-57 -104 -115 -207t-120 -205v-258h-144v256q-55 91 -115 199.5t-119 214.5h166zM469 858l-144 -154h-115l86 154h173z" />
<glyph unicode="&#xde;" horiz-adv-x="645" d="M74 0v664h92v-135h169q70 0 106 -7q51 -7 86 -30t55.5 -64.5t20.5 -90.5q0 -84 -56.5 -143t-203.5 -59h-177v-135h-92zM166 213h179q89 0 126.5 31.5t37.5 89.5q0 41 -22 71t-58 39q-24 7 -86 7h-177v-238z" />
<glyph unicode="&#xdf;" horiz-adv-x="580" d="M540 212q0 -212 -240 -212h-22v120h18q106 0 106 92q0 107 -118 107h-6v115h5q65 0 65 69q0 67 -74 67q-41 0 -56 -19t-15 -59v-611l-137 -66v684q0 196 210 196q91 0 149 -45q62 -49 62 -132q0 -103 -92 -133q145 -28 145 -173z" />
<glyph unicode="&#xe0;" horiz-adv-x="672" d="M167 1q-5 8 -17.5 12t-19.5 11q-26 26 -37.5 59.5t-11.5 69.5q0 56 28 99.5t82 64.5q21 8 48.5 17t51.5 11l121 9q0 54 -16.5 75t-65.5 21q-33 0 -65 -7.5t-63 -18.5q-14 -5 -31.5 -16.5t-29.5 -11.5q-4 0 -10 13t-12 29.5t-11.5 32.5t-7.5 21q-2 4 2 6.5t7 4.5 q30 12 58 22t56 17t57 11t62 4q43 0 81.5 -8t68 -29t46.5 -58.5t17 -95.5v-244q0 -9 5.5 -17.5t11.5 -15t11.5 -11.5t5.5 -8q3 3 -1 -2t-11.5 -12.5t-15.5 -15t-12 -11.5t-10 -10.5t-12.5 -12.5t-13 -10.5t-11.5 -4.5q-26 0 -46 19.5t-30 41.5q-19 -15 -40 -28t-44 -21 l-2 -2l-52 -12h-79l-42 12v0zM223 161q0 -32 15 -53.5t57 -21.5q35 0 62 12.5t55 32.5v138q-34 0 -68 -4t-61 -16t-43.5 -33t-16.5 -55zM465 569h-116l-143 154h173z" />
<glyph unicode="&#xe1;" horiz-adv-x="672" d="M167 1q-5 8 -17.5 12t-19.5 11q-26 26 -37.5 59.5t-11.5 69.5q0 56 28 99.5t82 64.5q21 8 48.5 17t51.5 11l121 9q0 54 -16.5 75t-65.5 21q-33 0 -65 -7.5t-63 -18.5q-14 -5 -31.5 -16.5t-29.5 -11.5q-4 0 -10 13t-12 29.5t-11.5 32.5t-7.5 21q-2 4 2 6.5t7 4.5 q30 12 58 22t56 17t57 11t62 4q43 0 81.5 -8t68 -29t46.5 -58.5t17 -95.5v-244q0 -9 5.5 -17.5t11.5 -15t11.5 -11.5t5.5 -8q3 3 -1 -2t-11.5 -12.5t-15.5 -15t-12 -11.5t-10 -10.5t-12.5 -12.5t-13 -10.5t-11.5 -4.5q-26 0 -46 19.5t-30 41.5q-19 -15 -40 -28t-44 -21 l-2 -2l-52 -12h-79l-42 12v0zM223 161q0 -32 15 -53.5t57 -21.5q35 0 62 12.5t55 32.5v138q-34 0 -68 -4t-61 -16t-43.5 -33t-16.5 -55zM465 723l-144 -154h-115l86 154h173z" />
<glyph unicode="&#xe2;" horiz-adv-x="672" d="M167 1q-5 8 -17.5 12t-19.5 11q-26 26 -37.5 59.5t-11.5 69.5q0 56 28 99.5t82 64.5q21 8 48.5 17t51.5 11l121 9q0 54 -16.5 75t-65.5 21q-33 0 -65 -7.5t-63 -18.5q-14 -5 -31.5 -16.5t-29.5 -11.5q-4 0 -10 13t-12 29.5t-11.5 32.5t-7.5 21q-2 4 2 6.5t7 4.5 q30 12 58 22t56 17t57 11t62 4q43 0 81.5 -8t68 -29t46.5 -58.5t17 -95.5v-244q0 -9 5.5 -17.5t11.5 -15t11.5 -11.5t5.5 -8q3 3 -1 -2t-11.5 -12.5t-15.5 -15t-12 -11.5t-10 -10.5t-12.5 -12.5t-13 -10.5t-11.5 -4.5q-26 0 -46 19.5t-30 41.5q-19 -15 -40 -28t-44 -21 l-2 -2l-52 -12h-79l-42 12v0zM223 161q0 -32 15 -53.5t57 -21.5q35 0 62 12.5t55 32.5v138q-34 0 -68 -4t-61 -16t-43.5 -33t-16.5 -55zM526 569h-92l-99 72l-99 -72h-90l121 154h139z" />
<glyph unicode="&#xe3;" horiz-adv-x="672" d="M167 1q-5 8 -17.5 12t-19.5 11q-26 26 -37.5 59.5t-11.5 69.5q0 56 28 99.5t82 64.5q21 8 48.5 17t51.5 11l121 9q0 54 -16.5 75t-65.5 21q-33 0 -65 -7.5t-63 -18.5q-14 -5 -31.5 -16.5t-29.5 -11.5q-4 0 -10 13t-12 29.5t-11.5 32.5t-7.5 21q-2 4 2 6.5t7 4.5 q30 12 58 22t56 17t57 11t62 4q43 0 81.5 -8t68 -29t46.5 -58.5t17 -95.5v-244q0 -9 5.5 -17.5t11.5 -15t11.5 -11.5t5.5 -8q3 3 -1 -2t-11.5 -12.5t-15.5 -15t-12 -11.5t-10 -10.5t-12.5 -12.5t-13 -10.5t-11.5 -4.5q-26 0 -46 19.5t-30 41.5q-19 -15 -40 -28t-44 -21 l-2 -2l-52 -12h-79l-42 12v0zM223 161q0 -32 15 -53.5t57 -21.5q35 0 62 12.5t55 32.5v138q-34 0 -68 -4t-61 -16t-43.5 -33t-16.5 -55zM530 704q0 -63 -31 -100t-83 -37q-46 0 -99 29q-35 19 -52 19q-26 0 -34 -46h-89q0 64 31.5 101t82.5 37q47 0 100 -29q35 -19 52 -19 q25 0 33 45h89z" />
<glyph unicode="&#xe4;" horiz-adv-x="672" d="M167 1q-5 8 -17.5 12t-19.5 11q-26 26 -37.5 59.5t-11.5 69.5q0 56 28 99.5t82 64.5q21 8 48.5 17t51.5 11l121 9q0 54 -16.5 75t-65.5 21q-33 0 -65 -7.5t-63 -18.5q-14 -5 -31.5 -16.5t-29.5 -11.5q-4 0 -10 13t-12 29.5t-11.5 32.5t-7.5 21q-2 4 2 6.5t7 4.5 q30 12 58 22t56 17t57 11t62 4q43 0 81.5 -8t68 -29t46.5 -58.5t17 -95.5v-244q0 -9 5.5 -17.5t11.5 -15t11.5 -11.5t5.5 -8q3 3 -1 -2t-11.5 -12.5t-15.5 -15t-12 -11.5t-10 -10.5t-12.5 -12.5t-13 -10.5t-11.5 -4.5q-26 0 -46 19.5t-30 41.5q-19 -15 -40 -28t-44 -21 l-2 -2l-52 -12h-79l-42 12v0zM223 161q0 -32 15 -53.5t57 -21.5q35 0 62 12.5t55 32.5v138q-34 0 -68 -4t-61 -16t-43.5 -33t-16.5 -55zM520 643q0 -29 -22.5 -51.5t-53.5 -22.5t-54.5 22.5t-23.5 51.5q0 31 23.5 53t54.5 22t53.5 -22t22.5 -53zM307 643q0 -29 -23.5 -51.5 t-54.5 -22.5q-30 0 -53.5 22.5t-23.5 51.5q0 31 23 53t54 22q32 0 55 -22t23 -53z" />
<glyph unicode="&#xe5;" horiz-adv-x="672" d="M167 1q-5 8 -17.5 12t-19.5 11q-26 26 -37.5 59.5t-11.5 69.5q0 56 28 99.5t82 64.5q21 8 48.5 17t51.5 11l121 9q0 54 -16.5 75t-65.5 21q-33 0 -65 -7.5t-63 -18.5q-14 -5 -31.5 -16.5t-29.5 -11.5q-4 0 -10 13t-12 29.5t-11.5 32.5t-7.5 21q-2 4 2 6.5t7 4.5 q30 12 58 22t56 17t57 11t62 4q43 0 81.5 -8t68 -29t46.5 -58.5t17 -95.5v-244q0 -9 5.5 -17.5t11.5 -15t11.5 -11.5t5.5 -8q3 3 -1 -2t-11.5 -12.5t-15.5 -15t-12 -11.5t-10 -10.5t-12.5 -12.5t-13 -10.5t-11.5 -4.5q-26 0 -46 19.5t-30 41.5q-19 -15 -40 -28t-44 -21 l-2 -2l-52 -12h-79l-42 12v0zM223 161q0 -32 15 -53.5t57 -21.5q35 0 62 12.5t55 32.5v138q-34 0 -68 -4t-61 -16t-43.5 -33t-16.5 -55zM469 697q0 -56 -38 -92t-96 -36q-57 0 -95 36t-38 92q0 55 38 92t95 37q58 0 96 -37t38 -92zM394 697q0 24 -17 40.5t-42 16.5 q-24 0 -41 -16.5t-17 -40.5t17 -41t41 -17q25 0 42 17t17 41z" />
<glyph unicode="&#xe6;" horiz-adv-x="834" d="M791 251q0 -23 -2 -42h-310q3 -48 36 -73q29 -22 71 -22q57 0 89 35l97 -78q-31 -38 -82 -60t-104 -22q-116 0 -182 77q-71 -77 -169 -77q-79 0 -133 44q-60 49 -60 135q0 81 61 126q56 41 149 41q59 0 100 -20v25q0 28 -19 46t-55 18q-78 0 -142 -34l-53 92 q91 51 195 51q102 0 156 -58q56 58 139 58q101 0 161 -78q57 -72 57 -184zM659 308q-3 38 -25 62q-26 28 -68 28q-36 0 -58.5 -25.5t-26.5 -64.5h178zM352 147v64q-34 21 -95 21q-79 0 -79 -64q0 -67 79 -67q67 0 95 46z" />
<glyph unicode="&#xe7;" horiz-adv-x="619" d="M183 46q-52 50 -70.5 106t-18.5 125q0 35 5 66t16 63l3 3q33 78 96.5 114.5t148.5 36.5q16 0 29.5 -1t27 -3t28.5 -6t35 -11q5 -3 16 -8t23 -11.5t22 -13.5t13 -13v-3q-3 -4 -11 -19t-18 -31t-20 -28.5t-16 -12.5q-25 23 -55.5 36t-64.5 13q-38 0 -63 -14.5t-40 -38.5 t-21.5 -55t-6.5 -64t7 -64t22.5 -55t41 -38.5t62.5 -14.5q19 0 37.5 2t36.5 10q17 8 34 21.5t31 13.5l16 -33q3 -1 7.5 -10t8.5 -20t7.5 -21t4.5 -12l1 -1q0 -4 -3 -6t-7.5 -4t-9 -4.5t-6.5 -5.5q-45 -24 -85.5 -34t-85.5 -10q-51 0 -92.5 12t-85.5 44zM433 -101 q0 -84 -118 -84q-72 0 -129 35l20 36q45 -23 88 -23q54 0 54 33q0 25 -31 25q-16 0 -29 -7l-36 13l27 108h55l-17 -75q14 7 39 7q77 0 77 -68z" />
<glyph unicode="&#xe8;" horiz-adv-x="697" d="M94 277q0 61 17 113t50.5 90t83 59.5t113.5 21.5q94 0 156.5 -52t82.5 -146q4 -21 5 -59t1 -75h-359q0 -66 32.5 -96.5t99.5 -30.5q38 0 70 10t65 28q0 2 8 5.5t10 3.5l42 -91q2 -3 2.5 -4.5t0.5 -4.5q-20 -14 -41.5 -23.5t-47.5 -18.5q-1 0 -1 -0.5t-1 -0.5q-1 -1 -2 -1 q-29 -6 -57 -10t-57 -4q-66 0 -116.5 20t-85.5 57t-53 90t-18 119zM363 454q-61 0 -90.5 -36.5t-29.5 -93.5h227q0 26 -6 49.5t-19 41.5t-33.5 28.5t-48.5 10.5zM478 569h-116l-143 154h173z" />
<glyph unicode="&#xe9;" horiz-adv-x="697" d="M94 277q0 61 17 113t50.5 90t83 59.5t113.5 21.5q94 0 156.5 -52t82.5 -146q4 -21 5 -59t1 -75h-359q0 -66 32.5 -96.5t99.5 -30.5q38 0 70 10t65 28q0 2 8 5.5t10 3.5l42 -91q2 -3 2.5 -4.5t0.5 -4.5q-20 -14 -41.5 -23.5t-47.5 -18.5q-1 0 -1 -0.5t-1 -0.5q-1 -1 -2 -1 q-29 -6 -57 -10t-57 -4q-66 0 -116.5 20t-85.5 57t-53 90t-18 119zM363 454q-61 0 -90.5 -36.5t-29.5 -93.5h227q0 26 -6 49.5t-19 41.5t-33.5 28.5t-48.5 10.5zM478 723l-144 -154h-115l86 154h173z" />
<glyph unicode="&#xea;" horiz-adv-x="697" d="M94 277q0 61 17 113t50.5 90t83 59.5t113.5 21.5q94 0 156.5 -52t82.5 -146q4 -21 5 -59t1 -75h-359q0 -66 32.5 -96.5t99.5 -30.5q38 0 70 10t65 28q0 2 8 5.5t10 3.5l42 -91q2 -3 2.5 -4.5t0.5 -4.5q-20 -14 -41.5 -23.5t-47.5 -18.5q-1 0 -1 -0.5t-1 -0.5q-1 -1 -2 -1 q-29 -6 -57 -10t-57 -4q-66 0 -116.5 20t-85.5 57t-53 90t-18 119zM363 454q-61 0 -90.5 -36.5t-29.5 -93.5h227q0 26 -6 49.5t-19 41.5t-33.5 28.5t-48.5 10.5zM538 569h-92l-99 72l-99 -72h-90l121 154h139z" />
<glyph unicode="&#xeb;" horiz-adv-x="697" d="M94 277q0 61 17 113t50.5 90t83 59.5t113.5 21.5q94 0 156.5 -52t82.5 -146q4 -21 5 -59t1 -75h-359q0 -66 32.5 -96.5t99.5 -30.5q38 0 70 10t65 28q0 2 8 5.5t10 3.5l42 -91q2 -3 2.5 -4.5t0.5 -4.5q-20 -14 -41.5 -23.5t-47.5 -18.5q-1 0 -1 -0.5t-1 -0.5q-1 -1 -2 -1 q-29 -6 -57 -10t-57 -4q-66 0 -116.5 20t-85.5 57t-53 90t-18 119zM363 454q-61 0 -90.5 -36.5t-29.5 -93.5h227q0 26 -6 49.5t-19 41.5t-33.5 28.5t-48.5 10.5zM532 643q0 -29 -22.5 -51.5t-53.5 -22.5t-54.5 22.5t-23.5 51.5q0 31 23.5 53t54.5 22t53.5 -22t22.5 -53z M319 643q0 -29 -23.5 -51.5t-54.5 -22.5q-30 0 -53.5 22.5t-23.5 51.5q0 31 23 53t54 22q32 0 55 -22t23 -53z" />
<glyph unicode="&#xec;" horiz-adv-x="373" d="M259 549v-549h-142v549h142zM317 569h-116l-143 154h173z" />
<glyph unicode="&#xed;" horiz-adv-x="373" d="M259 549v-549h-142v549h142zM317 723l-144 -154h-115l86 154h173z" />
<glyph unicode="&#xee;" horiz-adv-x="373" d="M259 549v-549h-142v549h142zM378 569h-92l-99 72l-99 -72h-90l121 154h139z" />
<glyph unicode="&#xef;" horiz-adv-x="373" d="M259 549v-549h-142v549h142zM372 643q0 -29 -22.5 -51.5t-53.5 -22.5t-54.5 22.5t-23.5 51.5q0 31 23.5 53t54.5 22t53.5 -22t22.5 -53zM159 643q0 -29 -23.5 -51.5t-54.5 -22.5q-30 0 -53.5 22.5t-23.5 51.5q0 31 23 53t54 22q32 0 55 -22t23 -53z" />
<glyph unicode="&#xf0;" horiz-adv-x="537" d="M146 664h102q33 -24 59 -46l100 46l22 -46l-82 -38q153 -166 153 -344q0 -115 -66.5 -181t-167.5 -66q-120 0 -188 87q-43 58 -43 158q0 119 60 183t153 64q27 0 48 -5.5t51 -21.5q-16 34 -28.5 52t-37.5 45l-130 -57l-21 47l114 49q-46 40 -98 74zM411 240 q0 87 -42.5 132.5t-105.5 45.5q-62 0 -101.5 -45.5t-39.5 -140.5q0 -88 41 -132t103 -44q60 0 102.5 46.5t42.5 137.5z" />
<glyph unicode="&#xf1;" horiz-adv-x="720" d="M244 544l9 -51l2 -4q11 21 29 34t40 20.5t45 10t44 2.5q51 0 86.5 -15t58 -43t32.5 -67.5t10 -88.5v-342h-144v333q0 45 -20 73.5t-69 28.5q-42 0 -70.5 -20t-35.5 -68v-347h-141v544h124zM554 704q0 -63 -31 -100t-83 -37q-46 0 -99 29q-35 19 -52 19q-26 0 -34 -46h-89 q0 64 31.5 101t82.5 37q47 0 100 -29q35 -19 52 -19q25 0 33 45h89z" />
<glyph unicode="&#xf2;" horiz-adv-x="724" d="M94 275q0 133 66.5 208.5t201.5 75.5q35 0 65 -5.5t63 -17.5q14 -5 25.5 -15t25.5 -16q50 -44 69.5 -104.5t19.5 -125.5t-17.5 -117.5t-51.5 -90t-84 -58t-116 -20.5q-68 0 -118 20t-83 57.5t-49.5 90t-16.5 118.5zM241 274q0 -33 4 -64t16.5 -55.5t36.5 -39.5t64 -15 q38 0 61 15.5t35 41t16 57t4 63.5q0 33 -4.5 63.5t-17 53t-36 36t-62.5 13.5q-38 0 -61 -14t-35.5 -37.5t-16.5 -54t-4 -63.5zM491 569h-116l-143 154h173z" />
<glyph unicode="&#xf3;" horiz-adv-x="724" d="M94 275q0 133 66.5 208.5t201.5 75.5q35 0 65 -5.5t63 -17.5q14 -5 25.5 -15t25.5 -16q50 -44 69.5 -104.5t19.5 -125.5t-17.5 -117.5t-51.5 -90t-84 -58t-116 -20.5q-68 0 -118 20t-83 57.5t-49.5 90t-16.5 118.5zM241 274q0 -33 4 -64t16.5 -55.5t36.5 -39.5t64 -15 q38 0 61 15.5t35 41t16 57t4 63.5q0 33 -4.5 63.5t-17 53t-36 36t-62.5 13.5q-38 0 -61 -14t-35.5 -37.5t-16.5 -54t-4 -63.5zM491 723l-144 -154h-115l86 154h173z" />
<glyph unicode="&#xf4;" horiz-adv-x="724" d="M94 275q0 133 66.5 208.5t201.5 75.5q35 0 65 -5.5t63 -17.5q14 -5 25.5 -15t25.5 -16q50 -44 69.5 -104.5t19.5 -125.5t-17.5 -117.5t-51.5 -90t-84 -58t-116 -20.5q-68 0 -118 20t-83 57.5t-49.5 90t-16.5 118.5zM241 274q0 -33 4 -64t16.5 -55.5t36.5 -39.5t64 -15 q38 0 61 15.5t35 41t16 57t4 63.5q0 33 -4.5 63.5t-17 53t-36 36t-62.5 13.5q-38 0 -61 -14t-35.5 -37.5t-16.5 -54t-4 -63.5zM552 569h-92l-99 72l-99 -72h-90l121 154h139z" />
<glyph unicode="&#xf5;" horiz-adv-x="724" d="M94 275q0 133 66.5 208.5t201.5 75.5q35 0 65 -5.5t63 -17.5q14 -5 25.5 -15t25.5 -16q50 -44 69.5 -104.5t19.5 -125.5t-17.5 -117.5t-51.5 -90t-84 -58t-116 -20.5q-68 0 -118 20t-83 57.5t-49.5 90t-16.5 118.5zM241 274q0 -33 4 -64t16.5 -55.5t36.5 -39.5t64 -15 q38 0 61 15.5t35 41t16 57t4 63.5q0 33 -4.5 63.5t-17 53t-36 36t-62.5 13.5q-38 0 -61 -14t-35.5 -37.5t-16.5 -54t-4 -63.5zM556 704q0 -63 -31 -100t-83 -37q-46 0 -99 29q-35 19 -52 19q-26 0 -34 -46h-89q0 64 31.5 101t82.5 37q47 0 100 -29q35 -19 52 -19q25 0 33 45 h89z" />
<glyph unicode="&#xf6;" horiz-adv-x="724" d="M94 275q0 133 66.5 208.5t201.5 75.5q35 0 65 -5.5t63 -17.5q14 -5 25.5 -15t25.5 -16q50 -44 69.5 -104.5t19.5 -125.5t-17.5 -117.5t-51.5 -90t-84 -58t-116 -20.5q-68 0 -118 20t-83 57.5t-49.5 90t-16.5 118.5zM241 274q0 -33 4 -64t16.5 -55.5t36.5 -39.5t64 -15 q38 0 61 15.5t35 41t16 57t4 63.5q0 33 -4.5 63.5t-17 53t-36 36t-62.5 13.5q-38 0 -61 -14t-35.5 -37.5t-16.5 -54t-4 -63.5zM546 643q0 -29 -22.5 -51.5t-53.5 -22.5t-54.5 22.5t-23.5 51.5q0 31 23.5 53t54.5 22t53.5 -22t22.5 -53zM333 643q0 -29 -23.5 -51.5 t-54.5 -22.5q-30 0 -53.5 22.5t-23.5 51.5q0 31 23 53t54 22q32 0 55 -22t23 -53z" />
<glyph unicode="&#xf7;" horiz-adv-x="530" d="M217 417v94h96v-94h-96zM492 290h-456v76h456v-76zM217 145v92h96v-92h-96z" />
<glyph unicode="&#xf8;" horiz-adv-x="724" d="M94 275q0 133 66.5 208.5t201.5 75.5q35 0 65 -5.5t63 -17.5q14 -5 25.5 -15t25.5 -16q50 -44 69.5 -104.5t19.5 -125.5t-17.5 -117.5t-51.5 -90t-84 -58t-116 -20.5q-68 0 -118 20t-83 57.5t-49.5 90t-16.5 118.5zM241 274q0 -33 4 -64t16.5 -55.5t36.5 -39.5t64 -15 q38 0 61 15.5t35 41t16 57t4 63.5q0 33 -4.5 63.5t-17 53t-36 36t-62.5 13.5q-38 0 -61 -14t-35.5 -37.5t-16.5 -54t-4 -63.5zM115.405 -0.379883l371.229 545.979h125.755l-370.224 -545.979h-126.761v0z" />
<glyph unicode="&#xf9;" horiz-adv-x="712" d="M262 550v-349q0 -30 16.5 -56.5t47.5 -31.5q17 0 38 1.5t40 9t31.5 24t12.5 46.5v356h143v-544h-128q-1 7 -2.5 16.5t-3 17.5t-2.5 13.5l-1 5.5q-3 -2 -5 -7q-17 -18 -33 -29.5t-33.5 -18.5t-37 -9.5t-43.5 -2.5q-30 0 -55.5 4t-47 15t-38 30t-26.5 49q-5 14 -9.5 29.5 t-4.5 30.5v400h141zM485 569h-116l-143 154h173z" />
<glyph unicode="&#xfa;" horiz-adv-x="712" d="M262 550v-349q0 -30 16.5 -56.5t47.5 -31.5q17 0 38 1.5t40 9t31.5 24t12.5 46.5v356h143v-544h-128q-1 7 -2.5 16.5t-3 17.5t-2.5 13.5l-1 5.5q-3 -2 -5 -7q-17 -18 -33 -29.5t-33.5 -18.5t-37 -9.5t-43.5 -2.5q-30 0 -55.5 4t-47 15t-38 30t-26.5 49q-5 14 -9.5 29.5 t-4.5 30.5v400h141zM485 723l-144 -154h-115l86 154h173z" />
<glyph unicode="&#xfb;" horiz-adv-x="712" d="M262 550v-349q0 -30 16.5 -56.5t47.5 -31.5q17 0 38 1.5t40 9t31.5 24t12.5 46.5v356h143v-544h-128q-1 7 -2.5 16.5t-3 17.5t-2.5 13.5l-1 5.5q-3 -2 -5 -7q-17 -18 -33 -29.5t-33.5 -18.5t-37 -9.5t-43.5 -2.5q-30 0 -55.5 4t-47 15t-38 30t-26.5 49q-5 14 -9.5 29.5 t-4.5 30.5v400h141zM546 569h-92l-99 72l-99 -72h-90l121 154h139z" />
<glyph unicode="&#xfc;" horiz-adv-x="712" d="M262 550v-349q0 -30 16.5 -56.5t47.5 -31.5q17 0 38 1.5t40 9t31.5 24t12.5 46.5v356h143v-544h-128q-1 7 -2.5 16.5t-3 17.5t-2.5 13.5l-1 5.5q-3 -2 -5 -7q-17 -18 -33 -29.5t-33.5 -18.5t-37 -9.5t-43.5 -2.5q-30 0 -55.5 4t-47 15t-38 30t-26.5 49q-5 14 -9.5 29.5 t-4.5 30.5v400h141zM540 643q0 -29 -22.5 -51.5t-53.5 -22.5t-54.5 22.5t-23.5 51.5q0 31 23.5 53t54.5 22t53.5 -22t22.5 -53zM327 643q0 -29 -23.5 -51.5t-54.5 -22.5q-30 0 -53.5 22.5t-23.5 51.5q0 31 23 53t54 22q32 0 55 -22t23 -53z" />
<glyph unicode="&#xfd;" horiz-adv-x="650" d="M96 -89q12 0 24.5 -1.5t24.5 -1.5q22 0 35.5 2t23.5 8.5t17.5 19t16.5 33.5q4 8 8 18t4 19v5l-196 532h149l126 -386l114 386h153l-195 -535q0 -1 -1 -5.5t-4 -5.5q-20 -48 -35.5 -87.5t-38 -67t-58 -42.5t-95.5 -15h-31q-5 0 -12 0.5t-13.5 1.5t-11.5 2l-5 1v119v0z M454 723l-144 -154h-115l86 154h173z" />
<glyph unicode="&#xfe;" horiz-adv-x="537" d="M63 -185v849h86v-234q35 35 60 47q35 15 78 15q64 0 113 -32t74.5 -89.5t25.5 -126.5q0 -75 -28.5 -133t-80.5 -90t-110 -32q-39 0 -73 15q-24 12 -59 46v-235h-86zM141 238q0 -93 39 -137t95 -44t97 45.5t41 142.5q0 92 -40 137.5t-94 45.5q-56 0 -97 -48.5t-41 -141.5z " />
<glyph unicode="&#xff;" horiz-adv-x="650" d="M96 -89q12 0 24.5 -1.5t24.5 -1.5q22 0 35.5 2t23.5 8.5t17.5 19t16.5 33.5q4 8 8 18t4 19v5l-196 532h149l126 -386l114 386h153l-195 -535q0 -1 -1 -5.5t-4 -5.5q-20 -48 -35.5 -87.5t-38 -67t-58 -42.5t-95.5 -15h-31q-5 0 -12 0.5t-13.5 1.5t-11.5 2l-5 1v119v0z M509 643q0 -29 -22.5 -51.5t-53.5 -22.5t-54.5 22.5t-23.5 51.5q0 31 23.5 53t54.5 22t53.5 -22t22.5 -53zM296 643q0 -29 -23.5 -51.5t-54.5 -22.5q-30 0 -53.5 22.5t-23.5 51.5q0 31 23 53t54 22q32 0 55 -22t23 -53z" />
<glyph unicode="&#x152;" horiz-adv-x="1044" d="M985 0h-466v60q-54 -71 -166 -71q-139 0 -221 97q-80 94 -80 249t81 250.5t220 95.5q110 0 166 -71v60h452v-131h-333v-116h189v-130h-189v-162h347v-131zM511 335q0 96 -37 151q-41 61 -121 61t-121 -61q-37 -55 -37 -151t37 -151q41 -61 121 -61t121 61q37 55 37 151z " />
<glyph unicode="&#x153;" horiz-adv-x="851" d="M808 251q0 -23 -2 -42h-310q3 -48 36 -73q29 -22 70 -22q58 0 90 35l96 -78q-30 -38 -81 -60t-105 -22q-110 0 -170 72q-50 -72 -158 -72q-102 0 -168 73.5t-66 188.5t66 188.5t168 73.5q107 0 159 -74q62 74 157 74q101 0 161 -78q57 -72 57 -184zM676 308q-3 38 -25 62 q-26 28 -68 28q-36 0 -58.5 -25.5t-26.5 -64.5h178zM371 251q0 60 -24.5 97.5t-72.5 37.5q-47 0 -71.5 -37t-24.5 -98t24 -96q25 -38 72 -38t73 41q24 36 24 93z" />
<glyph unicode="&#x178;" horiz-adv-x="679" d="M199 670l5.5 -10.5t21 -40.5t43 -84.5t71.5 -143.5l147 279h159q-57 -104 -115 -207t-120 -205v-258h-144v256q-55 91 -115 199.5t-119 214.5h166zM523 778q0 -29 -22.5 -51.5t-53.5 -22.5t-54.5 22.5t-23.5 51.5q0 31 23.5 53t54.5 22t53.5 -22t22.5 -53zM310 778 q0 -29 -23.5 -51.5t-54.5 -22.5q-30 0 -53.5 22.5t-23.5 51.5q0 31 23 53t54 22q32 0 55 -22t23 -53z" />
<glyph unicode="&#x2c6;" d="M437 569h-92l-99 72l-99 -72h-90l121 154h139z" />
<glyph unicode="&#x2dc;" d="M444 704q0 -63 -31 -100t-83 -37q-46 0 -99 29q-35 19 -52 19q-26 0 -34 -46h-89q0 64 31.5 101t82.5 37q47 0 100 -29q35 -19 52 -19q25 0 33 45h89z" />
<glyph unicode="&#x2013;" d="M448 286h-394v123h394v-123z" />
<glyph unicode="&#x2014;" horiz-adv-x="613" d="M559 286h-505v123h505v-123z" />
<glyph unicode="&#x2018;" horiz-adv-x="278" d="M218 670l-14 -269h-161l81 269h94z" />
<glyph unicode="&#x2019;" horiz-adv-x="278" d="M235 670l-81 -269h-94l14 269h161z" />
<glyph unicode="&#x201a;" horiz-adv-x="278" d="M235 162l-81 -269h-94l14 269h161z" />
<glyph unicode="&#x201c;" horiz-adv-x="536" d="M476 670l-14 -269h-161l81 269h94zM218 670l-14 -269h-161l81 269h94z" />
<glyph unicode="&#x201d;" horiz-adv-x="536" d="M494 670l-81 -269h-94l13 269h162zM235 670l-81 -269h-94l14 269h161z" />
<glyph unicode="&#x201e;" horiz-adv-x="536" d="M494 162l-81 -269h-94l13 269h162zM235 162l-81 -269h-94l14 269h161z" />
<glyph unicode="&#x2022;" horiz-adv-x="485" d="M420 350q0 -72 -51 -122t-127 -50q-75 0 -126.5 50t-51.5 122q0 73 51.5 124t126.5 51q76 0 127 -51t51 -124z" />
<glyph unicode="&#x2026;" horiz-adv-x="807" d="M766 79q0 -36 -28 -63t-65 -27q-38 0 -65.5 27t-27.5 63q0 37 27.5 63.5t65.5 26.5q37 0 65 -26.5t28 -63.5zM497 79q0 -36 -28 -63t-65 -27q-38 0 -65.5 27t-27.5 63q0 37 27.5 63.5t65.5 26.5q37 0 65 -26.5t28 -63.5zM228 79q0 -36 -28 -63t-65 -27q-38 0 -65.5 27 t-27.5 63q0 37 27.5 63.5t65.5 26.5q37 0 65 -26.5t28 -63.5z" />
<glyph unicode="&#x2039;" horiz-adv-x="372" d="M332 0h-141l-161 251l161 251h141l-156 -250z" />
<glyph unicode="&#x203a;" horiz-adv-x="372" d="M342 252l-161 -252h-141l156 251l-156 251h141z" />
<glyph unicode="&#x20ac;" horiz-adv-x="537" d="M374 601q-81 0 -134 -37q-32 -22 -58 -63q-27 -40 -33 -78h324l-14 -60h-315q-3 -10 -3 -18q0 -35 3 -42h303l-13 -60h-281q21 -104 95 -148q56 -32 118 -32q89 0 137 45v-93q-58 -26 -129 -26q-215 0 -289 170q-15 34 -25 84h-74l14 60h50q-2 19 -2 41v19h-62l14 60h54 q29 148 154 212q75 40 167 40q88 0 147 -36l-19 -85q-56 47 -129 47z" />
<glyph unicode="&#x2122;" horiz-adv-x="821" d="M781 293h-88v187q0 6 0.5 20.5t0.5 21.5q-1 -6 -17 -37l-102 -204l-100 204q-4 9 -17 36q2 -27 2 -41v-187h-88v377h93l84 -163q12 -23 28 -62q6 18 27 62l83 163h94v-377zM307 592h-97v-299h-94v299h-97v78h288v-78z" />
<glyph unicode="&#x25fc;" horiz-adv-x="545" d="M0 545h545v-545h-545v545z" />
</font>
</defs>
</svg>
