<?xml version="1.0" standalone="no"?>
<!DOCTYPE svg PUBLIC "-//W3C//DTD SVG 1.1//EN" "http://www.w3.org/Graphics/SVG/1.1/DTD/svg11.dtd" >
<svg xmlns="http://www.w3.org/2000/svg" xmlns:xlink="http://www.w3.org/1999/xlink" version="1.1">
<metadata></metadata>
<defs>
<font id="roadgeek_2005_series_4wRg" horiz-adv-x="495" >
<font-face units-per-em="1000" ascent="800" descent="-200" />
<missing-glyph horiz-adv-x="240" />
<glyph horiz-adv-x="0" />
<glyph horiz-adv-x="333" />
<glyph d="M432 723q-10 -73 -59 -113.5t-127 -40.5t-125.5 40.5t-58.5 113.5h83q19 -63 103 -63q85 0 104 63h80z" />
<glyph d="M324 643q0 -29 -23 -51.5t-54 -22.5t-54.5 22.5t-23.5 51.5q0 31 23.5 53t54.5 22t54 -22t23 -53z" />
<glyph d="M381 697q0 -56 -38 -92t-96 -36q-57 0 -95 36t-38 92q0 55 38 92t95 37q58 0 96 -37t38 -92zM306 697q0 24 -17 40.5t-42 16.5q-24 0 -41 -16.5t-17 -40.5t17 -41t41 -17q25 0 42 17t17 41z" />
<glyph unicode="&#xa;" d="M509 723l-144 -154h-116l86 154h174zM291 723l-144 -154h-115l86 154h173z" />
<glyph d="M375 -140q-61 -45 -125 -45q-99 0 -99 80q0 56 76 105h59q-51 -56 -51 -95q0 -29 35 -29q37 0 79 23z" />
<glyph d="M437 723l-120 -154h-139l-121 154h92l99 -72l99 72h90z" />
<glyph unicode="&#xd;" horiz-adv-x="355" d="M238 547v-547h-119v547h119z" />
<glyph horiz-adv-x="565" d="M400 788h105l-341 -817h-104z" />
<glyph horiz-adv-x="766" d="M61 441v98h72q0 4 0.5 16t1 25t1 24.5t0.5 16.5q1 36 15.5 58t37 33.5t51 15t58.5 3.5h29t30 -5v-86h-70q-14 0 -24.5 -12t-10.5 -25v-64h100v-98h-101v-441h-116v441h-74zM649 547v-547h-119v547h119zM516 684q0 35 20 50t54 15q33 0 52 -15.5t19 -49.5q0 -35 -19 -50 t-54 -15q-33 0 -52.5 14.5t-19.5 50.5z" />
<glyph horiz-adv-x="794" d="M61 441v98h72q0 4 0.5 16t1 25t1 24.5t0.5 16.5q1 36 15.5 58t37 33.5t51 15t58.5 3.5h29t30 -5v-86h-70q-14 0 -24.5 -12t-10.5 -25v-64h100v-98h-101v-441h-116v441h-74zM582 2q-3 4 -10 6.5t-9 4.5q-14 12 -23.5 30.5t-9.5 37.5v646h118v-600q0 -9 7 -17.5t17 -10.5 l56 -4v-93q0 -2 -10.5 -3.5t-15.5 -1.5h-97l-23 5v0z" />
<glyph horiz-adv-x="539" d="M120 670h120v-569h239v-101h-359v670v0zM366.566 670.718h113.023l-367.058 -373.993h-111.947z" />
<glyph horiz-adv-x="383" d="M171 2q-3 4 -10 6.5t-9 4.5q-14 12 -23.5 30.5t-9.5 37.5v646h118v-600q0 -9 7 -17.5t17 -10.5l56 -4v-93q0 -2 -10.5 -3.5t-15.5 -1.5h-97l-23 5v0zM294.166 724.882h90.6064l-294.255 -426.003h-89.7422z" />
<glyph horiz-adv-x="574" d="M353 566h-269v104h416v-98l-291 -471h298v-101h-440v98zM477 856l-120 -154h-139l-121 154h92l99 -72l99 72h90z" />
<glyph horiz-adv-x="523" d="M294 439h-221v105h379v-100q-1 -1 -3 -4l-9 -13.5t-20.5 -32t-38 -59t-61.5 -93.5t-91 -136h226v-106h-387v95zM451 723l-120 -154h-139l-121 154h92l99 -72l99 72h90z" />
<glyph unicode=" "  horiz-adv-x="240" />
<glyph unicode="&#x09;" horiz-adv-x="240" />
<glyph unicode="&#xa0;" horiz-adv-x="240" />
<glyph unicode="!" horiz-adv-x="368" d="M107 54q0 12 3.5 21t8.5 20q19 14 31 19t35 5q30 0 53 -15.5t23 -49.5q0 -35 -23 -50.5t-55 -15.5t-54 15.5t-22 50.5zM119 670h134l-20 -475h-98z" />
<glyph unicode="&#x22;" horiz-adv-x="581" d="M138 682h133q-5 -15 -16.5 -43.5t-25 -60.5t-27 -64.5t-20.5 -54.5h-79zM346 682h132v-2q-3 -3 -9.5 -21t-15.5 -42.5t-19 -52t-19.5 -51t-17 -39t-10.5 -15.5h-78z" />
<glyph unicode="#" horiz-adv-x="722" d="M191 245h-103l12 88h101l17 128h-106l14 89h103l19 122h92l-14 -121h115l20 121h92l-16 -122h97l-14 -89h-95l-18 -128h101l-13 -88h-103l-19 -127h-95l18 126h-112l-17 -126h-94zM312 460l-14 -126h111q5 36 8.5 58t6 35.5t3.5 20t1 12.5h-116z" />
<glyph unicode="$" horiz-adv-x="573" d="M235 32q-20 3 -43 7.5t-45 11t-41 16t-31 21.5q2 -2 0 1t3 8q5 12 11 26t12 27t10 22l4 9q0 2 1.5 0t5.5 -2q38 -24 76 -40t85 -16q19 0 37.5 3t32 11t22 22.5t8.5 37.5q0 28 -21 48.5t-51.5 37.5t-65.5 31.5t-63 29.5q-44 23 -69.5 58.5t-25.5 86.5q0 73 39.5 110.5 t108.5 49.5v74h111v-74q38 -7 69 -15t60 -25v-2q-2 -6 -6.5 -21t-10.5 -31.5t-11.5 -29t-9.5 -12.5q-19 10 -35.5 18t-33 13.5t-34 8.5t-38.5 3q-16 0 -32.5 -2.5t-29.5 -9.5t-21 -18.5t-8 -30.5q0 -18 8.5 -30t21.5 -20.5t27.5 -14.5t26.5 -12q39 -20 76.5 -36.5t67.5 -39 t48 -55t18 -82.5q0 -40 -10.5 -69t-30 -49.5t-48 -33.5t-64.5 -21v-79h-111v79v0z" />
<glyph unicode="%" horiz-adv-x="886" d="M418 484q0 -65 -36 -111q-40 -53 -110 -53q-69 0 -110 52q-35 46 -35 112q0 65 35 111q41 53 110 53q70 0 110 -52q36 -46 36 -112zM744 648l-478 -656h-89l478 656h89zM795 156q0 -65 -35 -111q-41 -53 -110 -53q-70 0 -111 52q-35 46 -35 112q0 65 35 111q41 53 111 53 q69 0 110 -52q35 -46 35 -112zM334 484q0 42 -10 64q-15 33 -52 33q-35 0 -48.5 -28t-13.5 -69q0 -42 10 -64q15 -33 52 -33q36 0 51 32q11 24 11 65zM712 156q0 42 -11 64q-15 33 -51 33t-49.5 -28t-13.5 -69q0 -42 11 -64q15 -33 52 -33q35 0 50 32q12 24 12 65z" />
<glyph unicode="&#x26;" horiz-adv-x="679" d="M222 2q-15 9 -31 14.5t-32 17.5q-40 29 -56 73t-16 92q0 57 22 101.5t78 64.5v2q-14 8 -27 17t-24 22q-2 2 -6.5 9t-9.5 16.5t-8.5 20t-3.5 20.5v67q0 27 18 55.5t38 44.5q32 26 71 34t79 8q13 0 38.5 -2t46.5 -7q2 -2 9.5 -4.5t15 -5.5t13.5 -5.5t6 -3.5l-18 -65 q-2 -8 -5 -13q-2 -5 -4.5 -9t-4.5 -4q-6 6 -17 10t-23 6.5t-24.5 3.5t-21.5 1q-45 0 -73 -19t-28 -67q0 -42 28 -63t66 -21h115v82h111v-83h81v-100h-78v-120q-1 -1 -3 -9t-4 -18.5t-4.5 -21t-3.5 -16.5q-10 -38 -31 -64t-49.5 -42t-62.5 -23.5t-70 -7.5q-25 0 -48.5 3.5 t-48.5 8.5zM203 208q0 -58 28 -89.5t88 -31.5q53 0 81.5 26t28.5 79v119h-137q-48 0 -68.5 -30t-20.5 -73z" />
<glyph unicode="'" horiz-adv-x="311" d="M112 682h128l-83 -235l-2 -2h-77z" />
<glyph unicode="(" horiz-adv-x="344" d="M124 1q-45 162 -45 331q0 48 3 95.5t11 94.5q3 15 8 38.5t10 46t8.5 39t4.5 18.5l2 5l37 111l5 10h1h1q20 -5 39.5 -10.5t39.5 -10.5q2 -2 2 -3v-1v-1l-39 -172q-2 -11 -2.5 -22t-4.5 -22l-12 -126v-181l12 -128q2 -7 3 -16t2 -15q9 -48 19.5 -92.5t21.5 -90.5v-2v-1 l-79 -23h-2q-3 0 -3 0.5t-2 4.5t-4.5 11.5t-5.5 15.5t-5.5 14t-2.5 8q-7 18 -9.5 37.5t-13.5 36.5z" />
<glyph unicode=")" horiz-adv-x="342" d="M92 -94q3 11 7 26t8 28.5t6.5 23t2.5 10.5l23 121l14 193v25q0 3 -0.5 26t-1.5 50.5t-2.5 52t-2.5 30.5l-30 182q-1 1 -3.5 11.5t-6 24t-7.5 28.5t-7 26q0 6 11 9.5t24.5 6.5t26 6t15.5 6h7q29 -78 49.5 -158t31.5 -163q5 -37 5.5 -69t0.5 -69q0 -104 -17 -203.5 t-49 -197.5q-3 -5 -5.5 -14l-5 -18t-6 -15.5t-7.5 -6.5q-10 0 -24 3.5t-26.5 7.5t-21.5 7.5t-9 2.5v7v0z" />
<glyph unicode="*" horiz-adv-x="474" d="M113 453q15 20 35 37.5t37 35.5l-105 12l28 86q1 2 3 2h4l79 -40q2 0 5 -1t5 -1v7l-19 91h103l-18 -99l89 43q4 0 9 -9.5t9.5 -23t9 -27.5t7.5 -24q0 -4 -2 -4l-100 -12q17 -18 36 -34t34 -36q0 -5 -3 -7l-67 -46q-1 -1 -2.5 -1.5t-2.5 -1.5q1 0 -1.5 -0.5t-2.5 3.5 l-44 86l-3 -3q-1 -1 -4 -7.5t-6.5 -14t-6.5 -13.5t-4 -6l-23 -47q-6 0 -5.5 0.5t-3.5 4.5q-6 4 -17.5 11t-23 14.5t-20.5 14.5t-9 10z" />
<glyph unicode="+" horiz-adv-x="579" d="M236 289h-162v105h162v155h107v-155h162v-105h-162v-166h-107v166v0z" />
<glyph unicode="," horiz-adv-x="311" d="M112 105h128l-83 -235l-2 -2h-77z" />
<glyph unicode="-" horiz-adv-x="474" d="M117 435h240v-114h-240v114v0z" />
<glyph unicode="." horiz-adv-x="332" d="M90 55q0 35 21.5 51.5t54.5 16.5q30 0 53 -16.5t23 -49.5t-22.5 -51t-54.5 -18t-53.5 17.5t-21.5 49.5z" />
<glyph unicode="/" horiz-adv-x="565" d="M400 788h105l-341 -817h-104z" />
<glyph unicode="0" horiz-adv-x="703" d="M157 77q-20 34 -32.5 64t-19 61t-9 64t-2.5 72q0 64 11.5 126t40 110.5t78 78t126.5 29.5q39 0 72.5 -9.5t69.5 -29.5q37 -23 59.5 -59t35.5 -78t17.5 -86t4.5 -83q0 -64 -12 -126t-41.5 -111.5t-79.5 -80t-126 -30.5q-48 0 -92 14t-78 49q-5 3 -14 14q-4 5 -9 11z M239 166q3 -2 4 -6.5t3 -7.5q21 -34 43 -47.5t61 -13.5q49 0 75.5 25t39.5 62t15.5 80.5t2.5 79.5q0 34 -3 76.5t-16 80t-40 62.5t-74 25q-48 0 -75 -25.5t-40.5 -63.5t-16.5 -81t-3 -78q0 -43 4.5 -85t19.5 -83z" />
<glyph unicode="1" horiz-adv-x="472" d="M215 503q3 3 -10.5 -10t-33 -30.5t-38.5 -32t-27 -14.5q-17 20 -29 43.5t-25 45.5q-2 3 -2.5 4t-0.5 3t3 4q32 28 64 54t64 53q14 11 30 23t28 26h107v-672h-128v503h-2z" />
<glyph unicode="2" horiz-adv-x="591" d="M62 113q0 2 5 8t13 14t17.5 17t18.5 18l4 2l140 135q14 13 32 33.5t34 44.5t27.5 51t11.5 54q0 36 -22.5 58t-58.5 22q-38 0 -69 -18t-60 -43q-1 -4 -8 -10t-11 -6q-2 0 -8 7.5t-13 17t-13 18.5t-9 13q-8 8 -17 19.5t-9 17.5q0 4 2 7q42 35 85 58t104 31q53 0 97.5 -8 t76 -29t49 -58t17.5 -95q0 -20 -2 -37.5t-8 -35.5q0 -1 -1 -2.5t-1 -2.5q-18 -48 -48.5 -89t-67.5 -77t-77 -68.5t-79 -64.5h288v-115h-423q-5 28 -11 56.5t-6 56.5z" />
<glyph unicode="3" horiz-adv-x="595" d="M55 55q0 5 2.5 10t4.5 10l45 79h2q37 -22 72.5 -37.5t78.5 -15.5q52 0 82 24.5t30 77.5q0 16 -4 32.5t-13 30t-24.5 22.5t-37.5 9h-103v108q24 0 52.5 1t53.5 9t42 25t17 50q0 32 -18 53t-49 28q-44 0 -73.5 -7.5t-63.5 -25.5q-7 -4 -16 -12.5t-16 -8.5q-15 22 -27 40 q-11 16 -19.5 30.5t-10.5 20.5v4q88 70 218 70q38 0 75 -9t66 -30.5t47 -57t18 -87.5q0 -40 -9.5 -66.5t-41.5 -53.5q-5 -5 -14.5 -10t-9.5 -7q1 -1 6 -4t11.5 -6.5l13 -7t9.5 -5.5q16 -12 26.5 -27.5t16.5 -33.5t8.5 -37.5t2.5 -38.5q0 -56 -18 -96t-50.5 -65.5t-76.5 -38 t-95 -12.5t-95 11.5t-89 35.5q-6 3 -14 7.5t-12 11.5z" />
<glyph unicode="4" horiz-adv-x="627" d="M86 136l-3 4q-1 4 -5.5 17.5l-9.5 28.5t-9 29t-4 21q0 5 2.5 11.5t7.5 8.5l69 107l140 216q7 14 12.5 22t11.5 16.5t14.5 20.5t21.5 34h141v-422h90v-114h-90v-136h-135v136h-254zM241 340q0 -1 0.5 -1t0.5 -1l-1 -1q-11 -23 -25.5 -43t-25.5 -43h154q0 32 0.5 58.5 t0.5 55.5t0.5 64t0.5 85l-37 -60q0 -2 -1 -4t-1 -3q-16 -27 -32.5 -54t-33.5 -53z" />
<glyph unicode="5" horiz-adv-x="605" d="M162 3q-4 3 -18 8t-29 12.5t-27 15.5t-12 17l33 61q3 2 5.5 7t4.5 10.5t5 10t7 4.5q32 -23 64 -36t71 -13q63 0 91.5 36t28.5 96q0 54 -26.5 89t-83.5 35q-33 0 -60 -15t-47 -41h-7q-2 4 -16 13t-29.5 19.5t-27 20.5t-8.5 17l28 184q0 -5 2 7t5 31.5t6.5 40.5l5.5 33l2 4 h346v-113h-241l-24 -131q1 0 2.5 1t2.5 1q26 16 49 23.5t54 7.5q51 0 88 -17.5t61 -47.5t36 -71.5t12 -89.5q0 -81 -31 -138.5t-106 -89.5q-13 -5 -28.5 -9.5t-29.5 -4.5h-96q-2 0 -8.5 1t-16 2.5t-20 3.5t-18.5 5z" />
<glyph unicode="6" horiz-adv-x="643" d="M172 41q-26 26 -42 58t-25 67.5t-12 72t-3 71.5q0 69 11 135t40.5 117.5t81.5 83.5t133 32q43 0 77.5 -9t73.5 -26l8 -4t6 -8q-5 -14 -12 -24.5t-12 -21.5q-2 -8 -6.5 -16.5t-9 -15.5t-7.5 -12t-2 -5h-2q-26 15 -52.5 24t-57.5 9q-41 0 -67.5 -16t-42 -42.5t-21.5 -60.5 t-6 -70q20 34 56.5 47.5t73.5 13.5q51 0 89.5 -16t64.5 -45t39.5 -70t13.5 -91q0 -30 -6 -61t-19.5 -58.5t-34 -50t-49.5 -36.5q-20 -10 -40.5 -18t-41.5 -8h-76q-18 0 -39 7.5t-39 16.5t-30.5 18t-12.5 12zM230 216q0 -25 6 -46.5t18 -38t31.5 -26t46.5 -9.5 q38 0 57.5 15.5t35.5 49.5v3q4 4 6.5 12.5t3 17.5t0.5 16v10q0 15 -4.5 34.5t-13.5 36.5t-23.5 28.5t-33.5 11.5h-53q-5 0 -15 -4.5t-13 -6.5q-28 -17 -38.5 -45t-10.5 -59z" />
<glyph unicode="7" horiz-adv-x="578" d="M63 555v113h433l19 -109l-59 -59q-9 -15 -22 -27.5t-24 -28.5q-18 -26 -32.5 -56t-25 -60t-16 -58.5t-5.5 -50.5l-9 -219h-137q0 57 2.5 111.5t10.5 108t23.5 105.5t41.5 103q19 36 45.5 67t54.5 60h-300z" />
<glyph unicode="8" horiz-adv-x="667" d="M228 -1q-12 7 -25.5 11t-25.5 12q-46 29 -64 74.5t-18 97.5q0 54 21 97t77 64v2q-20 13 -36.5 25.5t-28.5 34.5q-14 23 -15.5 44t-1.5 38q0 50 17 84.5t47 55.5t70.5 30t87.5 9q45 0 85.5 -9.5t71 -30.5t48.5 -55.5t18 -83.5q0 -60 -24.5 -92.5t-59.5 -49.5 q5 -8 18.5 -13t21.5 -10q35 -24 47.5 -61.5t12.5 -78.5q0 -29 -4.5 -57.5t-18.5 -54.5q-11 -20 -31 -37.5t-44 -30.5t-49 -20t-46 -7h-45.5t-36.5 1t-33.5 3.5t-35.5 7.5zM228 191q0 -53 25.5 -76.5t79.5 -23.5h26t25 5q32 13 44 38.5t12 57.5q0 20 -4.5 39t-16.5 33.5 t-32.5 23.5t-51.5 9q-54 0 -80.5 -24t-26.5 -82zM242 490q0 -45 24 -67t67 -22q48 0 69.5 22t21.5 68q0 45 -22 63.5t-67 18.5q-42 0 -67.5 -18t-25.5 -65z" />
<glyph unicode="9" horiz-adv-x="563" d="M159 0q-6 3 -16.5 8t-21.5 10t-19 10.5t-8 9.5q0 3 7 16t15.5 28t16 27t9.5 12q-1 0 3.5 -2t6.5 -3q27 -15 49.5 -23t54.5 -8q46 0 74 19.5t43 51t19.5 70t4.5 76.5q-21 -42 -58.5 -58.5t-81.5 -16.5q-56 0 -94.5 20t-63.5 52t-36 70.5t-11 76.5q0 36 8.5 71t26.5 67l2 2 q2 2 3 2q0 1 4.5 6t11 11.5l13.5 13.5l13 13q28 27 67.5 37t77.5 10q68 0 119.5 -30t77.5 -93q3 -11 7.5 -26t8.5 -29l7 -24.5t5 -11.5q3 -42 5 -80.5t2 -73.5q-1 -9 -2.5 -25.5l-3 -33t-2.5 -28.5t-2 -13q-17 -72 -42 -116t-56 -67.5t-68 -31.5t-79 -8q-29 0 -48.5 2.5 t-48.5 9.5zM171 449q0 -54 24.5 -88t80.5 -34q73 0 100 70q2 8 3 15.5t4 15.5q0 30 -4 57.5t-16 48t-33 33t-55 12.5q-29 0 -48.5 -11t-32 -29t-18 -41.5t-5.5 -48.5z" />
<glyph unicode=":" horiz-adv-x="325" d="M88 58q0 32 22.5 49t52.5 17t52 -17t22 -49t-21.5 -50.5t-52.5 -18.5t-53 18.5t-22 50.5zM88 408q0 32 22.5 48.5t52.5 16.5t52 -16t22 -49q0 -34 -21 -52t-53 -18t-53.5 19t-21.5 51z" />
<glyph unicode=";" horiz-adv-x="311" d="M112 105h128l-83 -235l-2 -2h-77zM112 408q0 32 22.5 48.5t52.5 16.5t52 -16t22 -49q0 -34 -21 -52t-53 -18t-53.5 19t-21.5 51z" />
<glyph unicode="&#x3c;" horiz-adv-x="445" d="M384 27l-328 257v90l328 258v-165l-185 -137l185 -138v-165z" />
<glyph unicode="=" horiz-adv-x="580" d="M100 372h380v-100h-380v100v0zM100 567h380v-100h-380v100v0z" />
<glyph unicode="&#x3e;" horiz-adv-x="445" d="M389 284l-328 -257v164l185 137l-185 138v166l328 -258v-90z" />
<glyph unicode="?" horiz-adv-x="556" d="M193 1q-2 5 -7 9.5t-7 6.5q-8 8 -10 18.5t-2 20.5q0 32 22.5 50t53.5 18q29 0 52 -17.5t23 -50.5t-22.5 -50t-52.5 -17q-15 0 -25.5 2.5t-24.5 9.5zM328 410q35 32 35 79q0 44 -27.5 67.5t-69.5 23.5q-23 0 -47.5 -5t-44.5 -18q-3 -2 -9.5 -7t-13.5 -10t-11.5 -8.5 l-4.5 -3.5q-2 0 -8.5 11t-14.5 25t-15.5 27.5t-10.5 18.5q-1 1 -1.5 2.5t-1.5 2.5q23 16 41.5 27t37 18.5t38 12t44.5 7.5q52 0 95 -7.5t74 -28t48.5 -56t17.5 -90.5q0 -47 -11.5 -77.5t-32.5 -53t-50 -40t-64 -38.5q-5 -5 -11.5 -11t-6.5 -8v-88h-113v102q0 25 14 43 t35 32.5t45 26t44 24.5z" />
<glyph unicode="@" horiz-adv-x="833" d="M107 209q-5 32 -8.5 60.5t-3.5 60.5q0 48 9.5 96t35.5 92q48 85 129 126.5t179 41.5q44 0 87 -9.5t81 -32.5q66 -41 94 -106.5t28 -140.5q0 -33 -5 -67t-17.5 -65t-33.5 -57t-52 -43q-8 -5 -18.5 -9.5t-20.5 -4.5h-47q-22 0 -36 17t-20 36h-2q-20 -26 -46 -38.5 t-62 -12.5t-59.5 13.5t-37.5 35.5t-19.5 49.5t-5.5 55.5q0 13 0.5 29t3 32.5t6.5 31.5t11 25q13 22 26.5 40t30 30.5t37.5 19t48 6.5q12 0 28.5 -2t27.5 -10q3 -3 6.5 -7l7 -8t6 -7t3.5 -3q2 5 3 13t1 12l3 2h85l-32 -265q-2 -17 6 -25t22 -8q27 0 45 22t28 52t14 61t4 49 q0 107 -59.5 169t-168.5 62q-50 0 -90.5 -11.5t-86.5 -39.5q-34 -27 -55.5 -57t-33.5 -64.5t-16 -73t-4 -83.5q0 -61 19.5 -108.5t53 -80t80 -49.5t100.5 -17q33 0 64 6.5t62 18.5l7 3.5l7 3.5t8.5 6.5t14 10.5t14.5 9.5t11 4.5q0 1 1.5 0t1.5 -3l26 -42v-3 q0 -4 -10.5 -12.5t-24 -16.5t-27 -14.5t-20.5 -6.5q-35 -11 -68 -16t-68 -5t-63.5 3.5t-55 12.5t-51.5 23t-52 35q-29 22 -46 55t-31 66q0 8 -4.5 16.5t-4.5 9.5zM344 303q0 -16 2 -30t8.5 -24.5t18 -17t29.5 -6.5q31 0 47 16t23.5 40t9.5 51.5t4 50.5q0 34 -12.5 50 t-44.5 16q-28 0 -44.5 -15t-25.5 -37t-12 -47.5t-3 -46.5z" />
<glyph unicode="A" horiz-adv-x="681" d="M266 672h144l224 -670v-2h-131l-2 2l-49 149h-228l-49 -151h-128zM250 258h177l-89 298z" />
<glyph unicode="B" horiz-adv-x="679" d="M163 672q39 2 81.5 5t83.5 3q48 0 85 -7t69 -19q53 -20 73 -64t20 -95t-20 -86.5t-71 -52.5q0 1 8 -4t16 -5q25 -10 42.5 -26.5t28 -37.5t15 -46t4.5 -50q0 -91 -48.5 -139t-139.5 -48h-289v665q0 1 5.5 2t13 2t14.5 2t9 1zM245 93h142q22 0 38.5 8.5t27.5 23t16.5 32.5 t5.5 38q0 47 -27 76t-75 29h-128v-207zM245 393q8 -2 17.5 -2h18.5q33 0 64 0.5t55 8.5t39 27.5t15 58.5q0 30 -10.5 49t-28 29.5t-41 14t-50.5 3.5q-5 0 -16 -1t-24 -1.5t-24 -1.5t-15 -1v-184v0z" />
<glyph unicode="C" horiz-adv-x="669" d="M100 245q0 3 -1 11t-1.5 17t-1.5 17t-1 11q0 75 14 144t47.5 121.5t89 84t138.5 31.5q54 0 97.5 -16t86.5 -49q1 -1 6.5 -5.5t12 -10t11.5 -11t5 -7.5q-7 -8 -17.5 -21t-21 -25.5t-20 -23t-14.5 -12.5q-16 16 -31.5 30t-33 24.5t-36.5 16.5t-42 6q-50 0 -81.5 -22.5 t-49.5 -58t-24.5 -78.5t-6.5 -83t7 -83t25.5 -78.5t50 -58.5t81.5 -23q45 0 82 22t66 55q3 3 5 3l10.5 -11.5t22.5 -26.5t22.5 -29.5t10.5 -19.5q0 -2 -7 -8t-16 -13.5t-18 -14.5t-13 -10q-44 -29 -84 -40t-87 -11q-97 0 -164 45.5t-100 135.5q-7 18 -9 38t-10 37z" />
<glyph unicode="D" horiz-adv-x="718" d="M140 668q63 4 119 5.5t107 1.5l46 -7q8 -6 18.5 -7t18.5 -5q24 -11 44 -22.5t40 -28.5q28 -24 45.5 -56t27.5 -67.5t14 -73t4 -71.5q0 -51 -7.5 -105t-34.5 -99q-4 -7 -12 -16.5t-16.5 -19t-14.5 -18t-6 -12.5q-17 -14 -39.5 -26.5t-45.5 -22t-44 -14.5t-34 -4h-249v663 q2 2 8 2.5t11 2.5zM254 98q2 0 14.5 -0.5t18.5 -0.5q67 0 108.5 19t64 52t30.5 77.5t8 94.5q0 46 -7.5 89t-26.5 76t-53 52.5t-86 19.5q-22 0 -39.5 -0.5t-43.5 -1.5v-475z" />
<glyph unicode="E" horiz-adv-x="600" d="M504 668v-104h-260v-165h235v-105h-235v-193h269v-101h-393v668h384z" />
<glyph unicode="F" horiz-adv-x="590" d="M122 668h380v-104h-254v-167h230v-107h-231v-290h-125v668v0z" />
<glyph unicode="G" horiz-adv-x="730" d="M114 182q-7 24 -13 52t-6 46v111q0 14 6.5 40.5t12.5 50.5q0 1 1 2.5t1 2.5q17 44 41.5 83t65.5 66q15 10 35.5 21t29.5 11q5 5 17 8t26.5 4.5t28 1.5h21.5q28 0 57 -5t53 -16q28 -14 54.5 -30t47.5 -39v-3q-1 -4 -11.5 -17t-23.5 -27q-15 -17 -35 -37q-31 28 -63.5 49 t-75.5 21q-49 0 -80.5 -23t-50 -59t-25.5 -79t-7 -83q0 -42 6 -86t24 -80t49.5 -59t82.5 -23q41 0 67 15t41 39.5t21 57.5t6 69h-134v101h250q0 -42 -1 -86.5t-8.5 -87.5t-25 -81.5t-50.5 -69.5q-24 -23 -59 -38.5t-67 -15.5h-83q-24 0 -52 9.5t-54 25.5t-47.5 36t-33.5 41 l-12.5 25t-11.5 25t-9 20.5t-6 10.5z" />
<glyph unicode="H" horiz-adv-x="720" d="M240 670v-256h235v256h125v-670h-125v295h-235v-295h-120v670h120z" />
<glyph unicode="I" horiz-adv-x="363" d="M121 670h121v-670h-121v670v0z" />
<glyph unicode="J" horiz-adv-x="507" d="M54 38q9 22 21 44.5t26 42.5q5 0 9 -2q21 -15 39.5 -23t44.5 -8q19 0 32.5 7t21.5 17.5t11.5 22.5t3.5 23v508h122v-510q0 -27 -8.5 -57.5t-26 -56t-42.5 -42t-58 -16.5h-86q-10 0 -24.5 3.5t-28.5 8.5t-26.5 12t-18.5 13l-12 12v1v0z" />
<glyph unicode="K" horiz-adv-x="652" d="M240 670v-295l199 295h147q-39 -56 -68 -98.5t-50.5 -74t-36 -53t-24.5 -35.5q-23 -33 -26 -39q55 -91 93.5 -154t63.5 -103.5t38.5 -63t20 -33.5t7.5 -13t1 -3h-147l-167 282l-51 -59v-223h-120v670h120z" />
<glyph unicode="L" horiz-adv-x="539" d="M120 670h120v-569h239v-101h-359v670v0z" />
<glyph unicode="M" horiz-adv-x="815" d="M120 670h114l172 -275l175 275h114v-670h-118v447l-171 -263l-168 260v-444h-118v670v0z" />
<glyph unicode="N" horiz-adv-x="754" d="M120 670h117l280 -440v440h117v-670h-118l-281 442v-442h-115v670v0z" />
<glyph unicode="O" horiz-adv-x="775" d="M94 337q0 73 16 136t51.5 109.5t91.5 72.5t136 26h21.5t29.5 -1.5t27.5 -4t17.5 -6.5q23 -10 42 -18.5t35.5 -20t32 -28.5t32.5 -42q32 -51 43 -108t11 -115q0 -74 -16.5 -137t-52 -110t-91.5 -73.5t-136 -26.5t-135.5 27t-90 73.5t-50 110t-15.5 136.5zM220 337 q0 -43 5.5 -86.5t23 -79t49.5 -57.5t85 -22q59 0 92.5 23.5t50.5 59.5t21 79.5t4 82.5q0 125 -41.5 183.5t-123.5 58.5q-53 0 -85.5 -21t-50.5 -55.5t-24 -77.5t-6 -88z" />
<glyph unicode="P" horiz-adv-x="661" d="M151 670q1 0 20 0.5t44.5 2t53 3t44.5 1.5q25 0 52 -3t50.5 -7.5t41 -10t24.5 -9.5q55 -35 74 -79.5t19 -106.5q0 -24 -2.5 -48t-9.5 -47t-19.5 -43.5t-31.5 -36.5q-24 -20 -56.5 -30t-69 -13.5t-74 -3t-71.5 0.5v-240h-120v665zM241 341q61 0 101.5 2t64.5 13.5t34 35 t10 66.5q0 67 -28.5 93t-96.5 26q-15 0 -39 -1.5t-46 -3.5v-231z" />
<glyph unicode="Q" horiz-adv-x="773" d="M567 -79q-17 10 -31 18.5t-30 19.5q-17 12 -34 23t-38 11q-10 0 -20 -1t-21 -1q-85 0 -151 33.5t-103 101.5q-29 51 -37 104.5t-8 108.5q0 56 9 107.5t38 105.5q6 11 15.5 24t19.5 24.5t19.5 20.5t15.5 12q22 15 42.5 25t41.5 15.5t43 8t48 2.5q38 0 76.5 -8.5 t72.5 -26.5t61.5 -46t44.5 -68q20 -48 29 -96t9 -100v-11t-0.5 -14t-0.5 -12v-6q0 -15 -4.5 -48t-16.5 -70.5t-33.5 -73t-54.5 -55.5q13 -6 25 -15t24 -17t25 -14t28 -7q0 -1 0.5 -2.5t0.5 -2.5q0 -7 -5 -20.5t-11.5 -27.5t-12.5 -25.5t-7 -12.5q-15 0 -36.5 5.5t-30.5 8.5 l-2 2v0zM222 338q0 -45 5.5 -89t23 -78.5t50.5 -56t89 -21.5q49 0 80 21.5t49 56.5t25 79t7 88q0 45 -5.5 88.5t-23 77.5t-50 55t-85.5 21q-55 0 -87.5 -21t-50 -55t-22.5 -77.5t-5 -88.5z" />
<glyph unicode="R" horiz-adv-x="677" d="M142 670q1 0 18.5 1t41 2.5t48 2.5t39.5 1q19 0 55 0.5t75 -7.5q10 -8 23 -8.5t24 -5.5q19 -9 39 -23t36 -32t26 -40.5t10 -48.5v-72q0 -26 -12.5 -51t-29 -44.5t-33 -32.5t-25.5 -14q9 -9 13.5 -20t8.5 -23l8 -24t10 -22l39 -109q2 -13 7.5 -25t11.5 -24.5t10.5 -25 t4.5 -25.5h-127q1 -5 -1 1t-6 17t-8.5 23.5t-7.5 21.5q-6 16 -13 30.5t-10 32.5l-40 111q-4 11 -12 19.5t-20 8.5h-102v-265h-122v665zM245 365h125q4 0 15 3.5t13 3.5q32 15 44 39.5t12 58.5q0 33 -10 53.5t-27 32.5t-41.5 16.5t-52.5 4.5h-39t-39 -2v-210z" />
<glyph unicode="S" horiz-adv-x="615" d="M75 57l45 96q1 2 7 2q38 -28 79 -46.5t89 -18.5q23 0 43.5 4.5t35.5 15.5t23.5 28t8.5 43q0 28 -14 46.5t-35 31.5t-45.5 22t-45.5 18q-5 2 -15.5 7t-23 10.5t-23.5 10.5t-15 7q-55 35 -73 74.5t-18 88.5q0 50 18 84.5t48 56.5t68.5 31.5t78.5 9.5q37 0 74 -7t72 -24 q5 -3 13 -6.5t15.5 -7t12.5 -6.5l5 -3l-35 -102l-1 -1h-2q-1 0 -1 1q-12 6 -25 14.5t-27 17t-28.5 14t-29.5 5.5h-69q-14 0 -26 -6.5t-21.5 -16.5t-15 -22.5t-5.5 -25.5q0 -24 13.5 -40.5t35.5 -29t49.5 -22.5t55.5 -20.5t54.5 -24t45.5 -32.5q13 -13 21.5 -28.5t20.5 -27.5 q8 -26 11 -44.5t3 -45.5q0 -6 -1 -21t-3.5 -30.5t-5.5 -27.5t-7 -12q-18 -32 -39.5 -52.5t-47 -32.5t-55.5 -17t-66 -5q-51 0 -98.5 9.5t-93.5 34.5q-4 2 -10 5.5l-12 7t-10 6t-3 2.5v1v1z" />
<glyph unicode="T" horiz-adv-x="567" d="M222 564h-162v106h447v-106h-164v-564h-121v564v0z" />
<glyph unicode="U" horiz-adv-x="722" d="M119 215v456h120v-426q0 -33 6 -60.5t20 -48t37.5 -32t58.5 -11.5q38 0 62 12t41 47q6 13 11.5 29t5.5 31v459h122v-449q0 -21 -4 -44.5t-11.5 -46t-17.5 -42.5t-23 -35q-14 -16 -34 -28t-40.5 -20.5t-39 -12.5t-30.5 -4h-86q-21 0 -45 6.5t-45.5 18t-39.5 27t-28 34.5 q-11 19 -16.5 36.5t-13.5 31.5z" />
<glyph unicode="V" horiz-adv-x="640" d="M54 670h131l135 -535l2 -2l135 537h129l-197 -670h-139z" />
<glyph unicode="W" horiz-adv-x="985" d="M80 670h130l98 -530l131 530h112l127 -530l100 530h127l-154 -670h-139l-122 482l-119 -482h-142z" />
<glyph unicode="X" horiz-adv-x="646" d="M250 348v1l-176 321h141l116 -233l112 233h138l-178 -332l189 -336v-2h-138l-130 244l-130 -244h-140v2z" />
<glyph unicode="Y" horiz-adv-x="635" d="M47 668v2h135l138 -302l139 302h129q0 -2 -1 -5.5t-7 -16.5t-18.5 -38.5t-35.5 -70.5t-58.5 -112.5t-86.5 -165.5v-261h-123v256z" />
<glyph unicode="Z" horiz-adv-x="574" d="M353 566h-269v104h416v-98l-291 -471h298v-101h-440v98z" />
<glyph unicode="[" horiz-adv-x="411" d="M348 -105h-254v775h254v-105h-120v-565h120v-105z" />
<glyph unicode="\" horiz-adv-x="565" d="M504 -29h-104l-341 817h105z" />
<glyph unicode="]" horiz-adv-x="411" d="M317 -105h-255v105h121v565h-121v105h255v-775z" />
<glyph unicode="^" horiz-adv-x="572" d="M525 366h-140l-100 178l-100 -178h-139l185 304h109z" />
<glyph unicode="_" d="M495 -179h-495v110h495v-110z" />
<glyph unicode="`" d="M358 569h-116l-143 154h173z" />
<glyph unicode="a" horiz-adv-x="646" d="M124 42q-8 16 -14 28.5t-9.5 24.5t-5.5 26t-2 33q0 60 27.5 99t72.5 62t101 32t113 9q0 1 0.5 6t0.5 6q0 24 -3 42.5t-12 30.5t-25 18t-42 6q-38 0 -69.5 -8t-67.5 -22q-12 -5 -21 -11t-20 -11q-5 0 -11 13.5t-11.5 29t-8.5 28t-3 11.5q45 37 103.5 50t116.5 13 q30 0 59 -4.5t53 -16.5t42 -32.5t26 -53.5q2 -11 6.5 -28t4.5 -19v-286q0 -6 2.5 -19t7.5 -18q4 -5 14 -11t10 -12q-15 -19 -28 -33q-11 -12 -24 -22t-21 -10q-17 0 -34.5 12.5t-25.5 26.5q-3 5 -3.5 12t-5.5 9q-38 -30 -76.5 -47.5t-89.5 -17.5q-22 0 -38.5 3t-31 9 t-28.5 16.5t-29 25.5zM209 159q0 -29 12.5 -53t41.5 -32q24 0 39.5 -0.5t35.5 7.5q1 2 11.5 7.5t23 12t22.5 13t10 11.5v152q-30 0 -64.5 -4t-63.5 -16.5t-48.5 -35.5t-19.5 -62z" />
<glyph unicode="b" horiz-adv-x="671" d="M233 65q-1 -2 -3.5 -9.5t-4.5 -17t-4.5 -20t-3.5 -18.5h-96v725h118v-230q27 34 56.5 48.5t74.5 14.5q52 0 98 -23.5t70 -71.5q3 -9 7.5 -20.5t8.5 -22t7.5 -17.5t4.5 -8q5 -29 8 -59t3 -60q0 -51 -9.5 -102.5t-33.5 -93t-64 -67t-100 -25.5q-44 0 -80 18t-57 59z M240 281q0 -13 -0.5 -27t-0.5 -29q0 -20 1.5 -39.5t7.5 -37t16.5 -33t28.5 -25.5q4 -2 12 -5.5t12 -3.5h53l5 1.5t10.5 3.5t10 4.5t4.5 4.5q19 18 30 39t16.5 44.5t6.5 48t1 49.5t-0.5 49t-5.5 46.5t-16 42.5t-32 37h-1q-1 0 -5 2t-8.5 4l-9 4t-6.5 2h-51q-6 0 -14.5 -3.5 t-13.5 -6.5q-23 -12 -34 -30t-14.5 -41t-3 -48.5t0.5 -52.5z" />
<glyph unicode="c" horiz-adv-x="580" d="M243 2q-8 5 -18 9.5t-19 9.5q-31 18 -52.5 45t-34.5 60.5t-19 70.5t-6 75q0 71 18 124.5t51 89.5t78.5 54t100.5 18q46 0 84 -13.5t78 -35.5l9 -4.5t5 -8.5q-5 -10 -12.5 -24t-15 -27t-14 -22.5t-7.5 -9.5t-2 1q-15 10 -28.5 18.5t-27 15.5t-29 11t-34.5 4 q-40 0 -65.5 -17t-40 -44t-20 -61t-5.5 -67t5.5 -67t20.5 -61.5t40.5 -45t65.5 -17.5q50 0 97 28q4 3 16.5 12t16.5 9q3 0 8.5 -10t11.5 -23.5t11.5 -26.5t7.5 -19q2 -5 -5 -9.5t-9 -6.5q-39 -24 -80 -36.5t-87 -12.5q-25 0 -47 3.5t-47 10.5z" />
<glyph unicode="d" horiz-adv-x="676" d="M151 61q-32 48 -44 103t-12 111q0 53 10 103.5t34 90.5t64.5 64t100.5 24q28 0 56 -6.5t49 -26.5q5 -4 12 -13.5t13 -11.5v228h120v-726h-103q-7 8 -6 26.5t-3 33.5q-8 -5 -12 -13.5t-11 -13.5q-26 -23 -53.5 -35t-63.5 -12t-67 11t-58 36q-8 6 -13 13.5t-13 13.5z M218 278q0 -29 3 -63.5t14 -64.5t33.5 -50t61.5 -20q23 0 42 8.5t32.5 23t21 33.5t7.5 40v191q0 21 -9 37t-23.5 27t-33 16.5t-37.5 5.5q-39 0 -61.5 -17.5t-33.5 -44.5t-14 -59.5t-3 -62.5z" />
<glyph unicode="e" horiz-adv-x="699" d="M282 3q-1 2 -4 2.5t-5 2.5q-30 14 -53 33.5t-42 45.5q-5 6 -8.5 17t-10.5 15q-14 40 -20 77t-6 79q0 61 14 113.5t43.5 90t76 59t112.5 21.5q24 0 49 -4.5t47.5 -14.5t42 -25t32.5 -37q18 -30 27.5 -59t14 -59t5.5 -61.5t1 -64.5h-343q0 -68 30.5 -109t102.5 -41 q20 0 36 2.5t32 7.5t33.5 14t39.5 21q2 1 3 -0.5t1 -2.5q11 -20 18.5 -39t16.5 -40v-4l-5 -3.5t-12.5 -7.5t-15.5 -8t-13 -7q-29 -16 -67 -22t-73 -6q-26 0 -50 3.5t-50 10.5zM375 468q-33 0 -56 -12.5t-37.5 -33.5t-21 -48t-6.5 -57h231q0 27 -5 54t-17.5 48.5t-34 35 t-53.5 13.5z" />
<glyph unicode="f" horiz-adv-x="411" d="M61 441v98h72q0 4 0.5 16t1 25t1 24.5t0.5 16.5q1 36 15.5 58t37 33.5t51 15t58.5 3.5h29t30 -5v-86h-70q-14 0 -24.5 -12t-10.5 -25v-64h100v-98h-101v-441h-116v441h-74z" />
<glyph unicode="g" horiz-adv-x="676" d="M130 -160l30 86q3 3 3 5q42 -21 84.5 -35.5t90.5 -14.5q32 0 51 9t29.5 24t14 35t3.5 43q0 20 -1 41t-1 42h-1q-8 -11 -19 -22t-24 -20t-27 -15t-28 -6h-72q-23 0 -46 11t-43 28.5t-35.5 38.5t-22.5 41q-13 36 -17 71.5t-4 73.5q0 53 9.5 103t33 89t63.5 62.5t100 23.5 q25 0 43.5 -3t33 -9.5t26.5 -16.5t26 -24l4 -8t6 -6l9 58h105v-582q0 -1 -1 -9t-2 -12q-7 -48 -24 -78.5t-44 -48.5t-63.5 -24.5t-81.5 -6.5q-50 0 -96.5 9.5t-92.5 30.5q-5 2 -12 3.5t-7 9.5v3zM218 281q0 -29 3.5 -60.5t15 -57.5t33.5 -43.5t58 -17.5q40 0 61.5 19 t31.5 47.5t12 62.5t2 64q0 36 -3.5 66t-14.5 52.5t-32 35t-57 12.5q-38 0 -60 -17.5t-33 -44t-14 -58t-3 -60.5z" />
<glyph unicode="h" horiz-adv-x="684" d="M242 726v-226q33 32 64 44t78 12q49 0 83 -14.5t55 -41.5t30.5 -65t9.5 -84v-351h-122v351q0 49 -21 77t-71 28q-21 0 -40 -6.5t-34 -19.5t-23.5 -31t-8.5 -41v-358h-120v726h120z" />
<glyph unicode="i" horiz-adv-x="355" d="M238 547v-547h-119v547h119zM105 684q0 35 20 50t54 15q33 0 52 -15.5t19 -49.5q0 -35 -19 -50t-54 -15q-33 0 -52.5 14.5t-19.5 50.5z" />
<glyph unicode="j" horiz-adv-x="360" d="M55 -108q29 0 46.5 22.5t17.5 49.5v584h120v-586q0 -19 -5 -38t-12 -36q-10 -28 -27.5 -47t-40 -30t-49 -16t-53.5 -5h-20t-23.5 0.5t-20 1.5t-8.5 3v97h75zM106 686q0 32 19.5 48.5t51.5 16.5q34 0 55 -13.5t21 -51.5t-20 -52t-55 -14q-33 0 -52.5 15.5t-19.5 50.5z" />
<glyph unicode="k" horiz-adv-x="603" d="M237 726v-417l171 238h138l-164 -226l175 -321h-135l-126 240l-62 -75v-165h-115v726h118z" />
<glyph unicode="l" horiz-adv-x="383" d="M171 2q-3 4 -10 6.5t-9 4.5q-14 12 -23.5 30.5t-9.5 37.5v646h118v-600q0 -9 7 -17.5t17 -10.5l56 -4v-93q0 -2 -10.5 -3.5t-15.5 -1.5h-97l-23 5v0z" />
<glyph unicode="m" horiz-adv-x="961" d="M230 547l8 -56q50 68 135 68q32 0 62.5 -9.5t53.5 -35.5q5 -6 9.5 -14.5t11.5 -13.5q31 40 65 56.5t86 16.5q44 0 75 -10t51.5 -30.5t32.5 -51.5t18 -72q1 -3 1.5 -11t0.5 -9v-375h-117v351q0 20 -4.5 39t-14 34t-25.5 24.5t-39 9.5q-42 0 -70.5 -28t-28.5 -74v-356h-117 l-5 384q-1 34 -24.5 54t-55.5 20q-43 0 -70.5 -30t-27.5 -72v-356h-120v547h109z" />
<glyph unicode="n" horiz-adv-x="675" d="M223 544q0 2 1 -3.5t2.5 -14.5t3 -18.5t2.5 -16.5l5 5t4 6q31 32 65 43t77 11q20 0 41.5 -3.5t41 -11.5t35.5 -21.5t26 -33.5q5 0 10 -15.5t9 -35.5t6.5 -39t2.5 -26v-370h-119v365q0 32 -17.5 57t-49.5 32q-47 0 -77 -10.5t-46 -52.5q-2 -2 -4.5 -15t-3.5 -15v-361h-118 v544h103z" />
<glyph unicode="o" horiz-adv-x="677" d="M241 2q-2 2 -4.5 2.5t-4.5 2.5q-41 18 -67.5 46.5t-42.5 63.5t-22 75t-6 82q0 61 13.5 113t42.5 90t74.5 59.5t110.5 21.5q67 0 114 -21.5t77 -59.5t43.5 -90.5t13.5 -113.5q0 -56 -9 -99.5t-35 -87.5q-9 -8 -14 -19q-38 -42 -85 -60.5t-103 -18.5q-25 0 -48.5 3.5 t-47.5 10.5zM215 273q0 -33 4.5 -66.5t17.5 -61t37.5 -45t64.5 -17.5t64 17.5t37 45t16.5 61.5t3.5 66q0 33 -4 66.5t-16.5 60.5t-37.5 43.5t-67 16.5q-39 0 -62.5 -17.5t-36.5 -45t-17 -60.5t-4 -64z" />
<glyph unicode="p" horiz-adv-x="672" d="M224 548q0 2 1 -3t2.5 -13.5t3 -18t2.5 -16.5l2 -2q26 38 62 51.5t79 13.5q58 0 97 -25t62.5 -65t33 -90t9.5 -100q0 -51 -10 -103t-34 -93.5t-64 -67.5t-100 -26q-26 0 -51.5 5.5t-48.5 24.5q-7 9 -17.5 19.5l-11.5 11.5v-254h-120v751h103zM342 467q-19 0 -37 -7 t-32 -19.5t-22.5 -29.5t-8.5 -37v-186q0 -45 29.5 -75t73.5 -30q37 0 59 19.5t34 49t15.5 63t3.5 62.5q0 31 -3 64.5t-14.5 61.5t-34.5 46t-63 18z" />
<glyph unicode="q" horiz-adv-x="672" d="M432 52q-23 -33 -57 -49t-74 -16q-39 0 -79 14q-4 6 -18 12t-21 13q-28 26 -45.5 55t-27 61t-13 66t-3.5 71q-1 41 5 83t23 78q23 48 57 78t87 39h37t37.5 -2.5t36 -9t31.5 -19.5q8 -8 15 -18t16 -16q0 3 1 9.5t2 13.5t2 13.5t2 9.5q0 4 1 6q0 2 1 3h106v-632 q0 -21 10.5 -34.5t27.5 -21.5v-3q0 -2 -9.5 -15t-21.5 -27.5t-23.5 -26.5t-15.5 -12q-16 0 -31.5 9t-28 23t-20 31t-7.5 32v182h-3zM328 462q-29 0 -49.5 -11t-34 -29.5t-20 -42.5t-6.5 -50v-103q0 -26 6.5 -52t20.5 -47t34.5 -34t49.5 -13q27 0 47 11.5t32.5 30t19 42.5 t6.5 48v142q0 51 -27.5 79.5t-78.5 28.5z" />
<glyph unicode="r" horiz-adv-x="466" d="M226 547l8 -65q6 15 18.5 27.5l23.5 23.5q12 10 32 16t36 7h12t19 0.5t19 0.5h12v-108q-28 0 -57.5 -2.5t-54 -13t-40.5 -31.5t-16 -58v-344h-118v547h106z" />
<glyph unicode="s" horiz-adv-x="558" d="M74 47l5 13.5t12 30t13.5 30.5t9.5 16q-3 2 -0.5 1t7.5 -3.5t11.5 -5.5t11.5 -6l1 -1q0 -1 1 -1q21 -12 34.5 -18t35.5 -13q9 -2 18 -3t17 -4q22 0 42 1.5t35 8t24 20t9 37.5q0 20 -13 36t-32 23l-116 42q-1 0 -4.5 1t-4.5 1q-48 19 -74.5 57.5t-26.5 89.5q0 44 16.5 74 t44 49t63.5 27t76 8q44 0 87.5 -8t83.5 -29q0 -9 -3 -20.5t-7 -23t-8.5 -22.5t-7.5 -20q0 -1 -1 -2.5t-1 -2.5q-12 0 -23 7.5t-22 11.5q-45 16 -92 16q-14 0 -29.5 -1.5t-28.5 -7t-22 -15.5t-9 -28q0 -28 20 -43t50 -26t65 -21.5t65 -29.5t50 -50.5t20 -83.5q0 -30 -8 -60.5 t-30 -55t-61 -40t-100 -15.5q-54 0 -105.5 13.5t-98.5 42.5v3z" />
<glyph unicode="t" horiz-adv-x="445" d="M60 437v100h78v143h119v-143h108v-100h-107v-308q0 -17 9.5 -25.5t25 -11.5t34.5 -3h38v-93l-2 -2q-3 -3 -13 -4t-23.5 -1.5t-29.5 0t-32 0.5q-68 0 -98.5 35t-30.5 88v325h-76z" />
<glyph unicode="u" horiz-adv-x="668" d="M238 547v-365q0 -42 23 -67.5t65 -25.5q27 0 54.5 11t37.5 40q1 4 3 11t3.5 14t3 12.5t1.5 6.5v363h119v-546h-107l-7 51l-2 4q-15 -20 -31 -33t-34 -20.5t-39 -10.5t-46 -3q-58 0 -94.5 19.5t-55.5 75.5q-4 11 -8 29.5t-4 29.5v404h118z" />
<glyph unicode="v" horiz-adv-x="579" d="M53 547h124l114 -445h1l115 445h119l-163 -547h-147z" />
<glyph unicode="w" horiz-adv-x="870" d="M200 0l-133 547h122l86 -435l108 435h106l105 -431h2l87 431h120l-133 -547h-134l-102 379l-102 -379h-132v0z" />
<glyph unicode="x" horiz-adv-x="600" d="M218 285v1q-11 22 -28.5 52.5t-38.5 65t-42.5 70t-39.5 68.5v2h147q1 -2 8.5 -16.5t17.5 -35t21 -43t20.5 -41t16 -30.5t7.5 -11q3 0 10.5 13t17 32.5t20 42.5t19.5 42.5t16 32.5t9 14h136q-2 -4 -13.5 -24t-28 -48.5t-35.5 -60t-35.5 -59t-27 -45.5t-10.5 -19v-1 q0 -4 11.5 -26.5t29.5 -53t39 -65.5t39 -65.5t31.5 -52t15.5 -24.5h-147l-105 198q-2 -1 -4.5 -6t-12.5 -24.5t-29.5 -59t-55.5 -108.5h-148z" />
<glyph unicode="y" horiz-adv-x="615" d="M94 -101h12t19 0.5t19 0.5h12q22 1 36 9.5t22.5 22t14 31t11.5 35.5q0 1 -1 4.5t-1 4.5q-6 16 -19.5 55t-30.5 90.5t-36.5 109.5t-38 112.5t-33.5 99.5t-24 70h139l115 -402q15 51 28.5 100t27 98.5t27.5 100t29 103.5h137l-163 -488q-4 -20 -11.5 -39t-14.5 -38 q-9 -24 -20.5 -53.5t-26.5 -56.5t-36 -48t-49 -28q-20 -5 -37.5 -6t-37.5 -1h-18.5t-23 0.5t-19.5 1.5t-8 3v108v0z" />
<glyph unicode="z" horiz-adv-x="523" d="M294 439h-221v105h379v-100q-1 -1 -3 -4l-9 -13.5t-20.5 -32t-38 -59t-61.5 -93.5t-91 -136h226v-106h-387v95z" />
<glyph unicode="{" horiz-adv-x="455" d="M403 -105q-263 0 -263 202v68q0 66 -59 66h-22v107h22q59 0 59 66v69q0 202 263 202v-87q-73 -7 -98.5 -35t-25.5 -90v-29q0 -74 -23 -107q-20 -28 -71 -43q51 -14 71 -43q23 -32 23 -106v-29q0 -61 25 -88q26 -29 99 -36v-87z" />
<glyph unicode="|" horiz-adv-x="282" d="M203 -177h-124v943h124v-943z" />
<glyph unicode="}" horiz-adv-x="455" d="M396 232h-22q-59 0 -59 -66v-69q0 -202 -263 -202v87q73 7 99 36q25 27 25 88v30q0 74 23 106q20 29 71 43q-51 15 -71 43q-23 33 -23 107v28q0 62 -25.5 90t-98.5 35v87q263 0 263 -202v-68q0 -66 59 -66h22v-107z" />
<glyph unicode="~" horiz-adv-x="556" d="M514 406q-58 -145 -151 -145q-46 0 -95 33q-57 38 -77 38q-21 0 -33 -12t-35 -56l-81 40q58 145 151 145q45 0 95 -33q57 -38 77 -38q21 0 33 12t35 56z" />
<glyph unicode="&#xa1;" horiz-adv-x="368" d="M107 604q0 35 22 50.5t54 15.5t55 -15.5t23 -50.5q0 -34 -23 -49.5t-53 -15.5q-23 0 -35 5t-31 19q-5 11 -8.5 20t-3.5 21zM135 463h98l20 -475h-134z" />
<glyph unicode="&#xa2;" horiz-adv-x="565" d="M263 -5q-47 8 -79.5 33.5t-52.5 61t-29 78t-9 85.5q0 48 8 89t27.5 73t52 56t80.5 38q2 1 4 1.5t2 1.5v74h104v-74q32 -8 63.5 -20t56.5 -35q0 -3 -7.5 -16.5t-16.5 -28.5t-17 -27.5t-9 -12.5q-8 0 -19 10.5t-19 15.5q-18 10 -34 14t-36 4q-35 0 -58 -14t-36.5 -36.5 t-19 -51.5t-5.5 -60q0 -29 5.5 -59t19 -54t36.5 -39.5t58 -15.5q16 0 36 4t34 12q5 3 12 9t14.5 11.5t14.5 10t12 4.5q-1 1 3.5 -7t11.5 -20.5t14.5 -27t12.5 -24.5q2 -9 -13 -19.5t-36 -20t-43.5 -16.5t-34.5 -9v-77h-104v77z" />
<glyph unicode="&#xa3;" horiz-adv-x="663" d="M617 590l-83 -99q-69 60 -171 60q-100 0 -100 -65q0 -25 25 -67q22 -36 27 -52h151v-109h-142q-5 -74 -65 -143h344v-115h-516v98q84 66 96 160h-96v109h78q-9 16 -25 43q-28 52 -28 94q0 85 66 131t187 46q147 0 252 -91z" />
<glyph unicode="&#xa4;" horiz-adv-x="537" d="M100 435l-64 62l54 54l65 -63q51 33 112 33q62 0 112 -33l66 63l55 -54l-66 -62q33 -49 33 -106q0 -58 -33 -107l66 -61l-55 -55l-66 63q-50 -32 -112 -32q-61 0 -112 32l-65 -63l-54 55l64 61q-32 49 -32 107q0 57 32 106zM144 329q0 -49 35.5 -83.5t86.5 -34.5t87 34.5 t36 83.5t-36 83t-87 34t-86.5 -34t-35.5 -83z" />
<glyph unicode="&#xa5;" horiz-adv-x="677" d="M655 670l-250 -410v-47h161v-113h-161v-100h-133v100h-161v113h161v44l-250 413h159l91 -159q52 -90 67 -131q22 52 68 131l91 159h157z" />
<glyph unicode="&#xa6;" horiz-adv-x="251" d="M163 675v-358h-76v358h76zM163 164v-359h-76v359h76z" />
<glyph unicode="&#xa7;" horiz-adv-x="693" d="M638 240q0 -103 -109 -158q20 -31 20 -83q0 -69 -52 -111q-56 -45 -154 -45q-121 0 -212 65l68 92q69 -47 153 -47q69 0 69 45q0 22 -30 37q-25 13 -132.5 47t-151.5 75q-53 47 -53 126q0 104 108 158q-19 33 -19 84q0 68 54 112t152 44q122 0 213 -66l-68 -91 q-70 46 -154 46q-69 0 -69 -45q0 -22 31 -37q24 -12 133 -47q106 -33 151 -74q52 -47 52 -127zM506 231q0 36 -43 61q-25 14 -95 37q-79 26 -118 44q-63 -26 -63 -80q0 -36 43 -61q24 -15 94 -38q80 -26 118 -44q64 26 64 81z" />
<glyph unicode="&#xa8;" d="M431 643q0 -29 -22.5 -51.5t-53.5 -22.5t-54.5 22.5t-23.5 51.5q0 31 23.5 53t54.5 22t53.5 -22t22.5 -53zM218 643q0 -29 -23.5 -51.5t-54.5 -22.5q-30 0 -53.5 22.5t-23.5 51.5q0 31 23 53t54 22q32 0 55 -22t23 -53z" />
<glyph unicode="&#xa9;" horiz-adv-x="827" d="M771 335q0 -147 -102.5 -246.5t-254.5 -99.5q-153 0 -255.5 99.5t-102.5 246.5t102.5 246.5t255.5 99.5q152 0 254.5 -99.5t102.5 -246.5zM707 335q0 122 -84 203t-209 81q-126 0 -210 -81t-84 -203t84 -203t210 -81q125 0 209 81t84 203zM562 449l-78 -42q-25 42 -66 42 q-78 0 -78 -112q0 -111 79 -111q39 0 71 49l69 -46q-51 -86 -142 -86q-77 0 -123.5 52.5t-46.5 141.5q0 85 48.5 140t123.5 55q100 0 143 -83z" />
<glyph unicode="&#xaa;" horiz-adv-x="472" d="M411 264h-108v30q-37 -37 -97 -37q-65 0 -108 35q-50 39 -50 109q0 65 50 101q46 34 122 34q49 0 83 -16v20q0 53 -63 53q-64 0 -116 -27l-42 74q77 41 158 41q78 0 124.5 -38t46.5 -105v-274zM303 384v52q-30 17 -79 17q-67 0 -67 -52q0 -56 67 -56q52 0 79 39z" />
<glyph unicode="&#xab;" horiz-adv-x="621" d="M582 0h-142l-161 251l161 251h142l-157 -250zM332 0h-141l-161 251l161 251h141l-156 -250z" />
<glyph unicode="&#xac;" horiz-adv-x="565" d="M511 192h-79v199h-378v76h457v-275z" />
<glyph unicode="&#xad;" horiz-adv-x="613" d="M559 286h-505v123h505v-123z" />
<glyph unicode="&#xae;" horiz-adv-x="827" d="M771 335q0 -147 -102.5 -246.5t-254.5 -99.5q-153 0 -255.5 99.5t-102.5 246.5t102.5 246.5t255.5 99.5q152 0 254.5 -99.5t102.5 -246.5zM707 335q0 122 -84 203t-209 81q-126 0 -210 -81t-84 -203t84 -203t210 -81q125 0 209 81t84 203zM584 412q0 -82 -77 -111 l75 -148h-93l-71 138h-67v-138h-82v377h181q59 0 95 -28q39 -32 39 -90zM500 410q0 48 -56 48h-93v-97h93q56 0 56 49z" />
<glyph unicode="&#xaf;" horiz-adv-x="490" d="M387 559h-284v96h284v-96z" />
<glyph unicode="&#xb0;" horiz-adv-x="481" d="M436 492q0 -81 -56 -136t-140 -55q-82 0 -138.5 55.5t-56.5 135.5q0 79 56.5 134t138.5 55q84 0 140 -55t56 -134zM332 492q0 37 -26.5 63t-65.5 26q-38 0 -65 -26.5t-27 -62.5q0 -38 27 -64.5t65 -26.5q40 0 66 26t26 65z" />
<glyph unicode="&#xb1;" horiz-adv-x="530" d="M225 118v182h-189v75h189v182h81v-182h186v-75h-186v-182h-81zM492 0h-456v76h456v-76z" />
<glyph unicode="&#xb2;" horiz-adv-x="321" d="M12 332q2 26 23 52q28 38 96 86t80 61q18 18 18 38q0 22 -15.5 36t-47.5 14q-33 0 -47.5 -10.5t-25.5 -41.5l-71 8q14 50 48 73.5t96 23.5q72 0 105 -26.5t33 -65.5q0 -38 -29 -71q-20 -26 -95 -78q-40 -28 -56 -44h182v-55h-294z" />
<glyph unicode="&#xb3;" horiz-adv-x="321" d="M16 421l67 6q10 -27 27 -36q20 -14 47 -14q34 0 54.5 18t20.5 42q0 23 -17 36.5t-60 13.5q-6 0 -14 -1h-11l11 49q39 0 55.5 13.5t16.5 33.5q0 17 -13.5 28.5t-42.5 11.5q-26 0 -40 -10t-26 -36l-68 10q21 48 50.5 67t83.5 19q70 0 101 -24t31 -60q0 -25 -17 -45t-49 -27 q43 -11 63 -34t20 -54q0 -41 -38.5 -72.5t-106.5 -31.5q-66 0 -101 25.5t-44 71.5z" />
<glyph unicode="&#xb4;" d="M396 723l-144 -154h-115l86 154h173z" />
<glyph unicode="&#xb5;" horiz-adv-x="557" d="M480 481v-481h-75v58q-26 -37 -51 -51q-31 -18 -75 -18q-39 0 -70 15q-21 11 -50 44v-233h-83v666h83v-204q0 -110 12.5 -143.5t40.5 -52.5t63 -19q38 0 68.5 20t42 52t11.5 141v206h83z" />
<glyph unicode="&#xb6;" horiz-adv-x="716" d="M628 -177h-113v746h-63v-746h-113v427h-68q-95 0 -158 54q-67 59 -67 156t68 155q62 55 157 55h357v-847z" />
<glyph unicode="&#xb7;" horiz-adv-x="266" d="M226 336q0 -35 -28 -60.5t-64 -25.5q-38 0 -65 25.5t-27 60.5t27 60.5t65 25.5q36 0 64 -25.5t28 -60.5z" />
<glyph unicode="&#xb8;" d="M373 -101q0 -84 -118 -84q-72 0 -129 35l20 36q45 -23 88 -23q54 0 54 33q0 25 -31 25q-16 0 -29 -7l-36 13l27 108h55l-17 -75q14 7 39 7q77 0 77 -68z" />
<glyph unicode="&#xb9;" horiz-adv-x="321" d="M155 332v251q-47 -37 -105 -51v56q30 9 65.5 33t58.5 51h51v-340h-70z" />
<glyph unicode="&#xba;" horiz-adv-x="486" d="M433 468q0 -93 -54 -152t-137 -59t-136.5 59t-53.5 152t53.5 153t136.5 60t137 -60t54 -153zM321 468q0 49 -20.5 79t-58.5 30q-78 0 -78 -109q0 -108 78 -108q38 0 58.5 31.5t20.5 76.5z" />
<glyph unicode="&#xbb;" horiz-adv-x="621" d="M598 251l-162 -251h-141l156 252l-156 250h141zM348 251l-161 -251h-141l156 252l-156 250h141z" />
<glyph unicode="&#xbc;" horiz-adv-x="1664" d="M215 620q3 3 -10.5 -10t-33 -30.5t-38.5 -32t-27 -14.5q-17 20 -29 43.5t-25 45.5q-2 3 -2.5 4t-0.5 3t3 4q32 28 64 54t64 53q14 11 30 23t28 26h107v-672h-128v503h-2zM873.508 789.103h103.82l-337.17 -1012.03h-102.832zM1123 -88l-3 4q-1 4 -5.5 17.5l-9.5 28.5 t-9 29t-4 21q0 5 2.5 11.5t7.5 8.5l69 107l140 216q7 14 12.5 22t11.5 16.5t14.5 20.5t21.5 34h141v-422h90v-114h-90v-136h-135v136h-254zM1278 116q0 -1 0.5 -1t0.5 -1l-1 -1q-11 -23 -25.5 -43t-25.5 -43h154q0 32 0.5 58.5t0.5 55.5t0.5 64t0.5 85l-37 -60q0 -2 -1 -4 t-1 -3q-16 -27 -32.5 -54t-33.5 -53z" />
<glyph unicode="&#xbd;" horiz-adv-x="1628" d="M215 620q3 3 -10.5 -10t-33 -30.5t-38.5 -32t-27 -14.5q-17 20 -29 43.5t-25 45.5q-2 3 -2.5 4t-0.5 3t3 4q32 28 64 54t64 53q14 11 30 23t28 26h107v-672h-128v503h-2zM870.202 789.103h106.891l-347.14 -1012.03h-105.873zM1099 -111q0 2 5 8t13 14t17.5 17t18.5 18 l4 2l140 135q14 13 32 33.5t34 44.5t27.5 51t11.5 54q0 36 -22.5 58t-58.5 22q-38 0 -69 -18t-60 -43q-1 -4 -8 -10t-11 -6q-2 0 -8 7.5t-13 17t-13 18.5t-9 13q-8 8 -17 19.5t-9 17.5q0 4 2 7q42 35 85 58t104 31q53 0 97.5 -8t76 -29t49 -58t17.5 -95q0 -20 -2 -37.5 t-8 -35.5q0 -1 -1 -2.5t-1 -2.5q-18 -48 -48.5 -89t-67.5 -77t-77 -68.5t-79 -64.5h288v-115h-423q-5 28 -11 56.5t-6 56.5z" />
<glyph unicode="&#xbe;" horiz-adv-x="1787" d="M55 163q0 5 2.5 10t4.5 10l45 79h2q37 -22 72.5 -37.5t78.5 -15.5q52 0 82 24.5t30 77.5q0 16 -4 32.5t-13 30t-24.5 22.5t-37.5 9h-103v108q24 0 52.5 1t53.5 9t42 25t17 50q0 32 -18 53t-49 28q-44 0 -73.5 -7.5t-63.5 -25.5q-7 -4 -16 -12.5t-16 -8.5q-15 22 -27 40 q-11 16 -19.5 30.5t-10.5 20.5v4q88 70 218 70q38 0 75 -9t66 -30.5t47 -57t18 -87.5q0 -40 -9.5 -66.5t-41.5 -53.5q-5 -5 -14.5 -10t-9.5 -7q1 -1 6 -4t11.5 -6.5l13 -7t9.5 -5.5q16 -12 26.5 -27.5t16.5 -33.5t8.5 -37.5t2.5 -38.5q0 -56 -18 -96t-50.5 -65.5t-76.5 -38 t-95 -12.5t-95 11.5t-89 35.5q-6 3 -14 7.5t-12 11.5zM993.589 789.064h105.942l-344.06 -1013.02h-104.934zM1246 -89l-3 4q-1 4 -5.5 17.5l-9.5 28.5t-9 29t-4 21q0 5 2.5 11.5t7.5 8.5l69 107l140 216q7 14 12.5 22t11.5 16.5t14.5 20.5t21.5 34h141v-422h90v-114h-90 v-136h-135v136h-254zM1401 115q0 -1 0.5 -1t0.5 -1l-1 -1q-11 -23 -25.5 -43t-25.5 -43h154q0 32 0.5 58.5t0.5 55.5t0.5 64t0.5 85l-37 -60q0 -2 -1 -4t-1 -3q-16 -27 -32.5 -54t-33.5 -53z" />
<glyph unicode="&#xbf;" horiz-adv-x="556" d="M369 667q2 -5 7 -9.5t7 -6.5q8 -8 10 -18.5t2 -20.5q0 -32 -22.5 -50t-53.5 -18q-29 0 -52 17.5t-23 50.5t22.5 50t52.5 17q15 0 25.5 -2.5t24.5 -9.5zM234 258q-35 -32 -35 -79q0 -44 27.5 -67.5t69.5 -23.5q23 0 47.5 5t44.5 18q3 2 9.5 7t13.5 10t11.5 8.5l4.5 3.5 q1 0 8 -11t15 -25t15.5 -27.5t10.5 -18.5q1 -1 1.5 -2.5t1.5 -2.5q-23 -16 -41.5 -27t-37 -18.5t-38 -12t-44.5 -7.5q-52 0 -95 7.5t-74 28t-48.5 55.5t-17.5 91q0 46 11.5 77t32.5 53.5t50 40t64 38.5q5 5 11.5 11t6.5 8v88h113v-102q0 -25 -14 -43t-35 -32.5t-45 -26 t-44 -24.5z" />
<glyph unicode="&#xc0;" horiz-adv-x="681" d="M266 672h144l224 -670v-2h-131l-2 2l-49 149h-228l-49 -151h-128zM250 258h177l-89 298zM470 702h-116l-143 154h173z" />
<glyph unicode="&#xc1;" horiz-adv-x="681" d="M266 672h144l224 -670v-2h-131l-2 2l-49 149h-228l-49 -151h-128zM250 258h177l-89 298zM470 856l-144 -154h-115l86 154h173z" />
<glyph unicode="&#xc2;" horiz-adv-x="681" d="M266 672h144l224 -670v-2h-131l-2 2l-49 149h-228l-49 -151h-128zM250 258h177l-89 298zM530 702h-92l-99 72l-99 -72h-90l121 154h139z" />
<glyph unicode="&#xc3;" horiz-adv-x="681" d="M266 672h144l224 -670v-2h-131l-2 2l-49 149h-228l-49 -151h-128zM250 258h177l-89 298zM534 837q0 -63 -31 -100t-83 -37q-46 0 -99 29q-35 19 -52 19q-26 0 -34 -46h-89q0 64 31.5 101t82.5 37q47 0 100 -29q35 -19 52 -19q25 0 33 45h89z" />
<glyph unicode="&#xc4;" horiz-adv-x="681" d="M266 672h144l224 -670v-2h-131l-2 2l-49 149h-228l-49 -151h-128zM250 258h177l-89 298zM524 776q0 -29 -22.5 -51.5t-53.5 -22.5t-54.5 22.5t-23.5 51.5q0 31 23.5 53t54.5 22t53.5 -22t22.5 -53zM311 776q0 -29 -23.5 -51.5t-54.5 -22.5q-30 0 -53.5 22.5t-23.5 51.5 q0 31 23 53t54 22q32 0 55 -22t23 -53z" />
<glyph unicode="&#xc5;" horiz-adv-x="681" d="M266 672h144l224 -670v-2h-131l-2 2l-49 149h-228l-49 -151h-128zM250 258h177l-89 298zM474 830q0 -56 -38 -92t-96 -36q-57 0 -95 36t-38 92q0 55 38 92t95 37q58 0 96 -37t38 -92zM399 830q0 24 -17 40.5t-42 16.5q-24 0 -41 -16.5t-17 -40.5t17 -41t41 -17 q25 0 42 17t17 41z" />
<glyph unicode="&#xc6;" horiz-adv-x="1027" d="M969 0h-470v120h-247l-80 -120h-158l465 670h475v-128h-323v-121h179v-126h-179v-167h338v-128zM501 500q-24 -45 -80 -129l-90 -134h168v123q0 21 1 74.5t1 65.5z" />
<glyph unicode="&#xc7;" horiz-adv-x="669" d="M100 245q0 3 -1 11t-1.5 17t-1.5 17t-1 11q0 75 14 144t47.5 121.5t89 84t138.5 31.5q54 0 97.5 -16t86.5 -49q1 -1 6.5 -5.5t12 -10t11.5 -11t5 -7.5q-7 -8 -17.5 -21t-21 -25.5t-20 -23t-14.5 -12.5q-16 16 -31.5 30t-33 24.5t-36.5 16.5t-42 6q-50 0 -81.5 -22.5 t-49.5 -58t-24.5 -78.5t-6.5 -83t7 -83t25.5 -78.5t50 -58.5t81.5 -23q45 0 82 22t66 55q3 3 5 3l10.5 -11.5t22.5 -26.5t22.5 -29.5t10.5 -19.5q0 -2 -7 -8t-16 -13.5t-18 -14.5t-13 -10q-44 -29 -84 -40t-87 -11q-97 0 -164 45.5t-100 135.5q-7 18 -9 38t-10 37zM458 -101 q0 -84 -118 -84q-72 0 -129 35l20 36q45 -23 88 -23q54 0 54 33q0 25 -31 25q-16 0 -29 -7l-36 13l27 108h55l-17 -75q14 7 39 7q77 0 77 -68z" />
<glyph unicode="&#xc8;" horiz-adv-x="600" d="M504 668v-104h-260v-165h235v-105h-235v-193h269v-101h-393v668h384zM429 702h-116l-143 154h173z" />
<glyph unicode="&#xc9;" horiz-adv-x="600" d="M504 668v-104h-260v-165h235v-105h-235v-193h269v-101h-393v668h384zM429 856l-144 -154h-115l86 154h173z" />
<glyph unicode="&#xca;" horiz-adv-x="600" d="M504 668v-104h-260v-165h235v-105h-235v-193h269v-101h-393v668h384zM490 702h-92l-99 72l-99 -72h-90l121 154h139z" />
<glyph unicode="&#xcb;" horiz-adv-x="600" d="M504 668v-104h-260v-165h235v-105h-235v-193h269v-101h-393v668h384zM484 776q0 -29 -22.5 -51.5t-53.5 -22.5t-54.5 22.5t-23.5 51.5q0 31 23.5 53t54.5 22t53.5 -22t22.5 -53zM271 776q0 -29 -23.5 -51.5t-54.5 -22.5q-30 0 -53.5 22.5t-23.5 51.5q0 31 23 53t54 22 q32 0 55 -22t23 -53z" />
<glyph unicode="&#xcc;" horiz-adv-x="363" d="M121 670h121v-670h-121v670v0zM312 702h-116l-143 154h173z" />
<glyph unicode="&#xcd;" horiz-adv-x="363" d="M121 670h121v-670h-121v670v0zM312 856l-144 -154h-115l86 154h173z" />
<glyph unicode="&#xce;" horiz-adv-x="363" d="M121 670h121v-670h-121v670v0zM373 702h-92l-99 72l-99 -72h-90l121 154h139z" />
<glyph unicode="&#xcf;" horiz-adv-x="363" d="M121 670h121v-670h-121v670v0zM367 776q0 -29 -22.5 -51.5t-53.5 -22.5t-54.5 22.5t-23.5 51.5q0 31 23.5 53t54.5 22t53.5 -22t22.5 -53zM154 776q0 -29 -23.5 -51.5t-54.5 -22.5q-30 0 -53.5 22.5t-23.5 51.5q0 31 23 53t54 22q32 0 55 -22t23 -53z" />
<glyph unicode="&#xd0;" horiz-adv-x="699" d="M74 0v302h-76v60h76v302h239q80 0 124 -10q58 -12 100 -47q56 -44 83 -113.5t27 -157.5q0 -102 -33 -175t-80.5 -106t-109.5 -47q-33 -8 -98 -8h-252zM166 78h147q70 0 108.5 12.5t60.5 34.5q33 31 51.5 83.5t18.5 128.5q0 78 -17.5 124.5t-47.5 74.5t-66 39t-109 11 h-146v-224h190v-60h-190v-224z" />
<glyph unicode="&#xd1;" horiz-adv-x="754" d="M120 670h117l280 -440v440h117v-670h-118l-281 442v-442h-115v670v0zM571 837q0 -63 -31 -100t-83 -37q-46 0 -99 29q-35 19 -52 19q-26 0 -34 -46h-89q0 64 31.5 101t82.5 37q47 0 100 -29q35 -19 52 -19q25 0 33 45h89z" />
<glyph unicode="&#xd2;" horiz-adv-x="775" d="M94 337q0 73 16 136t51.5 109.5t91.5 72.5t136 26h21.5t29.5 -1.5t27.5 -4t17.5 -6.5q23 -10 42 -18.5t35.5 -20t32 -28.5t32.5 -42q32 -51 43 -108t11 -115q0 -74 -16.5 -137t-52 -110t-91.5 -73.5t-136 -26.5t-135.5 27t-90 73.5t-50 110t-15.5 136.5zM220 337 q0 -43 5.5 -86.5t23 -79t49.5 -57.5t85 -22q59 0 92.5 23.5t50.5 59.5t21 79.5t4 82.5q0 125 -41.5 183.5t-123.5 58.5q-53 0 -85.5 -21t-50.5 -55.5t-24 -77.5t-6 -88zM517 702h-116l-143 154h173z" />
<glyph unicode="&#xd3;" horiz-adv-x="775" d="M94 337q0 73 16 136t51.5 109.5t91.5 72.5t136 26h21.5t29.5 -1.5t27.5 -4t17.5 -6.5q23 -10 42 -18.5t35.5 -20t32 -28.5t32.5 -42q32 -51 43 -108t11 -115q0 -74 -16.5 -137t-52 -110t-91.5 -73.5t-136 -26.5t-135.5 27t-90 73.5t-50 110t-15.5 136.5zM220 337 q0 -43 5.5 -86.5t23 -79t49.5 -57.5t85 -22q59 0 92.5 23.5t50.5 59.5t21 79.5t4 82.5q0 125 -41.5 183.5t-123.5 58.5q-53 0 -85.5 -21t-50.5 -55.5t-24 -77.5t-6 -88zM517 856l-144 -154h-115l86 154h173z" />
<glyph unicode="&#xd4;" horiz-adv-x="775" d="M94 337q0 73 16 136t51.5 109.5t91.5 72.5t136 26h21.5t29.5 -1.5t27.5 -4t17.5 -6.5q23 -10 42 -18.5t35.5 -20t32 -28.5t32.5 -42q32 -51 43 -108t11 -115q0 -74 -16.5 -137t-52 -110t-91.5 -73.5t-136 -26.5t-135.5 27t-90 73.5t-50 110t-15.5 136.5zM220 337 q0 -43 5.5 -86.5t23 -79t49.5 -57.5t85 -22q59 0 92.5 23.5t50.5 59.5t21 79.5t4 82.5q0 125 -41.5 183.5t-123.5 58.5q-53 0 -85.5 -21t-50.5 -55.5t-24 -77.5t-6 -88zM577 702h-92l-99 72l-99 -72h-90l121 154h139z" />
<glyph unicode="&#xd5;" horiz-adv-x="775" d="M94 337q0 73 16 136t51.5 109.5t91.5 72.5t136 26h21.5t29.5 -1.5t27.5 -4t17.5 -6.5q23 -10 42 -18.5t35.5 -20t32 -28.5t32.5 -42q32 -51 43 -108t11 -115q0 -74 -16.5 -137t-52 -110t-91.5 -73.5t-136 -26.5t-135.5 27t-90 73.5t-50 110t-15.5 136.5zM220 337 q0 -43 5.5 -86.5t23 -79t49.5 -57.5t85 -22q59 0 92.5 23.5t50.5 59.5t21 79.5t4 82.5q0 125 -41.5 183.5t-123.5 58.5q-53 0 -85.5 -21t-50.5 -55.5t-24 -77.5t-6 -88zM581 837q0 -63 -31 -100t-83 -37q-46 0 -99 29q-35 19 -52 19q-26 0 -34 -46h-89q0 64 31.5 101 t82.5 37q47 0 100 -29q35 -19 52 -19q25 0 33 45h89z" />
<glyph unicode="&#xd6;" horiz-adv-x="775" d="M94 337q0 73 16 136t51.5 109.5t91.5 72.5t136 26h21.5t29.5 -1.5t27.5 -4t17.5 -6.5q23 -10 42 -18.5t35.5 -20t32 -28.5t32.5 -42q32 -51 43 -108t11 -115q0 -74 -16.5 -137t-52 -110t-91.5 -73.5t-136 -26.5t-135.5 27t-90 73.5t-50 110t-15.5 136.5zM220 337 q0 -43 5.5 -86.5t23 -79t49.5 -57.5t85 -22q59 0 92.5 23.5t50.5 59.5t21 79.5t4 82.5q0 125 -41.5 183.5t-123.5 58.5q-53 0 -85.5 -21t-50.5 -55.5t-24 -77.5t-6 -88zM571 776q0 -29 -22.5 -51.5t-53.5 -22.5t-54.5 22.5t-23.5 51.5q0 31 23.5 53t54.5 22t53.5 -22 t22.5 -53zM358 776q0 -29 -23.5 -51.5t-54.5 -22.5q-30 0 -53.5 22.5t-23.5 51.5q0 31 23 53t54 22q32 0 55 -22t23 -53z" />
<glyph unicode="&#xd7;" horiz-adv-x="565" d="M76 186l149 142l-149 142l57 55l148 -141l151 141l54 -55l-147 -142l147 -141l-54 -56l-151 142l-148 -142z" />
<glyph unicode="&#xd8;" horiz-adv-x="775" d="M94 337q0 73 16 136t51.5 109.5t91.5 72.5t136 26h21.5t29.5 -1.5t27.5 -4t17.5 -6.5q23 -10 42 -18.5t35.5 -20t32 -28.5t32.5 -42q32 -51 43 -108t11 -115q0 -74 -16.5 -137t-52 -110t-91.5 -73.5t-136 -26.5t-135.5 27t-90 73.5t-50 110t-15.5 136.5zM220 337 q0 -43 5.5 -86.5t23 -79t49.5 -57.5t85 -22q59 0 92.5 23.5t50.5 59.5t21 79.5t4 82.5q0 125 -41.5 183.5t-123.5 58.5q-53 0 -85.5 -21t-50.5 -55.5t-24 -77.5t-6 -88zM505.686 678.919h105.705l-343.289 -679.021h-104.699z" />
<glyph unicode="&#xd9;" horiz-adv-x="722" d="M119 215v456h120v-426q0 -33 6 -60.5t20 -48t37.5 -32t58.5 -11.5q38 0 62 12t41 47q6 13 11.5 29t5.5 31v459h122v-449q0 -21 -4 -44.5t-11.5 -46t-17.5 -42.5t-23 -35q-14 -16 -34 -28t-40.5 -20.5t-39 -12.5t-30.5 -4h-86q-21 0 -45 6.5t-45.5 18t-39.5 27t-28 34.5 q-11 19 -16.5 36.5t-13.5 31.5zM490 702h-116l-143 154h173z" />
<glyph unicode="&#xda;" horiz-adv-x="722" d="M119 215v456h120v-426q0 -33 6 -60.5t20 -48t37.5 -32t58.5 -11.5q38 0 62 12t41 47q6 13 11.5 29t5.5 31v459h122v-449q0 -21 -4 -44.5t-11.5 -46t-17.5 -42.5t-23 -35q-14 -16 -34 -28t-40.5 -20.5t-39 -12.5t-30.5 -4h-86q-21 0 -45 6.5t-45.5 18t-39.5 27t-28 34.5 q-11 19 -16.5 36.5t-13.5 31.5zM490 856l-144 -154h-115l86 154h173z" />
<glyph unicode="&#xdb;" horiz-adv-x="722" d="M119 215v456h120v-426q0 -33 6 -60.5t20 -48t37.5 -32t58.5 -11.5q38 0 62 12t41 47q6 13 11.5 29t5.5 31v459h122v-449q0 -21 -4 -44.5t-11.5 -46t-17.5 -42.5t-23 -35q-14 -16 -34 -28t-40.5 -20.5t-39 -12.5t-30.5 -4h-86q-21 0 -45 6.5t-45.5 18t-39.5 27t-28 34.5 q-11 19 -16.5 36.5t-13.5 31.5zM551 702h-92l-99 72l-99 -72h-90l121 154h139z" />
<glyph unicode="&#xdc;" horiz-adv-x="722" d="M119 215v456h120v-426q0 -33 6 -60.5t20 -48t37.5 -32t58.5 -11.5q38 0 62 12t41 47q6 13 11.5 29t5.5 31v459h122v-449q0 -21 -4 -44.5t-11.5 -46t-17.5 -42.5t-23 -35q-14 -16 -34 -28t-40.5 -20.5t-39 -12.5t-30.5 -4h-86q-21 0 -45 6.5t-45.5 18t-39.5 27t-28 34.5 q-11 19 -16.5 36.5t-13.5 31.5zM545 776q0 -29 -22.5 -51.5t-53.5 -22.5t-54.5 22.5t-23.5 51.5q0 31 23.5 53t54.5 22t53.5 -22t22.5 -53zM332 776q0 -29 -23.5 -51.5t-54.5 -22.5q-30 0 -53.5 22.5t-23.5 51.5q0 31 23 53t54 22q32 0 55 -22t23 -53z" />
<glyph unicode="&#xdd;" horiz-adv-x="635" d="M47 668v2h135l138 -302l139 302h129q0 -2 -1 -5.5t-7 -16.5t-18.5 -38.5t-35.5 -70.5t-58.5 -112.5t-86.5 -165.5v-261h-123v256zM447 856l-144 -154h-115l86 154h173z" />
<glyph unicode="&#xde;" horiz-adv-x="645" d="M74 0v664h92v-135h169q70 0 106 -7q51 -7 86 -30t55.5 -64.5t20.5 -90.5q0 -84 -56.5 -143t-203.5 -59h-177v-135h-92zM166 213h179q89 0 126.5 31.5t37.5 89.5q0 41 -22 71t-58 39q-24 7 -86 7h-177v-238z" />
<glyph unicode="&#xdf;" horiz-adv-x="580" d="M540 212q0 -212 -240 -212h-22v120h18q106 0 106 92q0 107 -118 107h-6v115h5q65 0 65 69q0 67 -74 67q-41 0 -56 -19t-15 -59v-611l-137 -66v684q0 196 210 196q91 0 149 -45q62 -49 62 -132q0 -103 -92 -133q145 -28 145 -173z" />
<glyph unicode="&#xe0;" horiz-adv-x="646" d="M124 42q-8 16 -14 28.5t-9.5 24.5t-5.5 26t-2 33q0 60 27.5 99t72.5 62t101 32t113 9q0 1 0.5 6t0.5 6q0 24 -3 42.5t-12 30.5t-25 18t-42 6q-38 0 -69.5 -8t-67.5 -22q-12 -5 -21 -11t-20 -11q-5 0 -11 13.5t-11.5 29t-8.5 28t-3 11.5q45 37 103.5 50t116.5 13 q30 0 59 -4.5t53 -16.5t42 -32.5t26 -53.5q2 -11 6.5 -28t4.5 -19v-286q0 -6 2.5 -19t7.5 -18q4 -5 14 -11t10 -12q-15 -19 -28 -33q-11 -12 -24 -22t-21 -10q-17 0 -34.5 12.5t-25.5 26.5q-3 5 -3.5 12t-5.5 9q-38 -30 -76.5 -47.5t-89.5 -17.5q-22 0 -38.5 3t-31 9 t-28.5 16.5t-29 25.5zM209 159q0 -29 12.5 -53t41.5 -32q24 0 39.5 -0.5t35.5 7.5q1 2 11.5 7.5t23 12t22.5 13t10 11.5v152q-30 0 -64.5 -4t-63.5 -16.5t-48.5 -35.5t-19.5 -62zM452 569h-116l-143 154h173z" />
<glyph unicode="&#xe1;" horiz-adv-x="646" d="M124 42q-8 16 -14 28.5t-9.5 24.5t-5.5 26t-2 33q0 60 27.5 99t72.5 62t101 32t113 9q0 1 0.5 6t0.5 6q0 24 -3 42.5t-12 30.5t-25 18t-42 6q-38 0 -69.5 -8t-67.5 -22q-12 -5 -21 -11t-20 -11q-5 0 -11 13.5t-11.5 29t-8.5 28t-3 11.5q45 37 103.5 50t116.5 13 q30 0 59 -4.5t53 -16.5t42 -32.5t26 -53.5q2 -11 6.5 -28t4.5 -19v-286q0 -6 2.5 -19t7.5 -18q4 -5 14 -11t10 -12q-15 -19 -28 -33q-11 -12 -24 -22t-21 -10q-17 0 -34.5 12.5t-25.5 26.5q-3 5 -3.5 12t-5.5 9q-38 -30 -76.5 -47.5t-89.5 -17.5q-22 0 -38.5 3t-31 9 t-28.5 16.5t-29 25.5zM209 159q0 -29 12.5 -53t41.5 -32q24 0 39.5 -0.5t35.5 7.5q1 2 11.5 7.5t23 12t22.5 13t10 11.5v152q-30 0 -64.5 -4t-63.5 -16.5t-48.5 -35.5t-19.5 -62zM452 723l-144 -154h-115l86 154h173z" />
<glyph unicode="&#xe2;" horiz-adv-x="646" d="M124 42q-8 16 -14 28.5t-9.5 24.5t-5.5 26t-2 33q0 60 27.5 99t72.5 62t101 32t113 9q0 1 0.5 6t0.5 6q0 24 -3 42.5t-12 30.5t-25 18t-42 6q-38 0 -69.5 -8t-67.5 -22q-12 -5 -21 -11t-20 -11q-5 0 -11 13.5t-11.5 29t-8.5 28t-3 11.5q45 37 103.5 50t116.5 13 q30 0 59 -4.5t53 -16.5t42 -32.5t26 -53.5q2 -11 6.5 -28t4.5 -19v-286q0 -6 2.5 -19t7.5 -18q4 -5 14 -11t10 -12q-15 -19 -28 -33q-11 -12 -24 -22t-21 -10q-17 0 -34.5 12.5t-25.5 26.5q-3 5 -3.5 12t-5.5 9q-38 -30 -76.5 -47.5t-89.5 -17.5q-22 0 -38.5 3t-31 9 t-28.5 16.5t-29 25.5zM209 159q0 -29 12.5 -53t41.5 -32q24 0 39.5 -0.5t35.5 7.5q1 2 11.5 7.5t23 12t22.5 13t10 11.5v152q-30 0 -64.5 -4t-63.5 -16.5t-48.5 -35.5t-19.5 -62zM513 569h-92l-99 72l-99 -72h-90l121 154h139z" />
<glyph unicode="&#xe3;" horiz-adv-x="646" d="M124 42q-8 16 -14 28.5t-9.5 24.5t-5.5 26t-2 33q0 60 27.5 99t72.5 62t101 32t113 9q0 1 0.5 6t0.5 6q0 24 -3 42.5t-12 30.5t-25 18t-42 6q-38 0 -69.5 -8t-67.5 -22q-12 -5 -21 -11t-20 -11q-5 0 -11 13.5t-11.5 29t-8.5 28t-3 11.5q45 37 103.5 50t116.5 13 q30 0 59 -4.5t53 -16.5t42 -32.5t26 -53.5q2 -11 6.5 -28t4.5 -19v-286q0 -6 2.5 -19t7.5 -18q4 -5 14 -11t10 -12q-15 -19 -28 -33q-11 -12 -24 -22t-21 -10q-17 0 -34.5 12.5t-25.5 26.5q-3 5 -3.5 12t-5.5 9q-38 -30 -76.5 -47.5t-89.5 -17.5q-22 0 -38.5 3t-31 9 t-28.5 16.5t-29 25.5zM209 159q0 -29 12.5 -53t41.5 -32q24 0 39.5 -0.5t35.5 7.5q1 2 11.5 7.5t23 12t22.5 13t10 11.5v152q-30 0 -64.5 -4t-63.5 -16.5t-48.5 -35.5t-19.5 -62zM517 704q0 -63 -31 -100t-83 -37q-46 0 -99 29q-35 19 -52 19q-26 0 -34 -46h-89 q0 64 31.5 101t82.5 37q47 0 100 -29q35 -19 52 -19q25 0 33 45h89z" />
<glyph unicode="&#xe4;" horiz-adv-x="646" d="M124 42q-8 16 -14 28.5t-9.5 24.5t-5.5 26t-2 33q0 60 27.5 99t72.5 62t101 32t113 9q0 1 0.5 6t0.5 6q0 24 -3 42.5t-12 30.5t-25 18t-42 6q-38 0 -69.5 -8t-67.5 -22q-12 -5 -21 -11t-20 -11q-5 0 -11 13.5t-11.5 29t-8.5 28t-3 11.5q45 37 103.5 50t116.5 13 q30 0 59 -4.5t53 -16.5t42 -32.5t26 -53.5q2 -11 6.5 -28t4.5 -19v-286q0 -6 2.5 -19t7.5 -18q4 -5 14 -11t10 -12q-15 -19 -28 -33q-11 -12 -24 -22t-21 -10q-17 0 -34.5 12.5t-25.5 26.5q-3 5 -3.5 12t-5.5 9q-38 -30 -76.5 -47.5t-89.5 -17.5q-22 0 -38.5 3t-31 9 t-28.5 16.5t-29 25.5zM209 159q0 -29 12.5 -53t41.5 -32q24 0 39.5 -0.5t35.5 7.5q1 2 11.5 7.5t23 12t22.5 13t10 11.5v152q-30 0 -64.5 -4t-63.5 -16.5t-48.5 -35.5t-19.5 -62zM507 643q0 -29 -22.5 -51.5t-53.5 -22.5t-54.5 22.5t-23.5 51.5q0 31 23.5 53t54.5 22 t53.5 -22t22.5 -53zM294 643q0 -29 -23.5 -51.5t-54.5 -22.5q-30 0 -53.5 22.5t-23.5 51.5q0 31 23 53t54 22q32 0 55 -22t23 -53z" />
<glyph unicode="&#xe5;" horiz-adv-x="646" d="M124 42q-8 16 -14 28.5t-9.5 24.5t-5.5 26t-2 33q0 60 27.5 99t72.5 62t101 32t113 9q0 1 0.5 6t0.5 6q0 24 -3 42.5t-12 30.5t-25 18t-42 6q-38 0 -69.5 -8t-67.5 -22q-12 -5 -21 -11t-20 -11q-5 0 -11 13.5t-11.5 29t-8.5 28t-3 11.5q45 37 103.5 50t116.5 13 q30 0 59 -4.5t53 -16.5t42 -32.5t26 -53.5q2 -11 6.5 -28t4.5 -19v-286q0 -6 2.5 -19t7.5 -18q4 -5 14 -11t10 -12q-15 -19 -28 -33q-11 -12 -24 -22t-21 -10q-17 0 -34.5 12.5t-25.5 26.5q-3 5 -3.5 12t-5.5 9q-38 -30 -76.5 -47.5t-89.5 -17.5q-22 0 -38.5 3t-31 9 t-28.5 16.5t-29 25.5zM209 159q0 -29 12.5 -53t41.5 -32q24 0 39.5 -0.5t35.5 7.5q1 2 11.5 7.5t23 12t22.5 13t10 11.5v152q-30 0 -64.5 -4t-63.5 -16.5t-48.5 -35.5t-19.5 -62zM456 697q0 -56 -38 -92t-96 -36q-57 0 -95 36t-38 92q0 55 38 92t95 37q58 0 96 -37t38 -92z M381 697q0 24 -17 40.5t-42 16.5q-24 0 -41 -16.5t-17 -40.5t17 -41t41 -17q25 0 42 17t17 41z" />
<glyph unicode="&#xe6;" horiz-adv-x="834" d="M791 251q0 -23 -2 -42h-310q3 -48 36 -73q29 -22 71 -22q57 0 89 35l97 -78q-31 -38 -82 -60t-104 -22q-116 0 -182 77q-71 -77 -169 -77q-79 0 -133 44q-60 49 -60 135q0 81 61 126q56 41 149 41q59 0 100 -20v25q0 28 -19 46t-55 18q-78 0 -142 -34l-53 92 q91 51 195 51q102 0 156 -58q56 58 139 58q101 0 161 -78q57 -72 57 -184zM659 308q-3 38 -25 62q-26 28 -68 28q-36 0 -58.5 -25.5t-26.5 -64.5h178zM352 147v64q-34 21 -95 21q-79 0 -79 -64q0 -67 79 -67q67 0 95 46z" />
<glyph unicode="&#xe7;" horiz-adv-x="580" d="M243 2q-8 5 -18 9.5t-19 9.5q-31 18 -52.5 45t-34.5 60.5t-19 70.5t-6 75q0 71 18 124.5t51 89.5t78.5 54t100.5 18q46 0 84 -13.5t78 -35.5l9 -4.5t5 -8.5q-5 -10 -12.5 -24t-15 -27t-14 -22.5t-7.5 -9.5t-2 1q-15 10 -28.5 18.5t-27 15.5t-29 11t-34.5 4 q-40 0 -65.5 -17t-40 -44t-20 -61t-5.5 -67t5.5 -67t20.5 -61.5t40.5 -45t65.5 -17.5q50 0 97 28q4 3 16.5 12t16.5 9q3 0 8.5 -10t11.5 -23.5t11.5 -26.5t7.5 -19q2 -5 -5 -9.5t-9 -6.5q-39 -24 -80 -36.5t-87 -12.5q-25 0 -47 3.5t-47 10.5zM413 -101q0 -84 -118 -84 q-72 0 -129 35l20 36q45 -23 88 -23q54 0 54 33q0 25 -31 25q-16 0 -29 -7l-36 13l27 108h55l-17 -75q14 7 39 7q77 0 77 -68z" />
<glyph unicode="&#xe8;" horiz-adv-x="699" d="M282 3q-1 2 -4 2.5t-5 2.5q-30 14 -53 33.5t-42 45.5q-5 6 -8.5 17t-10.5 15q-14 40 -20 77t-6 79q0 61 14 113.5t43.5 90t76 59t112.5 21.5q24 0 49 -4.5t47.5 -14.5t42 -25t32.5 -37q18 -30 27.5 -59t14 -59t5.5 -61.5t1 -64.5h-343q0 -68 30.5 -109t102.5 -41 q20 0 36 2.5t32 7.5t33.5 14t39.5 21q2 1 3 -0.5t1 -2.5q11 -20 18.5 -39t16.5 -40v-4l-5 -3.5t-12.5 -7.5t-15.5 -8t-13 -7q-29 -16 -67 -22t-73 -6q-26 0 -50 3.5t-50 10.5zM375 468q-33 0 -56 -12.5t-37.5 -33.5t-21 -48t-6.5 -57h231q0 27 -5 54t-17.5 48.5t-34 35 t-53.5 13.5zM479 569h-116l-143 154h173z" />
<glyph unicode="&#xe9;" horiz-adv-x="699" d="M282 3q-1 2 -4 2.5t-5 2.5q-30 14 -53 33.5t-42 45.5q-5 6 -8.5 17t-10.5 15q-14 40 -20 77t-6 79q0 61 14 113.5t43.5 90t76 59t112.5 21.5q24 0 49 -4.5t47.5 -14.5t42 -25t32.5 -37q18 -30 27.5 -59t14 -59t5.5 -61.5t1 -64.5h-343q0 -68 30.5 -109t102.5 -41 q20 0 36 2.5t32 7.5t33.5 14t39.5 21q2 1 3 -0.5t1 -2.5q11 -20 18.5 -39t16.5 -40v-4l-5 -3.5t-12.5 -7.5t-15.5 -8t-13 -7q-29 -16 -67 -22t-73 -6q-26 0 -50 3.5t-50 10.5zM375 468q-33 0 -56 -12.5t-37.5 -33.5t-21 -48t-6.5 -57h231q0 27 -5 54t-17.5 48.5t-34 35 t-53.5 13.5zM479 723l-144 -154h-115l86 154h173z" />
<glyph unicode="&#xea;" horiz-adv-x="699" d="M282 3q-1 2 -4 2.5t-5 2.5q-30 14 -53 33.5t-42 45.5q-5 6 -8.5 17t-10.5 15q-14 40 -20 77t-6 79q0 61 14 113.5t43.5 90t76 59t112.5 21.5q24 0 49 -4.5t47.5 -14.5t42 -25t32.5 -37q18 -30 27.5 -59t14 -59t5.5 -61.5t1 -64.5h-343q0 -68 30.5 -109t102.5 -41 q20 0 36 2.5t32 7.5t33.5 14t39.5 21q2 1 3 -0.5t1 -2.5q11 -20 18.5 -39t16.5 -40v-4l-5 -3.5t-12.5 -7.5t-15.5 -8t-13 -7q-29 -16 -67 -22t-73 -6q-26 0 -50 3.5t-50 10.5zM375 468q-33 0 -56 -12.5t-37.5 -33.5t-21 -48t-6.5 -57h231q0 27 -5 54t-17.5 48.5t-34 35 t-53.5 13.5zM539 569h-92l-99 72l-99 -72h-90l121 154h139z" />
<glyph unicode="&#xeb;" horiz-adv-x="699" d="M282 3q-1 2 -4 2.5t-5 2.5q-30 14 -53 33.5t-42 45.5q-5 6 -8.5 17t-10.5 15q-14 40 -20 77t-6 79q0 61 14 113.5t43.5 90t76 59t112.5 21.5q24 0 49 -4.5t47.5 -14.5t42 -25t32.5 -37q18 -30 27.5 -59t14 -59t5.5 -61.5t1 -64.5h-343q0 -68 30.5 -109t102.5 -41 q20 0 36 2.5t32 7.5t33.5 14t39.5 21q2 1 3 -0.5t1 -2.5q11 -20 18.5 -39t16.5 -40v-4l-5 -3.5t-12.5 -7.5t-15.5 -8t-13 -7q-29 -16 -67 -22t-73 -6q-26 0 -50 3.5t-50 10.5zM375 468q-33 0 -56 -12.5t-37.5 -33.5t-21 -48t-6.5 -57h231q0 27 -5 54t-17.5 48.5t-34 35 t-53.5 13.5zM533 643q0 -29 -22.5 -51.5t-53.5 -22.5t-54.5 22.5t-23.5 51.5q0 31 23.5 53t54.5 22t53.5 -22t22.5 -53zM320 643q0 -29 -23.5 -51.5t-54.5 -22.5q-30 0 -53.5 22.5t-23.5 51.5q0 31 23 53t54 22q32 0 55 -22t23 -53z" />
<glyph unicode="&#xec;" horiz-adv-x="355" d="M238 547v-547h-119v547h119zM308 569h-116l-143 154h173z" />
<glyph unicode="&#xed;" horiz-adv-x="355" d="M238 547v-547h-119v547h119zM308 723l-144 -154h-115l86 154h173z" />
<glyph unicode="&#xee;" horiz-adv-x="355" d="M238 547v-547h-119v547h119zM369 569h-92l-99 72l-99 -72h-90l121 154h139z" />
<glyph unicode="&#xef;" horiz-adv-x="355" d="M238 547v-547h-119v547h119zM363 643q0 -29 -22.5 -51.5t-53.5 -22.5t-54.5 22.5t-23.5 51.5q0 31 23.5 53t54.5 22t53.5 -22t22.5 -53zM150 643q0 -29 -23.5 -51.5t-54.5 -22.5q-30 0 -53.5 22.5t-23.5 51.5q0 31 23 53t54 22q32 0 55 -22t23 -53z" />
<glyph unicode="&#xf0;" horiz-adv-x="537" d="M146 664h102q33 -24 59 -46l100 46l22 -46l-82 -38q153 -166 153 -344q0 -115 -66.5 -181t-167.5 -66q-120 0 -188 87q-43 58 -43 158q0 119 60 183t153 64q27 0 48 -5.5t51 -21.5q-16 34 -28.5 52t-37.5 45l-130 -57l-21 47l114 49q-46 40 -98 74zM411 240 q0 87 -42.5 132.5t-105.5 45.5q-62 0 -101.5 -45.5t-39.5 -140.5q0 -88 41 -132t103 -44q60 0 102.5 46.5t42.5 137.5z" />
<glyph unicode="&#xf1;" horiz-adv-x="675" d="M223 544q0 2 1 -3.5t2.5 -14.5t3 -18.5t2.5 -16.5l5 5t4 6q31 32 65 43t77 11q20 0 41.5 -3.5t41 -11.5t35.5 -21.5t26 -33.5q5 0 10 -15.5t9 -35.5t6.5 -39t2.5 -26v-370h-119v365q0 32 -17.5 57t-49.5 32q-47 0 -77 -10.5t-46 -52.5q-2 -2 -4.5 -15t-3.5 -15v-361h-118 v544h103zM531 704q0 -63 -31 -100t-83 -37q-46 0 -99 29q-35 19 -52 19q-26 0 -34 -46h-89q0 64 31.5 101t82.5 37q47 0 100 -29q35 -19 52 -19q25 0 33 45h89z" />
<glyph unicode="&#xf2;" horiz-adv-x="677" d="M241 2q-2 2 -4.5 2.5t-4.5 2.5q-41 18 -67.5 46.5t-42.5 63.5t-22 75t-6 82q0 61 13.5 113t42.5 90t74.5 59.5t110.5 21.5q67 0 114 -21.5t77 -59.5t43.5 -90.5t13.5 -113.5q0 -56 -9 -99.5t-35 -87.5q-9 -8 -14 -19q-38 -42 -85 -60.5t-103 -18.5q-25 0 -48.5 3.5 t-47.5 10.5zM215 273q0 -33 4.5 -66.5t17.5 -61t37.5 -45t64.5 -17.5t64 17.5t37 45t16.5 61.5t3.5 66q0 33 -4 66.5t-16.5 60.5t-37.5 43.5t-67 16.5q-39 0 -62.5 -17.5t-36.5 -45t-17 -60.5t-4 -64zM468 569h-116l-143 154h173z" />
<glyph unicode="&#xf3;" horiz-adv-x="677" d="M241 2q-2 2 -4.5 2.5t-4.5 2.5q-41 18 -67.5 46.5t-42.5 63.5t-22 75t-6 82q0 61 13.5 113t42.5 90t74.5 59.5t110.5 21.5q67 0 114 -21.5t77 -59.5t43.5 -90.5t13.5 -113.5q0 -56 -9 -99.5t-35 -87.5q-9 -8 -14 -19q-38 -42 -85 -60.5t-103 -18.5q-25 0 -48.5 3.5 t-47.5 10.5zM215 273q0 -33 4.5 -66.5t17.5 -61t37.5 -45t64.5 -17.5t64 17.5t37 45t16.5 61.5t3.5 66q0 33 -4 66.5t-16.5 60.5t-37.5 43.5t-67 16.5q-39 0 -62.5 -17.5t-36.5 -45t-17 -60.5t-4 -64zM468 723l-144 -154h-115l86 154h173z" />
<glyph unicode="&#xf4;" horiz-adv-x="677" d="M241 2q-2 2 -4.5 2.5t-4.5 2.5q-41 18 -67.5 46.5t-42.5 63.5t-22 75t-6 82q0 61 13.5 113t42.5 90t74.5 59.5t110.5 21.5q67 0 114 -21.5t77 -59.5t43.5 -90.5t13.5 -113.5q0 -56 -9 -99.5t-35 -87.5q-9 -8 -14 -19q-38 -42 -85 -60.5t-103 -18.5q-25 0 -48.5 3.5 t-47.5 10.5zM215 273q0 -33 4.5 -66.5t17.5 -61t37.5 -45t64.5 -17.5t64 17.5t37 45t16.5 61.5t3.5 66q0 33 -4 66.5t-16.5 60.5t-37.5 43.5t-67 16.5q-39 0 -62.5 -17.5t-36.5 -45t-17 -60.5t-4 -64zM528 569h-92l-99 72l-99 -72h-90l121 154h139z" />
<glyph unicode="&#xf5;" horiz-adv-x="677" d="M241 2q-2 2 -4.5 2.5t-4.5 2.5q-41 18 -67.5 46.5t-42.5 63.5t-22 75t-6 82q0 61 13.5 113t42.5 90t74.5 59.5t110.5 21.5q67 0 114 -21.5t77 -59.5t43.5 -90.5t13.5 -113.5q0 -56 -9 -99.5t-35 -87.5q-9 -8 -14 -19q-38 -42 -85 -60.5t-103 -18.5q-25 0 -48.5 3.5 t-47.5 10.5zM215 273q0 -33 4.5 -66.5t17.5 -61t37.5 -45t64.5 -17.5t64 17.5t37 45t16.5 61.5t3.5 66q0 33 -4 66.5t-16.5 60.5t-37.5 43.5t-67 16.5q-39 0 -62.5 -17.5t-36.5 -45t-17 -60.5t-4 -64zM532 704q0 -63 -31 -100t-83 -37q-46 0 -99 29q-35 19 -52 19 q-26 0 -34 -46h-89q0 64 31.5 101t82.5 37q47 0 100 -29q35 -19 52 -19q25 0 33 45h89z" />
<glyph unicode="&#xf6;" horiz-adv-x="677" d="M241 2q-2 2 -4.5 2.5t-4.5 2.5q-41 18 -67.5 46.5t-42.5 63.5t-22 75t-6 82q0 61 13.5 113t42.5 90t74.5 59.5t110.5 21.5q67 0 114 -21.5t77 -59.5t43.5 -90.5t13.5 -113.5q0 -56 -9 -99.5t-35 -87.5q-9 -8 -14 -19q-38 -42 -85 -60.5t-103 -18.5q-25 0 -48.5 3.5 t-47.5 10.5zM215 273q0 -33 4.5 -66.5t17.5 -61t37.5 -45t64.5 -17.5t64 17.5t37 45t16.5 61.5t3.5 66q0 33 -4 66.5t-16.5 60.5t-37.5 43.5t-67 16.5q-39 0 -62.5 -17.5t-36.5 -45t-17 -60.5t-4 -64zM522 643q0 -29 -22.5 -51.5t-53.5 -22.5t-54.5 22.5t-23.5 51.5 q0 31 23.5 53t54.5 22t53.5 -22t22.5 -53zM309 643q0 -29 -23.5 -51.5t-54.5 -22.5q-30 0 -53.5 22.5t-23.5 51.5q0 31 23 53t54 22q32 0 55 -22t23 -53z" />
<glyph unicode="&#xf7;" horiz-adv-x="530" d="M217 417v94h96v-94h-96zM492 290h-456v76h456v-76zM217 145v92h96v-92h-96z" />
<glyph unicode="&#xf8;" horiz-adv-x="677" d="M241 2q-2 2 -4.5 2.5t-4.5 2.5q-41 18 -67.5 46.5t-42.5 63.5t-22 75t-6 82q0 61 13.5 113t42.5 90t74.5 59.5t110.5 21.5q67 0 114 -21.5t77 -59.5t43.5 -90.5t13.5 -113.5q0 -56 -9 -99.5t-35 -87.5q-9 -8 -14 -19q-38 -42 -85 -60.5t-103 -18.5q-25 0 -48.5 3.5 t-47.5 10.5zM215 273q0 -33 4.5 -66.5t17.5 -61t37.5 -45t64.5 -17.5t64 17.5t37 45t16.5 61.5t3.5 66q0 33 -4 66.5t-16.5 60.5t-37.5 43.5t-67 16.5q-39 0 -62.5 -17.5t-36.5 -45t-17 -60.5t-4 -64zM457.589 547.572h105.942l-344.06 -548.024h-104.934z" />
<glyph unicode="&#xf9;" horiz-adv-x="668" d="M238 547v-365q0 -42 23 -67.5t65 -25.5q27 0 54.5 11t37.5 40q1 4 3 11t3.5 14t3 12.5t1.5 6.5v363h119v-546h-107l-7 51l-2 4q-15 -20 -31 -33t-34 -20.5t-39 -10.5t-46 -3q-58 0 -94.5 19.5t-55.5 75.5q-4 11 -8 29.5t-4 29.5v404h118zM463 569h-116l-143 154h173z" />
<glyph unicode="&#xfa;" horiz-adv-x="668" d="M238 547v-365q0 -42 23 -67.5t65 -25.5q27 0 54.5 11t37.5 40q1 4 3 11t3.5 14t3 12.5t1.5 6.5v363h119v-546h-107l-7 51l-2 4q-15 -20 -31 -33t-34 -20.5t-39 -10.5t-46 -3q-58 0 -94.5 19.5t-55.5 75.5q-4 11 -8 29.5t-4 29.5v404h118zM463 723l-144 -154h-115l86 154 h173z" />
<glyph unicode="&#xfb;" horiz-adv-x="668" d="M238 547v-365q0 -42 23 -67.5t65 -25.5q27 0 54.5 11t37.5 40q1 4 3 11t3.5 14t3 12.5t1.5 6.5v363h119v-546h-107l-7 51l-2 4q-15 -20 -31 -33t-34 -20.5t-39 -10.5t-46 -3q-58 0 -94.5 19.5t-55.5 75.5q-4 11 -8 29.5t-4 29.5v404h118zM524 569h-92l-99 72l-99 -72h-90 l121 154h139z" />
<glyph unicode="&#xfc;" horiz-adv-x="668" d="M238 547v-365q0 -42 23 -67.5t65 -25.5q27 0 54.5 11t37.5 40q1 4 3 11t3.5 14t3 12.5t1.5 6.5v363h119v-546h-107l-7 51l-2 4q-15 -20 -31 -33t-34 -20.5t-39 -10.5t-46 -3q-58 0 -94.5 19.5t-55.5 75.5q-4 11 -8 29.5t-4 29.5v404h118zM518 643q0 -29 -22.5 -51.5 t-53.5 -22.5t-54.5 22.5t-23.5 51.5q0 31 23.5 53t54.5 22t53.5 -22t22.5 -53zM305 643q0 -29 -23.5 -51.5t-54.5 -22.5q-30 0 -53.5 22.5t-23.5 51.5q0 31 23 53t54 22q32 0 55 -22t23 -53z" />
<glyph unicode="&#xfd;" horiz-adv-x="615" d="M94 -101h12t19 0.5t19 0.5h12q22 1 36 9.5t22.5 22t14 31t11.5 35.5q0 1 -1 4.5t-1 4.5q-6 16 -19.5 55t-30.5 90.5t-36.5 109.5t-38 112.5t-33.5 99.5t-24 70h139l115 -402q15 51 28.5 100t27 98.5t27.5 100t29 103.5h137l-163 -488q-4 -20 -11.5 -39t-14.5 -38 q-9 -24 -20.5 -53.5t-26.5 -56.5t-36 -48t-49 -28q-20 -5 -37.5 -6t-37.5 -1h-18.5t-23 0.5t-19.5 1.5t-8 3v108v0zM437 723l-144 -154h-115l86 154h173z" />
<glyph unicode="&#xfe;" horiz-adv-x="537" d="M63 -185v849h86v-234q35 35 60 47q35 15 78 15q64 0 113 -32t74.5 -89.5t25.5 -126.5q0 -75 -28.5 -133t-80.5 -90t-110 -32q-39 0 -73 15q-24 12 -59 46v-235h-86zM141 238q0 -93 39 -137t95 -44t97 45.5t41 142.5q0 92 -40 137.5t-94 45.5q-56 0 -97 -48.5t-41 -141.5z " />
<glyph unicode="&#xff;" horiz-adv-x="615" d="M94 -101h12t19 0.5t19 0.5h12q22 1 36 9.5t22.5 22t14 31t11.5 35.5q0 1 -1 4.5t-1 4.5q-6 16 -19.5 55t-30.5 90.5t-36.5 109.5t-38 112.5t-33.5 99.5t-24 70h139l115 -402q15 51 28.5 100t27 98.5t27.5 100t29 103.5h137l-163 -488q-4 -20 -11.5 -39t-14.5 -38 q-9 -24 -20.5 -53.5t-26.5 -56.5t-36 -48t-49 -28q-20 -5 -37.5 -6t-37.5 -1h-18.5t-23 0.5t-19.5 1.5t-8 3v108v0zM491 643q0 -29 -22.5 -51.5t-53.5 -22.5t-54.5 22.5t-23.5 51.5q0 31 23.5 53t54.5 22t53.5 -22t22.5 -53zM278 643q0 -29 -23.5 -51.5t-54.5 -22.5 q-30 0 -53.5 22.5t-23.5 51.5q0 31 23 53t54 22q32 0 55 -22t23 -53z" />
<glyph unicode="&#x152;" horiz-adv-x="1044" d="M985 0h-466v60q-54 -71 -166 -71q-139 0 -221 97q-80 94 -80 249t81 250.5t220 95.5q110 0 166 -71v60h452v-131h-333v-116h189v-130h-189v-162h347v-131zM511 335q0 96 -37 151q-41 61 -121 61t-121 -61q-37 -55 -37 -151t37 -151q41 -61 121 -61t121 61q37 55 37 151z " />
<glyph unicode="&#x153;" horiz-adv-x="851" d="M808 251q0 -23 -2 -42h-310q3 -48 36 -73q29 -22 70 -22q58 0 90 35l96 -78q-30 -38 -81 -60t-105 -22q-110 0 -170 72q-50 -72 -158 -72q-102 0 -168 73.5t-66 188.5t66 188.5t168 73.5q107 0 159 -74q62 74 157 74q101 0 161 -78q57 -72 57 -184zM676 308q-3 38 -25 62 q-26 28 -68 28q-36 0 -58.5 -25.5t-26.5 -64.5h178zM371 251q0 60 -24.5 97.5t-72.5 37.5q-47 0 -71.5 -37t-24.5 -98t24 -96q25 -38 72 -38t73 41q24 36 24 93z" />
<glyph unicode="&#x178;" horiz-adv-x="635" d="M47 668v2h135l138 -302l139 302h129q0 -2 -1 -5.5t-7 -16.5t-18.5 -38.5t-35.5 -70.5t-58.5 -112.5t-86.5 -165.5v-261h-123v256zM501 776q0 -29 -22.5 -51.5t-53.5 -22.5t-54.5 22.5t-23.5 51.5q0 31 23.5 53t54.5 22t53.5 -22t22.5 -53zM288 776q0 -29 -23.5 -51.5 t-54.5 -22.5q-30 0 -53.5 22.5t-23.5 51.5q0 31 23 53t54 22q32 0 55 -22t23 -53z" />
<glyph unicode="&#x2c6;" d="M437 569h-92l-99 72l-99 -72h-90l121 154h139z" />
<glyph unicode="&#x2dc;" d="M444 704q0 -63 -31 -100t-83 -37q-46 0 -99 29q-35 19 -52 19q-26 0 -34 -46h-89q0 64 31.5 101t82.5 37q47 0 100 -29q35 -19 52 -19q25 0 33 45h89z" />
<glyph unicode="&#x2013;" d="M448 286h-394v123h394v-123z" />
<glyph unicode="&#x2014;" horiz-adv-x="613" d="M559 286h-505v123h505v-123z" />
<glyph unicode="&#x2018;" horiz-adv-x="278" d="M218 670l-14 -269h-161l81 269h94z" />
<glyph unicode="&#x2019;" horiz-adv-x="278" d="M235 670l-81 -269h-94l14 269h161z" />
<glyph unicode="&#x201a;" horiz-adv-x="278" d="M235 162l-81 -269h-94l14 269h161z" />
<glyph unicode="&#x201c;" horiz-adv-x="536" d="M476 670l-14 -269h-161l81 269h94zM218 670l-14 -269h-161l81 269h94z" />
<glyph unicode="&#x201d;" horiz-adv-x="536" d="M494 670l-81 -269h-94l13 269h162zM235 670l-81 -269h-94l14 269h161z" />
<glyph unicode="&#x201e;" horiz-adv-x="536" d="M494 162l-81 -269h-94l13 269h162zM235 162l-81 -269h-94l14 269h161z" />
<glyph unicode="&#x2022;" horiz-adv-x="485" d="M420 350q0 -72 -51 -122t-127 -50q-75 0 -126.5 50t-51.5 122q0 73 51.5 124t126.5 51q76 0 127 -51t51 -124z" />
<glyph unicode="&#x2026;" horiz-adv-x="807" d="M766 79q0 -36 -28 -63t-65 -27q-38 0 -65.5 27t-27.5 63q0 37 27.5 63.5t65.5 26.5q37 0 65 -26.5t28 -63.5zM497 79q0 -36 -28 -63t-65 -27q-38 0 -65.5 27t-27.5 63q0 37 27.5 63.5t65.5 26.5q37 0 65 -26.5t28 -63.5zM228 79q0 -36 -28 -63t-65 -27q-38 0 -65.5 27 t-27.5 63q0 37 27.5 63.5t65.5 26.5q37 0 65 -26.5t28 -63.5z" />
<glyph unicode="&#x2039;" horiz-adv-x="372" d="M332 0h-141l-161 251l161 251h141l-156 -250z" />
<glyph unicode="&#x203a;" horiz-adv-x="372" d="M342 252l-161 -252h-141l156 251l-156 251h141z" />
<glyph unicode="&#x20ac;" horiz-adv-x="537" d="M374 601q-81 0 -134 -37q-32 -22 -58 -63q-27 -40 -33 -78h324l-14 -60h-315q-3 -10 -3 -18q0 -35 3 -42h303l-13 -60h-281q21 -104 95 -148q56 -32 118 -32q89 0 137 45v-93q-58 -26 -129 -26q-215 0 -289 170q-15 34 -25 84h-74l14 60h50q-2 19 -2 41v19h-62l14 60h54 q29 148 154 212q75 40 167 40q88 0 147 -36l-19 -85q-56 47 -129 47z" />
<glyph unicode="&#x2122;" horiz-adv-x="821" d="M781 293h-88v187q0 6 0.5 20.5t0.5 21.5q-1 -6 -17 -37l-102 -204l-100 204q-4 9 -17 36q2 -27 2 -41v-187h-88v377h93l84 -163q12 -23 28 -62q6 18 27 62l83 163h94v-377zM307 592h-97v-299h-94v299h-97v78h288v-78z" />
<glyph unicode="&#x25fc;" horiz-adv-x="545" d="M0 545h545v-545h-545v545z" />
</font>
</defs>
</svg>
