<?xml version="1.0" standalone="no"?>
<!DOCTYPE svg PUBLIC "-//W3C//DTD SVG 1.1//EN" "http://www.w3.org/Graphics/SVG/1.1/DTD/svg11.dtd" >
<svg xmlns="http://www.w3.org/2000/svg" xmlns:xlink="http://www.w3.org/1999/xlink" version="1.1">
<metadata></metadata>
<defs>
<font id="roadgeek_2005_series_1wRg" horiz-adv-x="377" >
<font-face units-per-em="1000" ascent="800" descent="-200" />
<missing-glyph horiz-adv-x="163" />
<glyph horiz-adv-x="0" />
<glyph horiz-adv-x="333" />
<glyph horiz-adv-x="306" d="M272 723q-17 -154 -122 -154q-106 0 -118 154h53q13 -77 67 -77q52 0 66 77h54z" />
<glyph horiz-adv-x="167" d="M134 631q0 -24 -15 -43t-36 -19q-19 0 -34.5 18.5t-15.5 43.5t15.5 43.5t34.5 18.5q21 0 36 -18.5t15 -43.5z" />
<glyph horiz-adv-x="242" d="M209 677q0 -47 -25 -77.5t-64 -30.5q-37 0 -62 30.5t-25 77.5t25 77.5t62 30.5q39 0 64 -30.5t25 -77.5zM164 677q0 23 -13 38t-31 15q-17 0 -29.5 -15t-12.5 -38t12.5 -38.5t29.5 -15.5q18 0 31 15.5t13 38.5z" />
<glyph unicode="&#xa;" horiz-adv-x="390" d="M357 723l-113 -154h-63l75 154h101zM209 723l-113 -154h-63l75 154h101z" />
<glyph horiz-adv-x="223" d="M190 -144q-47 -41 -86 -41q-71 0 -71 75q0 60 66 110h39q-46 -56 -46 -96q0 -39 30 -39q20 0 51 23z" />
<glyph horiz-adv-x="306" d="M273 723l-80 -154h-80l-80 154h61l59 -85l61 85h59z" />
<glyph unicode="&#xd;" horiz-adv-x="317" d="M117 544h84v-544h-84v544v0z" />
<glyph horiz-adv-x="349" d="M244 807h73l-213 -836h-72z" />
<glyph horiz-adv-x="588" d="M35 457v82h47q1 30 1 57t5 56q4 24 14.5 39.5t25 24t31 11.5t33.5 3h29.5t19.5 -4v-75q-9 0 -17.5 1.5t-16.5 1.5q-37 0 -37 -37v-78h66v-82h-67v-457h-86v457h-48zM472 544v-544h-84v544h84zM378 685q0 29 11.5 44.5t42.5 15.5t40 -18t9 -43t-11.5 -41.5t-39.5 -16.5 q-30 0 -41 16t-11 43z" />
<glyph horiz-adv-x="567" d="M35 457v82h47q1 30 1 57t5 56q4 24 14.5 39.5t25 24t31 11.5t33.5 3h29.5t19.5 -4v-75q-9 0 -17.5 1.5t-16.5 1.5q-37 0 -37 -37v-78h66v-82h-67v-457h-86v457h-48zM458 726v-614q0 -11 4 -17t11 -9t15.5 -3.5t16.5 -0.5v-82q0 -3 -6.5 -4t-15 -2t-16.5 -1h-12 q-48 0 -65.5 23.5t-17.5 72.5v637h86z" />
<glyph horiz-adv-x="365" d="M174 670v-585h138v-85h-226v670h88zM184.385 544.517h49.1797l-143.499 -272.986h-48.5068z" />
<glyph horiz-adv-x="296" d="M187 726v-614q0 -11 4 -17t11 -9t15.5 -3.5t16.5 -0.5v-82q0 -3 -6.5 -4t-15 -2t-16.5 -1h-12q-48 0 -65.5 23.5t-17.5 72.5v637h86zM212.574 544.524h71.9756l-210.01 -245.024h-70.9893z" />
<glyph horiz-adv-x="361" d="M219 583h-163v87h256v-84l-172 -501h177v-85h-273v80zM300 854l-80 -154h-80l-80 154h61l59 -85l61 85h59z" />
<glyph horiz-adv-x="301" d="M179 464h-137v79h220v-94l-137 -369h141v-80h-231v83zM272 723l-80 -154h-80l-80 154h61l59 -85l61 85h59z" />
<glyph unicode=" "  horiz-adv-x="163" />
<glyph unicode="&#x09;" horiz-adv-x="163" />
<glyph unicode="&#xa0;" horiz-adv-x="163" />
<glyph unicode="!" horiz-adv-x="248" d="M72 72q5 20 18.5 31t33.5 11h15q21 -8 29 -25.5t8 -37.5q0 -15 -4 -31t-19 -24q-3 -2 -8 -4.5t-6 -2.5h-30q-1 1 -3 2t-3.5 1.5t-2.5 1.5q-18 10 -23 24.5t-5 34.5v19zM76 669h97l-13 -474h-71z" />
<glyph unicode="&#x22;" horiz-adv-x="368" d="M81 682h89l-53 -204h-51zM212 682h90l-56 -204h-48z" />
<glyph unicode="#" horiz-adv-x="509" d="M67 250l8 78h70l8 137h-67l8 74h69l14 131h63l-7 -130h76l13 130h69l-10 -131h61l-8 -74h-62l-11 -137h64l-7 -78h-69l-13 -133h-70l13 132h-74q-5 -46 -7.5 -71.5t-4.5 -39.5q-2 -16 -2 -21h-67l11 133h-68zM223 464l-12 -135h77l12 135h-77z" />
<glyph unicode="$" horiz-adv-x="401" d="M161 37q-8 0 -25 4t-34 10.5t-29.5 14.5t-12.5 16v6l26 74h2q1 0 7.5 -5t14.5 -11.5t16 -12.5t11 -8q11 -8 24.5 -10t26.5 -2h18q27 6 36.5 29t9.5 47q0 32 -9.5 55t-25 41t-35 32.5t-39 30.5t-37.5 34.5t-30 45.5q-8 17 -8.5 35.5t-0.5 35.5q0 27 4.5 50.5t15 43 t28.5 34t46 23.5v76h78v-76q3 -1 9.5 -2.5t14 -3.5t14.5 -3.5t10 -2.5q8 -2 21.5 -7.5t13.5 -13.5q0 -9 -3 -16l-4 -12t-6.5 -19t-6.5 -19l-4 -12h-1q-6 0 -11.5 6.5t-10.5 9.5q-15 8 -30 13.5t-32 5.5q-31 0 -46 -21t-15 -49q0 -29 15.5 -51t38 -40.5t47 -36t41.5 -36.5 q24 -28 35.5 -62.5t11.5 -72.5q0 -62 -22 -102.5t-80 -65.5v-81h-78v81v0z" />
<glyph unicode="%" horiz-adv-x="666" d="M627 198q0 -95 -29 -150q-30 -59 -88 -59q-57 0 -87 58q-27 53 -27 149q0 97 28 151q29 59 88 59q115 0 115 -208zM509 670l-288 -670h-68l287 670h69zM270 473q0 -95 -28 -150q-31 -59 -88 -59q-58 0 -88 58q-27 53 -27 149q0 97 28 151q30 59 88 59q115 0 115 -208z M563 196q0 135 -52 135q-50 0 -50 -133q0 -136 51 -136t51 134zM207 471q0 135 -52 135t-52 -133q0 -136 52 -136t52 134z" />
<glyph unicode="&#x26;" horiz-adv-x="486" d="M170 1q-1 3 -9.5 6.5t-10.5 5.5q-21 15 -35 36t-21.5 45t-10.5 49.5t-3 50.5q0 13 1.5 33t5.5 41t11 40t17 29q4 4 10.5 8.5l13 9t11 8t4.5 4.5q-36 25 -47 62.5t-11 79.5q0 35 7.5 66t24.5 54t43.5 36.5t65.5 13.5q6 0 20.5 -1t28.5 -4t23.5 -8t6.5 -13l-14 -62 q-1 -5 -6 -5q-6 0 -20.5 6t-31.5 6q-20 0 -33 -9t-20 -23t-9.5 -31.5t-2.5 -33.5q0 -14 3 -30.5t9.5 -30.5t18.5 -24t30 -10h65v88h82v-89h52v-83h-52v-154q0 -1 -1 -7t-2.5 -14t-2.5 -16t-2 -12q-12 -59 -48 -93t-98 -34q-17 0 -31.5 2t-31.5 7zM163 201q0 -18 2 -41.5 t9.5 -43.5t22 -34t39.5 -14t39 16t20.5 38.5t7.5 47t1 41.5v21.5t0.5 33.5t0.5 33.5v21.5h-84q-21 0 -32.5 -13.5t-17 -32.5t-7 -39.5t-1.5 -34.5z" />
<glyph unicode="'" horiz-adv-x="221" d="M71 682h93l-53 -233h-54z" />
<glyph unicode="(" horiz-adv-x="213" d="M45 163q-2 13 -3.5 40.5t-2 57.5t-1 57.5t-0.5 41.5l16 231l19 116q3 7 5.5 20.5t5 26.5t6 23t8.5 11l58 -19v-7t-2 -9l-33 -262q0 -33 -2.5 -72t-2.5 -98q0 -19 1 -48t2.5 -62t3.5 -66.5t5 -62.5q1 -4 3 -20t5.5 -37.5t7 -45.5t6 -44t4.5 -33t2 -12l-55 -16h-10 q-3 4 -4.5 14t-3 22t-4 25t-6.5 22z" />
<glyph unicode=")" horiz-adv-x="209" d="M56 -103q0 1 1.5 7.5t2.5 13.5t2 13t1 8q1 5 1.5 13.5t3.5 13.5l23 209q0 2 1 16.5t1.5 33t1.5 36.5t1 29v47v37l-17 228l-11 93q-1 2 -1.5 5t-0.5 5t-1.5 10t-3 18.5t-3 20.5t-2.5 15v2l58 19h3q3 0 4 -5l28 -139l23 -226v-176l-23 -229l-28 -136q0 -1 -0.5 -1.5 t-0.5 -1.5q-1 -1 -1 -2h-1h-2q-13 4 -28.5 8t-28.5 10l-3 3v1v1z" />
<glyph unicode="*" horiz-adv-x="338" d="M81 466q0 9 10 18.5t15 16.5q2 2 6 7t8.5 10t8 10t5.5 7v1v1l-2 2q-1 1 -2 1l-77 11v1v2q1 2 2.5 9t2.5 9q2 5 5 14t5 17l6 20h7l65 -35q2 -1 2 1.5v3.5v2l-14 93h73q0 -23 -5.5 -45t-5.5 -45q0 -2 0.5 -4t0.5 -3q14 7 32 17.5t34 16.5h3h2q2 -6 5.5 -16l7 -20t6 -19 t2.5 -15v-1q0 -1 -0.5 -1t-0.5 -1l-1 -1l-72 -11q-2 0 -5 -3v-1v-1q14 -16 27 -31t26 -31q2 -2 2.5 -2t0.5 -3q0 -2 -8.5 -9t-19 -15.5t-20 -15t-11.5 -6.5h-1q-2 3 -6 14t-6 14q-1 2 -3.5 10t-5.5 16.5t-7 16.5t-7 10q-2 -4 -2.5 -10.5t-4.5 -8.5l-25 -62h-1q-2 0 -11 6 t-19.5 14t-18.5 15t-8 9z" />
<glyph unicode="+" horiz-adv-x="425" d="M54 300v81h117v168h78v-168h122v-81h-122v-167h-78v167h-117z" />
<glyph unicode="," horiz-adv-x="221" d="M71 96h93l-53 -233h-54z" />
<glyph unicode="-" horiz-adv-x="279" d="M224 435v-88h-169v88h169z" />
<glyph unicode="." horiz-adv-x="224" d="M63 53q0 23 11 43t37 20t38 -20.5t12 -43.5q0 -11 -3 -23t-9 -21.5t-15 -15.5t-21 -6q-29 0 -39.5 21t-10.5 46z" />
<glyph unicode="/" horiz-adv-x="349" d="M244 807h73l-213 -836h-72z" />
<glyph unicode="0" horiz-adv-x="477" d="M67 340q0 26 2 61t7.5 73t17 75t30 66.5t46 47.5t66.5 18q23 0 42 -6.5t39 -20.5q33 -28 51.5 -67t28 -82t11.5 -87.5t2 -83.5q0 -35 -2.5 -74.5t-9.5 -77.5t-19 -73t-31 -61.5t-46.5 -42t-64.5 -15.5q-40 0 -68.5 18t-47.5 47.5t-29.5 67t-16 76.5t-7 76t-1.5 65z M155 336q0 -18 0.5 -29.5t0.5 -20.5t0.5 -17t0.5 -18q0 -17 2.5 -46.5t11 -58t23.5 -50t41 -21.5q27 0 43.5 22.5t25 55.5t11.5 71t4 69v69.5t-3 71t-10.5 69.5t-23.5 65q-6 12 -19.5 20t-26.5 8q-31 0 -47.5 -30t-24 -72t-8.5 -86t-1 -72z" />
<glyph unicode="1" horiz-adv-x="303" d="M135 527q-3 -1 -9.5 -9t-13.5 -17.5t-13 -18t-7 -10.5q-2 -2 -5 -6t-5 -7l-6 -8h-2l-42 42q-1 0 -2.5 2.5t-2.5 4.5q-1 4 2.5 9t7.5 7l76 113q1 3 5 10t9 14t9.5 12t6.5 5h74v-670h-82v527v0z" />
<glyph unicode="2" horiz-adv-x="364" d="M33 88q0 14 11.5 25t16.5 23l53 79q8 20 21 38.5t23 40.5q26 49 45.5 99.5t19.5 107.5v15.5t-3 31t-11.5 30.5t-25.5 14h-41q-10 0 -21.5 -9t-22 -19.5t-18 -19t-9.5 -8.5q0 1 -1.5 1t-1.5 2l-32 60v7q24 32 60 52t77 20q91 0 124 -86q4 -10 7 -20t7 -19v-102 q0 -1 -2 -6.5t-4 -13t-4.5 -15t-3.5 -11.5q-11 -38 -28 -74.5t-37 -71.5q-2 -5 -3 -11t-6 -8l-77 -115q-4 -12 -14.5 -20t-12.5 -21h192v-84h-268q-3 19 -5 36q-2 14 -3.5 29t-1.5 23z" />
<glyph unicode="3" horiz-adv-x="380" d="M33 34q0 5 4 16.5t9 25.5q5 15 13 34q22 -13 43 -25t47 -12q25 0 40.5 11.5t23 29.5t10 40t2.5 42q0 43 -9 66.5t-24 34.5t-35.5 13.5t-44.5 3.5v79q53 5 78.5 26t25.5 77q0 15 -2.5 32.5t-9.5 32t-20 24t-34 9.5q-14 0 -21.5 -4t-18.5 -6l-40 -25h-4q-5 0 -10 20.5 t-16 48.5q-2 8 11 17t32.5 16.5t41 12.5t36.5 5q23 0 43.5 -3.5t43.5 -24.5q20 -19 34.5 -44.5t14.5 -54.5v-88q0 -32 -20 -57.5t-43 -43.5v-3q25 -11 40.5 -29t24 -40t11.5 -47.5t3 -50.5q0 -38 -7 -74.5t-24.5 -65t-46.5 -46t-73 -17.5q-14 0 -36 3t-42.5 9t-35.5 14 t-15 18z" />
<glyph unicode="4" horiz-adv-x="435" d="M64 144l-16 68v7q0 6 12 38.5t30 78.5t40 99.5t41.5 102t34.5 84.5l20 48h101v-440h54v-86h-54v-144h-90v144h-173zM134 252q0 -5 -3.5 -11t-3.5 -10h108v301q-1 -3 -4 -13t-5 -13q-15 -41 -30 -83.5t-30 -82.5q-8 -22 -16.5 -42t-15.5 -46z" />
<glyph unicode="5" horiz-adv-x="386" d="M96 1q-3 2 -11 6t-16.5 9t-15 11t-6.5 12q0 3 5 14t11 23t11.5 21.5t6.5 9.5q19 -14 37 -24.5t43 -10.5q29 0 44 18.5t22 43.5t7.5 50t0.5 39q0 26 -0.5 53t-11.5 56q-7 17 -19.5 29.5t-34.5 12.5q-25 0 -43 -14.5t-26 -37.5h-4q-2 0 -8.5 6t-13.5 13.5t-12.5 15 t-5.5 10.5v32.5t5 33.5l23 236h213v-89h-141q0 5 -1.5 -9t-3.5 -35.5t-4.5 -46t-4.5 -40.5q-2 -6 -2 -10v-10q11 13 26 19t32 6q39 0 63.5 -22t39 -55.5t19.5 -73.5t5 -76q0 -42 -7 -84.5t-25 -76.5t-49.5 -55.5t-80.5 -21.5q-15 0 -32.5 2t-34.5 10z" />
<glyph unicode="6" horiz-adv-x="436" d="M67 313q0 33 1 69t5.5 72t12.5 70t23 63q22 43 51 67.5t79 24.5q10 0 25.5 -1.5t30 -5t25.5 -11t11 -19.5l-19 -67q-7 -2 -17 5.5t-18 10.5q-8 4 -16.5 4.5t-16.5 0.5q-26 0 -42.5 -16t-26.5 -40.5t-15 -53t-6.5 -53t-1 -41.5t0.5 -18q4 7 10.5 17t14.5 19t17.5 15.5 t19.5 6.5h51q14 0 27 -8.5t24 -19.5t19 -21.5t11 -13.5q17 -35 23 -71t6 -78q0 -36 -6.5 -76t-23.5 -74.5t-46.5 -57t-75.5 -22.5q-38 0 -64 16.5t-43.5 43.5t-27.5 61t-15 70t-6 70.5t-1 61.5zM157 214q0 -17 2 -41t9 -46t21 -38t37 -16q22 0 34.5 16.5t19 39.5t8 47 t1.5 38q0 15 -1 39t-7 47t-19 39.5t-36 16.5t-36.5 -16.5t-21 -39t-9.5 -46.5t-2 -40z" />
<glyph unicode="7" horiz-adv-x="363" d="M40 581v89h268l8 -4l1 -10t2 -24t2 -28.5t1 -23.5q3 -3 -6 -18q-17 -23 -31 -45t-25 -45q-30 -66 -39.5 -135.5t-13.5 -144.5q0 -11 -1 -38t-2 -58t-1.5 -58t-0.5 -38h-84q0 74 2 150.5t13.5 151.5t36 145.5t69.5 133.5h-199z" />
<glyph unicode="8" horiz-adv-x="454" d="M67 192q0 22 2 47.5t9.5 49t21 43t37.5 30.5q-18 16 -29.5 31.5t-17.5 32.5t-8.5 36.5t-2.5 43.5q0 35 8 66.5t25 55.5t45 38t67 14q28 0 55 -10t48 -28t33.5 -43t12.5 -55v-76q0 -30 -17 -59.5t-42 -46.5q23 -14 37.5 -33.5t22.5 -42.5t10.5 -47.5t2.5 -48.5 q0 -39 -8.5 -75t-27 -64t-49.5 -45t-76 -17q-47 0 -77.5 16.5t-48.5 44.5t-25.5 65t-7.5 77zM153 191q0 -19 2.5 -40t10.5 -39t22 -30t38 -12q22 0 36 12t21.5 30t10 39t2.5 39t-2.5 39.5t-10 41t-22 32.5t-37.5 13t-36.5 -13t-21.5 -32.5t-10.5 -41t-2.5 -38.5zM164 495 q0 -15 2 -32.5t9 -33t18.5 -25.5t31.5 -10q19 0 31.5 10.5t19 26t9 33.5t2.5 33t-1.5 30.5t-6 30t-14 26t-24.5 18.5q-26 0 -41.5 -9t-23.5 -24t-10 -34.5t-2 -39.5z" />
<glyph unicode="9" horiz-adv-x="433" d="M97 27l21 69l2 1q7 0 13.5 -6t12.5 -9q12 -5 22.5 -7t23.5 -2q35 0 54 28.5t27.5 67.5t9.5 79.5t1 65.5q-5 -13 -10 -27t-14.5 -25.5t-24 -19t-37.5 -7.5q-40 0 -66.5 22.5t-42.5 55.5t-22.5 71t-6.5 70q0 34 8 73.5t26 73.5t47.5 57t72.5 23q48 0 77.5 -29t46 -69.5 t22.5 -85t6 -74.5v-148q0 -2 -1.5 -14.5t-3.5 -30l-4 -35t-3 -27.5q-3 -19 -8 -34.5t-12 -30.5t-14.5 -29.5t-14.5 -30.5q-15 -15 -27.5 -25t-25 -16.5t-26.5 -9t-32 -2.5q-6 0 -21.5 2t-32.5 6t-30 10t-13 14v5zM143 457q0 -16 1.5 -39t8 -44t19.5 -36t36 -15t36.5 15 t20 37t8.5 45t2 40q0 15 -1.5 38t-8.5 45t-20 37.5t-36 15.5q-22 0 -35 -16t-20 -38t-9 -45.5t-2 -39.5z" />
<glyph unicode=":" horiz-adv-x="195" d="M50 55q0 12 2 23.5t7.5 21t15 15t23.5 5.5q26 0 36.5 -20t10.5 -43q0 -12 -2 -23.5t-7.5 -21.5t-14.5 -16t-23 -6q-29 0 -38.5 20t-9.5 45zM50 409q0 11 2.5 22.5t8 21t14.5 15.5t23 6q25 0 36 -21t11 -43q0 -12 -2 -23.5t-7.5 -21t-14.5 -15.5t-23 -6q-29 0 -38.5 20 t-9.5 45z" />
<glyph unicode=";" horiz-adv-x="221" d="M71 96h93l-53 -233h-54zM71 409q0 11 2.5 22.5t8 21t14.5 15.5t23 6q25 0 36 -21t11 -43q0 -12 -2 -23.5t-7.5 -21t-14.5 -15.5t-23 -6q-29 0 -38.5 20t-9.5 45z" />
<glyph unicode="&#x3c;" horiz-adv-x="252" d="M217 86l-189 201v84l189 201v-114l-123 -128l123 -128v-116z" />
<glyph unicode="=" horiz-adv-x="391" d="M73 295h245v-92h-245v92v0zM73 479h245v-96h-245v96v0z" />
<glyph unicode="&#x3e;" horiz-adv-x="252" d="M224 287l-188 -201v115l122 127l-122 129v115l188 -201v-84z" />
<glyph unicode="?" horiz-adv-x="384" d="M117 57q0 23 9.5 43t36.5 20q28 0 38.5 -19t10.5 -44q0 -11 -2 -22.5t-7.5 -21.5t-14 -16.5t-21.5 -6.5q-29 0 -39.5 20.5t-10.5 46.5zM205 399q18 17 23.5 43.5t6.5 50.5q0 13 -1.5 29t-6.5 30.5t-14 26.5t-24 17q-33 0 -52.5 -10t-41.5 -30q-1 0 -2 1t-1 4q-2 4 -6 15 t-8.5 22.5t-8 21t-3.5 10.5q24 24 55 37.5t65 13.5q39 0 64.5 -15.5t40.5 -40.5t21 -57t6 -65q0 -34 -5.5 -65.5t-22.5 -61.5q-6 -11 -14 -19.5t-13 -19.5q-8 -8 -18 -17t-18.5 -17.5t-14.5 -16.5t-6 -14v-95h-77v116q0 14 4.5 26t11.5 23z" />
<glyph unicode="@" horiz-adv-x="621" d="M115 124q-16 50 -22 99t-6 102q0 47 5.5 95t22.5 92q14 35 35.5 66.5t49.5 55.5t62 38.5t74 14.5q48 0 85 -22.5t62 -58t37.5 -79.5t12.5 -87q0 -41 -0.5 -76t-6.5 -67t-19.5 -61.5t-38.5 -58.5q-12 -7 -24 -10.5t-26 -3.5q-20 0 -32.5 6.5t-21.5 26.5q-2 5 -1.5 7 t-2.5 6q-24 -46 -73 -46q-27 0 -43.5 13.5t-25.5 34t-12 44t-3 44.5q0 27 3 64.5t14 71.5t33.5 58t61.5 24q17 0 34.5 -7t19.5 -28q0 9 2 20.5t3 11.5h51l-19 -261q0 -12 2 -25.5t18 -13.5q19 0 30.5 20t18 48t8.5 59t2 54q0 35 -5.5 77.5t-21.5 79t-45 61t-77 24.5 q-59 0 -97.5 -32t-61.5 -80t-32 -103t-9 -101q0 -43 6 -92.5t24.5 -92t52 -70.5t88.5 -28q39 0 67.5 18.5t54.5 46.5h1q3 0 6.5 -5.5t6.5 -12.5t5 -14.5t2 -10.5q0 -9 -5.5 -13t-13.5 -11q-55 -46 -132 -46q-61 0 -99.5 24t-68.5 75q-5 9 -8 18t-8 17zM260 306 q0 -10 0.5 -24.5t4 -27.5t11 -22t22.5 -9q21 0 31.5 13.5t15.5 32.5t6 39.5t2 34.5q0 3 0.5 12t1.5 19.5t2 19.5t1 12q0 19 -9.5 36t-30.5 17t-33 -19t-17.5 -44.5t-6.5 -51t-1 -38.5z" />
<glyph unicode="A" horiz-adv-x="473" d="M47 0l134 670h110l135 -670h-94l-30 160h-132l-31 -160h-92v0zM181 247h108l-53 321h-2z" />
<glyph unicode="B" horiz-adv-x="461" d="M250 675q36 -2 61.5 -18t42 -41t24 -56.5t7.5 -63.5q0 -43 -11.5 -81t-48.5 -63v-3q25 -6 38.5 -26t23.5 -42q2 -2 3.5 -3t2.5 -7t3 -21t5 -45q0 -43 -5 -77.5t-20 -65.5q-16 -27 -36 -39t-55 -23h-198v666q35 6 63.5 7.5t62.5 1.5h37zM174 80h81q22 5 33.5 16.5t17 26.5 t6.5 32.5t1 34.5q0 14 -2 33.5t-9 37.5t-19 31t-33 13h-76v-225zM219 591q-12 0 -27.5 -0.5t-15.5 -2.5v-204q3 -1 6 -1q3 -1 10 -1q33 0 53.5 5t32 16.5t15.5 31t4 48.5q0 23 -2.5 42.5t-11 34t-24 23t-40.5 8.5z" />
<glyph unicode="C" horiz-adv-x="443" d="M105 98q-4 2 -7 13.5t-4 16.5q-13 52 -19.5 102t-6.5 104q0 48 6.5 107.5t27 112.5t58.5 89t100 36q13 0 28 -2t27 -7q10 -4 23.5 -14t26.5 -22t22 -24.5t9 -20.5q0 -5 -0.5 -4t-4.5 -4q-3 -6 -9.5 -15.5t-14 -19t-14 -16.5t-9.5 -7q-2 -1 -2.5 1.5t-0.5 3.5 q-16 24 -34.5 43t-48.5 19q-24 0 -40.5 -14t-27 -35.5t-16.5 -46.5t-8.5 -46.5t-3 -36l-0.5 -14.5v-130q0 -1 1 -16t4 -36.5t9 -46t16.5 -45.5t26.5 -35t39 -14q15 0 28.5 3.5t24.5 13.5q4 4 11 13t14.5 18.5t13 16.5t7.5 7q-1 4 6 -5.5t15.5 -22t16 -25t7.5 -14.5 q0 -5 -1.5 -7t-4.5 -7q-29 -38 -60.5 -57.5t-81.5 -19.5q-57 0 -91.5 29.5t-57.5 80.5z" />
<glyph unicode="D" horiz-adv-x="487" d="M107 670q7 2 20 3t28.5 1.5t30.5 0.5h26q46 0 79 -16t56 -43t37.5 -62t22 -72.5t10 -75.5t2.5 -70q0 -39 -3 -79t-12 -78t-25.5 -73t-43.5 -64q-18 -20 -41 -26.5t-45 -15.5h-161v666zM214 591q-14 0 -25.5 -0.5t-11.5 -2.5v-504q3 -2 8.5 -2h19.5q43 0 67.5 22t36.5 58 t14.5 81t2.5 91q0 10 0.5 32.5t-1 51.5t-7 59.5t-18 55.5t-33.5 41.5t-53 16.5z" />
<glyph unicode="E" horiz-adv-x="392" d="M324 670v-85h-149v-193h132v-86h-132v-221h156v-85h-243v670h236z" />
<glyph unicode="F" horiz-adv-x="373" d="M320 670v-85h-144v-193h128v-86h-129v-306h-88v670h233z" />
<glyph unicode="G" horiz-adv-x="487" d="M68 334q0 48 5.5 95t17.5 95q10 26 21.5 51.5t28 46.5t39 36.5t53.5 21.5q25 0 44.5 -2.5t36 -9t31 -17t30.5 -26.5q2 -2 8 -9t8 -12q1 1 -1.5 -6.5t-5.5 -10.5q0 -2 -6.5 -11t-14.5 -18.5t-15.5 -17t-9.5 -7.5q-14 22 -32.5 42t-47.5 20q-23 0 -38.5 -13t-25.5 -32 t-15 -41t-8 -40l-1.5 -10t-3 -22t-3 -23t-1.5 -13v-147q0 -18 2.5 -42t8.5 -48t16.5 -45t27.5 -34q5 -4 8 -8t11 -4h40q4 0 10 3.5t8 5.5q12 10 20 25t12 31t6 33t2 32v14.5t-0.5 22t-0.5 22v14.5h-72v86h157v-23.5t-1 -34.5t-1.5 -34.5t-0.5 -22.5q0 -22 -2 -50t-7.5 -57.5 t-16.5 -57.5t-30 -49q-8 -8 -21 -16.5t-18 -15.5q-10 -4 -17.5 -6t-15 -3.5t-15.5 -2t-18 -0.5q-41 0 -70.5 17.5t-50.5 45.5t-33.5 64.5t-19.5 75t-9.5 75.5t-2.5 67z" />
<glyph unicode="H" horiz-adv-x="488" d="M175 670v-277h139v277h87v-670h-87v305h-139v-305h-88v670h88z" />
<glyph unicode="I" horiz-adv-x="261" d="M174 670v-670h-87v670h87z" />
<glyph unicode="J" horiz-adv-x="346" d="M41 23q2 7 6.5 19.5t9.5 25t9.5 21.5t7.5 9q14 -9 26 -16t29 -7q14 0 22.5 7.5t13.5 18.5t6.5 24t1.5 24v521h85v-558q0 -27 -9 -50t-25 -40t-38 -26.5t-48 -9.5q-9 0 -25.5 3t-32 8t-27.5 11.5t-12 14.5z" />
<glyph unicode="K" horiz-adv-x="448" d="M173 670v-304l126 304h98l-124 -293l135 -377h-99l-98 286l-38 -74v-212h-86v670h86z" />
<glyph unicode="L" horiz-adv-x="365" d="M174 670v-585h138v-85h-226v670h88z" />
<glyph unicode="M" horiz-adv-x="545" d="M179 670l97 -254l103 254h89v-670h-83v480l-106 -263l-108 260v-477h-83v670h91z" />
<glyph unicode="N" horiz-adv-x="510" d="M175 670l175 -439v439h83v-670h-77l-185 444v-444h-83v670h87z" />
<glyph unicode="O" horiz-adv-x="521" d="M67 340q0 30 2 67.5t9 75.5t20 73.5t34 63t52 44.5t75 17q49 0 84.5 -23t58.5 -63.5t35.5 -95.5t16.5 -118q0 -53 -2.5 -93t-7.5 -73t-13 -62t-19 -60q-4 -11 -11.5 -20t-12.5 -20q-47 -65 -128 -65q-44 0 -75 17.5t-52.5 46t-34.5 65.5t-20 76t-9 77t-2 70zM158 340 q0 -34 1.5 -80t11 -87t30.5 -70t60 -29q25 0 42 14t28.5 35t17 45t7.5 44q4 39 5.5 80t1.5 71q-1 12 -1.5 34.5t-3.5 48.5t-8.5 52.5t-16.5 48t-29 35.5t-44 14q-27 0 -45 -16t-29.5 -40.5t-17 -54.5t-8 -58.5t-2.5 -52v-34.5z" />
<glyph unicode="P" horiz-adv-x="440" d="M99 670q5 1 18.5 2t29 2t29 2t19.5 1q60 3 97.5 -12.5t58.5 -45t28.5 -71.5t7.5 -91q0 -29 -3.5 -60.5t-14 -60.5t-30 -52t-51.5 -33q-7 -2 -19.5 -3t-28.5 -1.5t-33 -1t-32 -0.5v-245h-88v666q0 1 3.5 2.5t8.5 1.5zM223 593q-3 0 -10.5 -0.5t-15.5 -1t-14.5 -1.5 t-6.5 -2v-258h65q7 0 8.5 2t7.5 6q15 7 24 19.5t13 27.5t5 31t1 32q0 23 -0.5 48.5t-7.5 47t-23 35.5t-46 14z" />
<glyph unicode="Q" horiz-adv-x="521" d="M303 -9h-64q-20 0 -39.5 9t-35.5 22.5t-28 28t-18 26.5q-32 57 -41.5 124.5t-9.5 132.5q0 32 1.5 65.5t7 66.5t15 64.5t25.5 60.5q4 2 15 18.5t20 27.5q4 6 11 10.5l14 9t13 8.5t9 8q16 4 31.5 6.5t31.5 2.5q17 0 32 -2.5t30 -6.5q3 -4 8.5 -7.5t12.5 -7.5t13.5 -8 t9.5 -8q30 -32 47.5 -69t26.5 -76.5t11 -80.5t2 -81q0 -29 -0.5 -52.5t-2.5 -50.5q0 -1 -1 -4.5t-1 -4.5q-9 -49 -23 -95.5t-47 -85.5v-2q15 -14 27 -27.5t32 -23.5v-7l-28 -75q-13 -1 -23.5 6t-19.5 12zM161 268q0 -17 3 -49t13.5 -64t30.5 -55.5t54 -23.5q29 0 48 17 t30.5 43.5t16.5 58.5t7 60.5t1.5 50.5t-0.5 29q0 42 -3 83t-13 82q-1 1 -1.5 2.5t-1.5 2.5q0 15 -6.5 31.5t-18.5 29.5t-27.5 21.5t-32.5 8.5q-33 0 -51.5 -21.5t-28 -51.5t-13 -63t-7.5 -55v-137z" />
<glyph unicode="R" horiz-adv-x="465" d="M107 670q1 0 11 1t23.5 1.5t27.5 1.5t22 1q51 0 87.5 -10t60.5 -29.5t37 -49t17 -69.5q0 -14 0.5 -44t-5 -63t-20 -62t-44.5 -41q7 -5 11 -15.5t6 -22.5t3.5 -23.5t4.5 -17.5l49 -228h-91q-12 49 -20.5 97t-19.5 96q-5 10 -6 20.5l-2 21t-4.5 20t-12.5 17.5h-66v-272h-88 v666zM177 356h67q21 0 33 12.5t19 30t9 37.5t2 35q0 17 -2 34.5t-8 33.5t-17 29t-29 20l-4 2t-3 1h-53q-6 -3 -14 -3v-232z" />
<glyph unicode="S" horiz-adv-x="408" d="M48 39q-1 11 2.5 22t8 22l9 22t6.5 21q22 -19 52.5 -36t60.5 -17q22 0 37 9.5t24.5 25t14 34.5t4.5 37q0 33 -10.5 56.5t-28.5 42.5t-41 34.5t-48 32.5q-41 34 -58 69t-17 89q0 34 8.5 66.5t26 57.5t45 40t65.5 15q17 0 34 -1t34 -6q4 -2 13 -6t18.5 -9t16.5 -10.5 t7 -11.5l-18 -80q0 -1 -1 -1q-1 -1 -2 -1q-22 20 -43 32.5t-52 12.5q-17 0 -30 -7.5t-21.5 -19.5t-12.5 -27t-4 -30q0 -38 18 -62.5t47 -45.5q45 -27 75.5 -55t48.5 -75q2 -5 6.5 -20t4.5 -21v-94q0 -19 -6.5 -40t-18 -40.5t-26.5 -35.5t-32 -23q-20 -9 -36.5 -10.5 t-38.5 -1.5q-41 0 -75 10t-67 36z" />
<glyph unicode="T" horiz-adv-x="352" d="M34 585v85h284v-85h-99v-585h-86v585h-99z" />
<glyph unicode="U" horiz-adv-x="495" d="M174 0q-6 9 -18 14.5t-20 15.5q-17 21 -26.5 47.5t-14.5 54t-6.5 56t-1.5 54.5v428h88v-465q0 -15 1.5 -32t5.5 -34t11.5 -31.5t19.5 -23.5q4 -3 7.5 -6.5t8.5 -3.5h39q14 0 24 11.5t16 27.5t9 33t3 28l5 496h83v-474q0 -22 -4 -51.5t-14 -58.5t-25.5 -53t-39.5 -33 q-20 -8 -38 -10t-38 -2q-27 0 -42 2.5t-33 9.5z" />
<glyph unicode="V" horiz-adv-x="456" d="M48 670h95l84 -565l89 565h92l-123 -670h-115z" />
<glyph unicode="W" horiz-adv-x="645" d="M54 670h92l51 -547l87 547h77l88 -542l50 542h92l-87 -670h-105l-78 473l-72 -473h-106z" />
<glyph unicode="X" horiz-adv-x="423" d="M159 347l-114 323h102l69 -240l73 240h91l-109 -330l118 -340h-95l-82 249l-81 -249h-97z" />
<glyph unicode="Y" horiz-adv-x="417" d="M37 670h91l81 -314l87 314h88l-129 -414v-256h-89v250z" />
<glyph unicode="Z" horiz-adv-x="361" d="M219 583h-163v87h256v-84l-172 -501h177v-85h-273v80z" />
<glyph unicode="[" horiz-adv-x="253" d="M213 -96h-154v766h154v-78h-82v-609h82v-79z" />
<glyph unicode="\" horiz-adv-x="349" d="M316 -29h-72l-213 836h73z" />
<glyph unicode="]" horiz-adv-x="253" d="M195 -96h-155v76h82v614h-82v76h155v-766z" />
<glyph unicode="^" horiz-adv-x="346" d="M322 366h-83l-66 193l-68 -193h-81l118 304h62z" />
<glyph unicode="_" horiz-adv-x="273" d="M273 -163h-273v85h273v-85z" />
<glyph unicode="`" horiz-adv-x="312" d="M231 569h-63l-113 154h105z" />
<glyph unicode="a" d="M30 153q0 54 14 90.5t41 59.5t66 35.5t89 18.5v79q0 22 -18 32.5t-36 10.5q-32 0 -60 -13t-54 -30q-3 -2 -6.5 7t-6.5 21.5t-5.5 25.5t-2.5 19q0 10 17 18.5t40.5 14.5t47.5 9.5t38 3.5q67 0 100 -34.5t33 -96.5v-337q0 -13 8.5 -24.5t8.5 -18.5q0 -3 -7 -11t-16.5 -16 t-18.5 -14.5t-12 -6.5q-21 0 -30.5 18t-12.5 35q-15 -13 -24.5 -23t-19.5 -17t-23.5 -11t-35.5 -4q-35 0 -57 14t-35 36.5t-17.5 51t-4.5 57.5zM114 154q0 -12 2 -27t7 -28t15 -21.5t26 -8.5q12 0 25.5 4.5t25 11.5t18.5 14.5t7 13.5v172q-66 0 -96 -34t-30 -97z" />
<glyph unicode="b" horiz-adv-x="381" d="M124 58q0 -1 -1.5 -7t-2.5 -15t-2 -19t-1 -17h-73v726h86v-214q9 12 24.5 27t34.5 15h46q11 0 21.5 -6.5t18.5 -12.5q26 -22 40.5 -54t21.5 -68t8.5 -73t1.5 -69q0 -22 -1 -51.5t-5.5 -60.5t-13 -60.5t-23.5 -53t-37 -38t-53 -14.5q-13 0 -28 4t-27.5 12t-22 20t-12.5 29 zM193 478q-14 0 -25 -7.5t-19.5 -18.5t-13 -24.5t-4.5 -25.5v-249q0 -13 4 -27.5t12 -27t19.5 -20.5t26.5 -8q28 0 42 24.5t20 58t6 67v51.5q0 1 1 16.5t1 38.5t-3 49.5t-10.5 49.5t-21 38t-35.5 15z" />
<glyph unicode="c" horiz-adv-x="342" d="M103 24q-31 39 -48.5 86.5t-17.5 98.5v126q0 20 7 47.5t12 46.5q14 57 50.5 90.5t95.5 33.5q34 0 59 -9t51 -28v-4q0 -1 -4 -10t-9 -20.5t-10.5 -23.5t-8.5 -20q-5 0 -6 0.5t-4 2.5q-16 14 -30 25t-37 11q-29 0 -45 -21t-23.5 -51t-9 -62.5t-1.5 -54.5q0 -9 -0.5 -29 t1 -44.5t6 -50t14 -47t24.5 -35t39 -13.5q12 0 22.5 3.5t21.5 8.5q8 4 17 14t20 9l25 -59q0 -2 1 -4q0 -2 0.5 -3t0.5 -2q-8 -13 -22.5 -21.5t-31.5 -13.5t-34.5 -7t-30.5 -2q-20 0 -31.5 1.5t-20.5 5.5t-18 10t-24 15z" />
<glyph unicode="d" horiz-adv-x="383" d="M34 276q0 15 1 41t3 54t6.5 54t12.5 41l3 2q16 41 41 63.5t69 22.5q27 0 43 -8.5t33 -28.5q2 -3 3.5 -5.5t5.5 -4.5v219h84v-726h-78v48l-3 5l-33 -44q-11 -4 -17.5 -7t-12.5 -5t-12.5 -3t-15.5 -1q-12 0 -23.5 1t-22.5 6q-32 24 -49.5 56.5t-26 69t-10 75t-1.5 75.5z M123 277q0 -6 -1 -23.5t-0.5 -40.5t3 -48.5t10 -46.5t20 -34.5t33.5 -13.5q19 0 31.5 11t20 27t10.5 34t3 32v203q0 15 -3.5 32.5t-11 33t-20 25.5t-31.5 10q-20 0 -32.5 -13t-20 -33.5t-10 -44.5t-3 -46.5t0.5 -40t1 -23.5z" />
<glyph unicode="e" d="M34 273q0 41 5 90t21.5 91t48 70.5t85.5 28.5q52 0 81.5 -28.5t44.5 -70.5t19 -89.5t4 -86.5v-7.5t-0.5 -12t-1 -12.5t-0.5 -8h-217q0 -22 1.5 -51t9 -55.5t24 -44.5t47.5 -18q26 0 47 10t40 25q2 1 2 0t2 -2l26 -59q0 -12 -12 -21.5t-30 -16t-40 -10t-41 -3.5 q-59 0 -92.5 29t-50 71.5t-20 91.5t-3.5 89zM194 479q-21 0 -34.5 -11.5t-21.5 -29.5t-11.5 -39t-4.5 -39.5t-0.5 -32.5t0.5 -17h139q0 -2 0.5 10t0 31t-4 41.5t-11 41.5t-20 32t-32.5 13z" />
<glyph unicode="f" horiz-adv-x="271" d="M35 457v82h47q1 30 1 57t5 56q4 24 14.5 39.5t25 24t31 11.5t33.5 3h29.5t19.5 -4v-75q-9 0 -17.5 1.5t-16.5 1.5q-37 0 -37 -37v-78h66v-82h-67v-457h-86v457h-48z" />
<glyph unicode="g" horiz-adv-x="385" d="M57 -169l26 73q8 1 10 -1.5t9 -5.5q23 -12 45 -19t48 -7q27 0 44 17.5t17 45.5v126q-4 -8 -10 -17.5t-14.5 -18t-18 -14.5t-21.5 -6h-48q-8 0 -16.5 5t-13.5 9q-29 20 -45 50t-23.5 64.5t-9.5 70.5t-2 67q0 22 1 51.5t5.5 61t13 62t24 54.5t38 39t54.5 15q34 0 53.5 -15 t36.5 -44l5 50h76v-594q0 -27 -6.5 -56.5t-20.5 -53.5t-37.5 -40t-57.5 -16q-11 0 -28.5 0.5t-25.5 0.5q4 0 -12.5 2.5t-37.5 8t-39.5 13t-18.5 17.5v5zM123 231q0 -12 2.5 -35t8.5 -46t15.5 -42t24.5 -23h16q32 0 47 26t19.5 60t3 68t-1.5 50q0 10 0.5 27.5t0 38t-4 42 t-11 38.5t-20.5 28t-34 11q-27 0 -40.5 -24t-19 -56.5t-6 -64.5t-0.5 -47v-51z" />
<glyph unicode="h" horiz-adv-x="385" d="M132 726v-219q18 26 40.5 36.5t53.5 10.5q33 0 57.5 -15.5t37.5 -44.5q5 -13 7 -26.5t7 -25.5l4 -69v-373h-84v384q0 10 -2.5 25t-9.5 28.5t-18 23.5t-27 10q-19 0 -31.5 -10.5t-20 -26t-11 -33.5t-3.5 -33v-368h-86v726h86z" />
<glyph unicode="i" horiz-adv-x="317" d="M201 544v-544h-84v544h84zM107 685q0 29 11.5 44.5t42.5 15.5t40 -18t9 -43t-11.5 -41.5t-39.5 -16.5q-30 0 -41 16t-11 43z" />
<glyph unicode="j" horiz-adv-x="242" d="M44 -124q7 0 14 5t12.5 12.5t9 16t3.5 14.5v620h85v-604q0 -32 -6.5 -60t-21.5 -48.5t-39 -32.5t-58 -12h-10.5t-14.5 0.5t-12.5 1.5t-5.5 3v84h44zM75 684q0 28 11.5 43.5t40.5 15.5q26 0 39 -16t13 -42t-12.5 -43.5t-39.5 -17.5q-29 0 -40.5 16.5t-11.5 43.5z" />
<glyph unicode="k" horiz-adv-x="359" d="M130 726v-428l107 246h91v-2l-101 -226q0 1 0.5 -0.5t3 -11t9 -29.5t18 -55.5t30 -89t46.5 -130.5h-94l-75 231l-37 -75v-156h-82v726h84z" />
<glyph unicode="l" horiz-adv-x="296" d="M187 726v-614q0 -11 4 -17t11 -9t15.5 -3.5t16.5 -0.5v-82q0 -3 -6.5 -4t-15 -2t-16.5 -1h-12q-48 0 -65.5 23.5t-17.5 72.5v637h86z" />
<glyph unicode="m" horiz-adv-x="545" d="M106 547l4 -49q5 15 15.5 26t23 17.5t27 9.5t27.5 3q33 0 58 -15t35 -50q30 65 103 65q60 0 89 -42.5t29 -120.5v-391h-82l-4 405q0 24 -12.5 45t-38.5 21q-17 0 -29.5 -9t-20 -22.5t-11 -29.5t-3.5 -31v-379h-86v384q0 14 -2 29.5t-8 28t-16.5 21t-27.5 8.5 q-24 0 -38.5 -16t-18.5 -39q-2 -10 -2 -15.5t-3 -14.5v-386h-86v547h78z" />
<glyph unicode="n" horiz-adv-x="387" d="M122 544l5 -42q12 13 22 22.5t20.5 15.5t24 8.5t31.5 2.5q37 0 60 -16t35.5 -41.5t16.5 -56.5t4 -60v-377h-86v403q0 29 -14.5 47t-42.5 18q-16 0 -28.5 -8.5t-21 -21.5t-13 -29t-4.5 -32v-377h-85v544h76z" />
<glyph unicode="o" horiz-adv-x="381" d="M129 12q-2 1 -12.5 7.5t-12.5 8.5q-16 11 -26 29.5t-18 34.5q-20 44 -24 94t-4 97q0 63 10 116t39 109l2 2q42 49 108 49q54 0 85 -28.5t47.5 -71t21 -91.5t4.5 -89t-5 -88.5t-21.5 -91t-48 -71t-84.5 -28.5q-30 0 -58 9zM120 215q0 -13 1 -29t4 -31.5t8.5 -30.5 t14.5 -25q3 -4 10 -11t15 -7h35q1 1 2 1t2 1q2 1 4.5 2.5t2.5 2.5q18 16 27 40t12 50.5t3 53v47.5v61q0 16 -3 39.5t-10.5 45.5t-21.5 37.5t-37 15.5q-22 0 -35 -14.5t-20.5 -34.5t-10.5 -42.5t-3 -37.5v-67v-67z" />
<glyph unicode="p" horiz-adv-x="382" d="M121 544l4 -39l2 -2q5 3 6.5 8.5t5.5 9.5q14 16 32.5 23t38.5 7q29 0 47.5 -9.5t38.5 -31.5q3 -3 4.5 -7.5t4.5 -6.5q26 -53 34.5 -108t8.5 -113q0 -20 -1.5 -49t-6 -60.5t-13.5 -63t-23.5 -56t-36.5 -40t-53 -15.5q-27 0 -49.5 11t-35.5 36v-243h-85v749h77zM191 475 q-17 0 -28.5 -9.5t-19 -23.5t-10.5 -30t-3 -29v-214q0 -15 3 -32t10.5 -32t19.5 -25t30 -10q21 0 34 13.5t20.5 34.5t10.5 46.5t4 50.5t0.5 45t-0.5 31q0 8 -0.5 21.5t-0.5 14.5q0 7 -1 31.5t-7.5 50t-20.5 46t-41 20.5z" />
<glyph unicode="q" horiz-adv-x="398" d="M257 46q-3 -2 -5 -7.5t-3 -8.5q-10 -11 -18 -18.5t-16.5 -11.5t-18.5 -5.5t-25 -1.5q-31 0 -53.5 15t-37.5 38.5t-24 54t-14 62t-6.5 60.5t-1.5 51q0 2 1 17.5t2 33.5t2.5 35t1.5 22q2 23 10.5 52t23 55t35 44t47.5 18q18 0 30.5 -1.5t22.5 -5t19 -11t20 -19.5 q3 -4 4 -8.5t3 -3.5l2 5l5 37h78v-643q0 -20 6.5 -32.5t22.5 -23.5v-2q-3 -3 -10 -12.5t-15.5 -20.5t-16.5 -21t-13 -13q-12 0 -22.5 10t-18.5 24.5t-12.5 29.5t-4.5 24v182v0zM122 225q0 -16 2.5 -42t9.5 -51t20.5 -43.5t36.5 -18.5q18 0 30.5 12.5t19.5 29.5t10 36t3 33 v201q0 14 -3.5 30t-11 30t-19.5 23.5t-29 9.5q-24 0 -37.5 -18t-20.5 -43t-9 -51t-2 -41v-49v-48z" />
<glyph unicode="r" horiz-adv-x="298" d="M148 544l4 -56q10 22 19.5 34.5t21.5 19t28.5 8.5t39.5 2v-96q-19 -1 -38 -4.5t-34.5 -13t-25 -28t-9.5 -49.5v-361h-85v544h79z" />
<glyph unicode="s" horiz-adv-x="330" d="M26 37q3 8 8 18.5t10 20.5t8.5 18t3.5 11h5q20 -16 43.5 -29t49.5 -13q34 0 50 22.5t16 54.5q0 25 -13 44.5t-32.5 35.5t-41 30t-37.5 29q-58 51 -58 129q0 41 11 68t33 43.5t53.5 23.5t73.5 7q2 -1 14.5 -2.5t27 -4.5t26 -8.5t11.5 -14.5q0 -5 -3 -17t-7 -24t-7.5 -21.5 l-3.5 -9.5q-39 28 -84 28q-29 0 -48 -19t-19 -48q0 -15 5 -25.5t12.5 -19t16.5 -16.5t17 -18q28 -18 52 -35t42 -38t28.5 -47.5t10.5 -62.5q0 -22 -4 -44.5t-13 -42.5t-24.5 -36t-38.5 -25q-19 -7 -42.5 -7h-40.5h-13.5t-14.5 2q6 -2 -6.5 0.5t-29.5 8t-32 14.5t-15 20z" />
<glyph unicode="t" horiz-adv-x="280" d="M30 458v81h59v146h81v-146h70v-81h-69v-347q0 -15 6 -22.5t16 -10.5t21.5 -3h23.5v-74q0 -2 -7 -3t-16 -1.5t-19 -0.5h-16q-29 0 -47 8.5t-29 22.5t-15 33t-4 40v358h-55z" />
<glyph unicode="u" horiz-adv-x="384" d="M131 544v-396q0 -27 14 -49.5t40 -22.5q21 0 34 11t20.5 27.5t10.5 36t3 36.5v357h85v-544h-82l-4 48q-17 -30 -40.5 -42.5t-57.5 -12.5q-14 0 -26.5 1t-25.5 6q-19 7 -30 27t-17 41.5t-7.5 40t-1.5 23.5v412h85z" />
<glyph unicode="v" horiz-adv-x="361" d="M23 544h88l73 -459l67 459h87l-99 -544h-111z" />
<glyph unicode="w" horiz-adv-x="545" d="M16 544h86l52 -429l73 429h92q1 -3 2 -9.5t4 -22.5t7.5 -44t12 -74t19 -113.5t27.5 -162.5l2 2q7 7 16 116.5t35 307.5h85l-79 -544h-108l-71 387l-70 -387h-105z" />
<glyph unicode="x" horiz-adv-x="358" d="M117 281v7l-85 256h88l60 -195l60 195h89l-92 -254v-7l101 -283h-94l-69 215l-67 -215h-88v2z" />
<glyph unicode="y" horiz-adv-x="367" d="M51 -125l4.5 -0.5t9.5 -1t9.5 -1t6.5 -0.5q12 -1 24 5.5t15 20.5l18 79l-115 567h90l72 -443l71 443h88q-24 -117 -40 -198.5t-27 -135t-17 -84t-9 -45.5t-4 -19t-2 -5q-9 -41 -16 -82.5t-17.5 -78t-28 -64.5t-47.5 -40q-2 -2 -7.5 -3.5t-6.5 -1.5h-57q-4 0 -9 1.5 t-5 3.5v83v0z" />
<glyph unicode="z" horiz-adv-x="301" d="M179 464h-137v79h220v-94l-137 -369h141v-80h-231v83z" />
<glyph unicode="{" horiz-adv-x="269" d="M241 -105q-90 0 -126 50q-32 45 -32 152v65q0 85 -38 85h-21v80h21q38 0 38 86v66q0 106 32 151q36 51 126 51v-67q-51 -7 -68 -37q-14 -25 -14 -88v-53q0 -68 -13.5 -101t-48.5 -48q35 -15 48.5 -48t13.5 -101v-52q0 -63 14 -88q17 -30 68 -36v-67z" />
<glyph unicode="|" horiz-adv-x="191" d="M131 -177h-70v943h70v-943z" />
<glyph unicode="}" horiz-adv-x="269" d="M245 248h-20q-39 0 -39 -85v-66q0 -107 -31 -152q-37 -50 -127 -50v67q50 6 67 36q15 25 15 88v53q0 68 13.5 101t49.5 48q-36 15 -49.5 48t-13.5 101v52q0 63 -15 88q-17 30 -67 37v67q90 0 127 -51q31 -45 31 -151v-66q0 -85 39 -85h20v-80z" />
<glyph unicode="~" horiz-adv-x="438" d="M405 406q-43 -135 -119 -135q-36 0 -75 32q-45 39 -64 39q-18 0 -29.5 -15t-28.5 -58l-56 35q43 135 119 135q37 0 75 -32q45 -39 64 -39q18 0 29.5 15t28.5 58z" />
<glyph unicode="&#xa1;" horiz-adv-x="248" d="M72 605q0 20 5 34.5t23 24.5q1 1 2.5 1.5t3.5 1.5t3 2h30q1 0 6 -2.5t8 -4.5q15 -8 19 -24t4 -31q0 -20 -8 -37.5t-29 -25.5h-15q-20 0 -33.5 11t-18.5 31v19zM89 463h71l13 -474h-97z" />
<glyph unicode="&#xa2;" horiz-adv-x="382" d="M67 251q0 31 4 70.5t16 77t34.5 66.5t60.5 39v76h69v-74q24 -2 40.5 -12.5t34.5 -24.5v-7q-7 -19 -12 -38.5t-13 -37.5q-3 -1 -10 4.5t-16 12t-20.5 12.5t-24.5 6q-28 0 -43.5 -19.5t-22.5 -46.5t-8 -56t-1 -48q0 -22 0.5 -45t5 -45.5t14 -42.5t26.5 -35q4 -3 8.5 -4 t7.5 -3h30q5 3 7 3t7 2t11.5 7l13 10t12.5 9t10 4q2 0 6.5 -10.5t9 -24t8 -26.5t3.5 -19q0 -5 -17.5 -16.5t-37.5 -19.5q-8 -5 -18.5 -4.5t-10.5 -2.5v-76h-69v79q0 2 -6.5 3.5t-8.5 2.5q-34 17 -53.5 46t-30 64t-13.5 72.5t-3 71.5z" />
<glyph unicode="&#xa3;" horiz-adv-x="365" d="M348 609l-48 -70q-26 28 -42 36q-21 12 -52 12q-29 0 -45.5 -21t-16.5 -56q0 -42 19 -95q14 -39 18 -61h88v-83h-84q-4 -93 -56 -186h207v-85h-290v98q36 47 50 84t16 89h-66v83h57q-8 29 -16 48q-21 53 -21 109q0 79 37.5 124.5t104.5 45.5q44 0 76 -18q30 -15 64 -54z " />
<glyph unicode="&#xa4;" horiz-adv-x="267" d="M50 435l-32 62l26 54l33 -63q25 33 56 33t55 -33l33 63l27 -54l-33 -62q17 -49 17 -106q0 -58 -17 -107l33 -61l-27 -55l-33 63q-24 -32 -55 -32t-56 32l-33 -63l-26 55l32 61q-16 49 -16 107q0 57 16 106zM71 329q0 -49 18 -83.5t43 -34.5q26 0 43.5 34.5t17.5 83.5 t-17.5 83t-43.5 34q-25 0 -43 -34t-18 -83z" />
<glyph unicode="&#xa5;" horiz-adv-x="361" d="M344 670l-125 -385v-84h80v-85h-80v-116h-73v116h-80v85h80v81l-129 388h86l40 -140q30 -105 40 -149q9 45 39 150l39 139h83z" />
<glyph unicode="&#xa6;" horiz-adv-x="125" d="M81 675v-358h-38v358h38zM81 164v-359h-38v359h38z" />
<glyph unicode="&#xa7;" horiz-adv-x="267" d="M34 -32l42 12q7 -59 21 -83t39 -24q24 0 37.5 24t13.5 56q0 22 -9 42q-14 34 -80 111q-35 42 -48 65t-22 55t-9 66q0 43 14 78t38 50q-15 31 -22 56.5t-7 55.5q0 59 23 101t62 42q43 0 68 -40t30 -116l-43 -9q-6 55 -18 77t-33 22q-22 0 -35 -22.5t-13 -50.5q0 -23 8 -43 q13 -31 72 -99q37 -44 50 -65q16 -27 24 -56t8 -63q0 -51 -17 -87q-10 -21 -36 -43q18 -27 27.5 -59t9.5 -67q0 -40 -12 -76t-33.5 -54.5t-47.5 -18.5q-45 0 -71 43t-31 120zM170 111q18 17 26.5 39.5t8.5 44.5q0 26 -12 55t-53 76q-32 38 -48 63q-19 -21 -26.5 -42 t-7.5 -47q0 -28 10 -53q10 -26 49 -70q31 -35 53 -66z" />
<glyph unicode="&#xa8;" horiz-adv-x="312" d="M274 629q0 -24 -14.5 -42t-34.5 -18q-19 0 -34 18t-15 42q0 25 15 42.5t34 17.5q20 0 34.5 -18t14.5 -42zM136 629q0 -24 -14.5 -42t-34.5 -18q-19 0 -34 18t-15 42q0 25 15 42.5t34 17.5q20 0 34.5 -18t14.5 -42z" />
<glyph unicode="&#xa9;" horiz-adv-x="503" d="M468 335q0 -156 -60.5 -251t-155.5 -95q-96 0 -156.5 95t-60.5 251t60.5 251t156.5 95q95 0 155.5 -95t60.5 -251zM423 334q0 133 -46.5 213.5t-124.5 80.5q-79 0 -125 -80t-46 -212t46.5 -213t125.5 -81t124.5 80t45.5 212zM334 239q-17 -97 -82 -97q-91 0 -91 195 q0 88 22 139q24 56 70 56q67 0 81 -93l-46 -13q-8 50 -36 50q-44 0 -44 -138q0 -140 47 -140q26 0 37 58z" />
<glyph unicode="&#xaa;" horiz-adv-x="177" d="M129 387q-29 -49 -61 -49q-26 0 -41.5 28t-15.5 71q0 22 4 38.5t11.5 29t17.5 19.5q10 5 24 10l35 10q17 6 22 9q0 32 -3 43t-11.5 19t-22.5 8q-18 0 -27 -15t-11 -42l-32 15q2 41 20 67.5t51 26.5q38 0 55 -27q15 -28 15 -82v-109v-28q0 -60 9 -83h-34q-5 18 -5 41z M125 500q-12 -6 -45 -16q-21 -6 -27 -18q-8 -12 -8 -29q0 -19 8.5 -31.5t22.5 -12.5q17 0 30 17t17 43q2 10 2 47z" />
<glyph unicode="&#xab;" horiz-adv-x="267" d="M79 239l62 -206h-35l-74 206l74 207h35zM170 239l62 -206h-35l-74 206l74 207h35z" />
<glyph unicode="&#xac;" horiz-adv-x="281" d="M254 192h-40v199h-187v76h227v-275z" />
<glyph unicode="&#xad;" horiz-adv-x="428" d="M397 305h-366v90h366v-90z" />
<glyph unicode="&#xae;" horiz-adv-x="503" d="M468 335q0 -156 -60.5 -251t-155.5 -95q-96 0 -156.5 95t-60.5 251t60.5 251t156.5 95q95 0 155.5 -95t60.5 -251zM423 334q0 133 -46.5 213.5t-124.5 80.5q-79 0 -125 -80t-46 -212t46.5 -213t125.5 -81t124.5 80t45.5 212zM348 424q0 -73 -48 -98l48 -172h-50l-46 162 h-32v-162h-46v377h87q38 0 61 -25q26 -28 26 -82zM301 424q0 53 -41 53h-40v-108h38q43 0 43 55z" />
<glyph unicode="&#xaf;" horiz-adv-x="266" d="M-7 710v58h279v-58h-279z" />
<glyph unicode="&#xb0;" horiz-adv-x="192" d="M30 550q0 52 19 88.5t46 36.5t46.5 -36.5t19.5 -88.5t-19.5 -89t-46.5 -37t-46 37t-19 89zM56 550q0 -31 11 -53.5t28 -22.5q16 0 28 22.5t12 53.5q0 32 -12 54t-28 22q-17 0 -28 -22t-11 -54z" />
<glyph unicode="&#xb1;" horiz-adv-x="264" d="M112 118v182h-94v75h94v182h40v-182h93v-75h-93v-182h-40zM245 0h-227v76h227v-76z" />
<glyph unicode="&#xb2;" horiz-adv-x="160" d="M6 332q1 26 11 52q15 38 48.5 86t39.5 61q9 18 9 38q0 22 -8 36t-23 14q-17 0 -24 -10.5t-13 -41.5l-35 8q7 50 24 73.5t48 23.5q35 0 51.5 -26.5t16.5 -65.5q0 -38 -14 -71q-10 -26 -48 -78q-20 -28 -27 -44h90v-55h-146z" />
<glyph unicode="&#xb3;" horiz-adv-x="160" d="M8 421l34 6q4 -27 13 -36q9 -14 23 -14q17 0 27 18t10 42q0 23 -8.5 36.5t-29.5 13.5q-3 0 -7 -1h-6l6 49q19 0 27.5 13.5t8.5 33.5q0 17 -7 28.5t-21 11.5q-13 0 -20 -10t-13 -36l-33 10q10 48 24.5 67t41.5 19q35 0 50.5 -24t15.5 -60q0 -25 -8.5 -45t-24.5 -27 q21 -11 31 -34t10 -54q0 -41 -19 -72.5t-53 -31.5q-33 0 -50 25.5t-22 71.5z" />
<glyph unicode="&#xb4;" horiz-adv-x="312" d="M257 723l-113 -154h-63l71 154h105z" />
<glyph unicode="&#xb5;" horiz-adv-x="276" d="M239 481v-481h-38v58q-13 -37 -25 -51q-15 -18 -37 -18q-20 0 -35 15q-11 11 -25 44v-233h-41v666h41v-204q0 -110 6 -143.5t20 -52.5t32 -19q19 0 34 20t20.5 52t5.5 141v206h42z" />
<glyph unicode="&#xb6;" horiz-adv-x="258" d="M95 -185v475q-43 3 -69 54t-26 129q0 87 28.5 139t82.5 52h149v-78h-34v-771h-39v771h-53v-771h-39z" />
<glyph unicode="&#xb7;" horiz-adv-x="114" d="M33 289v93h48v-93h-48z" />
<glyph unicode="&#xb8;" horiz-adv-x="312" d="M242 -105q0 -80 -84 -80q-40 0 -78 28l15 31q25 -17 57 -17q38 0 38 35q0 31 -20 31q-15 0 -29 -11l-25 12l15 87h37l-9 -57q12 9 32 9q51 0 51 -68z" />
<glyph unicode="&#xb9;" horiz-adv-x="160" d="M77 332v251q-23 -37 -52 -51v56q15 9 32.5 33t28.5 51h26v-340h-35z" />
<glyph unicode="&#xba;" horiz-adv-x="175" d="M87 675q35 0 56.5 -45t21.5 -125q0 -79 -22 -124.5t-56 -45.5q-33 0 -54.5 44.5t-21.5 123.5q0 82 21.5 127t54.5 45zM87 616q-19 0 -30.5 -26t-11.5 -85q0 -57 12 -83t30 -26q19 0 31 26t12 86q0 55 -12 81.5t-31 26.5z" />
<glyph unicode="&#xbb;" horiz-adv-x="267" d="M186 239l-62 207h35l75 -207l-75 -206h-34zM95 239l-62 207h35l74 -207l-74 -206h-35z" />
<glyph unicode="&#xbc;" horiz-adv-x="1097" d="M135 668q-3 -1 -9.5 -9t-13.5 -17.5t-13 -18t-7 -10.5q-2 -2 -5 -6t-5 -7l-6 -8h-2l-42 42q-1 0 -2.5 2.5t-2.5 4.5q-1 4 2.5 9t7.5 7l76 113q1 3 5 10t9 14t9.5 12t6.5 5h74v-670h-82v527v0zM555.181 806.599h72.7549l-212.285 -1031.38h-71.7578zM741 -82l-16 68v7 q0 6 12 38.5t30 78.5t40 99.5t41.5 102t34.5 84.5l20 48h101v-440h54v-86h-54v-144h-90v144h-173zM811 26q0 -5 -3.5 -11t-3.5 -10h108v301q-1 -3 -4 -13t-5 -13q-15 -41 -30 -83.5t-30 -82.5q-8 -22 -16.5 -42t-15.5 -46z" />
<glyph unicode="&#xbd;" horiz-adv-x="1041" d="M135 668q-3 -1 -9.5 -9t-13.5 -17.5t-13 -18t-7 -10.5q-2 -2 -5 -6t-5 -7l-6 -8h-2l-42 42q-1 0 -2.5 2.5t-2.5 4.5q-1 4 2.5 9t7.5 7l76 113q1 3 5 10t9 14t9.5 12t6.5 5h74v-670h-82v527v0zM557.639 806.52h73.4893l-214.43 -1033.37h-72.4834zM710 -138q0 14 11.5 25 t16.5 23l53 79q8 20 21 38.5t23 40.5q26 49 45.5 99.5t19.5 107.5v15.5t-3 31t-11.5 30.5t-25.5 14h-41q-10 0 -21.5 -9t-22 -19.5t-18 -19t-9.5 -8.5q0 1 -1.5 1t-1.5 2l-32 60v7q24 32 60 52t77 20q91 0 124 -86q4 -10 7 -20t7 -19v-102q0 -1 -2 -6.5t-4 -13t-4.5 -15 t-3.5 -11.5q-11 -38 -28 -74.5t-37 -71.5q-2 -5 -3 -11t-6 -8l-77 -115q-4 -12 -14.5 -20t-12.5 -21h192v-84h-268q-3 19 -5 36q-2 14 -3.5 29t-1.5 23z" />
<glyph unicode="&#xbe;" horiz-adv-x="1154" d="M33 165q0 5 4 16.5t9 25.5q5 15 13 34q22 -13 43 -25t47 -12q25 0 40.5 11.5t23 29.5t10 40t2.5 42q0 43 -9 66.5t-24 34.5t-35.5 13.5t-44.5 3.5v79q53 5 78.5 26t25.5 77q0 15 -2.5 32.5t-9.5 32t-20 24t-34 9.5q-14 0 -21.5 -4t-18.5 -6l-40 -25h-4q-5 0 -10 20.5 t-16 48.5q-2 8 11 17t32.5 16.5t41 12.5t36.5 5q23 0 43.5 -3.5t43.5 -24.5q20 -19 34.5 -44.5t14.5 -54.5v-88q0 -32 -20 -57.5t-43 -43.5v-3q25 -11 40.5 -29t24 -40t11.5 -47.5t3 -50.5q0 -38 -7 -74.5t-24.5 -65t-46.5 -46t-73 -17.5q-14 0 -36 3t-42.5 9t-35.5 14 t-15 18zM613.819 806.535h73.2451l-213.715 -1032.35h-72.2422zM798 -86l-16 68v7q0 6 12 38.5t30 78.5t40 99.5t41.5 102t34.5 84.5l20 48h101v-440h54v-86h-54v-144h-90v144h-173zM868 22q0 -5 -3.5 -11t-3.5 -10h108v301q-1 -3 -4 -13t-5 -13q-15 -41 -30 -83.5 t-30 -82.5q-8 -22 -16.5 -42t-15.5 -46z" />
<glyph unicode="&#xbf;" horiz-adv-x="384" d="M267 613q0 -23 -9.5 -43t-36.5 -20q-28 0 -38.5 19t-10.5 44q0 10 2 22t7.5 22t14 16.5t21.5 6.5q29 0 39.5 -20.5t10.5 -46.5zM179 271q-18 -17 -23.5 -43.5t-6.5 -50.5q0 -14 1.5 -29.5t6.5 -30t14 -26.5t24 -17q33 0 52.5 10t41.5 30l1 -1q2 -2 2 -4q1 -4 5.5 -15 t9 -22.5t8 -21t3.5 -10.5q-24 -24 -55 -37.5t-65 -13.5q-39 0 -64.5 15.5t-40.5 40.5t-21 57t-6 65q0 34 5.5 65.5t22.5 61.5q6 11 14 19.5t13 19.5q8 8 18 17t18.5 17.5t14.5 16.5t6 14v95h77v-116q0 -14 -4.5 -26t-11.5 -23z" />
<glyph unicode="&#xc0;" horiz-adv-x="473" d="M47 0l134 670h110l135 -670h-94l-30 160h-132l-31 -160h-92v0zM181 247h108l-53 321h-2zM324 700h-63l-113 154h105z" />
<glyph unicode="&#xc1;" horiz-adv-x="473" d="M47 0l134 670h110l135 -670h-94l-30 160h-132l-31 -160h-92v0zM181 247h108l-53 321h-2zM324 854l-113 -154h-63l71 154h105z" />
<glyph unicode="&#xc2;" horiz-adv-x="473" d="M47 0l134 670h110l135 -670h-94l-30 160h-132l-31 -160h-92v0zM181 247h108l-53 321h-2zM356 700h-61l-60 85l-60 -85h-59l80 154h80z" />
<glyph unicode="&#xc3;" horiz-adv-x="473" d="M47 0l134 670h110l135 -670h-94l-30 160h-132l-31 -160h-92v0zM181 247h108l-53 321h-2zM366 816q0 -57 -20.5 -88.5t-52.5 -31.5q-31 0 -82 38q-16 11 -26 11q-24 0 -27 -45h-52q0 57 22 90q20 29 53 29q30 0 81 -38q15 -12 27 -12q21 0 26 47h51z" />
<glyph unicode="&#xc4;" horiz-adv-x="473" d="M47 0l134 670h110l135 -670h-94l-30 160h-132l-31 -160h-92v0zM181 247h108l-53 321h-2zM354 760q0 -24 -14.5 -42t-34.5 -18q-19 0 -34 18t-15 42q0 25 15 42.5t34 17.5q20 0 34.5 -18t14.5 -42zM216 760q0 -24 -14.5 -42t-34.5 -18q-19 0 -34 18t-15 42q0 25 15 42.5 t34 17.5q20 0 34.5 -18t14.5 -42z" />
<glyph unicode="&#xc5;" horiz-adv-x="473" d="M47 0l134 670h110l135 -670h-94l-30 160h-132l-31 -160h-92v0zM181 247h108l-53 321h-2zM324 808q0 -47 -25 -77.5t-64 -30.5q-37 0 -62 30.5t-25 77.5t25 77.5t62 30.5q39 0 64 -30.5t25 -77.5zM279 808q0 23 -13 38t-31 15q-17 0 -29.5 -15t-12.5 -38t12.5 -38.5 t29.5 -15.5q18 0 31 15.5t13 38.5z" />
<glyph unicode="&#xc6;" horiz-adv-x="481" d="M0 0l166 664h282v-78h-174v-204h161v-79h-161v-225h180v-78h-225v191h-133l-46 -191h-50zM116 270h113v316h-34z" />
<glyph unicode="&#xc7;" horiz-adv-x="443" d="M105 98q-4 2 -7 13.5t-4 16.5q-13 52 -19.5 102t-6.5 104q0 48 6.5 107.5t27 112.5t58.5 89t100 36q13 0 28 -2t27 -7q10 -4 23.5 -14t26.5 -22t22 -24.5t9 -20.5q0 -5 -0.5 -4t-4.5 -4q-3 -6 -9.5 -15.5t-14 -19t-14 -16.5t-9.5 -7q-2 -1 -2.5 1.5t-0.5 3.5 q-16 24 -34.5 43t-48.5 19q-24 0 -40.5 -14t-27 -35.5t-16.5 -46.5t-8.5 -46.5t-3 -36l-0.5 -14.5v-130q0 -1 1 -16t4 -36.5t9 -46t16.5 -45.5t26.5 -35t39 -14q15 0 28.5 3.5t24.5 13.5q4 4 11 13t14.5 18.5t13 16.5t7.5 7q-1 4 6 -5.5t15.5 -22t16 -25t7.5 -14.5 q0 -5 -1.5 -7t-4.5 -7q-29 -38 -60.5 -57.5t-81.5 -19.5q-57 0 -91.5 29.5t-57.5 80.5zM302 -105q0 -80 -84 -80q-40 0 -78 28l15 31q25 -17 57 -17q38 0 38 35q0 31 -20 31q-15 0 -29 -11l-25 12l15 87h37l-9 -57q12 9 32 9q51 0 51 -68z" />
<glyph unicode="&#xc8;" horiz-adv-x="392" d="M324 670v-85h-149v-193h132v-86h-132v-221h156v-85h-243v670h236zM284 700h-63l-113 154h105z" />
<glyph unicode="&#xc9;" horiz-adv-x="392" d="M324 670v-85h-149v-193h132v-86h-132v-221h156v-85h-243v670h236zM284 854l-113 -154h-63l71 154h105z" />
<glyph unicode="&#xca;" horiz-adv-x="392" d="M324 670v-85h-149v-193h132v-86h-132v-221h156v-85h-243v670h236zM316 700h-61l-60 85l-60 -85h-59l80 154h80z" />
<glyph unicode="&#xcb;" horiz-adv-x="392" d="M324 670v-85h-149v-193h132v-86h-132v-221h156v-85h-243v670h236zM314 760q0 -24 -14.5 -42t-34.5 -18q-19 0 -34 18t-15 42q0 25 15 42.5t34 17.5q20 0 34.5 -18t14.5 -42zM176 760q0 -24 -14.5 -42t-34.5 -18q-19 0 -34 18t-15 42q0 25 15 42.5t34 17.5q20 0 34.5 -18 t14.5 -42z" />
<glyph unicode="&#xcc;" horiz-adv-x="261" d="M174 670v-670h-87v670h87zM220 700h-63l-113 154h105z" />
<glyph unicode="&#xcd;" horiz-adv-x="261" d="M174 670v-670h-87v670h87zM220 854l-113 -154h-63l71 154h105z" />
<glyph unicode="&#xce;" horiz-adv-x="261" d="M174 670v-670h-87v670h87zM252 700h-61l-60 85l-60 -85h-59l80 154h80z" />
<glyph unicode="&#xcf;" horiz-adv-x="261" d="M174 670v-670h-87v670h87zM250 760q0 -24 -14.5 -42t-34.5 -18q-19 0 -34 18t-15 42q0 25 15 42.5t34 17.5q20 0 34.5 -18t14.5 -42zM112 760q0 -24 -14.5 -42t-34.5 -18q-19 0 -34 18t-15 42q0 25 15 42.5t34 17.5q20 0 34.5 -18t14.5 -42z" />
<glyph unicode="&#xd0;" horiz-adv-x="347" d="M37 0v302h-38v60h38v302h119q39 0 61 -10q29 -12 50 -47q27 -44 40.5 -113.5t13.5 -157.5q0 -102 -16 -175t-39.5 -106t-54.5 -47q-17 -8 -49 -8h-125zM83 78h73q34 0 53.5 12.5t30.5 34.5q16 31 25 83.5t9 128.5q0 78 -8.5 124.5t-23.5 74.5t-33 39t-54 11h-72v-224h94 v-60h-94v-224z" />
<glyph unicode="&#xd1;" horiz-adv-x="510" d="M175 670l175 -439v439h83v-670h-77l-185 444v-444h-83v670h87zM385 816q0 -57 -20.5 -88.5t-52.5 -31.5q-31 0 -82 38q-16 11 -26 11q-24 0 -27 -45h-52q0 57 22 90q20 29 53 29q30 0 81 -38q15 -12 27 -12q21 0 26 47h51z" />
<glyph unicode="&#xd2;" horiz-adv-x="521" d="M67 340q0 30 2 67.5t9 75.5t20 73.5t34 63t52 44.5t75 17q49 0 84.5 -23t58.5 -63.5t35.5 -95.5t16.5 -118q0 -53 -2.5 -93t-7.5 -73t-13 -62t-19 -60q-4 -11 -11.5 -20t-12.5 -20q-47 -65 -128 -65q-44 0 -75 17.5t-52.5 46t-34.5 65.5t-20 76t-9 77t-2 70zM158 340 q0 -34 1.5 -80t11 -87t30.5 -70t60 -29q25 0 42 14t28.5 35t17 45t7.5 44q4 39 5.5 80t1.5 71q-1 12 -1.5 34.5t-3.5 48.5t-8.5 52.5t-16.5 48t-29 35.5t-44 14q-27 0 -45 -16t-29.5 -40.5t-17 -54.5t-8 -58.5t-2.5 -52v-34.5zM348 700h-63l-113 154h105z" />
<glyph unicode="&#xd3;" horiz-adv-x="521" d="M67 340q0 30 2 67.5t9 75.5t20 73.5t34 63t52 44.5t75 17q49 0 84.5 -23t58.5 -63.5t35.5 -95.5t16.5 -118q0 -53 -2.5 -93t-7.5 -73t-13 -62t-19 -60q-4 -11 -11.5 -20t-12.5 -20q-47 -65 -128 -65q-44 0 -75 17.5t-52.5 46t-34.5 65.5t-20 76t-9 77t-2 70zM158 340 q0 -34 1.5 -80t11 -87t30.5 -70t60 -29q25 0 42 14t28.5 35t17 45t7.5 44q4 39 5.5 80t1.5 71q-1 12 -1.5 34.5t-3.5 48.5t-8.5 52.5t-16.5 48t-29 35.5t-44 14q-27 0 -45 -16t-29.5 -40.5t-17 -54.5t-8 -58.5t-2.5 -52v-34.5zM348 854l-113 -154h-63l71 154h105z" />
<glyph unicode="&#xd4;" horiz-adv-x="521" d="M67 340q0 30 2 67.5t9 75.5t20 73.5t34 63t52 44.5t75 17q49 0 84.5 -23t58.5 -63.5t35.5 -95.5t16.5 -118q0 -53 -2.5 -93t-7.5 -73t-13 -62t-19 -60q-4 -11 -11.5 -20t-12.5 -20q-47 -65 -128 -65q-44 0 -75 17.5t-52.5 46t-34.5 65.5t-20 76t-9 77t-2 70zM158 340 q0 -34 1.5 -80t11 -87t30.5 -70t60 -29q25 0 42 14t28.5 35t17 45t7.5 44q4 39 5.5 80t1.5 71q-1 12 -1.5 34.5t-3.5 48.5t-8.5 52.5t-16.5 48t-29 35.5t-44 14q-27 0 -45 -16t-29.5 -40.5t-17 -54.5t-8 -58.5t-2.5 -52v-34.5zM380 700h-61l-60 85l-60 -85h-59l80 154h80z " />
<glyph unicode="&#xd5;" horiz-adv-x="521" d="M67 340q0 30 2 67.5t9 75.5t20 73.5t34 63t52 44.5t75 17q49 0 84.5 -23t58.5 -63.5t35.5 -95.5t16.5 -118q0 -53 -2.5 -93t-7.5 -73t-13 -62t-19 -60q-4 -11 -11.5 -20t-12.5 -20q-47 -65 -128 -65q-44 0 -75 17.5t-52.5 46t-34.5 65.5t-20 76t-9 77t-2 70zM158 340 q0 -34 1.5 -80t11 -87t30.5 -70t60 -29q25 0 42 14t28.5 35t17 45t7.5 44q4 39 5.5 80t1.5 71q-1 12 -1.5 34.5t-3.5 48.5t-8.5 52.5t-16.5 48t-29 35.5t-44 14q-27 0 -45 -16t-29.5 -40.5t-17 -54.5t-8 -58.5t-2.5 -52v-34.5zM390 816q0 -57 -20.5 -88.5t-52.5 -31.5 q-31 0 -82 38q-16 11 -26 11q-24 0 -27 -45h-52q0 57 22 90q20 29 53 29q30 0 81 -38q15 -12 27 -12q21 0 26 47h51z" />
<glyph unicode="&#xd6;" horiz-adv-x="521" d="M67 340q0 30 2 67.5t9 75.5t20 73.5t34 63t52 44.5t75 17q49 0 84.5 -23t58.5 -63.5t35.5 -95.5t16.5 -118q0 -53 -2.5 -93t-7.5 -73t-13 -62t-19 -60q-4 -11 -11.5 -20t-12.5 -20q-47 -65 -128 -65q-44 0 -75 17.5t-52.5 46t-34.5 65.5t-20 76t-9 77t-2 70zM158 340 q0 -34 1.5 -80t11 -87t30.5 -70t60 -29q25 0 42 14t28.5 35t17 45t7.5 44q4 39 5.5 80t1.5 71q-1 12 -1.5 34.5t-3.5 48.5t-8.5 52.5t-16.5 48t-29 35.5t-44 14q-27 0 -45 -16t-29.5 -40.5t-17 -54.5t-8 -58.5t-2.5 -52v-34.5zM378 760q0 -24 -14.5 -42t-34.5 -18 q-19 0 -34 18t-15 42q0 25 15 42.5t34 17.5q20 0 34.5 -18t14.5 -42zM240 760q0 -24 -14.5 -42t-34.5 -18q-19 0 -34 18t-15 42q0 25 15 42.5t34 17.5q20 0 34.5 -18t14.5 -42z" />
<glyph unicode="&#xd7;" horiz-adv-x="281" d="M38 186l74 142l-74 142l28 55l74 -141l74 141l28 -55l-74 -142l74 -141l-28 -56l-74 142l-74 -142z" />
<glyph unicode="&#xd8;" horiz-adv-x="521" d="M67 340q0 30 2 67.5t9 75.5t20 73.5t34 63t52 44.5t75 17q49 0 84.5 -23t58.5 -63.5t35.5 -95.5t16.5 -118q0 -53 -2.5 -93t-7.5 -73t-13 -62t-19 -60q-4 -11 -11.5 -20t-12.5 -20q-47 -65 -128 -65q-44 0 -75 17.5t-52.5 46t-34.5 65.5t-20 76t-9 77t-2 70zM158 340 q0 -34 1.5 -80t11 -87t30.5 -70t60 -29q25 0 42 14t28.5 35t17 45t7.5 44q4 39 5.5 80t1.5 71q-1 12 -1.5 34.5t-3.5 48.5t-8.5 52.5t-16.5 48t-29 35.5t-44 14q-27 0 -45 -16t-29.5 -40.5t-17 -54.5t-8 -58.5t-2.5 -52v-34.5zM324.149 676.562h70.9502l-207.02 -705.018 h-69.9785z" />
<glyph unicode="&#xd9;" horiz-adv-x="495" d="M174 0q-6 9 -18 14.5t-20 15.5q-17 21 -26.5 47.5t-14.5 54t-6.5 56t-1.5 54.5v428h88v-465q0 -15 1.5 -32t5.5 -34t11.5 -31.5t19.5 -23.5q4 -3 7.5 -6.5t8.5 -3.5h39q14 0 24 11.5t16 27.5t9 33t3 28l5 496h83v-474q0 -22 -4 -51.5t-14 -58.5t-25.5 -53t-39.5 -33 q-20 -8 -38 -10t-38 -2q-27 0 -42 2.5t-33 9.5zM335 700h-63l-113 154h105z" />
<glyph unicode="&#xda;" horiz-adv-x="495" d="M174 0q-6 9 -18 14.5t-20 15.5q-17 21 -26.5 47.5t-14.5 54t-6.5 56t-1.5 54.5v428h88v-465q0 -15 1.5 -32t5.5 -34t11.5 -31.5t19.5 -23.5q4 -3 7.5 -6.5t8.5 -3.5h39q14 0 24 11.5t16 27.5t9 33t3 28l5 496h83v-474q0 -22 -4 -51.5t-14 -58.5t-25.5 -53t-39.5 -33 q-20 -8 -38 -10t-38 -2q-27 0 -42 2.5t-33 9.5zM335 854l-113 -154h-63l71 154h105z" />
<glyph unicode="&#xdb;" horiz-adv-x="495" d="M174 0q-6 9 -18 14.5t-20 15.5q-17 21 -26.5 47.5t-14.5 54t-6.5 56t-1.5 54.5v428h88v-465q0 -15 1.5 -32t5.5 -34t11.5 -31.5t19.5 -23.5q4 -3 7.5 -6.5t8.5 -3.5h39q14 0 24 11.5t16 27.5t9 33t3 28l5 496h83v-474q0 -22 -4 -51.5t-14 -58.5t-25.5 -53t-39.5 -33 q-20 -8 -38 -10t-38 -2q-27 0 -42 2.5t-33 9.5zM367 700h-61l-60 85l-60 -85h-59l80 154h80z" />
<glyph unicode="&#xdc;" horiz-adv-x="495" d="M174 0q-6 9 -18 14.5t-20 15.5q-17 21 -26.5 47.5t-14.5 54t-6.5 56t-1.5 54.5v428h88v-465q0 -15 1.5 -32t5.5 -34t11.5 -31.5t19.5 -23.5q4 -3 7.5 -6.5t8.5 -3.5h39q14 0 24 11.5t16 27.5t9 33t3 28l5 496h83v-474q0 -22 -4 -51.5t-14 -58.5t-25.5 -53t-39.5 -33 q-20 -8 -38 -10t-38 -2q-27 0 -42 2.5t-33 9.5zM365 760q0 -24 -14.5 -42t-34.5 -18q-19 0 -34 18t-15 42q0 25 15 42.5t34 17.5q20 0 34.5 -18t14.5 -42zM227 760q0 -24 -14.5 -42t-34.5 -18q-19 0 -34 18t-15 42q0 25 15 42.5t34 17.5q20 0 34.5 -18t14.5 -42z" />
<glyph unicode="&#xdd;" horiz-adv-x="417" d="M37 670h91l81 -314l87 314h88l-129 -414v-256h-89v250zM296 854l-113 -154h-63l71 154h105z" />
<glyph unicode="&#xde;" horiz-adv-x="320" d="M37 0v664h46v-135h84q34 0 52 -7q26 -7 43 -30t27 -64.5t10 -90.5q0 -84 -27.5 -143t-101.5 -59h-87v-135h-46zM83 213h88q44 0 63 31.5t19 89.5q0 41 -11 71t-29 39q-12 7 -43 7h-87v-238z" />
<glyph unicode="&#xdf;" horiz-adv-x="361" d="M328 209q0 -209 -155 -209h-9v84h9q79 0 79 122q0 131 -79 131h-9v83h8q62 0 62 95t-59 95q-56 0 -56 -91v-654l-74 -50v693q0 98 31 142.5t101 44.5q64 0 98 -45t34 -127q0 -99 -55 -138q74 -36 74 -176z" />
<glyph unicode="&#xe0;" d="M30 153q0 54 14 90.5t41 59.5t66 35.5t89 18.5v79q0 22 -18 32.5t-36 10.5q-32 0 -60 -13t-54 -30q-3 -2 -6.5 7t-6.5 21.5t-5.5 25.5t-2.5 19q0 10 17 18.5t40.5 14.5t47.5 9.5t38 3.5q67 0 100 -34.5t33 -96.5v-337q0 -13 8.5 -24.5t8.5 -18.5q0 -3 -7 -11t-16.5 -16 t-18.5 -14.5t-12 -6.5q-21 0 -30.5 18t-12.5 35q-15 -13 -24.5 -23t-19.5 -17t-23.5 -11t-35.5 -4q-35 0 -57 14t-35 36.5t-17.5 51t-4.5 57.5zM114 154q0 -12 2 -27t7 -28t15 -21.5t26 -8.5q12 0 25.5 4.5t25 11.5t18.5 14.5t7 13.5v172q-66 0 -96 -34t-30 -97zM276 569 h-63l-113 154h105z" />
<glyph unicode="&#xe1;" d="M30 153q0 54 14 90.5t41 59.5t66 35.5t89 18.5v79q0 22 -18 32.5t-36 10.5q-32 0 -60 -13t-54 -30q-3 -2 -6.5 7t-6.5 21.5t-5.5 25.5t-2.5 19q0 10 17 18.5t40.5 14.5t47.5 9.5t38 3.5q67 0 100 -34.5t33 -96.5v-337q0 -13 8.5 -24.5t8.5 -18.5q0 -3 -7 -11t-16.5 -16 t-18.5 -14.5t-12 -6.5q-21 0 -30.5 18t-12.5 35q-15 -13 -24.5 -23t-19.5 -17t-23.5 -11t-35.5 -4q-35 0 -57 14t-35 36.5t-17.5 51t-4.5 57.5zM114 154q0 -12 2 -27t7 -28t15 -21.5t26 -8.5q12 0 25.5 4.5t25 11.5t18.5 14.5t7 13.5v172q-66 0 -96 -34t-30 -97zM276 723 l-113 -154h-63l71 154h105z" />
<glyph unicode="&#xe2;" d="M30 153q0 54 14 90.5t41 59.5t66 35.5t89 18.5v79q0 22 -18 32.5t-36 10.5q-32 0 -60 -13t-54 -30q-3 -2 -6.5 7t-6.5 21.5t-5.5 25.5t-2.5 19q0 10 17 18.5t40.5 14.5t47.5 9.5t38 3.5q67 0 100 -34.5t33 -96.5v-337q0 -13 8.5 -24.5t8.5 -18.5q0 -3 -7 -11t-16.5 -16 t-18.5 -14.5t-12 -6.5q-21 0 -30.5 18t-12.5 35q-15 -13 -24.5 -23t-19.5 -17t-23.5 -11t-35.5 -4q-35 0 -57 14t-35 36.5t-17.5 51t-4.5 57.5zM114 154q0 -12 2 -27t7 -28t15 -21.5t26 -8.5q12 0 25.5 4.5t25 11.5t18.5 14.5t7 13.5v172q-66 0 -96 -34t-30 -97zM308 569 h-61l-60 85l-60 -85h-59l80 154h80z" />
<glyph unicode="&#xe3;" d="M30 153q0 54 14 90.5t41 59.5t66 35.5t89 18.5v79q0 22 -18 32.5t-36 10.5q-32 0 -60 -13t-54 -30q-3 -2 -6.5 7t-6.5 21.5t-5.5 25.5t-2.5 19q0 10 17 18.5t40.5 14.5t47.5 9.5t38 3.5q67 0 100 -34.5t33 -96.5v-337q0 -13 8.5 -24.5t8.5 -18.5q0 -3 -7 -11t-16.5 -16 t-18.5 -14.5t-12 -6.5q-21 0 -30.5 18t-12.5 35q-15 -13 -24.5 -23t-19.5 -17t-23.5 -11t-35.5 -4q-35 0 -57 14t-35 36.5t-17.5 51t-4.5 57.5zM114 154q0 -12 2 -27t7 -28t15 -21.5t26 -8.5q12 0 25.5 4.5t25 11.5t18.5 14.5t7 13.5v172q-66 0 -96 -34t-30 -97zM318 685 q0 -57 -20.5 -88.5t-52.5 -31.5q-31 0 -82 38q-16 11 -26 11q-24 0 -27 -45h-52q0 57 22 90q20 29 53 29q30 0 81 -38q15 -12 27 -12q21 0 26 47h51z" />
<glyph unicode="&#xe4;" d="M30 153q0 54 14 90.5t41 59.5t66 35.5t89 18.5v79q0 22 -18 32.5t-36 10.5q-32 0 -60 -13t-54 -30q-3 -2 -6.5 7t-6.5 21.5t-5.5 25.5t-2.5 19q0 10 17 18.5t40.5 14.5t47.5 9.5t38 3.5q67 0 100 -34.5t33 -96.5v-337q0 -13 8.5 -24.5t8.5 -18.5q0 -3 -7 -11t-16.5 -16 t-18.5 -14.5t-12 -6.5q-21 0 -30.5 18t-12.5 35q-15 -13 -24.5 -23t-19.5 -17t-23.5 -11t-35.5 -4q-35 0 -57 14t-35 36.5t-17.5 51t-4.5 57.5zM114 154q0 -12 2 -27t7 -28t15 -21.5t26 -8.5q12 0 25.5 4.5t25 11.5t18.5 14.5t7 13.5v172q-66 0 -96 -34t-30 -97zM306 629 q0 -24 -14.5 -42t-34.5 -18q-19 0 -34 18t-15 42q0 25 15 42.5t34 17.5q20 0 34.5 -18t14.5 -42zM168 629q0 -24 -14.5 -42t-34.5 -18q-19 0 -34 18t-15 42q0 25 15 42.5t34 17.5q20 0 34.5 -18t14.5 -42z" />
<glyph unicode="&#xe5;" d="M30 153q0 54 14 90.5t41 59.5t66 35.5t89 18.5v79q0 22 -18 32.5t-36 10.5q-32 0 -60 -13t-54 -30q-3 -2 -6.5 7t-6.5 21.5t-5.5 25.5t-2.5 19q0 10 17 18.5t40.5 14.5t47.5 9.5t38 3.5q67 0 100 -34.5t33 -96.5v-337q0 -13 8.5 -24.5t8.5 -18.5q0 -3 -7 -11t-16.5 -16 t-18.5 -14.5t-12 -6.5q-21 0 -30.5 18t-12.5 35q-15 -13 -24.5 -23t-19.5 -17t-23.5 -11t-35.5 -4q-35 0 -57 14t-35 36.5t-17.5 51t-4.5 57.5zM114 154q0 -12 2 -27t7 -28t15 -21.5t26 -8.5q12 0 25.5 4.5t25 11.5t18.5 14.5t7 13.5v172q-66 0 -96 -34t-30 -97zM276 677 q0 -47 -25 -77.5t-64 -30.5q-37 0 -62 30.5t-25 77.5t25 77.5t62 30.5q39 0 64 -30.5t25 -77.5zM231 677q0 23 -13 38t-31 15q-17 0 -29.5 -15t-12.5 -38t12.5 -38.5t29.5 -15.5q18 0 31 15.5t13 38.5z" />
<glyph unicode="&#xe6;" horiz-adv-x="427" d="M406 148q-11 -77 -39 -118t-70 -41q-30 0 -52.5 22t-40.5 68q-25 -46 -49.5 -68t-53.5 -22q-40 0 -62.5 40t-22.5 98q0 39 12 73t32 52t66 29q36 9 60 22v18q0 58 -12.5 80.5t-43.5 22.5q-20 0 -34.5 -9.5t-21 -26.5t-11.5 -56l-40 10q7 53 19 84t35 48.5t54 17.5 q38 0 62 -23q14 -13 24 -42q15 32 34 48.5t46 16.5q38 0 63 -35.5t36 -94t11 -114.5v-28h-180q1 -65 9 -95t24.5 -49t37.5 -19q25 0 41.5 26.5t23.5 75.5zM227 287h137q-3 72 -21 104.5t-47 32.5t-48 -36t-21 -101zM187 242q-20 -16 -77 -34q-25 -8 -36 -22q-13 -22 -13 -56 q0 -33 12 -54.5t36 -21.5q27 0 47 25.5t27 64.5q4 23 4 98z" />
<glyph unicode="&#xe7;" horiz-adv-x="342" d="M103 24q-31 39 -48.5 86.5t-17.5 98.5v126q0 20 7 47.5t12 46.5q14 57 50.5 90.5t95.5 33.5q34 0 59 -9t51 -28v-4q0 -1 -4 -10t-9 -20.5t-10.5 -23.5t-8.5 -20q-5 0 -6 0.5t-4 2.5q-16 14 -30 25t-37 11q-29 0 -45 -21t-23.5 -51t-9 -62.5t-1.5 -54.5q0 -9 -0.5 -29 t1 -44.5t6 -50t14 -47t24.5 -35t39 -13.5q12 0 22.5 3.5t21.5 8.5q8 4 17 14t20 9l25 -59q0 -2 1 -4q0 -2 0.5 -3t0.5 -2q-8 -13 -22.5 -21.5t-31.5 -13.5t-34.5 -7t-30.5 -2q-20 0 -31.5 1.5t-20.5 5.5t-18 10t-24 15zM252 -105q0 -80 -84 -80q-40 0 -78 28l15 31 q25 -17 57 -17q38 0 38 35q0 31 -20 31q-15 0 -29 -11l-25 12l15 87h37l-9 -57q12 9 32 9q51 0 51 -68z" />
<glyph unicode="&#xe8;" d="M34 273q0 41 5 90t21.5 91t48 70.5t85.5 28.5q52 0 81.5 -28.5t44.5 -70.5t19 -89.5t4 -86.5v-7.5t-0.5 -12t-1 -12.5t-0.5 -8h-217q0 -22 1.5 -51t9 -55.5t24 -44.5t47.5 -18q26 0 47 10t40 25q2 1 2 0t2 -2l26 -59q0 -12 -12 -21.5t-30 -16t-40 -10t-41 -3.5 q-59 0 -92.5 29t-50 71.5t-20 91.5t-3.5 89zM194 479q-21 0 -34.5 -11.5t-21.5 -29.5t-11.5 -39t-4.5 -39.5t-0.5 -32.5t0.5 -17h139q0 -2 0.5 10t0 31t-4 41.5t-11 41.5t-20 32t-32.5 13zM276 569h-63l-113 154h105z" />
<glyph unicode="&#xe9;" d="M34 273q0 41 5 90t21.5 91t48 70.5t85.5 28.5q52 0 81.5 -28.5t44.5 -70.5t19 -89.5t4 -86.5v-7.5t-0.5 -12t-1 -12.5t-0.5 -8h-217q0 -22 1.5 -51t9 -55.5t24 -44.5t47.5 -18q26 0 47 10t40 25q2 1 2 0t2 -2l26 -59q0 -12 -12 -21.5t-30 -16t-40 -10t-41 -3.5 q-59 0 -92.5 29t-50 71.5t-20 91.5t-3.5 89zM194 479q-21 0 -34.5 -11.5t-21.5 -29.5t-11.5 -39t-4.5 -39.5t-0.5 -32.5t0.5 -17h139q0 -2 0.5 10t0 31t-4 41.5t-11 41.5t-20 32t-32.5 13zM276 723l-113 -154h-63l71 154h105z" />
<glyph unicode="&#xea;" d="M34 273q0 41 5 90t21.5 91t48 70.5t85.5 28.5q52 0 81.5 -28.5t44.5 -70.5t19 -89.5t4 -86.5v-7.5t-0.5 -12t-1 -12.5t-0.5 -8h-217q0 -22 1.5 -51t9 -55.5t24 -44.5t47.5 -18q26 0 47 10t40 25q2 1 2 0t2 -2l26 -59q0 -12 -12 -21.5t-30 -16t-40 -10t-41 -3.5 q-59 0 -92.5 29t-50 71.5t-20 91.5t-3.5 89zM194 479q-21 0 -34.5 -11.5t-21.5 -29.5t-11.5 -39t-4.5 -39.5t-0.5 -32.5t0.5 -17h139q0 -2 0.5 10t0 31t-4 41.5t-11 41.5t-20 32t-32.5 13zM308 569h-61l-60 85l-60 -85h-59l80 154h80z" />
<glyph unicode="&#xeb;" d="M34 273q0 41 5 90t21.5 91t48 70.5t85.5 28.5q52 0 81.5 -28.5t44.5 -70.5t19 -89.5t4 -86.5v-7.5t-0.5 -12t-1 -12.5t-0.5 -8h-217q0 -22 1.5 -51t9 -55.5t24 -44.5t47.5 -18q26 0 47 10t40 25q2 1 2 0t2 -2l26 -59q0 -12 -12 -21.5t-30 -16t-40 -10t-41 -3.5 q-59 0 -92.5 29t-50 71.5t-20 91.5t-3.5 89zM194 479q-21 0 -34.5 -11.5t-21.5 -29.5t-11.5 -39t-4.5 -39.5t-0.5 -32.5t0.5 -17h139q0 -2 0.5 10t0 31t-4 41.5t-11 41.5t-20 32t-32.5 13zM306 629q0 -24 -14.5 -42t-34.5 -18q-19 0 -34 18t-15 42q0 25 15 42.5t34 17.5 q20 0 34.5 -18t14.5 -42zM168 629q0 -24 -14.5 -42t-34.5 -18q-19 0 -34 18t-15 42q0 25 15 42.5t34 17.5q20 0 34.5 -18t14.5 -42z" />
<glyph unicode="&#xec;" horiz-adv-x="317" d="M117 544h84v-544h-84v544v0zM246 569h-63l-113 154h105z" />
<glyph unicode="&#xed;" horiz-adv-x="317" d="M117 544h84v-544h-84v544v0zM248 723l-113 -154h-63l71 154h105z" />
<glyph unicode="&#xee;" horiz-adv-x="317" d="M117 544h84v-544h-84v544v0zM278 569h-61l-60 85l-60 -85h-59l80 154h80z" />
<glyph unicode="&#xef;" horiz-adv-x="317" d="M117 544h84v-544h-84v544v0zM276 629q0 -24 -14.5 -42t-34.5 -18q-19 0 -34 18t-15 42q0 25 15 42.5t34 17.5q20 0 34.5 -18t14.5 -42zM138 629q0 -24 -14.5 -42t-34.5 -18q-19 0 -34 18t-15 42q0 25 15 42.5t34 17.5q20 0 34.5 -18t14.5 -42z" />
<glyph unicode="&#xf0;" horiz-adv-x="267" d="M72 664h51q17 -24 30 -46l49 46l11 -46l-41 -38q76 -166 76 -344q0 -115 -32.5 -181t-83.5 -66q-60 0 -93 87q-22 58 -22 158q0 119 30 183t76 64q14 0 24.5 -5.5t24.5 -21.5q-7 34 -13.5 52t-18.5 45l-65 -57l-11 47l57 49q-23 40 -49 74zM204 240q0 87 -21 132.5 t-52 45.5t-50.5 -45.5t-19.5 -140.5q0 -88 20 -132t51 -44q30 0 51 46.5t21 137.5z" />
<glyph unicode="&#xf1;" horiz-adv-x="387" d="M122 544l5 -42q12 13 22 22.5t20.5 15.5t24 8.5t31.5 2.5q37 0 60 -16t35.5 -41.5t16.5 -56.5t4 -60v-377h-86v403q0 29 -14.5 47t-42.5 18q-16 0 -28.5 -8.5t-21 -21.5t-13 -29t-4.5 -32v-377h-85v544h76zM323 685q0 -57 -20.5 -88.5t-52.5 -31.5q-31 0 -82 38 q-16 11 -26 11q-24 0 -27 -45h-52q0 57 22 90q20 29 53 29q30 0 81 -38q15 -12 27 -12q21 0 26 47h51z" />
<glyph unicode="&#xf2;" horiz-adv-x="381" d="M129 12q-2 1 -12.5 7.5t-12.5 8.5q-16 11 -26 29.5t-18 34.5q-20 44 -24 94t-4 97q0 63 10 116t39 109l2 2q42 49 108 49q54 0 85 -28.5t47.5 -71t21 -91.5t4.5 -89t-5 -88.5t-21.5 -91t-48 -71t-84.5 -28.5q-30 0 -58 9zM120 215q0 -13 1 -29t4 -31.5t8.5 -30.5 t14.5 -25q3 -4 10 -11t15 -7h35q1 1 2 1t2 1q2 1 4.5 2.5t2.5 2.5q18 16 27 40t12 50.5t3 53v47.5v61q0 16 -3 39.5t-10.5 45.5t-21.5 37.5t-37 15.5q-22 0 -35 -14.5t-20.5 -34.5t-10.5 -42.5t-3 -37.5v-67v-67zM278 569h-63l-113 154h105z" />
<glyph unicode="&#xf3;" horiz-adv-x="381" d="M129 12q-2 1 -12.5 7.5t-12.5 8.5q-16 11 -26 29.5t-18 34.5q-20 44 -24 94t-4 97q0 63 10 116t39 109l2 2q42 49 108 49q54 0 85 -28.5t47.5 -71t21 -91.5t4.5 -89t-5 -88.5t-21.5 -91t-48 -71t-84.5 -28.5q-30 0 -58 9zM120 215q0 -13 1 -29t4 -31.5t8.5 -30.5 t14.5 -25q3 -4 10 -11t15 -7h35q1 1 2 1t2 1q2 1 4.5 2.5t2.5 2.5q18 16 27 40t12 50.5t3 53v47.5v61q0 16 -3 39.5t-10.5 45.5t-21.5 37.5t-37 15.5q-22 0 -35 -14.5t-20.5 -34.5t-10.5 -42.5t-3 -37.5v-67v-67zM278 723l-113 -154h-63l71 154h105z" />
<glyph unicode="&#xf4;" horiz-adv-x="381" d="M129 12q-2 1 -12.5 7.5t-12.5 8.5q-16 11 -26 29.5t-18 34.5q-20 44 -24 94t-4 97q0 63 10 116t39 109l2 2q42 49 108 49q54 0 85 -28.5t47.5 -71t21 -91.5t4.5 -89t-5 -88.5t-21.5 -91t-48 -71t-84.5 -28.5q-30 0 -58 9zM120 215q0 -13 1 -29t4 -31.5t8.5 -30.5 t14.5 -25q3 -4 10 -11t15 -7h35q1 1 2 1t2 1q2 1 4.5 2.5t2.5 2.5q18 16 27 40t12 50.5t3 53v47.5v61q0 16 -3 39.5t-10.5 45.5t-21.5 37.5t-37 15.5q-22 0 -35 -14.5t-20.5 -34.5t-10.5 -42.5t-3 -37.5v-67v-67zM310 569h-61l-60 85l-60 -85h-59l80 154h80z" />
<glyph unicode="&#xf5;" horiz-adv-x="381" d="M129 12q-2 1 -12.5 7.5t-12.5 8.5q-16 11 -26 29.5t-18 34.5q-20 44 -24 94t-4 97q0 63 10 116t39 109l2 2q42 49 108 49q54 0 85 -28.5t47.5 -71t21 -91.5t4.5 -89t-5 -88.5t-21.5 -91t-48 -71t-84.5 -28.5q-30 0 -58 9zM120 215q0 -13 1 -29t4 -31.5t8.5 -30.5 t14.5 -25q3 -4 10 -11t15 -7h35q1 1 2 1t2 1q2 1 4.5 2.5t2.5 2.5q18 16 27 40t12 50.5t3 53v47.5v61q0 16 -3 39.5t-10.5 45.5t-21.5 37.5t-37 15.5q-22 0 -35 -14.5t-20.5 -34.5t-10.5 -42.5t-3 -37.5v-67v-67zM320 685q0 -57 -20.5 -88.5t-52.5 -31.5q-31 0 -82 38 q-16 11 -26 11q-24 0 -27 -45h-52q0 57 22 90q20 29 53 29q30 0 81 -38q15 -12 27 -12q21 0 26 47h51z" />
<glyph unicode="&#xf6;" horiz-adv-x="381" d="M129 12q-2 1 -12.5 7.5t-12.5 8.5q-16 11 -26 29.5t-18 34.5q-20 44 -24 94t-4 97q0 63 10 116t39 109l2 2q42 49 108 49q54 0 85 -28.5t47.5 -71t21 -91.5t4.5 -89t-5 -88.5t-21.5 -91t-48 -71t-84.5 -28.5q-30 0 -58 9zM120 215q0 -13 1 -29t4 -31.5t8.5 -30.5 t14.5 -25q3 -4 10 -11t15 -7h35q1 1 2 1t2 1q2 1 4.5 2.5t2.5 2.5q18 16 27 40t12 50.5t3 53v47.5v61q0 16 -3 39.5t-10.5 45.5t-21.5 37.5t-37 15.5q-22 0 -35 -14.5t-20.5 -34.5t-10.5 -42.5t-3 -37.5v-67v-67zM308 629q0 -24 -14.5 -42t-34.5 -18q-19 0 -34 18t-15 42 q0 25 15 42.5t34 17.5q20 0 34.5 -18t14.5 -42zM170 629q0 -24 -14.5 -42t-34.5 -18q-19 0 -34 18t-15 42q0 25 15 42.5t34 17.5q20 0 34.5 -18t14.5 -42z" />
<glyph unicode="&#xf7;" horiz-adv-x="264" d="M108 417v94h48v-94h-48zM245 290h-227v76h227v-76zM108 145v92h48v-92h-48z" />
<glyph unicode="&#xf8;" horiz-adv-x="381" d="M129 12q-2 1 -12.5 7.5t-12.5 8.5q-16 11 -26 29.5t-18 34.5q-20 44 -24 94t-4 97q0 63 10 116t39 109l2 2q42 49 108 49q54 0 85 -28.5t47.5 -71t21 -91.5t4.5 -89t-5 -88.5t-21.5 -91t-48 -71t-84.5 -28.5q-30 0 -58 9zM120 215q0 -13 1 -29t4 -31.5t8.5 -30.5 t14.5 -25q3 -4 10 -11t15 -7h35q1 1 2 1t2 1q2 1 4.5 2.5t2.5 2.5q18 16 27 40t12 50.5t3 53v47.5v61q0 16 -3 39.5t-10.5 45.5t-21.5 37.5t-37 15.5q-22 0 -35 -14.5t-20.5 -34.5t-10.5 -42.5t-3 -37.5v-67v-67zM256.574 560.555h71.9756l-210.01 -588.986h-70.9893z" />
<glyph unicode="&#xf9;" horiz-adv-x="384" d="M131 544v-396q0 -27 14 -49.5t40 -22.5q21 0 34 11t20.5 27.5t10.5 36t3 36.5v357h85v-544h-82l-4 48q-17 -30 -40.5 -42.5t-57.5 -12.5q-14 0 -26.5 1t-25.5 6q-19 7 -30 27t-17 41.5t-7.5 40t-1.5 23.5v412h85zM280 569h-63l-113 154h105z" />
<glyph unicode="&#xfa;" horiz-adv-x="384" d="M131 544v-396q0 -27 14 -49.5t40 -22.5q21 0 34 11t20.5 27.5t10.5 36t3 36.5v357h85v-544h-82l-4 48q-17 -30 -40.5 -42.5t-57.5 -12.5q-14 0 -26.5 1t-25.5 6q-19 7 -30 27t-17 41.5t-7.5 40t-1.5 23.5v412h85zM280 723l-113 -154h-63l71 154h105z" />
<glyph unicode="&#xfb;" horiz-adv-x="384" d="M131 544v-396q0 -27 14 -49.5t40 -22.5q21 0 34 11t20.5 27.5t10.5 36t3 36.5v357h85v-544h-82l-4 48q-17 -30 -40.5 -42.5t-57.5 -12.5q-14 0 -26.5 1t-25.5 6q-19 7 -30 27t-17 41.5t-7.5 40t-1.5 23.5v412h85zM312 569h-61l-60 85l-60 -85h-59l80 154h80z" />
<glyph unicode="&#xfc;" horiz-adv-x="384" d="M131 544v-396q0 -27 14 -49.5t40 -22.5q21 0 34 11t20.5 27.5t10.5 36t3 36.5v357h85v-544h-82l-4 48q-17 -30 -40.5 -42.5t-57.5 -12.5q-14 0 -26.5 1t-25.5 6q-19 7 -30 27t-17 41.5t-7.5 40t-1.5 23.5v412h85zM310 629q0 -24 -14.5 -42t-34.5 -18q-19 0 -34 18t-15 42 q0 25 15 42.5t34 17.5q20 0 34.5 -18t14.5 -42zM172 629q0 -24 -14.5 -42t-34.5 -18q-19 0 -34 18t-15 42q0 25 15 42.5t34 17.5q20 0 34.5 -18t14.5 -42z" />
<glyph unicode="&#xfd;" horiz-adv-x="367" d="M51 -125l4.5 -0.5t9.5 -1t9.5 -1t6.5 -0.5q12 -1 24 5.5t15 20.5l18 79l-115 567h90l72 -443l71 443h88q-24 -117 -40 -198.5t-27 -135t-17 -84t-9 -45.5t-4 -19t-2 -5q-9 -41 -16 -82.5t-17.5 -78t-28 -64.5t-47.5 -40q-2 -2 -7.5 -3.5t-6.5 -1.5h-57q-4 0 -9 1.5 t-5 3.5v83v0zM271 723l-113 -154h-63l71 154h105z" />
<glyph unicode="&#xfe;" horiz-adv-x="267" d="M32 -185v849h42v-234q17 35 30 47q17 15 39 15q31 0 55.5 -32t37 -89.5t12.5 -126.5q0 -75 -14 -133t-40 -90t-54 -32q-20 0 -37 15q-12 12 -29 46v-235h-42zM70 238q0 -93 19.5 -137t47.5 -44t48 45.5t20 142.5q0 92 -19.5 137.5t-46.5 45.5q-28 0 -48.5 -48.5 t-20.5 -141.5z" />
<glyph unicode="&#xff;" horiz-adv-x="367" d="M51 -125l4.5 -0.5t9.5 -1t9.5 -1t6.5 -0.5q12 -1 24 5.5t15 20.5l18 79l-115 567h90l72 -443l71 443h88q-24 -117 -40 -198.5t-27 -135t-17 -84t-9 -45.5t-4 -19t-2 -5q-9 -41 -16 -82.5t-17.5 -78t-28 -64.5t-47.5 -40q-2 -2 -7.5 -3.5t-6.5 -1.5h-57q-4 0 -9 1.5 t-5 3.5v83v0zM301 629q0 -24 -14.5 -42t-34.5 -18q-19 0 -34 18t-15 42q0 25 15 42.5t34 17.5q20 0 34.5 -18t14.5 -42zM163 629q0 -24 -14.5 -42t-34.5 -18q-19 0 -34 18t-15 42q0 25 15 42.5t34 17.5q20 0 34.5 -18t14.5 -42z" />
<glyph unicode="&#x152;" horiz-adv-x="481" d="M465 78v-78h-202v96q-32 -107 -94 -107q-71 0 -107 105q-31 93 -31 239t33 244t105 98q62 0 94 -100v89h195v-78h-153v-203h141v-78h-141v-227h160zM168 604q-23 0 -45.5 -29.5t-34 -89.5t-11.5 -159q0 -137 27 -201.5t64 -64.5q38 0 65.5 64t27.5 213q0 139 -27.5 203 t-65.5 64z" />
<glyph unicode="&#x153;" horiz-adv-x="453" d="M229 79q-18 -44 -40.5 -67t-51.5 -23q-54 0 -86 65t-32 181q0 77 13.5 137t42 90t62.5 30q32 0 56 -26t36 -66q16 42 39.5 67t51.5 25q52 0 84 -68.5t31 -204.5h-183q1 -75 21.5 -118.5t52.5 -43.5q23 0 40 24.5t24 75.5l42 -12q-10 -75 -37.5 -115.5t-69.5 -40.5 q-32 0 -56.5 24t-39.5 66zM62 242q0 -84 17 -129q22 -56 57 -56q30 0 51.5 48t21.5 138q0 89 -21 135.5t-52 46.5q-21 0 -38.5 -22t-26.5 -66t-9 -95zM254 286h137q-2 68 -21 103.5t-47 35.5t-47.5 -37t-21.5 -102z" />
<glyph unicode="&#x178;" horiz-adv-x="417" d="M37 670h91l81 -314l87 314h88l-129 -414v-256h-89v250zM326 760q0 -24 -14.5 -42t-34.5 -18q-19 0 -34 18t-15 42q0 25 15 42.5t34 17.5q20 0 34.5 -18t14.5 -42zM188 760q0 -24 -14.5 -42t-34.5 -18q-19 0 -34 18t-15 42q0 25 15 42.5t34 17.5q20 0 34.5 -18t14.5 -42z " />
<glyph unicode="&#x2c6;" horiz-adv-x="312" d="M276 569h-61l-60 85l-60 -85h-59l80 154h80z" />
<glyph unicode="&#x2dc;" horiz-adv-x="312" d="M288 685q0 -57 -20.5 -88.5t-52.5 -31.5q-31 0 -82 38q-16 11 -26 11q-24 0 -27 -45h-52q0 57 22 90q20 29 53 29q30 0 81 -38q15 -12 27 -12q21 0 26 47h51z" />
<glyph unicode="&#x2013;" horiz-adv-x="313" d="M285 305h-254v90h254v-90z" />
<glyph unicode="&#x2014;" horiz-adv-x="428" d="M397 305h-366v90h366v-90z" />
<glyph unicode="&#x2018;" horiz-adv-x="107" d="M75 553v-95h-45v74q0 62 8 89q9 36 30 54l11 -31q-13 -11 -19 -31.5t-6 -59.5h21z" />
<glyph unicode="&#x2019;" horiz-adv-x="107" d="M29 576v95h45v-75q0 -61 -7 -87q-10 -37 -31 -56l-10 33q12 10 18.5 31t7.5 59h-23z" />
<glyph unicode="&#x201a;" horiz-adv-x="107" d="M29 0v95h45v-75q0 -61 -7 -87q-10 -37 -31 -56l-10 33q12 10 18.5 31t7.5 59h-23z" />
<glyph unicode="&#x201c;" horiz-adv-x="160" d="M64 553v-95h-44v74q0 62 7 89q10 36 32 54l9 -31q-12 -11 -18.5 -31.5t-7.5 -59.5h22zM138 553v-95h-46v74q0 62 8 89q9 36 31 54l10 -31q-13 -11 -19 -31.5t-7 -59.5h23z" />
<glyph unicode="&#x201d;" horiz-adv-x="160" d="M21 576v95h44v-75q0 -61 -6 -87q-11 -37 -32 -56l-10 33q13 10 19 31t6 59h-21zM93 576v95h46v-75q0 -61 -8 -87q-10 -37 -31 -56l-11 33q13 10 19 31t7 59h-22z" />
<glyph unicode="&#x201e;" horiz-adv-x="160" d="M21 0v95h44v-75q0 -61 -6 -87q-11 -37 -32 -56l-10 33q13 10 19 31t6 59h-21zM93 0v95h46v-75q0 -61 -8 -87q-10 -37 -31 -56l-11 33q13 10 19 31t7 59h-22z" />
<glyph unicode="&#x2022;" horiz-adv-x="168" d="M26 325q0 48 17.5 81.5t41.5 33.5t42 -33.5t18 -81.5t-18 -81.5t-42 -33.5t-41.5 33.5t-17.5 81.5z" />
<glyph unicode="&#x2026;" horiz-adv-x="481" d="M57 0v93h47v-93h-47zM216 0v93h49v-93h-49zM377 0v93h47v-93h-47z" />
<glyph unicode="&#x2039;" horiz-adv-x="160" d="M68 239l63 -206h-36l-73 206l73 207h36z" />
<glyph unicode="&#x203a;" horiz-adv-x="160" d="M83 240l-61 206h35l71 -203l-71 -210h-35z" />
<glyph unicode="&#x20ac;" horiz-adv-x="333" d="M226 601q-40 0 -67 -37q-16 -22 -29 -63q-13 -40 -16 -78h161l-7 -60h-157q-1 -10 -1 -18q0 -35 1 -42h151l-7 -60h-139q10 -104 47 -148q28 -32 59 -32q44 0 68 45v-93q-29 -26 -64 -26q-107 0 -144 170q-7 34 -12 84h-37l7 60h25q-1 19 -1 41v19h-31l7 60h27 q15 148 76 212q38 40 84 40q43 0 73 -36l-10 -85q-28 47 -64 47z" />
<glyph unicode="&#x2122;" horiz-adv-x="448" d="M420 294h-44v152q0 11 1 43v42q-5 -23 -22 -89l-39 -157l-40 157q-8 32 -21 85q0 -11 1 -41v-40v-152h-44v376h47l40 -157q7 -28 18 -78q4 27 18 80l39 155h46v-376zM172 615h-56v-321h-44v321h-57v55h157v-55z" />
<glyph unicode="&#x25fc;" horiz-adv-x="545" d="M0 545h545v-545h-545v545z" />
</font>
</defs>
</svg>
