<?xml version="1.0" standalone="no"?>
<!DOCTYPE svg PUBLIC "-//W3C//DTD SVG 1.1//EN" "http://www.w3.org/Graphics/SVG/1.1/DTD/svg11.dtd" >
<svg xmlns="http://www.w3.org/2000/svg" xmlns:xlink="http://www.w3.org/1999/xlink" version="1.1">
<metadata></metadata>
<defs>
<font id="roadgeek_2005_series_6wRg" horiz-adv-x="445" >
<font-face units-per-em="1000" ascent="800" descent="-200" />
<missing-glyph horiz-adv-x="264" />
<glyph horiz-adv-x="0" />
<glyph horiz-adv-x="333" />
<glyph d="M394 723q-29 -154 -172 -154q-142 0 -171 154h93q18 -59 79 -59q60 0 78 59h93z" />
<glyph d="M306 657q0 -35 -25 -61.5t-58 -26.5t-58.5 26.5t-25.5 61.5q0 36 25.5 62.5t58.5 26.5t58 -26t25 -63z" />
<glyph d="M349 702q0 -57 -36.5 -95t-89.5 -38q-54 0 -90.5 38t-36.5 95q0 56 36.5 94.5t90.5 38.5q53 0 89.5 -38.5t36.5 -94.5zM272 702q0 57 -49 57t-49 -57t49 -57t49 57z" />
<glyph unicode="&#xa;" d="M454 723l-131 -154h-109l68 154h172zM254 723l-131 -154h-110l69 154h172z" />
<glyph d="M344 -142q-59 -43 -126 -43q-41 0 -66 21t-25 54q0 53 63 110h54q-25 -57 -25 -92q0 -30 34 -30q33 0 76 21z" />
<glyph d="M402 723l-116 -154h-127l-116 154h107l73 -62l74 62h105z" />
<glyph unicode="&#xd;" horiz-adv-x="265" d="M197 545v-545h-129v545h129z" />
<glyph horiz-adv-x="648" d="M459 787h124l-398 -816h-120z" />
<glyph horiz-adv-x="712" d="M55 428v109h81q1 56 7 93t25 59.5t54.5 32t96.5 9.5h19t16 -1t17.5 -2t24.5 -2v-94q-45 0 -70 -2.5t-38 -10t-16 -21.5t-3 -37v-24h116v-107h-113v-430h-134v428h-83zM644 545v-545h-129v545h129zM498 683q0 35 25 51.5t58 16.5q32 0 56 -17t24 -51q0 -39 -23 -55 t-59 -16q-37 0 -59 15.5t-22 55.5z" />
<glyph horiz-adv-x="785" d="M55 428v109h81q1 56 7 93t25 59.5t54.5 32t96.5 9.5h19t16 -1t17.5 -2t24.5 -2v-94q-45 0 -70 -2.5t-38 -10t-16 -21.5t-3 -37v-24h116v-107h-113v-430h-134v428h-83zM653 725v-591q0 -15 8 -21.5t20.5 -9t28.5 -2t32 0.5v-100l-2 -2q-2 -2 -15 -3.5t-20 -1.5 q-48 0 -83 2.5t-58 12t-34 29.5t-11 56v630h134z" />
<glyph horiz-adv-x="575" d="M92 670h136v-553h284v-117h-420v670v0zM391.573 670.811h122.805l-394.162 -370.995h-118.843z" />
<glyph horiz-adv-x="338" d="M206 725v-591q0 -15 8 -21.5t20.5 -9t28.5 -2t32 0.5v-100l-2 -2q-2 -2 -15 -3.5t-20 -1.5q-48 0 -83 2.5t-58 12t-34 29.5t-11 56v630h134zM258.51 724.841h80.9131l-259.705 -425.979h-78.3037z" />
<glyph horiz-adv-x="654" d="M72 109q13 16 26.5 34t30.5 41.5t40 55t55 75t74.5 101.5t98.5 135h-311v119h487v-109l-334 -449h343v-112h-510v109v0zM506 854l-116 -154h-127l-116 154h107l73 -62l74 62h105z" />
<glyph horiz-adv-x="564" d="M330 437h-260v108h424v-105l-255 -332h260v-108h-434v95zM461 723l-116 -154h-127l-116 154h107l73 -62l74 62h105z" />
<glyph unicode=" "  horiz-adv-x="264" />
<glyph unicode="&#x09;" horiz-adv-x="264" />
<glyph unicode="&#xa0;" horiz-adv-x="264" />
<glyph unicode="!" horiz-adv-x="280" d="M53 58q0 18 7.5 31t20 21t28 12t31.5 4t31.5 -4t28 -12.5t20 -21.5t7.5 -31t-7.5 -31t-20 -22t-28.5 -13t-32 -4q-33 0 -59.5 17t-26.5 54zM216 669l-21 -473h-109l-19 473h149z" />
<glyph unicode="&#x22;" horiz-adv-x="604" d="M130 682h150l-104 -236h-93zM323 446l49 236h149l-104 -236h-94v0z" />
<glyph unicode="#" horiz-adv-x="771" d="M188 230h-104l12 106h109l15 121h-108l14 104h109l16 108h114l-16 -107h120l19 107h114l-14 -108h99l-16 -104h-102l-18 -121h108l-16 -106h-109l-18 -115h-116l17 114h-115l-18 -114h-112l16 115v0zM316 338h118l17 118h-116l-3 -3z" />
<glyph unicode="$" horiz-adv-x="618" d="M248 40q-32 4 -59.5 10t-64.5 25q-1 0 -9.5 3.5t-18.5 8.5t-18 10.5t-8 8.5t8 17.5t17.5 31t18.5 30t11 13.5l1 -1l44 -23q32 -19 68 -29t73 -10q18 0 38 2.5t36.5 10t27 21.5t10.5 36q0 27 -19 44.5t-48.5 30t-64.5 22.5t-68 23q-18 7 -41.5 19.5t-44.5 29t-35.5 37 t-14.5 44.5v69q0 18 11 34.5t19 33.5q16 15 30 24.5t29 16.5t32.5 11.5t41.5 9.5v74h125v-74q12 -3 23 -5q9 -2 17.5 -3.5t11.5 -2.5q7 -3 22.5 -7.5t31.5 -10t27.5 -11.5t11.5 -11q-3 -8 -7 -18t-8.5 -19t-7 -15l-2.5 -6l-19 -37h-6q-3 0 -3 2q-38 20 -75 31t-79 11 q-14 0 -31.5 -1.5t-33 -6.5t-26 -16t-10.5 -30q0 -20 12 -32t28.5 -19.5t35 -13t30.5 -13.5l95 -35q7 -5 21.5 -11.5t29 -13.5t25 -14t10.5 -12q25 -28 37 -54.5t12 -64.5q0 -40 -13 -70t-36.5 -51t-55 -34.5t-67.5 -19.5l-3 -2v-77h-125v79v0z" />
<glyph unicode="%" horiz-adv-x="962" d="M935 199q0 -100 -54 -157q-49 -53 -131 -53t-131 52q-53 56 -53 156q0 101 54 157q50 53 131 53q82 0 131 -52q53 -55 53 -156zM740 670l-382 -670h-136l382 670h136zM395 473q0 -101 -53 -157q-50 -53 -132 -53t-131 52q-52 55 -52 156q0 100 53 157q50 53 132 53 t131 -52q52 -56 52 -156zM804 197q0 105 -53 105q-29 0 -41 -21q-13 -24 -13 -82t13 -81.5t41 -23.5q29 0 41 22.5t12 80.5zM264 471q0 105 -53 105q-28 0 -41 -21q-12 -24 -12 -82q0 -59 12.5 -82t41.5 -23q28 0 40 22.5t12 80.5z" />
<glyph unicode="&#x26;" horiz-adv-x="746" d="M248 1q-11 6 -23.5 9t-23.5 9q-55 29 -82 76.5t-27 109.5q0 24 4.5 47t16 44t32.5 38t54 28q-44 18 -64 55.5t-20 82.5t19 84t60 61q38 20 74.5 26.5t74.5 6.5q4 0 14 -1t23.5 -2.5t27.5 -3t25 -3.5l8.5 -2.5t19 -6.5t19.5 -9.5t9 -9.5q-1 -2 -1.5 -6t-1.5 -5l-27 -81 l-2 -1q-5 0 -11 3t-11 5q-21 7 -41.5 10.5t-42.5 3.5q-20 0 -39 -4t-34.5 -13t-25 -24.5t-9.5 -37.5q0 -24 12 -39t30.5 -23.5t40 -11.5t40.5 -3h22t34 0.5t34 0.5h22v80h126v-82h91v-107h-88q0 -41 -1 -83.5t-12.5 -81.5t-37 -72.5t-74.5 -57.5q-26 -14 -61.5 -17.5 t-67.5 -3.5q-27 0 -52.5 3t-52.5 9zM222 209q0 -63 36.5 -87t93.5 -24q22 0 40.5 2t33 9.5t25.5 21.5t19 37q3 8 5 16.5t2 17.5v102h-164q-45 0 -68 -26.5t-23 -68.5z" />
<glyph unicode="'" horiz-adv-x="290" d="M134 444h-88l47 246h144z" />
<glyph unicode="(" horiz-adv-x="293" d="M102 3q0 1 -3.5 13.5t-8 29t-9 34.5t-7.5 29q-13 52 -17 104t-4 105q0 18 0.5 44.5t2 54.5t4.5 54t7 42l35 139q0 1 1 2.5t1 2.5q7 13 11 29.5t6 18.5q4 12 9 26.5t10 26.5t10 19.5t10 6.5l83 -23v-2q-22 -68 -35.5 -134t-22.5 -135q0 -1 -1 -10t-2 -20t-2 -21t-1 -14 v-195q0 -81 19.5 -167t44.5 -164v-3l-83 -23q-8 -1 -12 7l-44 118z" />
<glyph unicode=")" horiz-adv-x="296" d="M51 -95q1 6 6.5 27.5t12 47t13 49t8.5 32.5q17 66 21 135t4 136q0 111 -16 216t-49 211v7l88 23q1 0 5.5 -9t6.5 -14q42 -105 66.5 -213t24.5 -222q0 -55 -5.5 -110t-18.5 -109l-8 -32t-10.5 -40t-10.5 -35.5t-6 -17.5l-39 -102q-2 -5 -3 -6t-6 -1l-79 21q-5 1 -5 6z" />
<glyph unicode="*" horiz-adv-x="452" d="M97 446l-2 2q16 20 36 36t38 36l-107 11v2q0 5 5 20t11.5 31.5t12 29.5t6.5 13t2 -1l89 -42v10l-18 88h111l-16 -95h6q23 12 42 20t41 19h5q1 -5 6 -17t10.5 -26t10 -27.5t4.5 -21.5q0 -1 -0.5 -1t-0.5 -1v-1l-104 -11l8 -8l8 -8q4 -4 13.5 -11.5t19 -15.5t16.5 -16 t7 -13q0 -1 -4.5 -5t-10.5 -8.5t-12 -8.5t-8 -6q-3 -2 -9 -6.5t-13 -9.5t-14 -8.5t-10 -3.5q-4 0 -5 3l-30 60q-5 2 -7 10.5t-7 12.5l-5 -7l-41 -81q-5 -1 -15 5t-13 11z" />
<glyph unicode="+" horiz-adv-x="605" d="M244 278h-171v116h171v154h120v-154h168v-116h-168v-168h-120v168v0z" />
<glyph unicode="," horiz-adv-x="290" d="M134 -138h-88l47 246h144z" />
<glyph unicode="-" horiz-adv-x="419" d="M69 430h281v-125h-281v125v0z" />
<glyph unicode="." horiz-adv-x="271" d="M78 0q-12 12 -21 22t-9 28q0 42 24.5 59.5t62.5 17.5q16 0 32 -4t28.5 -12.5t20 -21.5t7.5 -31t-7.5 -31.5t-20 -22t-28.5 -12.5t-32 -4q-15 0 -29 2.5t-28 9.5z" />
<glyph unicode="/" horiz-adv-x="648" d="M459 787h124l-398 -816h-120z" />
<glyph unicode="0" horiz-adv-x="739" d="M262 2q-5 3 -11.5 5t-12.5 4q-28 14 -53.5 33t-43.5 48q-24 38 -40 85t-16 92v127q0 42 11.5 82.5t32.5 75t50.5 61.5t65.5 43q8 3 20 7t13 5q26 5 46 6t47 1q33 0 60.5 -4t51.5 -13t47 -24t47 -38q1 -5 3.5 -6t5.5 -6q38 -54 53 -120.5t15 -132.5q0 -59 -11.5 -120 t-40.5 -109q-17 -33 -43 -55t-57 -35.5t-65 -19.5t-66 -6q-29 0 -54.5 3t-54.5 11zM219 333q0 -39 4 -80.5t18.5 -75.5t43.5 -56t80 -22q52 0 83 20.5t46.5 54t20 75t4.5 83.5q0 39 -4.5 80.5t-20 76t-45.5 57t-80 22.5q-52 0 -82 -21.5t-45 -55.5t-19 -76t-4 -82z" />
<glyph unicode="1" horiz-adv-x="449" d="M108 401h-3q-5 7 -12 18.5t-14.5 25t-16 27.5t-15.5 26v3q0 1 5 6t11.5 10.5t13.5 10t10 5.5l65 54q9 2 20 12.5t19 17.5q21 17 40.5 33.5t22.5 19.5h109v-670h-130v501z" />
<glyph unicode="2" horiz-adv-x="629" d="M66 111v3q27 26 58.5 52t62 51t59 48.5t50.5 45.5l2 1q1 0 2 1q18 17 37.5 36t36 41t27.5 46t11 51q0 39 -27.5 59t-62.5 20q-53 0 -93 -25.5t-75 -60.5h-2l-76 88v2q0 1 5 7t9 10q21 15 35 25.5t25.5 18t23 13t27.5 12.5q10 3 13 5t8.5 4t19.5 4.5t47 7.5q33 0 63 0.5 t62 -7.5q1 0 2.5 -1t2.5 -1q19 -11 37 -18.5t35 -21.5q29 -26 42.5 -59.5t13.5 -78.5q0 -38 -11 -71t-30 -62t-44.5 -54.5t-52.5 -49.5q-15 -13 -35.5 -29.5t-39 -30.5t-32 -24t-13.5 -11l-63 -46h327v-112h-468z" />
<glyph unicode="3" horiz-adv-x="638" d="M187 1q-1 0 -2.5 1t-2.5 1q-17 5 -32 12t-40 18q1 -1 -6 3t-15.5 9.5t-15.5 11.5t-7 9q0 -2 8 12.5t18.5 33t20.5 34t14 15.5q39 -27 77 -45t86 -18q25 0 49.5 4t43 15.5t30 31t11.5 49.5q0 33 -12.5 54.5t-46.5 30.5q-5 2 -14.5 4t-10.5 2h-123v108q22 0 54 0.5t62 7.5 t51 24t21 51q0 24 -8.5 40t-22.5 25.5t-33 14t-41 4.5q-24 0 -49 -4.5t-46 -16.5q-5 -3 -16 -10.5t-22.5 -15t-20.5 -13t-10 -5.5q-2 0 -12.5 13t-21.5 29t-20 31t-9 20q0 3 11 10.5t24.5 15.5t26 14.5t15.5 7.5q22 10 41 16.5t38.5 10.5t40.5 6t45 2q12 0 36.5 -1t46.5 -6 q17 -11 37 -16t37 -19q13 -11 25 -22.5t21.5 -28t15 -39.5t5.5 -56q0 -42 -18 -78t-56 -56l2 -2q26 -7 43.5 -23t28 -37t15 -45.5t4.5 -47.5q0 -20 -2 -35.5t-6 -28.5t-9.5 -25t-12.5 -27q-51 -53 -106.5 -73t-126.5 -20q-53 0 -108 12z" />
<glyph unicode="4" horiz-adv-x="693" d="M97 133l-28 97v3l306 435h141v-423h103v-112h-103v-133h-135v133h-284zM208 246h179l2 264z" />
<glyph unicode="5" horiz-adv-x="646" d="M85 50q-1 1 -3.5 3t-3.5 4q1 4 4.5 11t5.5 7l48 74l5 5q36 -24 72 -41t81 -17q69 0 105.5 34.5t36.5 100.5q0 59 -34 90.5t-93 31.5q-40 0 -69 -13.5t-55 -41.5q-1 0 -2 -0.5t-2 -0.5q-4 0 -12.5 5.5t-18 12t-18 13t-12.5 9.5q-5 3 -11.5 7.5t-12.5 9t-10.5 7.5t-4.5 4 q2 17 3.5 28.5t3.5 13.5q14 65 24.5 131t23.5 131h387v-117h-285l-25 -125v-6q23 10 45 23.5t48 13.5h81q23 0 43 -8.5t45 -22.5t43 -36.5t29 -49t16 -55.5t5 -56q0 -53 -16.5 -97.5t-49.5 -76.5t-83.5 -50.5t-118.5 -18.5q-63 0 -112.5 15t-102.5 48z" />
<glyph unicode="6" horiz-adv-x="665" d="M82 311q0 57 7.5 118t34 113.5t76 90t133.5 46.5q59 0 107.5 -8t98.5 -34q0 -2 6 -5t10 -7v-2q-6 -9 -11.5 -19.5t-6.5 -10.5l-40 -61h-4q-32 17 -60 27.5t-64 10.5q-43 0 -72.5 -14t-48 -39.5t-26.5 -60t-8 -74.5q28 35 66 50t83 15q43 0 84 -13.5t72 -41t50 -69.5 t19 -99q0 -62 -21.5 -106t-56.5 -72.5t-79.5 -42t-89.5 -13.5q-74 0 -124 24.5t-80 68t-42.5 102t-12.5 126.5zM224 217q0 -29 9.5 -56t36.5 -43q7 -5 19.5 -11t22.5 -6h58q26 0 49 20t32 43q3 8 3 15.5t4 14.5v53q-3 7 -3.5 14t-3.5 14q-15 34 -44.5 47.5t-64.5 13.5 q-52 0 -85 -28t-33 -91z" />
<glyph unicode="7" horiz-adv-x="607" d="M329 501q8 7 17.5 15t18 15.5t15 13t7.5 8.5h-334v115h482l19 -105v-6q0 -2 -2 -3q-37 -30 -69 -58.5t-57.5 -60.5t-44.5 -70t-29 -87q-5 -23 -10 -45t-6 -48l-7 -185h-138q0 53 2 107t9.5 107.5t23.5 104.5t43 98q14 28 31.5 45.5t28.5 38.5z" />
<glyph unicode="8" horiz-adv-x="669" d="M218 0q-13 8 -27 12.5t-28 12.5q-17 9 -32 24t-26.5 33t-18.5 38t-7 40v71q0 18 6.5 32t16 26t20.5 22.5t20 21.5l39 21v3q-45 28 -62.5 54t-20.5 55q0 30 2 55.5t9.5 48t22 41t40.5 33.5q42 25 83.5 29t83.5 4q49 0 85 -6.5t66 -24.5q46 -27 63.5 -61t17.5 -87 q0 -29 -5.5 -50.5t-16.5 -37.5t-27 -28.5t-37 -24.5v-3q28 -15 48 -29.5t33 -32t18.5 -41t5.5 -56.5q0 -59 -19.5 -98.5t-53.5 -63.5t-80 -34.5t-99 -10.5q-59 0 -120 12zM211 193q0 -30 9 -49.5t25.5 -31t39 -16t48.5 -4.5t49 5t39.5 17t26 32t9.5 49q0 33 -13 57t-45 37 q-3 2 -12 4.5t-13 2.5h-86q-1 0 -9.5 -2.5t-13.5 -4.5q-34 -11 -44 -37.5t-10 -58.5zM227 486q0 -24 8.5 -40t23 -25.5t34 -13.5t40.5 -4q22 0 41 4t33.5 14t23 26.5t8.5 41.5t-8.5 41t-23 25.5t-34 13t-40.5 3.5q-23 0 -42 -4t-33.5 -13.5t-22.5 -26.5t-8 -42z" />
<glyph unicode="9" horiz-adv-x="624" d="M184 1q-8 3 -23 10t-30 15t-26.5 16t-11.5 14q14 24 26 42q11 16 21.5 29t17.5 13q12 0 23.5 -11.5t22.5 -16.5q23 -8 39.5 -11t40.5 -3q46 0 76.5 14t47.5 39.5t24 61.5t7 80l-42 -42q-8 -8 -21.5 -13.5t-29.5 -8.5t-32.5 -4.5t-31.5 -1.5q-105 0 -164.5 58.5 t-59.5 161.5q0 58 18 102t51 73.5t78.5 44.5t100.5 15q77 0 127.5 -27.5t80 -73.5t41 -106.5t11.5 -127.5q0 -75 -13 -139.5t-45 -112t-86.5 -75t-137.5 -27.5q-25 0 -50.5 2t-49.5 10zM188 420q5 -12 6.5 -22t9.5 -22q15 -25 44 -34.5t56 -9.5q63 0 92 34t29 93 q0 56 -35 81.5t-86 25.5q-43 0 -67.5 -16t-41.5 -51q-3 -6 -3.5 -12.5t-3.5 -12.5v-54v0z" />
<glyph unicode=":" horiz-adv-x="275" d="M49 60q0 18 8.5 30.5t21.5 20.5t29 12t31 4q16 0 31.5 -4t28 -12t20 -21t7.5 -31t-7.5 -31.5t-20 -22.5t-28.5 -13t-33 -4q-16 0 -32 4t-28.5 13t-20 22.5t-7.5 32.5zM84 345l-14 14t-11 12t-7.5 14t-2.5 20q0 18 8 31t20.5 21.5t28.5 13t32 4.5q15 0 31 -4t28.5 -12.5 t20.5 -21t8 -30.5q0 -11 -4.5 -23.5t-12.5 -23t-19 -17.5t-25 -7h-53l-28 9v0z" />
<glyph unicode=";" horiz-adv-x="290" d="M134 -138h-88l47 246h144zM122 345l-14 14t-11 12t-7.5 14t-2.5 20q0 18 8 31t20.5 21.5t28.5 13t32 4.5q15 0 31 -4t28.5 -12.5t20.5 -21t8 -30.5q0 -11 -4.5 -23.5t-12.5 -23t-19 -17.5t-25 -7h-53l-28 9v0z" />
<glyph unicode="&#x3c;" horiz-adv-x="459" d="M404 -11l-353 283v126l353 283v-224l-173 -120l173 -120v-228z" />
<glyph unicode="=" horiz-adv-x="579" d="M77 364h425v-111h-425v111v0zM77 575h425v-111h-425v111v0z" />
<glyph unicode="&#x3e;" horiz-adv-x="459" d="M408 272l-354 -283v224l174 120l-174 120v228l354 -283v-126z" />
<glyph unicode="?" horiz-adv-x="591" d="M173 58q0 17 7.5 30t19.5 21.5t27.5 13t31.5 4.5q11 0 26.5 -3.5t29 -10.5t23 -18t9.5 -26q0 -14 -1.5 -23t-5 -16.5t-9 -14t-14.5 -15.5q-17 -6 -30 -9t-30 -3q-33 0 -58.5 17t-25.5 53zM243 354q27 13 54.5 25.5t49 27t35.5 33t14 44.5q0 22 -10 38t-26 26.5t-35.5 15 t-38.5 4.5q-26 0 -50.5 -6.5t-48.5 -17.5q-5 -2 -12 -7.5l-14 -11t-13.5 -9.5t-10.5 -4q-1 -1 -2 0t-1 2q-16 21 -31.5 43t-29.5 45q0 8 16.5 18t37.5 19t41 16.5t26 9.5q1 0 2.5 1t2.5 1q26 5 51.5 8.5t52.5 3.5q52 0 93 -11t69.5 -36t43 -65t14.5 -97q0 -25 -11.5 -52 t-27.5 -47q-10 -12 -21.5 -19.5t-20.5 -18.5l-90 -44q-5 -4 -15 -9.5t-10 -13.5v-76h-126v106q0 20 14 34.5t28 23.5z" />
<glyph unicode="@" horiz-adv-x="883" d="M311 4q-14 8 -29 13t-29 13q-58 35 -92.5 77t-56.5 106q-4 14 -9 35t-5 32v100q0 25 9 52t19 50q23 52 60.5 89.5t84 62t99 36t106.5 11.5q69 0 128.5 -17.5t103 -53.5t68.5 -89.5t25 -125.5q0 -44 -11 -88t-34.5 -79.5t-60 -57.5t-86.5 -22q-29 0 -51 12t-31 41h-2 q-27 -26 -56 -38.5t-67 -12.5q-36 0 -61 12t-41 33t-23 49t-7 60q0 42 10 82.5t36 72.5q17 17 31 28t28.5 18t31 9.5t37.5 2.5q18 0 29 -1.5t20 -5t17.5 -10.5t21.5 -18q2 5 4 13l3 12h103l-36 -269q-1 -14 7 -18.5t23 -4.5q30 0 49.5 20t31.5 48.5t16.5 59.5t4.5 53 q0 58 -20 100t-55 70t-82 41.5t-101 13.5q-68 0 -125.5 -19t-99 -56t-64.5 -92t-23 -126q0 -136 74.5 -209t209.5 -73q40 0 78.5 6.5t75.5 23.5q5 2 12.5 7t15.5 9.5t15 8t12 3.5q2 0 7.5 -6.5t11 -14t10 -15t4.5 -8.5v-2q0 -1 -12.5 -9t-19.5 -12q-50 -30 -104.5 -39.5 t-109.5 -9.5q-34 0 -64.5 4t-64.5 12zM364 302q0 -35 12 -54t50 -19q26 0 41 9.5t23.5 24.5t11.5 34.5t6 40.5q2 13 4.5 25.5t2.5 25.5q0 27 -16.5 38t-42.5 11q-29 0 -46.5 -12.5t-28 -32t-14 -43.5t-3.5 -48z" />
<glyph unicode="A" horiz-adv-x="782" d="M316 670h149l257 -670h-144l-55 144h-265l-58 -144h-140zM292 257h196l-100 279z" />
<glyph unicode="B" horiz-adv-x="706" d="M338 675q15 0 50 -0.5t74.5 -9t76.5 -28t56 -57.5q0 -1 1 -2q0 -1 1 -1q9 -20 12 -40t3 -41q0 -32 -8 -55.5t-22 -40t-32.5 -28t-40.5 -20.5q69 -17 98.5 -58.5t29.5 -110.5q0 -51 -17 -86t-47 -56.5t-70 -31t-86 -9.5h-316v663q59 9 118 10.5t119 1.5zM396 100 q45 0 73.5 23t28.5 71q0 35 -13 55.5t-34.5 30.5t-49.5 12.5t-57 2.5q-26 0 -52.5 -1.5t-53.5 -1.5v-192h158zM386 394q43 0 67 21.5t24 66.5q0 42 -26 64t-67 22h-106q-2 0 -8.5 -0.5t-13.5 -1.5t-12.5 -1.5t-5.5 -1.5v-169h148z" />
<glyph unicode="C" horiz-adv-x="733" d="M297 2q-8 6 -24.5 10t-24.5 8q-34 17 -60 41t-49 59q-29 50 -40 105t-11 112q0 65 18 126.5t56.5 109t99.5 76t147 28.5q27 0 46 -1t46 -6q1 -1 2.5 -1.5t2.5 -1.5q20 -7 38.5 -14.5t37.5 -17.5q4 -6 16.5 -14t26 -16.5t24 -17.5t10.5 -16q-17 -23 -38 -45t-39 -44h-5 q-35 35 -74 58t-90 23q-62 0 -104 -29t-61 -87q-5 -15 -9.5 -32t-4.5 -33v-90q0 -17 4.5 -34t9.5 -34q18 -62 60.5 -91t106.5 -29q38 -1 69.5 11t62.5 33q4 3 10.5 9t13.5 11.5t13 10t10 4.5q9 -11 20.5 -26t22.5 -28.5t18.5 -24t7.5 -11.5q4 0 -6.5 -8.5t-24.5 -18.5 t-26 -18.5t-10 -8.5q-42 -26 -86.5 -38.5t-98.5 -12.5q-29 0 -57.5 3t-56.5 11z" />
<glyph unicode="D" horiz-adv-x="748" d="M317 673h14t18 -0.5t15.5 -0.5h7.5q46 -1 90 -15.5t81.5 -40t65.5 -62.5t41 -83q9 -35 12.5 -68t3.5 -68q0 -71 -18.5 -135t-67.5 -117q-2 -1 -6 -4t-5 -5q-18 -18 -43.5 -31.5t-51 -23t-49 -14.5t-37.5 -5h-288v661q0 3 26.5 5t62 3.5t72 2.5t56.5 1zM237 109h116 q37 0 70.5 16.5t57.5 43.5q0 1 0.5 3.5t1.5 3.5q25 41 32 77.5t7 81.5q0 70 -16 114.5t-42.5 70.5t-61.5 36t-74 10h-15.5h-29t-29.5 -1t-15 -2l-2 -2v-452z" />
<glyph unicode="E" horiz-adv-x="618" d="M544 668v-117h-311v-149h283v-116h-283v-174h320v-112h-457v668h448z" />
<glyph unicode="F" horiz-adv-x="591" d="M531 668v-117h-299v-156h269v-116h-270v-279h-136v668h436z" />
<glyph unicode="G" horiz-adv-x="785" d="M164 83q-4 10 -11 17t-12 16q-20 34 -37 74.5t-17 82.5v111q0 28 7 53.5t18.5 49.5t25 46t26.5 42q54 55 114 77.5t127 22.5q54 0 96 -12t87 -37q3 -2 14 -9.5t22 -16.5t19.5 -17t7.5 -11l-63 -69q-1 -5 -7 -11.5t-11 -5.5q-21 14 -38.5 27.5t-35.5 24t-38 17t-46 6.5 q-43 0 -75.5 -14t-54.5 -39t-34.5 -59t-16.5 -74q0 -56 4.5 -107t22.5 -90t54.5 -62.5t100.5 -23.5q82 0 118 43.5t36 122.5h-160v110h290q0 -44 -0.5 -85.5t-6.5 -80t-20.5 -73t-42.5 -64.5q-20 -25 -45 -40t-51 -23.5t-51 -11t-44 -2.5q-39 0 -76.5 4t-72 14.5t-65.5 29 t-58 47.5z" />
<glyph unicode="H" horiz-adv-x="730" d="M95 668h136v-251h269v251h135v-668h-135v287h-269v-287h-136v668v0z" />
<glyph unicode="I" horiz-adv-x="227" d="M46 668h135v-668h-135v668v0z" />
<glyph unicode="J" horiz-adv-x="517" d="M53 53q0 2 4.5 10t10.5 17.5t11.5 18.5t8.5 13q2 4 6 9.5t8 11.5t9 14h7q20 -23 46 -32.5t54 -9.5q33 0 53 18.5t20 50.5v497h136v-490q0 -55 -16 -92t-42.5 -59t-61.5 -31.5t-73 -9.5q-27 0 -52.5 2.5t-51.5 11.5l-12 5t-26.5 12.5t-26.5 16t-12 16.5z" />
<glyph unicode="K" horiz-adv-x="708" d="M241 670v-285l217 285h174l-232 -294l255 -374v-2h-172l-186 283l-56 -56v-227h-136v670h136z" />
<glyph unicode="L" horiz-adv-x="575" d="M92 670h136v-553h284v-117h-420v670v0z" />
<glyph unicode="M" horiz-adv-x="844" d="M224 668q37 -53 65 -92.5t49 -69t35.5 -49.5t23.5 -33l25 -35l196 279h125v-668h-137v431l-180 -255q-1 0 -1 -1t-1 -1h-2h-1l-184 257v-431h-136v668h123z" />
<glyph unicode="N" horiz-adv-x="778" d="M98 668h135l314 -427v427h133v-668h-132l-312 424v-424h-138v668v0z" />
<glyph unicode="O" horiz-adv-x="828" d="M309 665q28 5 51.5 7t52.5 2q28 0 52 -2t52 -7q2 -2 5 -2q60 -20 109.5 -57t80.5 -108q17 -39 22.5 -82.5t5.5 -85.5q0 -43 -6.5 -84.5t-21.5 -81.5q-7 -19 -22.5 -39t-23.5 -37q-55 -55 -115.5 -77.5t-137.5 -22.5q-56 0 -104 11t-87.5 35.5t-69 63t-47.5 94.5 q-6 20 -11.5 40t-5.5 41v116q0 2 2 14.5t3 18.5q13 67 48 124t98 91q8 4 19.5 8.5t22 8t18.5 6.5t10 5zM232 330q0 -47 6.5 -89t26 -73.5t54 -50t90.5 -18.5q58 0 94 17t56 47.5t27.5 73.5t7.5 94q0 49 -7.5 91.5t-27.5 73.5t-55 49t-91 18q-59 0 -94.5 -18.5t-54.5 -50 t-25.5 -74t-6.5 -90.5z" />
<glyph unicode="P" horiz-adv-x="682" d="M141 668q1 0 22.5 1t51.5 2t62 2t52 2q58 0 109.5 -9t89.5 -33t60 -65.5t22 -105.5q0 -32 -4.5 -62.5t-19.5 -58.5q-8 -24 -28 -43t-46 -32.5t-55 -20.5t-54 -7h-168v-238h-136v663zM236 350h158q22 0 37.5 9.5t24.5 25t13 34.5t4 38q0 36 -11 57.5t-30.5 33.5t-46 15.5 t-58.5 2.5q-5 0 -18 -0.5t-27.5 -1.5t-27.5 -2t-18 -1v-211z" />
<glyph unicode="Q" horiz-adv-x="835" d="M559 -47q-3 4 -13 10.5t-21.5 12.5t-22.5 10.5t-17 5.5q-6 -1 -20 -1h-30q-40 0 -75 2.5t-67.5 12t-64.5 29t-65 52.5q-23 22 -37.5 53t-22.5 62.5t-11.5 61t-3.5 48.5q0 44 4.5 91t18 90t39.5 80t70 61q31 17 57 26.5t49 14t45.5 5.5t46.5 1q42 0 76.5 -5t59.5 -16 q92 -39 139 -120t47 -203q0 -66 -18 -132.5t-63 -117.5q-4 -4 -15 -13.5t-20 -18.5q2 -4 16 -12.5t33 -17.5t39.5 -17t34.5 -9v-7q-6 -10 -11 -22.5l-10 -25t-11 -23.5t-15 -17q-10 0 -21.5 2t-23 4.5t-21 5t-15.5 4.5l-2 3zM267 168q27 -36 64 -49.5t82 -13.5q55 0 90.5 18 t55.5 49t27.5 73.5t7.5 92.5q0 47 -7 89.5t-26.5 74t-54.5 50t-91 18.5q-35 -1 -73.5 -10.5t-63.5 -38.5q-16 -18 -25.5 -40.5t-14.5 -46.5t-6.5 -49t-1.5 -47q0 -41 5.5 -79t22.5 -74q1 -4 5 -9t4 -8z" />
<glyph unicode="R" horiz-adv-x="692" d="M148 670q9 0 31 1t46.5 1.5t46.5 1.5t31 1q58 0 100.5 -4.5t80.5 -16.5q123 -44 123 -181q0 -65 -28 -112t-84 -71q4 -3 8 -7.5t6 -8.5l58 -128q1 -1 1.5 -4.5t1.5 -4.5q14 -33 28.5 -67.5t29.5 -67.5v-2h-144q-20 48 -39.5 94t-39.5 94q-3 1 -6 11.5t-7.5 23t-10.5 22.5 t-15 10h-129v-255h-136v663l4.5 1t11.5 2.5t15.5 2.5t15.5 1zM240 365q50 0 92 -0.5t72 7.5t47 29t17 64q0 34 -11 54t-30 30.5t-44 13.5t-53 3h-45t-45 -3v-198z" />
<glyph unicode="S" horiz-adv-x="649" d="M203 0q-2 1 -8 3t-13 3.5t-14 3.5t-11 4q-8 3 -23.5 10t-31 15t-27 15t-11.5 11q0 5 5.5 16t14 24.5t18.5 29t18 29.5h5q42 -32 90 -49.5t101 -17.5q20 0 41.5 3.5t39.5 12.5t29.5 25t11.5 41q0 32 -26 50.5t-65.5 33t-85 28.5t-85 37.5t-65.5 60.5t-26 97q0 42 11 74 t43 61q17 16 39.5 26.5t47.5 16.5t50 8t47 2q6 0 20 -0.5t29.5 -1t29 -2t17.5 -3.5l5 -2q16 -6 37.5 -12.5t41 -13t33 -12.5t13.5 -11v-4l-44 -100q0 -2 -3 -2q-6 -1 -13 5.5t-12 8.5q-35 17 -69 28t-74 11q-18 0 -37.5 -2t-36 -9t-27.5 -20.5t-11 -35.5q0 -18 9.5 -31.5 t23.5 -22.5t30.5 -15t31.5 -10q46 -17 92 -32t83 -38.5t60 -59.5t23 -96q0 -57 -20.5 -96t-55 -62.5t-80 -34t-96.5 -10.5q-59 0 -120 12z" />
<glyph unicode="T" horiz-adv-x="635" d="M248 551h-187v119h513v-119h-189v-551h-137v551v0z" />
<glyph unicode="U" horiz-adv-x="735" d="M230 668l4 -445q2 -33 14 -55.5t30.5 -37t42 -21t47.5 -6.5q69 0 103 43.5t34 109.5v412h135v-433q0 -47 -15.5 -91.5t-45 -79t-71 -55t-93.5 -20.5h-95q-25 0 -48.5 7t-46.5 16q-35 14 -59.5 38.5t-40 55t-23 66t-7.5 70.5v426h135z" />
<glyph unicode="V" horiz-adv-x="710" d="M59 668h139l157 -509l153 509h143l-225 -668h-144z" />
<glyph unicode="W" horiz-adv-x="1085" d="M73 665v3h149l113 -499l142 499h138l134 -499l122 499h141l-188 -668h-150l-132 474l-135 -474h-155z" />
<glyph unicode="X" horiz-adv-x="716" d="M278 348l-195 320h158l123 -216l2 -2l127 218h158l-204 -329l214 -339h-156q-3 8 -16.5 30t-31.5 50t-37 57.5t-34.5 52.5t-23.5 35t-3 5l-144 -230h-160z" />
<glyph unicode="Y" horiz-adv-x="715" d="M46 670h153l160 -283l160 283h150l-241 -408v-262h-137v257z" />
<glyph unicode="Z" horiz-adv-x="654" d="M72 109q13 16 26.5 34t30.5 41.5t40 55t55 75t74.5 101.5t98.5 135h-311v119h487v-109l-334 -449h343v-112h-510v109v0z" />
<glyph unicode="[" horiz-adv-x="412" d="M342 -105h-272v775h272v-141h-111v-494h111v-140z" />
<glyph unicode="\" horiz-adv-x="648" d="M583 -29h-120l-398 816h124z" />
<glyph unicode="]" horiz-adv-x="412" d="M342 -105h-272v140h111v494h-111v141h272v-775z" />
<glyph unicode="^" horiz-adv-x="552" d="M530 346h-168l-87 176l-87 -176h-166l183 324h142z" />
<glyph unicode="_" d="M445 -190h-445v132h445v-132z" />
<glyph unicode="`" d="M335 569h-114l-140 154h190z" />
<glyph unicode="a" horiz-adv-x="674" d="M81 155q0 60 29.5 98.5t76 60t105 30t116.5 8.5q15 0 16 5t1 15q0 51 -22 66.5t-69 15.5q-23 0 -41.5 -2t-37 -7t-39 -12.5t-47.5 -17.5q-7 -4 -15 -10.5t-16 -6.5q-5 9 -12 25t-13 31t-10.5 26.5t-4.5 12.5q58 32 121.5 47.5t129.5 15.5q33 0 64 -4.5t57 -16.5t46 -33.5 t31 -56.5q5 -16 9 -34.5t4 -33.5v-252q0 -11 7.5 -20.5t16 -17t14.5 -12t3 -6.5l-75 -76q0 -1 -4 -1q-19 0 -34 9.5t-26 21.5q-13 14 -24 32q-40 -32 -85 -49.5t-98 -17.5q-79 0 -126.5 43t-47.5 124zM213 162q0 -38 20 -59.5t59 -21.5q35 0 67 13t61 33l2.5 2.5t1.5 2.5 v139q-29 0 -65.5 -2.5t-68.5 -13t-54.5 -32.5t-22.5 -61z" />
<glyph unicode="b" horiz-adv-x="681" d="M217 68l-21 -67h-100v723h134v-232q3 2 4 4.5t4 5.5q30 32 60.5 42.5t74.5 10.5q63 0 106.5 -22t71 -60.5t39.5 -89t12 -107.5q0 -56 -12.5 -108.5t-39.5 -92.5t-71 -64t-107 -24q-47 0 -88.5 18.5t-64.5 62.5h-2zM346 451q-20 0 -40.5 -4.5t-38 -15t-28.5 -26.5t-11 -40 v-169q0 -28 9.5 -48.5t25 -33.5t36 -19t42.5 -6q41 0 65.5 16.5t37.5 43t17 60.5t4 69q0 31 -2.5 57.5t-11.5 52.5q-12 33 -42.5 48t-62.5 15z" />
<glyph unicode="c" horiz-adv-x="625" d="M140 78q-5 14 -14.5 27t-15.5 27q-15 32 -20.5 68t-5.5 71q0 72 24.5 134t84.5 107q39 23 79.5 33.5t85.5 10.5q52 0 95 -14.5t88 -38.5q3 -4 13 -10t10 -11q0 -6 -9.5 -21t-20.5 -30q-13 -18 -29 -38q-1 0 -5 3t-8.5 7t-8.5 7.5t-5 4.5q-27 19 -54 28t-59 9 q-40 0 -67.5 -14.5t-44.5 -39t-24.5 -57t-7.5 -68.5t7.5 -68.5t24 -57t44 -39t68.5 -14.5q46 0 79.5 14t73.5 40q1 4 8.5 -7.5t15 -28t14 -32.5t6.5 -19q0 -6 -12 -14.5t-27.5 -16.5t-32 -15.5t-25.5 -10.5l-3 -2q0 -3 -14.5 -5.5t-32.5 -4.5t-35.5 -3t-23.5 -1 q-66 0 -119 21t-97 69z" />
<glyph unicode="d" horiz-adv-x="683" d="M221 0q-1 1 -6 4t-11.5 6.5l-13 7t-9.5 5.5q-29 22 -48.5 51t-31.5 62t-17 68t-5 70q0 57 12.5 108t40.5 89t71 60.5t105 22.5q27 0 57.5 -5t52.5 -23q3 -3 8 -7t9.5 -8t8.5 -7l4 -3l3 -5v227h136v-723h-111q-1 6 -3 16.5t-4 21.5q-3 12 -5 25q1 2 -0.5 0.5t-4 -4.5 t-4.5 -6.5t-2 -6.5q-16 -16 -31 -25t-30 -19q-41 -16 -84 -16t-87 14zM216 276q0 -35 4 -68.5t17.5 -60t38.5 -43t66 -16.5q37 0 66 17t40 55q3 11 3.5 21t3.5 21v155q-2 8 -2.5 17.5t-4.5 17.5q-15 33 -45 45.5t-64 12.5q-40 0 -64 -15t-37 -39t-17.5 -55.5t-4.5 -64.5z " />
<glyph unicode="e" horiz-adv-x="679" d="M252 0q-23 13 -46 22.5t-43 28.5l-8.5 8.5t-11 11.5t-9 11t-3.5 6q-17 28 -33 64.5t-16 69.5v102q0 16 5.5 34.5t11.5 32.5q32 85 93 124t151 39q43 0 76 -8t71 -29l10 -10t11 -7q25 -28 41.5 -54.5t26.5 -54.5t14 -59t4 -68q0 -16 -0.5 -23.5t-1.5 -12.5h-378 q0 -118 113 -138q30 0 54.5 2t46.5 7.5t43 15t44 24.5q5 0 6 -2t3 -5l40 -84q1 -1 0 -2.5t-2 -1.5q-52 -32 -103.5 -44t-104.5 -12q-28 0 -52.5 3t-52.5 9zM350 454q-64 0 -98.5 -39t-34.5 -100h249q0 29 -6 54.5t-19.5 44t-36 29.5t-54.5 11z" />
<glyph unicode="f" horiz-adv-x="447" d="M55 428v109h81q1 56 7 93t25 59.5t54.5 32t96.5 9.5h19t16 -1t17.5 -2t24.5 -2v-94q-45 0 -70 -2.5t-38 -10t-16 -21.5t-3 -37v-24h116v-107h-113v-430h-134v428h-83z" />
<glyph unicode="g" horiz-adv-x="686" d="M116 -153q0 8 6 24t14 33q9 19 21 42q2 0 8.5 -3t13.5 -7t13.5 -8t9.5 -5q35 -14 68.5 -22.5t71.5 -8.5q17 0 37 2t37 9.5t28 23t11 42.5v111h-2q-30 -34 -64.5 -48t-79.5 -14q-61 0 -104.5 19.5t-71.5 54.5t-41 83t-13 106q0 45 8.5 90t31.5 85q32 57 81 77.5t111 20.5 q21 0 43.5 -3.5t43 -11.5t37.5 -21t27 -32l2 -2l10 60h115v-561q0 -58 -18 -96t-50 -60.5t-76.5 -31.5t-96.5 -9q-35 0 -67.5 3.5t-62.5 12.5q-1 0 -17 4.5t-35 11t-34.5 14t-15.5 15.5zM244 162q20 -24 42.5 -33t52.5 -9q23 0 44 7.5t37 21t25.5 33.5t9.5 44v137 q0 23 -10.5 39t-27 26.5t-36.5 15.5t-39 5q-41 0 -65.5 -13t-38 -35.5t-18 -53t-4.5 -64.5q0 -17 1 -31t4 -27.5t8.5 -28.5t14.5 -34z" />
<glyph unicode="h" horiz-adv-x="667" d="M225 726v-225q1 1 5 3.5t5 3.5q19 15 35.5 24.5t33 15t35 7.5t42.5 2q30 0 59.5 -6.5t54 -21t43 -37t26.5 -54.5q3 -11 7.5 -31t4.5 -31v-376h-131v334q0 62 -29 86.5t-75 24.5q-50 0 -83 -24.5t-33 -77.5v-343h-134v726h134z" />
<glyph unicode="i" horiz-adv-x="265" d="M197 545v-545h-129v545h129zM51 683q0 35 25 51.5t58 16.5q32 0 56 -17t24 -51q0 -39 -23 -55t-59 -16q-37 0 -59 15.5t-22 55.5z" />
<glyph unicode="j" horiz-adv-x="403" d="M-10 -99q16 0 32 -1.5t32 -1.5q21 0 39 3.5t31.5 13t21.5 26t8 41.5v561h133v-563q0 -32 -9 -60t-23 -56q-13 -24 -33.5 -39t-44.5 -24t-50 -12.5t-50 -3.5h-14.5t-27 0.5t-26.5 1.5t-14 3l-5 2v109zM138 679q0 35 25 53t58 18q16 0 31 -4.5t27 -13.5t19.5 -22.5 t7.5 -30.5q0 -18 -7 -31.5t-19 -21.5t-27.5 -12t-31.5 -4q-32 0 -57.5 16t-25.5 53z" />
<glyph unicode="k" horiz-adv-x="645" d="M238 726v-401l189 220h160v-5q-16 -18 -40.5 -45.5t-51.5 -57.5t-53.5 -60t-45.5 -52l207 -325h-156q-2 0 -12 16t-25 41t-31.5 54.5t-32.5 56t-28 46.5t-17 25l-63 -65v-174h-134v726h134z" />
<glyph unicode="l" horiz-adv-x="338" d="M206 725v-591q0 -15 8 -21.5t20.5 -9t28.5 -2t32 0.5v-100l-2 -2q-2 -2 -15 -3.5t-20 -1.5q-48 0 -83 2.5t-58 12t-34 29.5t-11 56v630h134z" />
<glyph unicode="m" horiz-adv-x="1005" d="M223 542q0 -2 1 -4t1 -4t1 -3q0 -3 1 -10t2 -14.5t2 -13.5t2 -6l2 -2q6 5 10.5 12.5t10.5 12.5q27 25 56.5 36t66.5 11q29 0 60 -7.5t53 -27.5q14 -14 21.5 -24t12.5 -14q3 2 6 5q6 6 9 12q18 15 35 26t35 17.5t37.5 9.5t43.5 3t50.5 -4t50.5 -13.5t44.5 -26t32.5 -40.5 q12 -23 20 -50.5t8 -53.5v-369h-131v329q0 50 -21 82t-74 32q-17 0 -35.5 -5.5t-33.5 -16t-25 -26.5t-10 -38v-357h-133v329q0 49 -19.5 81.5t-72.5 32.5q-33 0 -60.5 -15t-38.5 -48q-2 -4 -4 -12t-2 -9v-359h-131v542h116z" />
<glyph unicode="n" horiz-adv-x="671" d="M208 542l12 -57q32 41 70.5 55t91.5 14q102 0 149.5 -52.5t47.5 -153.5v-348h-133v341q0 1 -1 7.5t-3 14.5t-4 17t-3 14q-2 14 -11.5 23.5t-22.5 15t-28 8t-28 2.5q-36 0 -66.5 -13.5t-44.5 -49.5q-1 -1 -2 -5t-2.5 -9t-2.5 -10t-1 -6v-350h-134v542h116z" />
<glyph unicode="o" horiz-adv-x="705" d="M352 554q136 0 203 -75t67 -207q0 -62 -17.5 -120.5t-64.5 -100.5q-5 -4 -11.5 -10t-13.5 -11.5t-13.5 -9.5t-10.5 -4q-19 -8 -35 -13.5t-32 -8.5t-33.5 -4.5t-39.5 -1.5q-85 0 -148 32.5t-96 111.5q-8 19 -16 43t-8 45v102q0 21 7 42t14 41q15 41 40.5 69.5t58 46 t71 25.5t78.5 8zM218 271q0 -36 5.5 -69t20 -57.5t40.5 -39.5t68 -15q40 0 66 15.5t41.5 40.5t21.5 57.5t6 67.5q0 38 -5.5 70.5t-20.5 56t-41.5 36.5t-68.5 13t-68 -14t-40.5 -38t-19.5 -56t-5 -68z" />
<glyph unicode="p" horiz-adv-x="683" d="M208 544l2 -5q1 -7 2.5 -17t3 -18.5t2.5 -14.5t1 -5q10 8 16 17t17 17q28 21 55.5 28.5t68.5 7.5q64 0 108 -22t70.5 -60t38 -89t11.5 -108q0 -33 -3.5 -66.5t-13 -65t-26 -59.5t-43.5 -50q-13 -11 -27 -18t-28 -17q-26 -5 -46 -8.5t-45 -3.5q-26 0 -44.5 3t-34 10.5 t-30.5 19.5t-33 30v-255h-134v749h112zM340 449q-18 0 -38 -5t-36.5 -15t-27 -26t-10.5 -38v-174q0 -9 3 -20t7 -19q17 -36 41.5 -50.5t62.5 -14.5q41 0 66.5 16.5t39 43.5t18 60.5t4.5 67.5q0 37 -4.5 68.5t-18 55t-39.5 37t-68 13.5z" />
<glyph unicode="q" horiz-adv-x="709" d="M460 54q-7 -6 -12 -13t-12 -13q-29 -26 -56 -34t-65 -8q-24 0 -43.5 3t-43.5 9q-2 2 -8 5.5t-14 8t-15.5 8.5t-11.5 8l-32 32q-19 22 -31 47.5t-18.5 53.5t-9 56.5t-2.5 56.5q0 51 9 95.5t35 92.5q36 51 80.5 72t102.5 21q21 0 38 -2t32.5 -6.5t30.5 -12t32 -19.5 q5 -8 11 -15.5t12 -14.5l2 2l7 56h117v-622q0 -18 15.5 -32t27.5 -23q0 -5 -11 -20.5t-24.5 -31.5t-25.5 -28.5t-15 -12.5q-10 0 -19.5 3.5t-18.5 8.5q-20 12 -31.5 24t-18 26.5t-9 31.5t-3.5 40q0 8 -0.5 29t-1 44t-0.5 44v30zM223 276q0 -35 3.5 -69t16 -61t37.5 -43.5 t67 -16.5q54 0 84.5 32.5t30.5 85.5v151q0 26 -10.5 43.5t-27 28.5t-38 16t-43.5 5q-68 0 -94 -43t-26 -129z" />
<glyph unicode="r" horiz-adv-x="457" d="M201 545q0 3 1.5 -4t3 -17.5t3.5 -22t4 -19.5l2 -2q18 24 35.5 39.5t39.5 24t51 11.5t69 3v-120q-28 0 -61 -1.5t-61.5 -10.5t-47.5 -30t-19 -60v-336h-134v545h114z" />
<glyph unicode="s" horiz-adv-x="571" d="M60 53q0 3 3 9l39 84q7 1 14 -2t14.5 -7.5t14.5 -9t13 -7.5q33 -14 63 -22t66 -8q16 0 31.5 1.5t27 7t18.5 17t7 31.5q0 26 -22 40.5t-54.5 25.5t-71 22.5t-71 31t-54.5 51t-22 83.5q0 44 19 74.5t50 49t69.5 26.5t76.5 8q49 0 99.5 -11.5t94.5 -35.5v-5q-1 -2 -5 -11.5 t-5 -11.5q0 -2 -3.5 -12t-8 -22t-9 -22t-7.5 -11q-36 18 -72.5 30t-77.5 12q-12 0 -28 -1.5t-30 -6.5t-23.5 -14.5t-9.5 -26.5q0 -19 15 -31.5t35 -21t41.5 -13.5t34.5 -8q37 -16 68 -29.5t53.5 -32t35 -46t12.5 -71.5q0 -50 -16 -83t-44.5 -52t-67 -26.5t-84.5 -7.5 q-61 0 -113 14t-106 42q-3 1 -6.5 3t-3.5 6z" />
<glyph unicode="t" horiz-adv-x="470" d="M51 432v109h90v142h132v-142h124v-109h-123v-289q0 -17 12.5 -25t31.5 -10.5t40.5 -2t38.5 0.5v-104l-4.5 -1t-11.5 -2t-14 -1.5t-12 -0.5q-28 0 -68.5 -0.5t-75.5 9.5q-17 4 -30.5 16t-23 27.5t-14.5 33.5t-5 35v314h-87z" />
<glyph unicode="u" horiz-adv-x="658" d="M223 543l5 -368q1 -42 29.5 -59.5t65.5 -17.5q39 0 66 13.5t38 54.5q2 5 4 13.5t2 9.5v354h134v-542h-119l-9 56h-2q-30 -40 -69.5 -55t-87.5 -15q-41 0 -71 6.5t-52 22.5t-36.5 43t-24.5 67q-1 2 -2 8.5t-1.5 14.5t-1 15.5t-0.5 12.5v366h132z" />
<glyph unicode="v" horiz-adv-x="652" d="M58 538v4h141l128 -421l130 421h137v-4l-193 -538h-153z" />
<glyph unicode="w" horiz-adv-x="943" d="M71 540v2h137l95 -397l114 397h106l114 -394l98 394h137l-161 -542h-134l-107 327l-2 2l-105 -329h-134z" />
<glyph unicode="x" horiz-adv-x="650" d="M242 286l-165 259h149l104 -172l105 172h139l-168 -256l190 -289h-152q-32 50 -60.5 100.5t-60.5 98.5l-2 -2q-1 -1 -10 -15t-21 -34.5t-26 -44t-26.5 -45t-22 -37.5t-12.5 -21h-149z" />
<glyph unicode="y" horiz-adv-x="668" d="M105 -98h76q19 0 31.5 8t20.5 21t14 28t11 29q2 6 5.5 11.5t3.5 13.5q0 7 -3.5 12.5t-5.5 10.5q-7 18 -14.5 37t-17.5 45t-24 61.5t-33.5 85.5t-47 118t-63.5 159v2h144l135 -385l2 -4q0 1 1 4t4.5 14.5t11.5 35.5t22 66.5t35.5 108t53.5 160.5h143q0 -4 -2 -11.5 t-8.5 -25t-18.5 -49t-32.5 -83.5t-51 -128t-72.5 -183q-5 -8 -10.5 -21t-11.5 -27.5t-11 -28t-7 -22.5l-44 -98l-2 -2q-1 -1 -4.5 -6t-7 -10.5t-7 -10.5t-4.5 -6q-13 -15 -30 -24.5t-36 -14t-38.5 -6t-38.5 -1.5h-22q-5 0 -12 1t-14 1.5t-12.5 1.5l-5.5 1l-2 2v109z" />
<glyph unicode="z" horiz-adv-x="564" d="M330 437h-260v108h424v-105l-255 -332h260v-108h-434v95z" />
<glyph unicode="{" horiz-adv-x="454" d="M406 -105q-281 0 -281 200v72q0 46 -53 46h-30v144h30q53 0 53 47v71q0 200 281 200v-111q-62 -8 -83 -33.5t-21 -81.5v-23q0 -78 -30 -107q-21 -22 -82 -34q61 -11 82 -33q30 -31 30 -108v-23q0 -57 20 -81q22 -27 84 -34v-111z" />
<glyph unicode="|" horiz-adv-x="288" d="M223 -177h-158v943h158v-943z" />
<glyph unicode="}" horiz-adv-x="454" d="M412 212h-30q-53 0 -53 -46v-71q0 -200 -281 -200v111q62 7 85 34q19 24 19 81v23q0 77 30 108q21 21 82 32q-61 12 -82 34q-30 30 -30 108v23q0 56 -19 80q-23 27 -85 35v111q281 0 281 -200v-72q0 -47 53 -47h30v-144z" />
<glyph unicode="~" horiz-adv-x="518" d="M478 418q-36 -93 -67.5 -130t-73.5 -37q-25 0 -42 7q-8 3 -39 23l-17 11q-35 23 -48 23q-17 0 -33 -27q-2 -2 -21 -42l-97 46q36 93 67.5 130t74.5 37q25 0 41 -7q8 -3 39 -23l17 -11q35 -23 48 -23q18 0 34 27q1 2 20 42z" />
<glyph unicode="&#xa1;" horiz-adv-x="280" d="M53 598q0 37 26.5 54t59.5 17q16 0 32 -4t28.5 -13t20 -22t7.5 -31t-7.5 -31t-20 -21.5t-28 -12.5t-31.5 -4t-31.5 4t-28 12t-20 21t-7.5 31zM67 -13l19 473h109l21 -473h-149z" />
<glyph unicode="&#xa2;" horiz-adv-x="588" d="M270 -12q-61 9 -105.5 47t-64.5 94q-7 17 -12 36.5t-5 30.5v100q0 18 6 37.5t13 36.5q23 57 66.5 88t101.5 46v75h123v-75q12 -3 34.5 -11t44 -17.5t38 -20t16.5 -18.5l-32 -51q-1 -4 -4.5 -10t-8 -12t-8.5 -10.5t-6 -4.5q-29 23 -59 38t-67 15q-35 0 -59 -12t-39 -32.5 t-21.5 -48.5t-6.5 -60q0 -33 6 -62t21 -51.5t39.5 -35.5t61.5 -13q39 0 72.5 15.5t61.5 42.5q3 0 11 -11t16.5 -24.5t16.5 -25.5t12 -15v-5q0 -7 -15.5 -19.5t-37.5 -25t-46 -21.5t-41 -10v-77h-123v77v0z" />
<glyph unicode="&#xa3;" horiz-adv-x="618" d="M578 607l-73 -135q-79 57 -171 57q-70 0 -70 -50q0 -21 13 -44q18 -32 27 -58h137v-129h-129q-10 -60 -46 -106h298v-142h-492v112q70 55 82 136h-82v129h68q-6 14 -19 37q-27 50 -27 95q0 82 61.5 127t180.5 45q138 0 242 -74z" />
<glyph unicode="&#xa4;" horiz-adv-x="512" d="M115 549l55 -68q21 14 42 20.5t42 6.5q20 0 41.5 -6.5t42.5 -20.5l53 68l80 -100l-53 -69q10 -25 14.5 -51.5t4.5 -52.5t-4.5 -52.5t-14.5 -54.5l53 -67l-80 -102l-53 68q-23 -12 -44.5 -18.5t-40.5 -6.5q-20 0 -41 6.5t-42 18.5l-52 -68l-81 102l53 67q-10 25 -15 51 t-5 52q0 28 5 55t15 53l-53 69zM327 275q0 38 -21.5 65t-51.5 27t-51 -27t-21 -65t21 -65t51 -27t51.5 27t21.5 65z" />
<glyph unicode="&#xa5;" horiz-adv-x="646" d="M632 670l-226 -425v-16h142v-139h-142v-90h-166v90h-142v139h142v13l-226 428h200l44 -101q46 -103 66 -174q20 67 66 174l44 101h198z" />
<glyph unicode="&#xa6;" horiz-adv-x="215" d="M61 702h96v-372h-96v372zM61 179h96v-372h-96v372z" />
<glyph unicode="&#xa7;" horiz-adv-x="643" d="M594 250q0 -96 -91 -164q14 -30 14 -77q0 -74 -48 -118q-52 -48 -151 -48q-56 0 -114.5 17t-94.5 41l52 131q82 -50 165 -50q43 0 43 21q0 14 -11 23q-15 12 -62 29q-155 54 -200 92q-47 42 -47 127q0 95 90 163q-13 32 -13 78q0 74 48 118q52 48 151 48q56 0 116 -18 q57 -16 93 -41l-52 -130q-82 50 -165 50q-43 0 -43 -21q0 -15 11 -23q15 -13 62 -29q155 -55 200 -93q47 -41 47 -126zM436 235q0 25 -22 41.5t-95 41.5q-51 17 -80 32q-32 -26 -32 -62q0 -25 22 -41t95 -41q51 -17 80 -33q32 26 32 62z" />
<glyph unicode="&#xa8;" d="M408 657q0 -33 -23.5 -58t-55.5 -25t-56 25t-24 58q0 34 24 59t56 25t55.5 -25t23.5 -59zM196 657q0 -33 -24 -58t-55 -25q-32 0 -56 25t-24 58q0 34 24 59t56 25t55.5 -25t23.5 -59z" />
<glyph unicode="&#xa9;" horiz-adv-x="744" d="M694 335q0 -147 -92.5 -246.5t-229.5 -99.5t-229 99.5t-92 246.5t92 246.5t229 99.5t229.5 -99.5t92.5 -246.5zM628 335q0 123 -72.5 200.5t-183.5 77.5q-110 0 -182.5 -77.5t-72.5 -200.5t72.5 -200.5t182.5 -77.5q111 0 183.5 77.5t72.5 200.5zM518 242 q-47 -97 -145 -97q-76 0 -118 56q-41 52 -41 138q0 89 44 141t115 52q61 0 95 -29q30 -24 49 -81l-88 -37q-20 57 -56 57q-58 0 -58 -103t59 -103q35 0 62 53z" />
<glyph unicode="&#xaa;" d="M386 264h-123v28q-43 -35 -92 -35q-57 0 -90 36t-33 103q0 64 38 100q36 33 98 33q42 0 79 -17v20q0 48 -54 48t-105 -30l-34 93q72 38 163 38q153 0 153 -152v-265zM263 374v57q-24 11 -56 11q-40 0 -40 -43q0 -45 40 -45q33 0 56 20z" />
<glyph unicode="&#xab;" horiz-adv-x="618" d="M581 0h-173l-113 251l113 251h173l-116 -250zM313 0h-173l-113 251l113 251h173l-116 -250z" />
<glyph unicode="&#xac;" horiz-adv-x="512" d="M48 542h413v-391h-123v236h-290v155z" />
<glyph unicode="&#xad;" horiz-adv-x="584" d="M524 257h-463v172h463v-172z" />
<glyph unicode="&#xae;" horiz-adv-x="744" d="M694 335q0 -147 -92.5 -246.5t-229.5 -99.5t-229 99.5t-92 246.5t92 246.5t229 99.5t229.5 -99.5t92.5 -246.5zM628 335q0 123 -72.5 200.5t-183.5 77.5q-110 0 -182.5 -77.5t-72.5 -200.5t72.5 -200.5t182.5 -77.5q111 0 183.5 77.5t72.5 200.5zM537 156h-108l-57 126 h-39v-126h-95v375h156q137 0 137 -122q0 -79 -64 -110zM434 406q0 40 -42 40h-59v-81h57q44 0 44 41z" />
<glyph unicode="&#xaf;" horiz-adv-x="396" d="M328 559h-259v105h259v-105z" />
<glyph unicode="&#xb0;" horiz-adv-x="310" d="M262 577q0 -56 -32 -96.5t-77 -40.5q-44 0 -76 40.5t-32 96.5q0 57 32 97t76 40q45 0 77 -40t32 -97zM191 578q0 20 -11 34t-27 14t-27 -14t-11 -34t11 -34.5t27 -14.5t27 14.5t11 34.5z" />
<glyph unicode="&#xb1;" horiz-adv-x="512" d="M48 513h145v179h122v-179h146v-151h-146v-170h-122v170h-145v151zM48 147h413v-147h-413v147z" />
<glyph unicode="&#xb2;" horiz-adv-x="310" d="M299 355h-291q10 43 31 74t93 93q42 35 54 52q11 18 11 31q0 15 -8.5 24t-26.5 9q-19 0 -31.5 -12.5t-17.5 -41.5l-93 10q6 38 18 57q16 29 48 46t80 17q69 0 100.5 -32t31.5 -76q0 -33 -16 -60q-16 -29 -53.5 -56.5t-61.5 -47.5h132v-87z" />
<glyph unicode="&#xb3;" horiz-adv-x="310" d="M114 602l-98 19q19 45 46 66q36 27 97 27q68 0 103 -33q24 -22 24 -59q0 -25 -13 -47q-10 -15 -34 -29q30 -13 44.5 -37.5t14.5 -56.5q0 -45 -28 -71q-37 -36 -114 -36q-73 0 -111 37q-23 22 -33 65l96 13q6 -23 17 -33t29 -10q21 0 33 13.5t12 31.5q0 24 -21 38 q-12 7 -57 8l11 68q33 0 44 10.5t11 26.5q0 12 -7.5 20.5t-22.5 8.5q-16 0 -28 -11q-9 -8 -15 -29z" />
<glyph unicode="&#xb4;" d="M364 723l-140 -154h-114l65 154h189z" />
<glyph unicode="&#xb5;" horiz-adv-x="517" d="M45 508h155v-255q0 -55 11 -75q17 -31 48 -31q29 0 43.5 28t14.5 83v250h154v-508h-145v40q-12 -27 -24 -36q-19 -15 -38 -15q-18 0 -38 13q-14 9 -26 35v-229h-155v700z" />
<glyph unicode="&#xb6;" horiz-adv-x="645" d="M574 -177h-124v735h-52v-735h-124v427h-39q-85 0 -142 54q-60 59 -60 156t60 155q57 55 142 55h339v-847z" />
<glyph unicode="&#xb7;" horiz-adv-x="249" d="M215 336q0 -45 -25.5 -75t-64.5 -30q-40 0 -66 30t-26 75t26 74t66 29q39 0 64.5 -29t25.5 -74z" />
<glyph unicode="&#xb8;" d="M329 -101q0 -84 -98 -84q-65 0 -131 35l17 44q46 -23 90 -23q41 0 41 26q0 22 -20 22q-14 0 -33 -14l-34 25l18 70h54l-10 -40q16 8 37 8q69 0 69 -69z" />
<glyph unicode="&#xb9;" horiz-adv-x="310" d="M237 714v-359h-98v214q-21 -16 -38.5 -24t-47.5 -15v99q70 21 109 85h75z" />
<glyph unicode="&#xba;" horiz-adv-x="447" d="M403 469q0 -102 -49.5 -157t-130.5 -55t-129 53q-50 57 -50 159t50 159q48 53 129 53t130 -53q50 -57 50 -159zM275 469q0 99 -52 99q-51 0 -51 -99q0 -100 51 -100q52 0 52 100z" />
<glyph unicode="&#xbb;" horiz-adv-x="618" d="M591 251l-113 -251h-174l117 252l-117 250h174zM323 251l-113 -251h-173l116 252l-116 250h173z" />
<glyph unicode="&#xbc;" horiz-adv-x="1790" d="M108 515h-3q-5 7 -12 18.5t-14.5 25t-16 27.5t-15.5 26v3q0 1 5 6t11.5 10.5t13.5 10t10 5.5l65 54q9 2 20 12.5t19 17.5q21 17 40.5 33.5t22.5 19.5h109v-670h-130v501zM906.323 787.946h125.438l-402.615 -1015.02h-121.392zM1194 -94l-28 97v3l306 435h141v-423h103 v-112h-103v-133h-135v133h-284zM1305 19h179l2 264z" />
<glyph unicode="&#xbd;" horiz-adv-x="1726" d="M108 521h-3q-5 7 -12 18.5t-14.5 25t-16 27.5t-15.5 26v3q0 1 5 6t11.5 10.5t13.5 10t10 5.5l65 54q9 2 20 12.5t19 17.5q21 17 40.5 33.5t22.5 19.5h109v-670h-130v501zM907.765 787.986h124.478l-399.531 -1014.02h-120.461zM1163 -118v3q27 26 58.5 52t62 51t59 48.5 t50.5 45.5l2 1q1 0 2 1q18 17 37.5 36t36 41t27.5 46t11 51q0 39 -27.5 59t-62.5 20q-53 0 -93 -25.5t-75 -60.5h-2l-76 88v2q0 1 5 7t9 10q21 15 35 25.5t25.5 18t23 13t27.5 12.5q10 3 13 5t8.5 4t19.5 4.5t47 7.5q33 0 63 0.5t62 -7.5q1 0 2.5 -1t2.5 -1q19 -11 37 -18.5 t35 -21.5q29 -26 42.5 -59.5t13.5 -78.5q0 -38 -11 -71t-30 -62t-44.5 -54.5t-52.5 -49.5q-15 -13 -35.5 -29.5t-39 -30.5t-32 -24t-13.5 -11l-63 -46h327v-112h-468z" />
<glyph unicode="&#xbe;" horiz-adv-x="1979" d="M187 111q-1 0 -2.5 1t-2.5 1q-17 5 -32 12t-40 18q1 -1 -6 3t-15.5 9.5t-15.5 11.5t-7 9q0 -2 8 12.5t18.5 33t20.5 34t14 15.5q39 -27 77 -45t86 -18q25 0 49.5 4t43 15.5t30 31t11.5 49.5q0 33 -12.5 54.5t-46.5 30.5q-5 2 -14.5 4t-10.5 2h-123v108q22 0 54 0.5 t62 7.5t51 24t21 51q0 24 -8.5 40t-22.5 25.5t-33 14t-41 4.5q-24 0 -49 -4.5t-46 -16.5q-5 -3 -16 -10.5t-22.5 -15t-20.5 -13t-10 -5.5q-2 0 -12.5 13t-21.5 29t-20 31t-9 20q0 3 11 10.5t24.5 15.5t26 14.5t15.5 7.5q22 10 41 16.5t38.5 10.5t40.5 6t45 2q12 0 36.5 -1 t46.5 -6q17 -11 37 -16t37 -19q13 -11 25 -22.5t21.5 -28t15 -39.5t5.5 -56q0 -42 -18 -78t-56 -56l2 -2q26 -7 43.5 -23t28 -37t15 -45.5t4.5 -47.5q0 -20 -2 -35.5t-6 -28.5t-9.5 -25t-12.5 -27q-51 -53 -106.5 -73t-126.5 -20q-53 0 -108 12zM1097 787.978h124 l-398 -1012.98h-120zM1383 -96l-28 97v3l306 435h141v-423h103v-112h-103v-133h-135v133h-284zM1494 17h179l2 264z" />
<glyph unicode="&#xbf;" horiz-adv-x="591" d="M423 608q0 -17 -7.5 -30t-19.5 -21.5t-27.5 -13t-31.5 -4.5q-11 0 -26.5 3.5t-29 10.5t-23 18t-9.5 26q0 14 1.5 23t5 16.5t9 14t14.5 15.5q17 6 30 9t30 3q33 0 58.5 -17t25.5 -53zM353 312q-27 -14 -54.5 -26t-49 -26.5t-35.5 -33t-14 -44.5q0 -23 10 -38.5t26 -26 t35.5 -15t38.5 -4.5q26 0 50.5 6.5t48.5 17.5q5 2 12 7.5l14 11t13 9.5t11 4q1 1 2 0t1 -2q16 -21 31.5 -43t29.5 -45q0 -8 -16.5 -18t-37.5 -19t-41 -16.5t-26 -9.5q-1 0 -2.5 -1t-2.5 -1q-26 -5 -51.5 -8.5t-52.5 -3.5q-53 0 -93.5 11t-69 36t-43 65t-14.5 97 q0 25 11.5 52t27.5 47q10 12 21.5 19.5t20.5 18.5l90 44q5 4 15 9.5t10 13.5v76h126v-106q0 -20 -14 -34.5t-28 -23.5z" />
<glyph unicode="&#xc0;" horiz-adv-x="782" d="M316 670h149l257 -670h-144l-55 144h-265l-58 -144h-140zM292 257h196l-100 279zM518 700h-114l-140 154h190z" />
<glyph unicode="&#xc1;" horiz-adv-x="782" d="M316 670h149l257 -670h-144l-55 144h-265l-58 -144h-140zM292 257h196l-100 279zM518 854l-140 -154h-114l65 154h189z" />
<glyph unicode="&#xc2;" horiz-adv-x="782" d="M316 670h149l257 -670h-144l-55 144h-265l-58 -144h-140zM292 257h196l-100 279zM570 700h-106l-74 62l-74 -62h-105l116 154h127z" />
<glyph unicode="&#xc3;" horiz-adv-x="782" d="M316 670h149l257 -670h-144l-55 144h-265l-58 -144h-140zM292 257h196l-100 279zM578 848q0 -65 -31.5 -107.5t-84.5 -42.5q-42 0 -80 24q-43 27 -54 27q-27 0 -33 -49h-91q0 66 31.5 108.5t84.5 42.5q42 0 79 -24q44 -28 55 -28q27 0 33 49h91z" />
<glyph unicode="&#xc4;" horiz-adv-x="782" d="M316 670h149l257 -670h-144l-55 144h-265l-58 -144h-140zM292 257h196l-100 279zM576 788q0 -33 -23.5 -58t-55.5 -25t-56 25t-24 58q0 34 24 59t56 25t55.5 -25t23.5 -59zM364 788q0 -33 -24 -58t-55 -25q-32 0 -56 25t-24 58q0 34 24 59t56 25t55.5 -25t23.5 -59z" />
<glyph unicode="&#xc5;" horiz-adv-x="782" d="M316 670h149l257 -670h-144l-55 144h-265l-58 -144h-140zM292 257h196l-100 279zM517 833q0 -57 -36.5 -95t-89.5 -38q-54 0 -90.5 38t-36.5 95q0 56 36.5 94.5t90.5 38.5q53 0 89.5 -38.5t36.5 -94.5zM440 833q0 57 -49 57t-49 -57t49 -57t49 57z" />
<glyph unicode="&#xc6;" horiz-adv-x="954" d="M906 0h-450v73h-216l-41 -73h-187l419 670h469v-156h-288v-89h166v-154h-166v-115h294v-156zM458 471q-22 -51 -76 -149l-61 -110h135v111q0 21 1 78.5t1 69.5z" />
<glyph unicode="&#xc7;" horiz-adv-x="733" d="M297 2q-8 6 -24.5 10t-24.5 8q-34 17 -60 41t-49 59q-29 50 -40 105t-11 112q0 65 18 126.5t56.5 109t99.5 76t147 28.5q27 0 46 -1t46 -6q1 -1 2.5 -1.5t2.5 -1.5q20 -7 38.5 -14.5t37.5 -17.5q4 -6 16.5 -14t26 -16.5t24 -17.5t10.5 -16q-17 -23 -38 -45t-39 -44h-5 q-35 35 -74 58t-90 23q-62 0 -104 -29t-61 -87q-5 -15 -9.5 -32t-4.5 -33v-90q0 -17 4.5 -34t9.5 -34q18 -62 60.5 -91t106.5 -29q38 -1 69.5 11t62.5 33q4 3 10.5 9t13.5 11.5t13 10t10 4.5q9 -11 20.5 -26t22.5 -28.5t18.5 -24t7.5 -11.5q4 0 -6.5 -8.5t-24.5 -18.5 t-26 -18.5t-10 -8.5q-42 -26 -86.5 -38.5t-98.5 -12.5q-29 0 -57.5 3t-56.5 11zM481 -101q0 -84 -98 -84q-65 0 -131 35l17 44q46 -23 90 -23q41 0 41 26q0 22 -20 22q-14 0 -33 -14l-34 25l18 70h54l-10 -40q16 8 37 8q69 0 69 -69z" />
<glyph unicode="&#xc8;" horiz-adv-x="618" d="M544 668v-117h-311v-149h283v-116h-283v-174h320v-112h-457v668h448zM436 700h-114l-140 154h190z" />
<glyph unicode="&#xc9;" horiz-adv-x="618" d="M544 668v-117h-311v-149h283v-116h-283v-174h320v-112h-457v668h448zM436 854l-140 -154h-114l65 154h189z" />
<glyph unicode="&#xca;" horiz-adv-x="618" d="M544 668v-117h-311v-149h283v-116h-283v-174h320v-112h-457v668h448zM488 700h-106l-74 62l-74 -62h-105l116 154h127z" />
<glyph unicode="&#xcb;" horiz-adv-x="618" d="M544 668v-117h-311v-149h283v-116h-283v-174h320v-112h-457v668h448zM494 788q0 -33 -23.5 -58t-55.5 -25t-56 25t-24 58q0 34 24 59t56 25t55.5 -25t23.5 -59zM282 788q0 -33 -24 -58t-55 -25q-32 0 -56 25t-24 58q0 34 24 59t56 25t55.5 -25t23.5 -59z" />
<glyph unicode="&#xcc;" horiz-adv-x="227" d="M46 668h135v-668h-135v668v0zM242 700h-114l-140 154h190z" />
<glyph unicode="&#xcd;" horiz-adv-x="227" d="M46 668h135v-668h-135v668v0zM242 854l-140 -154h-114l65 154h189z" />
<glyph unicode="&#xce;" horiz-adv-x="227" d="M46 668h135v-668h-135v668v0zM294 700h-106l-74 62l-74 -62h-105l116 154h127z" />
<glyph unicode="&#xcf;" horiz-adv-x="227" d="M46 668h135v-668h-135v668v0zM300 788q0 -33 -23.5 -58t-55.5 -25t-56 25t-24 58q0 34 24 59t56 25t55.5 -25t23.5 -59zM88 788q0 -33 -24 -58t-55 -25q-32 0 -56 25t-24 58q0 34 24 59t56 25t55.5 -25t23.5 -59z" />
<glyph unicode="&#xd0;" horiz-adv-x="603" d="M59 702h255q75 0 121.5 -26t76.5 -74t43.5 -112.5t13.5 -135.5q0 -116 -20.5 -178t-56.5 -102.5t-77 -54.5q-56 -19 -101 -19h-255v298h-58v105h58v299zM230 543v-140h84v-105h-84v-139h42q54 0 77 15.5t35.5 53t12.5 121.5q0 111 -29 152.5t-95 41.5h-43z" />
<glyph unicode="&#xd1;" horiz-adv-x="778" d="M98 668h135l314 -427v427h133v-668h-132l-312 424v-424h-138v668v0zM576 848q0 -65 -31.5 -107.5t-84.5 -42.5q-42 0 -80 24q-43 27 -54 27q-27 0 -33 -49h-91q0 66 31.5 108.5t84.5 42.5q42 0 79 -24q44 -28 55 -28q27 0 33 49h91z" />
<glyph unicode="&#xd2;" horiz-adv-x="828" d="M309 665q28 5 51.5 7t52.5 2q28 0 52 -2t52 -7q2 -2 5 -2q60 -20 109.5 -57t80.5 -108q17 -39 22.5 -82.5t5.5 -85.5q0 -43 -6.5 -84.5t-21.5 -81.5q-7 -19 -22.5 -39t-23.5 -37q-55 -55 -115.5 -77.5t-137.5 -22.5q-56 0 -104 11t-87.5 35.5t-69 63t-47.5 94.5 q-6 20 -11.5 40t-5.5 41v116q0 2 2 14.5t3 18.5q13 67 48 124t98 91q8 4 19.5 8.5t22 8t18.5 6.5t10 5zM232 330q0 -47 6.5 -89t26 -73.5t54 -50t90.5 -18.5q58 0 94 17t56 47.5t27.5 73.5t7.5 94q0 49 -7.5 91.5t-27.5 73.5t-55 49t-91 18q-59 0 -94.5 -18.5t-54.5 -50 t-25.5 -74t-6.5 -90.5zM541 700h-114l-140 154h190z" />
<glyph unicode="&#xd3;" horiz-adv-x="828" d="M309 665q28 5 51.5 7t52.5 2q28 0 52 -2t52 -7q2 -2 5 -2q60 -20 109.5 -57t80.5 -108q17 -39 22.5 -82.5t5.5 -85.5q0 -43 -6.5 -84.5t-21.5 -81.5q-7 -19 -22.5 -39t-23.5 -37q-55 -55 -115.5 -77.5t-137.5 -22.5q-56 0 -104 11t-87.5 35.5t-69 63t-47.5 94.5 q-6 20 -11.5 40t-5.5 41v116q0 2 2 14.5t3 18.5q13 67 48 124t98 91q8 4 19.5 8.5t22 8t18.5 6.5t10 5zM232 330q0 -47 6.5 -89t26 -73.5t54 -50t90.5 -18.5q58 0 94 17t56 47.5t27.5 73.5t7.5 94q0 49 -7.5 91.5t-27.5 73.5t-55 49t-91 18q-59 0 -94.5 -18.5t-54.5 -50 t-25.5 -74t-6.5 -90.5zM541 854l-140 -154h-114l65 154h189z" />
<glyph unicode="&#xd4;" horiz-adv-x="828" d="M309 665q28 5 51.5 7t52.5 2q28 0 52 -2t52 -7q2 -2 5 -2q60 -20 109.5 -57t80.5 -108q17 -39 22.5 -82.5t5.5 -85.5q0 -43 -6.5 -84.5t-21.5 -81.5q-7 -19 -22.5 -39t-23.5 -37q-55 -55 -115.5 -77.5t-137.5 -22.5q-56 0 -104 11t-87.5 35.5t-69 63t-47.5 94.5 q-6 20 -11.5 40t-5.5 41v116q0 2 2 14.5t3 18.5q13 67 48 124t98 91q8 4 19.5 8.5t22 8t18.5 6.5t10 5zM232 330q0 -47 6.5 -89t26 -73.5t54 -50t90.5 -18.5q58 0 94 17t56 47.5t27.5 73.5t7.5 94q0 49 -7.5 91.5t-27.5 73.5t-55 49t-91 18q-59 0 -94.5 -18.5t-54.5 -50 t-25.5 -74t-6.5 -90.5zM593 700h-106l-74 62l-74 -62h-105l116 154h127z" />
<glyph unicode="&#xd5;" horiz-adv-x="828" d="M309 665q28 5 51.5 7t52.5 2q28 0 52 -2t52 -7q2 -2 5 -2q60 -20 109.5 -57t80.5 -108q17 -39 22.5 -82.5t5.5 -85.5q0 -43 -6.5 -84.5t-21.5 -81.5q-7 -19 -22.5 -39t-23.5 -37q-55 -55 -115.5 -77.5t-137.5 -22.5q-56 0 -104 11t-87.5 35.5t-69 63t-47.5 94.5 q-6 20 -11.5 40t-5.5 41v116q0 2 2 14.5t3 18.5q13 67 48 124t98 91q8 4 19.5 8.5t22 8t18.5 6.5t10 5zM232 330q0 -47 6.5 -89t26 -73.5t54 -50t90.5 -18.5q58 0 94 17t56 47.5t27.5 73.5t7.5 94q0 49 -7.5 91.5t-27.5 73.5t-55 49t-91 18q-59 0 -94.5 -18.5t-54.5 -50 t-25.5 -74t-6.5 -90.5zM601 848q0 -65 -31.5 -107.5t-84.5 -42.5q-42 0 -80 24q-43 27 -54 27q-27 0 -33 -49h-91q0 66 31.5 108.5t84.5 42.5q42 0 79 -24q44 -28 55 -28q27 0 33 49h91z" />
<glyph unicode="&#xd6;" horiz-adv-x="828" d="M309 665q28 5 51.5 7t52.5 2q28 0 52 -2t52 -7q2 -2 5 -2q60 -20 109.5 -57t80.5 -108q17 -39 22.5 -82.5t5.5 -85.5q0 -43 -6.5 -84.5t-21.5 -81.5q-7 -19 -22.5 -39t-23.5 -37q-55 -55 -115.5 -77.5t-137.5 -22.5q-56 0 -104 11t-87.5 35.5t-69 63t-47.5 94.5 q-6 20 -11.5 40t-5.5 41v116q0 2 2 14.5t3 18.5q13 67 48 124t98 91q8 4 19.5 8.5t22 8t18.5 6.5t10 5zM232 330q0 -47 6.5 -89t26 -73.5t54 -50t90.5 -18.5q58 0 94 17t56 47.5t27.5 73.5t7.5 94q0 49 -7.5 91.5t-27.5 73.5t-55 49t-91 18q-59 0 -94.5 -18.5t-54.5 -50 t-25.5 -74t-6.5 -90.5zM599 788q0 -33 -23.5 -58t-55.5 -25t-56 25t-24 58q0 34 24 59t56 25t55.5 -25t23.5 -59zM387 788q0 -33 -24 -58t-55 -25q-32 0 -56 25t-24 58q0 34 24 59t56 25t55.5 -25t23.5 -59z" />
<glyph unicode="&#xd7;" horiz-adv-x="512" d="M134 613l121 -151l119 151l88 -111l-120 -151l120 -152l-88 -110l-119 153l-121 -153l-87 110l121 152l-121 151z" />
<glyph unicode="&#xd8;" horiz-adv-x="828" d="M309 665q28 5 51.5 7t52.5 2q28 0 52 -2t52 -7q2 -2 5 -2q60 -20 109.5 -57t80.5 -108q17 -39 22.5 -82.5t5.5 -85.5q0 -43 -6.5 -84.5t-21.5 -81.5q-7 -19 -22.5 -39t-23.5 -37q-55 -55 -115.5 -77.5t-137.5 -22.5q-56 0 -104 11t-87.5 35.5t-69 63t-47.5 94.5 q-6 20 -11.5 40t-5.5 41v116q0 2 2 14.5t3 18.5q13 67 48 124t98 91q8 4 19.5 8.5t22 8t18.5 6.5t10 5zM232 330q0 -47 6.5 -89t26 -73.5t54 -50t90.5 -18.5q58 0 94 17t56 47.5t27.5 73.5t7.5 94q0 49 -7.5 91.5t-27.5 73.5t-55 49t-91 18q-59 0 -94.5 -18.5t-54.5 -50 t-25.5 -74t-6.5 -90.5zM548.235 675.014h123.522l-396.469 -675.003h-119.539z" />
<glyph unicode="&#xd9;" horiz-adv-x="735" d="M230 668l4 -445q2 -33 14 -55.5t30.5 -37t42 -21t47.5 -6.5q69 0 103 43.5t34 109.5v412h135v-433q0 -47 -15.5 -91.5t-45 -79t-71 -55t-93.5 -20.5h-95q-25 0 -48.5 7t-46.5 16q-35 14 -59.5 38.5t-40 55t-23 66t-7.5 70.5v426h135zM494 700h-114l-140 154h190z" />
<glyph unicode="&#xda;" horiz-adv-x="735" d="M230 668l4 -445q2 -33 14 -55.5t30.5 -37t42 -21t47.5 -6.5q69 0 103 43.5t34 109.5v412h135v-433q0 -47 -15.5 -91.5t-45 -79t-71 -55t-93.5 -20.5h-95q-25 0 -48.5 7t-46.5 16q-35 14 -59.5 38.5t-40 55t-23 66t-7.5 70.5v426h135zM494 854l-140 -154h-114l65 154h189z " />
<glyph unicode="&#xdb;" horiz-adv-x="735" d="M230 668l4 -445q2 -33 14 -55.5t30.5 -37t42 -21t47.5 -6.5q69 0 103 43.5t34 109.5v412h135v-433q0 -47 -15.5 -91.5t-45 -79t-71 -55t-93.5 -20.5h-95q-25 0 -48.5 7t-46.5 16q-35 14 -59.5 38.5t-40 55t-23 66t-7.5 70.5v426h135zM547 700h-106l-74 62l-74 -62h-105 l116 154h127z" />
<glyph unicode="&#xdc;" horiz-adv-x="735" d="M230 668l4 -445q2 -33 14 -55.5t30.5 -37t42 -21t47.5 -6.5q69 0 103 43.5t34 109.5v412h135v-433q0 -47 -15.5 -91.5t-45 -79t-71 -55t-93.5 -20.5h-95q-25 0 -48.5 7t-46.5 16q-35 14 -59.5 38.5t-40 55t-23 66t-7.5 70.5v426h135zM553 788q0 -33 -23.5 -58t-55.5 -25 t-56 25t-24 58q0 34 24 59t56 25t55.5 -25t23.5 -59zM341 788q0 -33 -24 -58t-55 -25q-32 0 -56 25t-24 58q0 34 24 59t56 25t55.5 -25t23.5 -59z" />
<glyph unicode="&#xdd;" horiz-adv-x="715" d="M46 670h153l160 -283l160 283h150l-241 -408v-262h-137v257zM484 854l-140 -154h-114l65 154h189z" />
<glyph unicode="&#xde;" horiz-adv-x="560" d="M56 702h172v-125l113 -1q93 0 139.5 -56t46.5 -159q0 -106 -50.5 -166t-154.5 -60h-94v-135h-172v702zM228 278h42q50 0 70 21.5t20 55.5q0 33 -17.5 56t-65.5 23h-49v-156z" />
<glyph unicode="&#xdf;" horiz-adv-x="535" d="M504 224q0 -224 -232 -224h-14v135h14q74 0 74 86t-82 86h-6v130h6q41 0 41 52q0 66 -49 66q-46 0 -46 -80v-591l-160 -69v655q0 113 57 171q52 54 149 54q89 0 142 -42q58 -47 58 -135t-75 -133q123 -30 123 -161z" />
<glyph unicode="&#xe0;" horiz-adv-x="674" d="M81 155q0 60 29.5 98.5t76 60t105 30t116.5 8.5q15 0 16 5t1 15q0 51 -22 66.5t-69 15.5q-23 0 -41.5 -2t-37 -7t-39 -12.5t-47.5 -17.5q-7 -4 -15 -10.5t-16 -6.5q-5 9 -12 25t-13 31t-10.5 26.5t-4.5 12.5q58 32 121.5 47.5t129.5 15.5q33 0 64 -4.5t57 -16.5t46 -33.5 t31 -56.5q5 -16 9 -34.5t4 -33.5v-252q0 -11 7.5 -20.5t16 -17t14.5 -12t3 -6.5l-75 -76q0 -1 -4 -1q-19 0 -34 9.5t-26 21.5q-13 14 -24 32q-40 -32 -85 -49.5t-98 -17.5q-79 0 -126.5 43t-47.5 124zM213 162q0 -38 20 -59.5t59 -21.5q35 0 67 13t61 33l2.5 2.5t1.5 2.5 v139q-29 0 -65.5 -2.5t-68.5 -13t-54.5 -32.5t-22.5 -61zM464 569h-114l-140 154h190z" />
<glyph unicode="&#xe1;" horiz-adv-x="674" d="M81 155q0 60 29.5 98.5t76 60t105 30t116.5 8.5q15 0 16 5t1 15q0 51 -22 66.5t-69 15.5q-23 0 -41.5 -2t-37 -7t-39 -12.5t-47.5 -17.5q-7 -4 -15 -10.5t-16 -6.5q-5 9 -12 25t-13 31t-10.5 26.5t-4.5 12.5q58 32 121.5 47.5t129.5 15.5q33 0 64 -4.5t57 -16.5t46 -33.5 t31 -56.5q5 -16 9 -34.5t4 -33.5v-252q0 -11 7.5 -20.5t16 -17t14.5 -12t3 -6.5l-75 -76q0 -1 -4 -1q-19 0 -34 9.5t-26 21.5q-13 14 -24 32q-40 -32 -85 -49.5t-98 -17.5q-79 0 -126.5 43t-47.5 124zM213 162q0 -38 20 -59.5t59 -21.5q35 0 67 13t61 33l2.5 2.5t1.5 2.5 v139q-29 0 -65.5 -2.5t-68.5 -13t-54.5 -32.5t-22.5 -61zM464 723l-140 -154h-114l65 154h189z" />
<glyph unicode="&#xe2;" horiz-adv-x="674" d="M81 155q0 60 29.5 98.5t76 60t105 30t116.5 8.5q15 0 16 5t1 15q0 51 -22 66.5t-69 15.5q-23 0 -41.5 -2t-37 -7t-39 -12.5t-47.5 -17.5q-7 -4 -15 -10.5t-16 -6.5q-5 9 -12 25t-13 31t-10.5 26.5t-4.5 12.5q58 32 121.5 47.5t129.5 15.5q33 0 64 -4.5t57 -16.5t46 -33.5 t31 -56.5q5 -16 9 -34.5t4 -33.5v-252q0 -11 7.5 -20.5t16 -17t14.5 -12t3 -6.5l-75 -76q0 -1 -4 -1q-19 0 -34 9.5t-26 21.5q-13 14 -24 32q-40 -32 -85 -49.5t-98 -17.5q-79 0 -126.5 43t-47.5 124zM213 162q0 -38 20 -59.5t59 -21.5q35 0 67 13t61 33l2.5 2.5t1.5 2.5 v139q-29 0 -65.5 -2.5t-68.5 -13t-54.5 -32.5t-22.5 -61zM516 569h-106l-74 62l-74 -62h-105l116 154h127z" />
<glyph unicode="&#xe3;" horiz-adv-x="674" d="M81 155q0 60 29.5 98.5t76 60t105 30t116.5 8.5q15 0 16 5t1 15q0 51 -22 66.5t-69 15.5q-23 0 -41.5 -2t-37 -7t-39 -12.5t-47.5 -17.5q-7 -4 -15 -10.5t-16 -6.5q-5 9 -12 25t-13 31t-10.5 26.5t-4.5 12.5q58 32 121.5 47.5t129.5 15.5q33 0 64 -4.5t57 -16.5t46 -33.5 t31 -56.5q5 -16 9 -34.5t4 -33.5v-252q0 -11 7.5 -20.5t16 -17t14.5 -12t3 -6.5l-75 -76q0 -1 -4 -1q-19 0 -34 9.5t-26 21.5q-13 14 -24 32q-40 -32 -85 -49.5t-98 -17.5q-79 0 -126.5 43t-47.5 124zM213 162q0 -38 20 -59.5t59 -21.5q35 0 67 13t61 33l2.5 2.5t1.5 2.5 v139q-29 0 -65.5 -2.5t-68.5 -13t-54.5 -32.5t-22.5 -61zM524 717q0 -65 -31.5 -107.5t-84.5 -42.5q-42 0 -80 24q-43 27 -54 27q-27 0 -33 -49h-91q0 66 31.5 108.5t84.5 42.5q42 0 79 -24q44 -28 55 -28q27 0 33 49h91z" />
<glyph unicode="&#xe4;" horiz-adv-x="674" d="M81 155q0 60 29.5 98.5t76 60t105 30t116.5 8.5q15 0 16 5t1 15q0 51 -22 66.5t-69 15.5q-23 0 -41.5 -2t-37 -7t-39 -12.5t-47.5 -17.5q-7 -4 -15 -10.5t-16 -6.5q-5 9 -12 25t-13 31t-10.5 26.5t-4.5 12.5q58 32 121.5 47.5t129.5 15.5q33 0 64 -4.5t57 -16.5t46 -33.5 t31 -56.5q5 -16 9 -34.5t4 -33.5v-252q0 -11 7.5 -20.5t16 -17t14.5 -12t3 -6.5l-75 -76q0 -1 -4 -1q-19 0 -34 9.5t-26 21.5q-13 14 -24 32q-40 -32 -85 -49.5t-98 -17.5q-79 0 -126.5 43t-47.5 124zM213 162q0 -38 20 -59.5t59 -21.5q35 0 67 13t61 33l2.5 2.5t1.5 2.5 v139q-29 0 -65.5 -2.5t-68.5 -13t-54.5 -32.5t-22.5 -61zM522 657q0 -33 -23.5 -58t-55.5 -25t-56 25t-24 58q0 34 24 59t56 25t55.5 -25t23.5 -59zM310 657q0 -33 -24 -58t-55 -25q-32 0 -56 25t-24 58q0 34 24 59t56 25t55.5 -25t23.5 -59z" />
<glyph unicode="&#xe5;" horiz-adv-x="674" d="M81 155q0 60 29.5 98.5t76 60t105 30t116.5 8.5q15 0 16 5t1 15q0 51 -22 66.5t-69 15.5q-23 0 -41.5 -2t-37 -7t-39 -12.5t-47.5 -17.5q-7 -4 -15 -10.5t-16 -6.5q-5 9 -12 25t-13 31t-10.5 26.5t-4.5 12.5q58 32 121.5 47.5t129.5 15.5q33 0 64 -4.5t57 -16.5t46 -33.5 t31 -56.5q5 -16 9 -34.5t4 -33.5v-252q0 -11 7.5 -20.5t16 -17t14.5 -12t3 -6.5l-75 -76q0 -1 -4 -1q-19 0 -34 9.5t-26 21.5q-13 14 -24 32q-40 -32 -85 -49.5t-98 -17.5q-79 0 -126.5 43t-47.5 124zM213 162q0 -38 20 -59.5t59 -21.5q35 0 67 13t61 33l2.5 2.5t1.5 2.5 v139q-29 0 -65.5 -2.5t-68.5 -13t-54.5 -32.5t-22.5 -61zM463 702q0 -57 -36.5 -95t-89.5 -38q-54 0 -90.5 38t-36.5 95q0 56 36.5 94.5t90.5 38.5q53 0 89.5 -38.5t36.5 -94.5zM386 702q0 57 -49 57t-49 -57t49 -57t49 57z" />
<glyph unicode="&#xe6;" horiz-adv-x="754" d="M723 235q0 -24 -1 -33h-274q8 -80 79 -80q58 0 121 35l62 -110q-92 -58 -191 -58q-98 0 -144 72q-65 -72 -172 -72q-169 0 -169 174q0 79 47 122q45 41 121 41q54 0 97 -21v25q0 60 -66 60q-68 0 -130 -37l-42 114q89 46 197 46q94 0 130 -61q46 61 131 61q95 0 148 -69 q56 -72 56 -209zM581 309q-6 40 -20 58q-17 19 -51 19q-54 0 -62 -77h133zM299 136v69q-29 14 -68 14q-50 0 -50 -53q0 -55 50 -55q40 0 68 25z" />
<glyph unicode="&#xe7;" horiz-adv-x="625" d="M140 78q-5 14 -14.5 27t-15.5 27q-15 32 -20.5 68t-5.5 71q0 72 24.5 134t84.5 107q39 23 79.5 33.5t85.5 10.5q52 0 95 -14.5t88 -38.5q3 -4 13 -10t10 -11q0 -6 -9.5 -21t-20.5 -30q-13 -18 -29 -38q-1 0 -5 3t-8.5 7t-8.5 7.5t-5 4.5q-27 19 -54 28t-59 9 q-40 0 -67.5 -14.5t-44.5 -39t-24.5 -57t-7.5 -68.5t7.5 -68.5t24 -57t44 -39t68.5 -14.5q46 0 79.5 14t73.5 40q1 4 8.5 -7.5t15 -28t14 -32.5t6.5 -19q0 -6 -12 -14.5t-27.5 -16.5t-32 -15.5t-25.5 -10.5l-3 -2q0 -3 -14.5 -5.5t-32.5 -4.5t-35.5 -3t-23.5 -1 q-66 0 -119 21t-97 69zM427 -101q0 -84 -98 -84q-65 0 -131 35l17 44q46 -23 90 -23q41 0 41 26q0 22 -20 22q-14 0 -33 -14l-34 25l18 70h54l-10 -40q16 8 37 8q69 0 69 -69z" />
<glyph unicode="&#xe8;" horiz-adv-x="679" d="M252 0q-23 13 -46 22.5t-43 28.5l-8.5 8.5t-11 11.5t-9 11t-3.5 6q-17 28 -33 64.5t-16 69.5v102q0 16 5.5 34.5t11.5 32.5q32 85 93 124t151 39q43 0 76 -8t71 -29l10 -10t11 -7q25 -28 41.5 -54.5t26.5 -54.5t14 -59t4 -68q0 -16 -0.5 -23.5t-1.5 -12.5h-378 q0 -118 113 -138q30 0 54.5 2t46.5 7.5t43 15t44 24.5q5 0 6 -2t3 -5l40 -84q1 -1 0 -2.5t-2 -1.5q-52 -32 -103.5 -44t-104.5 -12q-28 0 -52.5 3t-52.5 9zM350 454q-64 0 -98.5 -39t-34.5 -100h249q0 29 -6 54.5t-19.5 44t-36 29.5t-54.5 11zM466 569h-114l-140 154h190z " />
<glyph unicode="&#xe9;" horiz-adv-x="679" d="M252 0q-23 13 -46 22.5t-43 28.5l-8.5 8.5t-11 11.5t-9 11t-3.5 6q-17 28 -33 64.5t-16 69.5v102q0 16 5.5 34.5t11.5 32.5q32 85 93 124t151 39q43 0 76 -8t71 -29l10 -10t11 -7q25 -28 41.5 -54.5t26.5 -54.5t14 -59t4 -68q0 -16 -0.5 -23.5t-1.5 -12.5h-378 q0 -118 113 -138q30 0 54.5 2t46.5 7.5t43 15t44 24.5q5 0 6 -2t3 -5l40 -84q1 -1 0 -2.5t-2 -1.5q-52 -32 -103.5 -44t-104.5 -12q-28 0 -52.5 3t-52.5 9zM350 454q-64 0 -98.5 -39t-34.5 -100h249q0 29 -6 54.5t-19.5 44t-36 29.5t-54.5 11zM466 723l-140 -154h-114 l65 154h189z" />
<glyph unicode="&#xea;" horiz-adv-x="679" d="M252 0q-23 13 -46 22.5t-43 28.5l-8.5 8.5t-11 11.5t-9 11t-3.5 6q-17 28 -33 64.5t-16 69.5v102q0 16 5.5 34.5t11.5 32.5q32 85 93 124t151 39q43 0 76 -8t71 -29l10 -10t11 -7q25 -28 41.5 -54.5t26.5 -54.5t14 -59t4 -68q0 -16 -0.5 -23.5t-1.5 -12.5h-378 q0 -118 113 -138q30 0 54.5 2t46.5 7.5t43 15t44 24.5q5 0 6 -2t3 -5l40 -84q1 -1 0 -2.5t-2 -1.5q-52 -32 -103.5 -44t-104.5 -12q-28 0 -52.5 3t-52.5 9zM350 454q-64 0 -98.5 -39t-34.5 -100h249q0 29 -6 54.5t-19.5 44t-36 29.5t-54.5 11zM519 569h-106l-74 62l-74 -62 h-105l116 154h127z" />
<glyph unicode="&#xeb;" horiz-adv-x="679" d="M252 0q-23 13 -46 22.5t-43 28.5l-8.5 8.5t-11 11.5t-9 11t-3.5 6q-17 28 -33 64.5t-16 69.5v102q0 16 5.5 34.5t11.5 32.5q32 85 93 124t151 39q43 0 76 -8t71 -29l10 -10t11 -7q25 -28 41.5 -54.5t26.5 -54.5t14 -59t4 -68q0 -16 -0.5 -23.5t-1.5 -12.5h-378 q0 -118 113 -138q30 0 54.5 2t46.5 7.5t43 15t44 24.5q5 0 6 -2t3 -5l40 -84q1 -1 0 -2.5t-2 -1.5q-52 -32 -103.5 -44t-104.5 -12q-28 0 -52.5 3t-52.5 9zM350 454q-64 0 -98.5 -39t-34.5 -100h249q0 29 -6 54.5t-19.5 44t-36 29.5t-54.5 11zM525 657q0 -33 -23.5 -58 t-55.5 -25t-56 25t-24 58q0 34 24 59t56 25t55.5 -25t23.5 -59zM313 657q0 -33 -24 -58t-55 -25q-32 0 -56 25t-24 58q0 34 24 59t56 25t55.5 -25t23.5 -59z" />
<glyph unicode="&#xec;" horiz-adv-x="265" d="M197 545v-545h-129v545h129zM261 569h-114l-140 154h190z" />
<glyph unicode="&#xed;" horiz-adv-x="265" d="M197 545v-545h-129v545h129zM261 723l-140 -154h-114l65 154h189z" />
<glyph unicode="&#xee;" horiz-adv-x="265" d="M197 545v-545h-129v545h129zM313 569h-106l-74 62l-74 -62h-105l116 154h127z" />
<glyph unicode="&#xef;" horiz-adv-x="265" d="M197 545v-545h-129v545h129zM319 657q0 -33 -23.5 -58t-55.5 -25t-56 25t-24 58q0 34 24 59t56 25t55.5 -25t23.5 -59zM107 657q0 -33 -24 -58t-55 -25q-32 0 -56 25t-24 58q0 34 24 59t56 25t55.5 -25t23.5 -59z" />
<glyph unicode="&#xf0;" horiz-adv-x="517" d="M121 574l96 43q-24 31 -43.5 49.5t-45.5 35.5h156q23 -16 43 -35l77 35l14 -49l-55 -26q62 -80 93.5 -167t31.5 -181q0 -137 -61 -213.5t-167 -76.5q-72 0 -126 34.5t-80 99t-26 131.5q0 70 25 130t70.5 92t91.5 32q23 0 45 -8q14 -6 35 -22q-26 57 -49 96l-111 -51z M183 253q0 -69 21.5 -101t52.5 -32q29 0 54 31.5t25 110.5q0 69 -24.5 96.5t-53.5 27.5q-31 0 -53 -32t-22 -101z" />
<glyph unicode="&#xf1;" horiz-adv-x="671" d="M208 542l12 -57q32 41 70.5 55t91.5 14q102 0 149.5 -52.5t47.5 -153.5v-348h-133v341q0 1 -1 7.5t-3 14.5t-4 17t-3 14q-2 14 -11.5 23.5t-22.5 15t-28 8t-28 2.5q-36 0 -66.5 -13.5t-44.5 -49.5q-1 -1 -2 -5t-2.5 -9t-2.5 -10t-1 -6v-350h-134v542h116zM522 717 q0 -65 -31.5 -107.5t-84.5 -42.5q-42 0 -80 24q-43 27 -54 27q-27 0 -33 -49h-91q0 66 31.5 108.5t84.5 42.5q42 0 79 -24q44 -28 55 -28q27 0 33 49h91z" />
<glyph unicode="&#xf2;" horiz-adv-x="705" d="M352 554q136 0 203 -75t67 -207q0 -62 -17.5 -120.5t-64.5 -100.5q-5 -4 -11.5 -10t-13.5 -11.5t-13.5 -9.5t-10.5 -4q-19 -8 -35 -13.5t-32 -8.5t-33.5 -4.5t-39.5 -1.5q-85 0 -148 32.5t-96 111.5q-8 19 -16 43t-8 45v102q0 21 7 42t14 41q15 41 40.5 69.5t58 46 t71 25.5t78.5 8zM218 271q0 -36 5.5 -69t20 -57.5t40.5 -39.5t68 -15q40 0 66 15.5t41.5 40.5t21.5 57.5t6 67.5q0 38 -5.5 70.5t-20.5 56t-41.5 36.5t-68.5 13t-68 -14t-40.5 -38t-19.5 -56t-5 -68zM479 569h-114l-140 154h190z" />
<glyph unicode="&#xf3;" horiz-adv-x="705" d="M352 554q136 0 203 -75t67 -207q0 -62 -17.5 -120.5t-64.5 -100.5q-5 -4 -11.5 -10t-13.5 -11.5t-13.5 -9.5t-10.5 -4q-19 -8 -35 -13.5t-32 -8.5t-33.5 -4.5t-39.5 -1.5q-85 0 -148 32.5t-96 111.5q-8 19 -16 43t-8 45v102q0 21 7 42t14 41q15 41 40.5 69.5t58 46 t71 25.5t78.5 8zM218 271q0 -36 5.5 -69t20 -57.5t40.5 -39.5t68 -15q40 0 66 15.5t41.5 40.5t21.5 57.5t6 67.5q0 38 -5.5 70.5t-20.5 56t-41.5 36.5t-68.5 13t-68 -14t-40.5 -38t-19.5 -56t-5 -68zM479 723l-140 -154h-114l65 154h189z" />
<glyph unicode="&#xf4;" horiz-adv-x="705" d="M352 554q136 0 203 -75t67 -207q0 -62 -17.5 -120.5t-64.5 -100.5q-5 -4 -11.5 -10t-13.5 -11.5t-13.5 -9.5t-10.5 -4q-19 -8 -35 -13.5t-32 -8.5t-33.5 -4.5t-39.5 -1.5q-85 0 -148 32.5t-96 111.5q-8 19 -16 43t-8 45v102q0 21 7 42t14 41q15 41 40.5 69.5t58 46 t71 25.5t78.5 8zM218 271q0 -36 5.5 -69t20 -57.5t40.5 -39.5t68 -15q40 0 66 15.5t41.5 40.5t21.5 57.5t6 67.5q0 38 -5.5 70.5t-20.5 56t-41.5 36.5t-68.5 13t-68 -14t-40.5 -38t-19.5 -56t-5 -68zM532 569h-106l-74 62l-74 -62h-105l116 154h127z" />
<glyph unicode="&#xf5;" horiz-adv-x="705" d="M352 554q136 0 203 -75t67 -207q0 -62 -17.5 -120.5t-64.5 -100.5q-5 -4 -11.5 -10t-13.5 -11.5t-13.5 -9.5t-10.5 -4q-19 -8 -35 -13.5t-32 -8.5t-33.5 -4.5t-39.5 -1.5q-85 0 -148 32.5t-96 111.5q-8 19 -16 43t-8 45v102q0 21 7 42t14 41q15 41 40.5 69.5t58 46 t71 25.5t78.5 8zM218 271q0 -36 5.5 -69t20 -57.5t40.5 -39.5t68 -15q40 0 66 15.5t41.5 40.5t21.5 57.5t6 67.5q0 38 -5.5 70.5t-20.5 56t-41.5 36.5t-68.5 13t-68 -14t-40.5 -38t-19.5 -56t-5 -68zM539 717q0 -65 -31.5 -107.5t-84.5 -42.5q-42 0 -80 24q-43 27 -54 27 q-27 0 -33 -49h-91q0 66 31.5 108.5t84.5 42.5q42 0 79 -24q44 -28 55 -28q27 0 33 49h91z" />
<glyph unicode="&#xf6;" horiz-adv-x="705" d="M352 554q136 0 203 -75t67 -207q0 -62 -17.5 -120.5t-64.5 -100.5q-5 -4 -11.5 -10t-13.5 -11.5t-13.5 -9.5t-10.5 -4q-19 -8 -35 -13.5t-32 -8.5t-33.5 -4.5t-39.5 -1.5q-85 0 -148 32.5t-96 111.5q-8 19 -16 43t-8 45v102q0 21 7 42t14 41q15 41 40.5 69.5t58 46 t71 25.5t78.5 8zM218 271q0 -36 5.5 -69t20 -57.5t40.5 -39.5t68 -15q40 0 66 15.5t41.5 40.5t21.5 57.5t6 67.5q0 38 -5.5 70.5t-20.5 56t-41.5 36.5t-68.5 13t-68 -14t-40.5 -38t-19.5 -56t-5 -68zM538 657q0 -33 -23.5 -58t-55.5 -25t-56 25t-24 58q0 34 24 59t56 25 t55.5 -25t23.5 -59zM326 657q0 -33 -24 -58t-55 -25q-32 0 -56 25t-24 58q0 34 24 59t56 25t55.5 -25t23.5 -59z" />
<glyph unicode="&#xf7;" horiz-adv-x="512" d="M178 649h152v-177h-152v177zM48 429h413v-156h-413v156zM178 229h152v-179h-152v179z" />
<glyph unicode="&#xf8;" horiz-adv-x="705" d="M352 554q136 0 203 -75t67 -207q0 -62 -17.5 -120.5t-64.5 -100.5q-5 -4 -11.5 -10t-13.5 -11.5t-13.5 -9.5t-10.5 -4q-19 -8 -35 -13.5t-32 -8.5t-33.5 -4.5t-39.5 -1.5q-85 0 -148 32.5t-96 111.5q-8 19 -16 43t-8 45v102q0 21 7 42t14 41q15 41 40.5 69.5t58 46 t71 25.5t78.5 8zM218 271q0 -36 5.5 -69t20 -57.5t40.5 -39.5t68 -15q40 0 66 15.5t41.5 40.5t21.5 57.5t6 67.5q0 38 -5.5 70.5t-20.5 56t-41.5 36.5t-68.5 13t-68 -14t-40.5 -38t-19.5 -56t-5 -68zM482.147 543.683h121.608l-390.324 -544.017h-117.686z" />
<glyph unicode="&#xf9;" horiz-adv-x="658" d="M223 543l5 -368q1 -42 29.5 -59.5t65.5 -17.5q39 0 66 13.5t38 54.5q2 5 4 13.5t2 9.5v354h134v-542h-119l-9 56h-2q-30 -40 -69.5 -55t-87.5 -15q-41 0 -71 6.5t-52 22.5t-36.5 43t-24.5 67q-1 2 -2 8.5t-1.5 14.5t-1 15.5t-0.5 12.5v366h132zM456 569h-114l-140 154 h190z" />
<glyph unicode="&#xfa;" horiz-adv-x="658" d="M223 543l5 -368q1 -42 29.5 -59.5t65.5 -17.5q39 0 66 13.5t38 54.5q2 5 4 13.5t2 9.5v354h134v-542h-119l-9 56h-2q-30 -40 -69.5 -55t-87.5 -15q-41 0 -71 6.5t-52 22.5t-36.5 43t-24.5 67q-1 2 -2 8.5t-1.5 14.5t-1 15.5t-0.5 12.5v366h132zM456 723l-140 -154h-114 l65 154h189z" />
<glyph unicode="&#xfb;" horiz-adv-x="658" d="M223 543l5 -368q1 -42 29.5 -59.5t65.5 -17.5q39 0 66 13.5t38 54.5q2 5 4 13.5t2 9.5v354h134v-542h-119l-9 56h-2q-30 -40 -69.5 -55t-87.5 -15q-41 0 -71 6.5t-52 22.5t-36.5 43t-24.5 67q-1 2 -2 8.5t-1.5 14.5t-1 15.5t-0.5 12.5v366h132zM508 569h-106l-74 62 l-74 -62h-105l116 154h127z" />
<glyph unicode="&#xfc;" horiz-adv-x="658" d="M223 543l5 -368q1 -42 29.5 -59.5t65.5 -17.5q39 0 66 13.5t38 54.5q2 5 4 13.5t2 9.5v354h134v-542h-119l-9 56h-2q-30 -40 -69.5 -55t-87.5 -15q-41 0 -71 6.5t-52 22.5t-36.5 43t-24.5 67q-1 2 -2 8.5t-1.5 14.5t-1 15.5t-0.5 12.5v366h132zM514 657q0 -33 -23.5 -58 t-55.5 -25t-56 25t-24 58q0 34 24 59t56 25t55.5 -25t23.5 -59zM302 657q0 -33 -24 -58t-55 -25q-32 0 -56 25t-24 58q0 34 24 59t56 25t55.5 -25t23.5 -59z" />
<glyph unicode="&#xfd;" horiz-adv-x="668" d="M105 -98h76q19 0 31.5 8t20.5 21t14 28t11 29q2 6 5.5 11.5t3.5 13.5q0 7 -3.5 12.5t-5.5 10.5q-7 18 -14.5 37t-17.5 45t-24 61.5t-33.5 85.5t-47 118t-63.5 159v2h144l135 -385l2 -4q0 1 1 4t4.5 14.5t11.5 35.5t22 66.5t35.5 108t53.5 160.5h143q0 -4 -2 -11.5 t-8.5 -25t-18.5 -49t-32.5 -83.5t-51 -128t-72.5 -183q-5 -8 -10.5 -21t-11.5 -27.5t-11 -28t-7 -22.5l-44 -98l-2 -2q-1 -1 -4.5 -6t-7 -10.5t-7 -10.5t-4.5 -6q-13 -15 -30 -24.5t-36 -14t-38.5 -6t-38.5 -1.5h-22q-5 0 -12 1t-14 1.5t-12.5 1.5l-5.5 1l-2 2v109zM461 723 l-140 -154h-114l65 154h189z" />
<glyph unicode="&#xfe;" horiz-adv-x="517" d="M47 -193v895h156v-243q24 32 50.5 46.5t63.5 14.5q83 0 128 -76.5t45 -194.5q0 -127 -48 -193.5t-122 -66.5q-35 0 -64.5 15t-52.5 45v-242h-156zM202 253q0 -61 20 -90t50 -29q27 0 45.5 28t18.5 95q0 62 -19 91t-46 29q-30 0 -49.5 -29.5t-19.5 -94.5z" />
<glyph unicode="&#xff;" horiz-adv-x="668" d="M105 -98h76q19 0 31.5 8t20.5 21t14 28t11 29q2 6 5.5 11.5t3.5 13.5q0 7 -3.5 12.5t-5.5 10.5q-7 18 -14.5 37t-17.5 45t-24 61.5t-33.5 85.5t-47 118t-63.5 159v2h144l135 -385l2 -4q0 1 1 4t4.5 14.5t11.5 35.5t22 66.5t35.5 108t53.5 160.5h143q0 -4 -2 -11.5 t-8.5 -25t-18.5 -49t-32.5 -83.5t-51 -128t-72.5 -183q-5 -8 -10.5 -21t-11.5 -27.5t-11 -28t-7 -22.5l-44 -98l-2 -2q-1 -1 -4.5 -6t-7 -10.5t-7 -10.5t-4.5 -6q-13 -15 -30 -24.5t-36 -14t-38.5 -6t-38.5 -1.5h-22q-5 0 -12 1t-14 1.5t-12.5 1.5l-5.5 1l-2 2v109zM519 657 q0 -33 -23.5 -58t-55.5 -25t-56 25t-24 58q0 34 24 59t56 25t55.5 -25t23.5 -59zM307 657q0 -33 -24 -58t-55 -25q-32 0 -56 25t-24 58q0 34 24 59t56 25t55.5 -25t23.5 -59z" />
<glyph unicode="&#x152;" horiz-adv-x="946" d="M899 0h-425v62q-49 -73 -158 -73q-122 0 -198 89q-81 93 -81 256t81 257q78 90 200 90q107 0 156 -73v62h419v-156h-297v-89h175v-154h-175v-115h303v-156zM435 334q0 90 -29 137.5t-81 47.5q-109 0 -109 -183q0 -90 29 -137.5t82 -47.5q108 0 108 183z" />
<glyph unicode="&#x153;" horiz-adv-x="767" d="M736 235q0 -24 -1 -33h-274q8 -80 79 -80q58 0 122 35l61 -110q-92 -58 -186 -58q-95 0 -146 73q-57 -73 -143 -73q-96 0 -155 67q-62 70 -62 196t62 196q59 65 155 65q100 0 146 -71q49 71 138 71q95 0 148 -69q56 -73 56 -209zM595 309q-7 40 -21 58q-17 19 -50 19 q-55 0 -63 -77h134zM316 252q0 121 -63 121t-63 -121q0 -123 63 -123t63 123z" />
<glyph unicode="&#x178;" horiz-adv-x="715" d="M46 670h153l160 -283l160 283h150l-241 -408v-262h-137v257zM543 788q0 -33 -23.5 -58t-55.5 -25t-56 25t-24 58q0 34 24 59t56 25t55.5 -25t23.5 -59zM331 788q0 -33 -24 -58t-55 -25q-32 0 -56 25t-24 58q0 34 24 59t56 25t55.5 -25t23.5 -59z" />
<glyph unicode="&#x2c6;" d="M402 569h-106l-74 62l-74 -62h-105l116 154h127z" />
<glyph unicode="&#x2dc;" d="M411 717q0 -65 -31.5 -107.5t-84.5 -42.5q-42 0 -80 24q-43 27 -54 27q-27 0 -33 -49h-91q0 66 31.5 108.5t84.5 42.5q42 0 79 -24q44 -28 55 -28q27 0 33 49h91z" />
<glyph unicode="&#x2013;" horiz-adv-x="444" d="M395 257h-334v172h334v-172z" />
<glyph unicode="&#x2014;" horiz-adv-x="584" d="M524 257h-463v172h463v-172z" />
<glyph unicode="&#x2018;" horiz-adv-x="288" d="M231 670l-12 -304h-182l85 304h109z" />
<glyph unicode="&#x2019;" horiz-adv-x="288" d="M252 670l-86 -304h-109l12 304h183z" />
<glyph unicode="&#x201a;" horiz-adv-x="288" d="M249 200l-85 -304h-110l13 304h182z" />
<glyph unicode="&#x201c;" horiz-adv-x="541" d="M484 670l-12 -304h-183l86 304h109zM231 670l-12 -304h-182l85 304h109z" />
<glyph unicode="&#x201d;" horiz-adv-x="541" d="M505 670l-86 -304h-109l12 304h183zM252 670l-86 -304h-109l12 304h183z" />
<glyph unicode="&#x201e;" horiz-adv-x="541" d="M502 200l-85 -304h-110l13 304h182zM249 200l-85 -304h-110l13 304h182z" />
<glyph unicode="&#x2022;" horiz-adv-x="524" d="M467 350q0 -93 -59.5 -156t-145.5 -63q-87 0 -145.5 63t-58.5 156t58.5 157t145.5 64q86 0 145.5 -64t59.5 -157z" />
<glyph unicode="&#x2026;" horiz-adv-x="839" d="M801 100q0 -47 -29 -79t-73 -32t-73 32t-29 79q0 46 28.5 77t73.5 31q44 0 73 -31t29 -77zM522 100q0 -47 -29 -79t-74 -32q-43 0 -72.5 32t-29.5 79q0 46 29 77t73 31q45 0 74 -31t29 -77zM242 100q0 -47 -29 -79t-73 -32t-73.5 32t-29.5 79q0 46 29 77t74 31 q44 0 73 -31t29 -77z" />
<glyph unicode="&#x2039;" horiz-adv-x="350" d="M313 0h-173l-113 251l113 251h173l-116 -250z" />
<glyph unicode="&#x203a;" horiz-adv-x="350" d="M323 252l-113 -252h-173l116 251l-116 251h173z" />
<glyph unicode="&#x20ac;" horiz-adv-x="517" d="M378 327l-16 -87h-115q22 -89 97 -89q82 0 153 67v-179q-59 -51 -143 -51q-135 0 -199.5 78t-79.5 174h-68l18 87h42q-1 8 -1 26q0 19 1 27h-51l18 88h41q49 246 270 246q73 0 147 -49l-34 -174q-52 60 -108 60q-73 0 -99 -83h136l-16 -88h-133q-1 -9 -1 -27v-26h141z " />
<glyph unicode="&#x2122;" horiz-adv-x="747" d="M718 295h-90v90q0 71 1 99q-24 -65 -40 -98l-46 -104l-45 104q-24 55 -41 98q2 -28 2 -99v-90h-90v375h88l42 -100q39 -89 45 -113q7 28 44 113l42 100h88v-375zM313 580h-97v-285h-97v285h-98v90h292v-90z" />
<glyph unicode="&#x25fc;" horiz-adv-x="545" d="M0 545h545v-545h-545v545z" />
</font>
</defs>
</svg>
