<?xml version="1.0" standalone="no"?>
<!DOCTYPE svg PUBLIC "-//W3C//DTD SVG 1.1//EN" "http://www.w3.org/Graphics/SVG/1.1/DTD/svg11.dtd" >
<svg xmlns="http://www.w3.org/2000/svg" xmlns:xlink="http://www.w3.org/1999/xlink" version="1.1">
<metadata></metadata>
<defs>
<font id="roadgeek_2005_series_2bRg" horiz-adv-x="375" >
<font-face units-per-em="1000" ascent="800" descent="-200" />
<missing-glyph horiz-adv-x="209" />
<glyph horiz-adv-x="0" />
<glyph horiz-adv-x="333" />
<glyph d="M332 723q-20 -154 -145 -154q-128 0 -143 154h65q16 -77 80 -77q62 0 79 77h64z" />
<glyph d="M247 631q0 -24 -17.5 -43t-42.5 -19q-24 0 -42.5 18.5t-18.5 43.5t18.5 43.5t42.5 18.5q25 0 42.5 -18.5t17.5 -43.5z" />
<glyph d="M293 677q0 -47 -30 -77.5t-76 -30.5t-76 30.5t-30 77.5t30 77.5t76 30.5t76 -30.5t30 -77.5zM239 677q0 23 -15 38t-37 15q-21 0 -36 -15t-15 -38t15 -38.5t36 -15.5q22 0 37 15.5t15 38.5z" />
<glyph unicode="&#xa;" horiz-adv-x="404" d="M397 723l-136 -154h-77l91 154h122zM219 723l-136 -154h-76l90 154h122z" />
<glyph d="M287 -144q-57 -41 -104 -41q-87 0 -87 75q0 60 81 110h47q-55 -56 -55 -96q0 -39 35 -39q24 0 62 23z" />
<glyph d="M331 723l-95 -154h-97l-96 154h73l72 -85l72 85h71z" />
<glyph unicode="&#xd;" horiz-adv-x="286" d="M89 548h110v-548h-110v548v0z" />
<glyph horiz-adv-x="429" d="M295 793h94q-48 -152 -84.5 -268t-64 -201.5t-46 -144.5t-30.5 -97q-29 -90 -33 -103h-91z" />
<glyph horiz-adv-x="620" d="M47 448v94h54v15.5t0.5 23.5t1 23t0.5 16q5 66 40 89t98 23h23.5t22.5 -2q2 -1 4.5 -1.5t2.5 -1.5v-81q-9 0 -17.5 1t-17.5 1q-6 0 -13.5 -1t-15 -4t-12.5 -8.5t-5 -14.5v-78h74v-94h-75v-448h-110v448h-55zM533 548v-548h-110v548h110zM409 688q0 32 18.5 46t49.5 14 q32 0 50 -13.5t18 -47.5q0 -30 -19.5 -45.5t-48.5 -15.5t-48.5 15.5t-19.5 46.5z" />
<glyph horiz-adv-x="637" d="M47 448v94h54v15.5t0.5 23.5t1 23t0.5 16q5 66 40 89t98 23h23.5t22.5 -2q2 -1 4.5 -1.5t2.5 -1.5v-81q-9 0 -17.5 1t-17.5 1q-6 0 -13.5 -1t-15 -4t-12.5 -8.5t-5 -14.5v-78h74v-94h-75v-448h-110v448h-55zM531 726v-610q0 -11 7 -16.5t16.5 -8t19.5 -3t17 -0.5v-91 q0 -1 -12.5 -3t-20.5 -2h-28q-19 0 -35 1t-33 6q-19 7 -30.5 30t-11.5 42v655h111z" />
<glyph horiz-adv-x="427" d="M93 670h111v-575h176v-95h-287v670v0zM279.891 671.409h102.887q-52.5381 -69.2734 -92.4893 -122.141q-39.9502 -52.8672 -70.0508 -91.834q-30.0996 -38.9658 -50.3486 -65.8555t-33.3838 -44.208q-31.7412 -41.0176 -36.1201 -46.9414h-99.6035z" />
<glyph horiz-adv-x="303" d="M197 726v-610q0 -11 7 -16.5t16.5 -8t19.5 -3t17 -0.5v-91q0 -1 -12.5 -3t-20.5 -2h-28q-19 0 -35 1t-33 6q-19 7 -30.5 30t-11.5 42v655h111zM229.785 674.361h89.1523q-45.5244 -69.8398 -80.1416 -123.139q-34.6182 -53.2988 -60.6992 -92.583 q-26.082 -39.2852 -43.6279 -66.3936q-17.5459 -27.1094 -28.9268 -44.5693q-27.5049 -41.3525 -31.2979 -47.3252h-86.3066z" />
<glyph horiz-adv-x="429" d="M47 90l218 481h-211v99h334v-90l-217 -486h219v-94h-343v90v0zM358 851l-95 -154h-97l-96 154h73l72 -85l72 85h71z" />
<glyph horiz-adv-x="390" d="M46 86l179 369h-172v92h286v-93l-174 -365h179v-89h-298v86v0zM339 723l-95 -154h-97l-96 154h73l72 -85l72 85h71z" />
<glyph unicode=" "  horiz-adv-x="209" />
<glyph unicode="&#x09;" horiz-adv-x="209" />
<glyph unicode="&#xa0;" horiz-adv-x="209" />
<glyph unicode="!" horiz-adv-x="321" d="M92 59q0 29 21 45t49 16q29 0 48 -17t19 -47q0 -29 -19.5 -46.5t-47.5 -17.5q-31 0 -50.5 17.5t-19.5 49.5zM224 671l-18 -473h-90l-17 473h125z" />
<glyph unicode="&#x22;" horiz-adv-x="419" d="M58 472l18 209h115l-67 -209h-66v0zM227 472l19 209h115l-68 -209h-66v0z" />
<glyph unicode="#" horiz-adv-x="613" d="M154 252h-87l12 81h85l14 130h-86q0 1 0.5 4t1 11t2.5 24t5 42h87l16 126h84l-12 -125h100l18 125h84l-16 -126h84l-13 -81h-79l-15 -130h83l-10 -81h-88l-16 -131h-88l17 130h-98l-15 -130h-84zM252 334h96l17 128h-101z" />
<glyph unicode="$" horiz-adv-x="473" d="M187 36q-3 0 -10 1.5t-15 3t-15 2.5t-10 2q-2 0 -10 2.5t-11 4.5q-4 2 -15 6t-13 5q-2 2 -11.5 7t-13.5 7q-3 2 -3 5v2q1 4 4.5 15.5t7.5 24t7 23.5t5 16q0 2 1 8t3 8h1q8 0 16 -8.5t13 -12.5q28 -16 51 -24.5t55 -8.5q78 0 78 76q0 27 -12 46t-35 34q-5 3 -8 6.5t-8 5.5 l-100 65l-2 2q-2 1 -7.5 6t-6.5 6l-7 7t-10.5 10t-10.5 10l-7 7q-8 24 -15.5 44.5t-7.5 46.5q0 63 30.5 103t91.5 52v74h102v-74q4 0 16.5 -2t16.5 -2q3 -1 14 -4.5t23 -8t21.5 -9t9.5 -7.5v-2l-24 -92l-1 -1q-3 0 -8.5 5t-8.5 7q-24 13 -46 19.5t-48 6.5h-22 q-23 -7 -38 -21t-15 -40q0 -30 19.5 -47t42.5 -31q0 -1 1 -1.5t1 -1.5q23 -17 48 -30t48 -30q38 -28 56 -67t18 -85q0 -64 -29.5 -110t-94.5 -60v-79h-102v77v0z" />
<glyph unicode="%" horiz-adv-x="590" d="M234 507q0 -64 -13 -102q-24 -70 -85 -70q-60 0 -83 69q-13 38 -13 103q0 67 13 104q22 67 83 67t84 -67q14 -39 14 -104zM499 678l-396 -686h-63l395 686h64zM499 163q0 -64 -13 -101q-24 -70 -85 -70t-84 69q-12 37 -12 102q0 67 12 105q22 67 84 67q61 0 84 -67 q14 -40 14 -105zM178 507q0 36 -6 61q-11 42 -36 42q-19 0 -30 -26.5t-11 -76.5q0 -38 6 -61q9 -43 35 -43q19 0 30.5 28t11.5 76zM443 163q0 37 -6 62q-11 42 -36 42q-19 0 -30 -26.5t-11 -77.5q0 -37 6 -60q9 -43 35 -43q19 0 30.5 27.5t11.5 75.5z" />
<glyph unicode="&#x26;" horiz-adv-x="564" d="M67 192q0 33 4.5 58.5t15.5 46.5t30 37t48 30q-17 6 -31 19t-23 28q-3 5 -6.5 13t-9.5 12q-9 36 -9 71q0 80 49 125t129 45q27 0 52.5 -3.5t49.5 -14.5l3 -3v-1v-1l-21 -81h-2q-5 0 -10.5 2.5t-10.5 4.5q-24 9 -50 9q-40 0 -59 -27.5t-19 -63.5q0 -17 5 -33t14 -28.5 t23 -20.5t32 -8h83v84h104v-85h66v-93h-66v-142q0 -1 -1 -7.5t-2.5 -14.5t-3.5 -16.5t-3 -12.5q-18 -69 -65 -99.5t-117 -30.5q-99 0 -149 51t-50 150zM178 206q0 -25 3.5 -47.5t13.5 -40t27.5 -27.5t45.5 -10q27 0 42.5 8t23.5 22.5t11.5 33.5t6.5 41v127h-102 q-22 0 -36 -10.5t-22 -26t-11 -34.5t-3 -36z" />
<glyph unicode="'" horiz-adv-x="268" d="M62 443l21 239h116l-63 -239h-74v0z" />
<glyph unicode="(" horiz-adv-x="282" d="M86 42q-2 10 -5.5 36.5t-7 56t-7 56t-4.5 36.5q-1 4 -2 16.5t-1 16.5v81q0 72 7 142.5t19 142.5q9 22 12 45t9 46q4 17 9 35.5t12 35.5q0 3 2 3h1h1l77 -19q2 0 2 -4v-3l-37 -211q0 -3 -1 -11t-1.5 -16.5t-1.5 -16.5t-1 -11q0 -2 -1 -7t-1 -7q0 -6 -1 -20t-1.5 -30 t-1.5 -30t-1 -20v-54v-55q0 -6 1 -20.5t1.5 -30.5t1.5 -30.5t1 -20.5q3 -13 3 -22t2 -24q1 -10 3.5 -30t5.5 -40.5t5.5 -38t3.5 -21.5q1 -6 4 -19.5t6 -29t6 -29.5t5 -19v-3q0 -4 -5 -4l-71 -19h-3q-4 0 -4 2l-41 158v7z" />
<glyph unicode=")" horiz-adv-x="290" d="M80 -106q-5 -1 -5 4v3q25 107 37.5 214t12.5 217v17.5t-0.5 26.5t-0.5 26.5v17.5q-1 10 -3.5 36t-5.5 55.5t-6 55.5t-4 36q0 1 -3 18.5t-7.5 41t-9 48.5t-7.5 40q-2 9 -2.5 8.5t-0.5 5.5v4.5t3 2.5l78 19h2h1q0 -1 1 -2.5t1 -2.5l44 -183q8 -32 9 -66t10 -66 q0 -5 1 -18.5t1.5 -29t1 -29t0.5 -18.5v-6t0.5 -12t0.5 -14v-11v-11t-0.5 -14t-0.5 -12v-6q0 -5 -0.5 -18.5t-1 -29t-1.5 -29t-1 -18.5q-1 -2 -1.5 -6t-1.5 -6q0 -4 -2.5 -21.5t-5 -38t-5 -38.5t-3.5 -22q-8 -43 -20 -93.5t-24 -92.5q-1 -2 -3 -2h-4h-8t-8 2q-3 1 -11.5 3.5 t-17.5 5t-17.5 5t-11.5 3.5z" />
<glyph unicode="*" horiz-adv-x="419" d="M93 465q9 8 16.5 16t15.5 16l10.5 10.5l12.5 12.5t10 10.5l4 4.5v2l-102 11v1v2q1 2 1.5 6t1.5 5v1q0 1 1 2q0 1 1 2q1 4 4.5 13t7 19.5t7 19.5t4.5 13h7l81 -42h1h2l1 1q0 1 0.5 1t0.5 1v2l-17 93h93l-14 -89v-9q3 2 11.5 6.5t18 9t17.5 8.5t11 6q7 4 15.5 9t16.5 5h1 l25 -72v-13l-99 -12v-2l4.5 -4.5l10.5 -10.5l12.5 -12.5t11.5 -10.5q1 -1 7 -5.5t7 -5.5q5 -4 12 -11t7 -8v-4q0 -1 -11 -8.5t-17 -12.5q-2 -2 -10.5 -7.5t-10.5 -6.5q-2 -2 -9.5 -7t-9.5 -7h-3q-5 0 -6 2l-23 47q-3 1 -5 7t-4.5 12.5t-5 12t-5.5 5.5h-1q-1 0 -1 -1 q-1 -1 -1 -2q-2 -3 -6.5 -12.5t-10 -19.5t-10 -19.5t-6.5 -12.5q-2 -6 -3.5 -12.5t-9.5 -6.5h-3l-65 46q0 1 -1 1.5t-1 1.5v1v1z" />
<glyph unicode="+" horiz-adv-x="503" d="M201 294h-148v97h148v157h102v-157h147v-97h-147v-166h-102v166v0z" />
<glyph unicode="," horiz-adv-x="268" d="M62 -116l21 239h116l-63 -239h-74v0z" />
<glyph unicode="-" horiz-adv-x="362" d="M87 441h188v-109h-188v109v0z" />
<glyph unicode="." horiz-adv-x="258" d="M66 55q0 30 17 49t47 19q31 0 46.5 -17.5t15.5 -47.5q0 -28 -15 -49t-46 -21q-30 0 -47.5 19t-17.5 48z" />
<glyph unicode="/" horiz-adv-x="429" d="M295 793h94q-48 -152 -84.5 -268t-64 -201.5t-46 -144.5t-30.5 -97q-29 -90 -33 -103h-91z" />
<glyph unicode="0" horiz-adv-x="585" d="M123 97q-2 4 -6 14t-8.5 21t-8.5 21t-5 14q-1 1 -1 2q-1 1 -1 3q-9 43 -14 86.5t-5 88.5q0 43 5 84.5t14 83.5q8 12 13.5 30.5t11.5 31.5q24 54 70.5 83t103.5 29q37 0 70 -10l2 -2q14 -8 27 -15t24 -18q30 -28 49 -63.5t29.5 -74.5t14 -79.5t3.5 -79.5q0 -40 -3.5 -85 t-15.5 -88t-33.5 -81t-57.5 -63q-25 -18 -52 -24t-58 -6q-45 0 -80 15t-65 50q-1 1 -4 5.5t-6.5 9.5t-6.5 9.5t-4 5.5l-1 1q-1 0 -1 1zM204 183q5 -7 6.5 -15.5t5.5 -16.5q11 -25 29.5 -41.5t46.5 -16.5q26 0 44 14.5t29.5 36.5t17 46.5t7.5 45.5q0 6 1 19t1.5 27.5t1 27 t0.5 17.5v17q0 27 -1 53.5t-3 54.5q-2 19 -6 40t-12.5 40t-21.5 35t-32 24q-1 0 -2 0.5t-2 0.5q-2 0 -3 1h-37q-1 0 -3.5 -0.5t-3.5 -1.5l-14 -7q-16 -9 -26.5 -25.5t-17 -36t-10 -39.5t-4.5 -36q-3 -27 -4 -52t-1 -52q0 -40 2.5 -80t11.5 -80z" />
<glyph unicode="1" horiz-adv-x="365" d="M165 517q-20 -19 -40 -41.5t-40 -43.5l-52 77l150 161h89v-670h-107v517v0z" />
<glyph unicode="2" horiz-adv-x="467" d="M47 100q1 0 1.5 2t1.5 2q3 4 11.5 14.5t18.5 22.5t18.5 22.5t11.5 15.5l2 2q2 2 3 2q2 3 9 11.5t14.5 18.5t14.5 19.5t10 13.5q18 24 40 53.5t41 62t31.5 66t12.5 63.5q0 17 -4 33.5t-12.5 29t-22 20.5t-32.5 8q-36 0 -63.5 -20t-50.5 -45h-2q-4 0 -5 2q-2 4 -8 13.5 t-13 20t-13 20.5t-8 14q-1 1 -3.5 6l-3.5 7v2v1q6 7 15 13t18 11t17 10.5t13 11.5q31 15 56.5 21.5t59.5 6.5h16q3 0 10 -1t15.5 -2.5t15.5 -2.5t10 -1q59 -26 83 -67.5t24 -104.5q0 -25 -4 -45.5t-11 -39t-16 -37t-18 -40.5l-53 -79q-3 -9 -12.5 -17.5t-15.5 -16.5 q-2 -2 -8.5 -10t-14 -17t-14 -17t-7.5 -10q-1 0 -3.5 -2.5l-3.5 -3.5q-6 -6 -15 -16.5t-17.5 -20t-14.5 -17l-6 -7.5l-5 -8h236v-94h-336q-1 0 -3 12t-4 28.5t-4 32.5l-3 24v2v1z" />
<glyph unicode="3" horiz-adv-x="460" d="M40 35q0 6 4.5 17.5t10 24.5t11.5 25t9 20h2q27 -16 55.5 -26.5t60.5 -10.5q25 0 42.5 9t28.5 24.5t15.5 36.5t4.5 44q0 28 -8 55t-34 42q-5 3 -14 6.5t-14 3.5h-74v92l67 8q6 1 15.5 5t14.5 9q20 17 26.5 34t6.5 42q0 40 -17.5 66t-61.5 26q-27 0 -53 -11.5t-47 -25.5 h-7q-8 20 -17 39.5t-17 39.5l-1 2q0 6 9.5 10t14.5 6q3 1 12 5t19 8t19 8t12 6q3 0 11.5 1t18 2.5t18 2.5t11.5 1h15q84 0 127 -46t43 -128q0 -49 -17 -85.5t-64 -59.5v-2q29 -12 47.5 -27.5t29 -35.5t14.5 -46t4 -57q0 -53 -13 -92.5t-52 -75.5q-7 -7 -17.5 -10t-15.5 -11 q-23 -8 -44 -11t-46 -3h-35q-1 0 -5.5 0.5t-9.5 1t-10 1.5t-7 2q-3 0 -9 1.5t-13 3t-12.5 3t-7.5 1.5q-2 1 -11 5t-19 8.5t-18 9t-8 6.5z" />
<glyph unicode="4" horiz-adv-x="525" d="M287 140h-216l-24 88l229 442h125v-435h70v-95h-70v-140h-114v140v0zM154 236h134v292z" />
<glyph unicode="5" horiz-adv-x="473" d="M60 38q0 3 5 17.5t12 30.5t13.5 28.5t8.5 12.5q3 0 12 -7t12 -9q37 -24 80 -24q31 0 49 13t27.5 34t12.5 46.5t3 50.5q0 21 -2.5 46t-11 46.5t-25 35.5t-44.5 14q-12 0 -24.5 -3.5t-22.5 -10.5q-13 -9 -21 -21.5t-16 -25.5q-1 0 -1 -0.5t-1 -0.5l-1 -1h-1q-1 0 -6 4 t-11 9t-11.5 10t-7.5 7l-23 23v3l39 306h272v-99h-177q0 -5 -1 -10t-3 -10l-16 -109v-11q29 23 69 23q46 0 76.5 -19.5t48.5 -50.5t25.5 -70t7.5 -78q0 -32 -2.5 -62.5t-13.5 -60.5q-6 -14 -13.5 -27.5t-12.5 -27.5q-32 -35 -68.5 -52.5t-84.5 -17.5q-41 0 -77 9.5t-69 32.5 q-5 4 -5 6z" />
<glyph unicode="6" horiz-adv-x="525" d="M142 44q-3 8 -8.5 12.5t-8.5 11.5q-17 33 -27 62t-15 58t-7 60t-2 68v34q0 7 2 23.5t4 35t3.5 35t2.5 22.5q4 25 11 48.5t17 46.5q5 14 13.5 25.5t14.5 25.5q18 19 33.5 32t32.5 21.5t37.5 12.5t47.5 4q21 0 37 -0.5t36 -6.5q3 -2 10.5 -4t15.5 -5t14.5 -6.5t6.5 -6.5v-1 q-7 -20 -13.5 -41t-14.5 -40q0 -1 -0.5 -1t-0.5 -1l-1 -1h-2h-1q-38 21 -80 21q-39 0 -62.5 -21.5t-35.5 -53t-15.5 -68.5t-3.5 -67v-5q17 32 45 48.5t64 16.5q46 0 78.5 -18t53.5 -47.5t30.5 -68t9.5 -79.5q0 -38 -7 -69t-21 -66q-7 -10 -12.5 -20.5t-13.5 -19.5 q-54 -60 -137 -60q-39 0 -70.5 13.5t-60.5 39.5zM190 219q0 -33 8 -64.5t34 -54.5q7 -5 14 -6t14 -6h28q6 5 13 5.5t14 6.5q26 21 33 54.5t7 65.5q0 20 -3 43t-12 42.5t-24.5 32.5t-40.5 13t-41.5 -13t-26 -32.5t-13.5 -43t-4 -43.5z" />
<glyph unicode="7" horiz-adv-x="447" d="M203 429q2 2 4.5 7t4.5 7q18 34 38 68t48 60h-251v99h343l1.5 -9t3 -21.5t3 -26l2.5 -22.5v-11v-12q-39 -49 -67 -95.5t-45 -108.5q-1 -1 -1 -2q-1 -1 -1 -2v-1q0 -1 -1 -3.5t-1 -3.5q-2 -5 -4.5 -17t-2.5 -13l-14 -127l-5 -195h-117q0 58 2 111.5t9 106t19 105t32 106.5 z" />
<glyph unicode="8" horiz-adv-x="550" d="M93 90q-6 14 -12.5 32t-6.5 35v79q0 16 6.5 34.5t12.5 32.5q4 3 7 8.5t7 10.5q3 3 9 10t7 8q4 3 17 12t18 11q-11 13 -24 23t-23 24q-7 9 -9.5 19.5t-8.5 19.5q-4 19 -4.5 31t-0.5 30q0 46 16.5 82.5t55.5 62.5q10 7 21 9.5t21 9.5q20 6 35.5 6.5t35.5 0.5t36 -0.5 t37 -6.5q2 -5 13.5 -7.5t18.5 -6.5q3 -2 10 -6.5t9 -5.5q1 -1 5.5 -4.5t9 -7.5l9 -8t6.5 -5q4 -9 6 -11t8 -12q11 -21 16 -43.5t5 -46.5q0 -30 -7 -60.5t-28 -53.5q-1 -1 -6 -5t-10.5 -9t-10.5 -9t-6 -5q0 -1 -1 -1t-1 -1v-2v-1l2 -2q25 -18 41 -35t25 -35.5t12.5 -41.5 t3.5 -54q0 -98 -51 -151.5t-151 -53.5q-45 0 -85 13.5t-71 46.5l-6 9t-8 13t-7 12t-4 6zM185 194q0 -47 19.5 -79t69.5 -32q51 0 69.5 31.5t18.5 79.5q0 21 -4 42t-14 37.5t-26.5 26.5t-41.5 10q-26 0 -43.5 -9.5t-28 -25.5t-15 -37t-4.5 -44zM218 421q13 -11 25.5 -17 t29.5 -6q21 0 35.5 8.5t24 22t13.5 31t4 36.5t-3 37t-11.5 32t-23 22t-36.5 8q-23 0 -38 -7.5t-23.5 -21t-12 -31t-3.5 -38.5q0 -18 2.5 -32.5t9.5 -31.5q1 -2 5 -6t2 -6z" />
<glyph unicode="9" horiz-adv-x="512" d="M103 21v2q6 20 15 43t16 41h2q24 -11 43 -17t45 -6h23q31 5 49.5 29t28.5 55.5t12.5 64.5t2.5 57v19q-8 -37 -39.5 -57t-66.5 -20q-45 0 -78 19t-54.5 50t-32 70.5t-10.5 79.5q0 44 12 85.5t36.5 73.5t61 51t85.5 19q15 0 34.5 -1t32.5 -9l42 -25q28 -32 43.5 -60.5 t26.5 -71.5q5 -20 6.5 -41t6.5 -41v-166q0 -3 -1.5 -13t-3 -22.5t-3.5 -25t-3 -18.5q-6 -31 -16.5 -60.5t-27.5 -55.5q-6 -9 -14.5 -17t-13.5 -18q-17 -12 -32 -20.5t-30.5 -14t-32.5 -7.5t-38 -2q-32 0 -65.5 4.5t-61.5 23.5v2zM168 454q0 -20 3 -42.5t11.5 -41.5t24 -31 t40.5 -12t41 12.5t25.5 31.5t13.5 41.5t4 43.5q0 17 -2 35.5t-8 36t-16.5 31.5t-27.5 23q-1 1 -3.5 1.5t-3.5 0.5h-39q-2 0 -8.5 -3t-7.5 -3q-16 -9 -25 -23.5t-14 -32t-6.5 -35.5t-1.5 -33z" />
<glyph unicode=":" horiz-adv-x="253" d="M65 59q0 67 65 67q30 0 44 -18.5t14 -46.5q0 -29 -14 -49.5t-46 -20.5q-31 0 -47 19.5t-16 48.5zM65 408q0 29 15.5 48.5t46.5 19.5t46 -19.5t15 -48.5q0 -27 -15.5 -46t-44.5 -19t-46 18.5t-17 46.5z" />
<glyph unicode=";" horiz-adv-x="268" d="M83 123h116l-63 -239h-74zM83 408q0 29 15.5 48.5t46.5 19.5t46 -19.5t15 -48.5q0 -27 -15.5 -46t-44.5 -19t-46 18.5t-17 46.5z" />
<glyph unicode="&#x3c;" horiz-adv-x="303" d="M260 86l-225 201v84l225 201v-114l-147 -128l147 -128v-116z" />
<glyph unicode="=" horiz-adv-x="505" d="M53 327h399v-93h-399v93v0zM53 515h399v-98h-399v98v0z" />
<glyph unicode="&#x3e;" horiz-adv-x="303" d="M269 287l-226 -201v115l147 127l-147 129v115l226 -201v-84z" />
<glyph unicode="?" horiz-adv-x="430" d="M122 57q0 30 15.5 48t47.5 18q29 0 44.5 -19.5t15.5 -46.5q0 -6 -1 -14t-3 -16t-5.5 -14.5t-9.5 -9.5q-5 -3 -13.5 -7.5t-9.5 -4.5h-37q-12 0 -20.5 7t-13.5 17t-7.5 21.5t-2.5 20.5zM226 392q1 0 1.5 1t1.5 1q2 4 5 6t6 6q15 19 21.5 39t6.5 44q0 19 -3.5 36.5t-12 30.5 t-23 21t-36.5 8q-20 0 -35.5 -5t-33.5 -16q-1 -1 -9.5 -8t-13.5 -11l-7 -7h-1h-1q0 1 -1 2q-2 2 -2 3q-2 5 -6 14.5l-8 19t-7 18t-4 10.5q-3 7 -4 10t-1 9q0 9 12 15l16 8q32 17 59.5 25t64.5 8q42 0 73 -13.5t52 -37.5t31 -57t10 -72q0 -37 -8.5 -70.5t-30.5 -62.5 q-8 -11 -25 -25t-34 -28.5t-29.5 -27.5t-12.5 -21v-84h-102v20t0.5 30t0.5 30v20q0 12 3 29.5t13 25.5q2 2 10.5 8.5t10.5 8.5l2 2z" />
<glyph unicode="@" horiz-adv-x="710" d="M220 13q0 1 -5 4t-11 6.5l-12 7t-9 5.5q-33 28 -54.5 61.5t-33.5 71t-16.5 78t-4.5 83.5q0 70 20.5 135.5t60 115t98 79.5t134.5 30q83 0 139 -38t88 -113q2 -14 7 -28t7 -28q5 -21 6.5 -42.5t1.5 -43.5q0 -34 -6.5 -76t-23 -78.5t-45 -61.5t-72.5 -25q-26 0 -46.5 13.5 t-25.5 40.5h-1h-1q-1 -1 -2.5 -3.5t-2.5 -3.5q-16 -22 -36.5 -34.5t-47.5 -12.5q-32 0 -52.5 14.5t-32.5 37t-16.5 50.5t-4.5 55q0 33 7 70t23 68.5t43 52.5t67 21q23 0 39.5 -9t27.5 -30q2 6 3 14t1 14l3 2h66l-25 -250v-16q0 -14 4 -23.5t20 -9.5q20 0 34 17t23 40 t13 46.5t4 37.5v42q0 33 -3.5 65t-17.5 63q-5 11 -13 21.5t-13 22.5q-26 32 -61.5 47t-77.5 15q-65 0 -112 -27t-77.5 -71t-45.5 -99.5t-15 -113.5q0 -53 10.5 -103t35 -89t65 -62.5t99.5 -23.5q45 0 84.5 17.5t71.5 47.5h5l4 -6q4 -6 5 -8t6 -11.5t6 -11.5l2 -2v-16 q0 -1 -10.5 -8.5l-17.5 -12.5q-35 -26 -77.5 -34t-84.5 -8q-32 0 -61.5 4.5t-59.5 16.5zM294 308q0 -14 1 -28.5t5.5 -26.5t14.5 -19.5t27 -7.5h15q26 11 34.5 33t12.5 48q0 4 1 13.5t2 20t2 19.5t1 12q0 2 0.5 11.5t0.5 14.5q0 3 -0.5 13t-0.5 12q-6 17 -16 26t-29 9 q-17 0 -27.5 -7t-19.5 -21q0 -1 -1 -1q-1 -1 -2 -1q-11 -29 -16 -58.5t-5 -61.5z" />
<glyph unicode="A" horiz-adv-x="552" d="M203 668h144q0 -2 -0.5 0t0.5 0l171 -668h-122l-40 155h-165l-36 -155h-119q0 3 -1 0.5t1 -0.5zM210 257h130l-66 297z" />
<glyph unicode="B" horiz-adv-x="553" d="M93 663q6 1 13 2t13 3q5 0 19 1t29.5 1.5t29.5 1t19 0.5h6.5t12.5 0.5t14 0.5h11q23 0 40.5 -0.5t40.5 -4.5q13 -2 26.5 -8.5t24.5 -12.5q45 -26 62 -66t17 -88v-34q-5 -35 -23 -65t-53 -44v-2q27 -8 46 -24.5t30 -38.5t16 -48t5 -52v-30.5t-5 -31.5q0 -1 -1 -2.5 t-1 -2.5q-8 -24 -17 -41.5t-21.5 -30.5t-30 -22.5t-42.5 -16.5q-6 -2 -16.5 -4.5t-11.5 -2.5h-253v663v0zM207 90q3 -1 6 -1q3 -1 10 -1h37q33 0 55 3t35.5 14t19.5 31t6 55q0 61 -24.5 84.5t-83.5 23.5h-29t-32 -2v-207zM207 387q2 -1 5 -1q2 -1 4.5 -1h4.5h29 q27 0 47.5 3.5t34 14t20 29t6.5 48.5q0 47 -20 74.5t-71 27.5h-11q-3 0 -10 -1t-15 -1.5t-14.5 -1.5t-9.5 -1v-190z" />
<glyph unicode="C" horiz-adv-x="533" d="M103 135l-4 14q-2 5 -4 11t-3 10q-11 38 -15 80t-4 82q0 6 1.5 23.5t3.5 40t5.5 46.5t7.5 44t8 32.5t9 12.5q14 35 34.5 60.5t46.5 50.5q13 6 25 13.5t24 12.5l2 2q1 1 16 3.5t24 3.5q11 2 18.5 2.5t18.5 0.5q16 0 34 -2.5t33 -7.5q21 -8 40.5 -21.5t35.5 -29.5 q7 -6 17.5 -16.5t10.5 -11.5v-4q-19 -17 -33.5 -37t-33.5 -37l-1 -1l-1 1q0 1 -1 1q-2 0 -2 1q-21 24 -44 45.5t-58 21.5q-43 0 -67 -28.5t-36 -68.5t-15 -82t-3 -70q0 -30 3 -72t16 -80.5t37.5 -65.5t68.5 -27q32 0 57 14q5 3 14 12l19 19t18 17.5t10 7.5h4q2 -4 10 -15.5 t10 -14.5q3 -4 8.5 -10t11 -13t9.5 -14t4 -11v-1q0 -1 -1 -2.5t-1 -2.5q-40 -41 -82 -62t-101 -21q-76 0 -123 35.5t-77 103.5z" />
<glyph unicode="D" horiz-adv-x="584" d="M118 668q1 0 11.5 0.5t25 1.5t28.5 1.5t23 0.5h6.5t12.5 0.5t14 0.5h11h39.5t38.5 -5q14 -9 30.5 -14.5t30.5 -13.5q25 -15 44 -37.5t32 -48.5q6 -12 11 -26.5t12 -26.5q11 -43 16.5 -84t5.5 -85q0 -54 -9 -104.5t-29 -99.5q-5 -12 -12.5 -22.5t-12.5 -22.5l-42 -41 q-13 -6 -24 -13.5t-25 -12.5q-6 -2 -16 -4.5t-19.5 -5t-16.5 -4.5t-8 -2h-202v663zM262 582q-11 0 -18.5 -0.5t-21.5 -1.5q-2 -1 -5 -1t-5 -1q-3 -1 -6 -1v-486q25 0 47 0.5t45 5.5q33 8 51.5 37t28 66t11.5 75t2 63q0 34 -3.5 76t-16 79.5t-38.5 63t-71 25.5z" />
<glyph unicode="E" horiz-adv-x="452" d="M93 670h299v-96h-185v-174h167v-100h-167v-204h192v-96h-306v670v0z" />
<glyph unicode="F" horiz-adv-x="431" d="M93 670h292v-96h-178v-176h162v-100h-163v-298h-113v670v0z" />
<glyph unicode="G" horiz-adv-x="589" d="M74 336q0 60 11 121t39 110.5t74 81t117 31.5q53 0 92 -19t76 -55q0 -1 0.5 -2t0.5 -2q0 -4 -3.5 -9.5t-6.5 -7.5l-46 -60q-1 -1 -2.5 -1.5t-2.5 -1.5h-1q-3 0 -10 6t-15 14.5t-16.5 16.5t-15.5 12q-13 8 -26.5 10t-27.5 2q-32 0 -54.5 -19t-36.5 -47t-20 -60t-6 -58 v-129q0 -28 5.5 -60.5t19 -60.5t36.5 -46.5t57 -18.5q38 0 57 19t26 47.5t6.5 61t-0.5 59.5h-82v94h195q0 -41 -0.5 -85t-5 -86t-16.5 -79t-35 -65t-59.5 -44.5t-90.5 -16.5q-70 0 -115 33t-71.5 83.5t-36.5 112t-10 118.5z" />
<glyph unicode="H" horiz-adv-x="583" d="M93 670h113v-260h174v260h110v-670h-110v301h-174v-301h-113v670v0z" />
<glyph unicode="I" horiz-adv-x="289" d="M90 670h109v-670h-109v670v0z" />
<glyph unicode="J" horiz-adv-x="407" d="M34 28l35 80q0 1 1 1.5t1 1.5h2q3 0 8.5 -3t12 -6.5t12.5 -7t10 -4.5l4 -2q1 -1 3 -1h42q7 0 13.5 6t11 14t7 17t2.5 14v533h113v-547q0 -45 -26.5 -81.5t-69.5 -48.5q-3 -2 -10 -3.5t-8 -1.5h-79q-2 0 -8.5 1.5t-14 3t-14.5 3.5t-11 4q-1 0 -12.5 6t-17.5 10 q-5 2 -6 2.5t-1 5.5v3z" />
<glyph unicode="K" horiz-adv-x="534" d="M207 670v-291l153 291h130l-165 -298l182 -372h-133q-24 51 -42.5 89.5t-32.5 67.5t-23.5 48.5t-15.5 32.5q-15 30 -17 35l-36 -60v-213h-114v670h114z" />
<glyph unicode="L" horiz-adv-x="427" d="M93 670h111v-575h176v-95h-287v670v0z" />
<glyph unicode="M" horiz-adv-x="670" d="M94 670h113l128 -261l129 261h112v-670h-109v450l-131 -257l-133 255v-448h-109v670v0z" />
<glyph unicode="N" horiz-adv-x="618" d="M93 668h112l212 -422v422h108v-668h-106l-218 424v-424h-108v668v0z" />
<glyph unicode="O" horiz-adv-x="633" d="M78 230q0 4 -1 13t-1.5 19.5t-1.5 19.5t-1 13v40v41q0 4 1 13t1.5 19.5t1.5 19.5t1 13q9 21 13 44.5t12 45.5q26 72 82.5 110.5t131.5 38.5q72 0 118.5 -31t74.5 -80.5t39 -111t11 -122.5q0 -35 -3.5 -75.5t-14 -80t-28.5 -75.5t-47 -60q-15 -13 -29.5 -21.5t-32.5 -17.5 q-1 0 -1 -1t-1 -1q-5 -2 -19 -5.5t-19 -4.5q-2 0 -6.5 -1t-6.5 -1h-35q-20 0 -36.5 1t-35.5 6q-32 9 -57.5 27t-44.5 43t-32 54t-21 59q-1 1 -2.5 7.5t-3 13.5t-3 13t-1.5 8q0 1 -1 3.5t-1 3.5zM189 335q0 -26 1.5 -60.5t8 -68t21 -62.5t41.5 -44q6 -4 14.5 -8t15.5 -4h54 q4 0 14 5t13 7q25 15 39.5 45.5t21 65.5t8 69.5t1.5 57.5q0 32 -2.5 74.5t-15 81t-38 65t-71.5 26.5q-45 0 -70.5 -27.5t-37.5 -66.5t-15 -82t-3 -74z" />
<glyph unicode="P" horiz-adv-x="528" d="M118 668q1 0 12.5 0.5t26.5 1.5t31 1.5t25 0.5q2 0 16.5 0.5t21.5 0.5q42 0 85 -6.5t76 -35.5q8 -8 17 -20.5t18 -19.5q14 -34 21 -66.5t7 -70.5q0 -27 -3.5 -53.5t-12.5 -50.5t-24 -45t-39 -36q-11 -7 -22.5 -9.5t-21.5 -9.5q-3 0 -10.5 -1t-15.5 -2.5t-15 -2.5t-10 -1 q-6 0 -19.5 -0.5t-29 -1t-29 -0.5h-19.5v-241h-110v663zM247 580q-5 0 -11.5 -1t-13.5 -1.5t-11.5 -1.5l-4.5 -1v-240h15t24 0.5t24 0.5h15q26 1 41 12.5t22.5 28.5t9.5 38t2 41q0 27 -3 49.5t-12 39t-27 26t-48 9.5h-22z" />
<glyph unicode="Q" horiz-adv-x="638" d="M290 -9q-23 0 -47 9.5t-43 20.5q-41 23 -65.5 59t-38 79t-18 88.5t-4.5 87.5q0 62 10.5 124t38 111t75 79.5t121.5 30.5q46 0 81.5 -13.5t70.5 -42.5q10 -9 17 -20.5t18 -19.5q32 -59 45 -120.5t13 -128.5q0 -51 -6.5 -107t-31.5 -103q-8 -15 -16.5 -30t-20.5 -28l-6 -6 t-7 -8q-4 -4 -8 -9v-2q20 -14 36 -28.5t39 -22.5v-3l-9 -27q-4 -11 -8.5 -22.5t-6.5 -19.5l-3 -10.5t-8 -3.5q-27 0 -50.5 16t-42.5 33q-5 3 -11 8.5t-12 10.5q-7 6 -14 13l-14 5h-74zM193 276q2 -22 4.5 -45t8.5 -44.5t16.5 -41.5t28.5 -36q8 -8 19 -14.5t22 -6.5h54 q14 0 26.5 10t21.5 20q19 21 29.5 48t15.5 56.5t5.5 59t0.5 55.5q0 32 -3 75t-15.5 81.5t-38 65t-71.5 26.5q-40 0 -64 -23t-40 -57v-2q-14 -42 -17.5 -83t-3.5 -85v-11.5v-18t0.5 -18t0.5 -11.5z" />
<glyph unicode="R" horiz-adv-x="579" d="M113 670l17 1t40 2t48 2t41 2h8q54 0 99 -15.5t83 -54.5q4 -9 9.5 -17t9.5 -17q9 -23 11.5 -45.5t2.5 -47.5q0 -31 -3.5 -55.5t-13.5 -45t-26.5 -38t-42.5 -33.5l-1 -1q3 -7 7 -12q3 -5 5 -9t3 -5q2 -5 5 -15.5t4 -12.5q1 -6 5 -21t8.5 -31.5t8.5 -31.5t6 -21 q2 -3 3 -9.5t1 -8.5l34 -130h-117l-2 2q-1 4 -4 15t-6 23.5t-5.5 23t-3.5 15.5q0 1 -1 3.5t-1 3.5l-37 153q-1 3 -2.5 8t-3.5 10t-5.5 8.5t-7.5 3.5h-82v-269h-113v665zM267 584q-14 0 -21.5 -0.5t-23.5 -1.5q-2 -1 -9 -1q-3 0 -5 -1v-216h95q2 0 4 1q2 0 3 0.5t2 0.5 q2 1 4.5 1.5t2.5 1.5q32 13 40.5 42t8.5 61q0 53 -23.5 82.5t-77.5 29.5z" />
<glyph unicode="S" horiz-adv-x="469" d="M66 127q0 4 1.5 10t7.5 6t11 -5.5t10 -8.5q29 -19 56 -31.5t62 -12.5q42 0 68.5 25.5t26.5 68.5q0 33 -16 57t-40 42t-52 32t-52 28l-4 4q-23 18 -39.5 34t-27 34t-15 40t-4.5 53q0 36 9 71q3 9 10 19t13 18q26 37 65.5 53.5t84.5 16.5q67 0 129 -33q5 -2 14 -7.5t9 -6.5 v-9l-23 -81q-1 -1 -1.5 -2.5t-1.5 -2.5h-1h-1q-4 3 -15.5 11t-14.5 10q-12 8 -28 17t-30 9h-51q-15 0 -26 -8t-19 -19.5t-12 -25.5t-4 -26q0 -27 15.5 -45t36.5 -32q6 -3 20 -11t30.5 -17.5t31 -17.5t20.5 -11q12 -8 25.5 -18.5t22.5 -21.5q4 -5 12 -15.5t9 -12.5t6 -11.5 t6 -11.5l2 -2q14 -41 14 -84q0 -98 -47.5 -152t-150.5 -54q-44 0 -82.5 11t-76.5 31q-2 1 -5.5 3t-6.5 4q-4 2 -7 4v12z" />
<glyph unicode="T" horiz-adv-x="430" d="M158 574h-124v96h362v-96h-122v-574h-116v574v0z" />
<glyph unicode="U" horiz-adv-x="592" d="M110 113q-7 32 -12 63.5t-5 64.5v429h113v-459q0 -1 1 -7.5t2.5 -15t2.5 -17t2 -14.5q5 -34 28 -51.5t55 -17.5t53 16.5t28 48.5q1 4 2.5 11l3 14t2.5 12.5t1 6.5v473h112v-450q0 -38 -9 -78.5t-26 -74.5q-4 -8 -10 -15t-11 -15q-31 -29 -68 -39t-79 -10q-24 0 -48 3.5 t-46 12t-40.5 23.5t-31.5 38q-6 11 -9.5 24t-10.5 24z" />
<glyph unicode="V" horiz-adv-x="527" d="M34 670h122l107 -567l108 567h122l-158 -670h-147z" />
<glyph unicode="W" horiz-adv-x="774" d="M47 670h119l65 -516l108 516h97l111 -525l63 525h117l-111 -670h-132l-98 434l-93 -434h-136z" />
<glyph unicode="X" horiz-adv-x="488" d="M172 346l-135 324h126l89 -236l86 236h121l-138 -330l147 -335v-5h-121l-100 248l-103 -248h-124z" />
<glyph unicode="Y" horiz-adv-x="483" d="M187 248q-43 105 -83.5 209t-83.5 213h122l103 -308l102 308h116q-7 -19 -18.5 -50.5t-26.5 -69.5t-31.5 -80t-32 -81.5t-29.5 -73.5t-23 -56v-259h-115v248v0z" />
<glyph unicode="Z" horiz-adv-x="437" d="M47 90l218 481h-211v99h334v-90l-217 -486h219v-94h-343v90v0z" />
<glyph unicode="[" horiz-adv-x="304" d="M257 -96h-187v766h187v-78h-100v-609h100v-79z" />
<glyph unicode="\" horiz-adv-x="429" d="M388 -21h-91q-5 13 -33 103q-12 38 -31 97t-46 144.5t-63.5 201.5t-84.5 268h94z" />
<glyph unicode="]" horiz-adv-x="304" d="M234 -96h-186v76h99v614h-99v76h186v-766z" />
<glyph unicode="^" horiz-adv-x="416" d="M388 366h-101l-80 193l-81 -193h-98l142 304h75z" />
<glyph unicode="_" horiz-adv-x="328" d="M328 -163h-328v85h328v-85z" />
<glyph unicode="`" d="M278 569h-77l-135 154h126z" />
<glyph unicode="a" horiz-adv-x="533" d="M67 151q0 29 5 52t19 49q4 3 4 10q24 28 50.5 45.5t55.5 28t62 15t69 6.5v30q0 11 -0.5 24.5t-4.5 25.5t-12 20.5t-23 10.5h-24q-31 0 -58 -7t-55 -19q-3 -1 -8.5 -3.5t-11 -5.5t-10.5 -5t-6 -2h-1l-21 67q-2 3 -2 6.5v6.5v8q2 1 7 2.5t7 2.5q44 17 84 27t88 10 q62 0 101 -22t56 -85q1 -1 1.5 -5t1.5 -6q0 -5 1 -12l2 -14t1.5 -12.5l0.5 -5.5v-320q0 -8 7.5 -16t12.5 -12v-2q0 -5 -5 -7q-2 -2 -8 -6.5t-13.5 -10t-14 -10.5t-8.5 -6q-4 -3 -9.5 -7.5t-10.5 -4.5q-22 0 -38 19.5t-18 39.5q-30 -32 -62.5 -47.5t-76.5 -15.5q-37 0 -63 13 t-42 35t-23 52t-7 63zM176 157q0 -17 2.5 -33t9 -29t19 -20.5t32.5 -7.5q34 0 53 15t40 38v161q-32 0 -60.5 -6t-49.5 -20.5t-33.5 -38t-12.5 -59.5z" />
<glyph unicode="b" horiz-adv-x="542" d="M189 55q0 -2 -1 -11t-1 -12q-1 -7 -2.5 -18.5t-2.5 -11.5l-2 -2h-93v725h110v-220q1 0 2 1t2 1q13 14 23 23.5t21 15t24.5 8t33.5 2.5q55 0 89 -27.5t52.5 -69t24.5 -91t6 -93.5q0 -42 -6 -92.5t-24.5 -93.5t-52 -72t-88.5 -29q-22 0 -37.5 4.5t-28.5 13t-23.5 21.5 t-22.5 31zM199 183q4 -18 8 -37.5t11.5 -35t21.5 -26t37 -10.5q31 0 48.5 24t25 56t9 65.5t1.5 52.5q0 22 -0.5 56t-7.5 65.5t-24.5 54t-51.5 22.5q-37 0 -57.5 -28.5t-20.5 -64.5v-194v0z" />
<glyph unicode="c" horiz-adv-x="460" d="M67 276q0 48 7 94t30 89q2 1 6.5 6.5t9 12.5t9.5 14t8 11q29 29 63 41t75 12t73 -10.5t67 -31.5v-1q0 -4 -5.5 -18t-12 -29t-13 -26.5t-8.5 -11.5h-3q-20 17 -40 28.5t-48 11.5q-36 0 -57 -20t-31.5 -49.5t-13 -62.5t-2.5 -59q0 -27 3 -61.5t13.5 -65t31.5 -51.5t57 -21 q16 0 31 3t29 11q4 3 7.5 6t8.5 6q2 2 6 5t8 5q4 3 9 6h2q1 -3 3 -6q2 -6 4 -10q1 -3 5.5 -12.5t9 -20.5t8 -21t3.5 -14v-2q-1 0 -1.5 -1t-1.5 -1q-66 -44 -146 -44q-24 0 -43 2.5t-42 11.5q-2 1 -9 5.5t-10 6.5q-31 22 -50.5 52.5t-30.5 65t-15 71.5t-4 73z" />
<glyph unicode="d" horiz-adv-x="548" d="M174 0q-1 0 -1.5 1t-1.5 1q-33 23 -53 54.5t-31.5 67t-15 74.5t-3.5 77q0 45 6.5 94.5t25.5 91.5t53.5 69t90.5 27q33 0 57.5 -12.5t45.5 -38.5v221h113v-727h-100l-5 58l-2 -2q-23 -33 -48 -51.5t-65 -18.5q-18 0 -33.5 3.5t-32.5 10.5zM183 277q0 -20 1 -54t9 -67 t24.5 -57.5t48.5 -24.5q19 0 33.5 8.5t25 22t16 31t5.5 34.5v217q0 33 -22.5 57.5t-55.5 24.5t-50.5 -21.5t-25 -52t-8.5 -63.5t-1 -55z" />
<glyph unicode="e" horiz-adv-x="535" d="M159 23q-37 32 -54 68t-31 81q-2 25 -4.5 51t-2.5 52q0 34 3.5 69t14 68t28 62.5t46.5 52.5q16 7 29.5 13t26.5 10.5t27.5 6.5t34.5 2q60 0 97.5 -24t58.5 -63t28 -88.5t7 -100.5v-32l-2 -13h-281v-9t-0.5 -13.5t-0.5 -13.5v-9q1 -23 8.5 -43.5t21 -36.5t32 -25.5 t41.5 -9.5q32 0 61 11.5t55 29.5h1q3 0 5.5 -4.5t4.5 -10t3.5 -11t1.5 -7.5q3 -13 10 -30q4 -9 7 -19v-3q0 -3 -9 -8t-20 -9.5t-21 -8.5t-11 -6q-23 -6 -46 -10t-47 -4q-42 0 -84 14q-11 4 -20 10t-19 11zM277 473q-31 0 -50 -15t-29 -38t-13.5 -50.5t-3.5 -52.5h183 q0 22 -2.5 49.5t-11.5 51t-26 39.5t-47 16z" />
<glyph unicode="f" horiz-adv-x="334" d="M47 448v94h54v15.5t0.5 23.5t1 23t0.5 16q5 66 40 89t98 23h23.5t22.5 -2q2 -1 4.5 -1.5t2.5 -1.5v-81q-9 0 -17.5 1t-17.5 1q-6 0 -13.5 -1t-15 -4t-12.5 -8.5t-5 -14.5v-78h74v-94h-75v-448h-110v448h-55z" />
<glyph unicode="g" horiz-adv-x="548" d="M100 -174q0 11 4 18.5t7 17.5q1 1 3.5 8.5t5 15.5t5 15.5t3.5 9.5q1 5 1.5 5h4.5q6 0 14 -5t13 -7q29 -11 54 -17t55 -6q40 0 60 17t20 60v105q-5 -5 -11 -13t-9 -11q-18 -22 -41.5 -27.5t-49.5 -5.5q-56 0 -89.5 25.5t-52 65t-24.5 87t-6 92.5t6 94.5t25 91t54 68.5 t92 27q32 0 53 -11t44 -34q0 -1 4 -5.5t5 -5.5q0 -1 1 -1.5t1 -1.5q2 4 3.5 12.5t2 16.5t1.5 14t2 6h100v-587q0 -91 -46.5 -133t-134.5 -42q-24 0 -48.5 2t-47.5 7q-19 5 -39.5 12t-40.5 14l-4 2v4zM184 279q0 -21 1.5 -52.5t10 -61.5t25.5 -51t48 -21q24 0 39.5 12 t24.5 30.5t13 40t4 40.5v147q0 18 -5 37t-15 34.5t-25 25t-36 9.5q-32 0 -49 -21.5t-25 -51.5t-9.5 -62.5t-1.5 -54.5z" />
<glyph unicode="h" horiz-adv-x="547" d="M198 727v-219q23 29 52.5 40.5t65.5 11.5q35 0 66 -12t50 -44q5 -8 8.5 -17.5t8.5 -17.5q0 -3 1.5 -12t3 -19.5t3 -19.5t1.5 -13q1 -4 1.5 -13.5t0.5 -11.5v-380h-111v382q0 32 -18 57.5t-52 25.5q-20 0 -35 -8.5t-25 -23t-15.5 -32t-5.5 -35.5v-366h-111v727h111z" />
<glyph unicode="i" horiz-adv-x="286" d="M199 548v-548h-110v548h110zM75 688q0 32 18.5 46t49.5 14q32 0 50 -13.5t18 -47.5q0 -30 -19.5 -45.5t-48.5 -15.5t-48.5 15.5t-19.5 46.5z" />
<glyph unicode="j" horiz-adv-x="323" d="M20 -115h31t34 4.5t27 15t11 30.5l5 613h109v-567q0 -44 -7.5 -79.5t-26 -60.5t-50 -39t-78.5 -14q-14 0 -26 1.5t-29 3.5v92zM114 688q0 32 18 46t49 14q30 0 49 -13t19 -47q0 -32 -20.5 -46.5t-49.5 -14.5t-47 16t-18 45z" />
<glyph unicode="k" horiz-adv-x="486" d="M88 727h113v-424l132 245h122l-129 -235l133 -313h-122l-92 228l-46 -74v-154h-111v727v0z" />
<glyph unicode="l" horiz-adv-x="303" d="M197 726v-610q0 -11 7 -16.5t16.5 -8t19.5 -3t17 -0.5v-91q0 -1 -12.5 -3t-20.5 -2h-28q-19 0 -35 1t-33 6q-19 7 -30.5 30t-11.5 42v655h111z" />
<glyph unicode="m" horiz-adv-x="802" d="M191 548l5 -47h1h1q1 2 2 3.5t1 2.5q32 43 84 53q3 0 14 0.5t14 0.5q25 0 51 -5.5t44 -25.5q3 -4 10 -12.5t8 -10.5q2 -5 2.5 -9t4.5 -6q2 1 5 5t6.5 9t6 10l3.5 7q26 22 52 29.5t60 7.5q39 0 67 -13.5t46 -36.5t26.5 -55t8.5 -68v-387h-111v375q0 16 -3.5 32.5t-11.5 30 t-21 21.5t-31 8q-26 0 -45 -17t-25 -43l-5.5 -22t-3.5 -15v-370h-111l-4 403q-1 28 -18.5 46t-44.5 18q-17 0 -31 -7.5t-24 -19.5t-16 -28t-6 -32v-380h-114v548h103z" />
<glyph unicode="n" horiz-adv-x="556" d="M188 548l8 -49q1 2 3.5 6.5t3.5 5.5q26 29 51.5 39t63.5 10q74 0 105.5 -37.5t39.5 -109.5q1 -5 1.5 -15t1.5 -21t1.5 -20t0.5 -12v-345h-116v393q0 2 -3 14t-5 18q-6 20 -23 29.5t-37 9.5q-22 0 -38 -9t-26.5 -23.5t-15.5 -33.5t-5 -39v-359h-111v548h100z" />
<glyph unicode="o" horiz-adv-x="557" d="M194 2q-2 2 -8 5.5t-13.5 8l-15 9t-10.5 7.5q-25 23 -40.5 51.5t-24.5 60.5t-12 65.5t-3 65.5q0 53 8 103.5t34 96.5q8 6 14.5 16.5t12.5 17.5q28 30 65.5 41.5t77.5 11.5q46 0 76.5 -13t65.5 -40q4 -11 12.5 -19t13.5 -17q23 -46 33 -95.5t10 -101.5t-10 -103.5 t-34.5 -92.5t-65.5 -66.5t-102 -25.5q-23 0 -42 3.5t-42 10.5zM182 278q0 -26 1.5 -59.5t10 -64t28 -51.5t55.5 -21q30 0 48.5 15.5t29.5 43.5q4 8 5 16t5 16q0 3 1 12t2.5 18.5t2.5 18.5t1 12v39q0 25 -1 59.5t-10 65t-28.5 52t-56.5 21.5q-35 0 -54 -21t-28 -51t-10.5 -63 t-1.5 -58z" />
<glyph unicode="p" horiz-adv-x="568" d="M189 547l7 -40h2q22 29 49 40.5t60 11.5q25 0 41.5 -5t37.5 -16q0 -1 3 -3t4 -2q0 -1 2 -1q1 0 2 -1l27 -26q5 -14 13.5 -27t14.5 -27q17 -44 22.5 -88t5.5 -92q0 -41 -7 -91t-26 -93.5t-53 -73t-87 -29.5q-30 0 -53 9t-44 32q-2 2 -4.5 6t-6.5 5v-246h-111v757h101z M278 472q-24 0 -40.5 -12.5t-27.5 -34.5q-2 -5 -5.5 -13.5t-3.5 -14.5v-239q0 -16 6.5 -31t17 -27t24.5 -19t30 -7q23 0 38 12.5t24.5 32t14.5 43.5t7 48t2 45.5v34.5q0 21 -1.5 52.5t-9.5 60t-25.5 49t-50.5 20.5z" />
<glyph unicode="q" horiz-adv-x="544" d="M345 41q-3 -1 -5 -7q-13 -14 -23.5 -22.5t-22 -14t-25 -7.5t-31.5 -2q-54 0 -88 29.5t-52.5 73.5t-25 94t-6.5 92q0 56 10 112t39 104l5 5q23 31 51 44.5t66 13.5q19 0 35 -2.5t33 -11.5q4 -2 10.5 -8t13 -12.5l11.5 -11.5t7 -5h2l7 42h103v-647q0 -17 10.5 -30t21.5 -23 v-3l-70 -67h-3q-9 0 -18 7q-30 25 -41 57t-12 70q0 7 -0.5 26t-1 39.5t-0.5 39v25.5zM182 217q1 -19 5.5 -43t14 -45.5t25 -36t40.5 -14.5q28 0 46 18.5t25 44.5q2 11 3 20t4 19v200q0 17 -5.5 33t-15.5 29t-24.5 20.5t-32.5 7.5q-26 0 -42.5 -13.5t-25.5 -34t-13 -44.5 t-4 -45v-58v-58v0zM349 500q1 2 -1 2t-1 -2q0 -1 1 -1t1 1z" />
<glyph unicode="r" d="M189 547l5 -53h2q8 14 18 24.5t22 21.5q7 7 19.5 11.5t21.5 4.5q3 0 10.5 0.5t15.5 1t15 0.5h10v-104q-16 0 -35 -1.5t-37 -7t-31.5 -16.5t-18.5 -30q-2 -8 -5.5 -20t-3.5 -13v-366h-110v547h102z" />
<glyph unicode="s" horiz-adv-x="453" d="M47 40q0 8 4.5 16t7.5 16q1 3 3.5 9t5 12.5t5 11.5t2.5 7l7 14h2q29 -21 63.5 -36t71.5 -15q32 0 53 19t21 51q0 21 -14 38t-33.5 30t-40.5 23t-35 17q-15 8 -33.5 21.5t-34.5 30.5t-27 36.5t-11 39.5v58q0 21 10 39.5t25.5 33.5t35 25.5t38.5 14.5q20 5 33 5h35h38 q3 0 16.5 -1.5t18.5 -3.5q1 0 6 -1t11 -2.5t11.5 -3t8.5 -2.5t9 -2.5t11.5 -4t10 -5.5t4.5 -6v-3l-19 -79l-1 -1q0 -1 -1 -1h-1h-1q-28 15 -55 22.5t-59 7.5q-31 0 -55 -12.5t-24 -46.5q0 -26 19.5 -43t40.5 -28q5 -2 17 -8l25 -12.5l25 -12.5t17 -8q32 -18 56.5 -48 t29.5 -68v-30q0 -45 -13 -76.5t-37 -51t-58.5 -28.5t-76.5 -9q-43 0 -82 10t-76 32q-3 2 -6.5 3.5t-3.5 5.5z" />
<glyph unicode="t" horiz-adv-x="326" d="M33 451v93h59v147h107v-147h80v-93h-79v-319q0 -17 8 -25t19.5 -11.5t25.5 -4t26 -1.5v-88q-3 -1 -7 -1q-3 -1 -6 -1h-5h-45q-18 0 -31.5 -0.5t-30.5 2.5q-20 4 -32.5 16.5t-20 29t-10.5 35.5t-3 35v333h-55z" />
<glyph unicode="u" horiz-adv-x="543" d="M200 547v-397q0 -1 3 -12t5 -16q8 -20 21.5 -28.5t34.5 -8.5q33 0 49 14.5t25 46.5q0 1 1 3q0 2 0.5 2.5t0.5 1.5q2 5 4 15.5t2 11.5v367h110v-547h-100q-1 2 -1 4q-1 2 -1 7q-2 11 -2 20.5t-3 19.5q-21 -35 -54.5 -49t-72.5 -14q-54 0 -85 22.5t-43 79.5q0 2 -2 13.5 t-2 16.5q-1 5 -2 14.5t-1 11.5v401h113z" />
<glyph unicode="v" horiz-adv-x="475" d="M34 548h117l87 -459l2 -2l86 461h115l-127 -548h-149z" />
<glyph unicode="w" horiz-adv-x="737" d="M41 548h113l61 -431l97 431h111l99 -429l61 429h113l-101 -548h-136l-91 387l-92 -387h-136z" />
<glyph unicode="x" horiz-adv-x="446" d="M149 286l-115 262h117l75 -196l76 196h113l-118 -258l129 -290h-120l-87 215l-84 -215h-115z" />
<glyph unicode="y" horiz-adv-x="475" d="M67 -122h10.5t16.5 0.5t16.5 0.5h10.5q16 1 26 11.5t16 25t9.5 30t5.5 27.5v3v4q0 2 -1 7t-2 7l-141 553h116l88 -417l2 2l85 415h116l-124 -490v-16q-2 -5 -5.5 -18.5t-8 -28.5t-8.5 -28.5t-5 -18.5q-10 -36 -21.5 -66t-30 -52t-45.5 -34t-69 -12h-25.5t-24.5 2 q-2 1 -4.5 1.5t-2.5 1.5v90v0z" />
<glyph unicode="z" horiz-adv-x="390" d="M46 86l179 369h-172v92h286v-93l-174 -365h179v-89h-298v86v0z" />
<glyph unicode="{" horiz-adv-x="323" d="M289 -105q-108 0 -151 50q-38 45 -38 152v65q0 85 -47 85h-24v80h24q47 0 47 86v66q0 106 38 151q43 51 151 51v-67q-60 -7 -80 -37q-18 -25 -18 -88v-53q0 -68 -16.5 -101t-58.5 -48q42 -15 58.5 -48t16.5 -101v-52q0 -63 18 -88q20 -30 80 -36v-67z" />
<glyph unicode="|" horiz-adv-x="230" d="M157 -177h-84v943h84v-943z" />
<glyph unicode="}" horiz-adv-x="323" d="M294 248h-24q-47 0 -47 -85v-66q0 -107 -38 -152q-43 -50 -151 -50v67q60 6 80 36q18 25 18 88v53q0 68 16.5 101t58.5 48q-42 15 -58.5 48t-16.5 101v52q0 63 -18 88q-20 30 -80 37v67q108 0 151 -51q38 -45 38 -151v-66q0 -85 47 -85h24v-80z" />
<glyph unicode="~" horiz-adv-x="526" d="M487 406q-52 -135 -143 -135q-43 0 -90 32q-55 39 -78 39q-21 0 -35 -15t-34 -58l-68 35q52 135 144 135q44 0 90 -32q54 -39 76 -39t36 15t35 58z" />
<glyph unicode="&#xa1;" horiz-adv-x="321" d="M92 603q0 32 19.5 49.5t50.5 17.5q28 0 47.5 -17.5t19.5 -46.5q0 -30 -19 -47t-48 -17q-28 0 -49 16t-21 45zM99 -9l17 473h90l18 -473h-125z" />
<glyph unicode="&#xa2;" horiz-adv-x="465" d="M67 248q0 41 6.5 80.5t23 73t44.5 59t70 39.5q3 0 4 1q1 0 2 1v77h90v-75l43 -9l2 -2q3 -1 9 -4t12.5 -6.5t12.5 -6.5l8 -4q5 -2 6.5 -3t1.5 -5q0 -1 -0.5 -2t-0.5 -2q-2 -3 -5.5 -12.5t-8 -19.5t-8.5 -19.5t-6 -12.5q-1 -4 -3 -10.5t-7 -6.5h-1q-23 15 -40.5 25 t-44.5 10h-15q-7 -5 -13.5 -5.5t-14.5 -6.5q-35 -30 -42 -70.5t-7 -84.5q0 -25 2.5 -54t12.5 -54t29 -42t52 -17q17 0 32 3.5t30 12.5q1 1 5 3.5t9 6t9 6t5 3.5q1 0 2.5 1t2.5 1h1q3 0 4 -3.5t2 -5.5t4 -10.5t7 -17.5t7.5 -17.5t4.5 -10.5q2 -4 3.5 -8.5t1.5 -9.5 q0 -4 -5 -8t-11.5 -8t-13 -7.5t-10.5 -4.5q-5 -2 -17 -6.5t-13 -5.5q-2 0 -13 -2t-13 -2q-1 -1 -5 -1q-2 0 -3 -1v-77h-90v79q-1 0 -2 1q-1 0 -2 0.5t-2 0.5q-43 12 -71 38.5t-44 61.5t-22.5 75.5t-6.5 80.5z" />
<glyph unicode="&#xa3;" horiz-adv-x="439" d="M418 609l-57 -70q-31 28 -51 36q-25 12 -63 12q-33 0 -53.5 -21t-20.5 -56q0 -42 23 -95q17 -39 21 -61h107v-83h-102q-5 -93 -67 -186h250v-85h-349v98q43 47 59.5 84t18.5 89h-78v83h69q-11 29 -20 48q-25 53 -25 109q0 79 44.5 124.5t124.5 45.5q54 0 93 -18 q35 -15 76 -54z" />
<glyph unicode="&#xa4;" horiz-adv-x="357" d="M67 435l-43 62l35 54l44 -63q33 33 75 33q41 0 73 -33l44 63l36 -54l-44 -62q23 -49 23 -106q0 -58 -23 -107l44 -61l-36 -55l-44 63q-32 -32 -73 -32q-42 0 -75 32l-44 -63l-35 55l43 61q-22 49 -22 107q0 57 22 106zM95 329q0 -49 24 -83.5t57 -34.5q35 0 58.5 34.5 t23.5 83.5t-23.5 83t-58.5 34q-33 0 -57 -34t-24 -83z" />
<glyph unicode="&#xa5;" horiz-adv-x="482" d="M459 670l-167 -385v-84h107v-85h-107v-116h-97v116h-107v85h107v81l-172 388h115l53 -140q40 -105 53 -149q12 45 52 150l53 139h110z" />
<glyph unicode="&#xa6;" horiz-adv-x="167" d="M108 675v-358h-51v358h51zM108 164v-359h-51v359h51z" />
<glyph unicode="&#xa7;" horiz-adv-x="475" d="M433 250q0 -91 -87 -144q47 -43 47 -107q0 -71 -43 -113.5t-122 -42.5q-82 0 -154 55l50 72q51 -38 107 -38q65 0 65 61q0 26 -20.5 45t-78.5 49q-87 43 -117 78q-38 42 -38 109q0 91 87 143q-48 43 -48 108q0 70 43.5 113t121.5 43q83 0 155 -55l-50 -73q-51 39 -108 39 q-64 0 -64 -62q0 -26 20.5 -45t78.5 -49q86 -43 117 -77q38 -42 38 -109zM336 241q0 37 -20.5 59.5t-82.5 52.5l-30 15q-64 -31 -64 -86q0 -36 20.5 -58.5t82.5 -53.5l30 -15q64 32 64 86z" />
<glyph unicode="&#xa8;" d="M329 629q0 -24 -17.5 -42t-40.5 -18q-24 0 -41.5 18t-17.5 42q0 25 17.5 42.5t41.5 17.5q23 0 40.5 -18t17.5 -42zM163 629q0 -24 -17.5 -42t-40.5 -18q-24 0 -41.5 18t-17.5 42q0 25 17.5 42.5t41.5 17.5q23 0 40.5 -18t17.5 -42z" />
<glyph unicode="&#xa9;" horiz-adv-x="605" d="M563 335q0 -156 -73 -251t-188 -95q-114 0 -187 95t-73 251t73 251t187 95q115 0 188 -95t73 -251zM508 334q0 133 -55.5 213.5t-150.5 80.5q-94 0 -150 -80t-56 -212t57 -213t151 -81q95 0 149.5 80t54.5 212zM401 239q-20 -97 -99 -97q-108 0 -108 195q0 88 26 139 q28 56 84 56q81 0 97 -93l-55 -13q-10 50 -44 50q-53 0 -53 -138q0 -140 57 -140q31 0 45 58z" />
<glyph unicode="&#xaa;" horiz-adv-x="236" d="M172 387q-38 -49 -81 -49q-35 0 -55.5 28t-20.5 71q0 22 5 38.5t15 29t24 19.5q13 5 32 10l47 10q22 6 29 9q0 32 -4 43t-15.5 19t-29.5 8q-25 0 -37 -15t-14 -42l-43 15q3 41 27 67.5t68 26.5q51 0 73 -27q20 -28 20 -82v-109v-28q0 -60 12 -83h-45q-7 18 -7 41z M167 500q-16 -6 -60 -16q-28 -6 -36 -18q-11 -12 -11 -29q0 -19 11.5 -31.5t29.5 -12.5q23 0 40.5 17t22.5 43q3 10 3 47z" />
<glyph unicode="&#xab;" horiz-adv-x="459" d="M417 0h-92l-126 251l126 251h92l-122 -250zM237 0h-92l-126 251l126 251h92l-122 -250z" />
<glyph unicode="&#xac;" d="M339 192h-53v199h-250v76h303v-275z" />
<glyph unicode="&#xad;" horiz-adv-x="572" d="M530 305h-489v90h489v-90z" />
<glyph unicode="&#xae;" horiz-adv-x="605" d="M563 335q0 -156 -73 -251t-188 -95q-114 0 -187 95t-73 251t73 251t187 95q115 0 188 -95t73 -251zM508 334q0 133 -55.5 213.5t-150.5 80.5q-94 0 -150 -80t-56 -212t57 -213t151 -81q95 0 149.5 80t54.5 212zM419 424q0 -73 -59 -98l58 -172h-60l-55 162h-39v-162h-54 v377h104q45 0 73 -25q32 -28 32 -82zM362 424q0 53 -50 53h-48v-108h46q52 0 52 55z" />
<glyph unicode="&#xaf;" horiz-adv-x="355" d="M-9 710v58h372v-58h-372z" />
<glyph unicode="&#xb0;" d="M345 521q0 -69 -45.5 -115.5t-112.5 -46.5q-66 0 -111.5 46.5t-45.5 115.5q0 67 46 113.5t111 46.5q67 0 112.5 -46.5t45.5 -113.5zM271 521q0 34 -24.5 59.5t-59.5 25.5q-34 0 -58.5 -25.5t-24.5 -59.5q0 -37 24.5 -62t58.5 -25q35 0 59.5 25t24.5 62z" />
<glyph unicode="&#xb1;" horiz-adv-x="353" d="M150 118v182h-126v75h126v182h53v-182h124v-75h-124v-182h-53zM327 0h-303v76h303v-76z" />
<glyph unicode="&#xb2;" horiz-adv-x="214" d="M8 332q1 26 15 52q20 38 64.5 86t52.5 61q12 18 12 38q0 22 -10.5 36t-30.5 14q-23 0 -32.5 -10.5t-17.5 -41.5l-46 8q9 50 31.5 73.5t64.5 23.5q47 0 69 -26.5t22 -65.5q0 -38 -19 -71q-13 -26 -64 -78q-27 -28 -36 -44h120v-55h-195z" />
<glyph unicode="&#xb3;" horiz-adv-x="214" d="M11 421l45 6q5 -27 17 -36q12 -14 31 -14q23 0 36.5 18t13.5 42q0 23 -11.5 36.5t-39.5 13.5q-4 0 -10 -1h-8l8 49q26 0 37.5 13.5t11.5 33.5q0 17 -9.5 28.5t-28.5 11.5q-17 0 -26.5 -10t-17.5 -36l-44 10q13 48 32.5 67t55.5 19q47 0 67.5 -24t20.5 -60q0 -25 -11 -45 t-33 -27q28 -11 41.5 -34t13.5 -54q0 -41 -25.5 -72.5t-70.5 -31.5q-44 0 -67 25.5t-29 71.5z" />
<glyph unicode="&#xb4;" d="M309 723l-136 -154h-77l87 154h126z" />
<glyph unicode="&#xb5;" horiz-adv-x="369" d="M319 481v-481h-51v58q-17 -37 -33 -51q-20 -18 -49 -18q-27 0 -47 15q-15 11 -34 44v-233h-54v666h54v-204q0 -110 8.5 -143.5t27 -52.5t42.5 -19q25 0 45 20t27.5 52t7.5 141v206h56z" />
<glyph unicode="&#xb6;" horiz-adv-x="345" d="M127 -185v475q-58 3 -92.5 54t-34.5 129q0 87 38 139t110 52h199v-78h-45v-771h-52v771h-71v-771h-52z" />
<glyph unicode="&#xb7;" horiz-adv-x="203" d="M163 336q0 -26 -18 -45t-43 -19q-26 0 -44 19t-18 45q0 27 18 46t44 19q25 0 43 -19t18 -46z" />
<glyph unicode="&#xb8;" d="M290 -105q0 -80 -100 -80q-49 0 -94 28l18 31q31 -17 69 -17q45 0 45 35q0 31 -24 31q-17 0 -35 -11l-29 12l17 87h44l-10 -57q14 9 39 9q60 0 60 -68z" />
<glyph unicode="&#xb9;" horiz-adv-x="214" d="M103 332v251q-31 -37 -70 -51v56q20 9 43.5 33t38.5 51h35v-340h-47z" />
<glyph unicode="&#xba;" horiz-adv-x="234" d="M116 675q47 0 75.5 -45t28.5 -125q0 -79 -29 -124.5t-75 -45.5q-44 0 -72.5 44.5t-28.5 123.5q0 82 28.5 127t72.5 45zM116 616q-25 0 -40.5 -26t-15.5 -85q0 -57 16 -83t40 -26q26 0 42 26t16 86q0 55 -16 81.5t-42 26.5z" />
<glyph unicode="&#xbb;" horiz-adv-x="459" d="M431 251l-127 -251h-91l121 252l-121 250h91zM251 251l-126 -251h-92l122 252l-122 250h92z" />
<glyph unicode="&#xbc;" horiz-adv-x="1285" d="M165 646q-20 -19 -40 -41.5t-40 -43.5l-52 77l150 161h89v-670h-107v517v0zM648.241 792.944h99.1748q-50.6426 -190.325 -89.1523 -335.573q-38.5098 -145.247 -67.5234 -252.305t-48.5322 -180.934q-19.5186 -73.877 -32.1787 -121.458 q-30.5967 -112.692 -34.8174 -128.97h-96.0098zM1049 -88h-216l-24 88l229 442h125v-435h70v-95h-70v-140h-114v140v0zM916 8h134v292z" />
<glyph unicode="&#xbd;" horiz-adv-x="1209" d="M165 650q-20 -19 -40 -41.5t-40 -43.5l-52 77l150 161h89v-670h-107v517v0zM637.268 792.976h95.3594q-48.6943 -190.139 -85.7227 -335.245q-37.0273 -145.106 -64.9258 -252.06q-27.8975 -106.953 -46.665 -180.757q-18.7676 -73.8047 -30.9414 -121.339 q-29.4189 -112.583 -33.4775 -128.845h-92.3164zM809 -129q1 0 1.5 2t1.5 2q3 4 11.5 14.5t18.5 22.5t18.5 22.5t11.5 15.5l2 2q2 2 3 2q2 3 9 11.5t14.5 18.5t14.5 19.5t10 13.5q18 24 40 53.5t41 62t31.5 66t12.5 63.5q0 17 -4 33.5t-12.5 29t-22 20.5t-32.5 8 q-36 0 -63.5 -20t-50.5 -45h-2q-4 0 -5 2q-2 4 -8 13.5t-13 20t-13 20.5t-8 14q-1 1 -3.5 6l-3.5 7v2v1q6 7 15 13t18 11t17 10.5t13 11.5q31 15 56.5 21.5t59.5 6.5h16q3 0 10 -1t15.5 -2.5t15.5 -2.5t10 -1q59 -26 83 -67.5t24 -104.5q0 -25 -4 -45.5t-11 -39t-16 -37 t-18 -40.5l-53 -79q-3 -9 -12.5 -17.5t-15.5 -16.5q-2 -2 -8.5 -10t-14 -17t-14 -17t-7.5 -10q-1 0 -3.5 -2.5l-3.5 -3.5q-6 -6 -15 -16.5t-17.5 -20t-14.5 -17l-6 -7.5l-5 -8h236v-94h-336q-1 0 -3 12t-4 28.5t-4 32.5l-3 24v2v1z" />
<glyph unicode="&#xbe;" horiz-adv-x="1404" d="M40 155q0 6 4.5 17.5t10 24.5t11.5 25t9 20h2q27 -16 55.5 -26.5t60.5 -10.5q25 0 42.5 9t28.5 24.5t15.5 36.5t4.5 44q0 28 -8 55t-34 42q-5 3 -14 6.5t-14 3.5h-74v92l67 8q6 1 15.5 5t14.5 9q20 17 26.5 34t6.5 42q0 40 -17.5 66t-61.5 26q-27 0 -53 -11.5t-47 -25.5 h-7q-8 20 -17 39.5t-17 39.5l-1 2q0 6 9.5 10t14.5 6q3 1 12 5t19 8t19 8t12 6q3 0 11.5 1t18 2.5t18 2.5t11.5 1h15q84 0 127 -46t43 -128q0 -49 -17 -85.5t-64 -59.5v-2q29 -12 47.5 -27.5t29 -35.5t14.5 -46t4 -57q0 -53 -13 -92.5t-52 -75.5q-7 -7 -17.5 -10t-15.5 -11 q-23 -8 -44 -11t-46 -3h-35q-1 0 -5.5 0.5t-9.5 1t-10 1.5t-7 2q-3 0 -9 1.5t-13 3t-12.5 3t-7.5 1.5q-2 1 -11 5t-19 8.5t-18 9t-8 6.5zM752.153 793.008h93.7305q-47.8623 -189.953 -84.2568 -334.918q-36.3955 -144.965 -63.8164 -251.813 q-27.4219 -106.849 -45.8682 -180.581q-18.4473 -73.7324 -30.4131 -121.221q-28.917 -112.473 -32.9053 -128.718h-90.7393zM1168 -85h-216l-24 88l229 442h125v-435h70v-95h-70v-140h-114v140v0zM1035 11h134v292z" />
<glyph unicode="&#xbf;" horiz-adv-x="430" d="M314 613q0 -30 -15.5 -48t-47.5 -18q-29 0 -44.5 19.5t-15.5 46.5q0 6 1 14t3 16t5.5 14.5t9.5 9.5q5 3 13.5 7.5t9.5 4.5h37q12 0 20.5 -7t13.5 -17t7.5 -21.5t2.5 -20.5zM210 278q-1 0 -1.5 -1t-1.5 -1q-2 -4 -5 -6t-6 -6q-15 -19 -21.5 -39t-6.5 -44q0 -19 3.5 -36.5 t12 -30.5t23 -21t36.5 -8q20 0 35.5 5t33.5 16q1 1 9.5 8t13.5 11l7 7h1h1q0 -1 1 -2q3 -3 2 -3q2 -5 6 -14.5l8 -19t7 -18t4 -10.5q3 -7 4 -10t1 -9q0 -9 -12 -15l-16 -8q-32 -17 -59.5 -25t-64.5 -8q-42 0 -73 13.5t-52 37.5t-31 57t-10 72q0 37 8.5 70.5t30.5 62.5 q8 10 25 24.5l34 29t29.5 27.5t12.5 21v84h102v-20t-0.5 -30t-0.5 -30v-20q0 -12 -3 -29.5t-13 -25.5q-2 -2 -10.5 -8.5t-10.5 -8.5l-2 -2z" />
<glyph unicode="&#xc0;" horiz-adv-x="529" d="M203 668h144q0 -2 -0.5 0t0.5 0l171 -668h-122l-40 155h-165l-36 -155h-119q0 3 -1 0.5t1 -0.5zM210 257h130l-66 297zM370 697h-77l-135 154h126z" />
<glyph unicode="&#xc1;" horiz-adv-x="529" d="M203 668h144q0 -2 -0.5 0t0.5 0l171 -668h-122l-40 155h-165l-36 -155h-119q0 3 -1 0.5t1 -0.5zM210 257h130l-66 297zM371 851l-136 -154h-77l87 154h126z" />
<glyph unicode="&#xc2;" horiz-adv-x="529" d="M203 668h144q0 -2 -0.5 0t0.5 0l171 -668h-122l-40 155h-165l-36 -155h-119q0 3 -1 0.5t1 -0.5zM210 257h130l-66 297zM408 697h-73l-72 85l-72 -85h-71l96 154h97z" />
<glyph unicode="&#xc3;" horiz-adv-x="529" d="M203 668h144q0 -2 -0.5 0t0.5 0l171 -668h-122l-40 155h-165l-36 -155h-119q0 3 -1 0.5t1 -0.5zM210 257h130l-66 297zM420 813q0 -57 -24 -88.5t-64 -31.5q-37 0 -99 38q-19 11 -31 11q-28 0 -32 -45h-62q0 57 26 90q24 29 64 29q35 0 97 -38q19 -12 33 -12q25 0 31 47 h61z" />
<glyph unicode="&#xc4;" horiz-adv-x="529" d="M203 668h144q0 -2 -0.5 0t0.5 0l171 -668h-122l-40 155h-165l-36 -155h-119q0 3 -1 0.5t1 -0.5zM210 257h130l-66 297zM406 757q0 -24 -17.5 -42t-40.5 -18q-24 0 -41.5 18t-17.5 42q0 25 17.5 42.5t41.5 17.5q23 0 40.5 -18t17.5 -42zM240 757q0 -24 -17.5 -42 t-40.5 -18q-24 0 -41.5 18t-17.5 42q0 25 17.5 42.5t41.5 17.5q23 0 40.5 -18t17.5 -42z" />
<glyph unicode="&#xc5;" horiz-adv-x="529" d="M203 668h144q0 -2 -0.5 0t0.5 0l171 -668h-122l-40 155h-165l-36 -155h-119q0 3 -1 0.5t1 -0.5zM210 257h130l-66 297zM370 805q0 -47 -30 -77.5t-76 -30.5t-76 30.5t-30 77.5t30 77.5t76 30.5t76 -30.5t30 -77.5zM316 805q0 23 -15 38t-37 15q-21 0 -36 -15t-15 -38 t15 -38.5t36 -15.5q22 0 37 15.5t15 38.5z" />
<glyph unicode="&#xc6;" horiz-adv-x="625" d="M594 0h-307v158h-128l-50 -158h-93l227 670h339v-91h-207v-179h132v-90h-132v-219h219v-91zM289 571q-13 -47 -39 -129l-63 -195h100v204q0 53 2 120z" />
<glyph unicode="&#xc7;" horiz-adv-x="504" d="M103 135l-4 14q-2 5 -4 11t-3 10q-11 38 -15 80t-4 82q0 6 1.5 23.5t3.5 40t5.5 46.5t7.5 44t8 32.5t9 12.5q14 35 34.5 60.5t46.5 50.5q13 6 25 13.5t24 12.5l2 2q1 1 16 3.5t24 3.5q11 2 18.5 2.5t18.5 0.5q16 0 34 -2.5t33 -7.5q21 -8 40.5 -21.5t35.5 -29.5 q7 -6 17.5 -16.5t10.5 -11.5v-4q-19 -17 -33.5 -37t-33.5 -37l-1 -1l-1 1q0 1 -1 1q-2 0 -2 1q-21 24 -44 45.5t-58 21.5q-43 0 -67 -28.5t-36 -68.5t-15 -82t-3 -70q0 -30 3 -72t16 -80.5t37.5 -65.5t68.5 -27q32 0 57 14q5 3 14 12l19 19t18 17.5t10 7.5h4q2 -4 10 -15.5 t10 -14.5q3 -4 8.5 -10t11 -13t9.5 -14t4 -11v-1q0 -1 -1 -2.5t-1 -2.5q-40 -41 -82 -62t-101 -21q-76 0 -123 35.5t-77 103.5zM349 -105q0 -80 -100 -80q-49 0 -94 28l18 31q31 -17 69 -17q45 0 45 35q0 31 -24 31q-17 0 -35 -11l-29 12l17 87h44l-10 -57q14 9 39 9 q60 0 60 -68z" />
<glyph unicode="&#xc8;" horiz-adv-x="428" d="M93 670h299v-96h-185v-174h167v-100h-167v-204h192v-96h-306v670v0zM320 697h-77l-135 154h126z" />
<glyph unicode="&#xc9;" horiz-adv-x="428" d="M93 670h299v-96h-185v-174h167v-100h-167v-204h192v-96h-306v670v0zM320 851l-136 -154h-77l87 154h126z" />
<glyph unicode="&#xca;" horiz-adv-x="428" d="M93 670h299v-96h-185v-174h167v-100h-167v-204h192v-96h-306v670v0zM358 697h-73l-72 85l-72 -85h-71l96 154h97z" />
<glyph unicode="&#xcb;" horiz-adv-x="428" d="M93 670h299v-96h-185v-174h167v-100h-167v-204h192v-96h-306v670v0zM355 757q0 -24 -17.5 -42t-40.5 -18q-24 0 -41.5 18t-17.5 42q0 25 17.5 42.5t41.5 17.5q23 0 40.5 -18t17.5 -42zM189 757q0 -24 -17.5 -42t-40.5 -18q-24 0 -41.5 18t-17.5 42q0 25 17.5 42.5 t41.5 17.5q23 0 40.5 -18t17.5 -42z" />
<glyph unicode="&#xcc;" horiz-adv-x="291" d="M90 670h109v-670h-109v670v0zM253 697h-77l-135 154h126z" />
<glyph unicode="&#xcd;" horiz-adv-x="291" d="M90 670h109v-670h-109v670v0zM253 851l-136 -154h-77l87 154h126z" />
<glyph unicode="&#xce;" horiz-adv-x="291" d="M90 670h109v-670h-109v670v0zM291 697h-73l-72 85l-72 -85h-71l96 154h97z" />
<glyph unicode="&#xcf;" horiz-adv-x="291" d="M90 670h109v-670h-109v670v0zM288 757q0 -24 -17.5 -42t-40.5 -18q-24 0 -41.5 18t-17.5 42q0 25 17.5 42.5t41.5 17.5q23 0 40.5 -18t17.5 -42zM122 757q0 -24 -17.5 -42t-40.5 -18q-24 0 -41.5 18t-17.5 42q0 25 17.5 42.5t41.5 17.5q23 0 40.5 -18t17.5 -42z" />
<glyph unicode="&#xd0;" horiz-adv-x="463" d="M49 0v302h-50v60h50v302h159q52 0 82 -10q38 -12 67 -47q36 -44 54 -113.5t18 -157.5q0 -102 -21.5 -175t-53 -106t-72.5 -47q-23 -8 -66 -8h-167zM111 78h97q46 0 72 12.5t40 34.5q22 31 34 83.5t12 128.5q0 78 -11.5 124.5t-31.5 74.5t-44 39t-72 11h-96v-224h125v-60 h-125v-224z" />
<glyph unicode="&#xd1;" horiz-adv-x="591" d="M93 668h112l212 -422v422h108v-668h-106l-218 424v-424h-108v668v0zM451 813q0 -57 -24 -88.5t-64 -31.5q-37 0 -99 38q-19 11 -31 11q-28 0 -32 -45h-62q0 57 26 90q24 29 64 29q35 0 97 -38q19 -12 33 -12q25 0 31 47h61z" />
<glyph unicode="&#xd2;" horiz-adv-x="601" d="M78 230q0 4 -1 13t-1.5 19.5t-1.5 19.5t-1 13v40v41q0 4 1 13t1.5 19.5t1.5 19.5t1 13q9 21 13 44.5t12 45.5q26 72 82.5 110.5t131.5 38.5q72 0 118.5 -31t74.5 -80.5t39 -111t11 -122.5q0 -35 -3.5 -75.5t-14 -80t-28.5 -75.5t-47 -60q-15 -13 -29.5 -21.5t-32.5 -17.5 q-1 0 -1 -1t-1 -1q-5 -2 -19 -5.5t-19 -4.5q-2 0 -6.5 -1t-6.5 -1h-35q-20 0 -36.5 1t-35.5 6q-32 9 -57.5 27t-44.5 43t-32 54t-21 59q-1 1 -2.5 7.5t-3 13.5t-3 13t-1.5 8q0 1 -1 3.5t-1 3.5zM189 335q0 -26 1.5 -60.5t8 -68t21 -62.5t41.5 -44q6 -4 14.5 -8t15.5 -4h54 q4 0 14 5t13 7q25 15 39.5 45.5t21 65.5t8 69.5t1.5 57.5q0 32 -2.5 74.5t-15 81t-38 65t-71.5 26.5q-45 0 -70.5 -27.5t-37.5 -66.5t-15 -82t-3 -74zM406 697h-77l-135 154h126z" />
<glyph unicode="&#xd3;" horiz-adv-x="601" d="M78 230q0 4 -1 13t-1.5 19.5t-1.5 19.5t-1 13v40v41q0 4 1 13t1.5 19.5t1.5 19.5t1 13q9 21 13 44.5t12 45.5q26 72 82.5 110.5t131.5 38.5q72 0 118.5 -31t74.5 -80.5t39 -111t11 -122.5q0 -35 -3.5 -75.5t-14 -80t-28.5 -75.5t-47 -60q-15 -13 -29.5 -21.5t-32.5 -17.5 q-1 0 -1 -1t-1 -1q-5 -2 -19 -5.5t-19 -4.5q-2 0 -6.5 -1t-6.5 -1h-35q-20 0 -36.5 1t-35.5 6q-32 9 -57.5 27t-44.5 43t-32 54t-21 59q-1 1 -2.5 7.5t-3 13.5t-3 13t-1.5 8q0 1 -1 3.5t-1 3.5zM189 335q0 -26 1.5 -60.5t8 -68t21 -62.5t41.5 -44q6 -4 14.5 -8t15.5 -4h54 q4 0 14 5t13 7q25 15 39.5 45.5t21 65.5t8 69.5t1.5 57.5q0 32 -2.5 74.5t-15 81t-38 65t-71.5 26.5q-45 0 -70.5 -27.5t-37.5 -66.5t-15 -82t-3 -74zM407 851l-136 -154h-77l87 154h126z" />
<glyph unicode="&#xd4;" horiz-adv-x="601" d="M78 230q0 4 -1 13t-1.5 19.5t-1.5 19.5t-1 13v40v41q0 4 1 13t1.5 19.5t1.5 19.5t1 13q9 21 13 44.5t12 45.5q26 72 82.5 110.5t131.5 38.5q72 0 118.5 -31t74.5 -80.5t39 -111t11 -122.5q0 -35 -3.5 -75.5t-14 -80t-28.5 -75.5t-47 -60q-15 -13 -29.5 -21.5t-32.5 -17.5 q-1 0 -1 -1t-1 -1q-5 -2 -19 -5.5t-19 -4.5q-2 0 -6.5 -1t-6.5 -1h-35q-20 0 -36.5 1t-35.5 6q-32 9 -57.5 27t-44.5 43t-32 54t-21 59q-1 1 -2.5 7.5t-3 13.5t-3 13t-1.5 8q0 1 -1 3.5t-1 3.5zM189 335q0 -26 1.5 -60.5t8 -68t21 -62.5t41.5 -44q6 -4 14.5 -8t15.5 -4h54 q4 0 14 5t13 7q25 15 39.5 45.5t21 65.5t8 69.5t1.5 57.5q0 32 -2.5 74.5t-15 81t-38 65t-71.5 26.5q-45 0 -70.5 -27.5t-37.5 -66.5t-15 -82t-3 -74zM444 697h-73l-72 85l-72 -85h-71l96 154h97z" />
<glyph unicode="&#xd5;" horiz-adv-x="601" d="M78 230q0 4 -1 13t-1.5 19.5t-1.5 19.5t-1 13v40v41q0 4 1 13t1.5 19.5t1.5 19.5t1 13q9 21 13 44.5t12 45.5q26 72 82.5 110.5t131.5 38.5q72 0 118.5 -31t74.5 -80.5t39 -111t11 -122.5q0 -35 -3.5 -75.5t-14 -80t-28.5 -75.5t-47 -60q-15 -13 -29.5 -21.5t-32.5 -17.5 q-1 0 -1 -1t-1 -1q-5 -2 -19 -5.5t-19 -4.5q-2 0 -6.5 -1t-6.5 -1h-35q-20 0 -36.5 1t-35.5 6q-32 9 -57.5 27t-44.5 43t-32 54t-21 59q-1 1 -2.5 7.5t-3 13.5t-3 13t-1.5 8q0 1 -1 3.5t-1 3.5zM189 335q0 -26 1.5 -60.5t8 -68t21 -62.5t41.5 -44q6 -4 14.5 -8t15.5 -4h54 q4 0 14 5t13 7q25 15 39.5 45.5t21 65.5t8 69.5t1.5 57.5q0 32 -2.5 74.5t-15 81t-38 65t-71.5 26.5q-45 0 -70.5 -27.5t-37.5 -66.5t-15 -82t-3 -74zM456 813q0 -57 -24 -88.5t-64 -31.5q-37 0 -99 38q-19 11 -31 11q-28 0 -32 -45h-62q0 57 26 90q24 29 64 29q35 0 97 -38 q19 -12 33 -12q25 0 31 47h61z" />
<glyph unicode="&#xd6;" horiz-adv-x="601" d="M78 230q0 4 -1 13t-1.5 19.5t-1.5 19.5t-1 13v40v41q0 4 1 13t1.5 19.5t1.5 19.5t1 13q9 21 13 44.5t12 45.5q26 72 82.5 110.5t131.5 38.5q72 0 118.5 -31t74.5 -80.5t39 -111t11 -122.5q0 -35 -3.5 -75.5t-14 -80t-28.5 -75.5t-47 -60q-15 -13 -29.5 -21.5t-32.5 -17.5 q-1 0 -1 -1t-1 -1q-5 -2 -19 -5.5t-19 -4.5q-2 0 -6.5 -1t-6.5 -1h-35q-20 0 -36.5 1t-35.5 6q-32 9 -57.5 27t-44.5 43t-32 54t-21 59q-1 1 -2.5 7.5t-3 13.5t-3 13t-1.5 8q0 1 -1 3.5t-1 3.5zM189 335q0 -26 1.5 -60.5t8 -68t21 -62.5t41.5 -44q6 -4 14.5 -8t15.5 -4h54 q4 0 14 5t13 7q25 15 39.5 45.5t21 65.5t8 69.5t1.5 57.5q0 32 -2.5 74.5t-15 81t-38 65t-71.5 26.5q-45 0 -70.5 -27.5t-37.5 -66.5t-15 -82t-3 -74zM442 757q0 -24 -17.5 -42t-40.5 -18q-24 0 -41.5 18t-17.5 42q0 25 17.5 42.5t41.5 17.5q23 0 40.5 -18t17.5 -42z M276 757q0 -24 -17.5 -42t-40.5 -18q-24 0 -41.5 18t-17.5 42q0 25 17.5 42.5t41.5 17.5q23 0 40.5 -18t17.5 -42z" />
<glyph unicode="&#xd7;" d="M51 186l99 142l-99 142l37 55l99 -141l99 141l37 -55l-99 -142l99 -141l-37 -56l-99 142l-99 -142z" />
<glyph unicode="&#xd8;" horiz-adv-x="633" d="M78 230q0 4 -1 13t-1.5 19.5t-1.5 19.5t-1 13v40v41q0 4 1 13t1.5 19.5t1.5 19.5t1 13q9 21 13 44.5t12 45.5q26 72 82.5 110.5t131.5 38.5q72 0 118.5 -31t74.5 -80.5t39 -111t11 -122.5q0 -35 -3.5 -75.5t-14 -80t-28.5 -75.5t-47 -60q-15 -13 -29.5 -21.5t-32.5 -17.5 q-1 0 -1 -1t-1 -1q-5 -2 -19 -5.5t-19 -4.5q-2 0 -6.5 -1t-6.5 -1h-35q-20 0 -36.5 1t-35.5 6q-32 9 -57.5 27t-44.5 43t-32 54t-21 59q-1 1 -2.5 7.5t-3 13.5t-3 13t-1.5 8q0 1 -1 3.5t-1 3.5zM189 335q0 -26 1.5 -60.5t8 -68t21 -62.5t41.5 -44q6 -4 14.5 -8t15.5 -4h54 q4 0 14 5t13 7q25 15 39.5 45.5t21 65.5t8 69.5t1.5 57.5q0 32 -2.5 74.5t-15 81t-38 65t-71.5 26.5q-45 0 -70.5 -27.5t-37.5 -66.5t-15 -82t-3 -74zM393.615 670.191h92.9209q-47.4492 -128.844 -83.5303 -227.172t-63.2656 -170.803t-45.4717 -122.486 q-18.2881 -50.0117 -30.1504 -82.2227q-28.667 -76.2891 -32.6211 -87.3086h-89.9561z" />
<glyph unicode="&#xd9;" horiz-adv-x="563" d="M110 113q-7 32 -12 63.5t-5 64.5v429h113v-459q0 -1 1 -7.5t2.5 -15t2.5 -17t2 -14.5q5 -34 28 -51.5t55 -17.5t53 16.5t28 48.5q1 4 2.5 11l3 14t2.5 12.5t1 6.5v473h112v-450q0 -38 -9 -78.5t-26 -74.5q-4 -8 -10 -15t-11 -15q-31 -29 -68 -39t-79 -10q-24 0 -48 3.5 t-46 12t-40.5 23.5t-31.5 38q-6 11 -9.5 24t-10.5 24zM387 697h-77l-135 154h126z" />
<glyph unicode="&#xda;" horiz-adv-x="563" d="M110 113q-7 32 -12 63.5t-5 64.5v429h113v-459q0 -1 1 -7.5t2.5 -15t2.5 -17t2 -14.5q5 -34 28 -51.5t55 -17.5t53 16.5t28 48.5q1 4 2.5 11l3 14t2.5 12.5t1 6.5v473h112v-450q0 -38 -9 -78.5t-26 -74.5q-4 -8 -10 -15t-11 -15q-31 -29 -68 -39t-79 -10q-24 0 -48 3.5 t-46 12t-40.5 23.5t-31.5 38q-6 11 -9.5 24t-10.5 24zM388 851l-136 -154h-77l87 154h126z" />
<glyph unicode="&#xdb;" horiz-adv-x="563" d="M110 113q-7 32 -12 63.5t-5 64.5v429h113v-459q0 -1 1 -7.5t2.5 -15t2.5 -17t2 -14.5q5 -34 28 -51.5t55 -17.5t53 16.5t28 48.5q1 4 2.5 11l3 14t2.5 12.5t1 6.5v473h112v-450q0 -38 -9 -78.5t-26 -74.5q-4 -8 -10 -15t-11 -15q-31 -29 -68 -39t-79 -10q-24 0 -48 3.5 t-46 12t-40.5 23.5t-31.5 38q-6 11 -9.5 24t-10.5 24zM425 697h-73l-72 85l-72 -85h-71l96 154h97z" />
<glyph unicode="&#xdc;" horiz-adv-x="563" d="M110 113q-7 32 -12 63.5t-5 64.5v429h113v-459q0 -1 1 -7.5t2.5 -15t2.5 -17t2 -14.5q5 -34 28 -51.5t55 -17.5t53 16.5t28 48.5q1 4 2.5 11l3 14t2.5 12.5t1 6.5v473h112v-450q0 -38 -9 -78.5t-26 -74.5q-4 -8 -10 -15t-11 -15q-31 -29 -68 -39t-79 -10q-24 0 -48 3.5 t-46 12t-40.5 23.5t-31.5 38q-6 11 -9.5 24t-10.5 24zM423 757q0 -24 -17.5 -42t-40.5 -18q-24 0 -41.5 18t-17.5 42q0 25 17.5 42.5t41.5 17.5q23 0 40.5 -18t17.5 -42zM257 757q0 -24 -17.5 -42t-40.5 -18q-24 0 -41.5 18t-17.5 42q0 25 17.5 42.5t41.5 17.5 q23 0 40.5 -18t17.5 -42z" />
<glyph unicode="&#xdd;" horiz-adv-x="482" d="M187 248q-43 105 -83.5 209t-83.5 213h122l103 -308l102 308h116q-7 -19 -18.5 -50.5t-26.5 -69.5t-31.5 -80t-32 -81.5t-29.5 -73.5t-23 -56v-259h-115v248v0zM347 851l-136 -154h-77l87 154h126z" />
<glyph unicode="&#xde;" horiz-adv-x="427" d="M49 0v664h62v-135h112q45 0 69 -7q35 -7 58 -30t36 -64.5t13 -90.5q0 -84 -36.5 -143t-135.5 -59h-116v-135h-62zM111 213h117q59 0 84.5 31.5t25.5 89.5q0 41 -15 71t-39 39q-16 7 -57 7h-116v-238z" />
<glyph unicode="&#xdf;" horiz-adv-x="434" d="M394 209q0 -209 -186 -209h-10v84h11q94 0 94 122q0 131 -96 131h-9v83h8q75 0 75 95t-70 95q-68 0 -68 -91v-654l-90 -50v693q0 98 38 142.5t122 44.5q76 0 117.5 -45t41.5 -127q0 -99 -67 -138q89 -36 89 -176z" />
<glyph unicode="&#xe0;" horiz-adv-x="533" d="M67 151q0 29 5 52t19 49q4 3 4 10q24 28 50.5 45.5t55.5 28t62 15t69 6.5v30q0 11 -0.5 24.5t-4.5 25.5t-12 20.5t-23 10.5h-24q-31 0 -58 -7t-55 -19q-3 -1 -8.5 -3.5t-11 -5.5t-10.5 -5t-6 -2h-1l-21 67q-2 3 -2 6.5v6.5v8q2 1 7 2.5t7 2.5q44 17 84 27t88 10 q62 0 101 -22t56 -85q1 -1 1.5 -5t1.5 -6q0 -5 1 -12l2 -14t1.5 -12.5l0.5 -5.5v-320q0 -8 7.5 -16t12.5 -12v-2q0 -5 -5 -7q-2 -2 -8 -6.5t-13.5 -10t-14 -10.5t-8.5 -6q-4 -3 -9.5 -7.5t-10.5 -4.5q-22 0 -38 19.5t-18 39.5q-30 -32 -62.5 -47.5t-76.5 -15.5q-37 0 -63 13 t-42 35t-23 52t-7 63zM176 157q0 -17 2.5 -33t9 -29t19 -20.5t32.5 -7.5q34 0 53 15t40 38v161q-32 0 -60.5 -6t-49.5 -20.5t-33.5 -38t-12.5 -59.5zM372 569h-77l-135 154h126z" />
<glyph unicode="&#xe1;" horiz-adv-x="533" d="M67 151q0 29 5 52t19 49q4 3 4 10q24 28 50.5 45.5t55.5 28t62 15t69 6.5v30q0 11 -0.5 24.5t-4.5 25.5t-12 20.5t-23 10.5h-24q-31 0 -58 -7t-55 -19q-3 -1 -8.5 -3.5t-11 -5.5t-10.5 -5t-6 -2h-1l-21 67q-2 3 -2 6.5v6.5v8q2 1 7 2.5t7 2.5q44 17 84 27t88 10 q62 0 101 -22t56 -85q1 -1 1.5 -5t1.5 -6q0 -5 1 -12l2 -14t1.5 -12.5l0.5 -5.5v-320q0 -8 7.5 -16t12.5 -12v-2q0 -5 -5 -7q-2 -2 -8 -6.5t-13.5 -10t-14 -10.5t-8.5 -6q-4 -3 -9.5 -7.5t-10.5 -4.5q-22 0 -38 19.5t-18 39.5q-30 -32 -62.5 -47.5t-76.5 -15.5q-37 0 -63 13 t-42 35t-23 52t-7 63zM176 157q0 -17 2.5 -33t9 -29t19 -20.5t32.5 -7.5q34 0 53 15t40 38v161q-32 0 -60.5 -6t-49.5 -20.5t-33.5 -38t-12.5 -59.5zM373 723l-136 -154h-77l87 154h126z" />
<glyph unicode="&#xe2;" horiz-adv-x="533" d="M67 151q0 29 5 52t19 49q4 3 4 10q24 28 50.5 45.5t55.5 28t62 15t69 6.5v30q0 11 -0.5 24.5t-4.5 25.5t-12 20.5t-23 10.5h-24q-31 0 -58 -7t-55 -19q-3 -1 -8.5 -3.5t-11 -5.5t-10.5 -5t-6 -2h-1l-21 67q-2 3 -2 6.5v6.5v8q2 1 7 2.5t7 2.5q44 17 84 27t88 10 q62 0 101 -22t56 -85q1 -1 1.5 -5t1.5 -6q0 -5 1 -12l2 -14t1.5 -12.5l0.5 -5.5v-320q0 -8 7.5 -16t12.5 -12v-2q0 -5 -5 -7q-2 -2 -8 -6.5t-13.5 -10t-14 -10.5t-8.5 -6q-4 -3 -9.5 -7.5t-10.5 -4.5q-22 0 -38 19.5t-18 39.5q-30 -32 -62.5 -47.5t-76.5 -15.5q-37 0 -63 13 t-42 35t-23 52t-7 63zM176 157q0 -17 2.5 -33t9 -29t19 -20.5t32.5 -7.5q34 0 53 15t40 38v161q-32 0 -60.5 -6t-49.5 -20.5t-33.5 -38t-12.5 -59.5zM410 569h-73l-72 85l-72 -85h-71l96 154h97z" />
<glyph unicode="&#xe3;" horiz-adv-x="533" d="M67 151q0 29 5 52t19 49q4 3 4 10q24 28 50.5 45.5t55.5 28t62 15t69 6.5v30q0 11 -0.5 24.5t-4.5 25.5t-12 20.5t-23 10.5h-24q-31 0 -58 -7t-55 -19q-3 -1 -8.5 -3.5t-11 -5.5t-10.5 -5t-6 -2h-1l-21 67q-2 3 -2 6.5v6.5v8q2 1 7 2.5t7 2.5q44 17 84 27t88 10 q62 0 101 -22t56 -85q1 -1 1.5 -5t1.5 -6q0 -5 1 -12l2 -14t1.5 -12.5l0.5 -5.5v-320q0 -8 7.5 -16t12.5 -12v-2q0 -5 -5 -7q-2 -2 -8 -6.5t-13.5 -10t-14 -10.5t-8.5 -6q-4 -3 -9.5 -7.5t-10.5 -4.5q-22 0 -38 19.5t-18 39.5q-30 -32 -62.5 -47.5t-76.5 -15.5q-37 0 -63 13 t-42 35t-23 52t-7 63zM176 157q0 -17 2.5 -33t9 -29t19 -20.5t32.5 -7.5q34 0 53 15t40 38v161q-32 0 -60.5 -6t-49.5 -20.5t-33.5 -38t-12.5 -59.5zM422 685q0 -57 -24 -88.5t-64 -31.5q-37 0 -99 38q-19 11 -31 11q-28 0 -32 -45h-62q0 57 26 90q24 29 64 29q35 0 97 -38 q19 -12 33 -12q25 0 31 47h61z" />
<glyph unicode="&#xe4;" horiz-adv-x="533" d="M67 151q0 29 5 52t19 49q4 3 4 10q24 28 50.5 45.5t55.5 28t62 15t69 6.5v30q0 11 -0.5 24.5t-4.5 25.5t-12 20.5t-23 10.5h-24q-31 0 -58 -7t-55 -19q-3 -1 -8.5 -3.5t-11 -5.5t-10.5 -5t-6 -2h-1l-21 67q-2 3 -2 6.5v6.5v8q2 1 7 2.5t7 2.5q44 17 84 27t88 10 q62 0 101 -22t56 -85q1 -1 1.5 -5t1.5 -6q0 -5 1 -12l2 -14t1.5 -12.5l0.5 -5.5v-320q0 -8 7.5 -16t12.5 -12v-2q0 -5 -5 -7q-2 -2 -8 -6.5t-13.5 -10t-14 -10.5t-8.5 -6q-4 -3 -9.5 -7.5t-10.5 -4.5q-22 0 -38 19.5t-18 39.5q-30 -32 -62.5 -47.5t-76.5 -15.5q-37 0 -63 13 t-42 35t-23 52t-7 63zM176 157q0 -17 2.5 -33t9 -29t19 -20.5t32.5 -7.5q34 0 53 15t40 38v161q-32 0 -60.5 -6t-49.5 -20.5t-33.5 -38t-12.5 -59.5zM408 629q0 -24 -17.5 -42t-40.5 -18q-24 0 -41.5 18t-17.5 42q0 25 17.5 42.5t41.5 17.5q23 0 40.5 -18t17.5 -42zM242 629 q0 -24 -17.5 -42t-40.5 -18q-24 0 -41.5 18t-17.5 42q0 25 17.5 42.5t41.5 17.5q23 0 40.5 -18t17.5 -42z" />
<glyph unicode="&#xe5;" horiz-adv-x="533" d="M67 151q0 29 5 52t19 49q4 3 4 10q24 28 50.5 45.5t55.5 28t62 15t69 6.5v30q0 11 -0.5 24.5t-4.5 25.5t-12 20.5t-23 10.5h-24q-31 0 -58 -7t-55 -19q-3 -1 -8.5 -3.5t-11 -5.5t-10.5 -5t-6 -2h-1l-21 67q-2 3 -2 6.5v6.5v8q2 1 7 2.5t7 2.5q44 17 84 27t88 10 q62 0 101 -22t56 -85q1 -1 1.5 -5t1.5 -6q0 -5 1 -12l2 -14t1.5 -12.5l0.5 -5.5v-320q0 -8 7.5 -16t12.5 -12v-2q0 -5 -5 -7q-2 -2 -8 -6.5t-13.5 -10t-14 -10.5t-8.5 -6q-4 -3 -9.5 -7.5t-10.5 -4.5q-22 0 -38 19.5t-18 39.5q-30 -32 -62.5 -47.5t-76.5 -15.5q-37 0 -63 13 t-42 35t-23 52t-7 63zM176 157q0 -17 2.5 -33t9 -29t19 -20.5t32.5 -7.5q34 0 53 15t40 38v161q-32 0 -60.5 -6t-49.5 -20.5t-33.5 -38t-12.5 -59.5zM372 677q0 -47 -30 -77.5t-76 -30.5t-76 30.5t-30 77.5t30 77.5t76 30.5t76 -30.5t30 -77.5zM318 677q0 23 -15 38t-37 15 q-21 0 -36 -15t-15 -38t15 -38.5t36 -15.5q22 0 37 15.5t15 38.5z" />
<glyph unicode="&#xe6;" horiz-adv-x="641" d="M605 253q0 -23 -1 -33h-258q9 -142 93 -142q50 0 89 37l55 -59q-59 -67 -146 -67q-84 0 -126 73q-62 -73 -148 -73q-57 0 -94 43q-40 45 -40 126q0 79 45 123q43 42 115 42q41 0 75 -17v49q0 72 -64 72q-45 0 -96 -32l-38 70q70 48 138 48q52 0 79 -15q21 -13 39 -44 q39 59 110 59q76 0 123 -64q50 -70 50 -196zM513 300q-2 57 -24 92t-59 35q-71 0 -83 -127h166zM264 120v100q-31 19 -74 19q-71 0 -71 -79q0 -87 62 -87q57 0 83 47z" />
<glyph unicode="&#xe7;" horiz-adv-x="460" d="M67 276q0 48 7 94t30 89q2 1 6.5 6.5t9 12.5t9.5 14t8 11q29 29 63 41t75 12t73 -10.5t67 -31.5v-1q0 -4 -5.5 -18t-12 -29t-13 -26.5t-8.5 -11.5h-3q-20 17 -40 28.5t-48 11.5q-36 0 -57 -20t-31.5 -49.5t-13 -62.5t-2.5 -59q0 -27 3 -61.5t13.5 -65t31.5 -51.5t57 -21 q16 0 31 3t29 11q4 3 7.5 6t8.5 6q2 2 6 5t8 5q4 3 9 6h2q1 -3 3 -6q2 -6 4 -10q1 -3 5.5 -12.5t9 -20.5t8 -21t3.5 -14v-2q-1 0 -1.5 -1t-1.5 -1q-66 -44 -146 -44q-24 0 -43 2.5t-42 11.5q-2 1 -9 5.5t-10 6.5q-31 22 -50.5 52.5t-30.5 65t-15 71.5t-4 73zM327 -105 q0 -80 -100 -80q-49 0 -94 28l18 31q31 -17 69 -17q45 0 45 35q0 31 -24 31q-17 0 -35 -11l-29 12l17 87h44l-10 -57q14 9 39 9q60 0 60 -68z" />
<glyph unicode="&#xe8;" horiz-adv-x="535" d="M159 23q-37 32 -54 68t-31 81q-2 25 -4.5 51t-2.5 52q0 34 3.5 69t14 68t28 62.5t46.5 52.5q16 7 29.5 13t26.5 10.5t27.5 6.5t34.5 2q60 0 97.5 -24t58.5 -63t28 -88.5t7 -100.5v-32l-2 -13h-281v-9t-0.5 -13.5t-0.5 -13.5v-9q1 -23 8.5 -43.5t21 -36.5t32 -25.5 t41.5 -9.5q32 0 61 11.5t55 29.5h1q3 0 5.5 -4.5t4.5 -10t3.5 -11t1.5 -7.5q3 -13 10 -30q4 -9 7 -19v-3q0 -3 -9 -8t-20 -9.5t-21 -8.5t-11 -6q-23 -6 -46 -10t-47 -4q-42 0 -84 14q-11 4 -20 10t-19 11zM277 473q-31 0 -50 -15t-29 -38t-13.5 -50.5t-3.5 -52.5h183 q0 22 -2.5 49.5t-11.5 51t-26 39.5t-47 16zM373 569h-77l-135 154h126z" />
<glyph unicode="&#xe9;" horiz-adv-x="535" d="M159 23q-37 32 -54 68t-31 81q-2 25 -4.5 51t-2.5 52q0 34 3.5 69t14 68t28 62.5t46.5 52.5q16 7 29.5 13t26.5 10.5t27.5 6.5t34.5 2q60 0 97.5 -24t58.5 -63t28 -88.5t7 -100.5v-32l-2 -13h-281v-9t-0.5 -13.5t-0.5 -13.5v-9q1 -23 8.5 -43.5t21 -36.5t32 -25.5 t41.5 -9.5q32 0 61 11.5t55 29.5h1q3 0 5.5 -4.5t4.5 -10t3.5 -11t1.5 -7.5q3 -13 10 -30q4 -9 7 -19v-3q0 -3 -9 -8t-20 -9.5t-21 -8.5t-11 -6q-23 -6 -46 -10t-47 -4q-42 0 -84 14q-11 4 -20 10t-19 11zM277 473q-31 0 -50 -15t-29 -38t-13.5 -50.5t-3.5 -52.5h183 q0 22 -2.5 49.5t-11.5 51t-26 39.5t-47 16zM374 723l-136 -154h-77l87 154h126z" />
<glyph unicode="&#xea;" horiz-adv-x="535" d="M159 23q-37 32 -54 68t-31 81q-2 25 -4.5 51t-2.5 52q0 34 3.5 69t14 68t28 62.5t46.5 52.5q16 7 29.5 13t26.5 10.5t27.5 6.5t34.5 2q60 0 97.5 -24t58.5 -63t28 -88.5t7 -100.5v-32l-2 -13h-281v-9t-0.5 -13.5t-0.5 -13.5v-9q1 -23 8.5 -43.5t21 -36.5t32 -25.5 t41.5 -9.5q32 0 61 11.5t55 29.5h1q3 0 5.5 -4.5t4.5 -10t3.5 -11t1.5 -7.5q3 -13 10 -30q4 -9 7 -19v-3q0 -3 -9 -8t-20 -9.5t-21 -8.5t-11 -6q-23 -6 -46 -10t-47 -4q-42 0 -84 14q-11 4 -20 10t-19 11zM277 473q-31 0 -50 -15t-29 -38t-13.5 -50.5t-3.5 -52.5h183 q0 22 -2.5 49.5t-11.5 51t-26 39.5t-47 16zM411 569h-73l-72 85l-72 -85h-71l96 154h97z" />
<glyph unicode="&#xeb;" horiz-adv-x="535" d="M159 23q-37 32 -54 68t-31 81q-2 25 -4.5 51t-2.5 52q0 34 3.5 69t14 68t28 62.5t46.5 52.5q16 7 29.5 13t26.5 10.5t27.5 6.5t34.5 2q60 0 97.5 -24t58.5 -63t28 -88.5t7 -100.5v-32l-2 -13h-281v-9t-0.5 -13.5t-0.5 -13.5v-9q1 -23 8.5 -43.5t21 -36.5t32 -25.5 t41.5 -9.5q32 0 61 11.5t55 29.5h1q3 0 5.5 -4.5t4.5 -10t3.5 -11t1.5 -7.5q3 -13 10 -30q4 -9 7 -19v-3q0 -3 -9 -8t-20 -9.5t-21 -8.5t-11 -6q-23 -6 -46 -10t-47 -4q-42 0 -84 14q-11 4 -20 10t-19 11zM277 473q-31 0 -50 -15t-29 -38t-13.5 -50.5t-3.5 -52.5h183 q0 22 -2.5 49.5t-11.5 51t-26 39.5t-47 16zM409 629q0 -24 -17.5 -42t-40.5 -18q-24 0 -41.5 18t-17.5 42q0 25 17.5 42.5t41.5 17.5q23 0 40.5 -18t17.5 -42zM243 629q0 -24 -17.5 -42t-40.5 -18q-24 0 -41.5 18t-17.5 42q0 25 17.5 42.5t41.5 17.5q23 0 40.5 -18t17.5 -42 z" />
<glyph unicode="&#xec;" horiz-adv-x="286" d="M89 548h110v-548h-110v548v0zM250 569h-77l-135 154h126z" />
<glyph unicode="&#xed;" horiz-adv-x="286" d="M89 548h110v-548h-110v548v0zM251 723l-136 -154h-77l87 154h126z" />
<glyph unicode="&#xee;" horiz-adv-x="286" d="M89 548h110v-548h-110v548v0zM288 569h-73l-72 85l-72 -85h-71l96 154h97z" />
<glyph unicode="&#xef;" horiz-adv-x="286" d="M89 548h110v-548h-110v548v0zM286 629q0 -24 -17.5 -42t-40.5 -18q-24 0 -41.5 18t-17.5 42q0 25 17.5 42.5t41.5 17.5q23 0 40.5 -18t17.5 -42zM120 629q0 -24 -17.5 -42t-40.5 -18q-24 0 -41.5 18t-17.5 42q0 25 17.5 42.5t41.5 17.5q23 0 40.5 -18t17.5 -42z" />
<glyph unicode="&#xf0;" horiz-adv-x="357" d="M96 664h68q23 -24 40 -46l66 46l14 -46l-54 -38q101 -166 101 -344q0 -115 -43.5 -181t-111.5 -66q-80 0 -124 87q-29 58 -29 158q0 119 40 183t101 64q19 0 33 -5.5t33 -21.5q-10 34 -18.5 52t-24.5 45l-87 -57l-15 47l77 49q-31 40 -66 74zM272 240q0 87 -28 132.5 t-69 45.5t-67.5 -45.5t-26.5 -140.5q0 -88 27 -132t68 -44q40 0 68 46.5t28 137.5z" />
<glyph unicode="&#xf1;" horiz-adv-x="556" d="M188 548l8 -49q1 2 3.5 6.5t3.5 5.5q26 29 51.5 39t63.5 10q74 0 105.5 -37.5t39.5 -109.5q1 -5 1.5 -15t1.5 -21t1.5 -20t0.5 -12v-345h-116v393q0 2 -3 14t-5 18q-6 20 -23 29.5t-37 9.5q-22 0 -38 -9t-26.5 -23.5t-15.5 -33.5t-5 -39v-359h-111v548h100zM434 685 q0 -57 -24 -88.5t-64 -31.5q-37 0 -99 38q-19 11 -31 11q-28 0 -32 -45h-62q0 57 26 90q24 29 64 29q35 0 97 -38q19 -12 33 -12q25 0 31 47h61z" />
<glyph unicode="&#xf2;" horiz-adv-x="557" d="M194 2q-2 2 -8 5.5t-13.5 8l-15 9t-10.5 7.5q-25 23 -40.5 51.5t-24.5 60.5t-12 65.5t-3 65.5q0 53 8 103.5t34 96.5q8 6 14.5 16.5t12.5 17.5q28 30 65.5 41.5t77.5 11.5q46 0 76.5 -13t65.5 -40q4 -11 12.5 -19t13.5 -17q23 -46 33 -95.5t10 -101.5t-10 -103.5 t-34.5 -92.5t-65.5 -66.5t-102 -25.5q-23 0 -42 3.5t-42 10.5zM182 278q0 -26 1.5 -59.5t10 -64t28 -51.5t55.5 -21q30 0 48.5 15.5t29.5 43.5q4 8 5 16t5 16q0 3 1 12t2.5 18.5t2.5 18.5t1 12v39q0 25 -1 59.5t-10 65t-28.5 52t-56.5 21.5q-35 0 -54 -21t-28 -51t-10.5 -63 t-1.5 -58zM384 569h-77l-135 154h126z" />
<glyph unicode="&#xf3;" horiz-adv-x="557" d="M194 2q-2 2 -8 5.5t-13.5 8l-15 9t-10.5 7.5q-25 23 -40.5 51.5t-24.5 60.5t-12 65.5t-3 65.5q0 53 8 103.5t34 96.5q8 6 14.5 16.5t12.5 17.5q28 30 65.5 41.5t77.5 11.5q46 0 76.5 -13t65.5 -40q4 -11 12.5 -19t13.5 -17q23 -46 33 -95.5t10 -101.5t-10 -103.5 t-34.5 -92.5t-65.5 -66.5t-102 -25.5q-23 0 -42 3.5t-42 10.5zM182 278q0 -26 1.5 -59.5t10 -64t28 -51.5t55.5 -21q30 0 48.5 15.5t29.5 43.5q4 8 5 16t5 16q0 3 1 12t2.5 18.5t2.5 18.5t1 12v39q0 25 -1 59.5t-10 65t-28.5 52t-56.5 21.5q-35 0 -54 -21t-28 -51t-10.5 -63 t-1.5 -58zM385 723l-136 -154h-77l87 154h126z" />
<glyph unicode="&#xf4;" horiz-adv-x="557" d="M194 2q-2 2 -8 5.5t-13.5 8l-15 9t-10.5 7.5q-25 23 -40.5 51.5t-24.5 60.5t-12 65.5t-3 65.5q0 53 8 103.5t34 96.5q8 6 14.5 16.5t12.5 17.5q28 30 65.5 41.5t77.5 11.5q46 0 76.5 -13t65.5 -40q4 -11 12.5 -19t13.5 -17q23 -46 33 -95.5t10 -101.5t-10 -103.5 t-34.5 -92.5t-65.5 -66.5t-102 -25.5q-23 0 -42 3.5t-42 10.5zM182 278q0 -26 1.5 -59.5t10 -64t28 -51.5t55.5 -21q30 0 48.5 15.5t29.5 43.5q4 8 5 16t5 16q0 3 1 12t2.5 18.5t2.5 18.5t1 12v39q0 25 -1 59.5t-10 65t-28.5 52t-56.5 21.5q-35 0 -54 -21t-28 -51t-10.5 -63 t-1.5 -58zM422 569h-73l-72 85l-72 -85h-71l96 154h97z" />
<glyph unicode="&#xf5;" horiz-adv-x="557" d="M194 2q-2 2 -8 5.5t-13.5 8l-15 9t-10.5 7.5q-25 23 -40.5 51.5t-24.5 60.5t-12 65.5t-3 65.5q0 53 8 103.5t34 96.5q8 6 14.5 16.5t12.5 17.5q28 30 65.5 41.5t77.5 11.5q46 0 76.5 -13t65.5 -40q4 -11 12.5 -19t13.5 -17q23 -46 33 -95.5t10 -101.5t-10 -103.5 t-34.5 -92.5t-65.5 -66.5t-102 -25.5q-23 0 -42 3.5t-42 10.5zM182 278q0 -26 1.5 -59.5t10 -64t28 -51.5t55.5 -21q30 0 48.5 15.5t29.5 43.5q4 8 5 16t5 16q0 3 1 12t2.5 18.5t2.5 18.5t1 12v39q0 25 -1 59.5t-10 65t-28.5 52t-56.5 21.5q-35 0 -54 -21t-28 -51t-10.5 -63 t-1.5 -58zM434 685q0 -57 -24 -88.5t-64 -31.5q-37 0 -99 38q-19 11 -31 11q-28 0 -32 -45h-62q0 57 26 90q24 29 64 29q35 0 97 -38q19 -12 33 -12q25 0 31 47h61z" />
<glyph unicode="&#xf6;" horiz-adv-x="557" d="M194 2q-2 2 -8 5.5t-13.5 8l-15 9t-10.5 7.5q-25 23 -40.5 51.5t-24.5 60.5t-12 65.5t-3 65.5q0 53 8 103.5t34 96.5q8 6 14.5 16.5t12.5 17.5q28 30 65.5 41.5t77.5 11.5q46 0 76.5 -13t65.5 -40q4 -11 12.5 -19t13.5 -17q23 -46 33 -95.5t10 -101.5t-10 -103.5 t-34.5 -92.5t-65.5 -66.5t-102 -25.5q-23 0 -42 3.5t-42 10.5zM182 278q0 -26 1.5 -59.5t10 -64t28 -51.5t55.5 -21q30 0 48.5 15.5t29.5 43.5q4 8 5 16t5 16q0 3 1 12t2.5 18.5t2.5 18.5t1 12v39q0 25 -1 59.5t-10 65t-28.5 52t-56.5 21.5q-35 0 -54 -21t-28 -51t-10.5 -63 t-1.5 -58zM420 629q0 -24 -17.5 -42t-40.5 -18q-24 0 -41.5 18t-17.5 42q0 25 17.5 42.5t41.5 17.5q23 0 40.5 -18t17.5 -42zM254 629q0 -24 -17.5 -42t-40.5 -18q-24 0 -41.5 18t-17.5 42q0 25 17.5 42.5t41.5 17.5q23 0 40.5 -18t17.5 -42z" />
<glyph unicode="&#xf7;" horiz-adv-x="353" d="M144 417v94h64v-94h-64zM327 290h-303v76h303v-76zM144 145v92h64v-92h-64z" />
<glyph unicode="&#xf8;" horiz-adv-x="557" d="M194 2q-2 2 -8 5.5t-13.5 8l-15 9t-10.5 7.5q-25 23 -40.5 51.5t-24.5 60.5t-12 65.5t-3 65.5q0 53 8 103.5t34 96.5q8 6 14.5 16.5t12.5 17.5q28 30 65.5 41.5t77.5 11.5q46 0 76.5 -13t65.5 -40q4 -11 12.5 -19t13.5 -17q23 -46 33 -95.5t10 -101.5t-10 -103.5 t-34.5 -92.5t-65.5 -66.5t-102 -25.5q-23 0 -42 3.5t-42 10.5zM182 278q0 -26 1.5 -59.5t10 -64t28 -51.5t55.5 -21q30 0 48.5 15.5t29.5 43.5q4 8 5 16t5 16q0 3 1 12t2.5 18.5t2.5 18.5t1 12v39q0 25 -1 59.5t-10 65t-28.5 52t-56.5 21.5q-35 0 -54 -21t-28 -51t-10.5 -63 t-1.5 -58zM349.863 561h90.7695q-46.3506 -108.489 -81.5967 -191.284q-35.2451 -82.7939 -61.8008 -143.819q-26.5547 -61.0254 -44.4189 -103.136q-17.8643 -42.1113 -29.4521 -69.2334q-28.0029 -64.2373 -31.8662 -73.5156h-87.873z" />
<glyph unicode="&#xf9;" horiz-adv-x="543" d="M200 547v-397q0 -1 3 -12t5 -16q8 -20 21.5 -28.5t34.5 -8.5q33 0 49 14.5t25 46.5q0 1 1 3q0 2 0.5 2.5t0.5 1.5q2 5 4 15.5t2 11.5v367h110v-547h-100q-1 2 -1 4q-1 2 -1 7q-2 11 -2 20.5t-3 19.5q-21 -35 -54.5 -49t-72.5 -14q-54 0 -85 22.5t-43 79.5q0 2 -2 13.5 t-2 16.5q-1 5 -2 14.5t-1 11.5v401h113zM377 569h-77l-135 154h126z" />
<glyph unicode="&#xfa;" horiz-adv-x="543" d="M200 547v-397q0 -1 3 -12t5 -16q8 -20 21.5 -28.5t34.5 -8.5q33 0 49 14.5t25 46.5q0 1 1 3q0 2 0.5 2.5t0.5 1.5q2 5 4 15.5t2 11.5v367h110v-547h-100q-1 2 -1 4q-1 2 -1 7q-2 11 -2 20.5t-3 19.5q-21 -35 -54.5 -49t-72.5 -14q-54 0 -85 22.5t-43 79.5q0 2 -2 13.5 t-2 16.5q-1 5 -2 14.5t-1 11.5v401h113zM378 723l-136 -154h-77l87 154h126z" />
<glyph unicode="&#xfb;" horiz-adv-x="543" d="M200 547v-397q0 -1 3 -12t5 -16q8 -20 21.5 -28.5t34.5 -8.5q33 0 49 14.5t25 46.5q0 1 1 3q0 2 0.5 2.5t0.5 1.5q2 5 4 15.5t2 11.5v367h110v-547h-100q-1 2 -1 4q-1 2 -1 7q-2 11 -2 20.5t-3 19.5q-21 -35 -54.5 -49t-72.5 -14q-54 0 -85 22.5t-43 79.5q0 2 -2 13.5 t-2 16.5q-1 5 -2 14.5t-1 11.5v401h113zM415 569h-73l-72 85l-72 -85h-71l96 154h97z" />
<glyph unicode="&#xfc;" horiz-adv-x="543" d="M200 547v-397q0 -1 3 -12t5 -16q8 -20 21.5 -28.5t34.5 -8.5q33 0 49 14.5t25 46.5q0 1 1 3q0 2 0.5 2.5t0.5 1.5q2 5 4 15.5t2 11.5v367h110v-547h-100q-1 2 -1 4q-1 2 -1 7q-2 11 -2 20.5t-3 19.5q-21 -35 -54.5 -49t-72.5 -14q-54 0 -85 22.5t-43 79.5q0 2 -2 13.5 t-2 16.5q-1 5 -2 14.5t-1 11.5v401h113zM413 629q0 -24 -17.5 -42t-40.5 -18q-24 0 -41.5 18t-17.5 42q0 25 17.5 42.5t41.5 17.5q23 0 40.5 -18t17.5 -42zM247 629q0 -24 -17.5 -42t-40.5 -18q-24 0 -41.5 18t-17.5 42q0 25 17.5 42.5t41.5 17.5q23 0 40.5 -18t17.5 -42z " />
<glyph unicode="&#xfd;" horiz-adv-x="475" d="M67 -122h10.5t16.5 0.5t16.5 0.5h10.5q16 1 26 11.5t16 25t9.5 30t5.5 27.5v3v4q0 2 -1 7t-2 7l-141 553h116l88 -417l2 2l85 415h116l-124 -490v-16q-2 -5 -5.5 -18.5t-8 -28.5t-8.5 -28.5t-5 -18.5q-10 -36 -21.5 -66t-30 -52t-45.5 -34t-69 -12h-25.5t-24.5 2 q-2 1 -4.5 1.5t-2.5 1.5v90v0zM344 723l-136 -154h-77l87 154h126z" />
<glyph unicode="&#xfe;" horiz-adv-x="357" d="M43 -185v849h56v-234q23 35 40 47q23 15 52 15q41 0 74 -32t49.5 -89.5t16.5 -126.5q0 -75 -18.5 -133t-53.5 -90t-72 -32q-27 0 -49 15q-16 12 -39 46v-235h-56zM93 238q0 -93 26.5 -137t63.5 -44t64 45.5t27 142.5q0 92 -26 137.5t-62 45.5q-38 0 -65.5 -48.5 t-27.5 -141.5z" />
<glyph unicode="&#xff;" horiz-adv-x="475" d="M67 -122h10.5t16.5 0.5t16.5 0.5h10.5q16 1 26 11.5t16 25t9.5 30t5.5 27.5v3v4q0 2 -1 7t-2 7l-141 553h116l88 -417l2 2l85 415h116l-124 -490v-16q-2 -5 -5.5 -18.5t-8 -28.5t-8.5 -28.5t-5 -18.5q-10 -36 -21.5 -66t-30 -52t-45.5 -34t-69 -12h-25.5t-24.5 2 q-2 1 -4.5 1.5t-2.5 1.5v90v0zM379 629q0 -24 -17.5 -42t-40.5 -18q-24 0 -41.5 18t-17.5 42q0 25 17.5 42.5t41.5 17.5q23 0 40.5 -18t17.5 -42zM213 629q0 -24 -17.5 -42t-40.5 -18q-24 0 -41.5 18t-17.5 42q0 25 17.5 42.5t41.5 17.5q23 0 40.5 -18t17.5 -42z" />
<glyph unicode="&#x152;" horiz-adv-x="688" d="M657 0h-301v60q-45 -71 -117 -71q-99 0 -150 100q-47 90 -47 245t47 246q51 101 151 101q84 0 116 -75v64h289v-91h-216v-179h141v-90h-141v-219h228v-91zM345 334q0 106 -24 173q-28 80 -83 80q-102 0 -102 -251q0 -106 23 -173q27 -80 83 -80q103 0 103 251z" />
<glyph unicode="&#x153;" horiz-adv-x="679" d="M642 253q0 -23 -1 -33h-257q8 -142 93 -142q49 0 89 37l55 -59q-59 -67 -146 -67q-94 0 -132 82q-41 -82 -132 -82q-80 0 -126 65q-48 67 -48 195q0 129 47 198q46 66 130 66q89 0 128 -80q42 80 127 80q77 0 124 -64q49 -70 49 -196zM551 300q-2 57 -24 92t-60 35 q-71 0 -82 -127h166zM300 251q0 174 -87 174q-86 0 -86 -174q0 -173 87 -173q41 0 63.5 46.5t22.5 126.5z" />
<glyph unicode="&#x178;" horiz-adv-x="483" d="M187 248q-43 105 -83.5 209t-83.5 213h122l103 -308l102 308h116q-7 -19 -18.5 -50.5t-26.5 -69.5t-31.5 -80t-32 -81.5t-29.5 -73.5t-23 -56v-259h-115v248v0zM383 541q0 -24 -17.5 -42t-40.5 -18q-24 0 -41.5 18t-17.5 42q0 25 17.5 42.5t41.5 17.5q23 0 40.5 -18 t17.5 -42zM217 541q0 -24 -17.5 -42t-40.5 -18q-24 0 -41.5 18t-17.5 42q0 25 17.5 42.5t41.5 17.5q23 0 40.5 -18t17.5 -42z" />
<glyph unicode="&#x2c6;" d="M331 569h-73l-72 85l-72 -85h-71l96 154h97z" />
<glyph unicode="&#x2dc;" d="M346 685q0 -57 -24 -88.5t-64 -31.5q-37 0 -99 38q-19 11 -31 11q-28 0 -32 -45h-62q0 57 26 90q24 29 64 29q35 0 97 -38q19 -12 33 -12q25 0 31 47h61z" />
<glyph unicode="&#x2013;" horiz-adv-x="376" d="M343 305h-306v90h306v-90z" />
<glyph unicode="&#x2014;" horiz-adv-x="515" d="M478 305h-441v90h441v-90z" />
<glyph unicode="&#x2018;" horiz-adv-x="227" d="M169 670l-13 -229h-111l63 229h61z" />
<glyph unicode="&#x2019;" horiz-adv-x="227" d="M182 670l-63 -229h-61l12 229h112z" />
<glyph unicode="&#x201a;" horiz-adv-x="227" d="M182 121l-63 -229h-61l12 229h112z" />
<glyph unicode="&#x201c;" horiz-adv-x="428" d="M370 670l-12 -229h-112l63 229h61zM169 670l-13 -229h-111l63 229h61z" />
<glyph unicode="&#x201d;" horiz-adv-x="428" d="M383 670l-63 -229h-61l13 229h111zM182 670l-63 -229h-61l12 229h112z" />
<glyph unicode="&#x201e;" horiz-adv-x="428" d="M383 121l-63 -229h-61l13 229h111zM182 121l-63 -229h-61l12 229h112z" />
<glyph unicode="&#x2022;" d="M328 350q0 -60 -41 -101.5t-100 -41.5t-99.5 41.5t-40.5 101.5q0 61 40.5 103.5t99.5 42.5t100 -42.5t41 -103.5z" />
<glyph unicode="&#x2026;" horiz-adv-x="652" d="M610 57q0 -28 -19.5 -48t-47.5 -20t-47 20t-19 48q0 29 19 49t47 20t47.5 -20t19.5 -49zM392 57q0 -28 -19 -48t-47 -20t-47.5 20t-19.5 48q0 29 19.5 49t47.5 20t47 -20t19 -49zM175 57q0 -28 -19 -48t-47 -20t-47.5 20t-19.5 48q0 29 19.5 49t47.5 20t47 -20t19 -49z " />
<glyph unicode="&#x2039;" horiz-adv-x="279" d="M237 0h-92l-126 251l126 251h92l-122 -250z" />
<glyph unicode="&#x203a;" horiz-adv-x="279" d="M260 252l-126 -252h-92l122 251l-122 251h92z" />
<glyph unicode="&#x20ac;" horiz-adv-x="436" d="M297 601q-53 0 -89 -37q-21 -22 -39 -63q-17 -40 -21 -78h215l-10 -60h-209q-2 -10 -2 -18q0 -35 2 -42h201l-9 -60h-186q14 -104 63 -148q38 -32 79 -32q59 0 91 45v-93q-39 -26 -86 -26q-143 0 -192 170q-9 34 -16 84h-49l9 60h33q-1 19 -1 41v19h-41l9 60h36 q20 148 102 212q50 40 112 40q57 0 97 -36l-13 -85q-38 47 -86 47z" />
<glyph unicode="&#x2122;" horiz-adv-x="538" d="M505 294h-53v152q0 11 1 43v42q-6 -23 -26 -89l-48 -157l-48 157q-9 32 -25 85q0 -11 1 -41v-40v-152h-51v376h55l48 -157q9 -28 22 -78q5 27 21 80l47 155h56v-376zM206 615h-66v-321h-54v321h-68v55h188v-55z" />
<glyph unicode="&#x25fc;" horiz-adv-x="550" d="M0 550h550v-550h-550v550z" />
</font>
</defs>
</svg>
