<?xml version="1.0" standalone="no"?>
<!DOCTYPE svg PUBLIC "-//W3C//DTD SVG 1.1//EN" "http://www.w3.org/Graphics/SVG/1.1/DTD/svg11.dtd" >
<svg xmlns="http://www.w3.org/2000/svg" xmlns:xlink="http://www.w3.org/1999/xlink" version="1.1">
<metadata></metadata>
<defs>
<font id="roadgeek_2005_series_4bRg" horiz-adv-x="495" >
<font-face units-per-em="1000" ascent="800" descent="-200" />
<missing-glyph horiz-adv-x="246" />
<glyph horiz-adv-x="0" />
<glyph horiz-adv-x="333" />
<glyph d="M432 723q-10 -73 -59 -113.5t-127 -40.5t-125.5 40.5t-58.5 113.5h83q19 -63 103 -63q85 0 104 63h80z" />
<glyph d="M324 643q0 -29 -23 -51.5t-54 -22.5t-54.5 22.5t-23.5 51.5q0 31 23.5 53t54.5 22t54 -22t23 -53z" />
<glyph d="M381 697q0 -56 -38 -92t-96 -36q-57 0 -95 36t-38 92q0 55 38 92t95 37q58 0 96 -37t38 -92zM306 697q0 24 -17 40.5t-42 16.5q-24 0 -41 -16.5t-17 -40.5t17 -41t41 -17q25 0 42 17t17 41z" />
<glyph unicode="&#xa;" d="M509 723l-144 -154h-116l86 154h174zM291 723l-144 -154h-115l86 154h173z" />
<glyph d="M375 -140q-61 -45 -125 -45q-99 0 -99 80q0 56 76 105h59q-51 -56 -51 -95q0 -29 35 -29q37 0 79 23z" />
<glyph d="M437 723l-120 -154h-139l-121 154h92l99 -72l99 72h90z" />
<glyph unicode="&#xd;" horiz-adv-x="363" d="M118 549h130v-549h-130v549v0z" />
<glyph horiz-adv-x="560" d="M397 788h111l-339 -817h-117z" />
<glyph horiz-adv-x="785" d="M59 429v107h70q0 42 2 69t6.5 44.5t12.5 29.5t21 24q20 19 51.5 23.5t60.5 4.5h25.5t27 -0.5t21.5 -1t9 -1.5l3 -2v-96q-12 0 -23.5 1.5t-23.5 1.5q-21 0 -33.5 -4.5t-19 -13t-8 -21t-1.5 -27.5v-31h99v-107h-96v-429h-133v429h-71zM670 549v-549h-130v549h130zM523 685 q0 37 24 54t58 17q32 0 55.5 -18t23.5 -52q0 -37 -24 -53.5t-56 -16.5q-35 0 -58 15.5t-23 53.5z" />
<glyph horiz-adv-x="807" d="M59 429v107h70q0 42 2 69t6.5 44.5t12.5 29.5t21 24q20 19 51.5 23.5t60.5 4.5h25.5t27 -0.5t21.5 -1t9 -1.5l3 -2v-96q-12 0 -23.5 1.5t-23.5 1.5q-21 0 -33.5 -4.5t-19 -13t-8 -21t-1.5 -27.5v-31h99v-107h-96v-429h-133v429h-71zM669 725v-605q0 -5 8.5 -11t13.5 -6 h56v-104l-2 -2q-1 -2 -13.5 -3.5t-19.5 -1.5q-44 0 -77 2t-55 12t-33.5 29.5t-11.5 54.5v635h134z" />
<glyph horiz-adv-x="570" d="M121 670h136v-557h239v-113h-375v670v0zM375.947 668.908h120.492l-367.988 -369.006h-127.005z" />
<glyph horiz-adv-x="385" d="M247 725v-605q0 -5 8.5 -11t13.5 -6h56v-104l-2 -2q-1 -2 -13.5 -3.5t-19.5 -1.5q-44 0 -77 2t-55 12t-33.5 29.5t-11.5 54.5v635h134zM291.314 724.958h93.4736l-285.473 -424.009h-98.5264z" />
<glyph horiz-adv-x="603" d="M356 554h-265v116h431v-105l-287 -454h294v-111h-455v102q0 2 3 5zM491 854l-120 -154h-139l-121 154h92l99 -72l99 72h90z" />
<glyph horiz-adv-x="507" d="M286 439h-221v105h379v-100q-1 -1 -3 -4l-9 -13.5t-20.5 -32t-38 -59t-61.5 -93.5t-91 -136h226v-106h-387v95zM443 723l-120 -154h-139l-121 154h92l99 -72l99 72h90z" />
<glyph unicode=" "  horiz-adv-x="246" />
<glyph unicode="&#x09;" horiz-adv-x="246" />
<glyph unicode="&#xa0;" horiz-adv-x="246" />
<glyph unicode="!" horiz-adv-x="392" d="M113 57q0 35 25 53.5t58 18.5t58 -18t25 -53t-25.5 -53t-57.5 -18t-57.5 17.5t-25.5 52.5zM123 671h148l-19 -475h-110z" />
<glyph unicode="&#x22;" horiz-adv-x="609" d="M141 682h144l-91 -228l-2 -2h-89zM324 452l39 230h143l-96 -230h-86v0z" />
<glyph unicode="#" horiz-adv-x="752" d="M195 236h-101l12 98h104l14 123h-104l14 96h105l3 24t4.5 34t4.5 33.5t4 23.5h100l-13 -114h118l16 114h103l-17 -115h96l-15 -96h-95l-19 -123h103l-13 -98h-104l-18 -122h-103l16 121h-110l-20 -121h-100zM329 456q0 -7 -2.5 -26t-5.5 -39t-5.5 -37t-2.5 -19h114 l17 121h-115v0z" />
<glyph unicode="$" horiz-adv-x="574" d="M112 188q1 0 1 1l1 1q3 1 7.5 -2t6.5 -5q36 -22 75 -37.5t83 -15.5q16 0 33 3.5t31 11.5t23 21t9 32q0 26 -17 43t-39 28q-44 20 -87.5 37.5t-66.5 32.5t-40 29.5t-28.5 31t-17 37.5t-5.5 49q0 38 11 65.5t30.5 46t47 31t61.5 20.5v74h121v-74l20.5 -4t44.5 -10 t44.5 -13.5t20.5 -16.5q0 -8 -2.5 -14t-5.5 -12q-3 -7 -7 -19.5t-8.5 -25t-8.5 -21.5t-6 -9h-2q-35 18 -68.5 30t-73.5 12q-14 0 -30 -2t-29 -8t-21.5 -17t-8.5 -29q0 -17 8.5 -28.5t21.5 -19t27.5 -13t26.5 -11.5q34 -16 68.5 -30t63.5 -33t50.5 -46t29.5 -68 q0 -49 -7.5 -84.5t-26 -60t-48.5 -40t-75 -24.5v-79h-121v79q-17 4 -28.5 5.5t-22 3.5t-23.5 6t-32 13q-2 1 -11 5t-19 9t-18 9.5t-8 6.5v3z" />
<glyph unicode="%" horiz-adv-x="886" d="M418 484q0 -65 -36 -111q-40 -53 -110 -53q-69 0 -110 52q-35 46 -35 112q0 65 35 111q41 53 110 53q70 0 110 -52q36 -46 36 -112zM744 648l-478 -656h-89l478 656h89zM795 156q0 -65 -35 -111q-41 -53 -110 -53q-70 0 -111 52q-35 46 -35 112q0 65 35 111q41 53 111 53 q69 0 110 -52q35 -46 35 -112zM334 484q0 42 -10 64q-15 33 -52 33q-35 0 -48.5 -28t-13.5 -69q0 -42 10 -64q15 -33 52 -33q36 0 51 32q11 24 11 65zM712 156q0 42 -11 64q-15 33 -51 33t-49.5 -28t-13.5 -69q0 -42 11 -64q15 -33 52 -33q35 0 50 32q12 24 12 65z" />
<glyph unicode="&#x26;" horiz-adv-x="688" d="M115 84q-28 56 -28 119q0 36 11.5 72t40.5 61q23 20 48 28q-5 8 -14.5 12t-17.5 11q-24 21 -35.5 48t-11.5 69q0 47 16.5 80.5t45 55.5t66.5 32t82 10q35 0 67 -7t65 -18v-6.5t-2 -5.5q-5 -12 -9.5 -27.5t-8.5 -29t-7.5 -23t-5.5 -9.5q-4 0 -4 1q-20 8 -40.5 13t-43.5 5 q-40 0 -66.5 -20t-26.5 -62q0 -26 16 -46t42 -25q11 -2 14.5 -2t11.5 -3h117v79h124v-80h80v-109h-80v-120q0 -2 -3 -17t-5 -23q-22 -86 -80.5 -122t-145.5 -36q-54 0 -101 14.5t-87 50.5q-8 7 -12 16t-12 14zM215 211q0 -113 112 -113q48 0 77.5 24.5t29.5 75.5v107h-149 q-19 0 -32.5 -9t-21.5 -22.5t-12 -30t-4 -32.5z" />
<glyph unicode="'" horiz-adv-x="334" d="M82 440l38 247h139l-88 -247h-89v0z" />
<glyph unicode="(" horiz-adv-x="365" d="M146 -59q-31 97 -47 194t-16 199q0 99 16.5 194.5t46.5 189.5l1 2q0 1 1 2q1 4 4.5 13t7.5 19.5t7 20t5 13.5h4l9.5 -2.5t22.5 -6t27 -7t23 -5.5q1 -1 6 -2.5t5 -3.5v-1l-27 -107q-7 -12 -8.5 -25t-3.5 -27q-13 -68 -18.5 -136t-5.5 -137v-19.5v-25t0.5 -22.5t0.5 -11 q0 -9 2 -32t4.5 -49t5 -49.5t4.5 -32.5q5 -35 14 -69q0 -2 1 -3q0 -1 1 -2t1.5 -3.5t1.5 -3.5q3 -12 7 -30.5t9 -35.5q5 -20 11 -41v-2l-93 -26h-4q-1 0 -2.5 4.5l-2.5 7.5q-4 10 -9 28.5t-12 29.5z" />
<glyph unicode=")" horiz-adv-x="357" d="M94 -101q1 6 5 20.5t8 31t7.5 31t5.5 20.5q2 7 2 11t3 10q14 77 22 152.5t8 153.5q0 112 -17 217t-44 212v1v1q2 2 3 2l86 24h2q3 0 5.5 -6.5t5.5 -14.5t5.5 -15.5t4.5 -10.5q34 -102 52 -203t18 -208t-18 -209t-52 -203q-3 -4 -5.5 -12t-4.5 -15.5t-4.5 -13.5t-5.5 -6 h-1q-3 1 -12 3t-19 5t-19 5t-13 3q-6 2 -17 5.5t-11 4.5v4v0z" />
<glyph unicode="*" horiz-adv-x="486" d="M113 455q0 3 7.5 10.5t18 17.5t23 20.5t23.5 21.5l-2 2l-103 12q6 24 14.5 46.5t16.5 46.5h9q4 -2 14.5 -7.5t22.5 -11.5t22.5 -11t14.5 -7q2 -1 6 -2.5t6 -2.5v12l-14 72v14h105v-3q0 -2 -2 -13t-4 -25.5t-5 -30t-6 -26.5h3l90 44l2 1q2 0 7 -15t10.5 -32.5t9.5 -32 l4 -14.5l-100 -14l-2 -2q17 -18 34.5 -34t34.5 -34l1 -2q0 -3 -10 -11.5t-23.5 -18t-26.5 -17.5t-20 -11h-2l-46 88q0 1 -2 1q-4 -9 -11.5 -24.5t-15 -29.5t-14 -24.5t-8.5 -10.5q-3 0 -9 4t-13 8.5t-13 9t-8 6.5q-2 1 -7.5 5t-11.5 8.5t-12 8.5t-8 6v2z" />
<glyph unicode="+" horiz-adv-x="621" d="M251 276h-164v114h164v159h121v-159h162v-114h-162v-169h-121v169v0z" />
<glyph unicode="," horiz-adv-x="334" d="M120 105h139v-5q-12 -33 -23 -65.5t-23 -64.5q-1 -4 -2 -8.5t-3 -8.5l-33 -88q0 -2 -1 -4q-2 -3 -3 -3h-89z" />
<glyph unicode="-" horiz-adv-x="466" d="M113 435h240v-114h-240v114v0z" />
<glyph unicode="." horiz-adv-x="327" d="M82 58q0 35 25 52.5t57 17.5q35 0 58 -16.5t23 -53.5t-24.5 -53.5t-56.5 -16.5q-33 0 -57.5 17.5t-24.5 52.5z" />
<glyph unicode="/" horiz-adv-x="560" d="M397 788h111l-339 -817h-117z" />
<glyph unicode="0" horiz-adv-x="717" d="M94 337q0 55 8 111t34 105q9 6 12 16.5t9 18.5q37 45 84 69t116 24q76 0 127 -29t82 -77t44 -110.5t13 -129.5q0 -2 -0.5 -6t-0.5 -7v-8q-6 -91 -27 -153.5t-55 -100.5t-80.5 -55t-101.5 -17q-77 0 -128 29t-81 78t-42.5 111.5t-12.5 130.5zM229 333q0 -33 3 -73.5 t15.5 -76.5t38.5 -60t71 -24q46 0 72.5 24t39.5 59.5t16 76.5t3 76q0 34 -3 75t-16 76.5t-39 59.5t-72 24t-72 -24t-38.5 -59.5t-15.5 -77t-3 -76.5z" />
<glyph unicode="1" horiz-adv-x="457" d="M213 503q3 3 -10.5 -10t-33 -30.5t-38.5 -32t-27 -14.5q-17 20 -29 43.5t-25 45.5q-2 3 -2.5 4t-0.5 3t3 4q32 28 64 54t64 53q14 11 30 23t28 26h107v-672h-128v503h-2z" />
<glyph unicode="2" horiz-adv-x="594" d="M67 113q0 2 5 8t13 14t17.5 17t18.5 18l4 2l140 135q14 13 32 33.5t34 44.5t27.5 51t11.5 54q0 36 -22.5 58t-58.5 22q-38 0 -69 -18t-60 -43q-1 -4 -8 -10t-11 -6q-2 0 -8 7.5t-13 17t-13 18.5t-9 13q-8 8 -17 19.5t-9 17.5q0 4 2 7q42 35 85 58t104 31q53 0 97.5 -8 t76 -29t49 -58t17.5 -95q0 -20 -2 -37.5t-8 -35.5q0 -1 -1 -2.5t-1 -2.5q-18 -48 -48.5 -89t-67.5 -77t-77 -68.5t-79 -64.5h288v-115h-423q-5 28 -11 56.5t-6 56.5z" />
<glyph unicode="3" horiz-adv-x="597" d="M60 55q0 5 2.5 10t4.5 10l45 79h2q37 -22 72.5 -37.5t78.5 -15.5q52 0 82 24.5t30 77.5q0 16 -4 32.5t-13 30t-24.5 22.5t-37.5 9h-103v108q24 0 52.5 1t53.5 9t42 25t17 50q0 32 -18 53t-49 28q-44 0 -73.5 -7.5t-63.5 -25.5q-7 -4 -16 -12.5t-16 -8.5q-15 22 -27 40 q-11 16 -19.5 30.5t-10.5 20.5v4q88 70 218 70q38 0 75 -9t66 -30.5t47 -57t18 -87.5q0 -40 -9.5 -66.5t-41.5 -53.5q-5 -5 -14.5 -10t-9.5 -7q1 -1 6 -4t11.5 -6.5l13 -7t9.5 -5.5q16 -12 26.5 -27.5t16.5 -33.5t8.5 -37.5t2.5 -38.5q0 -56 -18 -96t-50.5 -65.5t-76.5 -38 t-95 -12.5t-95 11.5t-89 35.5q-6 3 -14 7.5t-12 11.5z" />
<glyph unicode="4" horiz-adv-x="644" d="M91 136l-3 4q-1 4 -5.5 17.5l-9.5 28.5t-9 29t-4 21q0 5 2.5 11.5t7.5 8.5l69 107l140 216q7 14 12.5 22t11.5 16.5t14.5 20.5t21.5 34h141v-422h90v-114h-90v-136h-135v136h-254zM246 340q0 -1 0.5 -1t0.5 -1l-1 -1q-11 -23 -25.5 -43t-25.5 -43h154q0 32 0.5 58.5 t0.5 55.5t0.5 64t0.5 85l-37 -60q0 -2 -1 -4t-1 -3q-16 -27 -32.5 -54t-33.5 -53z" />
<glyph unicode="5" horiz-adv-x="607" d="M166 3q-4 3 -18 8t-29 12.5t-27 15.5t-12 17l33 61q3 2 5.5 7t4.5 10.5t5 10t7 4.5q32 -23 64 -36t71 -13q63 0 91.5 36t28.5 96q0 54 -26.5 89t-83.5 35q-33 0 -60 -15t-47 -41h-7q-2 4 -16 13t-29.5 19.5t-27 20.5t-8.5 17l28 184q0 -5 2 7t5 31.5t6.5 40.5l5.5 33l2 4 h346v-113h-241l-24 -131q1 0 2.5 1t2.5 1q26 16 49 23.5t54 7.5q51 0 88 -17.5t61 -47.5t36 -71.5t12 -89.5q0 -81 -31 -138.5t-106 -89.5q-13 -5 -28.5 -9.5t-29.5 -4.5h-96q-2 0 -8.5 1t-16 2.5t-20 3.5t-18.5 5z" />
<glyph unicode="6" horiz-adv-x="651" d="M176 41q-26 26 -42 58t-25 67.5t-12 72t-3 71.5q0 69 11 135t40.5 117.5t81.5 83.5t133 32q43 0 77.5 -9t73.5 -26l8 -4t6 -8q-5 -14 -12 -24.5t-12 -21.5q-2 -8 -6.5 -16.5t-9 -15.5t-7.5 -12t-2 -5h-2q-26 15 -52.5 24t-57.5 9q-41 0 -67.5 -16t-42 -42.5t-21.5 -60.5 t-6 -70q20 34 56.5 47.5t73.5 13.5q51 0 89.5 -16t64.5 -45t39.5 -70t13.5 -91q0 -30 -6 -61t-19.5 -58.5t-34 -50t-49.5 -36.5q-20 -10 -40.5 -18t-41.5 -8h-76q-18 0 -39 7.5t-39 16.5t-30.5 18t-12.5 12zM234 216q0 -25 6 -46.5t18 -38t31.5 -26t46.5 -9.5 q38 0 57.5 15.5t35.5 49.5v3q4 4 6.5 12.5t3 17.5t0.5 16v10q0 15 -4.5 34.5t-13.5 36.5t-23.5 28.5t-33.5 11.5h-53q-5 0 -15 -4.5t-13 -6.5q-28 -17 -38.5 -45t-10.5 -59z" />
<glyph unicode="7" horiz-adv-x="574" d="M61 555v113h433l19 -109l-59 -59q-9 -15 -22 -27.5t-24 -28.5q-18 -26 -32.5 -56t-25 -60t-16 -58.5t-5.5 -50.5l-9 -219h-137q0 57 2.5 111.5t10.5 108t23.5 105.5t41.5 103q19 36 45.5 67t54.5 60h-300z" />
<glyph unicode="8" horiz-adv-x="665" d="M227 -1q-12 7 -25.5 11t-25.5 12q-46 29 -64 74.5t-18 97.5q0 54 21 97t77 64v2q-20 13 -36.5 25.5t-28.5 34.5q-14 23 -15.5 44t-1.5 38q0 50 17 84.5t47 55.5t70.5 30t87.5 9q45 0 85.5 -9.5t71 -30.5t48.5 -55.5t18 -83.5q0 -60 -24.5 -92.5t-59.5 -49.5 q5 -8 18.5 -13t21.5 -10q35 -24 47.5 -61.5t12.5 -78.5q0 -29 -4.5 -57.5t-18.5 -54.5q-11 -20 -31 -37.5t-44 -30.5t-49 -20t-46 -7h-45.5t-36.5 1t-33.5 3.5t-35.5 7.5zM227 191q0 -53 25.5 -76.5t79.5 -23.5h26t25 5q32 13 44 38.5t12 57.5q0 20 -4.5 39t-16.5 33.5 t-32.5 23.5t-51.5 9q-54 0 -80.5 -24t-26.5 -82zM241 490q0 -45 24 -67t67 -22q48 0 69.5 22t21.5 68q0 45 -22 63.5t-67 18.5q-42 0 -67.5 -18t-25.5 -65z" />
<glyph unicode="9" horiz-adv-x="656" d="M129 39q0 2 7.5 17t17 31.5t18 30t11.5 13.5q30 -18 54.5 -27.5t59.5 -9.5q42 0 68 16t41 43t20.5 62t5.5 72q-5 -4 -11 -12.5t-8 -10.5q-16 -19 -39 -29t-47 -13q-23 0 -45 1t-43 5t-40.5 13t-36.5 25q-11 11 -22 25.5t-18 18.5q0 1 -1 1.5t-1 1.5q-15 32 -24 63.5 t-9 66.5q0 42 13.5 86.5t42.5 73.5q33 36 77 55.5t101 19.5q20 0 40 -2.5t40 -6.5q9 -5 26.5 -15t27.5 -11q34 -30 55.5 -64t32.5 -72.5t15 -80t4 -84.5q0 -45 -3 -86t-13.5 -78.5t-30 -72t-51.5 -67.5q-30 -18 -60 -34.5t-68 -16.5h-81q-35 0 -68.5 15.5t-57.5 35.5v1v0z M217 446q0 -51 23 -81.5t78 -30.5q53 0 77.5 31.5t24.5 83.5q0 51 -23.5 84.5t-77.5 33.5q-27 0 -46.5 -10t-32 -26.5t-18 -38.5t-5.5 -46z" />
<glyph unicode=":" horiz-adv-x="323" d="M81 57q0 35 25 52.5t57 17.5t55.5 -17.5t23.5 -52.5t-24 -52.5t-56 -17.5q-34 0 -57.5 17t-23.5 53zM81 403q0 35 25 54t57 19q30 0 54.5 -18t24.5 -51q0 -37 -28 -62q-5 -5 -12.5 -6.5t-13.5 -4.5h-51q-12 0 -22.5 7t-18 17.5t-11.5 22.5t-4 22z" />
<glyph unicode=";" horiz-adv-x="334" d="M120 105h139v-5q-12 -33 -23 -65.5t-23 -64.5q-1 -4 -2 -8.5t-3 -8.5l-33 -88q0 -2 -1 -4q-2 -3 -3 -3h-89zM120 403q0 35 25 54t57 19q30 0 54.5 -18t24.5 -51q0 -37 -28 -62q-5 -5 -12.5 -6.5t-13.5 -4.5h-51q-12 0 -22.5 7t-18 17.5t-11.5 22.5t-4 22z" />
<glyph unicode="&#x3c;" horiz-adv-x="445" d="M384 27l-328 257v90l328 258v-165l-185 -137l185 -138v-165z" />
<glyph unicode="=" horiz-adv-x="619" d="M113 360h393v-112h-393v112v0zM113 569h393v-112h-393v112v0z" />
<glyph unicode="&#x3e;" horiz-adv-x="445" d="M389 284l-328 -257v164l185 137l-185 138v166l328 -258v-90z" />
<glyph unicode="?" horiz-adv-x="556" d="M163 58q0 10 4 22t11.5 22t18.5 16.5t24 6.5h49q7 0 16.5 -5t18 -12.5t14 -16t5.5 -15.5v-37q0 -8 -6 -17t-14.5 -16.5t-18 -12.5t-17.5 -5h-47q-58 15 -58 70zM354 482q0 45 -24.5 65.5t-66.5 20.5q-38 0 -69.5 -14t-60.5 -38q-5 -1 -7 4t-2 8l-45 81v7q0 1 5.5 4.5 t13 8t15.5 8.5t13 7q38 19 75.5 27t80.5 8q41 0 79 -9t70 -38q33 -30 43 -67t10 -75q0 -44 -11.5 -74t-39.5 -60q-5 -6 -11.5 -10.5t-11.5 -10.5l-82 -49q-5 -3 -12.5 -11.5t-7.5 -16.5v-70h-122v109q0 25 21 42.5t48.5 32t54 30t37.5 37.5q5 10 6 21t1 22z" />
<glyph unicode="@" horiz-adv-x="817" d="M86 330q0 100 40.5 180t118.5 127q47 23 93.5 37t100.5 14q44 0 85.5 -10t77.5 -30.5t64.5 -51.5t45.5 -73q7 -17 13 -39t6 -40v-91q0 -36 -13.5 -72.5t-36.5 -65t-55 -46.5t-69 -18q-26 0 -45 10.5t-35 42.5q-18 -27 -47.5 -38t-60.5 -11q-36 0 -59.5 13.5t-37 35.5 t-18.5 50t-5 56q0 44 10.5 87.5t40.5 76.5q26 29 53 39t56 10q50 0 77 -39l5 27h92l-31 -272q-2 -11 8 -17t18 -6q21 0 36 12t25 30t16 39t8.5 38.5t3.5 29l1 11.5q0 59 -13.5 106t-41.5 79.5t-71 49.5t-102 17q-66 0 -119 -22.5t-90 -62.5t-57 -95t-20 -120q0 -62 16 -114 t48 -89.5t80 -58t113 -20.5q27 0 56 4t54 15q3 1 15 8t25 15t24 14.5t12 6.5q4 0 9 -6.5t9.5 -14.5t8 -16.5t4.5 -11.5v-2q0 -1 -5 -6.5t-9 -7.5q-46 -32 -100 -44t-109 -12q-78 0 -137.5 24.5t-100 69.5t-61 108t-20.5 140zM342 306q0 -15 2.5 -28.5t8.5 -24t16.5 -17 t27.5 -6.5q27 0 43 19t23.5 45t9.5 54t2 46q0 24 -14 37t-39 13q-26 0 -42 -14t-24.5 -35t-11 -45t-2.5 -44z" />
<glyph unicode="A" horiz-adv-x="714" d="M275 670h159l227 -670h-146q-2 0 -8 19t-13.5 43t-14.5 47.5t-11 32.5q0 2 -2 2h-223l-44 -139q-1 -1 -1 -1.5t-1 -1.5t-1 -2h-143zM270 261h168l-84 281l-2 -2z" />
<glyph unicode="B" horiz-adv-x="697" d="M126 665q2 2 17.5 3.5t37 2.5t46.5 1.5t46 2.5q71 0 130 -5t101.5 -23.5t66 -54t23.5 -96.5q0 -57 -21 -89.5t-72 -55.5q65 -17 90.5 -58.5t25.5 -107.5q0 -30 -4 -53.5t-14 -42.5t-26.5 -35t-41.5 -31q-4 -3 -16.5 -6.5t-26.5 -7.5t-26 -6.5t-15 -2.5h-326v663zM387 100 q22 3 39 8.5t28.5 16t17 27t5.5 41.5v17t-2 18q-1 5 -7 14.5t-5 11.5q-14 18 -32.5 26.5t-39.5 11t-42.5 2t-42.5 -0.5h-24t-26 -2v-191h131zM373 393q44 0 64 22t20 64q0 29 -9 46.5t-25 27t-37.5 12.5t-46.5 3q-23 0 -40 -0.5t-40 -2.5v-172h114z" />
<glyph unicode="C" horiz-adv-x="667" d="M162 85q-1 3 -4.5 9t-8 12.5t-8.5 12t-5 6.5q-9 15 -16.5 35.5t-13 42t-9 43t-3.5 39.5v103q0 22 6 48.5t15 51.5t19.5 46t20.5 33q15 18 27.5 32t27.5 25.5t35 22t49 22.5q4 4 16.5 6.5t26.5 4t28 1.5h22q42 0 77 -9t72 -31q6 -3 18.5 -12t25.5 -19.5t22.5 -20 t8.5 -13.5q0 -1 -9.5 -13.5t-22 -28t-26 -29t-21.5 -17.5h-3q-31 33 -62.5 55t-77.5 22q-47 0 -77 -21t-47 -54t-24 -73.5t-7 -79.5q0 -40 7 -81.5t25 -75t49 -55t79 -21.5q35 0 65 14t56 37q7 5 13.5 15.5t15.5 10.5q5 0 9.5 -6t6.5 -11l53 -69v-10q-50 -51 -107.5 -73 t-124.5 -22q-71 0 -121.5 22t-97.5 73z" />
<glyph unicode="D" horiz-adv-x="726" d="M151 672q7 1 34 2.5t57 3t55 2t30 0.5q45 0 79 -6t66 -20q52 -25 85 -59.5t51 -76t24.5 -88t6.5 -94.5q0 -27 -3 -48t-7 -39.5t-8 -36.5t-7 -40q-11 -20 -21.5 -39t-23.5 -35.5t-29 -31t-38 -26.5q-30 -17 -65.5 -28.5t-69.5 -11.5h-247v668zM260 112q2 -1 13 -1h16h10.5 h13.5t12.5 0.5t6.5 0.5q53 0 85.5 21t50.5 54.5t24 74t6 79.5q0 36 -4.5 74.5t-19 70.5t-41.5 55t-71 29h-67h-21t-19 -2v-454z" />
<glyph unicode="E" horiz-adv-x="610" d="M518 670v-115h-259v-150h236v-116h-236v-174h271v-115h-409v670h397z" />
<glyph unicode="F" horiz-adv-x="585" d="M511 670v-115h-252v-155h227v-116h-229v-284h-136v670h390z" />
<glyph unicode="G" horiz-adv-x="729" d="M278 4q-54 21 -90.5 54.5t-59 76.5t-32 93.5t-9.5 105.5q0 69 17 132t53 110.5t92 76t134 28.5q57 0 105 -19.5t93 -55.5q3 0 10.5 -8.5t7.5 -9.5q0 -2 -10.5 -16.5t-24 -31t-26 -30t-16.5 -13.5q-3 0 -7 3t-7.5 6.5t-6.5 7t-4 4.5q-26 23 -52.5 35t-60.5 12 q-48 0 -78 -21.5t-47.5 -54.5t-23.5 -74t-6 -80q0 -41 5.5 -83t22 -76.5t46.5 -56.5t80 -22q37 0 62 12.5t39 35t20 52t6 64.5h-127v111h259q0 -38 -0.5 -77.5t-6 -78t-17.5 -75t-35 -67.5q-29 -37 -71 -60.5t-90 -23.5h-83q-1 0 -9.5 1t-19 3t-19.5 4t-11 4l-2 2v0z" />
<glyph unicode="H" horiz-adv-x="741" d="M121 670h136v-253h227v253h136v-670h-136v287h-227v-287h-136v670v0z" />
<glyph unicode="I" horiz-adv-x="373" d="M120 670h133v-670h-133v670v0z" />
<glyph unicode="J" horiz-adv-x="520" d="M53 45l21 41q3 2 7.5 9.5t9 17t9 18t7.5 11.5h1h1q23 -14 42.5 -25.5t47.5 -11.5q15 0 31.5 4.5t22.5 21.5q1 3 3 8.5t3.5 11t3 10l1.5 4.5v505h136v-481q0 -35 -7 -68t-23 -65q-6 -4 -12.5 -12.5t-11.5 -12.5q-17 -17 -40.5 -28.5t-47.5 -11.5h-88q-2 0 -7 1t-7 1 l-22 5.5t-16 4.5q-1 0 -6 2.5l-11 5.5t-11.5 5.5t-8.5 4.5q-1 1 -6 4.5t-8 5.5q-1 0 -7.5 5t-6.5 7v2z" />
<glyph unicode="K" horiz-adv-x="675" d="M254 670v-286l190 286h163l-208 -298l228 -370l1 -1v-1h-166l-163 275l-45 -56v-219h-134v670h134z" />
<glyph unicode="L" horiz-adv-x="570" d="M121 670h136v-557h239v-113h-375v670v0z" />
<glyph unicode="M" horiz-adv-x="831" d="M120 670h124l172 -270l172 270h123v-670h-129v433l-166 -256l-164 253v-430h-132v670v0z" />
<glyph unicode="N" horiz-adv-x="767" d="M247 670l273 -415v415h128v-670h-120l-280 427v-427h-129v670h128z" />
<glyph unicode="O" horiz-adv-x="777" d="M179 63q-9 15 -19.5 28t-19.5 28q-30 50 -41 104.5t-11 112.5q0 93 26.5 167.5t99.5 130.5q10 8 23 14t24.5 10.5t20 7.5t10.5 5q23 6 42.5 8t52.5 2q48 0 80.5 -5.5t59.5 -20.5q39 -22 67 -48.5t47.5 -61.5t30.5 -81.5t17 -107.5q0 -78 -16 -145t-52 -116.5t-93.5 -77.5 t-140.5 -28q-60 0 -111 17.5t-97 56.5zM230 338q0 -42 5.5 -84t22.5 -75.5t47.5 -54.5t81.5 -21t82.5 20t49 53t23.5 75t6 85q0 44 -6 86t-23 74.5t-49 52.5t-84 20q-53 0 -83.5 -21.5t-47 -55t-21 -74.5t-4.5 -80z" />
<glyph unicode="P" horiz-adv-x="672" d="M152 672l19.5 1t46.5 2t56 2t47 2q45 0 88 -5t85 -25q-2 1 0 -1t6.5 -5t10 -6t8.5 -4q40 -34 56 -78t16 -93q0 -29 -4 -55.5t-14 -55.5q-17 -35 -41 -58.5t-62 -36.5q5 0 -3.5 -2t-22 -5t-28.5 -5.5t-22 -2.5h-139v-241h-134v668zM256 350q58 0 96 2t60.5 12.5t32 32.5 t9.5 62q0 60 -27 85.5t-87 25.5q-20 0 -43.5 -1.5t-40.5 -3.5v-215z" />
<glyph unicode="Q" horiz-adv-x="789" d="M577 -81q-15 7 -33 19.5t-36 24t-33.5 20t-25.5 8.5h-91q-25 0 -47.5 7.5t-45.5 16.5q-50 19 -83 53.5t-52.5 78t-27 92.5t-7.5 98q0 73 16.5 136t52.5 109.5t93 73t138 26.5q34 0 69 -6t67.5 -20t60 -36t45.5 -54q34 -51 45.5 -109.5t11.5 -118.5q0 -56 -8.5 -105 t-36.5 -104q-5 -11 -13.5 -20t-12.5 -20l-37 -37q14 -6 26.5 -14.5t25 -16.5t26 -14.5t29.5 -8.5v-4l-39 -89l-3 -2h-8q-3 0 -13 1t-21 3t-20.5 5t-11.5 7zM237 337q0 -42 5.5 -84t22 -75.5t47.5 -54t83 -20.5q51 0 81.5 21t47.5 54t22.5 74.5t5.5 82.5q0 43 -4.5 85 t-20.5 75t-48 53.5t-86 20.5q-53 0 -83.5 -20.5t-47 -53.5t-21 -74.5t-4.5 -83.5z" />
<glyph unicode="R" horiz-adv-x="690" d="M136 668q67 4 127 5.5t115 1.5l56 -7q3 -2 11 -5t18 -6t18.5 -5.5t13.5 -4.5q57 -26 78.5 -72t21.5 -106q0 -21 -3 -42.5t-10 -42t-19.5 -38.5t-30.5 -30q-8 -5 -20 -10t-17 -13q8 -6 16 -23.5t9 -27.5l77 -205q5 -7 8.5 -18t3.5 -19h-142q-2 0 -6.5 12t-10 28t-10.5 31 t-8 20l-49 142q-2 6 -7.5 14.5t-13.5 8.5h-104v-256h-136v663q0 2 4.5 2.5t9.5 2.5zM260 365h102q50 0 74 26.5t24 73.5q0 33 -11 52.5t-29.5 30.5t-43 14.5t-51.5 3.5q-17 0 -32.5 -0.5t-32.5 -2.5v-198z" />
<glyph unicode="S" horiz-adv-x="595" d="M182 1q-11 8 -26 10t-28 8q-11 5 -23 11.5t-21.5 11.5t-16.5 9t-7 5v7q6 13 13 29t8 17l28 58h5q32 -32 80 -50t92 -18q21 0 40.5 3.5t34.5 13t23.5 25.5t8.5 40t-13.5 42.5t-33.5 32t-43.5 22.5t-43.5 15l-95 45q-11 12 -24 20.5t-24 21.5q-20 24 -28.5 54t-8.5 62 q0 49 17.5 84t48 57.5t71 33t85.5 10.5q54 0 102.5 -13t96.5 -39q2 -2 2 -6q0 -11 -2.5 -16.5t-6.5 -14.5q-2 -4 -6.5 -16t-9 -24.5t-9 -22t-6.5 -9.5l-7.5 3.5t-16.5 8t-16.5 9t-7.5 5.5q-26 12 -50 19t-53 7q-17 0 -34.5 -3.5t-31 -12t-22 -22t-8.5 -33.5 q0 -24 13.5 -39.5t33.5 -26t42.5 -18t40.5 -14.5q41 -17 74.5 -33.5t57.5 -39.5t37.5 -55.5t13.5 -80.5q0 -53 -19 -98t-65 -72q-35 -21 -74.5 -28t-76.5 -7q-29 0 -55.5 3.5t-55.5 8.5z" />
<glyph unicode="T" horiz-adv-x="565" d="M213 553h-160v117h459v-117h-162v-553h-137v553v0z" />
<glyph unicode="U" horiz-adv-x="745" d="M133 139q-3 11 -5 24.5t-3.5 25.5t-2.5 21.5t-1 12.5v447h134v-426q0 -30 6.5 -56t20.5 -45t36.5 -30t54.5 -11q48 0 79 30t32 79l5 459h135v-412q0 -33 -4.5 -68t-16.5 -67.5t-32.5 -60t-51.5 -44.5q-23 -13 -49 -21.5t-53 -8.5h-91q-21 0 -45.5 6.5t-47.5 18.5 t-42.5 29t-29.5 37q-8 14 -14 30t-14 30z" />
<glyph unicode="V" horiz-adv-x="660" d="M54 668v2h145l132 -526l133 526h142v-7q-2 -8 -6.5 -22t-13 -42.5t-22.5 -74.5t-35.5 -117t-51 -171t-69.5 -236h-156z" />
<glyph unicode="W" horiz-adv-x="963" d="M60 670h142l90 -493l128 493h126l122 -496q0 11 6 39.5t18 85t29 146.5t40 225h142v-2q-4 -17 -8.5 -36t-11.5 -48.5t-18 -74t-27 -113t-38.5 -165.5t-52.5 -231h-153l-116 450l-113 -450h-156z" />
<glyph unicode="X" horiz-adv-x="656" d="M247 349l-179 321h157l108 -217l112 217h152l-180 -329l192 -341h-155l-123 234l-2 2q-1 -1 -4 -7t-15 -29t-37.5 -70t-70.5 -130h-155z" />
<glyph unicode="Y" horiz-adv-x="634" d="M34 670h153l133 -287l135 287h145l-213 -408v-262h-135v255z" />
<glyph unicode="Z" horiz-adv-x="603" d="M356 554h-265v116h431v-105l-287 -454h294v-111h-455v102q0 2 3 5z" />
<glyph unicode="[" horiz-adv-x="411" d="M348 -105h-254v775h254v-105h-120v-565h120v-105z" />
<glyph unicode="\" horiz-adv-x="560" d="M508 -29h-117l-339 817h111z" />
<glyph unicode="]" horiz-adv-x="411" d="M317 -105h-255v105h121v565h-121v105h255v-775z" />
<glyph unicode="^" horiz-adv-x="572" d="M525 366h-140l-100 178l-100 -178h-139l185 304h109z" />
<glyph unicode="_" d="M495 -179h-495v110h495v-110z" />
<glyph unicode="`" d="M358 569h-116l-143 154h173z" />
<glyph unicode="a" horiz-adv-x="651" d="M99 77q-5 20 -8.5 39t-3.5 39q0 29 7.5 59t30.5 54q11 12 20.5 20t21 15t27.5 14.5t42 17.5q1 1 2.5 1.5t2.5 1.5q39 10 79.5 13.5t80.5 4.5q0 3 0.5 11.5t0.5 10.5q0 46 -16.5 62.5t-62.5 16.5q-48 0 -91 -13.5t-84 -36.5q-1 0 -3 0.5t-2 2.5l-35 90q0 6 1 5.5t6 1.5 q30 12 56 22t51.5 16.5t53 10t59.5 3.5q31 0 61.5 -4.5t56.5 -17t45 -34.5t27 -56q1 -5 3 -14t3.5 -17.5t2.5 -15t1 -7.5v-283q0 -8 6 -16t13 -14.5t12 -11t3 -5.5l-51 -49q-8 -5 -14 -13t-16 -8q-14 0 -29 8t-25 18q-1 1 -4 6.5t-6 12t-6 11.5l-3 5q-20 -15 -38 -26.5 t-41 -22.5l-2 -2l-49 -12h-74q-22 0 -38.5 8.5t-29.5 21.5t-23.5 28t-20.5 28zM217 162q0 -32 16.5 -56.5t56.5 -24.5q32 0 60 13.5t51 33.5v145q-91 0 -137.5 -26.5t-46.5 -84.5z" />
<glyph unicode="b" horiz-adv-x="671" d="M219 0h-105v725h132v-228q10 4 15.5 14t13.5 17q21 18 48.5 23t54.5 5q40 0 72 -13t62 -39q2 0 6 -4.5t8.5 -10.5t7.5 -10.5t4 -4.5q25 -48 35.5 -97.5t10.5 -104.5q0 -41 -5.5 -79.5t-19 -73t-37 -64t-59.5 -51.5q-11 -7 -24 -11.5t-27 -4.5h-72q-26 0 -48 16t-38 33 q-5 5 -9.5 13.5t-9.5 11.5zM244 244q0 -27 2.5 -55t12 -50.5t29 -36.5t54.5 -14q37 0 58.5 18.5t32.5 46.5t14 60.5t3 61.5q0 30 -2.5 61t-13 56.5t-31.5 42t-58 16.5q-40 0 -61 -15t-30 -39.5t-9.5 -55t-0.5 -61.5v-36z" />
<glyph unicode="c" horiz-adv-x="580" d="M87 272q0 63 15.5 116t47.5 91t80.5 59.5t114.5 21.5q23 0 49.5 -4.5t51.5 -13t46 -20t33 -25.5q1 2 0 0t-3 -6.5t-5 -9.5t-6 -9q-3 -5 -7.5 -14.5t-10.5 -20t-12 -20t-10 -13.5q-26 23 -55.5 37t-65.5 14q-39 0 -63.5 -16t-38.5 -42t-19 -58t-5 -64t6 -63.5t20 -57 t38.5 -41.5t61.5 -16q28 0 51 6t47 20q1 1 6.5 4t11 7t10.5 7t7 3h2l42 -91v-3q-45 -28 -90 -44t-98 -16q-65 0 -112.5 21.5t-78.5 59.5t-46 89.5t-15 111.5z" />
<glyph unicode="d" horiz-adv-x="671" d="M87 276q0 54 8 101.5t34 92.5q5 8 14 15t12 17q18 14 33.5 24t32 17t34.5 10t41 3q43 0 71.5 -13t58.5 -43v226h131v-726h-114l-7 60l-1 1q-14 -16 -26 -28q-11 -11 -21.5 -20.5t-18.5 -12.5q-35 -14 -75 -14q-61 0 -101 26.5t-63.5 68.5t-33 93.5t-9.5 101.5zM222 274 q0 -29 3 -61.5t13.5 -60.5t32 -46t57.5 -18q18 0 35.5 6.5t31 18.5t22 29t8.5 39v196q0 2 -2 8t-3 8q-12 32 -36 45.5t-56 13.5q-38 0 -59.5 -16.5t-32 -42.5t-12.5 -57.5t-2 -61.5z" />
<glyph unicode="e" horiz-adv-x="655" d="M129 98q-24 43 -33 87.5t-9 92.5q0 61 15.5 112.5t47 89.5t78.5 59.5t111 21.5q72 0 128 -34t81 -106q16 -45 17.5 -92t1.5 -95h-341q0 -3 -0.5 -13t-0.5 -18q0 -5 3 -18.5t6 -19.5q16 -38 47 -54t72 -16q18 0 39 4t41 10.5t36.5 14.5t24.5 16q17 -24 24 -44.5t18 -44.5 v-6l-5 -3.5t-12.5 -8t-15.5 -8.5t-13 -6q-42 -15 -74 -21.5t-70 -6.5q-45 0 -91.5 12.5t-81.5 43.5q-4 4 -10 11t-12.5 15t-12.5 15t-9 10zM339 461q-30 0 -52.5 -11.5t-36.5 -30.5t-21 -44.5t-7 -53.5h221q0 27 -5 52t-17 44.5t-32 31.5t-50 12z" />
<glyph unicode="f" horiz-adv-x="422" d="M59 429v107h70q0 42 2 69t6.5 44.5t12.5 29.5t21 24q20 19 51.5 23.5t60.5 4.5h25.5t27 -0.5t21.5 -1t9 -1.5l3 -2v-96q-12 0 -23.5 1.5t-23.5 1.5q-21 0 -33.5 -4.5t-19 -13t-8 -21t-1.5 -27.5v-31h99v-107h-96v-429h-133v429h-71z" />
<glyph unicode="g" horiz-adv-x="673" d="M122 -155l33 89l2 6t5 3q41 -20 80.5 -33.5t86.5 -13.5q19 0 36.5 2.5t31 10t22 21t8.5 36.5v114q-5 -4 -9.5 -11t-9.5 -12q-26 -24 -53 -32t-62 -8q-59 0 -98.5 22.5t-63.5 59.5t-34 85t-10 99q0 43 6 84t22 81q1 0 1.5 1t1.5 1q32 58 72 84t106 26q43 0 80 -14.5 t60 -53.5l10 58h114v-591q0 -17 -5 -34t-12 -33q-14 -33 -35.5 -53.5t-48.5 -32t-58 -15.5t-64 -4q-55 0 -104.5 13t-100.5 34q-5 2 -7.5 2.5t-2.5 5.5v3zM224 288q0 -26 3 -56t14 -55t31 -41.5t55 -16.5q23 0 41.5 9t31.5 24.5t20 35.5t7 43v138q0 21 -8.5 37t-22.5 27.5 t-31.5 17.5t-36.5 6q-36 0 -56.5 -15.5t-31 -40.5t-13.5 -55t-3 -58z" />
<glyph unicode="h" horiz-adv-x="684" d="M247 728v-221h3q29 32 63 42t76 10q17 0 35.5 -1t35.5 -7q32 -12 53 -33t33.5 -48.5t17.5 -58.5t5 -62v-349h-136v370q0 1 -1.5 6t-2.5 8q-11 35 -28 49t-54 14q-35 0 -59.5 -15t-34.5 -50q-2 -5 -4 -14t-2 -10v-358h-132v728h132z" />
<glyph unicode="i" horiz-adv-x="363" d="M248 549v-549h-130v549h130zM101 685q0 37 24 54t58 17q32 0 55.5 -18t23.5 -52q0 -37 -24 -53.5t-56 -16.5q-35 0 -58 15.5t-23 53.5z" />
<glyph unicode="j" horiz-adv-x="357" d="M56 -97q15 0 26 8t18 20.5t10 26.5t3 26v566h134v-573l-1.5 -6.5t-3 -15.5l-3 -18l-2.5 -15q-10 -56 -49.5 -92t-99.5 -41h-31.5h-37.5t-31.5 1t-13.5 4v109h82zM179 757q10 0 23.5 -3t26 -9.5t21 -16t8.5 -22.5v-40q-11 -29 -31 -39t-48 -10t-48.5 10t-30.5 39v40 q0 13 8.5 22.5t21 16t26 9.5t23.5 3z" />
<glyph unicode="k" horiz-adv-x="614" d="M244 726v-408l161 226q58 0 89.5 -0.5t45.5 -0.5l19 -1l-165 -223l174 -319h-149q-45 85 -70 132t-36.5 68.5t-14 25.5l-2.5 4l-55 -67v-163h-129v726h132z" />
<glyph unicode="l" horiz-adv-x="385" d="M247 725v-605q0 -5 8.5 -11t13.5 -6h56v-104l-2 -2q-1 -2 -13.5 -3.5t-19.5 -1.5q-44 0 -77 2t-55 12t-33.5 29.5t-11.5 54.5v635h134z" />
<glyph unicode="m" horiz-adv-x="966" d="M235 544q1 0 2.5 -6t2.5 -15t2.5 -18.5t2.5 -15.5q20 40 56.5 53.5t75.5 13.5q44 0 80 -16t57 -56q7 5 11 12.5t10 12.5q29 26 61.5 36.5t70.5 10.5q35 0 68.5 -10t59.5 -32t41.5 -55.5t15.5 -81.5v-377h-132v361q0 23 -8 39t-19.5 26t-25 14.5t-25.5 4.5 q-42 0 -66.5 -26t-24.5 -70v-349h-133v363q0 36 -20 59t-57 23q-42 0 -67.5 -28t-25.5 -70v-347h-134v544h121z" />
<glyph unicode="n" horiz-adv-x="677" d="M228 544q1 0 2.5 -6t2.5 -15t2.5 -18.5t2.5 -15.5q10 20 27 33t37 20.5t42 10.5t43 3q47 0 80.5 -14t54.5 -40t31 -62.5t10 -81.5v-358h-131v349q0 52 -25 74t-62 22q-18 0 -35.5 -5.5t-32 -17t-23 -28t-8.5 -38.5v-356h-132v544h114z" />
<glyph unicode="o" horiz-adv-x="681" d="M133 88q-28 45 -36.5 90.5t-8.5 96.5q0 63 14 115t44 90t77 59t113 21q67 0 115.5 -20.5t80 -58t46.5 -89.5t15 -116q0 -61 -14.5 -113t-45.5 -90.5t-79 -60.5t-115 -22q-44 0 -88 11t-77 43q-10 10 -20 22t-21 22zM223 274q0 -32 3 -64t15 -57t35 -40.5t62 -15.5 q29 0 50.5 10.5t36 28.5t22 41.5t7.5 49.5v96q-5 26 -11.5 49.5t-19 41.5t-32.5 28.5t-51 10.5q-39 0 -62 -16t-35.5 -42t-16 -58t-3.5 -63z" />
<glyph unicode="p" horiz-adv-x="671" d="M228 548q1 0 2 -6t2.5 -14.5t3 -18t2.5 -16.5q10 20 25.5 33t34.5 20.5t40 10.5t41 3q61 0 100.5 -25t62.5 -65.5t32.5 -91.5t9.5 -103q0 -54 -10.5 -101.5t-35.5 -95.5q-28 -46 -71.5 -67t-92.5 -21q-20 0 -38 3.5t-38 10.5q0 1 -7 6.5t-16 13t-17.5 15t-11.5 12.5v-254 h-132v751h114zM345 458q-19 0 -36.5 -6t-31 -17t-22 -27t-8.5 -36v-182q0 -42 26.5 -70t68.5 -28q36 0 57.5 18.5t33 46t14.5 60t3 60.5t-2.5 59.5t-12.5 58.5t-31.5 45t-58.5 18z" />
<glyph unicode="q" horiz-adv-x="671" d="M428 50q-4 -2 -6 -6t-4 -6q-26 -28 -55 -39.5t-68 -11.5q-60 0 -100 26.5t-64 68t-34 93t-10 102.5q0 52 10 102.5t34 90t63.5 63.5t99.5 24q34 0 61 -6.5t53 -26.5q8 -7 13 -15.5t13 -14.5l2 3l7 51h118v-631q0 -19 13 -33t30 -20v-3q-3 -5 -7 -9q-3 -4 -6.5 -8t-5.5 -6 q-4 -5 -12 -15.5t-17.5 -21.5t-18 -19.5t-12.5 -8.5q-18 0 -35.5 9.5t-31 25t-22 35t-8.5 39.5v168v0zM224 280q0 -27 2.5 -60.5t12.5 -62.5t31 -48.5t59 -19.5q45 0 71.5 31.5t26.5 75.5v175q0 19 -8.5 35t-22 26.5t-31 16.5t-35.5 6q-38 0 -59 -16t-31.5 -41.5t-13 -56.5 t-2.5 -61z" />
<glyph unicode="r" horiz-adv-x="473" d="M231 549l8 -56l2 -4q1 0 3 2q15 22 30 35.5t34 21t44.5 10t60.5 2.5v-118q-31 -1 -61 -3.5t-54 -13t-38.5 -33t-14.5 -62.5v-330h-132v549h118z" />
<glyph unicode="s" horiz-adv-x="539" d="M53 52q0 6 7 21.5t15 32t15.5 29.5t9.5 13q3 1 10.5 -3t16.5 -9.5t17.5 -10.5t13.5 -7q28 -11 54.5 -18.5t56.5 -7.5q15 0 28.5 3t24.5 10t17.5 18.5t6.5 28.5q0 13 -6 23.5t-15.5 18.5t-21 14t-22.5 10l-104 37q-54 19 -80 59.5t-25 91.5q0 45 18 74.5t47 47.5t66 25 t75 7q50 0 89 -9t86 -26q5 0 5 -2v-3q-5 -13 -10 -30t-9.5 -32t-8.5 -25.5t-7 -10.5q-9 0 -19.5 8t-19.5 11q-24 9 -47.5 14t-49.5 5q-12 0 -27.5 -1t-28.5 -6t-22 -14.5t-9 -26.5q0 -19 14 -31.5t33.5 -21t40 -14t33.5 -11.5q28 -12 53 -23.5t44.5 -27t33.5 -37.5t20 -54 q0 -58 -12 -97t-36.5 -62t-63 -33t-91.5 -10q-62 0 -111.5 15t-104.5 43v4z" />
<glyph unicode="t" horiz-adv-x="445" d="M54 432v107h78v145h131v-145h108v-107h-107v-280q0 -17 8.5 -32.5t28.5 -15.5h70v-106q0 -1 -10 -2.5t-24 -2.5t-28 -1.5t-21 -0.5q-28 0 -53.5 3t-45.5 12.5t-34 28t-19 49.5q-1 4 -2 11.5t-2 15.5t-1.5 14t-0.5 8v299h-76z" />
<glyph unicode="u" horiz-adv-x="675" d="M115 546h132v-356q0 -50 25 -70.5t59 -20.5q40 0 67.5 22.5t27.5 66.5v358h134v-544h-121l-7 53h-3q-1 -1 -4.5 -5.5t-9 -10.5t-11.5 -12.5t-12 -10.5q-1 0 -1 -0.5t-1 -0.5q-1 -1 -2 -1q-26 -16 -50.5 -21t-54.5 -5t-54 4.5t-42.5 15.5t-33 30t-26.5 48q-6 14 -6.5 29 t-5.5 29v402z" />
<glyph unicode="v" horiz-adv-x="590" d="M47 544h138l111 -435l110 435h137l-168 -544h-160z" />
<glyph unicode="w" horiz-adv-x="875" d="M60 544h134l83 -416l102 416h114l105 -422l83 422h134l-136 -544h-144l-100 361l-98 -361h-146z" />
<glyph unicode="x" horiz-adv-x="582" d="M209 285v1q-11 22 -28.5 52.5t-38.5 65t-42.5 70t-39.5 68.5v2h147q1 -2 8.5 -16.5t17.5 -35t21 -43t20.5 -41t16 -30.5t7.5 -11q3 0 10.5 13t17 32.5t20 42.5t19.5 42.5t16 32.5t9 14h136q-1 -4 -13 -24t-28.5 -48.5t-35.5 -60t-35.5 -59t-27 -45.5t-10.5 -19v-1 q0 -4 11.5 -26.5t29.5 -53t39 -65.5t39 -65.5t31.5 -52t15.5 -24.5h-147l-105 198q-2 -1 -4.5 -6t-12.5 -24.5t-29.5 -59t-55.5 -108.5h-148z" />
<glyph unicode="y" horiz-adv-x="595" d="M84 -101h12t19 0.5t19 0.5h12q22 1 36 9.5t22.5 22t14 31t11.5 35.5q0 1 -1 4.5t-1 4.5q-6 16 -19.5 55t-30.5 90.5t-36.5 109.5t-38 112.5t-33.5 99.5t-24 70h139l115 -402q15 51 28.5 100t27 98.5t27.5 100t29 103.5h137l-163 -488q-4 -20 -11.5 -39t-14.5 -38 q-9 -24 -20.5 -53.5t-26.5 -56.5t-36 -48t-49 -28q-20 -5 -37.5 -6t-37.5 -1h-18.5t-23 0.5t-19.5 1.5t-8 3v108v0z" />
<glyph unicode="z" horiz-adv-x="507" d="M286 439h-221v105h379v-100q-1 -1 -3 -4l-9 -13.5t-20.5 -32t-38 -59t-61.5 -93.5t-91 -136h226v-106h-387v95z" />
<glyph unicode="{" horiz-adv-x="455" d="M403 -105q-263 0 -263 202v68q0 66 -59 66h-22v107h22q59 0 59 66v69q0 202 263 202v-87q-73 -7 -98.5 -35t-25.5 -90v-29q0 -74 -23 -107q-20 -28 -71 -43q51 -14 71 -43q23 -32 23 -106v-29q0 -61 25 -88q26 -29 99 -36v-87z" />
<glyph unicode="|" horiz-adv-x="282" d="M203 -177h-124v943h124v-943z" />
<glyph unicode="}" horiz-adv-x="455" d="M396 232h-22q-59 0 -59 -66v-69q0 -202 -263 -202v87q73 7 99 36q25 27 25 88v30q0 74 23 106q20 29 71 43q-51 15 -71 43q-23 33 -23 107v28q0 62 -25.5 90t-98.5 35v87q263 0 263 -202v-68q0 -66 59 -66h22v-107z" />
<glyph unicode="~" horiz-adv-x="556" d="M514 406q-58 -145 -151 -145q-46 0 -95 33q-57 38 -77 38q-21 0 -33 -12t-35 -56l-81 40q58 145 151 145q45 0 95 -33q57 -38 77 -38q21 0 33 12t35 56z" />
<glyph unicode="&#xa1;" horiz-adv-x="392" d="M113 601q0 35 25.5 52.5t57.5 17.5t57.5 -18t25.5 -53t-25 -53t-58 -18t-58 18.5t-25 53.5zM142 462h110l19 -475h-148z" />
<glyph unicode="&#xa2;" horiz-adv-x="563" d="M254 -5q-48 7 -80.5 34.5t-52 64.5t-27.5 79.5t-8 79.5q0 44 9 85.5t28.5 75.5t51.5 58.5t79 34.5l3 2v75h119v-75q5 0 20.5 -3.5t20.5 -5.5q6 -3 19 -9t26 -13t22.5 -14t9.5 -11q0 -1 -2.5 -5.5t-5 -10.5t-5.5 -11t-4 -7q0 -2 -4.5 -11t-10.5 -19t-11.5 -18.5t-8.5 -8.5 q-4 0 -11 4.5t-15 10t-15.5 11t-11.5 7.5q-15 6 -28 8t-29 2q-35 0 -56.5 -13t-34.5 -34t-17.5 -48.5t-4.5 -56.5q0 -30 5 -58.5t18 -50.5t35.5 -35.5t56.5 -13.5q21 0 37 4t36 15q4 2 10.5 7l13 10t13 9t10.5 4q2 0 10 -11.5t16.5 -26.5t15.5 -29t7 -18q0 -8 -14 -18 t-34.5 -20t-42 -18t-36.5 -10v-77h-119v77z" />
<glyph unicode="&#xa3;" horiz-adv-x="663" d="M617 590l-83 -99q-69 60 -171 60q-100 0 -100 -65q0 -25 25 -67q22 -36 27 -52h151v-109h-142q-5 -74 -65 -143h344v-115h-516v98q84 66 96 160h-96v109h78q-9 16 -25 43q-28 52 -28 94q0 85 66 131t187 46q147 0 252 -91z" />
<glyph unicode="&#xa4;" horiz-adv-x="537" d="M100 435l-64 62l54 54l65 -63q51 33 112 33q62 0 112 -33l66 63l55 -54l-66 -62q33 -49 33 -106q0 -58 -33 -107l66 -61l-55 -55l-66 63q-50 -32 -112 -32q-61 0 -112 32l-65 -63l-54 55l64 61q-32 49 -32 107q0 57 32 106zM144 329q0 -49 35.5 -83.5t86.5 -34.5t87 34.5 t36 83.5t-36 83t-87 34t-86.5 -34t-35.5 -83z" />
<glyph unicode="&#xa5;" horiz-adv-x="677" d="M655 670l-250 -410v-47h161v-113h-161v-100h-133v100h-161v113h161v44l-250 413h159l91 -159q52 -90 67 -131q22 52 68 131l91 159h157z" />
<glyph unicode="&#xa6;" horiz-adv-x="251" d="M163 675v-358h-76v358h76zM163 164v-359h-76v359h76z" />
<glyph unicode="&#xa7;" horiz-adv-x="693" d="M638 240q0 -103 -109 -158q20 -31 20 -83q0 -69 -52 -111q-56 -45 -154 -45q-121 0 -212 65l68 92q69 -47 153 -47q69 0 69 45q0 22 -30 37q-25 13 -132.5 47t-151.5 75q-53 47 -53 126q0 104 108 158q-19 33 -19 84q0 68 54 112t152 44q122 0 213 -66l-68 -91 q-70 46 -154 46q-69 0 -69 -45q0 -22 31 -37q24 -12 133 -47q106 -33 151 -74q52 -47 52 -127zM506 231q0 36 -43 61q-25 14 -95 37q-79 26 -118 44q-63 -26 -63 -80q0 -36 43 -61q24 -15 94 -38q80 -26 118 -44q64 26 64 81z" />
<glyph unicode="&#xa8;" d="M431 643q0 -29 -22.5 -51.5t-53.5 -22.5t-54.5 22.5t-23.5 51.5q0 31 23.5 53t54.5 22t53.5 -22t22.5 -53zM218 643q0 -29 -23.5 -51.5t-54.5 -22.5q-30 0 -53.5 22.5t-23.5 51.5q0 31 23 53t54 22q32 0 55 -22t23 -53z" />
<glyph unicode="&#xa9;" horiz-adv-x="827" d="M771 335q0 -147 -102.5 -246.5t-254.5 -99.5q-153 0 -255.5 99.5t-102.5 246.5t102.5 246.5t255.5 99.5q152 0 254.5 -99.5t102.5 -246.5zM707 335q0 122 -84 203t-209 81q-126 0 -210 -81t-84 -203t84 -203t210 -81q125 0 209 81t84 203zM562 449l-78 -42q-25 42 -66 42 q-78 0 -78 -112q0 -111 79 -111q39 0 71 49l69 -46q-51 -86 -142 -86q-77 0 -123.5 52.5t-46.5 141.5q0 85 48.5 140t123.5 55q100 0 143 -83z" />
<glyph unicode="&#xaa;" horiz-adv-x="472" d="M411 264h-108v30q-37 -37 -97 -37q-65 0 -108 35q-50 39 -50 109q0 65 50 101q46 34 122 34q49 0 83 -16v20q0 53 -63 53q-64 0 -116 -27l-42 74q77 41 158 41q78 0 124.5 -38t46.5 -105v-274zM303 384v52q-30 17 -79 17q-67 0 -67 -52q0 -56 67 -56q52 0 79 39z" />
<glyph unicode="&#xab;" horiz-adv-x="621" d="M582 0h-142l-161 251l161 251h142l-157 -250zM332 0h-141l-161 251l161 251h141l-156 -250z" />
<glyph unicode="&#xac;" horiz-adv-x="565" d="M511 192h-79v199h-378v76h457v-275z" />
<glyph unicode="&#xad;" horiz-adv-x="613" d="M559 286h-505v123h505v-123z" />
<glyph unicode="&#xae;" horiz-adv-x="827" d="M771 335q0 -147 -102.5 -246.5t-254.5 -99.5q-153 0 -255.5 99.5t-102.5 246.5t102.5 246.5t255.5 99.5q152 0 254.5 -99.5t102.5 -246.5zM707 335q0 122 -84 203t-209 81q-126 0 -210 -81t-84 -203t84 -203t210 -81q125 0 209 81t84 203zM584 412q0 -82 -77 -111 l75 -148h-93l-71 138h-67v-138h-82v377h181q59 0 95 -28q39 -32 39 -90zM500 410q0 48 -56 48h-93v-97h93q56 0 56 49z" />
<glyph unicode="&#xaf;" horiz-adv-x="490" d="M387 559h-284v96h284v-96z" />
<glyph unicode="&#xb0;" horiz-adv-x="481" d="M436 492q0 -81 -56 -136t-140 -55q-82 0 -138.5 55.5t-56.5 135.5q0 79 56.5 134t138.5 55q84 0 140 -55t56 -134zM332 492q0 37 -26.5 63t-65.5 26q-38 0 -65 -26.5t-27 -62.5q0 -38 27 -64.5t65 -26.5q40 0 66 26t26 65z" />
<glyph unicode="&#xb1;" horiz-adv-x="530" d="M225 118v182h-189v75h189v182h81v-182h186v-75h-186v-182h-81zM492 0h-456v76h456v-76z" />
<glyph unicode="&#xb2;" horiz-adv-x="321" d="M12 332q2 26 23 52q28 38 96 86t80 61q18 18 18 38q0 22 -15.5 36t-47.5 14q-33 0 -47.5 -10.5t-25.5 -41.5l-71 8q14 50 48 73.5t96 23.5q72 0 105 -26.5t33 -65.5q0 -38 -29 -71q-20 -26 -95 -78q-40 -28 -56 -44h182v-55h-294z" />
<glyph unicode="&#xb3;" horiz-adv-x="321" d="M16 421l67 6q10 -27 27 -36q20 -14 47 -14q34 0 54.5 18t20.5 42q0 23 -17 36.5t-60 13.5q-6 0 -14 -1h-11l11 49q39 0 55.5 13.5t16.5 33.5q0 17 -13.5 28.5t-42.5 11.5q-26 0 -40 -10t-26 -36l-68 10q21 48 50.5 67t83.5 19q70 0 101 -24t31 -60q0 -25 -17 -45t-49 -27 q43 -11 63 -34t20 -54q0 -41 -38.5 -72.5t-106.5 -31.5q-66 0 -101 25.5t-44 71.5z" />
<glyph unicode="&#xb4;" d="M396 723l-144 -154h-115l86 154h173z" />
<glyph unicode="&#xb5;" horiz-adv-x="557" d="M480 481v-481h-75v58q-26 -37 -51 -51q-31 -18 -75 -18q-39 0 -70 15q-21 11 -50 44v-233h-83v666h83v-204q0 -110 12.5 -143.5t40.5 -52.5t63 -19q38 0 68.5 20t42 52t11.5 141v206h83z" />
<glyph unicode="&#xb6;" horiz-adv-x="716" d="M628 -177h-113v746h-63v-746h-113v427h-68q-95 0 -158 54q-67 59 -67 156t68 155q62 55 157 55h357v-847z" />
<glyph unicode="&#xb7;" horiz-adv-x="266" d="M226 336q0 -35 -28 -60.5t-64 -25.5q-38 0 -65 25.5t-27 60.5t27 60.5t65 25.5q36 0 64 -25.5t28 -60.5z" />
<glyph unicode="&#xb8;" d="M373 -101q0 -84 -118 -84q-72 0 -129 35l20 36q45 -23 88 -23q54 0 54 33q0 25 -31 25q-16 0 -29 -7l-36 13l27 108h55l-17 -75q14 7 39 7q77 0 77 -68z" />
<glyph unicode="&#xb9;" horiz-adv-x="321" d="M155 332v251q-47 -37 -105 -51v56q30 9 65.5 33t58.5 51h51v-340h-70z" />
<glyph unicode="&#xba;" horiz-adv-x="486" d="M433 468q0 -93 -54 -152t-137 -59t-136.5 59t-53.5 152t53.5 153t136.5 60t137 -60t54 -153zM321 468q0 49 -20.5 79t-58.5 30q-78 0 -78 -109q0 -108 78 -108q38 0 58.5 31.5t20.5 76.5z" />
<glyph unicode="&#xbb;" horiz-adv-x="621" d="M598 251l-162 -251h-141l156 252l-156 250h141zM348 251l-161 -251h-141l156 252l-156 250h141z" />
<glyph unicode="&#xbc;" horiz-adv-x="1661" d="M213 620q3 3 -10.5 -10t-33 -30.5t-38.5 -32t-27 -14.5q-17 20 -29 43.5t-25 45.5q-2 3 -2.5 4t-0.5 3t3 4q32 28 64 54t64 53q14 11 30 23t28 26h107v-672h-128v503h-2zM854 788.874h111l-339 -1018.01h-117zM1108 -91l-3 4q-1 4 -5.5 17.5l-9.5 28.5t-9 29t-4 21 q0 5 2.5 11.5t7.5 8.5l69 107l140 216q7 14 12.5 22t11.5 16.5t14.5 20.5t21.5 34h141v-422h90v-114h-90v-136h-135v136h-254zM1263 113q0 -1 0.5 -1t0.5 -1l-1 -1q-11 -23 -25.5 -43t-25.5 -43h154q0 32 0.5 58.5t0.5 55.5t0.5 64t0.5 85l-37 -60q0 -2 -1 -4t-1 -3 q-16 -27 -32.5 -54t-33.5 -53z" />
<glyph unicode="&#xbd;" horiz-adv-x="1611" d="M213 623q3 3 -10.5 -10t-33 -30.5t-38.5 -32t-27 -14.5q-17 20 -29 43.5t-25 45.5q-2 3 -2.5 4t-0.5 3t3 4q32 28 64 54t64 53q14 11 30 23t28 26h107v-672h-128v503h-2zM852.106 789.026h112.707l-344.214 -1014.02h-118.8zM1084 -113q0 2 5 8t13 14t17.5 17t18.5 18 l4 2l140 135q14 13 32 33.5t34 44.5t27.5 51t11.5 54q0 36 -22.5 58t-58.5 22q-38 0 -69 -18t-60 -43q-1 -4 -8 -10t-11 -6q-2 0 -8 7.5t-13 17t-13 18.5t-9 13q-8 8 -17 19.5t-9 17.5q0 4 2 7q42 35 85 58t104 31q53 0 97.5 -8t76 -29t49 -58t17.5 -95q0 -20 -2 -37.5 t-8 -35.5q0 -1 -1 -2.5t-1 -2.5q-18 -48 -48.5 -89t-67.5 -77t-77 -68.5t-79 -64.5h288v-115h-423q-5 28 -11 56.5t-6 56.5z" />
<glyph unicode="&#xbe;" horiz-adv-x="1801" d="M60 163q0 5 2.5 10t4.5 10l45 79h2q37 -22 72.5 -37.5t78.5 -15.5q52 0 82 24.5t30 77.5q0 16 -4 32.5t-13 30t-24.5 22.5t-37.5 9h-103v108q24 0 52.5 1t53.5 9t42 25t17 50q0 32 -18 53t-49 28q-44 0 -73.5 -7.5t-63.5 -25.5q-7 -4 -16 -12.5t-16 -8.5q-15 22 -27 40 q-11 16 -19.5 30.5t-10.5 20.5v4q88 70 218 70q38 0 75 -9t66 -30.5t47 -57t18 -87.5q0 -40 -9.5 -66.5t-41.5 -53.5q-5 -5 -14.5 -10t-9.5 -7q1 -1 6 -4t11.5 -6.5l13 -7t9.5 -5.5q16 -12 26.5 -27.5t16.5 -33.5t8.5 -37.5t2.5 -38.5q0 -56 -18 -96t-50.5 -65.5t-76.5 -38 t-95 -12.5t-95 11.5t-89 35.5q-6 3 -14 7.5t-12 11.5zM993.489 788.95h111.976l-341.979 -1016.01h-118.028zM1248 -92l-3 4q-1 4 -5.5 17.5l-9.5 28.5t-9 29t-4 21q0 5 2.5 11.5t7.5 8.5l69 107l140 216q7 14 12.5 22t11.5 16.5t14.5 20.5t21.5 34h141v-422h90v-114h-90 v-136h-135v136h-254zM1403 112q0 -1 0.5 -1t0.5 -1l-1 -1q-11 -23 -25.5 -43t-25.5 -43h154q0 32 0.5 58.5t0.5 55.5t0.5 64t0.5 85l-37 -60q0 -2 -1 -4t-1 -3q-16 -27 -32.5 -54t-33.5 -53z" />
<glyph unicode="&#xbf;" horiz-adv-x="556" d="M399 608q0 -11 -4 -22.5t-11.5 -21.5t-18.5 -16.5t-24 -6.5h-49q-8 0 -17 5t-17.5 12.5t-14 16t-5.5 15.5v37q0 8 6 17t14.5 16.5t18 12.5t17.5 5h47q58 -15 58 -70zM208 184q0 -45 24.5 -65.5t66.5 -20.5q38 0 69.5 14t60.5 38q5 1 7 -4t2 -8l45 -81v-7q0 -1 -5.5 -4.5 t-13 -8t-15.5 -8.5t-13 -7q-38 -19 -75.5 -27t-80.5 -8q-41 0 -79 9t-70 38q-33 30 -43 67t-10 75q0 44 11.5 74t39.5 60q5 6 11.5 10.5t11.5 10.5l82 49q5 3 12.5 11.5t7.5 16.5v70h122v-109q0 -26 -21 -43t-48.5 -31.5t-54 -30t-37.5 -37.5q-5 -10 -6 -21t-1 -22z" />
<glyph unicode="&#xc0;" horiz-adv-x="714" d="M275 670h159l227 -670h-146q-2 0 -8 19t-13.5 43t-14.5 47.5t-11 32.5q0 2 -2 2h-223l-44 -139q-1 -1 -1 -1.5t-1 -1.5t-1 -2h-143zM270 261h168l-84 281l-2 -2zM486 700h-116l-143 154h173z" />
<glyph unicode="&#xc1;" horiz-adv-x="714" d="M275 670h159l227 -670h-146q-2 0 -8 19t-13.5 43t-14.5 47.5t-11 32.5q0 2 -2 2h-223l-44 -139q-1 -1 -1 -1.5t-1 -1.5t-1 -2h-143zM270 261h168l-84 281l-2 -2zM486 854l-144 -154h-115l86 154h173z" />
<glyph unicode="&#xc2;" horiz-adv-x="714" d="M275 670h159l227 -670h-146q-2 0 -8 19t-13.5 43t-14.5 47.5t-11 32.5q0 2 -2 2h-223l-44 -139q-1 -1 -1 -1.5t-1 -1.5t-1 -2h-143zM270 261h168l-84 281l-2 -2zM547 700h-92l-99 72l-99 -72h-90l121 154h139z" />
<glyph unicode="&#xc3;" horiz-adv-x="714" d="M275 670h159l227 -670h-146q-2 0 -8 19t-13.5 43t-14.5 47.5t-11 32.5q0 2 -2 2h-223l-44 -139q-1 -1 -1 -1.5t-1 -1.5t-1 -2h-143zM270 261h168l-84 281l-2 -2zM551 835q0 -63 -31 -100t-83 -37q-46 0 -99 29q-35 19 -52 19q-26 0 -34 -46h-89q0 64 31.5 101t82.5 37 q47 0 100 -29q35 -19 52 -19q25 0 33 45h89z" />
<glyph unicode="&#xc4;" horiz-adv-x="714" d="M275 670h159l227 -670h-146q-2 0 -8 19t-13.5 43t-14.5 47.5t-11 32.5q0 2 -2 2h-223l-44 -139q-1 -1 -1 -1.5t-1 -1.5t-1 -2h-143zM270 261h168l-84 281l-2 -2zM541 774q0 -29 -22.5 -51.5t-53.5 -22.5t-54.5 22.5t-23.5 51.5q0 31 23.5 53t54.5 22t53.5 -22t22.5 -53z M328 774q0 -29 -23.5 -51.5t-54.5 -22.5q-30 0 -53.5 22.5t-23.5 51.5q0 31 23 53t54 22q32 0 55 -22t23 -53z" />
<glyph unicode="&#xc5;" horiz-adv-x="714" d="M275 670h159l227 -670h-146q-2 0 -8 19t-13.5 43t-14.5 47.5t-11 32.5q0 2 -2 2h-223l-44 -139q-1 -1 -1 -1.5t-1 -1.5t-1 -2h-143zM270 261h168l-84 281l-2 -2zM490 828q0 -56 -38 -92t-96 -36q-57 0 -95 36t-38 92q0 55 38 92t95 37q58 0 96 -37t38 -92zM415 828 q0 24 -17 40.5t-42 16.5q-24 0 -41 -16.5t-17 -40.5t17 -41t41 -17q25 0 42 17t17 41z" />
<glyph unicode="&#xc6;" horiz-adv-x="1027" d="M969 0h-470v120h-247l-80 -120h-158l465 670h475v-128h-323v-121h179v-126h-179v-167h338v-128zM501 500q-24 -45 -80 -129l-90 -134h168v123q0 21 1 74.5t1 65.5z" />
<glyph unicode="&#xc7;" horiz-adv-x="667" d="M162 85q-1 3 -4.5 9t-8 12.5t-8.5 12t-5 6.5q-9 15 -16.5 35.5t-13 42t-9 43t-3.5 39.5v103q0 22 6 48.5t15 51.5t19.5 46t20.5 33q15 18 27.5 32t27.5 25.5t35 22t49 22.5q4 4 16.5 6.5t26.5 4t28 1.5h22q42 0 77 -9t72 -31q6 -3 18.5 -12t25.5 -19.5t22.5 -20 t8.5 -13.5q0 -1 -9.5 -13.5t-22 -28t-26 -29t-21.5 -17.5h-3q-31 33 -62.5 55t-77.5 22q-47 0 -77 -21t-47 -54t-24 -73.5t-7 -79.5q0 -40 7 -81.5t25 -75t49 -55t79 -21.5q35 0 65 14t56 37q7 5 13.5 15.5t15.5 10.5q5 0 9.5 -6t6.5 -11l53 -69v-10q-50 -51 -107.5 -73 t-124.5 -22q-71 0 -121.5 22t-97.5 73zM457 -101q0 -84 -118 -84q-72 0 -129 35l20 36q45 -23 88 -23q54 0 54 33q0 25 -31 25q-16 0 -29 -7l-36 13l27 108h55l-17 -75q14 7 39 7q77 0 77 -68z" />
<glyph unicode="&#xc8;" horiz-adv-x="610" d="M518 670v-115h-259v-150h236v-116h-236v-174h271v-115h-409v670h397zM434 700h-116l-143 154h173z" />
<glyph unicode="&#xc9;" horiz-adv-x="610" d="M518 670v-115h-259v-150h236v-116h-236v-174h271v-115h-409v670h397zM434 854l-144 -154h-115l86 154h173z" />
<glyph unicode="&#xca;" horiz-adv-x="610" d="M518 670v-115h-259v-150h236v-116h-236v-174h271v-115h-409v670h397zM495 700h-92l-99 72l-99 -72h-90l121 154h139z" />
<glyph unicode="&#xcb;" horiz-adv-x="610" d="M518 670v-115h-259v-150h236v-116h-236v-174h271v-115h-409v670h397zM489 774q0 -29 -22.5 -51.5t-53.5 -22.5t-54.5 22.5t-23.5 51.5q0 31 23.5 53t54.5 22t53.5 -22t22.5 -53zM276 774q0 -29 -23.5 -51.5t-54.5 -22.5q-30 0 -53.5 22.5t-23.5 51.5q0 31 23 53t54 22 q32 0 55 -22t23 -53z" />
<glyph unicode="&#xcc;" horiz-adv-x="373" d="M120 670h133v-670h-133v670v0zM317 700h-116l-143 154h173z" />
<glyph unicode="&#xcd;" horiz-adv-x="373" d="M120 670h133v-670h-133v670v0zM317 854l-144 -154h-115l86 154h173z" />
<glyph unicode="&#xce;" horiz-adv-x="373" d="M120 670h133v-670h-133v670v0zM378 700h-92l-99 72l-99 -72h-90l121 154h139z" />
<glyph unicode="&#xcf;" horiz-adv-x="373" d="M120 670h133v-670h-133v670v0zM372 774q0 -29 -22.5 -51.5t-53.5 -22.5t-54.5 22.5t-23.5 51.5q0 31 23.5 53t54.5 22t53.5 -22t22.5 -53zM159 774q0 -29 -23.5 -51.5t-54.5 -22.5q-30 0 -53.5 22.5t-23.5 51.5q0 31 23 53t54 22q32 0 55 -22t23 -53z" />
<glyph unicode="&#xd0;" horiz-adv-x="699" d="M74 0v302h-76v60h76v302h239q80 0 124 -10q58 -12 100 -47q56 -44 83 -113.5t27 -157.5q0 -102 -33 -175t-80.5 -106t-109.5 -47q-33 -8 -98 -8h-252zM166 78h147q70 0 108.5 12.5t60.5 34.5q33 31 51.5 83.5t18.5 128.5q0 78 -17.5 124.5t-47.5 74.5t-66 39t-109 11 h-146v-224h190v-60h-190v-224z" />
<glyph unicode="&#xd1;" horiz-adv-x="767" d="M247 670l273 -415v415h128v-670h-120l-280 427v-427h-129v670h128zM577 835q0 -63 -31 -100t-83 -37q-46 0 -99 29q-35 19 -52 19q-26 0 -34 -46h-89q0 64 31.5 101t82.5 37q47 0 100 -29q35 -19 52 -19q25 0 33 45h89z" />
<glyph unicode="&#xd2;" horiz-adv-x="777" d="M179 63q-9 15 -19.5 28t-19.5 28q-30 50 -41 104.5t-11 112.5q0 93 26.5 167.5t99.5 130.5q10 8 23 14t24.5 10.5t20 7.5t10.5 5q23 6 42.5 8t52.5 2q48 0 80.5 -5.5t59.5 -20.5q39 -22 67 -48.5t47.5 -61.5t30.5 -81.5t17 -107.5q0 -78 -16 -145t-52 -116.5t-93.5 -77.5 t-140.5 -28q-60 0 -111 17.5t-97 56.5zM230 338q0 -42 5.5 -84t22.5 -75.5t47.5 -54.5t81.5 -21t82.5 20t49 53t23.5 75t6 85q0 44 -6 86t-23 74.5t-49 52.5t-84 20q-53 0 -83.5 -21.5t-47 -55t-21 -74.5t-4.5 -80zM518 700h-116l-143 154h173z" />
<glyph unicode="&#xd3;" horiz-adv-x="777" d="M179 63q-9 15 -19.5 28t-19.5 28q-30 50 -41 104.5t-11 112.5q0 93 26.5 167.5t99.5 130.5q10 8 23 14t24.5 10.5t20 7.5t10.5 5q23 6 42.5 8t52.5 2q48 0 80.5 -5.5t59.5 -20.5q39 -22 67 -48.5t47.5 -61.5t30.5 -81.5t17 -107.5q0 -78 -16 -145t-52 -116.5t-93.5 -77.5 t-140.5 -28q-60 0 -111 17.5t-97 56.5zM230 338q0 -42 5.5 -84t22.5 -75.5t47.5 -54.5t81.5 -21t82.5 20t49 53t23.5 75t6 85q0 44 -6 86t-23 74.5t-49 52.5t-84 20q-53 0 -83.5 -21.5t-47 -55t-21 -74.5t-4.5 -80zM518 854l-144 -154h-115l86 154h173z" />
<glyph unicode="&#xd4;" horiz-adv-x="777" d="M179 63q-9 15 -19.5 28t-19.5 28q-30 50 -41 104.5t-11 112.5q0 93 26.5 167.5t99.5 130.5q10 8 23 14t24.5 10.5t20 7.5t10.5 5q23 6 42.5 8t52.5 2q48 0 80.5 -5.5t59.5 -20.5q39 -22 67 -48.5t47.5 -61.5t30.5 -81.5t17 -107.5q0 -78 -16 -145t-52 -116.5t-93.5 -77.5 t-140.5 -28q-60 0 -111 17.5t-97 56.5zM230 338q0 -42 5.5 -84t22.5 -75.5t47.5 -54.5t81.5 -21t82.5 20t49 53t23.5 75t6 85q0 44 -6 86t-23 74.5t-49 52.5t-84 20q-53 0 -83.5 -21.5t-47 -55t-21 -74.5t-4.5 -80zM578 700h-92l-99 72l-99 -72h-90l121 154h139z" />
<glyph unicode="&#xd5;" horiz-adv-x="777" d="M179 63q-9 15 -19.5 28t-19.5 28q-30 50 -41 104.5t-11 112.5q0 93 26.5 167.5t99.5 130.5q10 8 23 14t24.5 10.5t20 7.5t10.5 5q23 6 42.5 8t52.5 2q48 0 80.5 -5.5t59.5 -20.5q39 -22 67 -48.5t47.5 -61.5t30.5 -81.5t17 -107.5q0 -78 -16 -145t-52 -116.5t-93.5 -77.5 t-140.5 -28q-60 0 -111 17.5t-97 56.5zM230 338q0 -42 5.5 -84t22.5 -75.5t47.5 -54.5t81.5 -21t82.5 20t49 53t23.5 75t6 85q0 44 -6 86t-23 74.5t-49 52.5t-84 20q-53 0 -83.5 -21.5t-47 -55t-21 -74.5t-4.5 -80zM582 835q0 -63 -31 -100t-83 -37q-46 0 -99 29 q-35 19 -52 19q-26 0 -34 -46h-89q0 64 31.5 101t82.5 37q47 0 100 -29q35 -19 52 -19q25 0 33 45h89z" />
<glyph unicode="&#xd6;" horiz-adv-x="777" d="M179 63q-9 15 -19.5 28t-19.5 28q-30 50 -41 104.5t-11 112.5q0 93 26.5 167.5t99.5 130.5q10 8 23 14t24.5 10.5t20 7.5t10.5 5q23 6 42.5 8t52.5 2q48 0 80.5 -5.5t59.5 -20.5q39 -22 67 -48.5t47.5 -61.5t30.5 -81.5t17 -107.5q0 -78 -16 -145t-52 -116.5t-93.5 -77.5 t-140.5 -28q-60 0 -111 17.5t-97 56.5zM230 338q0 -42 5.5 -84t22.5 -75.5t47.5 -54.5t81.5 -21t82.5 20t49 53t23.5 75t6 85q0 44 -6 86t-23 74.5t-49 52.5t-84 20q-53 0 -83.5 -21.5t-47 -55t-21 -74.5t-4.5 -80zM572 774q0 -29 -22.5 -51.5t-53.5 -22.5t-54.5 22.5 t-23.5 51.5q0 31 23.5 53t54.5 22t53.5 -22t22.5 -53zM359 774q0 -29 -23.5 -51.5t-54.5 -22.5q-30 0 -53.5 22.5t-23.5 51.5q0 31 23 53t54 22q32 0 55 -22t23 -53z" />
<glyph unicode="&#xd7;" horiz-adv-x="565" d="M76 186l149 142l-149 142l57 55l148 -141l151 141l54 -55l-147 -142l147 -141l-54 -56l-151 142l-148 -142z" />
<glyph unicode="&#xd8;" horiz-adv-x="777" d="M179 63q-9 15 -19.5 28t-19.5 28q-30 50 -41 104.5t-11 112.5q0 93 26.5 167.5t99.5 130.5q10 8 23 14t24.5 10.5t20 7.5t10.5 5q23 6 42.5 8t52.5 2q48 0 80.5 -5.5t59.5 -20.5q39 -22 67 -48.5t47.5 -61.5t30.5 -81.5t17 -107.5q0 -78 -16 -145t-52 -116.5t-93.5 -77.5 t-140.5 -28q-60 0 -111 17.5t-97 56.5zM230 338q0 -42 5.5 -84t22.5 -75.5t47.5 -54.5t81.5 -21t82.5 20t49 53t23.5 75t6 85q0 44 -6 86t-23 74.5t-49 52.5t-84 20q-53 0 -83.5 -21.5t-47 -55t-21 -74.5t-4.5 -80zM505 788h111l-339 -817h-117z" />
<glyph unicode="&#xd9;" horiz-adv-x="745" d="M133 139q-3 11 -5 24.5t-3.5 25.5t-2.5 21.5t-1 12.5v447h134v-426q0 -30 6.5 -56t20.5 -45t36.5 -30t54.5 -11q48 0 79 30t32 79l5 459h135v-412q0 -33 -4.5 -68t-16.5 -67.5t-32.5 -60t-51.5 -44.5q-23 -13 -49 -21.5t-53 -8.5h-91q-21 0 -45.5 6.5t-47.5 18.5 t-42.5 29t-29.5 37q-8 14 -14 30t-14 30zM502 700h-116l-143 154h173z" />
<glyph unicode="&#xda;" horiz-adv-x="745" d="M133 139q-3 11 -5 24.5t-3.5 25.5t-2.5 21.5t-1 12.5v447h134v-426q0 -30 6.5 -56t20.5 -45t36.5 -30t54.5 -11q48 0 79 30t32 79l5 459h135v-412q0 -33 -4.5 -68t-16.5 -67.5t-32.5 -60t-51.5 -44.5q-23 -13 -49 -21.5t-53 -8.5h-91q-21 0 -45.5 6.5t-47.5 18.5 t-42.5 29t-29.5 37q-8 14 -14 30t-14 30zM502 854l-144 -154h-115l86 154h173z" />
<glyph unicode="&#xdb;" horiz-adv-x="745" d="M133 139q-3 11 -5 24.5t-3.5 25.5t-2.5 21.5t-1 12.5v447h134v-426q0 -30 6.5 -56t20.5 -45t36.5 -30t54.5 -11q48 0 79 30t32 79l5 459h135v-412q0 -33 -4.5 -68t-16.5 -67.5t-32.5 -60t-51.5 -44.5q-23 -13 -49 -21.5t-53 -8.5h-91q-21 0 -45.5 6.5t-47.5 18.5 t-42.5 29t-29.5 37q-8 14 -14 30t-14 30zM562 700h-92l-99 72l-99 -72h-90l121 154h139z" />
<glyph unicode="&#xdc;" horiz-adv-x="745" d="M133 139q-3 11 -5 24.5t-3.5 25.5t-2.5 21.5t-1 12.5v447h134v-426q0 -30 6.5 -56t20.5 -45t36.5 -30t54.5 -11q48 0 79 30t32 79l5 459h135v-412q0 -33 -4.5 -68t-16.5 -67.5t-32.5 -60t-51.5 -44.5q-23 -13 -49 -21.5t-53 -8.5h-91q-21 0 -45.5 6.5t-47.5 18.5 t-42.5 29t-29.5 37q-8 14 -14 30t-14 30zM556 774q0 -29 -22.5 -51.5t-53.5 -22.5t-54.5 22.5t-23.5 51.5q0 31 23.5 53t54.5 22t53.5 -22t22.5 -53zM343 774q0 -29 -23.5 -51.5t-54.5 -22.5q-30 0 -53.5 22.5t-23.5 51.5q0 31 23 53t54 22q32 0 55 -22t23 -53z" />
<glyph unicode="&#xdd;" horiz-adv-x="634" d="M34 670h153l133 -287l135 287h145l-213 -408v-262h-135v255zM446 854l-144 -154h-115l86 154h173z" />
<glyph unicode="&#xde;" horiz-adv-x="645" d="M74 0v664h92v-135h169q70 0 106 -7q51 -7 86 -30t55.5 -64.5t20.5 -90.5q0 -84 -56.5 -143t-203.5 -59h-177v-135h-92zM166 213h179q89 0 126.5 31.5t37.5 89.5q0 41 -22 71t-58 39q-24 7 -86 7h-177v-238z" />
<glyph unicode="&#xdf;" horiz-adv-x="580" d="M540 212q0 -212 -240 -212h-22v120h18q106 0 106 92q0 107 -118 107h-6v115h5q65 0 65 69q0 67 -74 67q-41 0 -56 -19t-15 -59v-611l-137 -66v684q0 196 210 196q91 0 149 -45q62 -49 62 -132q0 -103 -92 -133q145 -28 145 -173z" />
<glyph unicode="&#xe0;" horiz-adv-x="651" d="M99 77q-5 20 -8.5 39t-3.5 39q0 29 7.5 59t30.5 54q11 12 20.5 20t21 15t27.5 14.5t42 17.5q1 1 2.5 1.5t2.5 1.5q39 10 79.5 13.5t80.5 4.5q0 3 0.5 11.5t0.5 10.5q0 46 -16.5 62.5t-62.5 16.5q-48 0 -91 -13.5t-84 -36.5q-1 0 -3 0.5t-2 2.5l-35 90q0 6 1 5.5t6 1.5 q30 12 56 22t51.5 16.5t53 10t59.5 3.5q31 0 61.5 -4.5t56.5 -17t45 -34.5t27 -56q1 -5 3 -14t3.5 -17.5t2.5 -15t1 -7.5v-283q0 -8 6 -16t13 -14.5t12 -11t3 -5.5l-51 -49q-8 -5 -14 -13t-16 -8q-14 0 -29 8t-25 18q-1 1 -4 6.5t-6 12t-6 11.5l-3 5q-20 -15 -38 -26.5 t-41 -22.5l-2 -2l-49 -12h-74q-22 0 -38.5 8.5t-29.5 21.5t-23.5 28t-20.5 28zM217 162q0 -32 16.5 -56.5t56.5 -24.5q32 0 60 13.5t51 33.5v145q-91 0 -137.5 -26.5t-46.5 -84.5zM455 569h-116l-143 154h173z" />
<glyph unicode="&#xe1;" horiz-adv-x="651" d="M99 77q-5 20 -8.5 39t-3.5 39q0 29 7.5 59t30.5 54q11 12 20.5 20t21 15t27.5 14.5t42 17.5q1 1 2.5 1.5t2.5 1.5q39 10 79.5 13.5t80.5 4.5q0 3 0.5 11.5t0.5 10.5q0 46 -16.5 62.5t-62.5 16.5q-48 0 -91 -13.5t-84 -36.5q-1 0 -3 0.5t-2 2.5l-35 90q0 6 1 5.5t6 1.5 q30 12 56 22t51.5 16.5t53 10t59.5 3.5q31 0 61.5 -4.5t56.5 -17t45 -34.5t27 -56q1 -5 3 -14t3.5 -17.5t2.5 -15t1 -7.5v-283q0 -8 6 -16t13 -14.5t12 -11t3 -5.5l-51 -49q-8 -5 -14 -13t-16 -8q-14 0 -29 8t-25 18q-1 1 -4 6.5t-6 12t-6 11.5l-3 5q-20 -15 -38 -26.5 t-41 -22.5l-2 -2l-49 -12h-74q-22 0 -38.5 8.5t-29.5 21.5t-23.5 28t-20.5 28zM217 162q0 -32 16.5 -56.5t56.5 -24.5q32 0 60 13.5t51 33.5v145q-91 0 -137.5 -26.5t-46.5 -84.5zM455 723l-144 -154h-115l86 154h173z" />
<glyph unicode="&#xe2;" horiz-adv-x="651" d="M99 77q-5 20 -8.5 39t-3.5 39q0 29 7.5 59t30.5 54q11 12 20.5 20t21 15t27.5 14.5t42 17.5q1 1 2.5 1.5t2.5 1.5q39 10 79.5 13.5t80.5 4.5q0 3 0.5 11.5t0.5 10.5q0 46 -16.5 62.5t-62.5 16.5q-48 0 -91 -13.5t-84 -36.5q-1 0 -3 0.5t-2 2.5l-35 90q0 6 1 5.5t6 1.5 q30 12 56 22t51.5 16.5t53 10t59.5 3.5q31 0 61.5 -4.5t56.5 -17t45 -34.5t27 -56q1 -5 3 -14t3.5 -17.5t2.5 -15t1 -7.5v-283q0 -8 6 -16t13 -14.5t12 -11t3 -5.5l-51 -49q-8 -5 -14 -13t-16 -8q-14 0 -29 8t-25 18q-1 1 -4 6.5t-6 12t-6 11.5l-3 5q-20 -15 -38 -26.5 t-41 -22.5l-2 -2l-49 -12h-74q-22 0 -38.5 8.5t-29.5 21.5t-23.5 28t-20.5 28zM217 162q0 -32 16.5 -56.5t56.5 -24.5q32 0 60 13.5t51 33.5v145q-91 0 -137.5 -26.5t-46.5 -84.5zM515 569h-92l-99 72l-99 -72h-90l121 154h139z" />
<glyph unicode="&#xe3;" horiz-adv-x="651" d="M99 77q-5 20 -8.5 39t-3.5 39q0 29 7.5 59t30.5 54q11 12 20.5 20t21 15t27.5 14.5t42 17.5q1 1 2.5 1.5t2.5 1.5q39 10 79.5 13.5t80.5 4.5q0 3 0.5 11.5t0.5 10.5q0 46 -16.5 62.5t-62.5 16.5q-48 0 -91 -13.5t-84 -36.5q-1 0 -3 0.5t-2 2.5l-35 90q0 6 1 5.5t6 1.5 q30 12 56 22t51.5 16.5t53 10t59.5 3.5q31 0 61.5 -4.5t56.5 -17t45 -34.5t27 -56q1 -5 3 -14t3.5 -17.5t2.5 -15t1 -7.5v-283q0 -8 6 -16t13 -14.5t12 -11t3 -5.5l-51 -49q-8 -5 -14 -13t-16 -8q-14 0 -29 8t-25 18q-1 1 -4 6.5t-6 12t-6 11.5l-3 5q-20 -15 -38 -26.5 t-41 -22.5l-2 -2l-49 -12h-74q-22 0 -38.5 8.5t-29.5 21.5t-23.5 28t-20.5 28zM217 162q0 -32 16.5 -56.5t56.5 -24.5q32 0 60 13.5t51 33.5v145q-91 0 -137.5 -26.5t-46.5 -84.5zM519 704q0 -63 -31 -100t-83 -37q-46 0 -99 29q-35 19 -52 19q-26 0 -34 -46h-89 q0 64 31.5 101t82.5 37q47 0 100 -29q35 -19 52 -19q25 0 33 45h89z" />
<glyph unicode="&#xe4;" horiz-adv-x="651" d="M99 77q-5 20 -8.5 39t-3.5 39q0 29 7.5 59t30.5 54q11 12 20.5 20t21 15t27.5 14.5t42 17.5q1 1 2.5 1.5t2.5 1.5q39 10 79.5 13.5t80.5 4.5q0 3 0.5 11.5t0.5 10.5q0 46 -16.5 62.5t-62.5 16.5q-48 0 -91 -13.5t-84 -36.5q-1 0 -3 0.5t-2 2.5l-35 90q0 6 1 5.5t6 1.5 q30 12 56 22t51.5 16.5t53 10t59.5 3.5q31 0 61.5 -4.5t56.5 -17t45 -34.5t27 -56q1 -5 3 -14t3.5 -17.5t2.5 -15t1 -7.5v-283q0 -8 6 -16t13 -14.5t12 -11t3 -5.5l-51 -49q-8 -5 -14 -13t-16 -8q-14 0 -29 8t-25 18q-1 1 -4 6.5t-6 12t-6 11.5l-3 5q-20 -15 -38 -26.5 t-41 -22.5l-2 -2l-49 -12h-74q-22 0 -38.5 8.5t-29.5 21.5t-23.5 28t-20.5 28zM217 162q0 -32 16.5 -56.5t56.5 -24.5q32 0 60 13.5t51 33.5v145q-91 0 -137.5 -26.5t-46.5 -84.5zM509 643q0 -29 -22.5 -51.5t-53.5 -22.5t-54.5 22.5t-23.5 51.5q0 31 23.5 53t54.5 22 t53.5 -22t22.5 -53zM296 643q0 -29 -23.5 -51.5t-54.5 -22.5q-30 0 -53.5 22.5t-23.5 51.5q0 31 23 53t54 22q32 0 55 -22t23 -53z" />
<glyph unicode="&#xe5;" horiz-adv-x="651" d="M99 77q-5 20 -8.5 39t-3.5 39q0 29 7.5 59t30.5 54q11 12 20.5 20t21 15t27.5 14.5t42 17.5q1 1 2.5 1.5t2.5 1.5q39 10 79.5 13.5t80.5 4.5q0 3 0.5 11.5t0.5 10.5q0 46 -16.5 62.5t-62.5 16.5q-48 0 -91 -13.5t-84 -36.5q-1 0 -3 0.5t-2 2.5l-35 90q0 6 1 5.5t6 1.5 q30 12 56 22t51.5 16.5t53 10t59.5 3.5q31 0 61.5 -4.5t56.5 -17t45 -34.5t27 -56q1 -5 3 -14t3.5 -17.5t2.5 -15t1 -7.5v-283q0 -8 6 -16t13 -14.5t12 -11t3 -5.5l-51 -49q-8 -5 -14 -13t-16 -8q-14 0 -29 8t-25 18q-1 1 -4 6.5t-6 12t-6 11.5l-3 5q-20 -15 -38 -26.5 t-41 -22.5l-2 -2l-49 -12h-74q-22 0 -38.5 8.5t-29.5 21.5t-23.5 28t-20.5 28zM217 162q0 -32 16.5 -56.5t56.5 -24.5q32 0 60 13.5t51 33.5v145q-91 0 -137.5 -26.5t-46.5 -84.5zM459 697q0 -56 -38 -92t-96 -36q-57 0 -95 36t-38 92q0 55 38 92t95 37q58 0 96 -37t38 -92z M384 697q0 24 -17 40.5t-42 16.5q-24 0 -41 -16.5t-17 -40.5t17 -41t41 -17q25 0 42 17t17 41z" />
<glyph unicode="&#xe6;" horiz-adv-x="834" d="M791 251q0 -23 -2 -42h-310q3 -48 36 -73q29 -22 71 -22q57 0 89 35l97 -78q-31 -38 -82 -60t-104 -22q-116 0 -182 77q-71 -77 -169 -77q-79 0 -133 44q-60 49 -60 135q0 81 61 126q56 41 149 41q59 0 100 -20v25q0 28 -19 46t-55 18q-78 0 -142 -34l-53 92 q91 51 195 51q102 0 156 -58q56 58 139 58q101 0 161 -78q57 -72 57 -184zM659 308q-3 38 -25 62q-26 28 -68 28q-36 0 -58.5 -25.5t-26.5 -64.5h178zM352 147v64q-34 21 -95 21q-79 0 -79 -64q0 -67 79 -67q67 0 95 46z" />
<glyph unicode="&#xe7;" horiz-adv-x="580" d="M87 272q0 63 15.5 116t47.5 91t80.5 59.5t114.5 21.5q23 0 49.5 -4.5t51.5 -13t46 -20t33 -25.5q1 2 0 0t-3 -6.5t-5 -9.5t-6 -9q-3 -5 -7.5 -14.5t-10.5 -20t-12 -20t-10 -13.5q-26 23 -55.5 37t-65.5 14q-39 0 -63.5 -16t-38.5 -42t-19 -58t-5 -64t6 -63.5t20 -57 t38.5 -41.5t61.5 -16q28 0 51 6t47 20q1 1 6.5 4t11 7t10.5 7t7 3h2l42 -91v-3q-45 -28 -90 -44t-98 -16q-65 0 -112.5 21.5t-78.5 59.5t-46 89.5t-15 111.5zM413 -101q0 -84 -118 -84q-72 0 -129 35l20 36q45 -23 88 -23q54 0 54 33q0 25 -31 25q-16 0 -29 -7l-36 13 l27 108h55l-17 -75q14 7 39 7q77 0 77 -68z" />
<glyph unicode="&#xe8;" horiz-adv-x="655" d="M129 98q-24 43 -33 87.5t-9 92.5q0 61 15.5 112.5t47 89.5t78.5 59.5t111 21.5q72 0 128 -34t81 -106q16 -45 17.5 -92t1.5 -95h-341q0 -3 -0.5 -13t-0.5 -18q0 -5 3 -18.5t6 -19.5q16 -38 47 -54t72 -16q18 0 39 4t41 10.5t36.5 14.5t24.5 16q17 -24 24 -44.5t18 -44.5 v-6l-5 -3.5t-12.5 -8t-15.5 -8.5t-13 -6q-42 -15 -74 -21.5t-70 -6.5q-45 0 -91.5 12.5t-81.5 43.5q-4 4 -10 11t-12.5 15t-12.5 15t-9 10zM339 461q-30 0 -52.5 -11.5t-36.5 -30.5t-21 -44.5t-7 -53.5h221q0 27 -5 52t-17 44.5t-32 31.5t-50 12zM457 569h-116l-143 154h173 z" />
<glyph unicode="&#xe9;" horiz-adv-x="655" d="M129 98q-24 43 -33 87.5t-9 92.5q0 61 15.5 112.5t47 89.5t78.5 59.5t111 21.5q72 0 128 -34t81 -106q16 -45 17.5 -92t1.5 -95h-341q0 -3 -0.5 -13t-0.5 -18q0 -5 3 -18.5t6 -19.5q16 -38 47 -54t72 -16q18 0 39 4t41 10.5t36.5 14.5t24.5 16q17 -24 24 -44.5t18 -44.5 v-6l-5 -3.5t-12.5 -8t-15.5 -8.5t-13 -6q-42 -15 -74 -21.5t-70 -6.5q-45 0 -91.5 12.5t-81.5 43.5q-4 4 -10 11t-12.5 15t-12.5 15t-9 10zM339 461q-30 0 -52.5 -11.5t-36.5 -30.5t-21 -44.5t-7 -53.5h221q0 27 -5 52t-17 44.5t-32 31.5t-50 12zM457 723l-144 -154h-115 l86 154h173z" />
<glyph unicode="&#xea;" horiz-adv-x="655" d="M129 98q-24 43 -33 87.5t-9 92.5q0 61 15.5 112.5t47 89.5t78.5 59.5t111 21.5q72 0 128 -34t81 -106q16 -45 17.5 -92t1.5 -95h-341q0 -3 -0.5 -13t-0.5 -18q0 -5 3 -18.5t6 -19.5q16 -38 47 -54t72 -16q18 0 39 4t41 10.5t36.5 14.5t24.5 16q17 -24 24 -44.5t18 -44.5 v-6l-5 -3.5t-12.5 -8t-15.5 -8.5t-13 -6q-42 -15 -74 -21.5t-70 -6.5q-45 0 -91.5 12.5t-81.5 43.5q-4 4 -10 11t-12.5 15t-12.5 15t-9 10zM339 461q-30 0 -52.5 -11.5t-36.5 -30.5t-21 -44.5t-7 -53.5h221q0 27 -5 52t-17 44.5t-32 31.5t-50 12zM517 569h-92l-99 72 l-99 -72h-90l121 154h139z" />
<glyph unicode="&#xeb;" horiz-adv-x="655" d="M129 98q-24 43 -33 87.5t-9 92.5q0 61 15.5 112.5t47 89.5t78.5 59.5t111 21.5q72 0 128 -34t81 -106q16 -45 17.5 -92t1.5 -95h-341q0 -3 -0.5 -13t-0.5 -18q0 -5 3 -18.5t6 -19.5q16 -38 47 -54t72 -16q18 0 39 4t41 10.5t36.5 14.5t24.5 16q17 -24 24 -44.5t18 -44.5 v-6l-5 -3.5t-12.5 -8t-15.5 -8.5t-13 -6q-42 -15 -74 -21.5t-70 -6.5q-45 0 -91.5 12.5t-81.5 43.5q-4 4 -10 11t-12.5 15t-12.5 15t-9 10zM339 461q-30 0 -52.5 -11.5t-36.5 -30.5t-21 -44.5t-7 -53.5h221q0 27 -5 52t-17 44.5t-32 31.5t-50 12zM511 643q0 -29 -22.5 -51.5 t-53.5 -22.5t-54.5 22.5t-23.5 51.5q0 31 23.5 53t54.5 22t53.5 -22t22.5 -53zM298 643q0 -29 -23.5 -51.5t-54.5 -22.5q-30 0 -53.5 22.5t-23.5 51.5q0 31 23 53t54 22q32 0 55 -22t23 -53z" />
<glyph unicode="&#xec;" horiz-adv-x="363" d="M118 549h130v-549h-130v549v0zM312 569h-116l-143 154h173z" />
<glyph unicode="&#xed;" horiz-adv-x="363" d="M118 549h130v-549h-130v549v0zM312 723l-144 -154h-115l86 154h173z" />
<glyph unicode="&#xee;" horiz-adv-x="363" d="M118 549h130v-549h-130v549v0zM373 569h-92l-99 72l-99 -72h-90l121 154h139z" />
<glyph unicode="&#xef;" horiz-adv-x="363" d="M118 549h130v-549h-130v549v0zM367 643q0 -29 -22.5 -51.5t-53.5 -22.5t-54.5 22.5t-23.5 51.5q0 31 23.5 53t54.5 22t53.5 -22t22.5 -53zM154 643q0 -29 -23.5 -51.5t-54.5 -22.5q-30 0 -53.5 22.5t-23.5 51.5q0 31 23 53t54 22q32 0 55 -22t23 -53z" />
<glyph unicode="&#xf0;" horiz-adv-x="537" d="M146 664h102q33 -24 59 -46l100 46l22 -46l-82 -38q153 -166 153 -344q0 -115 -66.5 -181t-167.5 -66q-120 0 -188 87q-43 58 -43 158q0 119 60 183t153 64q27 0 48 -5.5t51 -21.5q-16 34 -28.5 52t-37.5 45l-130 -57l-21 47l114 49q-46 40 -98 74zM411 240 q0 87 -42.5 132.5t-105.5 45.5q-62 0 -101.5 -45.5t-39.5 -140.5q0 -88 41 -132t103 -44q60 0 102.5 46.5t42.5 137.5z" />
<glyph unicode="&#xf1;" horiz-adv-x="677" d="M228 544q1 0 2.5 -6t2.5 -15t2.5 -18.5t2.5 -15.5q10 20 27 33t37 20.5t42 10.5t43 3q47 0 80.5 -14t54.5 -40t31 -62.5t10 -81.5v-358h-131v349q0 52 -25 74t-62 22q-18 0 -35.5 -5.5t-32 -17t-23 -28t-8.5 -38.5v-356h-132v544h114zM532 704q0 -63 -31 -100t-83 -37 q-46 0 -99 29q-35 19 -52 19q-26 0 -34 -46h-89q0 64 31.5 101t82.5 37q47 0 100 -29q35 -19 52 -19q25 0 33 45h89z" />
<glyph unicode="&#xf2;" horiz-adv-x="681" d="M133 88q-28 45 -36.5 90.5t-8.5 96.5q0 63 14 115t44 90t77 59t113 21q67 0 115.5 -20.5t80 -58t46.5 -89.5t15 -116q0 -61 -14.5 -113t-45.5 -90.5t-79 -60.5t-115 -22q-44 0 -88 11t-77 43q-10 10 -20 22t-21 22zM223 274q0 -32 3 -64t15 -57t35 -40.5t62 -15.5 q29 0 50.5 10.5t36 28.5t22 41.5t7.5 49.5v96q-5 26 -11.5 49.5t-19 41.5t-32.5 28.5t-51 10.5q-39 0 -62 -16t-35.5 -42t-16 -58t-3.5 -63zM470 569h-116l-143 154h173z" />
<glyph unicode="&#xf3;" horiz-adv-x="681" d="M133 88q-28 45 -36.5 90.5t-8.5 96.5q0 63 14 115t44 90t77 59t113 21q67 0 115.5 -20.5t80 -58t46.5 -89.5t15 -116q0 -61 -14.5 -113t-45.5 -90.5t-79 -60.5t-115 -22q-44 0 -88 11t-77 43q-10 10 -20 22t-21 22zM223 274q0 -32 3 -64t15 -57t35 -40.5t62 -15.5 q29 0 50.5 10.5t36 28.5t22 41.5t7.5 49.5v96q-5 26 -11.5 49.5t-19 41.5t-32.5 28.5t-51 10.5q-39 0 -62 -16t-35.5 -42t-16 -58t-3.5 -63zM470 723l-144 -154h-115l86 154h173z" />
<glyph unicode="&#xf4;" horiz-adv-x="681" d="M133 88q-28 45 -36.5 90.5t-8.5 96.5q0 63 14 115t44 90t77 59t113 21q67 0 115.5 -20.5t80 -58t46.5 -89.5t15 -116q0 -61 -14.5 -113t-45.5 -90.5t-79 -60.5t-115 -22q-44 0 -88 11t-77 43q-10 10 -20 22t-21 22zM223 274q0 -32 3 -64t15 -57t35 -40.5t62 -15.5 q29 0 50.5 10.5t36 28.5t22 41.5t7.5 49.5v96q-5 26 -11.5 49.5t-19 41.5t-32.5 28.5t-51 10.5q-39 0 -62 -16t-35.5 -42t-16 -58t-3.5 -63zM530 569h-92l-99 72l-99 -72h-90l121 154h139z" />
<glyph unicode="&#xf5;" horiz-adv-x="681" d="M133 88q-28 45 -36.5 90.5t-8.5 96.5q0 63 14 115t44 90t77 59t113 21q67 0 115.5 -20.5t80 -58t46.5 -89.5t15 -116q0 -61 -14.5 -113t-45.5 -90.5t-79 -60.5t-115 -22q-44 0 -88 11t-77 43q-10 10 -20 22t-21 22zM223 274q0 -32 3 -64t15 -57t35 -40.5t62 -15.5 q29 0 50.5 10.5t36 28.5t22 41.5t7.5 49.5v96q-5 26 -11.5 49.5t-19 41.5t-32.5 28.5t-51 10.5q-39 0 -62 -16t-35.5 -42t-16 -58t-3.5 -63zM534 704q0 -63 -31 -100t-83 -37q-46 0 -99 29q-35 19 -52 19q-26 0 -34 -46h-89q0 64 31.5 101t82.5 37q47 0 100 -29 q35 -19 52 -19q25 0 33 45h89z" />
<glyph unicode="&#xf6;" horiz-adv-x="681" d="M133 88q-28 45 -36.5 90.5t-8.5 96.5q0 63 14 115t44 90t77 59t113 21q67 0 115.5 -20.5t80 -58t46.5 -89.5t15 -116q0 -61 -14.5 -113t-45.5 -90.5t-79 -60.5t-115 -22q-44 0 -88 11t-77 43q-10 10 -20 22t-21 22zM223 274q0 -32 3 -64t15 -57t35 -40.5t62 -15.5 q29 0 50.5 10.5t36 28.5t22 41.5t7.5 49.5v96q-5 26 -11.5 49.5t-19 41.5t-32.5 28.5t-51 10.5q-39 0 -62 -16t-35.5 -42t-16 -58t-3.5 -63zM524 643q0 -29 -22.5 -51.5t-53.5 -22.5t-54.5 22.5t-23.5 51.5q0 31 23.5 53t54.5 22t53.5 -22t22.5 -53zM311 643 q0 -29 -23.5 -51.5t-54.5 -22.5q-30 0 -53.5 22.5t-23.5 51.5q0 31 23 53t54 22q32 0 55 -22t23 -53z" />
<glyph unicode="&#xf7;" horiz-adv-x="530" d="M217 417v94h96v-94h-96zM492 290h-456v76h456v-76zM217 145v92h96v-92h-96z" />
<glyph unicode="&#xf8;" horiz-adv-x="681" d="M133 88q-28 45 -36.5 90.5t-8.5 96.5q0 63 14 115t44 90t77 59t113 21q67 0 115.5 -20.5t80 -58t46.5 -89.5t15 -116q0 -61 -14.5 -113t-45.5 -90.5t-79 -60.5t-115 -22q-44 0 -88 11t-77 43q-10 10 -20 22t-21 22zM223 274q0 -32 3 -64t15 -57t35 -40.5t62 -15.5 q29 0 50.5 10.5t36 28.5t22 41.5t7.5 49.5v96q-5 26 -11.5 49.5t-19 41.5t-32.5 28.5t-51 10.5q-39 0 -62 -16t-35.5 -42t-16 -58t-3.5 -63zM457 788h111l-339 -817h-117z" />
<glyph unicode="&#xf9;" horiz-adv-x="675" d="M115 546h132v-356q0 -50 25 -70.5t59 -20.5q40 0 67.5 22.5t27.5 66.5v358h134v-544h-121l-7 53h-3q-1 -1 -4.5 -5.5t-9 -10.5t-11.5 -12.5t-12 -10.5q-1 0 -1 -0.5t-1 -0.5q-1 -1 -2 -1q-26 -16 -50.5 -21t-54.5 -5t-54 4.5t-42.5 15.5t-33 30t-26.5 48q-6 14 -6.5 29 t-5.5 29v402zM467 569h-116l-143 154h173z" />
<glyph unicode="&#xfa;" horiz-adv-x="675" d="M115 546h132v-356q0 -50 25 -70.5t59 -20.5q40 0 67.5 22.5t27.5 66.5v358h134v-544h-121l-7 53h-3q-1 -1 -4.5 -5.5t-9 -10.5t-11.5 -12.5t-12 -10.5q-1 0 -1 -0.5t-1 -0.5q-1 -1 -2 -1q-26 -16 -50.5 -21t-54.5 -5t-54 4.5t-42.5 15.5t-33 30t-26.5 48q-6 14 -6.5 29 t-5.5 29v402zM467 723l-144 -154h-115l86 154h173z" />
<glyph unicode="&#xfb;" horiz-adv-x="675" d="M115 546h132v-356q0 -50 25 -70.5t59 -20.5q40 0 67.5 22.5t27.5 66.5v358h134v-544h-121l-7 53h-3q-1 -1 -4.5 -5.5t-9 -10.5t-11.5 -12.5t-12 -10.5q-1 0 -1 -0.5t-1 -0.5q-1 -1 -2 -1q-26 -16 -50.5 -21t-54.5 -5t-54 4.5t-42.5 15.5t-33 30t-26.5 48q-6 14 -6.5 29 t-5.5 29v402zM527 569h-92l-99 72l-99 -72h-90l121 154h139z" />
<glyph unicode="&#xfc;" horiz-adv-x="675" d="M115 546h132v-356q0 -50 25 -70.5t59 -20.5q40 0 67.5 22.5t27.5 66.5v358h134v-544h-121l-7 53h-3q-1 -1 -4.5 -5.5t-9 -10.5t-11.5 -12.5t-12 -10.5q-1 0 -1 -0.5t-1 -0.5q-1 -1 -2 -1q-26 -16 -50.5 -21t-54.5 -5t-54 4.5t-42.5 15.5t-33 30t-26.5 48q-6 14 -6.5 29 t-5.5 29v402zM521 643q0 -29 -22.5 -51.5t-53.5 -22.5t-54.5 22.5t-23.5 51.5q0 31 23.5 53t54.5 22t53.5 -22t22.5 -53zM308 643q0 -29 -23.5 -51.5t-54.5 -22.5q-30 0 -53.5 22.5t-23.5 51.5q0 31 23 53t54 22q32 0 55 -22t23 -53z" />
<glyph unicode="&#xfd;" horiz-adv-x="595" d="M84 -101h12t19 0.5t19 0.5h12q22 1 36 9.5t22.5 22t14 31t11.5 35.5q0 1 -1 4.5t-1 4.5q-6 16 -19.5 55t-30.5 90.5t-36.5 109.5t-38 112.5t-33.5 99.5t-24 70h139l115 -402q15 51 28.5 100t27 98.5t27.5 100t29 103.5h137l-163 -488q-4 -20 -11.5 -39t-14.5 -38 q-9 -24 -20.5 -53.5t-26.5 -56.5t-36 -48t-49 -28q-20 -5 -37.5 -6t-37.5 -1h-18.5t-23 0.5t-19.5 1.5t-8 3v108v0zM427 723l-144 -154h-115l86 154h173z" />
<glyph unicode="&#xfe;" horiz-adv-x="537" d="M63 -185v849h86v-234q35 35 60 47q35 15 78 15q64 0 113 -32t74.5 -89.5t25.5 -126.5q0 -75 -28.5 -133t-80.5 -90t-110 -32q-39 0 -73 15q-24 12 -59 46v-235h-86zM141 238q0 -93 39 -137t95 -44t97 45.5t41 142.5q0 92 -40 137.5t-94 45.5q-56 0 -97 -48.5t-41 -141.5z " />
<glyph unicode="&#xff;" horiz-adv-x="595" d="M84 -101h12t19 0.5t19 0.5h12q22 1 36 9.5t22.5 22t14 31t11.5 35.5q0 1 -1 4.5t-1 4.5q-6 16 -19.5 55t-30.5 90.5t-36.5 109.5t-38 112.5t-33.5 99.5t-24 70h139l115 -402q15 51 28.5 100t27 98.5t27.5 100t29 103.5h137l-163 -488q-4 -20 -11.5 -39t-14.5 -38 q-9 -24 -20.5 -53.5t-26.5 -56.5t-36 -48t-49 -28q-20 -5 -37.5 -6t-37.5 -1h-18.5t-23 0.5t-19.5 1.5t-8 3v108v0zM481 643q0 -29 -22.5 -51.5t-53.5 -22.5t-54.5 22.5t-23.5 51.5q0 31 23.5 53t54.5 22t53.5 -22t22.5 -53zM268 643q0 -29 -23.5 -51.5t-54.5 -22.5 q-30 0 -53.5 22.5t-23.5 51.5q0 31 23 53t54 22q32 0 55 -22t23 -53z" />
<glyph unicode="&#x152;" horiz-adv-x="1044" d="M985 0h-466v60q-54 -71 -166 -71q-139 0 -221 97q-80 94 -80 249t81 250.5t220 95.5q110 0 166 -71v60h452v-131h-333v-116h189v-130h-189v-162h347v-131zM511 335q0 96 -37 151q-41 61 -121 61t-121 -61q-37 -55 -37 -151t37 -151q41 -61 121 -61t121 61q37 55 37 151z " />
<glyph unicode="&#x153;" horiz-adv-x="851" d="M808 251q0 -23 -2 -42h-310q3 -48 36 -73q29 -22 70 -22q58 0 90 35l96 -78q-30 -38 -81 -60t-105 -22q-110 0 -170 72q-50 -72 -158 -72q-102 0 -168 73.5t-66 188.5t66 188.5t168 73.5q107 0 159 -74q62 74 157 74q101 0 161 -78q57 -72 57 -184zM676 308q-3 38 -25 62 q-26 28 -68 28q-36 0 -58.5 -25.5t-26.5 -64.5h178zM371 251q0 60 -24.5 97.5t-72.5 37.5q-47 0 -71.5 -37t-24.5 -98t24 -96q25 -38 72 -38t73 41q24 36 24 93z" />
<glyph unicode="&#x178;" horiz-adv-x="634" d="M34 670h153l133 -287l135 287h145l-213 -408v-262h-135v255zM501 774q0 -29 -22.5 -51.5t-53.5 -22.5t-54.5 22.5t-23.5 51.5q0 31 23.5 53t54.5 22t53.5 -22t22.5 -53zM288 774q0 -29 -23.5 -51.5t-54.5 -22.5q-30 0 -53.5 22.5t-23.5 51.5q0 31 23 53t54 22 q32 0 55 -22t23 -53z" />
<glyph unicode="&#x2c6;" d="M437 569h-92l-99 72l-99 -72h-90l121 154h139z" />
<glyph unicode="&#x2dc;" d="M444 704q0 -63 -31 -100t-83 -37q-46 0 -99 29q-35 19 -52 19q-26 0 -34 -46h-89q0 64 31.5 101t82.5 37q47 0 100 -29q35 -19 52 -19q25 0 33 45h89z" />
<glyph unicode="&#x2013;" d="M448 286h-394v123h394v-123z" />
<glyph unicode="&#x2014;" horiz-adv-x="613" d="M559 286h-505v123h505v-123z" />
<glyph unicode="&#x2018;" horiz-adv-x="278" d="M218 670l-14 -269h-161l81 269h94z" />
<glyph unicode="&#x2019;" horiz-adv-x="278" d="M235 670l-81 -269h-94l14 269h161z" />
<glyph unicode="&#x201a;" horiz-adv-x="278" d="M235 162l-81 -269h-94l14 269h161z" />
<glyph unicode="&#x201c;" horiz-adv-x="536" d="M476 670l-14 -269h-161l81 269h94zM218 670l-14 -269h-161l81 269h94z" />
<glyph unicode="&#x201d;" horiz-adv-x="536" d="M494 670l-81 -269h-94l13 269h162zM235 670l-81 -269h-94l14 269h161z" />
<glyph unicode="&#x201e;" horiz-adv-x="536" d="M494 162l-81 -269h-94l13 269h162zM235 162l-81 -269h-94l14 269h161z" />
<glyph unicode="&#x2022;" horiz-adv-x="485" d="M420 350q0 -72 -51 -122t-127 -50q-75 0 -126.5 50t-51.5 122q0 73 51.5 124t126.5 51q76 0 127 -51t51 -124z" />
<glyph unicode="&#x2026;" horiz-adv-x="807" d="M766 79q0 -36 -28 -63t-65 -27q-38 0 -65.5 27t-27.5 63q0 37 27.5 63.5t65.5 26.5q37 0 65 -26.5t28 -63.5zM497 79q0 -36 -28 -63t-65 -27q-38 0 -65.5 27t-27.5 63q0 37 27.5 63.5t65.5 26.5q37 0 65 -26.5t28 -63.5zM228 79q0 -36 -28 -63t-65 -27q-38 0 -65.5 27 t-27.5 63q0 37 27.5 63.5t65.5 26.5q37 0 65 -26.5t28 -63.5z" />
<glyph unicode="&#x2039;" horiz-adv-x="372" d="M332 0h-141l-161 251l161 251h141l-156 -250z" />
<glyph unicode="&#x203a;" horiz-adv-x="372" d="M342 252l-161 -252h-141l156 251l-156 251h141z" />
<glyph unicode="&#x20ac;" horiz-adv-x="537" d="M374 601q-81 0 -134 -37q-32 -22 -58 -63q-27 -40 -33 -78h324l-14 -60h-315q-3 -10 -3 -18q0 -35 3 -42h303l-13 -60h-281q21 -104 95 -148q56 -32 118 -32q89 0 137 45v-93q-58 -26 -129 -26q-215 0 -289 170q-15 34 -25 84h-74l14 60h50q-2 19 -2 41v19h-62l14 60h54 q29 148 154 212q75 40 167 40q88 0 147 -36l-19 -85q-56 47 -129 47z" />
<glyph unicode="&#x2122;" horiz-adv-x="821" d="M781 293h-88v187q0 6 0.5 20.5t0.5 21.5q-1 -6 -17 -37l-102 -204l-100 204q-4 9 -17 36q2 -27 2 -41v-187h-88v377h93l84 -163q12 -23 28 -62q6 18 27 62l83 163h94v-377zM307 592h-97v-299h-94v299h-97v78h288v-78z" />
<glyph unicode="&#x25fc;" horiz-adv-x="545" d="M0 545h545v-545h-545v545z" />
</font>
</defs>
</svg>
