<?xml version="1.0" standalone="no"?>
<!DOCTYPE svg PUBLIC "-//W3C//DTD SVG 1.1//EN" "http://www.w3.org/Graphics/SVG/1.1/DTD/svg11.dtd" >
<svg xmlns="http://www.w3.org/2000/svg" xmlns:xlink="http://www.w3.org/1999/xlink" version="1.1">
<metadata></metadata>
<defs>
<font id="roadgeek_2005_series_2wRg" horiz-adv-x="375" >
<font-face units-per-em="1000" ascent="800" descent="-200" />
<missing-glyph horiz-adv-x="204" />
<glyph horiz-adv-x="0" />
<glyph horiz-adv-x="333" />
<glyph d="M332 723q-20 -154 -145 -154q-128 0 -143 154h65q16 -77 80 -77q62 0 79 77h64z" />
<glyph d="M247 631q0 -24 -17.5 -43t-42.5 -19q-24 0 -42.5 18.5t-18.5 43.5t18.5 43.5t42.5 18.5q25 0 42.5 -18.5t17.5 -43.5z" />
<glyph d="M293 677q0 -47 -30 -77.5t-76 -30.5t-76 30.5t-30 77.5t30 77.5t76 30.5t76 -30.5t30 -77.5zM239 677q0 23 -15 38t-37 15q-21 0 -36 -15t-15 -38t15 -38.5t36 -15.5q22 0 37 15.5t15 38.5z" />
<glyph unicode="&#xa;" horiz-adv-x="404" d="M397 723l-136 -154h-77l91 154h122zM219 723l-136 -154h-76l90 154h122z" />
<glyph d="M287 -144q-57 -41 -104 -41q-87 0 -87 75q0 60 81 110h47q-55 -56 -55 -96q0 -39 35 -39q24 0 62 23z" />
<glyph d="M331 723l-95 -154h-97l-96 154h73l72 -85l72 85h71z" />
<glyph unicode="&#xd;" horiz-adv-x="271" d="M185 547v-547h-100v547h100z" />
<glyph horiz-adv-x="423" d="M295 796h89l-261 -817h-84z" />
<glyph horiz-adv-x="616" d="M53 457v84h58q0 5 1 17.5t1.5 27t1.5 27t1 17.5q5 60 40 81.5t92 21.5h11t8.5 -0.5t11 -1.5l19.5 -3v-77q-8 0 -16.5 1.5t-16.5 1.5q-21 0 -35 -10.5t-14 -33.5v-69h82v-84h-78v-457h-107v457h-60zM530 547v-547h-100v547h100zM481 745q23 0 35.5 -7t24.5 -28v-42 q0 -11 -6.5 -18t-15.5 -11.5t-19 -6.5t-18 -2t-19 2t-20.5 6.5t-16 12t-6.5 19.5v35q0 11 6.5 19t15.5 12.5t19.5 6.5t19.5 2z" />
<glyph horiz-adv-x="682" d="M53 457v84h58q0 5 1 17.5t1.5 27t1.5 27t1 17.5q5 60 40 81.5t92 21.5h11t8.5 -0.5t11 -1.5l19.5 -3v-77q-8 0 -16.5 1.5t-16.5 1.5q-21 0 -35 -10.5t-14 -33.5v-69h82v-84h-78v-457h-107v457h-60zM536 726v-616q0 -19 19 -22.5t40 -3.5v-83q0 -2 -8.5 -3.5t-12.5 -1.5 h-74q-18 0 -30.5 9t-21 23t-12.5 30t-4 31v637h104z" />
<glyph horiz-adv-x="395" d="M184 670v-583h173v-87h-275v670h102zM270.395 676.238h93.6445l-274.62 -378.979h-88.3838z" />
<glyph horiz-adv-x="337" d="M191 726v-616q0 -19 19 -22.5t40 -3.5v-83q0 -2 -8.5 -3.5t-12.5 -1.5h-74q-18 0 -30.5 9t-21 23t-12.5 30t-4 31v637h104zM252.447 675.352h86.4199l-253.434 -374.99h-81.5645z" />
<glyph horiz-adv-x="429" d="M262 578h-202v92h314v-86q-9 -21 -22 -52.5t-36.5 -87t-61.5 -142t-96 -217.5h223v-85h-333v88zM358 851l-95 -154h-97l-96 154h73l72 -85l72 85h71z" />
<glyph horiz-adv-x="389" d="M49 79l183 386h-176v82h279v-88l-175 -373v-3h180v-83h-291v79v0zM338 723l-95 -154h-97l-96 154h73l72 -85l72 85h71z" />
<glyph unicode=" "  horiz-adv-x="204" />
<glyph unicode="&#x09;" horiz-adv-x="204" />
<glyph unicode="&#xa0;" horiz-adv-x="204" />
<glyph unicode="!" horiz-adv-x="305" d="M88 51q0 35 17.5 48t49.5 13q29 0 45.5 -15.5t16.5 -44.5q0 -30 -17.5 -47t-47.5 -17q-29 0 -46.5 17t-17.5 46zM95 670h117l-17 -473h-85z" />
<glyph unicode="&#x22;" horiz-adv-x="436" d="M91 681h109l-65 -202h-62zM256 681h107l-65 -200l-3 -2h-59z" />
<glyph unicode="#" horiz-adv-x="582" d="M143 252h-79l10 75h83l12 137h-82l8 74h85l15 132h77l-12 -131h100l16 131h79l-16 -132h79l-9 -74h-79l-17 -137h84l-9 -75h-86l-15 -136h-81l17 135h-94l-18 -135h-79zM332 328l17 135h-101l-12 -135h96z" />
<glyph unicode="$" horiz-adv-x="455" d="M180 33q-14 0 -26.5 3t-27.5 6q-5 2 -16.5 8t-22.5 11q-13 6 -29 14q-1 23 9 47t17 44q6 1 11 -4.5t10 -7.5q26 -18 53 -29t59 -11q42 0 60.5 21.5t18.5 61.5q0 33 -19 56.5t-47.5 44t-61 40t-58.5 44.5q-5 4 -11 13l-12 18t-10.5 16.5t-6.5 8.5q-7 29 -7 60q0 66 27 102 t90 52v74h96v-72l3 -2q5 -1 20.5 -3.5t32.5 -6.5t30 -9.5t13 -12.5v-3l-21 -84h-5q-24 17 -50.5 27.5t-56.5 10.5q-32 0 -54.5 -17t-22.5 -51q0 -32 18.5 -49.5t42.5 -31.5q1 -1 3.5 -4t3.5 -3q0 -1 2 -1.5t2 -1.5q33 -21 62.5 -39.5t51.5 -41.5t34.5 -53.5t12.5 -74.5 q0 -65 -30 -112.5t-92 -57.5v-79h-96v79v0z" />
<glyph unicode="%" horiz-adv-x="590" d="M234 507q0 -64 -13 -102q-24 -70 -85 -70q-60 0 -83 69q-13 38 -13 103q0 67 13 104q22 67 83 67t84 -67q14 -39 14 -104zM499 678l-396 -686h-63l395 686h64zM499 163q0 -64 -13 -101q-24 -70 -85 -70t-84 69q-12 37 -12 102q0 67 12 105q22 67 84 67q61 0 84 -67 q14 -40 14 -105zM178 507q0 36 -6 61q-11 42 -36 42q-19 0 -30 -26.5t-11 -76.5q0 -38 6 -61q9 -43 35 -43q19 0 30.5 28t11.5 76zM443 163q0 37 -6 62q-11 42 -36 42q-19 0 -30 -26.5t-11 -77.5q0 -37 6 -60q9 -43 35 -43q19 0 30.5 27.5t11.5 75.5z" />
<glyph unicode="&#x26;" horiz-adv-x="546" d="M64 193q0 27 5 53.5t16.5 49.5t30.5 40.5t46 26.5v3q-44 22 -60.5 59.5t-16.5 84.5q0 36 12 67t34.5 54t55 36t73.5 13q6 0 23 -2t35 -5.5t32 -8t14 -9.5q-5 -22 -9 -39q-4 -15 -7 -27t-5 -12q-7 0 -15.5 5t-14.5 7q-11 5 -21.5 6t-21.5 1q-44 0 -63 -27t-19 -69 q0 -32 9 -51t25 -28.5t37 -12t45 -2.5q11 0 22.5 0.5t22.5 0.5v84h98v-87h64v-86h-64v-136q0 -1 -1.5 -10t-4 -20.5t-4.5 -23t-3 -18.5q-5 -26 -19.5 -48t-35.5 -38t-47 -24.5t-55 -8.5q-26 0 -48.5 0.5t-45.5 6.5q-33 9 -55.5 29t-36.5 47t-20.5 58t-6.5 61zM167 200 q0 -24 4 -47t14.5 -41t28.5 -29t47 -11q28 0 44.5 10t25 26.5t12 38t5.5 44.5v126h-109q-23 0 -37 -12t-21.5 -29.5t-10.5 -38t-3 -37.5z" />
<glyph unicode="'" horiz-adv-x="237" d="M72 687h110l-62 -230h-65z" />
<glyph unicode="(" horiz-adv-x="281" d="M135 -121q-1 3 -3 9.5t-4 14t-4 14t-3 9.5q0 1 -1 2.5t-1 2.5q-25 102 -38.5 203t-13.5 206q-1 50 3 105t11 108.5t16.5 101.5t21.5 85l16 51h11q1 0 11 -2.5t21.5 -5.5t21 -6t9.5 -4q0 -20 -6 -36t-8 -34l-28 -200q-2 -17 -3 -33t-1.5 -35.5t-0.5 -44v-57.5v-105t5 -70 l28 -193q2 -17 8 -33t6 -34q0 -4 -4 -5l-66 -16q0 -1 -4 2z" />
<glyph unicode=")" horiz-adv-x="281" d="M73 -96q28 106 39 213t11 216t-13 214t-37 211v15l63 15h12l2 -4q1 -2 5.5 -18.5t9.5 -37.5t10.5 -42.5t7.5 -34.5q14 -76 23 -146.5t9 -141.5q0 -89 -8 -175.5t-27 -185.5q-1 -3 -3.5 -13.5t-6 -25t-7.5 -30.5t-7.5 -29.5t-5.5 -22t-2 -7.5l-72 16q-3 1 -3 3.5v4.5v6z " />
<glyph unicode="*" horiz-adv-x="423" d="M95 468q5 4 11.5 14t14.5 13l44 44l-2 2l-88 10q-8 1 -9 1t-1 8l24 70q1 2 4 2q6 0 10 -2l74 -38h5v3q-3 12 -6.5 27t-5.5 28.5t-3.5 24t-1.5 13.5h89l-15 -96h3q10 6 24.5 13t28 14t23 11.5t11.5 4.5l2 -1l27 -81l-97 -12l-3 -2q17 -17 36 -33.5t34 -36.5 q-14 -14 -31.5 -25t-33.5 -24h-7l-42 84q0 2 -2 2t-1 1q-2 0 -3.5 -3.5t-3.5 -8t-3.5 -8t-2.5 -4.5l-33 -66l-67 48q-2 0 -2 1.5t-1 1.5z" />
<glyph unicode="+" horiz-adv-x="508" d="M205 298h-143v93h143v157h98v-157h143v-93h-143v-162h-98v162v0z" />
<glyph unicode="," horiz-adv-x="237" d="M72 114h110l-62 -230h-65z" />
<glyph unicode="-" horiz-adv-x="327" d="M74 431h179v-98h-179v98v0z" />
<glyph unicode="." horiz-adv-x="325" d="M103 53q0 29 15 46t45 17q21 0 36.5 -10.5t22.5 -36.5q0 -32 -12 -56.5t-47 -24.5q-29 0 -44.5 18t-15.5 47z" />
<glyph unicode="/" horiz-adv-x="423" d="M295 796h89l-261 -817h-84z" />
<glyph unicode="0" horiz-adv-x="554" d="M81 162q-10 40 -13.5 86t-3.5 88q0 47 6.5 85.5t10.5 82.5l2 3q14 48 37 83.5t65 67.5q7 3 29.5 13t61.5 10q67 0 108.5 -34t65 -85.5t32 -111.5t8.5 -112q0 -53 -8 -114.5t-31 -114t-65 -87t-110 -34.5q-42 0 -73.5 13t-54.5 36t-38.5 54.5t-26.5 68.5zM171 269 q4 -10 5.5 -28.5t4.5 -40t8 -43.5t16 -40t28.5 -29.5t44.5 -11.5q25 0 42 12.5t28.5 32.5t18 46t9.5 53t4 52.5t1 45.5q0 13 0.5 39t-1 56.5t-7 62.5t-17 58t-30.5 42.5t-49 16.5q-37 0 -56.5 -20.5t-29 -50.5t-13 -63.5t-7.5 -58.5v-65v-66z" />
<glyph unicode="1" horiz-adv-x="339" d="M157 526q-3 0 -14.5 -14t-24.5 -30.5t-24 -30.5t-14 -14q-4 0 -12 10.5t-17 23.5q-11 15 -23 35q27 34 54.5 66.5t55.5 64.5q7 8 16 15.5t12 17.5h88v-670h-97v526v0z" />
<glyph unicode="2" horiz-adv-x="447" d="M40 89q0 1 4 8t11.5 17.5t17.5 23t21 25.5q1 5 13 20t26 32t26.5 32.5t15.5 20.5q18 24 36.5 51t34 56.5t25 60t9.5 62.5q0 18 -4 35t-12.5 30t-22 20.5t-33.5 7.5q-14 0 -28.5 -3t-27.5 -11q-6 -3 -15.5 -11.5t-19.5 -17.5t-18 -15.5t-9 -6.5q-1 -1 -3 2l-35 56 q-10 7 -10 18q0 5 3 8q41 32 79.5 51t92.5 19q85 0 126.5 -48.5t41.5 -130.5q0 -38 -10.5 -72.5t-27.5 -67.5q-1 -2 -5.5 -13t-5.5 -13q-22 -38 -46 -69.5t-48.5 -60.5t-49.5 -57.5t-49 -60.5h237v-87h-328l-2 7q-1 2 -2.5 14.5t-3 26.5t-3 26.5t-1.5 14.5z" />
<glyph unicode="3" horiz-adv-x="458" d="M112 1q-5 2 -15.5 5.5t-21.5 8t-18.5 9t-5.5 9.5q0 1 4 13.5t9.5 27.5t11 27t9.5 12q26 -17 54.5 -27.5t59.5 -10.5q27 0 46 9t30 25t16 38t5 47q0 15 -2 31t-8 31t-16 27t-26 18q-5 2 -14.5 5t-10.5 3h-68v85q29 0 53 4t41.5 15.5t27 31.5t9.5 52q0 45 -20 70t-65 25 q-14 0 -27.5 -2.5t-25.5 -7.5q-11 -5 -24.5 -15t-25.5 -10q-9 19 -21 38.5t-12 36.5q0 3 9 7.5t21.5 10l25 11t20.5 10.5q20 4 40.5 6.5t40.5 2.5q27 0 50.5 -5t52.5 -25q34 -24 47.5 -65t13.5 -80q0 -37 -11 -67.5t-38 -55.5q-2 -2 -7.5 -5.5t-11.5 -7t-10.5 -6.5t-5.5 -4 q3 -2 19 -10t30 -13q29 -34 39 -67.5t10 -78.5q0 -56 -20.5 -107t-77.5 -80q-1 0 -1 -1t-1 -1q-25 -8 -43.5 -10t-44.5 -2q-28 0 -48 2.5t-48 9.5z" />
<glyph unicode="4" horiz-adv-x="523" d="M96 138l-2 6q-2 3 -6 16t-8 27q-5 17 -10 36l224 447h115v-443h68v-89h-68v-138h-105v138h-208zM168 228h137v305l-137 -303v-2z" />
<glyph unicode="5" horiz-adv-x="439" d="M40 37q0 1 3 9.5t8 20.5t11 25t11 24q27 -16 51 -29t56 -13q31 0 49.5 14.5t28 36.5t12.5 48.5t3 50.5q0 22 -2 48.5t-10.5 49t-25.5 37.5t-47 15q-32 0 -51 -18t-35 -43q-1 0 -10 6.5t-19 14.5t-18.5 15.5t-9.5 10.5v17l38 293h264v-92h-178l-22 -150q1 0 1 -0.5t1 -0.5 l1 1q20 12 33 19t38 7q46 0 76.5 -20.5t48.5 -53t25 -72.5t7 -79q0 -50 -10 -94t-32.5 -76.5t-59.5 -51.5t-91 -19q-35 0 -70.5 7t-64.5 30q-5 4 -7.5 5.5t-2.5 6.5z" />
<glyph unicode="6" horiz-adv-x="502" d="M185 2q-2 5 -14.5 10.5t-17.5 10.5q-30 25 -48 59t-27 72t-11.5 77.5t-2.5 75.5q0 73 10 144t42 137q6 5 10.5 12.5t7.5 15.5q16 16 30.5 28.5t30.5 20.5t35 12t43 4q10 0 29.5 -1t39 -4.5t34 -10t14.5 -16.5q0 -9 -3.5 -20.5t-7.5 -22t-8 -20t-4 -14.5h-3 q-20 11 -38.5 17t-41.5 6q-38 0 -61 -21t-35.5 -52t-17 -67t-4.5 -65q0 -2 0.5 -10.5t0.5 -10.5q6 10 14.5 21t19 20.5t22.5 15.5t25 6h58q7 0 17 -3t21.5 -8t22 -12t18.5 -14q35 -35 47 -80.5t12 -93.5q0 -43 -10 -84.5t-32 -74t-57 -52.5t-84 -20q-23 0 -38 2t-38 10z M173 214q0 -20 3.5 -44t13 -45t26.5 -35t44 -14q26 0 42.5 14.5t25.5 35.5t12.5 45.5t3.5 44.5q0 21 -3 45t-11.5 44.5t-25 34t-43.5 13.5t-44 -14t-27 -34.5t-13.5 -45t-3.5 -45.5z" />
<glyph unicode="7" horiz-adv-x="450" d="M168 261q15 68 32.5 125t50.5 119q3 2 6 5t5 6q3 4 6 7l44 55h-254v92h338q1 -15 3 -32t3 -31t2 -24t1 -11l-51 -65q0 -2 -3 -5q-14 -25 -27 -50t-24 -52q-17 -45 -25 -92t-10.5 -96.5t-2 -102t0.5 -109.5h-110q0 66 3.5 130.5t11.5 130.5z" />
<glyph unicode="8" horiz-adv-x="520" d="M64 194q0 17 1.5 37.5t7 41t15 38t25.5 28.5q8 5 19 10t16 13q-8 9 -17.5 15.5t-17.5 14.5q-23 22 -28 55t-5 62q0 82 45 127t131 45t135.5 -42.5t49.5 -130.5q0 -29 -6 -59t-26 -52q-11 -12 -25.5 -23t-14.5 -12q52 -29 69.5 -68.5t17.5 -99.5t-17 -99.5t-44.5 -62.5 t-62.5 -32.5t-72 -9.5q-101 0 -148.5 53t-47.5 151zM261 314q-18 0 -35 -7t-29.5 -19.5t-20 -29t-7.5 -35.5v-63q0 -11 5 -25.5t14 -28t21 -23t25 -9.5h51q7 0 14 4t12 7q26 18 33 47t7 58q0 22 -4 44.5t-14 40t-27.5 28.5t-44.5 11zM180 501q0 -19 4 -38t13 -34t24.5 -24.5 t38.5 -9.5q22 0 37 9t24.5 24t13.5 33.5t4 37.5q0 21 -3 39.5t-12 32t-24 21.5t-39 8q-47 0 -64 -28t-17 -71z" />
<glyph unicode="9" horiz-adv-x="507" d="M107 18q-2 1 -2 4q0 5 1.5 8.5t3.5 8.5t5 15.5t7 20.5t7.5 17.5t5.5 7.5q1 0 2 -1q21 -11 42 -17t44 -6q29 0 49 13t33 34t20 47t10.5 53t4 51.5t0.5 41.5q-15 -35 -38 -56t-70 -21q-45 0 -78 18.5t-54 48.5t-31.5 69t-10.5 80q0 43 12.5 84t36.5 73t59.5 51.5t82.5 19.5 q64 0 102 -34t57 -84.5t24.5 -109t5.5 -107.5q0 -33 -1 -72t-7.5 -79t-19.5 -77t-36 -66t-59 -46.5t-87 -17.5q-31 0 -62.5 5.5t-58.5 22.5zM160 459q0 -21 2.5 -44.5t11.5 -43.5t25 -33t43 -13t44 12.5t26.5 32t13 43.5t3.5 46q0 21 -3 44.5t-12 44t-25 34t-42 13.5 q-27 0 -43.5 -13t-26.5 -33.5t-13.5 -44.5t-3.5 -45z" />
<glyph unicode=":" horiz-adv-x="225" d="M55 57q0 30 12.5 46.5t44.5 16.5q30 0 44 -16.5t14 -45.5q0 -28 -14 -47t-44 -19q-34 0 -45.5 17.5t-11.5 47.5zM55 411q0 28 13 46.5t44 18.5q29 0 43.5 -19.5t14.5 -45.5q0 -28 -14.5 -47t-43.5 -19q-32 0 -44.5 18t-12.5 48z" />
<glyph unicode=";" horiz-adv-x="237" d="M72 114h110l-62 -230h-65zM72 411q0 28 13 46.5t44 18.5q29 0 43.5 -19.5t14.5 -45.5q0 -28 -14.5 -47t-43.5 -19q-32 0 -44.5 18t-12.5 48z" />
<glyph unicode="&#x3c;" horiz-adv-x="303" d="M260 86l-225 201v84l225 201v-114l-147 -128l147 -128v-116z" />
<glyph unicode="=" horiz-adv-x="526" d="M71 340h384v-88h-384v88v0zM71 515h384v-89h-384v89v0z" />
<glyph unicode="&#x3e;" horiz-adv-x="303" d="M269 287l-226 -201v115l147 127l-147 129v115l226 -201v-84z" />
<glyph unicode="?" horiz-adv-x="424" d="M160 116q41 0 57.5 -12t16.5 -50q0 -29 -12.5 -47.5t-44.5 -18.5q-8 0 -18 3t-18.5 8.5t-14.5 13.5t-6 17v49q0 13 14.5 23.5t25.5 13.5zM269 493q0 39 -18.5 69.5t-60.5 30.5q-30 0 -54 -13.5t-47 -31.5q-3 0 -7.5 9.5t-9 22.5t-9 26.5t-6.5 21.5q0 5 7.5 9.5t11.5 6.5 q32 18 63 27.5t67 9.5q40 0 71 -13.5t52 -37t32 -55.5t11 -70q0 -49 -16.5 -91.5t-58.5 -78.5q-8 -8 -19.5 -16t-22.5 -16t-19 -17t-8 -19v-93h-94v109q0 22 10 37.5t25 29t32.5 26.5t32.5 29t25 37t10 51z" />
<glyph unicode="@" horiz-adv-x="700" d="M214 9q-14 9 -28 17t-26 20q-29 27 -47 60t-28 70t-14 75t-4 76q0 34 4.5 69.5t14.5 69.5t26 65t39 55q47 49 105 77t127 28q37 0 74 -10.5t69 -29.5q22 -14 42 -38t34 -53t22.5 -59t8.5 -55v-97q0 -33 -10 -67t-28.5 -62.5t-46 -46.5t-61.5 -18t-48 14.5t-25 37.5 q-16 -16 -27 -26t-20.5 -16t-20 -8t-25.5 -2q-34 0 -54.5 14.5t-32 38t-15 52t-3.5 55.5q0 34 6.5 71t22.5 68t43.5 51.5t68.5 20.5q12 0 26 -3t24 -12q6 -3 11 -13t10 -10l5 30h64l-25 -260v-14.5t2 -15.5t7 -12t14 -5q25 0 41 24t24.5 56t11.5 64t3 48q0 46 -11 88.5 t-34 74t-59 50.5t-87 19q-66 0 -114.5 -26.5t-80 -70.5t-46.5 -100t-15 -116q0 -53 11 -103.5t36 -90.5t66 -64.5t101 -24.5q35 0 63 9t60 31q3 2 8 6.5t11 9.5t11.5 8.5t7.5 3.5h2l21 -38q1 -2 1 -4q0 -4 1 -5q0 -6 -2 -9q-39 -37 -89.5 -50t-101.5 -13q-33 0 -61 5t-60 16 zM286 307q0 -12 1 -27.5t6 -29t14.5 -23t27.5 -9.5q28 0 42 17t20.5 43t8.5 57t6 58q0 27 -10.5 48.5t-41.5 21.5q-26 0 -41 -17.5t-22.5 -42t-9 -51.5t-1.5 -45z" />
<glyph unicode="A" horiz-adv-x="529" d="M198 670h128l170 -670h-111l-37 158h-169l-37 -158h-109zM332 254l-71 320l-65 -320h136z" />
<glyph unicode="B" horiz-adv-x="520" d="M85 665q40 5 83 7.5t75 2.5q59 0 98.5 -13.5t63 -38t33.5 -57.5t10 -72q0 -21 -3.5 -43t-12 -41.5t-23.5 -35t-38 -23.5v-2q4 -2 15.5 -6t15.5 -6q19 -8 32 -25t20.5 -38.5t11 -44.5t3.5 -43q0 -52 -18.5 -98.5t-67.5 -71.5q-13 -6 -27 -8t-26 -8h-245v665v0zM188 86 q-1 -2 4 -3.5t7 -1.5h82q11 3 22 4t22 6q13 5 20.5 15.5t11.5 24t4.5 27.5t0.5 27q0 35 -5.5 58t-19 36.5t-36 18.5t-55.5 5q-14 0 -29 -0.5t-29 -2.5v-214zM190 384q1 0 13 -0.5t17 -0.5q31 0 54 2.5t38.5 12.5t23.5 29.5t8 53.5q0 19 -2.5 36.5t-9.5 31t-20 23.5t-34 14 q-1 0 -4 1t-5 2q1 0 -11.5 0t-28 -0.5t-28.5 -1.5t-13 -3v-198z" />
<glyph unicode="C" horiz-adv-x="504" d="M62 334q0 48 5 95.5t21 93.5q8 21 21.5 41.5t24.5 39.5l40 40q14 5 25.5 13.5t25.5 14.5q16 6 35.5 7.5t36.5 1.5q18 0 35.5 -3.5t34.5 -5.5q12 -7 28 -18.5t30 -16.5l35 -35q3 -3 3 -7q0 -2 -4.5 -9t-10.5 -15t-12.5 -15.5t-10.5 -11.5q-5 -5 -12.5 -13t-8.5 -8h-2 q-22 26 -45.5 46.5t-60.5 20.5q-29 0 -50 -14t-34.5 -36t-21.5 -50t-12.5 -56.5t-5.5 -55t-1 -45.5q0 -32 3.5 -75.5t16.5 -83.5t38.5 -68t69.5 -28q23 0 39 6t28.5 16.5t24.5 23.5t27 27q-3 4 4.5 -5t18 -22.5t20 -26.5t9.5 -16q0 -10 -11 -22t-26.5 -23t-32 -20.5 t-26.5 -13.5q-21 -8 -42.5 -10t-43.5 -2q-70 0 -114 33t-69 83.5t-34 111t-9 116.5z" />
<glyph unicode="D" horiz-adv-x="550" d="M234 675q19 0 40 -0.5t39 -4.5q14 -4 27.5 -11.5t26.5 -14.5q38 -21 61.5 -57t37 -79t18 -88t4.5 -84q0 -41 -4.5 -84.5t-17 -84t-35.5 -75.5t-60 -59q-23 -15 -44.5 -20t-45.5 -13h-196v665q0 3 17.5 4.5t42 3t49.5 2t40 0.5zM190 86h77q18 0 35.5 12t29.5 25 q17 19 26.5 47t14 58t5.5 59t1 51q0 26 -1 59.5t-8 67.5t-21 63.5t-40 46.5q-11 7 -20 8t-20 6h-63l-16 -5v-498z" />
<glyph unicode="E" horiz-adv-x="428" d="M372 670v-92h-184v-181h166v-93h-166v-219h191v-85h-298v670h291z" />
<glyph unicode="F" horiz-adv-x="407" d="M364 670v-92h-179v-184h161v-93h-162v-301h-104v670h284z" />
<glyph unicode="G" horiz-adv-x="552" d="M209 2q-23 14 -39 26t-36 32q-5 5 -9 13t-9 12q-32 59 -43 121.5t-11 128.5q0 57 8 108.5t30 104.5q29 69 79 101t113 32q103 0 171 -78q0 -2 -9.5 -13t-20.5 -25q-13 -16 -29 -35l-1 -1q-25 25 -49 44.5t-60 19.5q-44 0 -69 -29.5t-37.5 -71t-15.5 -86t-3 -73.5 q0 -31 2.5 -75t14.5 -84.5t37.5 -69t70.5 -28.5q39 0 59 20t29 50t9.5 64.5t0.5 62.5h-92v87h190v-71q0 -50 -5.5 -103t-26 -96.5t-60 -71.5t-107.5 -28q-22 0 -41.5 2.5t-40.5 9.5z" />
<glyph unicode="H" horiz-adv-x="554" d="M189 670v-265h179v265h101v-670h-101v305h-179v-305h-104v670h104z" />
<glyph unicode="I" horiz-adv-x="291" d="M198 670v-670h-105v670h105z" />
<glyph unicode="J" horiz-adv-x="385" d="M34 25q2 2 7 14t10.5 26t10 25t5.5 10h7q17 -11 31.5 -16.5t34.5 -5.5q21 0 38.5 12t17.5 42v538h104v-547q0 -36 -13 -62t-34.5 -42t-48 -23.5t-53.5 -7.5q-13 0 -33 2.5t-38.5 7.5t-32 11.5t-13.5 14.5v1z" />
<glyph unicode="K" horiz-adv-x="510" d="M187 670v-293h3l156 293h116l-156 -286l175 -384h-112l-133 293l-49 -72v-221h-100v670h100z" />
<glyph unicode="L" horiz-adv-x="395" d="M184 670v-583h173v-87h-275v670h102z" />
<glyph unicode="M" horiz-adv-x="640" d="M191 670l130 -265l126 265h107v-670h-99v461l-136 -259l-134 256v-458h-99v670h105z" />
<glyph unicode="N" horiz-adv-x="591" d="M191 670l220 -449v449h94v-670h-95l-225 449v-449h-99v670h105z" />
<glyph unicode="O" horiz-adv-x="601" d="M82 162q-3 16 -6.5 34.5t-6.5 36t-4.5 31t-1.5 19.5q0 56 2.5 112t16.5 111q0 1 1 2.5t1 2.5q10 21 18 38.5t16.5 33t19.5 29.5t28 27q29 23 63.5 32.5t71.5 9.5q47 0 87.5 -16t72.5 -52q5 -6 11.5 -16t12.5 -19.5t10.5 -17t5.5 -7.5q21 -51 29 -104.5t8 -107.5 q0 -51 -8 -110t-30 -110.5t-61.5 -88t-102.5 -42.5q-55 0 -94.5 8.5t-68.5 28.5t-50.5 53t-40.5 82zM170 335q0 -33 3 -77.5t16 -85t39.5 -68.5t73.5 -28q45 0 71 28.5t39 68.5t16 84t3 75q0 43 -3.5 78t-12.5 80q-9 22 -19 41t-23 33t-30.5 21.5t-41.5 7.5q-47 0 -73 -27.5 t-39 -67t-16 -84.5t-3 -79z" />
<glyph unicode="P" horiz-adv-x="515" d="M235 675q20 0 41.5 -0.5t41.5 -4.5q42 -14 68.5 -34.5t41 -47t20 -58.5t5.5 -69q0 -42 -7 -78t-30 -74q-9 -11 -22 -21.5t-28 -19.5t-32 -14.5t-35 -5.5h-110v-248h-104v665q0 3 19 4.5t44 3t50 2t37 0.5zM190 333h74q9 2 19.5 2t18.5 5q16 9 25 22.5t13 29t5 33t1 34.5 q0 15 -0.5 32.5t-4 34t-12 30.5t-23.5 23q-8 5 -15 5.5t-15 4.5q-27 0 -45 -1.5t-41 -3.5v-251z" />
<glyph unicode="Q" horiz-adv-x="603" d="M368 -22q-6 2 -10 6t-11 6q-39 0 -70.5 1t-59.5 13q-50 21 -80 58.5t-46.5 83t-22 96t-5.5 98.5q0 56 10 116t36.5 110t73 82.5t119.5 32.5q75 0 121.5 -34.5t72.5 -86.5t35 -112t9 -112q0 -57 -8 -111.5t-31 -106.5q-5 -12 -9.5 -19.5t-10 -15.5t-14 -18t-22.5 -26 q-3 -2 8.5 -11t26.5 -19t27.5 -18l12.5 -8q-2 -7 -6.5 -20.5t-9.5 -26.5t-9 -22.5t-6 -9.5q-17 0 -32.5 7t-30.5 17.5t-29.5 24t-28.5 25.5zM170 337q0 -33 3 -78t16.5 -85.5t39.5 -69t73 -28.5q46 0 72 28.5t39 69.5t16.5 85.5t3.5 77.5t-3 77.5t-16 84t-39.5 67 t-73.5 27.5q-46 0 -72 -28t-39 -67.5t-16.5 -83.5t-3.5 -77z" />
<glyph unicode="R" horiz-adv-x="520" d="M105 670l16.5 1t38.5 2t46 2t39 2q106 2 161 -48.5t55 -151.5q0 -58 -18 -98.5t-68 -69.5q-2 -2 4 -10t7 -13l56 -198q3 -15 7 -30q3 -13 6.5 -26.5t7.5 -24.5v-7h-107l-60 242q-2 7 -7.5 18.5t-16.5 11.5h-82v-272h-104v665zM279 358q23 0 38 11t23.5 28t12 37t3.5 38 q0 56 -24 87.5t-81 31.5h-14.5t-16.5 -0.5t-14.5 -1t-9.5 -0.5l-5 -3v-228h88z" />
<glyph unicode="S" horiz-adv-x="466" d="M46 46q2 4 7 18.5t10 30.5t9 28t5 12h2q32 -23 65.5 -39.5t73.5 -16.5q45 0 71.5 26.5t26.5 71.5q0 31 -12.5 53.5t-32.5 40.5t-45 32t-50 29t-47.5 32.5t-37.5 40.5q-20 29 -22 61.5t-2 68.5q3 34 19 61t40.5 46t55 29.5t62.5 10.5q29 0 59 -4.5t64 -25.5q6 -4 16 -10 t10 -7v-7l-23 -81h-3q-24 20 -53 33.5t-61 13.5q-38 0 -63 -23t-25 -62q0 -26 16.5 -45.5t39.5 -35t49 -28t44 -23.5q54 -33 77 -79.5t23 -107.5q0 -95 -47 -147t-149 -52q-46 0 -84 12t-78 35q-1 0 -5.5 2.5t-4.5 5.5z" />
<glyph unicode="T" horiz-adv-x="422" d="M34 578v92h354v-92h-122v-578h-107v578h-125z" />
<glyph unicode="U" horiz-adv-x="563" d="M85 216v454h104v-475q0 -14 4 -34t12.5 -38t22 -31t32.5 -13h46q22 0 36 16.5t21 37.5t9.5 39.5t2.5 22.5v475h103v-454q0 -120 -48.5 -174t-145.5 -54q-61 0 -104.5 19t-70.5 76q-5 10 -6.5 23t-7.5 22z" />
<glyph unicode="V" horiz-adv-x="518" d="M40 670h110l107 -551l111 551h110l-154 -670h-134z" />
<glyph unicode="W" horiz-adv-x="775" d="M52 670h110l69 -521l112 521h90l113 -521l68 521h109l-112 -670h-124l-102 454l-95 -454h-124z" />
<glyph unicode="X" horiz-adv-x="499" d="M186 349l-136 321h117l88 -242l90 242h113v-2l-135 -327l142 -341h-110l-104 256l-103 -256h-114z" />
<glyph unicode="Y" horiz-adv-x="482" d="M192 249q-11 26 -24.5 59.5t-33 82t-45.5 116.5t-61 163h112l104 -305l105 305h105l-157 -412v-258h-105v249v0z" />
<glyph unicode="Z" horiz-adv-x="429" d="M262 578h-202v92h314v-86q-9 -21 -22 -52.5t-36.5 -87t-61.5 -142t-96 -217.5h223v-85h-333v88z" />
<glyph unicode="[" horiz-adv-x="304" d="M257 -96h-187v766h187v-78h-100v-609h100v-79z" />
<glyph unicode="\" horiz-adv-x="423" d="M383 -21h-84l-261 817h89z" />
<glyph unicode="]" horiz-adv-x="304" d="M234 -96h-186v76h99v614h-99v76h186v-766z" />
<glyph unicode="^" horiz-adv-x="416" d="M388 366h-101l-80 193l-81 -193h-98l142 304h75z" />
<glyph unicode="_" horiz-adv-x="328" d="M328 -163h-328v85h328v-85z" />
<glyph unicode="`" d="M278 569h-77l-135 154h126z" />
<glyph unicode="a" horiz-adv-x="515" d="M64 153q0 99 66 147.5t197 57.5v39t-5.5 39t-18 29.5t-37.5 11.5q-40 0 -77.5 -11.5t-72.5 -30.5h-5q-3 10 -7 23.5t-7.5 25.5t-6 20t-2.5 7q42 23 87.5 35t93.5 12q33 0 62.5 -7t51.5 -24.5t35 -48t13 -76.5v-330q3 -9 7 -15q3 -5 6.5 -9.5t6.5 -4.5q0 -2 -8.5 -9.5 t-20 -16t-22 -15.5t-13.5 -7q-11 0 -22 6.5t-17 14.5q-2 2 -5 8.5t-4 5.5l-5 21q-31 -29 -61 -46t-73 -17q-37 0 -63 13t-42 35t-23.5 52t-7.5 65zM164 157q0 -11 2 -27t7.5 -30.5t14 -24.5t21.5 -10h41q21 7 38 16q14 8 26.5 18t12.5 22v166q-26 1 -53 -3t-47 -15 q-33 -18 -48 -46.5t-15 -65.5z" />
<glyph unicode="b" horiz-adv-x="528" d="M173 0h-86v726h102v-221q7 2 12.5 11t11.5 14q18 17 39.5 21.5t44.5 4.5q55 0 88 -28t50.5 -70.5t23 -92t5.5 -92.5q0 -41 -5.5 -91t-23.5 -93.5t-50.5 -73t-86.5 -29.5q-35 0 -68 17.5t-47 52.5zM273 475q-16 0 -31 -6.5t-26.5 -17.5t-18.5 -27.5t-7 -35.5v-223 q0 -17 6 -35t17 -32.5t26 -23.5t34 -9q26 0 43 15t26.5 39t13.5 52.5t5 55.5t0 49t-1 33q0 22 -2 51t-10.5 54.5t-26 43t-48.5 17.5z" />
<glyph unicode="c" horiz-adv-x="446" d="M182 2q-3 5 -10.5 7.5t-12.5 6.5q-32 25 -51.5 57t-30.5 71q-6 33 -10 65.5t-4 65.5q0 47 7.5 92.5t27.5 88.5q24 51 70 76.5t100 25.5q32 0 59 -7.5t55 -22.5q5 -2 12 -6.5t7 -5.5v-7l-35 -74h-3q-2 2 -5 4q-6 4 -9 7q-18 16 -36 23.5t-41 7.5q-36 0 -57 -21t-31.5 -51 t-13 -64t-2.5 -60q0 -25 2.5 -61.5t13 -70t32 -57t58.5 -23.5q20 0 37 6.5t34 17.5q2 1 11.5 7.5t11.5 8.5q4 3 7 3q1 0 2 -1q5 -19 17 -36t12 -37l-1 -3q-64 -47 -142 -47q-21 0 -41 3.5t-40 10.5z" />
<glyph unicode="d" horiz-adv-x="528" d="M167 0q-1 0 -1.5 1t-1.5 1q-32 24 -51.5 55t-30.5 66.5t-14.5 73.5t-3.5 76q0 41 4.5 86t19.5 85.5t43 70.5t75 41h28q24 0 43.5 -4.5t38.5 -21.5q5 -5 10.5 -14t13.5 -11v221h101v-726h-91l-4 56q-11 -18 -24.5 -29.5t-26.5 -26.5q-17 -7 -31.5 -10.5t-31.5 -3.5 q-18 0 -33 4t-32 10zM169 276q0 -39 2.5 -78t18.5 -75q2 -5 3.5 -11.5t5.5 -11.5l26 -26q5 -5 15 -4.5t15 0.5h15t15 2q13 4 23 14t17 23t10.5 27.5t3.5 26.5v223q0 17 -6 33.5t-17 29t-26 20.5t-33 8q-35 0 -53 -23t-25.5 -55t-8.5 -66t-1 -57z" />
<glyph unicode="e" horiz-adv-x="520" d="M65 275q0 51 9.5 101.5t33 90.5t62.5 65t99 25q62 0 99 -24.5t56.5 -64.5t25 -91t5.5 -103q0 -5 -0.5 -14.5t-0.5 -11.5l-2 -6h-277q0 -30 2.5 -60.5t13 -55t32 -40t59.5 -15.5q15 0 33.5 4t35.5 9.5t29 12t13 11.5q-2 0 2.5 0t4.5 -5l21 -62q0 -14 -15 -21.5t-38 -16.5 l-3 -2q-3 -3 -14.5 -6t-25.5 -4.5t-28 -2.5t-22 -1q-62 0 -102.5 25t-64.5 66t-33.5 92.5t-9.5 104.5zM230 471q-19 -13 -30.5 -31t-17.5 -38t-8 -42.5t-2 -44.5h187q0 23 -2.5 52.5t-12.5 55.5t-29.5 43t-53.5 14q-2 0 -7 -1.5t-10.5 -3.5t-9.5 -3z" />
<glyph unicode="f" horiz-adv-x="345" d="M53 457v84h58q0 5 1 17.5t1.5 27t1.5 27t1 17.5q5 60 40 81.5t92 21.5h11t8.5 -0.5t11 -1.5l19.5 -3v-77q-8 0 -16.5 1.5t-16.5 1.5q-21 0 -35 -10.5t-14 -33.5v-69h82v-84h-78v-457h-107v457h-60z" />
<glyph unicode="g" horiz-adv-x="529" d="M96 -172q0 1 1 4.5t1 4.5q1 4 4 13.5t6.5 20.5t6.5 20.5t4 13.5l2 4h1h2q1 0 3.5 -1t3.5 -1q34 -14 63.5 -23.5t67.5 -9.5q35 0 56.5 16t21.5 54v121q-16 -32 -44 -46.5t-63 -14.5q-54 0 -87.5 25.5t-51.5 65t-24.5 86.5t-6.5 90t5.5 93t23.5 92.5t51 71t89 28.5 q39 0 64.5 -13.5t45.5 -46.5q1 1 2 4t1 5t1 8t1.5 12.5t1 12.5t0.5 9h94v-568q0 -95 -39.5 -144t-136.5 -49q-35 0 -67.5 5t-64.5 16q-2 1 -15 6t-19 8q-5 2 -5 4v3zM168 275q0 -20 1 -44.5t5 -48.5t13 -46t25 -36q4 -3 11 -8.5t12 -5.5h40q4 0 10.5 3t10.5 6q44 41 44 105 v172q0 18 -5.5 36.5t-16 34t-26.5 25t-36 9.5q-32 0 -49.5 -23.5t-26 -56t-10.5 -67t-2 -55.5z" />
<glyph unicode="h" horiz-adv-x="533" d="M189 726v-221q44 54 117 54q37 0 64 -13.5t43.5 -36t24.5 -53.5t8 -65v-391h-99v389q0 10 -3 22.5t-9.5 24t-16.5 21t-24 13.5q-48 0 -70 -16t-30 -59q-2 -14 -1.5 -19.5t-3.5 -17.5v-358h-102v726h102z" />
<glyph unicode="i" horiz-adv-x="271" d="M185 547v-547h-100v547h100zM136 745q23 0 35.5 -7t24.5 -28v-42q0 -11 -6.5 -18t-15.5 -11.5t-19 -6.5t-18 -2t-19 2t-20.5 6.5t-16 12t-6.5 19.5v35q0 11 6.5 19t15.5 12.5t19.5 6.5t19.5 2z" />
<glyph unicode="j" horiz-adv-x="271" d="M-23 -122h22q13 0 27.5 2t26.5 8.5t20 18.5t8 33v607h103v-552q0 -24 -3.5 -58.5t-16 -66.5t-37 -54.5t-66.5 -22.5h-84v85zM70 687q0 23 15 40.5t48 17.5q29 0 46 -13t17 -45q0 -29 -18 -43t-45 -14q-28 0 -45.5 14t-17.5 43z" />
<glyph unicode="k" horiz-adv-x="530" d="M191 726v-433l135 254h109l-128 -231l135 -316h-109l-97 235h-1l-45 -74v-161h-102v726h103z" />
<glyph unicode="l" horiz-adv-x="337" d="M191 726v-616q0 -19 19 -22.5t40 -3.5v-83q0 -2 -8.5 -3.5t-12.5 -1.5h-74q-18 0 -30.5 9t-21 23t-12.5 30t-4 31v637h104z" />
<glyph unicode="m" horiz-adv-x="789" d="M183 547l5 -48q5 3 10 11t9 12q19 21 43.5 29t52.5 8q18 0 36.5 -3.5t35 -11.5t29.5 -21.5t18 -33.5q25 45 58.5 57.5t75.5 12.5q46 0 74 -17t43.5 -45t21 -64.5t5.5 -76.5v-356h-102v365q0 17 -3 36t-10.5 35t-21 26.5t-35.5 10.5q-33 0 -55.5 -23.5t-22.5 -56.5 l-5 -393h-102v379q0 16 -3.5 32.5t-11.5 30t-21 22.5t-32 9q-22 0 -37.5 -10t-25.5 -25.5t-15 -35.5t-5 -39v-363h-103v547h94z" />
<glyph unicode="n" horiz-adv-x="541" d="M180 547q0 1 1 -4l2.5 -12.5t2.5 -15.5t1 -14q-1 -5 4.5 3.5t9.5 12.5q22 24 49 33t59 9q48 0 76.5 -18.5t43.5 -47t19.5 -63t4.5 -67.5v-363h-104v395q0 1 -1.5 7t-2.5 9q-8 30 -21.5 46t-45.5 16q-40 0 -61.5 -29t-22.5 -67l-5 -377h-101v547h92z" />
<glyph unicode="o" horiz-adv-x="530" d="M102 79q-24 45 -31 94t-7 100q0 28 2.5 60t9.5 63t20 59t33 49q29 29 63.5 41.5t74.5 12.5q31 0 58 -6.5t53 -26.5q7 -5 12.5 -10.5t13.5 -10.5l30 -46l3 -2q0 -8 4.5 -21t10.5 -30t10.5 -36t4.5 -37v-116q0 -2 -1.5 -15.5t-3.5 -19.5q-7 -41 -21.5 -76t-38 -61t-57 -41 t-79.5 -15q-45 0 -79.5 15.5t-64.5 47.5q-4 5 -9.5 14t-10.5 14zM169 214q3 -22 7.5 -47t15 -46t28 -35t46.5 -14q36 0 56 22t29.5 53.5t11.5 66.5t2 60q0 24 -2 58.5t-11 66.5t-29 55t-56 23q-32 0 -51.5 -17.5t-30.5 -45t-15 -59.5t-4 -61.5t1.5 -51.5t1.5 -28z" />
<glyph unicode="p" horiz-adv-x="528" d="M178 547q1 0 2 -5.5t2 -13t2.5 -14.5t2.5 -11q23 32 49.5 44t58.5 12q55 0 88 -29t51 -71.5t24 -92.5t6 -92q0 -41 -6.5 -90.5t-25 -92.5t-52 -72.5t-86.5 -29.5q-32 0 -58 12t-45 39v-244h-104v751h91zM190 187q4 -22 5.5 -45.5t17.5 -40.5q14 -15 26.5 -23t32.5 -8 q27 0 44 16.5t27 41t14 54.5t4.5 57t-0.5 47.5t-1 26.5q0 23 -2 48.5t-9 48.5t-21 41t-38 27h-40q-18 -5 -29.5 -16.5t-18.5 -27t-9.5 -33t-2.5 -33.5v-181v0z" />
<glyph unicode="q" horiz-adv-x="533" d="M342 45l-24.5 -24.5t-22 -18t-26 -11.5t-35.5 -4q-54 0 -87.5 29.5t-51.5 73t-24.5 93.5t-6.5 90q0 37 5 83t20 87.5t42.5 73t72.5 40.5q33 0 55 -1.5t45 -15.5q4 -2 10 -8.5l12 -13t10.5 -11t6.5 -2.5l6 42h96v-670q0 -6 5.5 -12t11.5 -10.5t11.5 -8.5t5.5 -5q1 0 -2 -3 t-3 -5l-61 -58q-17 -1 -30 10t-22 27t-14 35t-5 35v163v0zM169 276q0 -15 0.5 -35.5t2.5 -43.5t7.5 -45.5t15 -41t25 -29.5t37.5 -11q37 0 55 24t24.5 58t5.5 70t-1 60q0 23 0.5 56.5t-5.5 64.5t-23.5 53t-53.5 22q-35 0 -53.5 -23t-26.5 -55t-9 -66.5t-1 -57.5zM343 501 q-1 0 -1 -2h1q1 0 1 1z" />
<glyph unicode="r" horiz-adv-x="372" d="M181 547q3 -20 3 -31t4 -25q11 22 24 35t29 20t35 9.5t42 2.5v-97q-26 -2 -50 -5.5t-42 -15t-28.5 -33t-10.5 -58.5v-349h-102v547h96z" />
<glyph unicode="s" horiz-adv-x="425" d="M76 123q8 -5 20 -13t25.5 -16t27 -14t24.5 -6h54q12 0 21 7t15 17.5t8.5 22.5t2.5 21q0 29 -16 48.5t-40 34.5t-52.5 29.5t-52.5 34t-40 47t-16 69.5q0 63 32 104t98 49q45 0 90.5 -3t86.5 -25q0 -9 -3 -23.5t-6.5 -28.5t-6.5 -24l-3 -10h-2q-26 15 -55.5 24t-59.5 9 q-32 0 -52.5 -16.5t-20.5 -49.5q0 -18 9.5 -31.5t24 -24t30.5 -18.5t29 -16q24 -15 49 -30t44 -38q5 -7 10.5 -19.5t12.5 -17.5l9 -35q1 -1 1 -11v-16q0 -24 -2 -40.5t-8 -39.5q-8 -5 -10.5 -14.5t-8.5 -15.5q-25 -29 -60 -42.5t-86 -13.5q-37 0 -72.5 8.5t-67.5 28.5 q-3 2 -8.5 5.5t-5.5 4.5v11q0 4 3 13.5t7.5 20.5t9.5 22.5t8 20.5h3z" />
<glyph unicode="t" horiz-adv-x="328" d="M33 462v84h56l4 3v143h101v-146h78v-84h-77v-341q0 -11 7 -25t21 -14h49v-80q0 -2 -4.5 -3t-11 -1.5t-13 -0.5h-10.5h-38t-34.5 3.5t-30.5 12.5t-25 26q-1 1 -3.5 11t-5 21.5t-4.5 22t-2 13.5v355h-57z" />
<glyph unicode="u" horiz-adv-x="524" d="M190 547v-389q0 -15 4 -30.5t12 -28t20.5 -20t29.5 -7.5q18 0 33.5 7t27 19t18.5 28t7 34l5 387h100v-547h-96q0 14 -2 27t-2 17h-3q-29 -35 -62 -46.5t-62 -11.5q-60 0 -96 38.5t-36 119.5v403h102z" />
<glyph unicode="v" horiz-adv-x="457" d="M165 0l-131 547h108l89 -470l89 470h103l-124 -547h-134v0z" />
<glyph unicode="w" horiz-adv-x="729" d="M48 547h102l66 -438l2 -2q1 4 2 9.5t4 20.5t8 42.5t15 75.5t25 119t37 173h109l94 -445l67 445h102l-100 -547h-123l-96 409l-93 -409h-123z" />
<glyph unicode="x" horiz-adv-x="455" d="M160 286l-114 261h107l76 -196l76 196h104l-116 -259l128 -288h-110l-86 219l-88 -219h-103z" />
<glyph unicode="y" horiz-adv-x="457" d="M125 -124q13 0 22.5 14.5t16 32.5t9.5 34.5t3 21.5l-142 568h107l89 -449l90 449h103q0 -4 -1 -9.5t-5 -21t-11.5 -45t-20.5 -81t-32 -128.5t-46 -188q-2 -4 -4.5 -14.5t-2.5 -15.5q-3 -8 -8.5 -30t-11.5 -44.5t-10.5 -40l-4.5 -17.5q-10 -27 -21 -50t-26 -40t-37 -26.5 t-53 -9.5q-6 0 -16.5 0.5t-20.5 1t-17 1.5t-7 2v85h58z" />
<glyph unicode="z" horiz-adv-x="389" d="M49 79l183 386h-176v82h279v-88l-175 -373v-3h180v-83h-291v79v0z" />
<glyph unicode="{" horiz-adv-x="323" d="M289 -105q-108 0 -151 50q-38 45 -38 152v65q0 85 -47 85h-24v80h24q47 0 47 86v66q0 106 38 151q43 51 151 51v-67q-60 -7 -80 -37q-18 -25 -18 -88v-53q0 -68 -16.5 -101t-58.5 -48q42 -15 58.5 -48t16.5 -101v-52q0 -63 18 -88q20 -30 80 -36v-67z" />
<glyph unicode="|" horiz-adv-x="230" d="M157 -177h-84v943h84v-943z" />
<glyph unicode="}" horiz-adv-x="323" d="M294 248h-24q-47 0 -47 -85v-66q0 -107 -38 -152q-43 -50 -151 -50v67q60 6 80 36q18 25 18 88v53q0 68 16.5 101t58.5 48q-42 15 -58.5 48t-16.5 101v52q0 63 -18 88q-20 30 -80 37v67q108 0 151 -51q38 -45 38 -151v-66q0 -85 47 -85h24v-80z" />
<glyph unicode="~" horiz-adv-x="526" d="M487 406q-52 -135 -143 -135q-43 0 -90 32q-55 39 -78 39q-21 0 -35 -15t-34 -58l-68 35q52 135 144 135q44 0 90 -32q54 -39 76 -39t36 15t35 58z" />
<glyph unicode="&#xa1;" horiz-adv-x="305" d="M88 607q0 29 17.5 46t46.5 17q30 0 47.5 -17t17.5 -47q0 -29 -16.5 -44.5t-45.5 -15.5q-32 0 -49.5 13t-17.5 48zM110 461h85l17 -473h-117z" />
<glyph unicode="&#xa2;" horiz-adv-x="448" d="M63 248q0 36 5 76.5t21 77t44.5 64t75.5 36.5v77h83v-74q3 0 9 -1.5t13 -3t13 -3t9 -2.5q4 0 12 -4t16 -9.5t14.5 -10.5t6.5 -6l-1 -2q0 -2 -3.5 -11t-8.5 -20.5t-10.5 -24t-9.5 -21.5q-5 -1 -7 0.5t-5 4.5q-17 14 -35.5 22t-41.5 8q-32 0 -51 -18.5t-29 -45.5 t-12.5 -57.5t-2.5 -54.5q0 -25 3.5 -55.5t14 -57.5t30 -45t51.5 -18q19 0 35.5 5.5t33.5 15.5q1 2 8.5 7.5t9.5 6.5q4 4 6 4.5t3 0.5l33 -81q0 -4 -11 -10.5t-27 -12.5t-34 -11.5t-32 -7.5v-77h-83v77q0 1 -4.5 2.5t-10.5 3t-11.5 3t-7.5 2.5q-36 19 -58 46.5t-34 60.5 t-16 69.5t-4 74.5z" />
<glyph unicode="&#xa3;" horiz-adv-x="439" d="M418 609l-57 -70q-31 28 -51 36q-25 12 -63 12q-33 0 -53.5 -21t-20.5 -56q0 -42 23 -95q17 -39 21 -61h107v-83h-102q-5 -93 -67 -186h250v-85h-349v98q43 47 59.5 84t18.5 89h-78v83h69q-11 29 -20 48q-25 53 -25 109q0 79 44.5 124.5t124.5 45.5q54 0 93 -18 q35 -15 76 -54z" />
<glyph unicode="&#xa4;" horiz-adv-x="357" d="M67 435l-43 62l35 54l44 -63q33 33 75 33q41 0 73 -33l44 63l36 -54l-44 -62q23 -49 23 -106q0 -58 -23 -107l44 -61l-36 -55l-44 63q-32 -32 -73 -32q-42 0 -75 32l-44 -63l-35 55l43 61q-22 49 -22 107q0 57 22 106zM95 329q0 -49 24 -83.5t57 -34.5q35 0 58.5 34.5 t23.5 83.5t-23.5 83t-58.5 34q-33 0 -57 -34t-24 -83z" />
<glyph unicode="&#xa5;" horiz-adv-x="482" d="M459 670l-167 -385v-84h107v-85h-107v-116h-97v116h-107v85h107v81l-172 388h115l53 -140q40 -105 53 -149q12 45 52 150l53 139h110z" />
<glyph unicode="&#xa6;" horiz-adv-x="167" d="M108 675v-358h-51v358h51zM108 164v-359h-51v359h51z" />
<glyph unicode="&#xa7;" horiz-adv-x="475" d="M433 250q0 -91 -87 -144q47 -43 47 -107q0 -71 -43 -113.5t-122 -42.5q-82 0 -154 55l50 72q51 -38 107 -38q65 0 65 61q0 26 -20.5 45t-78.5 49q-87 43 -117 78q-38 42 -38 109q0 91 87 143q-48 43 -48 108q0 70 43.5 113t121.5 43q83 0 155 -55l-50 -73q-51 39 -108 39 q-64 0 -64 -62q0 -26 20.5 -45t78.5 -49q86 -43 117 -77q38 -42 38 -109zM336 241q0 37 -20.5 59.5t-82.5 52.5l-30 15q-64 -31 -64 -86q0 -36 20.5 -58.5t82.5 -53.5l30 -15q64 32 64 86z" />
<glyph unicode="&#xa8;" d="M329 629q0 -24 -17.5 -42t-40.5 -18q-24 0 -41.5 18t-17.5 42q0 25 17.5 42.5t41.5 17.5q23 0 40.5 -18t17.5 -42zM163 629q0 -24 -17.5 -42t-40.5 -18q-24 0 -41.5 18t-17.5 42q0 25 17.5 42.5t41.5 17.5q23 0 40.5 -18t17.5 -42z" />
<glyph unicode="&#xa9;" horiz-adv-x="605" d="M563 335q0 -156 -73 -251t-188 -95q-114 0 -187 95t-73 251t73 251t187 95q115 0 188 -95t73 -251zM508 334q0 133 -55.5 213.5t-150.5 80.5q-94 0 -150 -80t-56 -212t57 -213t151 -81q95 0 149.5 80t54.5 212zM401 239q-20 -97 -99 -97q-108 0 -108 195q0 88 26 139 q28 56 84 56q81 0 97 -93l-55 -13q-10 50 -44 50q-53 0 -53 -138q0 -140 57 -140q31 0 45 58z" />
<glyph unicode="&#xaa;" horiz-adv-x="236" d="M172 387q-38 -49 -81 -49q-35 0 -55.5 28t-20.5 71q0 22 5 38.5t15 29t24 19.5q13 5 32 10l47 10q22 6 29 9q0 32 -4 43t-15.5 19t-29.5 8q-25 0 -37 -15t-14 -42l-43 15q3 41 27 67.5t68 26.5q51 0 73 -27q20 -28 20 -82v-109v-28q0 -60 12 -83h-45q-7 18 -7 41z M167 500q-16 -6 -60 -16q-28 -6 -36 -18q-11 -12 -11 -29q0 -19 11.5 -31.5t29.5 -12.5q23 0 40.5 17t22.5 43q3 10 3 47z" />
<glyph unicode="&#xab;" horiz-adv-x="459" d="M417 0h-92l-126 251l126 251h92l-122 -250zM237 0h-92l-126 251l126 251h92l-122 -250z" />
<glyph unicode="&#xac;" d="M339 192h-53v199h-250v76h303v-275z" />
<glyph unicode="&#xad;" horiz-adv-x="572" d="M530 305h-489v90h489v-90z" />
<glyph unicode="&#xae;" horiz-adv-x="605" d="M563 335q0 -156 -73 -251t-188 -95q-114 0 -187 95t-73 251t73 251t187 95q115 0 188 -95t73 -251zM508 334q0 133 -55.5 213.5t-150.5 80.5q-94 0 -150 -80t-56 -212t57 -213t151 -81q95 0 149.5 80t54.5 212zM419 424q0 -73 -59 -98l58 -172h-60l-55 162h-39v-162h-54 v377h104q45 0 73 -25q32 -28 32 -82zM362 424q0 53 -50 53h-48v-108h46q52 0 52 55z" />
<glyph unicode="&#xaf;" horiz-adv-x="355" d="M-9 710v58h372v-58h-372z" />
<glyph unicode="&#xb0;" d="M345 521q0 -69 -45.5 -115.5t-112.5 -46.5q-66 0 -111.5 46.5t-45.5 115.5q0 67 46 113.5t111 46.5q67 0 112.5 -46.5t45.5 -113.5zM271 521q0 34 -24.5 59.5t-59.5 25.5q-34 0 -58.5 -25.5t-24.5 -59.5q0 -37 24.5 -62t58.5 -25q35 0 59.5 25t24.5 62z" />
<glyph unicode="&#xb1;" horiz-adv-x="353" d="M150 118v182h-126v75h126v182h53v-182h124v-75h-124v-182h-53zM327 0h-303v76h303v-76z" />
<glyph unicode="&#xb2;" horiz-adv-x="214" d="M8 332q1 26 15 52q20 38 64.5 86t52.5 61q12 18 12 38q0 22 -10.5 36t-30.5 14q-23 0 -32.5 -10.5t-17.5 -41.5l-46 8q9 50 31.5 73.5t64.5 23.5q47 0 69 -26.5t22 -65.5q0 -38 -19 -71q-13 -26 -64 -78q-27 -28 -36 -44h120v-55h-195z" />
<glyph unicode="&#xb3;" horiz-adv-x="214" d="M11 421l45 6q5 -27 17 -36q12 -14 31 -14q23 0 36.5 18t13.5 42q0 23 -11.5 36.5t-39.5 13.5q-4 0 -10 -1h-8l8 49q26 0 37.5 13.5t11.5 33.5q0 17 -9.5 28.5t-28.5 11.5q-17 0 -26.5 -10t-17.5 -36l-44 10q13 48 32.5 67t55.5 19q47 0 67.5 -24t20.5 -60q0 -25 -11 -45 t-33 -27q28 -11 41.5 -34t13.5 -54q0 -41 -25.5 -72.5t-70.5 -31.5q-44 0 -67 25.5t-29 71.5z" />
<glyph unicode="&#xb4;" d="M309 723l-136 -154h-77l87 154h126z" />
<glyph unicode="&#xb5;" horiz-adv-x="369" d="M319 481v-481h-51v58q-17 -37 -33 -51q-20 -18 -49 -18q-27 0 -47 15q-15 11 -34 44v-233h-54v666h54v-204q0 -110 8.5 -143.5t27 -52.5t42.5 -19q25 0 45 20t27.5 52t7.5 141v206h56z" />
<glyph unicode="&#xb6;" horiz-adv-x="345" d="M127 -185v475q-58 3 -92.5 54t-34.5 129q0 87 38 139t110 52h199v-78h-45v-771h-52v771h-71v-771h-52z" />
<glyph unicode="&#xb7;" horiz-adv-x="203" d="M163 336q0 -26 -18 -45t-43 -19q-26 0 -44 19t-18 45q0 27 18 46t44 19q25 0 43 -19t18 -46z" />
<glyph unicode="&#xb8;" d="M290 -105q0 -80 -100 -80q-49 0 -94 28l18 31q31 -17 69 -17q45 0 45 35q0 31 -24 31q-17 0 -35 -11l-29 12l17 87h44l-10 -57q14 9 39 9q60 0 60 -68z" />
<glyph unicode="&#xb9;" horiz-adv-x="214" d="M103 332v251q-31 -37 -70 -51v56q20 9 43.5 33t38.5 51h35v-340h-47z" />
<glyph unicode="&#xba;" horiz-adv-x="234" d="M116 675q47 0 75.5 -45t28.5 -125q0 -79 -29 -124.5t-75 -45.5q-44 0 -72.5 44.5t-28.5 123.5q0 82 28.5 127t72.5 45zM116 616q-25 0 -40.5 -26t-15.5 -85q0 -57 16 -83t40 -26q26 0 42 26t16 86q0 55 -16 81.5t-42 26.5z" />
<glyph unicode="&#xbb;" horiz-adv-x="459" d="M431 251l-127 -251h-91l121 252l-121 250h91zM251 251l-126 -251h-92l122 252l-122 250h92z" />
<glyph unicode="&#xbc;" horiz-adv-x="1285" d="M157 655q-3 0 -14.5 -14t-24.5 -30.5t-24 -30.5t-14 -14q-4 0 -12 10.5t-17 23.5q-11 15 -23 35q27 34 54.5 66.5t55.5 64.5q7 8 16 15.5t12 17.5h88v-670h-97v526v0zM648.241 796.7h93.8994l-275.369 -1023h-88.624zM858 -90l-2 6q-2 3 -6 16t-8 27q-5 17 -10 36 l224 447h115v-443h68v-89h-68v-138h-105v138h-208zM930 0h137v305l-137 -303v-2z" />
<glyph unicode="&#xbd;" horiz-adv-x="1209" d="M157 659q-3 0 -14.5 -14t-24.5 -30.5t-24 -30.5t-14 -14q-4 0 -12 10.5t-17 23.5q-11 15 -23 35q27 34 54.5 66.5t55.5 64.5q7 8 16 15.5t12 17.5h88v-670h-97v526v0zM637.268 796.729h90.2871l-264.775 -1022h-85.2148zM802 -140q0 1 4 8t11.5 17.5t17.5 23t21 25.5 q1 5 13 20t26 32t26.5 32.5t15.5 20.5q18 24 36.5 51t34 56.5t25 60t9.5 62.5q0 18 -4 35t-12.5 30t-22 20.5t-33.5 7.5q-14 0 -28.5 -3t-27.5 -11q-6 -3 -15.5 -11.5t-19.5 -17.5t-18 -15.5t-9 -6.5q-1 -1 -3 2l-35 56q-10 7 -10 18q0 5 3 8q41 32 79.5 51t92.5 19 q85 0 126.5 -48.5t41.5 -130.5q0 -38 -10.5 -72.5t-27.5 -67.5q-1 -2 -5.5 -13t-5.5 -13q-22 -38 -46 -69.5t-48.5 -60.5t-49.5 -57.5t-49 -60.5h237v-87h-328l-2 7q-1 2 -2.5 14.5t-3 26.5t-3 26.5t-1.5 14.5z" />
<glyph unicode="&#xbe;" horiz-adv-x="1404" d="M112 121q-5 2 -15.5 5.5t-21.5 8t-18.5 9t-5.5 9.5q0 1 4 13.5t9.5 27.5t11 27t9.5 12q26 -17 54.5 -27.5t59.5 -10.5q27 0 46 9t30 25t16 38t5 47q0 15 -2 31t-8 31t-16 27t-26 18q-5 2 -14.5 5t-10.5 3h-68v85q29 0 53 4t41.5 15.5t27 31.5t9.5 52q0 45 -20 70t-65 25 q-14 0 -27.5 -2.5t-25.5 -7.5q-11 -5 -24.5 -15t-25.5 -10q-9 19 -21 38.5t-12 36.5q0 3 9 7.5t21.5 10l25 11t20.5 10.5q20 4 40.5 6.5t40.5 2.5q27 0 50.5 -5t52.5 -25q34 -24 47.5 -65t13.5 -80q0 -37 -11 -67.5t-38 -55.5q-2 -2 -7.5 -5.5t-11.5 -7t-10.5 -6.5t-5.5 -4 q3 -2 19 -10t30 -13q29 -34 39 -67.5t10 -78.5q0 -56 -20.5 -107t-77.5 -80q-1 0 -1 -1t-1 -1q-25 -8 -43.5 -10t-44.5 -2q-28 0 -48 2.5t-48 9.5zM752.153 796.757h88.7451l-260.251 -1021h-83.7598zM977 -87l-2 6q-2 3 -6 16t-8 27q-5 17 -10 36l224 447h115v-443h68v-89 h-68v-138h-105v138h-208zM1049 3h137v305l-137 -303v-2z" />
<glyph unicode="&#xbf;" horiz-adv-x="424" d="M268 552q-41 0 -57.5 12t-16.5 50q0 29 12.5 47.5t44.5 18.5q8 0 18 -3t18.5 -8.5t14.5 -13.5t6 -17v-49q0 -13 -14.5 -23.5t-25.5 -13.5zM159 175q0 -39 18.5 -69.5t60.5 -30.5q30 0 54 13.5t47 31.5q3 0 7.5 -9.5t9 -22.5t9 -26.5t6.5 -21.5q0 -5 -7.5 -9.5t-11.5 -6.5 q-32 -18 -63 -27.5t-67 -9.5q-40 0 -71 13.5t-52 37t-32 55.5t-11 70q0 49 16.5 91.5t58.5 78.5q8 8 19.5 15.5t22.5 16t19 17.5t8 19v93h94v-109q0 -22 -10 -37.5t-25 -29t-32.5 -26.5t-32.5 -29t-25 -37t-10 -51z" />
<glyph unicode="&#xc0;" horiz-adv-x="529" d="M198 670h128l170 -670h-111l-37 158h-169l-37 -158h-109zM332 254l-71 320l-65 -320h136zM370 697h-77l-135 154h126z" />
<glyph unicode="&#xc1;" horiz-adv-x="529" d="M198 670h128l170 -670h-111l-37 158h-169l-37 -158h-109zM332 254l-71 320l-65 -320h136zM371 851l-136 -154h-77l87 154h126z" />
<glyph unicode="&#xc2;" horiz-adv-x="529" d="M198 670h128l170 -670h-111l-37 158h-169l-37 -158h-109zM332 254l-71 320l-65 -320h136zM408 697h-73l-72 85l-72 -85h-71l96 154h97z" />
<glyph unicode="&#xc3;" horiz-adv-x="529" d="M198 670h128l170 -670h-111l-37 158h-169l-37 -158h-109zM332 254l-71 320l-65 -320h136zM420 813q0 -57 -24 -88.5t-64 -31.5q-37 0 -99 38q-19 11 -31 11q-28 0 -32 -45h-62q0 57 26 90q24 29 64 29q35 0 97 -38q19 -12 33 -12q25 0 31 47h61z" />
<glyph unicode="&#xc4;" horiz-adv-x="529" d="M198 670h128l170 -670h-111l-37 158h-169l-37 -158h-109zM332 254l-71 320l-65 -320h136zM406 757q0 -24 -17.5 -42t-40.5 -18q-24 0 -41.5 18t-17.5 42q0 25 17.5 42.5t41.5 17.5q23 0 40.5 -18t17.5 -42zM240 757q0 -24 -17.5 -42t-40.5 -18q-24 0 -41.5 18t-17.5 42 q0 25 17.5 42.5t41.5 17.5q23 0 40.5 -18t17.5 -42z" />
<glyph unicode="&#xc5;" horiz-adv-x="529" d="M198 670h128l170 -670h-111l-37 158h-169l-37 -158h-109zM332 254l-71 320l-65 -320h136zM370 805q0 -47 -30 -77.5t-76 -30.5t-76 30.5t-30 77.5t30 77.5t76 30.5t76 -30.5t30 -77.5zM316 805q0 23 -15 38t-37 15q-21 0 -36 -15t-15 -38t15 -38.5t36 -15.5q22 0 37 15.5 t15 38.5z" />
<glyph unicode="&#xc6;" horiz-adv-x="625" d="M594 0h-307v158h-128l-50 -158h-93l227 670h339v-91h-207v-179h132v-90h-132v-219h219v-91zM289 571q-13 -47 -39 -129l-63 -195h100v204q0 53 2 120z" />
<glyph unicode="&#xc7;" horiz-adv-x="504" d="M62 334q0 48 5 95.5t21 93.5q8 21 21.5 41.5t24.5 39.5l40 40q14 5 25.5 13.5t25.5 14.5q16 6 35.5 7.5t36.5 1.5q18 0 35.5 -3.5t34.5 -5.5q12 -7 28 -18.5t30 -16.5l35 -35q3 -3 3 -7q0 -2 -4.5 -9t-10.5 -15t-12.5 -15.5t-10.5 -11.5q-5 -5 -12.5 -13t-8.5 -8h-2 q-22 26 -45.5 46.5t-60.5 20.5q-29 0 -50 -14t-34.5 -36t-21.5 -50t-12.5 -56.5t-5.5 -55t-1 -45.5q0 -32 3.5 -75.5t16.5 -83.5t38.5 -68t69.5 -28q23 0 39 6t28.5 16.5t24.5 23.5t27 27q-3 4 4.5 -5t18 -22.5t20 -26.5t9.5 -16q0 -10 -11 -22t-26.5 -23t-32 -20.5 t-26.5 -13.5q-21 -8 -42.5 -10t-43.5 -2q-70 0 -114 33t-69 83.5t-34 111t-9 116.5zM349 -105q0 -80 -100 -80q-49 0 -94 28l18 31q31 -17 69 -17q45 0 45 35q0 31 -24 31q-17 0 -35 -11l-29 12l17 87h44l-10 -57q14 9 39 9q60 0 60 -68z" />
<glyph unicode="&#xc8;" horiz-adv-x="428" d="M372 670v-92h-184v-181h166v-93h-166v-219h191v-85h-298v670h291zM320 697h-77l-135 154h126z" />
<glyph unicode="&#xc9;" horiz-adv-x="428" d="M372 670v-92h-184v-181h166v-93h-166v-219h191v-85h-298v670h291zM320 851l-136 -154h-77l87 154h126z" />
<glyph unicode="&#xca;" horiz-adv-x="428" d="M372 670v-92h-184v-181h166v-93h-166v-219h191v-85h-298v670h291zM358 697h-73l-72 85l-72 -85h-71l96 154h97z" />
<glyph unicode="&#xcb;" horiz-adv-x="428" d="M372 670v-92h-184v-181h166v-93h-166v-219h191v-85h-298v670h291zM355 757q0 -24 -17.5 -42t-40.5 -18q-24 0 -41.5 18t-17.5 42q0 25 17.5 42.5t41.5 17.5q23 0 40.5 -18t17.5 -42zM189 757q0 -24 -17.5 -42t-40.5 -18q-24 0 -41.5 18t-17.5 42q0 25 17.5 42.5 t41.5 17.5q23 0 40.5 -18t17.5 -42z" />
<glyph unicode="&#xcc;" horiz-adv-x="291" d="M198 670v-670h-105v670h105zM253 697h-77l-135 154h126z" />
<glyph unicode="&#xcd;" horiz-adv-x="291" d="M198 670v-670h-105v670h105zM253 851l-136 -154h-77l87 154h126z" />
<glyph unicode="&#xce;" horiz-adv-x="291" d="M198 670v-670h-105v670h105zM291 697h-73l-72 85l-72 -85h-71l96 154h97z" />
<glyph unicode="&#xcf;" horiz-adv-x="291" d="M198 670v-670h-105v670h105zM288 757q0 -24 -17.5 -42t-40.5 -18q-24 0 -41.5 18t-17.5 42q0 25 17.5 42.5t41.5 17.5q23 0 40.5 -18t17.5 -42zM122 757q0 -24 -17.5 -42t-40.5 -18q-24 0 -41.5 18t-17.5 42q0 25 17.5 42.5t41.5 17.5q23 0 40.5 -18t17.5 -42z" />
<glyph unicode="&#xd0;" horiz-adv-x="463" d="M49 0v302h-50v60h50v302h159q52 0 82 -10q38 -12 67 -47q36 -44 54 -113.5t18 -157.5q0 -102 -21.5 -175t-53 -106t-72.5 -47q-23 -8 -66 -8h-167zM111 78h97q46 0 72 12.5t40 34.5q22 31 34 83.5t12 128.5q0 78 -11.5 124.5t-31.5 74.5t-44 39t-72 11h-96v-224h125v-60 h-125v-224z" />
<glyph unicode="&#xd1;" horiz-adv-x="591" d="M191 670l220 -449v449h94v-670h-95l-225 449v-449h-99v670h105zM451 813q0 -57 -24 -88.5t-64 -31.5q-37 0 -99 38q-19 11 -31 11q-28 0 -32 -45h-62q0 57 26 90q24 29 64 29q35 0 97 -38q19 -12 33 -12q25 0 31 47h61z" />
<glyph unicode="&#xd2;" horiz-adv-x="601" d="M82 162q-3 16 -6.5 34.5t-6.5 36t-4.5 31t-1.5 19.5q0 56 2.5 112t16.5 111q0 1 1 2.5t1 2.5q10 21 18 38.5t16.5 33t19.5 29.5t28 27q29 23 63.5 32.5t71.5 9.5q47 0 87.5 -16t72.5 -52q5 -6 11.5 -16t12.5 -19.5t10.5 -17t5.5 -7.5q21 -51 29 -104.5t8 -107.5 q0 -51 -8 -110t-30 -110.5t-61.5 -88t-102.5 -42.5q-55 0 -94.5 8.5t-68.5 28.5t-50.5 53t-40.5 82zM170 335q0 -33 3 -77.5t16 -85t39.5 -68.5t73.5 -28q45 0 71 28.5t39 68.5t16 84t3 75q0 43 -3.5 78t-12.5 80q-9 22 -19 41t-23 33t-30.5 21.5t-41.5 7.5q-47 0 -73 -27.5 t-39 -67t-16 -84.5t-3 -79zM406 697h-77l-135 154h126z" />
<glyph unicode="&#xd3;" horiz-adv-x="601" d="M82 162q-3 16 -6.5 34.5t-6.5 36t-4.5 31t-1.5 19.5q0 56 2.5 112t16.5 111q0 1 1 2.5t1 2.5q10 21 18 38.5t16.5 33t19.5 29.5t28 27q29 23 63.5 32.5t71.5 9.5q47 0 87.5 -16t72.5 -52q5 -6 11.5 -16t12.5 -19.5t10.5 -17t5.5 -7.5q21 -51 29 -104.5t8 -107.5 q0 -51 -8 -110t-30 -110.5t-61.5 -88t-102.5 -42.5q-55 0 -94.5 8.5t-68.5 28.5t-50.5 53t-40.5 82zM170 335q0 -33 3 -77.5t16 -85t39.5 -68.5t73.5 -28q45 0 71 28.5t39 68.5t16 84t3 75q0 43 -3.5 78t-12.5 80q-9 22 -19 41t-23 33t-30.5 21.5t-41.5 7.5q-47 0 -73 -27.5 t-39 -67t-16 -84.5t-3 -79zM407 851l-136 -154h-77l87 154h126z" />
<glyph unicode="&#xd4;" horiz-adv-x="601" d="M82 162q-3 16 -6.5 34.5t-6.5 36t-4.5 31t-1.5 19.5q0 56 2.5 112t16.5 111q0 1 1 2.5t1 2.5q10 21 18 38.5t16.5 33t19.5 29.5t28 27q29 23 63.5 32.5t71.5 9.5q47 0 87.5 -16t72.5 -52q5 -6 11.5 -16t12.5 -19.5t10.5 -17t5.5 -7.5q21 -51 29 -104.5t8 -107.5 q0 -51 -8 -110t-30 -110.5t-61.5 -88t-102.5 -42.5q-55 0 -94.5 8.5t-68.5 28.5t-50.5 53t-40.5 82zM170 335q0 -33 3 -77.5t16 -85t39.5 -68.5t73.5 -28q45 0 71 28.5t39 68.5t16 84t3 75q0 43 -3.5 78t-12.5 80q-9 22 -19 41t-23 33t-30.5 21.5t-41.5 7.5q-47 0 -73 -27.5 t-39 -67t-16 -84.5t-3 -79zM444 697h-73l-72 85l-72 -85h-71l96 154h97z" />
<glyph unicode="&#xd5;" horiz-adv-x="601" d="M82 162q-3 16 -6.5 34.5t-6.5 36t-4.5 31t-1.5 19.5q0 56 2.5 112t16.5 111q0 1 1 2.5t1 2.5q10 21 18 38.5t16.5 33t19.5 29.5t28 27q29 23 63.5 32.5t71.5 9.5q47 0 87.5 -16t72.5 -52q5 -6 11.5 -16t12.5 -19.5t10.5 -17t5.5 -7.5q21 -51 29 -104.5t8 -107.5 q0 -51 -8 -110t-30 -110.5t-61.5 -88t-102.5 -42.5q-55 0 -94.5 8.5t-68.5 28.5t-50.5 53t-40.5 82zM170 335q0 -33 3 -77.5t16 -85t39.5 -68.5t73.5 -28q45 0 71 28.5t39 68.5t16 84t3 75q0 43 -3.5 78t-12.5 80q-9 22 -19 41t-23 33t-30.5 21.5t-41.5 7.5q-47 0 -73 -27.5 t-39 -67t-16 -84.5t-3 -79zM456 813q0 -57 -24 -88.5t-64 -31.5q-37 0 -99 38q-19 11 -31 11q-28 0 -32 -45h-62q0 57 26 90q24 29 64 29q35 0 97 -38q19 -12 33 -12q25 0 31 47h61z" />
<glyph unicode="&#xd6;" horiz-adv-x="601" d="M82 162q-3 16 -6.5 34.5t-6.5 36t-4.5 31t-1.5 19.5q0 56 2.5 112t16.5 111q0 1 1 2.5t1 2.5q10 21 18 38.5t16.5 33t19.5 29.5t28 27q29 23 63.5 32.5t71.5 9.5q47 0 87.5 -16t72.5 -52q5 -6 11.5 -16t12.5 -19.5t10.5 -17t5.5 -7.5q21 -51 29 -104.5t8 -107.5 q0 -51 -8 -110t-30 -110.5t-61.5 -88t-102.5 -42.5q-55 0 -94.5 8.5t-68.5 28.5t-50.5 53t-40.5 82zM170 335q0 -33 3 -77.5t16 -85t39.5 -68.5t73.5 -28q45 0 71 28.5t39 68.5t16 84t3 75q0 43 -3.5 78t-12.5 80q-9 22 -19 41t-23 33t-30.5 21.5t-41.5 7.5q-47 0 -73 -27.5 t-39 -67t-16 -84.5t-3 -79zM442 757q0 -24 -17.5 -42t-40.5 -18q-24 0 -41.5 18t-17.5 42q0 25 17.5 42.5t41.5 17.5q23 0 40.5 -18t17.5 -42zM276 757q0 -24 -17.5 -42t-40.5 -18q-24 0 -41.5 18t-17.5 42q0 25 17.5 42.5t41.5 17.5q23 0 40.5 -18t17.5 -42z" />
<glyph unicode="&#xd7;" d="M51 186l99 142l-99 142l37 55l99 -141l99 141l37 -55l-99 -142l99 -141l-37 -56l-99 142l-99 -142z" />
<glyph unicode="&#xd8;" horiz-adv-x="601" d="M82 162q-3 16 -6.5 34.5t-6.5 36t-4.5 31t-1.5 19.5q0 56 2.5 112t16.5 111q0 1 1 2.5t1 2.5q10 21 18 38.5t16.5 33t19.5 29.5t28 27q29 23 63.5 32.5t71.5 9.5q47 0 87.5 -16t72.5 -52q5 -6 11.5 -16t12.5 -19.5t10.5 -17t5.5 -7.5q21 -51 29 -104.5t8 -107.5 q0 -51 -8 -110t-30 -110.5t-61.5 -88t-102.5 -42.5q-55 0 -94.5 8.5t-68.5 28.5t-50.5 53t-40.5 82zM170 335q0 -33 3 -77.5t16 -85t39.5 -68.5t73.5 -28q45 0 71 28.5t39 68.5t16 84t3 75q0 43 -3.5 78t-12.5 80q-9 22 -19 41t-23 33t-30.5 21.5t-41.5 7.5q-47 0 -73 -27.5 t-39 -67t-16 -84.5t-3 -79zM382.289 676.087h88.4844l-259.486 -695.977h-83.5137z" />
<glyph unicode="&#xd9;" horiz-adv-x="563" d="M85 216v454h104v-475q0 -14 4 -34t12.5 -38t22 -31t32.5 -13h46q22 0 36 16.5t21 37.5t9.5 39.5t2.5 22.5v475h103v-454q0 -120 -48.5 -174t-145.5 -54q-61 0 -104.5 19t-70.5 76q-5 10 -6.5 23t-7.5 22zM387 697h-77l-135 154h126z" />
<glyph unicode="&#xda;" horiz-adv-x="563" d="M85 216v454h104v-475q0 -14 4 -34t12.5 -38t22 -31t32.5 -13h46q22 0 36 16.5t21 37.5t9.5 39.5t2.5 22.5v475h103v-454q0 -120 -48.5 -174t-145.5 -54q-61 0 -104.5 19t-70.5 76q-5 10 -6.5 23t-7.5 22zM388 851l-136 -154h-77l87 154h126z" />
<glyph unicode="&#xdb;" horiz-adv-x="563" d="M85 216v454h104v-475q0 -14 4 -34t12.5 -38t22 -31t32.5 -13h46q22 0 36 16.5t21 37.5t9.5 39.5t2.5 22.5v475h103v-454q0 -120 -48.5 -174t-145.5 -54q-61 0 -104.5 19t-70.5 76q-5 10 -6.5 23t-7.5 22zM425 697h-73l-72 85l-72 -85h-71l96 154h97z" />
<glyph unicode="&#xdc;" horiz-adv-x="563" d="M85 216v454h104v-475q0 -14 4 -34t12.5 -38t22 -31t32.5 -13h46q22 0 36 16.5t21 37.5t9.5 39.5t2.5 22.5v475h103v-454q0 -120 -48.5 -174t-145.5 -54q-61 0 -104.5 19t-70.5 76q-5 10 -6.5 23t-7.5 22zM423 757q0 -24 -17.5 -42t-40.5 -18q-24 0 -41.5 18t-17.5 42 q0 25 17.5 42.5t41.5 17.5q23 0 40.5 -18t17.5 -42zM257 757q0 -24 -17.5 -42t-40.5 -18q-24 0 -41.5 18t-17.5 42q0 25 17.5 42.5t41.5 17.5q23 0 40.5 -18t17.5 -42z" />
<glyph unicode="&#xdd;" horiz-adv-x="482" d="M192 249q-11 26 -24.5 59.5t-33 82t-45.5 116.5t-61 163h112l104 -305l105 305h105l-157 -412v-258h-105v249v0zM347 851l-136 -154h-77l87 154h126z" />
<glyph unicode="&#xde;" horiz-adv-x="427" d="M49 0v664h62v-135h112q45 0 69 -7q35 -7 58 -30t36 -64.5t13 -90.5q0 -84 -36.5 -143t-135.5 -59h-116v-135h-62zM111 213h117q59 0 84.5 31.5t25.5 89.5q0 41 -15 71t-39 39q-16 7 -57 7h-116v-238z" />
<glyph unicode="&#xdf;" horiz-adv-x="434" d="M394 209q0 -209 -186 -209h-10v84h11q94 0 94 122q0 131 -96 131h-9v83h8q75 0 75 95t-70 95q-68 0 -68 -91v-654l-90 -50v693q0 98 38 142.5t122 44.5q76 0 117.5 -45t41.5 -127q0 -99 -67 -138q89 -36 89 -176z" />
<glyph unicode="&#xe0;" horiz-adv-x="515" d="M64 153q0 99 66 147.5t197 57.5v39t-5.5 39t-18 29.5t-37.5 11.5q-40 0 -77.5 -11.5t-72.5 -30.5h-5q-3 10 -7 23.5t-7.5 25.5t-6 20t-2.5 7q42 23 87.5 35t93.5 12q33 0 62.5 -7t51.5 -24.5t35 -48t13 -76.5v-330q3 -9 7 -15q3 -5 6.5 -9.5t6.5 -4.5q0 -2 -8.5 -9.5 t-20 -16t-22 -15.5t-13.5 -7q-11 0 -22 6.5t-17 14.5q-2 2 -5 8.5t-4 5.5l-5 21q-31 -29 -61 -46t-73 -17q-37 0 -63 13t-42 35t-23.5 52t-7.5 65zM164 157q0 -11 2 -27t7.5 -30.5t14 -24.5t21.5 -10h41q21 7 38 16q14 8 26.5 18t12.5 22v166q-26 1 -53 -3t-47 -15 q-33 -18 -48 -46.5t-15 -65.5zM363 569h-77l-135 154h126z" />
<glyph unicode="&#xe1;" horiz-adv-x="515" d="M64 153q0 99 66 147.5t197 57.5v39t-5.5 39t-18 29.5t-37.5 11.5q-40 0 -77.5 -11.5t-72.5 -30.5h-5q-3 10 -7 23.5t-7.5 25.5t-6 20t-2.5 7q42 23 87.5 35t93.5 12q33 0 62.5 -7t51.5 -24.5t35 -48t13 -76.5v-330q3 -9 7 -15q3 -5 6.5 -9.5t6.5 -4.5q0 -2 -8.5 -9.5 t-20 -16t-22 -15.5t-13.5 -7q-11 0 -22 6.5t-17 14.5q-2 2 -5 8.5t-4 5.5l-5 21q-31 -29 -61 -46t-73 -17q-37 0 -63 13t-42 35t-23.5 52t-7.5 65zM164 157q0 -11 2 -27t7.5 -30.5t14 -24.5t21.5 -10h41q21 7 38 16q14 8 26.5 18t12.5 22v166q-26 1 -53 -3t-47 -15 q-33 -18 -48 -46.5t-15 -65.5zM364 723l-136 -154h-77l87 154h126z" />
<glyph unicode="&#xe2;" horiz-adv-x="515" d="M64 153q0 99 66 147.5t197 57.5v39t-5.5 39t-18 29.5t-37.5 11.5q-40 0 -77.5 -11.5t-72.5 -30.5h-5q-3 10 -7 23.5t-7.5 25.5t-6 20t-2.5 7q42 23 87.5 35t93.5 12q33 0 62.5 -7t51.5 -24.5t35 -48t13 -76.5v-330q3 -9 7 -15q3 -5 6.5 -9.5t6.5 -4.5q0 -2 -8.5 -9.5 t-20 -16t-22 -15.5t-13.5 -7q-11 0 -22 6.5t-17 14.5q-2 2 -5 8.5t-4 5.5l-5 21q-31 -29 -61 -46t-73 -17q-37 0 -63 13t-42 35t-23.5 52t-7.5 65zM164 157q0 -11 2 -27t7.5 -30.5t14 -24.5t21.5 -10h41q21 7 38 16q14 8 26.5 18t12.5 22v166q-26 1 -53 -3t-47 -15 q-33 -18 -48 -46.5t-15 -65.5zM401 569h-73l-72 85l-72 -85h-71l96 154h97z" />
<glyph unicode="&#xe3;" horiz-adv-x="515" d="M64 153q0 99 66 147.5t197 57.5v39t-5.5 39t-18 29.5t-37.5 11.5q-40 0 -77.5 -11.5t-72.5 -30.5h-5q-3 10 -7 23.5t-7.5 25.5t-6 20t-2.5 7q42 23 87.5 35t93.5 12q33 0 62.5 -7t51.5 -24.5t35 -48t13 -76.5v-330q3 -9 7 -15q3 -5 6.5 -9.5t6.5 -4.5q0 -2 -8.5 -9.5 t-20 -16t-22 -15.5t-13.5 -7q-11 0 -22 6.5t-17 14.5q-2 2 -5 8.5t-4 5.5l-5 21q-31 -29 -61 -46t-73 -17q-37 0 -63 13t-42 35t-23.5 52t-7.5 65zM164 157q0 -11 2 -27t7.5 -30.5t14 -24.5t21.5 -10h41q21 7 38 16q14 8 26.5 18t12.5 22v166q-26 1 -53 -3t-47 -15 q-33 -18 -48 -46.5t-15 -65.5zM413 685q0 -57 -24 -88.5t-64 -31.5q-37 0 -99 38q-19 11 -31 11q-28 0 -32 -45h-62q0 57 26 90q24 29 64 29q35 0 97 -38q19 -12 33 -12q25 0 31 47h61z" />
<glyph unicode="&#xe4;" horiz-adv-x="515" d="M64 153q0 99 66 147.5t197 57.5v39t-5.5 39t-18 29.5t-37.5 11.5q-40 0 -77.5 -11.5t-72.5 -30.5h-5q-3 10 -7 23.5t-7.5 25.5t-6 20t-2.5 7q42 23 87.5 35t93.5 12q33 0 62.5 -7t51.5 -24.5t35 -48t13 -76.5v-330q3 -9 7 -15q3 -5 6.5 -9.5t6.5 -4.5q0 -2 -8.5 -9.5 t-20 -16t-22 -15.5t-13.5 -7q-11 0 -22 6.5t-17 14.5q-2 2 -5 8.5t-4 5.5l-5 21q-31 -29 -61 -46t-73 -17q-37 0 -63 13t-42 35t-23.5 52t-7.5 65zM164 157q0 -11 2 -27t7.5 -30.5t14 -24.5t21.5 -10h41q21 7 38 16q14 8 26.5 18t12.5 22v166q-26 1 -53 -3t-47 -15 q-33 -18 -48 -46.5t-15 -65.5zM399 629q0 -24 -17.5 -42t-40.5 -18q-24 0 -41.5 18t-17.5 42q0 25 17.5 42.5t41.5 17.5q23 0 40.5 -18t17.5 -42zM233 629q0 -24 -17.5 -42t-40.5 -18q-24 0 -41.5 18t-17.5 42q0 25 17.5 42.5t41.5 17.5q23 0 40.5 -18t17.5 -42z" />
<glyph unicode="&#xe5;" horiz-adv-x="515" d="M64 153q0 99 66 147.5t197 57.5v39t-5.5 39t-18 29.5t-37.5 11.5q-40 0 -77.5 -11.5t-72.5 -30.5h-5q-3 10 -7 23.5t-7.5 25.5t-6 20t-2.5 7q42 23 87.5 35t93.5 12q33 0 62.5 -7t51.5 -24.5t35 -48t13 -76.5v-330q3 -9 7 -15q3 -5 6.5 -9.5t6.5 -4.5q0 -2 -8.5 -9.5 t-20 -16t-22 -15.5t-13.5 -7q-11 0 -22 6.5t-17 14.5q-2 2 -5 8.5t-4 5.5l-5 21q-31 -29 -61 -46t-73 -17q-37 0 -63 13t-42 35t-23.5 52t-7.5 65zM164 157q0 -11 2 -27t7.5 -30.5t14 -24.5t21.5 -10h41q21 7 38 16q14 8 26.5 18t12.5 22v166q-26 1 -53 -3t-47 -15 q-33 -18 -48 -46.5t-15 -65.5zM363 677q0 -47 -30 -77.5t-76 -30.5t-76 30.5t-30 77.5t30 77.5t76 30.5t76 -30.5t30 -77.5zM309 677q0 23 -15 38t-37 15q-21 0 -36 -15t-15 -38t15 -38.5t36 -15.5q22 0 37 15.5t15 38.5z" />
<glyph unicode="&#xe6;" horiz-adv-x="641" d="M605 253q0 -23 -1 -33h-258q9 -142 93 -142q50 0 89 37l55 -59q-59 -67 -146 -67q-84 0 -126 73q-62 -73 -148 -73q-57 0 -94 43q-40 45 -40 126q0 79 45 123q43 42 115 42q41 0 75 -17v49q0 72 -64 72q-45 0 -96 -32l-38 70q70 48 138 48q52 0 79 -15q21 -13 39 -44 q39 59 110 59q76 0 123 -64q50 -70 50 -196zM513 300q-2 57 -24 92t-59 35q-71 0 -83 -127h166zM264 120v100q-31 19 -74 19q-71 0 -71 -79q0 -87 62 -87q57 0 83 47z" />
<glyph unicode="&#xe7;" horiz-adv-x="446" d="M182 2q-3 5 -10.5 7.5t-12.5 6.5q-32 25 -51.5 57t-30.5 71q-6 33 -10 65.5t-4 65.5q0 47 7.5 92.5t27.5 88.5q24 51 70 76.5t100 25.5q32 0 59 -7.5t55 -22.5q5 -2 12 -6.5t7 -5.5v-7l-35 -74h-3q-2 2 -5 4q-6 4 -9 7q-18 16 -36 23.5t-41 7.5q-36 0 -57 -21t-31.5 -51 t-13 -64t-2.5 -60q0 -25 2.5 -61.5t13 -70t32 -57t58.5 -23.5q20 0 37 6.5t34 17.5q2 1 11.5 7.5t11.5 8.5q4 3 7 3q1 0 2 -1q5 -19 17 -36t12 -37l-1 -3q-64 -47 -142 -47q-21 0 -41 3.5t-40 10.5zM320 -105q0 -80 -100 -80q-49 0 -94 28l18 31q31 -17 69 -17q45 0 45 35 q0 31 -24 31q-17 0 -35 -11l-29 12l17 87h44l-10 -57q14 9 39 9q60 0 60 -68z" />
<glyph unicode="&#xe8;" horiz-adv-x="520" d="M65 275q0 51 9.5 101.5t33 90.5t62.5 65t99 25q62 0 99 -24.5t56.5 -64.5t25 -91t5.5 -103q0 -5 -0.5 -14.5t-0.5 -11.5l-2 -6h-277q0 -30 2.5 -60.5t13 -55t32 -40t59.5 -15.5q15 0 33.5 4t35.5 9.5t29 12t13 11.5q-2 0 2.5 0t4.5 -5l21 -62q0 -14 -15 -21.5t-38 -16.5 l-3 -2q-3 -3 -14.5 -6t-25.5 -4.5t-28 -2.5t-22 -1q-62 0 -102.5 25t-64.5 66t-33.5 92.5t-9.5 104.5zM230 471q-19 -13 -30.5 -31t-17.5 -38t-8 -42.5t-2 -44.5h187q0 23 -2.5 52.5t-12.5 55.5t-29.5 43t-53.5 14q-2 0 -7 -1.5t-10.5 -3.5t-9.5 -3zM366 569h-77l-135 154 h126z" />
<glyph unicode="&#xe9;" horiz-adv-x="520" d="M65 275q0 51 9.5 101.5t33 90.5t62.5 65t99 25q62 0 99 -24.5t56.5 -64.5t25 -91t5.5 -103q0 -5 -0.5 -14.5t-0.5 -11.5l-2 -6h-277q0 -30 2.5 -60.5t13 -55t32 -40t59.5 -15.5q15 0 33.5 4t35.5 9.5t29 12t13 11.5q-2 0 2.5 0t4.5 -5l21 -62q0 -14 -15 -21.5t-38 -16.5 l-3 -2q-3 -3 -14.5 -6t-25.5 -4.5t-28 -2.5t-22 -1q-62 0 -102.5 25t-64.5 66t-33.5 92.5t-9.5 104.5zM230 471q-19 -13 -30.5 -31t-17.5 -38t-8 -42.5t-2 -44.5h187q0 23 -2.5 52.5t-12.5 55.5t-29.5 43t-53.5 14q-2 0 -7 -1.5t-10.5 -3.5t-9.5 -3zM366 723l-136 -154h-77 l87 154h126z" />
<glyph unicode="&#xea;" horiz-adv-x="520" d="M65 275q0 51 9.5 101.5t33 90.5t62.5 65t99 25q62 0 99 -24.5t56.5 -64.5t25 -91t5.5 -103q0 -5 -0.5 -14.5t-0.5 -11.5l-2 -6h-277q0 -30 2.5 -60.5t13 -55t32 -40t59.5 -15.5q15 0 33.5 4t35.5 9.5t29 12t13 11.5q-2 0 2.5 0t4.5 -5l21 -62q0 -14 -15 -21.5t-38 -16.5 l-3 -2q-3 -3 -14.5 -6t-25.5 -4.5t-28 -2.5t-22 -1q-62 0 -102.5 25t-64.5 66t-33.5 92.5t-9.5 104.5zM230 471q-19 -13 -30.5 -31t-17.5 -38t-8 -42.5t-2 -44.5h187q0 23 -2.5 52.5t-12.5 55.5t-29.5 43t-53.5 14q-2 0 -7 -1.5t-10.5 -3.5t-9.5 -3zM404 569h-73l-72 85 l-72 -85h-71l96 154h97z" />
<glyph unicode="&#xeb;" horiz-adv-x="520" d="M65 275q0 51 9.5 101.5t33 90.5t62.5 65t99 25q62 0 99 -24.5t56.5 -64.5t25 -91t5.5 -103q0 -5 -0.5 -14.5t-0.5 -11.5l-2 -6h-277q0 -30 2.5 -60.5t13 -55t32 -40t59.5 -15.5q15 0 33.5 4t35.5 9.5t29 12t13 11.5q-2 0 2.5 0t4.5 -5l21 -62q0 -14 -15 -21.5t-38 -16.5 l-3 -2q-3 -3 -14.5 -6t-25.5 -4.5t-28 -2.5t-22 -1q-62 0 -102.5 25t-64.5 66t-33.5 92.5t-9.5 104.5zM230 471q-19 -13 -30.5 -31t-17.5 -38t-8 -42.5t-2 -44.5h187q0 23 -2.5 52.5t-12.5 55.5t-29.5 43t-53.5 14q-2 0 -7 -1.5t-10.5 -3.5t-9.5 -3zM401 629 q0 -24 -17.5 -42t-40.5 -18q-24 0 -41.5 18t-17.5 42q0 25 17.5 42.5t41.5 17.5q23 0 40.5 -18t17.5 -42zM235 629q0 -24 -17.5 -42t-40.5 -18q-24 0 -41.5 18t-17.5 42q0 25 17.5 42.5t41.5 17.5q23 0 40.5 -18t17.5 -42z" />
<glyph unicode="&#xec;" horiz-adv-x="271" d="M185 547v-547h-100v547h100zM243 569h-77l-135 154h126z" />
<glyph unicode="&#xed;" horiz-adv-x="271" d="M185 547v-547h-100v547h100zM243 723l-136 -154h-77l87 154h126z" />
<glyph unicode="&#xee;" horiz-adv-x="271" d="M185 547v-547h-100v547h100zM281 569h-73l-72 85l-72 -85h-71l96 154h97z" />
<glyph unicode="&#xef;" horiz-adv-x="271" d="M185 547v-547h-100v547h100zM278 629q0 -24 -17.5 -42t-40.5 -18q-24 0 -41.5 18t-17.5 42q0 25 17.5 42.5t41.5 17.5q23 0 40.5 -18t17.5 -42zM112 629q0 -24 -17.5 -42t-40.5 -18q-24 0 -41.5 18t-17.5 42q0 25 17.5 42.5t41.5 17.5q23 0 40.5 -18t17.5 -42z" />
<glyph unicode="&#xf0;" horiz-adv-x="357" d="M96 664h68q23 -24 40 -46l66 46l14 -46l-54 -38q101 -166 101 -344q0 -115 -43.5 -181t-111.5 -66q-80 0 -124 87q-29 58 -29 158q0 119 40 183t101 64q19 0 33 -5.5t33 -21.5q-10 34 -18.5 52t-24.5 45l-87 -57l-15 47l77 49q-31 40 -66 74zM272 240q0 87 -28 132.5 t-69 45.5t-67.5 -45.5t-26.5 -140.5q0 -88 27 -132t68 -44q40 0 68 46.5t28 137.5z" />
<glyph unicode="&#xf1;" horiz-adv-x="541" d="M180 547q0 1 1 -4l2.5 -12.5t2.5 -15.5t1 -14q-1 -5 4.5 3.5t9.5 12.5q22 24 49 33t59 9q48 0 76.5 -18.5t43.5 -47t19.5 -63t4.5 -67.5v-363h-104v395q0 1 -1.5 7t-2.5 9q-8 30 -21.5 46t-45.5 16q-40 0 -61.5 -29t-22.5 -67l-5 -377h-101v547h92zM426 685 q0 -57 -24 -88.5t-64 -31.5q-37 0 -99 38q-19 11 -31 11q-28 0 -32 -45h-62q0 57 26 90q24 29 64 29q35 0 97 -38q19 -12 33 -12q25 0 31 47h61z" />
<glyph unicode="&#xf2;" horiz-adv-x="530" d="M102 79q-24 45 -31 94t-7 100q0 28 2.5 60t9.5 63t20 59t33 49q29 29 63.5 41.5t74.5 12.5q31 0 58 -6.5t53 -26.5q7 -5 12.5 -10.5t13.5 -10.5l30 -46l3 -2q0 -8 4.5 -21t10.5 -30t10.5 -36t4.5 -37v-116q0 -2 -1.5 -15.5t-3.5 -19.5q-7 -41 -21.5 -76t-38 -61t-57 -41 t-79.5 -15q-45 0 -79.5 15.5t-64.5 47.5q-4 5 -9.5 14t-10.5 14zM169 214q3 -22 7.5 -47t15 -46t28 -35t46.5 -14q36 0 56 22t29.5 53.5t11.5 66.5t2 60q0 24 -2 58.5t-11 66.5t-29 55t-56 23q-32 0 -51.5 -17.5t-30.5 -45t-15 -59.5t-4 -61.5t1.5 -51.5t1.5 -28zM371 569 h-77l-135 154h126z" />
<glyph unicode="&#xf3;" horiz-adv-x="530" d="M102 79q-24 45 -31 94t-7 100q0 28 2.5 60t9.5 63t20 59t33 49q29 29 63.5 41.5t74.5 12.5q31 0 58 -6.5t53 -26.5q7 -5 12.5 -10.5t13.5 -10.5l30 -46l3 -2q0 -8 4.5 -21t10.5 -30t10.5 -36t4.5 -37v-116q0 -2 -1.5 -15.5t-3.5 -19.5q-7 -41 -21.5 -76t-38 -61t-57 -41 t-79.5 -15q-45 0 -79.5 15.5t-64.5 47.5q-4 5 -9.5 14t-10.5 14zM169 214q3 -22 7.5 -47t15 -46t28 -35t46.5 -14q36 0 56 22t29.5 53.5t11.5 66.5t2 60q0 24 -2 58.5t-11 66.5t-29 55t-56 23q-32 0 -51.5 -17.5t-30.5 -45t-15 -59.5t-4 -61.5t1.5 -51.5t1.5 -28zM371 723 l-136 -154h-77l87 154h126z" />
<glyph unicode="&#xf4;" horiz-adv-x="530" d="M102 79q-24 45 -31 94t-7 100q0 28 2.5 60t9.5 63t20 59t33 49q29 29 63.5 41.5t74.5 12.5q31 0 58 -6.5t53 -26.5q7 -5 12.5 -10.5t13.5 -10.5l30 -46l3 -2q0 -8 4.5 -21t10.5 -30t10.5 -36t4.5 -37v-116q0 -2 -1.5 -15.5t-3.5 -19.5q-7 -41 -21.5 -76t-38 -61t-57 -41 t-79.5 -15q-45 0 -79.5 15.5t-64.5 47.5q-4 5 -9.5 14t-10.5 14zM169 214q3 -22 7.5 -47t15 -46t28 -35t46.5 -14q36 0 56 22t29.5 53.5t11.5 66.5t2 60q0 24 -2 58.5t-11 66.5t-29 55t-56 23q-32 0 -51.5 -17.5t-30.5 -45t-15 -59.5t-4 -61.5t1.5 -51.5t1.5 -28zM409 569 h-73l-72 85l-72 -85h-71l96 154h97z" />
<glyph unicode="&#xf5;" horiz-adv-x="530" d="M102 79q-24 45 -31 94t-7 100q0 28 2.5 60t9.5 63t20 59t33 49q29 29 63.5 41.5t74.5 12.5q31 0 58 -6.5t53 -26.5q7 -5 12.5 -10.5t13.5 -10.5l30 -46l3 -2q0 -8 4.5 -21t10.5 -30t10.5 -36t4.5 -37v-116q0 -2 -1.5 -15.5t-3.5 -19.5q-7 -41 -21.5 -76t-38 -61t-57 -41 t-79.5 -15q-45 0 -79.5 15.5t-64.5 47.5q-4 5 -9.5 14t-10.5 14zM169 214q3 -22 7.5 -47t15 -46t28 -35t46.5 -14q36 0 56 22t29.5 53.5t11.5 66.5t2 60q0 24 -2 58.5t-11 66.5t-29 55t-56 23q-32 0 -51.5 -17.5t-30.5 -45t-15 -59.5t-4 -61.5t1.5 -51.5t1.5 -28zM421 685 q0 -57 -24 -88.5t-64 -31.5q-37 0 -99 38q-19 11 -31 11q-28 0 -32 -45h-62q0 57 26 90q24 29 64 29q35 0 97 -38q19 -12 33 -12q25 0 31 47h61z" />
<glyph unicode="&#xf6;" horiz-adv-x="530" d="M102 79q-24 45 -31 94t-7 100q0 28 2.5 60t9.5 63t20 59t33 49q29 29 63.5 41.5t74.5 12.5q31 0 58 -6.5t53 -26.5q7 -5 12.5 -10.5t13.5 -10.5l30 -46l3 -2q0 -8 4.5 -21t10.5 -30t10.5 -36t4.5 -37v-116q0 -2 -1.5 -15.5t-3.5 -19.5q-7 -41 -21.5 -76t-38 -61t-57 -41 t-79.5 -15q-45 0 -79.5 15.5t-64.5 47.5q-4 5 -9.5 14t-10.5 14zM169 214q3 -22 7.5 -47t15 -46t28 -35t46.5 -14q36 0 56 22t29.5 53.5t11.5 66.5t2 60q0 24 -2 58.5t-11 66.5t-29 55t-56 23q-32 0 -51.5 -17.5t-30.5 -45t-15 -59.5t-4 -61.5t1.5 -51.5t1.5 -28zM406 629 q0 -24 -17.5 -42t-40.5 -18q-24 0 -41.5 18t-17.5 42q0 25 17.5 42.5t41.5 17.5q23 0 40.5 -18t17.5 -42zM240 629q0 -24 -17.5 -42t-40.5 -18q-24 0 -41.5 18t-17.5 42q0 25 17.5 42.5t41.5 17.5q23 0 40.5 -18t17.5 -42z" />
<glyph unicode="&#xf7;" horiz-adv-x="353" d="M144 417v94h64v-94h-64zM327 290h-303v76h303v-76zM144 145v92h64v-92h-64z" />
<glyph unicode="&#xf8;" horiz-adv-x="530" d="M102 79q-24 45 -31 94t-7 100q0 28 2.5 60t9.5 63t20 59t33 49q29 29 63.5 41.5t74.5 12.5q31 0 58 -6.5t53 -26.5q7 -5 12.5 -10.5t13.5 -10.5l30 -46l3 -2q0 -8 4.5 -21t10.5 -30t10.5 -36t4.5 -37v-116q0 -2 -1.5 -15.5t-3.5 -19.5q-7 -41 -21.5 -76t-38 -61t-57 -41 t-79.5 -15q-45 0 -79.5 15.5t-64.5 47.5q-4 5 -9.5 14t-10.5 14zM169 214q3 -22 7.5 -47t15 -46t28 -35t46.5 -14q36 0 56 22t29.5 53.5t11.5 66.5t2 60q0 24 -2 58.5t-11 66.5t-29 55t-56 23q-32 0 -51.5 -17.5t-30.5 -45t-15 -59.5t-4 -61.5t1.5 -51.5t1.5 -28z M345.443 548.42h88.2285l-258.738 -568.021h-83.2715z" />
<glyph unicode="&#xf9;" horiz-adv-x="524" d="M190 547v-389q0 -15 4 -30.5t12 -28t20.5 -20t29.5 -7.5q18 0 33.5 7t27 19t18.5 28t7 34l5 387h100v-547h-96q0 14 -2 27t-2 17h-3q-29 -35 -62 -46.5t-62 -11.5q-60 0 -96 38.5t-36 119.5v403h102zM368 569h-77l-135 154h126z" />
<glyph unicode="&#xfa;" horiz-adv-x="524" d="M190 547v-389q0 -15 4 -30.5t12 -28t20.5 -20t29.5 -7.5q18 0 33.5 7t27 19t18.5 28t7 34l5 387h100v-547h-96q0 14 -2 27t-2 17h-3q-29 -35 -62 -46.5t-62 -11.5q-60 0 -96 38.5t-36 119.5v403h102zM368 723l-136 -154h-77l87 154h126z" />
<glyph unicode="&#xfb;" horiz-adv-x="524" d="M190 547v-389q0 -15 4 -30.5t12 -28t20.5 -20t29.5 -7.5q18 0 33.5 7t27 19t18.5 28t7 34l5 387h100v-547h-96q0 14 -2 27t-2 17h-3q-29 -35 -62 -46.5t-62 -11.5q-60 0 -96 38.5t-36 119.5v403h102zM406 569h-73l-72 85l-72 -85h-71l96 154h97z" />
<glyph unicode="&#xfc;" horiz-adv-x="524" d="M190 547v-389q0 -15 4 -30.5t12 -28t20.5 -20t29.5 -7.5q18 0 33.5 7t27 19t18.5 28t7 34l5 387h100v-547h-96q0 14 -2 27t-2 17h-3q-29 -35 -62 -46.5t-62 -11.5q-60 0 -96 38.5t-36 119.5v403h102zM403 629q0 -24 -17.5 -42t-40.5 -18q-24 0 -41.5 18t-17.5 42 q0 25 17.5 42.5t41.5 17.5q23 0 40.5 -18t17.5 -42zM237 629q0 -24 -17.5 -42t-40.5 -18q-24 0 -41.5 18t-17.5 42q0 25 17.5 42.5t41.5 17.5q23 0 40.5 -18t17.5 -42z" />
<glyph unicode="&#xfd;" horiz-adv-x="457" d="M125 -124q13 0 22.5 14.5t16 32.5t9.5 34.5t3 21.5l-142 568h107l89 -449l90 449h103q0 -4 -1 -9.5t-5 -21t-11.5 -45t-20.5 -81t-32 -128.5t-46 -188q-2 -4 -4.5 -14.5t-2.5 -15.5q-3 -8 -8.5 -30t-11.5 -44.5t-10.5 -40l-4.5 -17.5q-10 -27 -21 -50t-26 -40t-37 -26.5 t-53 -9.5q-6 0 -16.5 0.5t-20.5 1t-17 1.5t-7 2v85h58zM335 723l-136 -154h-77l87 154h126z" />
<glyph unicode="&#xfe;" horiz-adv-x="357" d="M43 -185v849h56v-234q23 35 40 47q23 15 52 15q41 0 74 -32t49.5 -89.5t16.5 -126.5q0 -75 -18.5 -133t-53.5 -90t-72 -32q-27 0 -49 15q-16 12 -39 46v-235h-56zM93 238q0 -93 26.5 -137t63.5 -44t64 45.5t27 142.5q0 92 -26 137.5t-62 45.5q-38 0 -65.5 -48.5 t-27.5 -141.5z" />
<glyph unicode="&#xff;" horiz-adv-x="457" d="M125 -124q13 0 22.5 14.5t16 32.5t9.5 34.5t3 21.5l-142 568h107l89 -449l90 449h103q0 -4 -1 -9.5t-5 -21t-11.5 -45t-20.5 -81t-32 -128.5t-46 -188q-2 -4 -4.5 -14.5t-2.5 -15.5q-3 -8 -8.5 -30t-11.5 -44.5t-10.5 -40l-4.5 -17.5q-10 -27 -21 -50t-26 -40t-37 -26.5 t-53 -9.5q-6 0 -16.5 0.5t-20.5 1t-17 1.5t-7 2v85h58zM370 629q0 -24 -17.5 -42t-40.5 -18q-24 0 -41.5 18t-17.5 42q0 25 17.5 42.5t41.5 17.5q23 0 40.5 -18t17.5 -42zM204 629q0 -24 -17.5 -42t-40.5 -18q-24 0 -41.5 18t-17.5 42q0 25 17.5 42.5t41.5 17.5 q23 0 40.5 -18t17.5 -42z" />
<glyph unicode="&#x152;" horiz-adv-x="688" d="M657 0h-301v60q-45 -71 -117 -71q-99 0 -150 100q-47 90 -47 245t47 246q51 101 151 101q84 0 116 -75v64h289v-91h-216v-179h141v-90h-141v-219h228v-91zM345 334q0 106 -24 173q-28 80 -83 80q-102 0 -102 -251q0 -106 23 -173q27 -80 83 -80q103 0 103 251z" />
<glyph unicode="&#x153;" horiz-adv-x="679" d="M642 253q0 -23 -1 -33h-257q8 -142 93 -142q49 0 89 37l55 -59q-59 -67 -146 -67q-94 0 -132 82q-41 -82 -132 -82q-80 0 -126 65q-48 67 -48 195q0 129 47 198q46 66 130 66q89 0 128 -80q42 80 127 80q77 0 124 -64q49 -70 49 -196zM551 300q-2 57 -24 92t-60 35 q-71 0 -82 -127h166zM300 251q0 174 -87 174q-86 0 -86 -174q0 -173 87 -173q41 0 63.5 46.5t22.5 126.5z" />
<glyph unicode="&#x178;" horiz-adv-x="482" d="M192 249q-11 26 -24.5 59.5t-33 82t-45.5 116.5t-61 163h112l104 -305l105 305h105l-157 -412v-258h-105v249v0zM382 757q0 -24 -17.5 -42t-40.5 -18q-24 0 -41.5 18t-17.5 42q0 25 17.5 42.5t41.5 17.5q23 0 40.5 -18t17.5 -42zM216 757q0 -24 -17.5 -42t-40.5 -18 q-24 0 -41.5 18t-17.5 42q0 25 17.5 42.5t41.5 17.5q23 0 40.5 -18t17.5 -42z" />
<glyph unicode="&#x2c6;" d="M331 569h-73l-72 85l-72 -85h-71l96 154h97z" />
<glyph unicode="&#x2dc;" d="M346 685q0 -57 -24 -88.5t-64 -31.5q-37 0 -99 38q-19 11 -31 11q-28 0 -32 -45h-62q0 57 26 90q24 29 64 29q35 0 97 -38q19 -12 33 -12q25 0 31 47h61z" />
<glyph unicode="&#x2013;" horiz-adv-x="376" d="M343 305h-306v90h306v-90z" />
<glyph unicode="&#x2014;" horiz-adv-x="515" d="M478 305h-441v90h441v-90z" />
<glyph unicode="&#x2018;" horiz-adv-x="227" d="M169 670l-13 -229h-111l63 229h61z" />
<glyph unicode="&#x2019;" horiz-adv-x="227" d="M182 670l-63 -229h-61l12 229h112z" />
<glyph unicode="&#x201a;" horiz-adv-x="227" d="M182 121l-63 -229h-61l12 229h112z" />
<glyph unicode="&#x201c;" horiz-adv-x="428" d="M370 670l-12 -229h-112l63 229h61zM169 670l-13 -229h-111l63 229h61z" />
<glyph unicode="&#x201d;" horiz-adv-x="428" d="M383 670l-63 -229h-61l13 229h111zM182 670l-63 -229h-61l12 229h112z" />
<glyph unicode="&#x201e;" horiz-adv-x="428" d="M383 121l-63 -229h-61l13 229h111zM182 121l-63 -229h-61l12 229h112z" />
<glyph unicode="&#x2022;" d="M328 350q0 -60 -41 -101.5t-100 -41.5t-99.5 41.5t-40.5 101.5q0 61 40.5 103.5t99.5 42.5t100 -42.5t41 -103.5z" />
<glyph unicode="&#x2026;" horiz-adv-x="652" d="M610 57q0 -28 -19.5 -48t-47.5 -20t-47 20t-19 48q0 29 19 49t47 20t47.5 -20t19.5 -49zM392 57q0 -28 -19 -48t-47 -20t-47.5 20t-19.5 48q0 29 19.5 49t47.5 20t47 -20t19 -49zM175 57q0 -28 -19 -48t-47 -20t-47.5 20t-19.5 48q0 29 19.5 49t47.5 20t47 -20t19 -49z " />
<glyph unicode="&#x2039;" horiz-adv-x="279" d="M237 0h-92l-126 251l126 251h92l-122 -250z" />
<glyph unicode="&#x203a;" horiz-adv-x="279" d="M260 252l-126 -252h-92l122 251l-122 251h92z" />
<glyph unicode="&#x20ac;" horiz-adv-x="436" d="M297 601q-53 0 -89 -37q-21 -22 -39 -63q-17 -40 -21 -78h215l-10 -60h-209q-2 -10 -2 -18q0 -35 2 -42h201l-9 -60h-186q14 -104 63 -148q38 -32 79 -32q59 0 91 45v-93q-39 -26 -86 -26q-143 0 -192 170q-9 34 -16 84h-49l9 60h33q-1 19 -1 41v19h-41l9 60h36 q20 148 102 212q50 40 112 40q57 0 97 -36l-13 -85q-38 47 -86 47z" />
<glyph unicode="&#x2122;" horiz-adv-x="538" d="M505 294h-53v152q0 11 1 43v42q-6 -23 -26 -89l-48 -157l-48 157q-9 32 -25 85q0 -11 1 -41v-40v-152h-51v376h55l48 -157q9 -28 22 -78q5 27 21 80l47 155h56v-376zM206 615h-66v-321h-54v321h-68v55h188v-55z" />
<glyph unicode="&#x25fc;" horiz-adv-x="545" d="M0 545h545v-545h-545v545z" />
</font>
</defs>
</svg>
