<?xml version="1.0" standalone="no"?>
<!DOCTYPE svg PUBLIC "-//W3C//DTD SVG 1.1//EN" "http://www.w3.org/Graphics/SVG/1.1/DTD/svg11.dtd" >
<svg xmlns="http://www.w3.org/2000/svg">
<metadata></metadata>
<defs>
<font id="roadgeek_2005_mittelschriftRg" horiz-adv-x="925" >
<font-face units-per-em="2048" ascent="1638" descent="-410" />
<missing-glyph horiz-adv-x="462" />
<glyph horiz-adv-x="0" />
<glyph horiz-adv-x="682" />
<glyph horiz-adv-x="1028" d="M225 1401h97q14 -70 65 -107t125 -37q160 0 199 144h92q-14 -117 -91 -181.5t-200 -64.5q-61 0 -113.5 16.5t-90.5 48t-60.5 78t-22.5 103.5z" />
<glyph horiz-adv-x="1028" d="M430 1169v228h170v-228h-170z" />
<glyph horiz-adv-x="1028" d="M305 1298q0 43 17.5 82t47 68t66.5 45t78 16q43 0 82 -16t67.5 -46t46 -68t17.5 -81t-16.5 -80.5t-46 -67.5t-68.5 -46.5t-82 -16.5t-81 16.5t-66.5 46.5t-45 67.5t-16.5 80.5zM389 1298q0 -51 37 -87.5t88 -36.5q53 0 90 36.5t37 87.5q0 53 -37 90t-90 37 q-51 0 -88 -36.5t-37 -90.5z" />
<glyph unicode="&#xa;" horiz-adv-x="1028" d="M334 1126l141 281h168l-199 -281h-110zM629 1126l143 281h168l-199 -281h-112z" />
<glyph horiz-adv-x="1028" d="M358 -201q0 63 30 109.5t85 91.5h102q-51 -37 -82.5 -78t-31.5 -90q0 -43 38 -73.5t83 -30.5q53 0 96 14l2 -82q-59 -20 -129 -20q-35 0 -68.5 11t-61.5 31.5t-45.5 50t-17.5 66.5z" />
<glyph horiz-adv-x="1028" d="M219 1413h152l147 -194l144 194h149l-215 -280h-164z" />
<glyph unicode="&#xd;" horiz-adv-x="462" d="M135 0v975h197v-975h-197z" />
<glyph horiz-adv-x="272" d="M-295 0l750 1372h108l-747 -1372h-111z" />
<glyph horiz-adv-x="999" d="M61 825v150h99v129q0 137 75.5 201.5t190.5 64.5h127v-184h-113q-84 0 -84 -82v-129h197v-150h-197v-825h-196v825h-99zM672 0v975h197v-975h-197zM672 1174v196h197v-196h-197z" />
<glyph horiz-adv-x="1034" d="M61 825v150h99v129q0 137 75.5 201.5t190.5 64.5h127v-184h-113q-84 0 -84 -82v-129h197v-150h-197v-825h-196v825h-99zM666 236v1134h197v-1120q0 -68 73 -68h68v-182h-88q-106 0 -178 52.5t-72 183.5z" />
<glyph horiz-adv-x="1071" d="M14 218l357 507h117l-356 -507h-118zM147 0v1370h207v-1175h670v-195h-877z" />
<glyph horiz-adv-x="497" d="M-56 -12l461 1394h152l-461 -1394h-152zM129 236v1134h197v-1120q0 -68 73 -68h68v-182h-88q-106 0 -178 52.5t-72 183.5z" />
<glyph horiz-adv-x="999" d="M63 0v172l623 1014h-598v184h852v-156l-625 -1019h625v-195h-877zM207 1808h152l147 -194l144 194h149l-215 -280h-164z" />
<glyph horiz-adv-x="856" d="M66 0v154l489 647h-463v174h703v-156l-490 -637h490v-182h-729zM135 1413h152l147 -194l144 194h149l-215 -280h-164z" />
<glyph unicode=" "  horiz-adv-x="462" />
<glyph unicode="&#x09;" horiz-adv-x="462" />
<glyph unicode="&#xa0;" horiz-adv-x="462" />
<glyph unicode="!" horiz-adv-x="497" d="M127 1370h248l-76 -1032h-98zM152 0v195h196v-195h-196z" />
<glyph unicode="&#x22;" horiz-adv-x="563" d="M82 1030v340h145v-340h-145zM336 1030v340h145v-340h-145z" />
<glyph unicode="#" d="M8 418v127h191l43 278h-179v127h191l59 420h152l-59 -420h188l59 420h150l-60 -420h179v-127h-191l-43 -278h178v-127h-192l-60 -418h-149l59 418h-188l-60 -418h-151l59 418h-176zM348 545h191l41 278h-189z" />
<glyph unicode="$" d="M16 170l136 141q49 -55 109.5 -93t152.5 -46v430q-180 41 -257 139.5t-77 245.5q0 168 89 271.5t245 123.5v136h98v-136q174 -2 326 -129l-111 -147q-90 82 -215 90v-410q186 -37 270 -142t84 -255q0 -160 -98 -269.5t-256 -131.5v-207h-98v207q-109 -2 -215.5 50 t-182.5 132zM276 991q0 -68 29 -111.5t109 -70.5v387q-55 -6 -96.5 -56t-41.5 -149zM512 172q88 20 123 77.5t35 141.5q0 66 -33 118.5t-125 68.5v-406z" />
<glyph unicode="%" horiz-adv-x="999" d="M100 1061v131q0 98 55.5 144t125.5 46t126 -46t56 -144v-131q0 -100 -56.5 -146.5t-125.5 -46.5q-70 0 -125.5 46.5t-55.5 146.5zM115 0l649 1370h127l-649 -1370h-127zM211 1073q0 -94 70 -94q72 0 71 94v105q0 94 -71 94q-70 0 -70 -94v-105zM541 178v131 q0 98 55 144.5t127 46.5q70 0 125 -46t55 -145v-131q0 -100 -55 -145t-125 -45q-72 0 -127 45t-55 145zM651 190q0 -94 72 -94t72 94v105q0 94 -72 94t-72 -94v-105z" />
<glyph unicode="&#x26;" horiz-adv-x="1249" d="M78 408q0 123 67.5 229t194.5 172q-51 57 -83 123.5t-32 136.5q0 125 85 219t225 94q137 0 222 -94t85 -219q0 -199 -230 -305l293 -354q41 55 68.5 111.5t52.5 117.5l174 -68q-33 -76 -77 -156.5t-101 -140.5l231 -274h-231l-127 137q-88 -63 -181 -106t-204 -43 q-195 0 -313.5 127t-118.5 293zM250 410q0 -106 75.5 -178t180.5 -72q61 0 133.5 27.5t140.5 93.5l-331 397q-199 -106 -199 -268zM399 1077q0 -82 103 -176q94 37 131 81t37 95q0 53 -39 92t-96 39q-59 0 -97.5 -39t-38.5 -92z" />
<glyph unicode="'" horiz-adv-x="462" d="M135 1030v197l197 143v-340h-197z" />
<glyph unicode="(" horiz-adv-x="536" d="M117 586q0 199 76.5 406.5t228.5 377.5h78q-90 -182 -138.5 -377.5t-48.5 -406.5t48.5 -407t138.5 -378h-78q-152 170 -228.5 378t-76.5 407z" />
<glyph unicode=")" horiz-adv-x="536" d="M41 -199q84 182 134 378t50 407t-50 406.5t-134 377.5h76q154 -170 229.5 -378t75.5 -406q0 -199 -76 -407t-229 -378h-76z" />
<glyph unicode="*" horiz-adv-x="677" d="M72 987l159 98l-159 99l57 88l154 -88v186h116v-186l154 88l57 -88l-159 -99l159 -98l-57 -88l-154 88v-186h-116v186l-154 -88z" />
<glyph unicode="+" horiz-adv-x="1157" d="M92 410v151h414v412h149v-412h412v-151h-412v-410h-149v410h-414z" />
<glyph unicode="," horiz-adv-x="462" d="M135 -143v338h197v-195z" />
<glyph unicode="-" horiz-adv-x="784" d="M104 434v197h580v-197h-580z" />
<glyph unicode="." horiz-adv-x="462" d="M135 0v195h197v-195h-197z" />
<glyph unicode="/" horiz-adv-x="641" d="M16 -12l461 1394h152l-461 -1394h-152z" />
<glyph unicode="0" d="M76 381v606q0 188 117.5 291.5t271.5 103.5q150 0 269.5 -103t119.5 -292v-606q0 -188 -120 -290.5t-269 -102.5q-154 0 -271.5 102.5t-117.5 290.5zM272 393q0 -100 51.5 -155.5t141.5 -55.5q86 0 139 55.5t53 155.5v582q0 100 -53 155.5t-139 55.5q-90 0 -141.5 -55.5 t-51.5 -155.5v-582z" />
<glyph unicode="1" horiz-adv-x="649" d="M127 1020v207l197 143h198v-1374h-198v1165z" />
<glyph unicode="2" d="M63 0v182l537 672q31 41 40 74t9 63q0 70 -51 132.5t-137 62.5q-82 0 -138.5 -53.5t-62.5 -145.5h-197q0 168 113 281.5t268 113.5q172 0 286 -114.5t114 -278.5q0 -139 -80 -241l-442 -553h522v-195h-781z" />
<glyph unicode="3" d="M27 340h196q27 -70 74 -114t131 -44q80 0 144.5 58.5t64.5 160.5t-63.5 159.5t-149.5 57.5h-82v175h66q98 0 155.5 54t57.5 140q0 84 -59.5 141.5t-141.5 57.5q-61 0 -117.5 -42t-71.5 -124h-196q10 143 120.5 252.5t256.5 109.5q184 0 294.5 -120.5t110.5 -270.5 q0 -80 -30.5 -153.5t-116.5 -130.5q88 -55 126 -136.5t38 -162.5q0 -193 -121 -306.5t-297 -113.5q-137 0 -250 90t-139 262z" />
<glyph unicode="4" d="M25 203v184l458 983h219l-462 -983h358v395h197v-395h108v-184h-108v-203h-197v203h-573z" />
<glyph unicode="5" d="M74 344h196q35 -162 197 -162q141 0 166.5 99.5t25.5 195.5q0 115 -38.5 189.5t-159.5 74.5q-115 0 -178 -112h-185v741h731v-196h-546v-310q94 74 221 74q76 0 140.5 -29.5t103.5 -70.5q55 -61 81.5 -132t26.5 -243q0 -139 -20.5 -206t-65.5 -124q-41 -51 -118 -98 t-179 -47q-131 0 -255 82t-144 274z" />
<glyph unicode="6" horiz-adv-x="935" d="M78 401q0 126 51 230l369 737h219l-289 -580h4q43 16 105 17q129 0 229 -90q100 -92 100 -293q0 -238 -129 -340q-125 -98 -278 -98q-145 0 -264 110q-117 111 -117 307zM274 406q0 -225 197 -226q68 0 133 51q63 49 64 175q0 115 -60 169q-55 56 -137 56q-84 0 -141 -56 q-55 -57 -56 -169z" />
<glyph unicode="7" d="M100 975v395h781v-196l-465 -1174h-219l465 1174h-365v-199h-197z" />
<glyph unicode="8" d="M47 399q0 201 162 308q-61 57 -99 122.5t-38 155.5q0 166 112.5 281.5t280.5 115.5q166 0 279.5 -115.5t113.5 -281.5q0 -90 -39 -155.5t-98 -122.5q162 -106 162 -308q0 -184 -124 -297.5t-294 -113.5q-172 0 -295 113.5t-123 297.5zM244 401q0 -94 65.5 -156.5 t155.5 -62.5q86 0 153.5 62.5t67.5 156.5t-67.5 155.5t-153.5 61.5q-90 0 -155.5 -61.5t-65.5 -155.5zM268 989q0 -96 60.5 -146t136.5 -50q74 0 135.5 50t61.5 146t-61.5 146.5t-135.5 50.5q-76 0 -136.5 -50.5t-60.5 -146.5z" />
<glyph unicode="9" horiz-adv-x="935" d="M78 940q0 236 123 338q127 102 280 102q143 0 264 -112q121 -113 121 -305q0 -128 -55 -230l-369 -739h-219l289 579h-4q-45 -16 -102 -16q-131 0 -230 90q-98 90 -98 293zM274 958q0 -119 56 -172q57 -53 141 -53q82 0 137 53q59 53 60 172q0 225 -197 226 q-70 0 -133 -54q-63 -51 -64 -172z" />
<glyph unicode=":" horiz-adv-x="462" d="M135 0v195h197v-195h-197zM135 436v197h197v-197h-197z" />
<glyph unicode=";" horiz-adv-x="462" d="M135 -143v338h197v-195zM135 436v197h197v-197h-197z" />
<glyph unicode="&#x3c;" horiz-adv-x="1177" d="M90 436v135l975 435v-162l-799 -338l799 -344v-162z" />
<glyph unicode="=" horiz-adv-x="1157" d="M92 217v152h975v-152h-975zM92 604v150h975v-150h-975z" />
<glyph unicode="&#x3e;" horiz-adv-x="1140" d="M90 0v162l803 344l-803 338v162l975 -435v-135z" />
<glyph unicode="?" horiz-adv-x="892" d="M57 975v39q0 154 109.5 261t255.5 107q143 0 258 -100t115 -270q0 -117 -62 -203l-176 -240q-33 -45 -33 -123v-108h-196v125q0 57 8 99t41 85l172 240q49 66 49 127q0 80 -55.5 126t-110.5 46q-74 0 -126 -47t-52 -164h-197zM328 0v195h196v-195h-196z" />
<glyph unicode="@" horiz-adv-x="1542" d="M76 692q0 305 205.5 497.5t515.5 192.5q274 0 473.5 -161.5t199.5 -415.5q0 -242 -158.5 -390.5t-281.5 -148.5q-133 0 -153 123h-5q-39 -45 -91 -84t-150 -39q-123 0 -199 87t-76 206q0 190 126 359t335 169q154 0 217 -151h4l23 98h129l-156 -497q-18 -59 -18 -99 q0 -57 45 -57q80 0 170 138t90 278q0 188 -144.5 311t-373.5 123q-272 0 -425 -163t-153 -380q0 -233 159 -392t431 -159q172 0 288 46t197 132h127q-98 -156 -265 -241.5t-369 -85.5q-309 0 -513 196.5t-204 507.5zM506 571q0 -78 47 -128t119 -50q127 0 214 141.5 t87 253.5q0 66 -44 119.5t-112 53.5q-137 0 -224 -134.5t-87 -255.5z" />
<glyph unicode="A" horiz-adv-x="1200" d="M2 0l502 1372h170l500 -1372h-218l-106 311h-520l-109 -311h-219zM391 494h397q-43 127 -67.5 198.5t-43 126.5t-37.5 113.5t-50 154.5q-33 -100 -52.5 -160.5t-38 -117.5t-42 -126.5t-66.5 -188.5z" />
<glyph unicode="B" horiz-adv-x="1175" d="M147 0v1370h531q201 0 303 -103.5t102 -265.5q0 -84 -41 -161.5t-159 -132.5v-5q113 -25 168 -117.5t55 -197.5q0 -176 -113.5 -281.5t-267.5 -105.5h-578zM354 195h320q117 0 171 62t54 144q0 80 -54 142.5t-171 62.5h-320v-411zM354 793h301q113 0 167.5 57t54.5 139 q0 78 -54.5 137.5t-167.5 59.5h-301v-393z" />
<glyph unicode="C" horiz-adv-x="1071" d="M100 684q0 248 12.5 319.5t47.5 131.5q49 90 158.5 168.5t271.5 78.5q195 0 321.5 -119.5t159.5 -287.5h-219q-25 80 -94.5 139.5t-167.5 59.5q-74 0 -128 -30t-85 -71q-39 -51 -53.5 -114.5t-14.5 -274.5t14.5 -274.5t53.5 -114.5q31 -41 85 -70.5t128 -29.5 q174 0 262 186h219q-41 -190 -173 -291.5t-308 -101.5q-162 0 -271.5 77.5t-158.5 167.5q-35 59 -47.5 132t-12.5 319z" />
<glyph unicode="D" horiz-adv-x="1214" d="M147 0v1370h480q281 0 417 -231q49 -86 61.5 -163t12.5 -292q0 -231 -16.5 -309t-61.5 -150q-61 -96 -167.5 -160.5t-260.5 -64.5h-465zM354 195h250q170 0 254 118q33 53 42 112.5t9 250.5q0 186 -10 255.5t-51 127.5q-84 115 -244 115h-250v-979z" />
<glyph unicode="E" horiz-adv-x="1071" d="M147 0v1370h877v-196h-670v-392h570v-184h-570v-403h670v-195h-877z" />
<glyph unicode="F" horiz-adv-x="1034" d="M147 0v1370h877v-196h-670v-406h570v-184h-570v-584h-207z" />
<glyph unicode="G" horiz-adv-x="1175" d="M100 684q0 248 12.5 319.5t47.5 131.5q49 90 158.5 168.5t271.5 78.5q195 0 321.5 -119.5t159.5 -287.5h-219q-25 80 -94.5 139.5t-167.5 59.5q-74 0 -128 -30t-85 -71q-39 -51 -53.5 -114.5t-14.5 -274.5t14.5 -274.5t53.5 -114.5q31 -41 85 -70.5t128 -29.5 q117 0 198.5 80.5t81.5 209.5v72h-278v197h487v-281q0 -203 -142 -344t-347 -141q-162 0 -271.5 77.5t-158.5 167.5q-35 59 -47.5 132t-12.5 319z" />
<glyph unicode="H" horiz-adv-x="1249" d="M147 0v1370h207v-588h545v588h207v-1370h-207v598h-545v-598h-207z" />
<glyph unicode="I" horiz-adv-x="497" d="M147 0v1370h207v-1370h-207z" />
<glyph unicode="J" horiz-adv-x="927" d="M4 166l168 121q63 -92 182 -92q78 0 158 55t80 194v926h209v-946q0 -207 -137.5 -321.5t-303.5 -114.5q-119 0 -209 49t-147 129z" />
<glyph unicode="K" horiz-adv-x="1214" d="M147 0v1370h207v-706h4l566 706h245l-438 -541l486 -829h-248l-373 670l-242 -254v-416h-207z" />
<glyph unicode="L" horiz-adv-x="1071" d="M147 0v1370h207v-1175h670v-195h-877z" />
<glyph unicode="M" horiz-adv-x="1460" d="M147 0v1370h197l391 -895l387 895h197v-1370h-209v854h-4l-287 -659h-174l-287 659h-4v-854h-207z" />
<glyph unicode="N" horiz-adv-x="1318" d="M147 0v1370h197l621 -975v975h211v-1370h-197l-621 973h-4v-973h-207z" />
<glyph unicode="O" horiz-adv-x="1175" d="M100 684q0 248 12.5 319.5t47.5 131.5q49 90 158.5 168.5t271.5 78.5q160 0 269.5 -78.5t160.5 -168.5q33 -59 46 -131t13 -320q0 -246 -13 -318.5t-46 -132.5q-51 -90 -160.5 -167.5t-269.5 -77.5q-162 0 -271.5 77.5t-158.5 167.5q-35 59 -47.5 132t-12.5 319zM309 684 q0 -211 14.5 -274.5t53.5 -114.5q31 -41 85 -70.5t128 -29.5t126 29.5t85 70.5q41 51 55 114.5t14 274.5t-14 274.5t-55 114.5q-33 41 -85 71t-126 30t-128 -30t-85 -71q-39 -51 -53.5 -114.5t-14.5 -274.5z" />
<glyph unicode="P" horiz-adv-x="1142" d="M147 0v1370h496q80 0 153.5 -17.5t155.5 -78.5q61 -49 104.5 -132t43.5 -196q0 -145 -109.5 -278t-320.5 -133h-316v-535h-207zM354 731h310q115 0 172 69.5t57 151.5q0 125 -90 183q-57 39 -148 39h-301v-443z" />
<glyph unicode="Q" horiz-adv-x="1175" d="M100 684q0 248 12.5 319.5t47.5 131.5q49 90 158.5 168.5t271.5 78.5q160 0 269.5 -78.5t160.5 -168.5q33 -59 46 -131t13 -320q0 -223 -11 -299t-38 -131l180 -143l-125 -144l-172 139q-61 -53 -142 -85.5t-181 -32.5q-162 0 -271.5 77.5t-158.5 167.5q-35 59 -47.5 132 t-12.5 319zM309 684q0 -211 14.5 -274.5t53.5 -114.5q31 -41 85 -70.5t128 -29.5q87 0 153 49l-174 137l123 143l160 -127q18 66 18 287q0 211 -14 274.5t-55 114.5q-33 41 -85 71t-126 30t-128 -30t-85 -71q-39 -51 -53.5 -114.5t-14.5 -274.5z" />
<glyph unicode="R" horiz-adv-x="1175" d="M147 0v1370h535q176 0 281 -90q55 -51 95 -126t40 -167q0 -133 -71 -235.5t-193 -145.5l317 -606h-248l-282 584h-267v-584h-207zM354 768h316q115 0 173 65.5t58 153.5q0 104 -67 156q-61 43 -154 43h-326v-418z" />
<glyph unicode="S" horiz-adv-x="1105" d="M27 176l137 156q78 -61 177 -99t212 -38q127 0 199.5 53t72.5 137q0 162 -180 186q-45 4 -86 10.5t-94 14.5q-180 25 -272.5 131.5t-92.5 253.5q0 176 117 288.5t330 112.5q127 0 239.5 -41t206.5 -102l-116 -172q-76 49 -162 78t-176 29q-98 0 -164 -49.5t-66 -147.5 q0 -57 45 -108.5t150 -67.5q27 -2 64.5 -8.5t88.5 -12.5q190 -23 282.5 -138.5t92.5 -256.5q0 -188 -131 -292.5t-350 -104.5q-309 0 -524 188z" />
<glyph unicode="T" horiz-adv-x="964" d="M4 1186v184h961v-184h-377v-1186h-209v1186h-375z" />
<glyph unicode="U" horiz-adv-x="1214" d="M121 463v907h209v-885q0 -141 79.5 -215.5t198.5 -74.5t200 74.5t81 215.5v885h207v-907q0 -215 -142.5 -345t-345.5 -130t-345 130t-142 345z" />
<glyph unicode="V" horiz-adv-x="1071" d="M4 1370h219l314 -1044h2l313 1044h219l-453 -1370h-161z" />
<glyph unicode="W" horiz-adv-x="1603" d="M23 1370h221l215 -975h4l266 975h150l266 -975h4l215 975h221l-344 -1370h-174l-264 987h-2l-262 -987h-172z" />
<glyph unicode="X" horiz-adv-x="1032" d="M-16 0l419 702l-393 668h236l272 -475l275 475h235l-393 -668l420 -702h-236l-301 508l-301 -508h-233z" />
<glyph unicode="Y" horiz-adv-x="964" d="M-27 1370h220l290 -608l291 608h221l-413 -807v-563h-197v563z" />
<glyph unicode="Z" horiz-adv-x="999" d="M63 0v172l623 1014h-598v184h852v-156l-625 -1019h625v-195h-877z" />
<glyph unicode="[" horiz-adv-x="536" d="M141 -199v1569h357v-127h-185v-1315h185v-127h-357z" />
<glyph unicode="\" horiz-adv-x="663" d="M41 1382h143l449 -1398h-148z" />
<glyph unicode="]" horiz-adv-x="536" d="M43 -72h182v1315h-182v127h356v-1569h-356v127z" />
<glyph unicode="^" horiz-adv-x="1044" d="M59 541l408 829h123l407 -829h-159l-310 667l-311 -667h-158z" />
<glyph unicode="_" horiz-adv-x="964" d="M0 -127h965v-96h-965v96z" />
<glyph unicode="`" horiz-adv-x="473" d="M27 1382h252l170 -282h-156z" />
<glyph unicode="a" d="M74 281q0 125 78 206q78 84 229 84h264v105q2 125 -182 125h-12q-68 0 -111 -15q-45 -18 -68 -61l-151 119q108 143 308 143h11h10q173 0 279 -69q104 -76 107 -252v-670h-191v86h-4q-27 -51 -80 -74q-55 -24 -146 -24h-7q-162 4 -244 88q-90 82 -90 209zM295 207 q43 -39 137 -39h14q110 0 156 31q43 30 43 141v70h-227q-166 -4 -166 -116q0 -50 43 -87z" />
<glyph unicode="b" horiz-adv-x="999" d="M129 0v1370h197v-500q53 53 114.5 85t137.5 32q90 0 155.5 -36t106.5 -91q41 -53 55 -122.5t14 -250.5q0 -178 -14 -249.5t-55 -122.5q-41 -57 -106.5 -92t-155.5 -35q-150 0 -252 112v-100h-197zM326 487q0 -106 26.5 -205.5t165.5 -99.5t167 96.5t28 208.5 q0 115 -28 209.5t-167 94.5t-165.5 -98.5t-26.5 -205.5z" />
<glyph unicode="c" horiz-adv-x="856" d="M53 485q0 270 137.5 386t307.5 116q109 0 197.5 -48t152.5 -122l-146 -129q-82 102 -196 103q-256 0 -256 -306q0 -303 256 -303q114 1 196 103l146 -129q-63 -74 -152.5 -121t-197.5 -47q-170 0 -307.5 114.5t-137.5 382.5z" />
<glyph unicode="d" horiz-adv-x="999" d="M129 487q0 180 14.5 250t55.5 123q43 55 107.5 91t154.5 36q76 0 136 -31.5t116 -85.5v500h196v-1370h-196v100q-103 -112 -249 -112h-3q-90 0 -154.5 34.5t-107.5 92.5q-41 51 -55.5 122.5t-14.5 249.5zM326 487q0 -113 27.5 -209t166.5 -96q137 0 165 99.5t28 205.5 t-28 205t-165 99q-139 0 -166.5 -94.5t-27.5 -209.5z" />
<glyph unicode="e" horiz-adv-x="964" d="M82 483q0 285 130 394.5t271 109.5q160 0 281 -111.5t121 -302.5v-161h-606q0 -119 64.5 -179.5t166.5 -60.5q123 0 215 94l141 -121q-72 -86 -163 -121.5t-189 -35.5q-152 0 -292 97t-140 398zM279 573h411q-6 111 -62.5 169.5t-144.5 58.5q-86 0 -144 -58.5t-60 -169.5 z" />
<glyph unicode="f" horiz-adv-x="536" d="M61 825v150h99v129q0 137 75.5 201.5t190.5 64.5h127v-184h-113q-84 0 -84 -82v-129h197v-150h-197v-825h-196v825h-99z" />
<glyph unicode="g" horiz-adv-x="999" d="M94 485q0 205 15.5 265.5t58.5 115.5q33 43 97.5 82t160.5 39q143 0 252 -117v105h196v-955q0 -219 -129 -323.5t-294 -104.5q-94 0 -184.5 45.5t-153.5 118.5l151 123q35 -37 85 -63.5t106 -26.5q98 0 160.5 54.5t62.5 156.5v100q-103 -112 -249 -112h-3 q-96 0 -160.5 37.5t-97.5 80.5q-43 53 -58.5 115t-15.5 264zM291 485q0 -117 6 -155.5t33 -71.5q18 -25 57 -50.5t98 -25.5q57 0 95 25.5t59 50.5q27 33 33 72t6 155q0 119 -6 158t-33 72q-20 25 -58 50.5t-96 25.5q-59 0 -98 -26t-57 -50q-27 -33 -33 -72t-6 -158z" />
<glyph unicode="h" horiz-adv-x="1034" d="M129 0v1370h197v-500h4q90 117 254 117q115 0 220 -87t105 -253v-647h-196v580q0 100 -55.5 155.5t-137.5 55.5q-84 0 -139 -55.5t-55 -155.5v-580h-197z" />
<glyph unicode="i" horiz-adv-x="462" d="M135 0v975h197v-975h-197zM135 1174v196h197v-196h-197z" />
<glyph unicode="j" horiz-adv-x="497" d="M-12 -211h57q109 1 109 105v1081h196v-1096q0 -125 -81 -200.5t-203 -75.5h-78v186zM154 1174v196h196v-196h-196z" />
<glyph unicode="k" horiz-adv-x="999" d="M129 0v1370h197v-854h4l375 459h235l-336 -381l383 -594h-248l-260 455l-153 -176v-279h-197z" />
<glyph unicode="l" horiz-adv-x="497" d="M129 236v1134h197v-1120q0 -68 73 -68h68v-182h-88q-106 0 -178 52.5t-72 183.5z" />
<glyph unicode="m" horiz-adv-x="1642" d="M141 0v975h197v-105h4q92 117 254 117q102 0 161.5 -37t112.5 -90q117 127 310 127q113 0 219 -87t106 -253v-647h-196v580q0 100 -56.5 155.5t-136.5 55.5q-86 0 -140 -55.5t-54 -155.5v-580h-197v580q0 100 -56.5 155.5t-136.5 55.5q-86 0 -140 -55.5t-54 -155.5v-580 h-197z" />
<glyph unicode="n" horiz-adv-x="1034" d="M129 0v975h197v-105h4q90 117 254 117q115 0 220 -87t105 -253v-647h-196v580q0 100 -55.5 155.5t-137.5 55.5q-84 0 -139 -55.5t-55 -155.5v-580h-197z" />
<glyph unicode="o" horiz-adv-x="964" d="M82 487q0 158 23.5 236t80.5 139q41 43 112 84t185 41q115 0 185.5 -41t111.5 -84q55 -61 80 -139t25 -236q0 -160 -24.5 -236.5t-80.5 -137.5q-41 -45 -111.5 -85t-185.5 -40t-185.5 40t-111.5 85q-57 61 -80.5 137.5t-23.5 236.5zM279 487q0 -106 9 -150t38 -83 q49 -72 157 -72q106 0 158 72q29 39 39 82t10 149q0 109 -10 152t-39 82q-51 72 -158 72q-109 0 -157 -72q-29 -39 -38 -82t-9 -150z" />
<glyph unicode="p" horiz-adv-x="999" d="M129 -397v1372h197v-103q102 115 252 115q90 0 155.5 -36t106.5 -91q41 -53 55 -122.5t14 -252.5q0 -178 -14 -248.5t-55 -121.5q-41 -57 -106.5 -92t-155.5 -35q-76 0 -137.5 30.5t-114.5 83.5v-499h-197zM326 485q0 -106 26.5 -204.5t165.5 -98.5t167 96.5t28 206.5 q0 115 -28 210.5t-167 95.5t-165.5 -98.5t-26.5 -207.5z" />
<glyph unicode="q" horiz-adv-x="999" d="M94 485q0 182 13.5 252t56.5 123q41 55 106.5 91t155.5 36q147 0 252 -115v103h196v-1372h-196v499q-118 -114 -250 -114h-2q-90 0 -155.5 34.5t-106.5 92.5q-43 51 -56.5 121.5t-13.5 248.5zM291 485q0 -111 27.5 -207t166.5 -96q137 0 165 98.5t28 204.5 q0 109 -27.5 207.5t-165.5 98.5q-139 0 -166.5 -95.5t-27.5 -210.5z" />
<glyph unicode="r" horiz-adv-x="749" d="M129 0v975h197v-105h4q90 117 254 117q106 0 204 -76l-143 -170q-63 49 -129 50q-74 0 -132 -48.5t-58 -156.5v-586h-197z" />
<glyph unicode="s" d="M20 162l138 135q127 -125 309 -125q82 0 137 32t55 93q0 86 -120 96l-172 15q-121 10 -202 81.5t-81 196.5q0 147 104.5 224t260.5 77q127 0 219 -36t166 -97l-123 -143q-59 41 -121 65.5t-141 24.5q-94 0 -131 -33t-37 -84q0 -33 27.5 -59.5t101.5 -32.5l161 -12 q152 -8 218.5 -92.5t66.5 -200.5q0 -141 -117.5 -220t-287.5 -79q-245 0 -431 174z" />
<glyph unicode="t" horiz-adv-x="536" d="M43 825v150h98v297h197v-297h141v-150h-141v-569q0 -74 70 -74h71v-182h-102q-100 0 -168 61.5t-68 178.5v585h-98z" />
<glyph unicode="u" horiz-adv-x="1034" d="M129 326v649h197v-582q0 -100 55 -155.5t139 -55.5q82 0 137.5 55.5t55.5 155.5v582h196v-975h-196v102h-4q-91 -114 -249 -114h-3q-115 0 -221.5 86t-106.5 252z" />
<glyph unicode="v" horiz-adv-x="856" d="M-10 975h209l229 -684h4l230 684h206l-358 -975h-162z" />
<glyph unicode="w" horiz-adv-x="1390" d="M6 975h207l188 -684h5l221 684h141l223 -684h4l187 684h207l-312 -975h-174l-203 682h-4l-204 -682h-175z" />
<glyph unicode="x" d="M20 0l334 498l-319 477h235l195 -316l194 316h236l-322 -477l334 -498h-235l-207 324l-209 -324h-236z" />
<glyph unicode="y" horiz-adv-x="856" d="M-12 975h209l231 -684h4l232 684h206l-419 -1178q-43 -113 -115 -153.5t-160 -40.5h-65v186h57q88 0 117 86l55 162z" />
<glyph unicode="z" horiz-adv-x="856" d="M66 0v154l489 647h-463v174h703v-156l-490 -637h490v-182h-729z" />
<glyph unicode="{" horiz-adv-x="565" d="M49 522v125q39 0 66 23q31 14 45 49q39 68 39 162v276q0 100 55 158q51 55 125 55h160v-125h-93q-43 -2 -63 -49q-18 -47 -18 -113v-249q0 -63 -19 -107q-16 -45 -43 -76q-57 -57 -90 -63v-4q14 -4 41 -17q27 -16 49 -45q27 -29 43 -76q18 -49 19 -112v-250 q0 -63 18 -104q18 -51 63 -56h93v-125h-160q-74 2 -125 58q-55 59 -55 155v273q0 100 -39 166q-37 67 -111 71z" />
<glyph unicode="|" horiz-adv-x="313" d="M82 -16v1398h145v-1398h-145z" />
<glyph unicode="}" horiz-adv-x="313" d="M25 -76h92q43 4 63 56q20 43 21 104v252q0 63 18 108q18 47 43 78q53 55 82 62v4q-18 10 -33 16q-25 14 -49 43q-27 31 -43 76q-18 45 -18 113v247q0 66 -21 113q-20 47 -65 49h-90v125h157q78 0 133 -55q49 -57 52 -158v-274q0 -96 41 -162q33 -68 104 -74l6 -125 q-74 -4 -110 -69q-41 -66 -41 -164v-277q-2 -94 -52 -155q-53 -55 -131 -58h-159v125z" />
<glyph unicode="~" horiz-adv-x="964" d="M57 457q29 63 88 114q55 51 146 54q51 0 104 -21q49 -18 105 -43q43 -23 102 -47q49 -25 88 -25q55 2 96 48q37 39 68 94l68 -123q-31 -66 -84 -111q-53 -53 -150 -53q-49 0 -98 18q-61 25 -111 44q-45 23 -100 45q-49 23 -90 24q-53 -2 -92 -41q-47 -55 -72 -96z" />
<glyph unicode="&#xa1;" horiz-adv-x="346" d="M49 -401l74 1036h94l72 -1036h-240zM76 778v195h190v-195h-190z" />
<glyph unicode="&#xa2;" horiz-adv-x="880" d="M70 483q0 252 120 373q113 119 271 131v174h74v-174q201 -31 303 -172l-138 -129q-59 78 -165 105v-611q106 25 165 101l138 -127q-102 -139 -303 -170v-177h-74v177q-158 12 -271 131q-121 121 -120 368zM258 483q2 -280 203 -303v611q-201 -23 -203 -308z" />
<glyph unicode="&#xa3;" horiz-adv-x="962" d="M74 573v129h106q-70 154 -67 291q0 182 100 287q98 100 256 102q193 -2 287 -110q90 -111 90 -285h-189q-14 209 -176 209q-176 -4 -178 -207q0 -158 68 -287h315v-129h-268q33 -92 35 -167q-2 -106 -58 -209q55 -6 107 -15q59 -14 106 -14q43 0 94 16q47 12 95 49 l121 -151q-63 -55 -142 -78q-78 -20 -137 -20q-68 4 -180 18q-119 16 -193 18q-78 0 -168 -36v184q66 37 144 39q29 84 32 166q0 37 -14 96q-8 25 -15 51.5t-18 52.5h-153z" />
<glyph unicode="&#xa4;" horiz-adv-x="937" d="M51 348l94 94q-70 88 -71 240q2 152 71 242l-94 92l101 100l92 -94q82 70 231 74q139 -2 230 -70l94 90l96 -100l-94 -94q74 -90 76 -240q-2 -152 -74 -240l92 -94l-96 -102l-94 98q-88 -76 -230 -76q-70 0 -129 21q-66 23 -102 55l-92 -98zM217 682q0 -127 72 -201 q72 -76 186 -75q119 0 189 75q70 74 69 201q-8 270 -258 279q-252 -7 -258 -279z" />
<glyph unicode="&#xa5;" horiz-adv-x="1056" d="M55 1370h203l272 -610l273 610h203l-299 -631h194v-127h-256l-24 -51v-129h280v-127h-280v-309h-181v309h-280v127h280v129l-24 51h-256v127h196z" />
<glyph unicode="&#xa6;" horiz-adv-x="313" d="M82 -16v522h145v-522h-145zM82 860v522h145v-522h-145z" />
<glyph unicode="&#xa7;" horiz-adv-x="821" d="M51 514q-2 127 35 203t156 123q-133 78 -127 229q0 137 88 225q84 84 211 86q133 0 221 -80q88 -84 90 -253h-166q0 74 -37 116q-37 43 -108 43q-70 -4 -101 -41q-33 -37 -32 -82q0 -61 43 -88q47 -37 149 -69q158 -43 232 -123q76 -78 75 -264q2 -117 -28 -187 q-37 -74 -154 -133q86 -37 119 -100q31 -68 31 -148q-4 -160 -101 -252q-96 -92 -241 -94q-127 2 -222 96q-94 92 -96 256h168q8 -74 49 -118q39 -47 115 -49q66 0 106 40q41 37 41 109q2 72 -32 107q-39 33 -158 67l-68 27q-156 51 -207 131q-53 78 -51 223zM242 530 q0 -102 34 -151q12 -25 54 -47q33 -21 86 -21q109 2 143 68q33 51 31 151q0 72 -8 101q-10 35 -31 57q-18 27 -51 43q-35 16 -84 17q-96 -6 -135 -60q-23 -25 -31 -57q-8 -37 -8 -101z" />
<glyph unicode="&#xa8;" horiz-adv-x="1218" d="M336 1192v207h207v-207h-207zM674 1192v207h209v-207h-209z" />
<glyph unicode="&#xa9;" horiz-adv-x="1521" d="M94 682q4 297 201 498q188 199 477 202q289 -4 481 -202q193 -199 197 -498q-4 -299 -197 -492q-193 -203 -481 -206q-291 4 -477 206q-197 193 -201 492zM242 682q0 -246 151 -401q145 -160 379 -160q233 0 383 160q147 156 150 401q-2 252 -150 405q-150 156 -383 158 q-233 -2 -379 -158q-151 -153 -151 -405zM395 682q0 203 107 322q102 123 297 124q135 0 231 -77q94 -76 111 -238h-133q-12 80 -72 129q-55 49 -135 49q-125 -2 -193 -88q-70 -88 -69 -217q0 -123 71 -213q72 -98 193 -98q82 0 137 53q56 47 68 133h133q-61 -319 -338 -323 q-193 0 -299 129q-109 121 -109 315z" />
<glyph unicode="&#xaa;" horiz-adv-x="641" d="M37 954q0 82 51 138q47 53 139 53h211v35q-2 53 -41 65q-37 10 -86 10q-66 0 -96 -8q-29 -10 -43 -37l-96 84q39 53 92 72q49 16 137 16q270 6 279 -192v-402h-146v54h-4q-37 -61 -151 -62q-133 0 -189 54q-57 53 -57 120zM180 965q0 -14 15 -27q8 -12 24 -18 q37 -14 78 -15q88 0 117 21q26 18 24 69v35h-151q-104 0 -107 -65z" />
<glyph unicode="&#xab;" horiz-adv-x="827" d="M53 530l383 390v-197l-196 -193l196 -194v-195zM408 530l380 390v-197l-198 -193l198 -194v-195z" />
<glyph unicode="&#xac;" horiz-adv-x="1071" d="M74 602v152h946v-551h-146v399h-800z" />
<glyph unicode="&#xad;" horiz-adv-x="659" d="M66 432v197h563v-197h-563z" />
<glyph unicode="&#xae;" horiz-adv-x="1521" d="M94 682q4 295 201 498q188 199 477 202q289 -4 481 -202q193 -199 197 -498q-4 -299 -197 -492q-193 -203 -481 -206q-291 4 -477 206q-197 195 -201 492zM242 682q0 -246 151 -401q145 -160 379 -160q233 0 383 160q147 156 150 401q-2 252 -150 405q-150 156 -383 158 q-233 -2 -379 -158q-151 -153 -151 -405zM516 293v817h299q272 2 272 -244q-2 -119 -57 -174q-63 -55 -145 -63l227 -336h-156l-229 332h-76v-332h-135zM651 752h92q86 -4 148 16q59 23 63 98q-4 72 -55 99q-51 18 -125 18h-123v-231z" />
<glyph unicode="&#xaf;" horiz-adv-x="604" d="M39 1167v125h536v-125h-536z" />
<glyph unicode="&#xb0;" horiz-adv-x="598" d="M35 1106q2 119 80 197q76 78 188 79q115 -2 191 -79q74 -78 75 -197q-2 -115 -75 -195q-76 -80 -191 -80q-113 0 -188 80q-78 80 -80 195zM129 1106q0 -76 53 -125q47 -53 121 -53q72 0 123 53q47 49 49 125q-2 76 -49 127q-51 49 -123 51q-74 -2 -121 -51 q-53 -49 -53 -127z" />
<glyph unicode="&#xb1;" horiz-adv-x="1050" d="M53 -4v151h946v-151h-946zM53 541v151h402v279h147v-279h397v-151h-397v-279h-147v279h-402z" />
<glyph unicode="&#xb2;" horiz-adv-x="602" d="M35 549v137l340 367q41 39 41 92q0 45 -27 72q-31 29 -80 28q-104 -2 -112 -121h-156q0 119 74 189q70 68 186 69q121 -2 197 -67q74 -72 73 -172q0 -41 -8 -76q-18 -39 -51 -76l-287 -305h346v-137h-536z" />
<glyph unicode="&#xb3;" horiz-adv-x="626" d="M35 772h155q29 -90 127 -92q55 0 91 31q33 29 32 82q0 53 -37 88q-39 31 -96 30h-71v127h59q61 0 102 31q35 25 35 76q0 45 -31 72q-33 29 -79 28q-43 0 -78 -24q-35 -25 -49 -78h-156q10 106 80 172t184 67q137 -2 213 -71q72 -70 72 -164q0 -49 -19 -92 q-25 -45 -80 -80q57 -31 84 -80q25 -47 25 -98q-2 -117 -78 -187q-78 -70 -211 -69q-227 -2 -274 231z" />
<glyph unicode="&#xb4;" horiz-adv-x="473" d="M27 1100l174 282h248l-265 -282h-157z" />
<glyph unicode="&#xb5;" horiz-adv-x="868" d="M72 -401v1374h190v-582q0 -100 53 -155t136 -56q82 0 135 56q51 55 51 155v582h192v-977h-192v102h-2q-96 -115 -246 -114q-66 0 -127 28v-413h-190z" />
<glyph unicode="&#xb6;" horiz-adv-x="929" d="M55 999q8 371 432 371h398v-1732h-146v1607h-143v-1607h-147v1003q-174 2 -281 107q-111 96 -113 251z" />
<glyph unicode="&#xb7;" horiz-adv-x="290" d="M27 559q0 55 36 92q35 37 89 37q55 0 90 -37q37 -37 37 -92q0 -53 -37 -90q-35 -39 -90 -39q-53 0 -89 39q-36 37 -36 90z" />
<glyph unicode="&#xb8;" horiz-adv-x="475" d="M35 -395l33 82q66 -29 131 -31q104 0 110 84q0 39 -28 53q-25 18 -66 19q-37 2 -72 -23l-45 37l123 170h94l-82 -115h5q23 6 51 6q78 0 121 -41q43 -43 43 -104q-2 -92 -68 -137t-162 -45q-90 0 -188 45z" />
<glyph unicode="&#xb9;" horiz-adv-x="413" d="M61 1126v164l123 84h158v-825h-158v663z" />
<glyph unicode="&#xba;" horiz-adv-x="612" d="M33 1081q0 82 14 133q8 45 45 82q80 86 219 86q131 0 213 -86q37 -39 49 -82q10 -51 11 -133q0 -84 -11 -131q-12 -47 -49 -84q-82 -86 -215 -86q-137 0 -217 86q-35 33 -45 84q-14 47 -14 131zM180 1081q-6 -90 27 -129q35 -47 102 -47q68 0 101 47q20 27 26 52 q4 25 4 77q0 88 -30 127q-35 45 -99 47q-70 -2 -104 -47q-20 -20 -23 -49q-4 -25 -4 -78z" />
<glyph unicode="&#xbb;" horiz-adv-x="815" d="M43 141v195l190 194l-190 193v197l381 -390zM395 141v195l191 194l-191 193v197l381 -390z" />
<glyph unicode="&#xbc;" horiz-adv-x="1337" d="M82 1126v164l123 84h155v-825h-155v663zM168 -39l805 1442h125l-807 -1442h-123zM688 115v137l291 563h158l-285 -563h205v215h155v-215h64v-137h-64v-119h-155v119h-369z" />
<glyph unicode="&#xbd;" horiz-adv-x="1351" d="M82 1126v164l123 84h155v-825h-155v663zM119 -39l809 1442h131l-813 -1442h-127zM748 -4v137l339 363q41 41 41 94q0 45 -26 74q-29 25 -82 24q-100 -2 -111 -119h-155q0 115 77 189q68 68 183 69q121 -2 198 -67q74 -72 74 -170q0 -41 -10 -78q-16 -39 -51 -76 l-289 -303h350v-137h-538z" />
<glyph unicode="&#xbe;" horiz-adv-x="1439" d="M90 772h158q31 -90 127 -92q57 0 92 31q31 29 33 82q-2 53 -39 88q-37 31 -96 30h-72v127h61q59 0 99 31q37 25 36 76q0 43 -28 72q-35 29 -82 28q-41 0 -78 -24q-35 -27 -49 -78h-158q12 106 84 172q68 66 182 67q139 -2 211 -71q74 -72 74 -164q0 -47 -18 -92 q-23 -45 -80 -80q57 -33 86 -80q23 -47 22 -98q-2 -115 -77 -187q-76 -70 -211 -69q-229 -2 -277 231zM315 -39l811 1442h125l-809 -1442h-127zM786 115v137l289 563h158l-285 -563h205v215h158v-215h59v-137h-59v-119h-158v119h-367z" />
<glyph unicode="&#xbf;" horiz-adv-x="817" d="M63 -41q0 121 62 201l176 243q35 49 33 121v113h190v-129q0 -51 -6 -96q-12 -43 -43 -90l-172 -240q-49 -66 -49 -127q0 -76 55 -123q49 -45 105 -47q74 0 125 47q47 49 49 164h190v-39q-2 -158 -104 -262t-248 -107q-143 2 -250 101q-111 100 -113 270zM334 778v195h190 v-195h-190z" />
<glyph unicode="&#xc0;" horiz-adv-x="1200" d="M2 0l502 1372h170l500 -1372h-218l-106 311h-520l-109 -311h-219zM389 1753h252l170 -282h-156zM391 494h397q-43 127 -67.5 198.5t-43 126.5t-37.5 113.5t-50 154.5q-33 -100 -52.5 -160.5t-38 -117.5t-42 -126.5t-66.5 -188.5z" />
<glyph unicode="&#xc1;" horiz-adv-x="1200" d="M2 0l502 1372h170l500 -1372h-218l-106 311h-520l-109 -311h-219zM389 1471l174 282h248l-265 -282h-157zM391 494h397q-43 127 -67.5 198.5t-43 126.5t-37.5 113.5t-50 154.5q-33 -100 -52.5 -160.5t-38 -117.5t-42 -126.5t-66.5 -188.5z" />
<glyph unicode="&#xc2;" horiz-adv-x="1200" d="M2 0l502 1372h170l500 -1372h-218l-106 311h-520l-109 -311h-219zM303 1528l215 280h164l213 -280h-152l-147 196l-143 -196h-150zM391 494h397q-43 127 -67.5 198.5t-43 126.5t-37.5 113.5t-50 154.5q-33 -100 -52.5 -160.5t-38 -117.5t-42 -126.5t-66.5 -188.5z" />
<glyph unicode="&#xc3;" horiz-adv-x="1200" d="M2 0l502 1372h170l500 -1372h-218l-106 311h-520l-109 -311h-219zM264 1491q16 102 72 164q55 59 141 59q39 0 70 -10q41 -10 65 -24q33 -16 64 -25q27 -14 55 -14q29 -2 55 18q25 16 33 68h113q-14 -92 -62 -156q-51 -70 -143 -70q-37 0 -72 15q-35 10 -69 20 q-72 35 -129 37q-18 0 -49 -14q-31 -23 -31 -68h-113zM391 494h397q-43 127 -67.5 198.5t-43 126.5t-37.5 113.5t-50 154.5q-33 -100 -52.5 -160.5t-38 -117.5t-42 -126.5t-66.5 -188.5z" />
<glyph unicode="&#xc4;" horiz-adv-x="1200" d="M2 0l502 1372h170l500 -1372h-218l-106 311h-520l-109 -311h-219zM330 1563v207h207v-207h-207zM391 494h397q-43 127 -67.5 198.5t-43 126.5t-37.5 113.5t-50 154.5q-33 -100 -52.5 -160.5t-38 -117.5t-42 -126.5t-66.5 -188.5zM668 1563v207h209v-207h-209z" />
<glyph unicode="&#xc5;" horiz-adv-x="1200" d="M2 0l502 1372h170l500 -1372h-218l-106 311h-520l-109 -311h-219zM389 1693q0 43 17.5 82t47 68t66.5 45t78 16q43 0 82 -16t67.5 -46t46 -68t17.5 -81t-16.5 -80.5t-46 -67.5t-68.5 -46.5t-82 -16.5t-81 16.5t-66.5 46.5t-45 67.5t-16.5 80.5zM391 494h397 q-43 127 -67.5 198.5t-43 126.5t-37.5 113.5t-50 154.5q-33 -100 -52.5 -160.5t-38 -117.5t-42 -126.5t-66.5 -188.5zM473 1693q0 -51 37 -87.5t88 -36.5q53 0 90 36.5t37 87.5q0 53 -37 90t-90 37q-51 0 -88 -36.5t-37 -90.5z" />
<glyph unicode="&#xc6;" horiz-adv-x="1280" d="M33 0l465 1372h694v-186h-424v-367h270v-184h-270v-449h449v-186h-629v324h-262l-103 -324h-190zM383 506h205v418q0 108 4 245q-27 -96 -80 -264z" />
<glyph unicode="&#xc7;" horiz-adv-x="1071" d="M100 684q0 248 12.5 319.5t47.5 131.5q49 90 158.5 168.5t271.5 78.5q195 0 321.5 -119.5t159.5 -287.5h-219q-25 80 -94.5 139.5t-167.5 59.5q-74 0 -128 -30t-85 -71q-39 -51 -53.5 -114.5t-14.5 -274.5t14.5 -274.5t53.5 -114.5q31 -41 85 -70.5t128 -29.5 q174 0 262 186h219q-41 -190 -173 -291.5t-308 -101.5q-162 0 -271.5 77.5t-158.5 167.5q-35 59 -47.5 132t-12.5 319zM326 -395l33 82q66 -29 131 -31q104 0 110 84q0 39 -28 53q-25 18 -66 19q-37 2 -72 -23l-45 37l123 170h94l-82 -115h5q23 6 51 6q78 0 121 -41 q43 -43 43 -104q-2 -92 -68 -137t-162 -45q-90 0 -188 45z" />
<glyph unicode="&#xc8;" horiz-adv-x="1071" d="M147 0v1370h877v-196h-670v-392h570v-184h-570v-403h670v-195h-877zM324 1753h252l170 -282h-156z" />
<glyph unicode="&#xc9;" horiz-adv-x="1071" d="M147 0v1370h877v-196h-670v-392h570v-184h-570v-403h670v-195h-877zM324 1471l174 282h248l-265 -282h-157z" />
<glyph unicode="&#xca;" horiz-adv-x="1071" d="M147 0v1370h877v-196h-670v-392h570v-184h-570v-403h670v-195h-877zM239 1528l215 280h164l213 -280h-152l-147 196l-143 -196h-150z" />
<glyph unicode="&#xcb;" horiz-adv-x="1071" d="M147 0v1370h877v-196h-670v-392h570v-184h-570v-403h670v-195h-877zM264 1563v207h207v-207h-207zM602 1563v207h209v-207h-209z" />
<glyph unicode="&#xcc;" horiz-adv-x="497" d="M37 1753h252l170 -282h-156zM147 0v1370h207v-1370h-207z" />
<glyph unicode="&#xcd;" horiz-adv-x="497" d="M37 1471l174 282h248l-265 -282h-157zM147 0v1370h207v-1370h-207z" />
<glyph unicode="&#xce;" horiz-adv-x="497" d="M-45 1528l215 280h164l213 -280h-152l-147 196l-143 -196h-150zM147 0v1370h207v-1370h-207z" />
<glyph unicode="&#xcf;" horiz-adv-x="497" d="M-22 1563v207h207v-207h-207zM147 0v1370h207v-1370h-207zM316 1563v207h209v-207h-209z" />
<glyph unicode="&#xd0;" horiz-adv-x="948" d="M-2 618v123h102v619h326q106 0 168 -21q78 -25 137 -96q74 -90 111 -232.5t37 -322.5q0 -209 -44 -358.5t-108.5 -217t-148.5 -96.5q-47 -16 -136 -16h-342v618h-102zM227 160h199q94 0 147.5 25.5t81.5 70.5q45 63 70 171t25 263q0 160 -24 255t-64.5 152.5t-90 80 t-147.5 22.5h-197v-459h256v-123h-256v-458z" />
<glyph unicode="&#xd1;" horiz-adv-x="1318" d="M147 0v1370h197l621 -975v975h211v-1370h-197l-621 973h-4v-973h-207zM325 1491q16 102 72 164q55 59 141 59q39 0 70 -10q41 -10 65 -24q33 -16 64 -25q27 -14 55 -14q29 -2 55 18q25 16 33 68h113q-14 -92 -62 -156q-51 -70 -143 -70q-37 0 -72 15q-35 10 -69 20 q-72 35 -129 37q-18 0 -49 -14q-31 -23 -31 -68h-113z" />
<glyph unicode="&#xd2;" horiz-adv-x="1175" d="M100 684q0 248 12.5 319.5t47.5 131.5q49 90 158.5 168.5t271.5 78.5q160 0 269.5 -78.5t160.5 -168.5q33 -59 46 -131t13 -320q0 -246 -13 -318.5t-46 -132.5q-51 -90 -160.5 -167.5t-269.5 -77.5q-162 0 -271.5 77.5t-158.5 167.5q-35 59 -47.5 132t-12.5 319zM309 684 q0 -211 14.5 -274.5t53.5 -114.5q31 -41 85 -70.5t128 -29.5t126 29.5t85 70.5q41 51 55 114.5t14 274.5t-14 274.5t-55 114.5q-33 41 -85 71t-126 30t-128 -30t-85 -71q-39 -51 -53.5 -114.5t-14.5 -274.5zM375 1753h252l170 -282h-156z" />
<glyph unicode="&#xd3;" horiz-adv-x="1175" d="M100 684q0 248 12.5 319.5t47.5 131.5q49 90 158.5 168.5t271.5 78.5q160 0 269.5 -78.5t160.5 -168.5q33 -59 46 -131t13 -320q0 -246 -13 -318.5t-46 -132.5q-51 -90 -160.5 -167.5t-269.5 -77.5q-162 0 -271.5 77.5t-158.5 167.5q-35 59 -47.5 132t-12.5 319zM309 684 q0 -211 14.5 -274.5t53.5 -114.5q31 -41 85 -70.5t128 -29.5t126 29.5t85 70.5q41 51 55 114.5t14 274.5t-14 274.5t-55 114.5q-33 41 -85 71t-126 30t-128 -30t-85 -71q-39 -51 -53.5 -114.5t-14.5 -274.5zM375 1471l174 282h248l-265 -282h-157z" />
<glyph unicode="&#xd4;" horiz-adv-x="1175" d="M100 684q0 248 12.5 319.5t47.5 131.5q49 90 158.5 168.5t271.5 78.5q160 0 269.5 -78.5t160.5 -168.5q33 -59 46 -131t13 -320q0 -246 -13 -318.5t-46 -132.5q-51 -90 -160.5 -167.5t-269.5 -77.5q-162 0 -271.5 77.5t-158.5 167.5q-35 59 -47.5 132t-12.5 319z M291 1528l215 280h164l213 -280h-152l-147 196l-143 -196h-150zM309 684q0 -211 14.5 -274.5t53.5 -114.5q31 -41 85 -70.5t128 -29.5t126 29.5t85 70.5q41 51 55 114.5t14 274.5t-14 274.5t-55 114.5q-33 41 -85 71t-126 30t-128 -30t-85 -71q-39 -51 -53.5 -114.5 t-14.5 -274.5z" />
<glyph unicode="&#xd5;" horiz-adv-x="1175" d="M100 684q0 248 12.5 319.5t47.5 131.5q49 90 158.5 168.5t271.5 78.5q160 0 269.5 -78.5t160.5 -168.5q33 -59 46 -131t13 -320q0 -246 -13 -318.5t-46 -132.5q-51 -90 -160.5 -167.5t-269.5 -77.5q-162 0 -271.5 77.5t-158.5 167.5q-35 59 -47.5 132t-12.5 319z M254 1491q16 102 72 164q55 59 141 59q39 0 70 -10q41 -10 65 -24q33 -16 64 -25q27 -14 55 -14q29 -2 55 18q25 16 33 68h113q-14 -92 -62 -156q-51 -70 -143 -70q-37 0 -72 15q-35 10 -69 20q-72 35 -129 37q-18 0 -49 -14q-31 -23 -31 -68h-113zM309 684 q0 -211 14.5 -274.5t53.5 -114.5q31 -41 85 -70.5t128 -29.5t126 29.5t85 70.5q41 51 55 114.5t14 274.5t-14 274.5t-55 114.5q-33 41 -85 71t-126 30t-128 -30t-85 -71q-39 -51 -53.5 -114.5t-14.5 -274.5z" />
<glyph unicode="&#xd6;" horiz-adv-x="1175" d="M100 684q0 248 12.5 319.5t47.5 131.5q49 90 158.5 168.5t271.5 78.5q160 0 269.5 -78.5t160.5 -168.5q33 -59 46 -131t13 -320q0 -246 -13 -318.5t-46 -132.5q-51 -90 -160.5 -167.5t-269.5 -77.5q-162 0 -271.5 77.5t-158.5 167.5q-35 59 -47.5 132t-12.5 319zM309 684 q0 -211 14.5 -274.5t53.5 -114.5q31 -41 85 -70.5t128 -29.5t126 29.5t85 70.5q41 51 55 114.5t14 274.5t-14 274.5t-55 114.5q-33 41 -85 71t-126 30t-128 -30t-85 -71q-39 -51 -53.5 -114.5t-14.5 -274.5zM318 1563v207h207v-207h-207zM656 1563v207h209v-207h-209z" />
<glyph unicode="&#xd7;" horiz-adv-x="970" d="M53 143l336 340l-336 346l105 105l331 -344l332 344l105 -105l-348 -346l348 -340l-105 -108l-332 346l-331 -346z" />
<glyph unicode="&#xd8;" horiz-adv-x="1175" d="M100 684q0 248 12.5 319.5t47.5 131.5q49 90 158.5 168.5t271.5 78.5q160 0 269.5 -78.5t160.5 -168.5q33 -59 46 -131t13 -320q0 -246 -13 -318.5t-46 -132.5q-51 -90 -160.5 -167.5t-269.5 -77.5q-162 0 -271.5 77.5t-158.5 167.5q-35 59 -47.5 132t-12.5 319zM280 -12 l461 1394h152l-461 -1394h-152zM309 684q0 -211 14.5 -274.5t53.5 -114.5q31 -41 85 -70.5t128 -29.5t126 29.5t85 70.5q41 51 55 114.5t14 274.5t-14 274.5t-55 114.5q-33 41 -85 71t-126 30t-128 -30t-85 -71q-39 -51 -53.5 -114.5t-14.5 -274.5z" />
<glyph unicode="&#xd9;" horiz-adv-x="1214" d="M121 463v907h209v-885q0 -141 79.5 -215.5t198.5 -74.5t200 74.5t81 215.5v885h207v-907q0 -215 -142.5 -345t-345.5 -130t-345 130t-142 345zM396 1753h252l170 -282h-156z" />
<glyph unicode="&#xda;" horiz-adv-x="1214" d="M121 463v907h209v-885q0 -141 79.5 -215.5t198.5 -74.5t200 74.5t81 215.5v885h207v-907q0 -215 -142.5 -345t-345.5 -130t-345 130t-142 345zM396 1471l174 282h248l-265 -282h-157z" />
<glyph unicode="&#xdb;" horiz-adv-x="1214" d="M121 463v907h209v-885q0 -141 79.5 -215.5t198.5 -74.5t200 74.5t81 215.5v885h207v-907q0 -215 -142.5 -345t-345.5 -130t-345 130t-142 345zM311 1528l215 280h164l213 -280h-152l-147 196l-143 -196h-150z" />
<glyph unicode="&#xdc;" horiz-adv-x="1214" d="M121 463v907h209v-885q0 -141 79.5 -215.5t198.5 -74.5t200 74.5t81 215.5v885h207v-907q0 -215 -142.5 -345t-345.5 -130t-345 130t-142 345zM336 1464v209h207v-209h-207zM674 1464v209h209v-209h-209z" />
<glyph unicode="&#xdd;" horiz-adv-x="964" d="M-27 1370h220l290 -608l291 608h221l-413 -807v-563h-197v563zM271 1471l174 282h248l-265 -282h-157z" />
<glyph unicode="&#xde;" horiz-adv-x="874" d="M100 0v1360h127v-277h230q92 0 141 -14q72 -14 119 -61t73.5 -132t26.5 -186q0 -172 -74.5 -293t-277.5 -121h-238v-276h-127zM227 436h240q121 0 173 64.5t52 183.5q0 84 -30.5 145.5t-79.5 79.5q-33 14 -117 15h-238v-488z" />
<glyph unicode="&#xdf;" horiz-adv-x="1034" d="M125 0v1061q0 164 116.5 242.5t295.5 78.5q166 0 271 -89t105 -236q0 -158 -141 -219q141 -55 141 -213v-349q0 -117 -74.5 -196.5t-197.5 -79.5h-121v182h70q127 0 127 103v344q0 113 -109 112h-112v187h116q104 0 105 112q0 76 -31 105q-53 45 -170 41 q-109 -2 -150.5 -33t-43.5 -92v-1061h-197z" />
<glyph unicode="&#xe0;" d="M74 281q0 125 78 206q78 84 229 84h264v105q2 129 -194 125q-68 0 -111 -15q-45 -18 -68 -61l-151 119q111 147 319 143q180 2 289 -69q104 -76 107 -252v-670h-191v86h-4q-27 -51 -80 -74q-57 -25 -153 -24q-162 4 -244 88q-90 82 -90 209zM250 1382h252l170 -282h-156z M252 291q0 -47 43 -84q43 -39 137 -39q121 -2 170 31q43 30 43 141v70h-227q-168 -4 -166 -119z" />
<glyph unicode="&#xe1;" d="M74 281q0 125 78 206q78 84 229 84h264v105q2 129 -194 125q-68 0 -111 -15q-45 -18 -68 -61l-151 119q111 147 319 143q180 2 289 -69q104 -76 107 -252v-670h-191v86h-4q-27 -51 -80 -74q-57 -25 -153 -24q-162 4 -244 88q-90 82 -90 209zM250 1100l174 282h248 l-265 -282h-157zM252 291q0 -47 43 -84q43 -39 137 -39q121 -2 170 31q43 30 43 141v70h-227q-168 -4 -166 -119z" />
<glyph unicode="&#xe2;" d="M74 281q0 125 78 206q78 84 229 84h264v105q2 129 -194 125q-68 0 -111 -15q-45 -18 -68 -61l-151 119q111 147 319 143q180 2 289 -69q104 -76 107 -252v-670h-191v86h-4q-27 -51 -80 -74q-57 -25 -153 -24q-162 4 -244 88q-90 82 -90 209zM170 1133l215 280h164 l213 -280h-152l-147 196l-143 -196h-150zM252 291q0 -47 43 -84q43 -39 137 -39q121 -2 170 31q43 30 43 141v70h-227q-168 -4 -166 -119z" />
<glyph unicode="&#xe3;" d="M74 281q0 125 78 206q78 84 229 84h264v105q2 129 -194 125q-68 0 -111 -15q-45 -18 -68 -61l-151 119q111 147 319 143q180 2 289 -69q104 -76 107 -252v-670h-191v86h-4q-27 -51 -80 -74q-57 -25 -153 -24q-162 4 -244 88q-90 82 -90 209zM129 1120q16 102 72 164 q55 59 141 59q39 0 70 -10q41 -10 65 -24q33 -16 64 -25q27 -14 55 -14q29 -2 55 18q25 16 33 68h113q-14 -92 -62 -156q-51 -70 -143 -70q-37 0 -72 15q-35 10 -69 20q-72 35 -129 37q-18 0 -49 -14q-31 -23 -31 -68h-113zM252 291q0 -47 43 -84q43 -39 137 -39 q121 -2 170 31q43 30 43 141v70h-227q-168 -4 -166 -119z" />
<glyph unicode="&#xe4;" d="M74 281q0 125 78 206q78 84 229 84h264v105q2 129 -194 125q-68 0 -111 -15q-45 -18 -68 -61l-151 119q111 147 319 143q180 2 289 -69q104 -76 107 -252v-670h-191v86h-4q-27 -51 -80 -74q-57 -25 -153 -24q-162 4 -244 88q-90 82 -90 209zM191 1192v207h207v-207h-207z M252 291q0 -47 43 -84q43 -39 137 -39q121 -2 170 31q43 30 43 141v70h-227q-168 -4 -166 -119zM529 1192v207h209v-207h-209z" />
<glyph unicode="&#xe5;" d="M74 281q0 125 78 206q78 84 229 84h264v105q2 129 -194 125q-68 0 -111 -15q-45 -18 -68 -61l-151 119q111 147 319 143q180 2 289 -69q104 -76 107 -252v-670h-191v86h-4q-27 -51 -80 -74q-57 -25 -153 -24q-162 4 -244 88q-90 82 -90 209zM252 291q0 -47 43 -84 q43 -39 137 -39q121 -2 170 31q43 30 43 141v70h-227q-168 -4 -166 -119zM254 1298q0 43 17.5 82t47 68t66.5 45t78 16q43 0 82 -16t67.5 -46t46 -68t17.5 -81t-16.5 -80.5t-46 -67.5t-68.5 -46.5t-82 -16.5t-81 16.5t-66.5 46.5t-45 67.5t-16.5 80.5zM338 1298 q0 -51 37 -87.5t88 -36.5q53 0 90 36.5t37 87.5q0 53 -37 90t-90 37q-51 0 -88 -36.5t-37 -90.5z" />
<glyph unicode="&#xe6;" horiz-adv-x="1312" d="M59 324q0 162 93 251q88 86 235 87q84 0 154 -35v100q0 147 -131 147q-92 0 -197 -65l-78 143q143 98 283 99q106 0 162 -31q43 -27 79 -90q80 121 226 121q156 0 252 -131q102 -144 102 -402q0 -47 -2 -67h-528q18 -291 190 -291q102 0 182 76l113 -121 q-121 -137 -299 -138q-172 0 -258 150q-127 -150 -303 -150q-117 0 -193 89q-82 92 -82 258zM244 328q0 -178 127 -178q117 0 170 96v205q-63 39 -152 38q-145 0 -145 -161zM711 614h340q-4 117 -49.5 188.5t-120.5 71.5q-145 0 -170 -260z" />
<glyph unicode="&#xe7;" horiz-adv-x="856" d="M53 485q0 270 137.5 386t307.5 116q109 0 197.5 -48t152.5 -122l-146 -129q-82 102 -196 103q-256 0 -256 -306q0 -303 256 -303q114 1 196 103l146 -129q-63 -74 -152.5 -121t-197.5 -47q-170 0 -307.5 114.5t-137.5 382.5zM217 -395l33 82q66 -29 131 -31q104 0 110 84 q0 39 -28 53q-25 18 -66 19q-37 2 -72 -23l-45 37l123 170h94l-82 -115h5q23 6 51 6q78 0 121 -41q43 -43 43 -104q-2 -92 -68 -137t-162 -45q-90 0 -188 45z" />
<glyph unicode="&#xe8;" horiz-adv-x="964" d="M82 483q0 285 130 394.5t271 109.5q160 0 281 -111.5t121 -302.5v-161h-606q0 -119 64.5 -179.5t166.5 -60.5q123 0 215 94l141 -121q-72 -86 -163 -121.5t-189 -35.5q-152 0 -292 97t-140 398zM271 1382h252l170 -282h-156zM279 573h411q-6 111 -62.5 169.5t-144.5 58.5 q-86 0 -144 -58.5t-60 -169.5z" />
<glyph unicode="&#xe9;" horiz-adv-x="964" d="M82 483q0 285 130 394.5t271 109.5q160 0 281 -111.5t121 -302.5v-161h-606q0 -119 64.5 -179.5t166.5 -60.5q123 0 215 94l141 -121q-72 -86 -163 -121.5t-189 -35.5q-152 0 -292 97t-140 398zM271 1100l174 282h248l-265 -282h-157zM279 573h411q-6 111 -62.5 169.5 t-144.5 58.5q-86 0 -144 -58.5t-60 -169.5z" />
<glyph unicode="&#xea;" horiz-adv-x="964" d="M82 483q0 285 130 394.5t271 109.5q160 0 281 -111.5t121 -302.5v-161h-606q0 -119 64.5 -179.5t166.5 -60.5q123 0 215 94l141 -121q-72 -86 -163 -121.5t-189 -35.5q-152 0 -292 97t-140 398zM188 1133l215 280h164l213 -280h-152l-147 196l-143 -196h-150zM279 573 h411q-6 111 -62.5 169.5t-144.5 58.5q-86 0 -144 -58.5t-60 -169.5z" />
<glyph unicode="&#xeb;" horiz-adv-x="964" d="M82 483q0 285 130 394.5t271 109.5q160 0 281 -111.5t121 -302.5v-161h-606q0 -119 64.5 -179.5t166.5 -60.5q123 0 215 94l141 -121q-72 -86 -163 -121.5t-189 -35.5q-152 0 -292 97t-140 398zM211 1192v207h207v-207h-207zM279 573h411q-6 111 -62.5 169.5t-144.5 58.5 q-86 0 -144 -58.5t-60 -169.5zM549 1192v207h209v-207h-209z" />
<glyph unicode="&#xec;" horiz-adv-x="462" d="M23 1382h252l170 -282h-156zM135 0v975h197v-975h-197z" />
<glyph unicode="&#xed;" horiz-adv-x="462" d="M23 1100l174 282h248l-265 -282h-157zM135 0v975h197v-975h-197z" />
<glyph unicode="&#xee;" horiz-adv-x="462" d="M-62 1133l215 280h164l213 -280h-152l-147 196l-143 -196h-150zM135 0v975h197v-975h-197z" />
<glyph unicode="&#xef;" horiz-adv-x="462" d="M-39 1192v207h207v-207h-207zM135 0v975h197v-975h-197zM299 1192v207h209v-207h-209z" />
<glyph unicode="&#xf0;" horiz-adv-x="731" d="M47 479q0 244 82 375t207 131q39 0 67.5 -11t67.5 -44q-20 70 -37.5 106.5t-50.5 91.5l-178 -116l-31 96l158 100q-63 82 -135 152h139q47 -49 82 -94l135 94l29 -94l-111 -78q207 -340 207 -705q0 -236 -89 -371t-229 -135q-164 0 -254 179q-59 119 -59 323zM166 475 q0 -180 55 -270t139 -90q82 0 139.5 95.5t57.5 281.5q0 178 -57.5 271t-141.5 93t-138 -93t-54 -288z" />
<glyph unicode="&#xf1;" horiz-adv-x="1034" d="M129 0v975h197v-105h4q90 117 254 117q115 0 220 -87t105 -253v-647h-196v580q0 100 -55.5 155.5t-137.5 55.5q-84 0 -139 -55.5t-55 -155.5v-580h-197zM182 1120q16 102 72 164q55 59 141 59q39 0 70 -10q41 -10 65 -24q33 -16 64 -25q27 -14 55 -14q29 -2 55 18 q25 16 33 68h113q-14 -92 -62 -156q-51 -70 -143 -70q-37 0 -72 15q-35 10 -69 20q-72 35 -129 37q-18 0 -49 -14q-31 -23 -31 -68h-113z" />
<glyph unicode="&#xf2;" horiz-adv-x="964" d="M82 487q0 158 23.5 236t80.5 139q41 43 112 84t185 41q115 0 185.5 -41t111.5 -84q55 -61 80 -139t25 -236q0 -160 -24.5 -236.5t-80.5 -137.5q-41 -45 -111.5 -85t-185.5 -40t-185.5 40t-111.5 85q-57 61 -80.5 137.5t-23.5 236.5zM271 1382h252l170 -282h-156zM279 487 q0 -106 9 -150t38 -83q49 -72 157 -72q106 0 158 72q29 39 39 82t10 149q0 109 -10 152t-39 82q-51 72 -158 72q-109 0 -157 -72q-29 -39 -38 -82t-9 -150z" />
<glyph unicode="&#xf3;" horiz-adv-x="964" d="M82 487q0 158 23.5 236t80.5 139q41 43 112 84t185 41q115 0 185.5 -41t111.5 -84q55 -61 80 -139t25 -236q0 -160 -24.5 -236.5t-80.5 -137.5q-41 -45 -111.5 -85t-185.5 -40t-185.5 40t-111.5 85q-57 61 -80.5 137.5t-23.5 236.5zM271 1100l174 282h248l-265 -282h-157 zM279 487q0 -106 9 -150t38 -83q49 -72 157 -72q106 0 158 72q29 39 39 82t10 149q0 109 -10 152t-39 82q-51 72 -158 72q-109 0 -157 -72q-29 -39 -38 -82t-9 -150z" />
<glyph unicode="&#xf4;" horiz-adv-x="964" d="M82 487q0 158 23.5 236t80.5 139q41 43 112 84t185 41q115 0 185.5 -41t111.5 -84q55 -61 80 -139t25 -236q0 -160 -24.5 -236.5t-80.5 -137.5q-41 -45 -111.5 -85t-185.5 -40t-185.5 40t-111.5 85q-57 61 -80.5 137.5t-23.5 236.5zM188 1133l215 280h164l213 -280h-152 l-147 196l-143 -196h-150zM279 487q0 -106 9 -150t38 -83q49 -72 157 -72q106 0 158 72q29 39 39 82t10 149q0 109 -10 152t-39 82q-51 72 -158 72q-109 0 -157 -72q-29 -39 -38 -82t-9 -150z" />
<glyph unicode="&#xf5;" horiz-adv-x="964" d="M82 487q0 158 23.5 236t80.5 139q41 43 112 84t185 41q115 0 185.5 -41t111.5 -84q55 -61 80 -139t25 -236q0 -160 -24.5 -236.5t-80.5 -137.5q-41 -45 -111.5 -85t-185.5 -40t-185.5 40t-111.5 85q-57 61 -80.5 137.5t-23.5 236.5zM147 1120q16 102 72 164q55 59 141 59 q39 0 70 -10q41 -10 65 -24q33 -16 64 -25q27 -14 55 -14q29 -2 55 18q25 16 33 68h113q-14 -92 -62 -156q-51 -70 -143 -70q-37 0 -72 15q-35 10 -69 20q-72 35 -129 37q-18 0 -49 -14q-31 -23 -31 -68h-113zM279 487q0 -106 9 -150t38 -83q49 -72 157 -72q106 0 158 72 q29 39 39 82t10 149q0 109 -10 152t-39 82q-51 72 -158 72q-109 0 -157 -72q-29 -39 -38 -82t-9 -150z" />
<glyph unicode="&#xf6;" horiz-adv-x="964" d="M82 487q0 158 23.5 236t80.5 139q41 43 112 84t185 41q115 0 185.5 -41t111.5 -84q55 -61 80 -139t25 -236q0 -160 -24.5 -236.5t-80.5 -137.5q-41 -45 -111.5 -85t-185.5 -40t-185.5 40t-111.5 85q-57 61 -80.5 137.5t-23.5 236.5zM211 1192v207h207v-207h-207zM279 487 q0 -106 9 -150t38 -83q49 -72 157 -72q106 0 158 72q29 39 39 82t10 149q0 109 -10 152t-39 82q-51 72 -158 72q-109 0 -157 -72q-29 -39 -38 -82t-9 -150zM549 1192v207h209v-207h-209z" />
<glyph unicode="&#xf7;" horiz-adv-x="1071" d="M74 408v151h948v-151h-948zM422 82q0 57 37 94q35 37 88 37q55 0 90 -37q35 -35 35 -94q0 -53 -35 -88q-35 -37 -90 -39q-53 2 -88 39q-37 35 -37 88zM422 883q0 55 37 92q35 37 88 37q55 0 90 -37t35 -92q0 -51 -35 -88q-35 -39 -90 -39q-53 0 -88 39q-37 37 -37 88z " />
<glyph unicode="&#xf8;" horiz-adv-x="964" d="M82 487q0 158 23.5 236t80.5 139q41 43 112 84t185 41q115 0 185.5 -41t111.5 -84q55 -61 80 -139t25 -236q0 -160 -24.5 -236.5t-80.5 -137.5q-41 -45 -111.5 -85t-185.5 -40t-185.5 40t-111.5 85q-57 61 -80.5 137.5t-23.5 236.5zM174 -9l456 986h151l-457 -986h-150z M279 487q0 -106 9 -150t38 -83q49 -72 157 -72q106 0 158 72q29 39 39 82t10 149q0 109 -10 152t-39 82q-51 72 -158 72q-109 0 -157 -72q-29 -39 -38 -82t-9 -150z" />
<glyph unicode="&#xf9;" horiz-adv-x="1034" d="M129 326v649h197v-582q0 -100 55 -155.5t139 -55.5q82 0 137.5 55.5t55.5 155.5v582h196v-975h-196v102h-4q-92 -115 -252 -114q-115 0 -221.5 86t-106.5 252zM306 1382h252l170 -282h-156z" />
<glyph unicode="&#xfa;" horiz-adv-x="1034" d="M129 326v649h197v-582q0 -100 55 -155.5t139 -55.5q82 0 137.5 55.5t55.5 155.5v582h196v-975h-196v102h-4q-92 -115 -252 -114q-115 0 -221.5 86t-106.5 252zM306 1100l174 282h248l-265 -282h-157z" />
<glyph unicode="&#xfb;" horiz-adv-x="1034" d="M129 326v649h197v-582q0 -100 55 -155.5t139 -55.5q82 0 137.5 55.5t55.5 155.5v582h196v-975h-196v102h-4q-92 -115 -252 -114q-115 0 -221.5 86t-106.5 252zM221 1133l215 280h164l213 -280h-152l-147 196l-143 -196h-150z" />
<glyph unicode="&#xfc;" horiz-adv-x="1034" d="M129 326v649h197v-582q0 -100 55 -155.5t139 -55.5q82 0 137.5 55.5t55.5 155.5v582h196v-975h-196v102h-4q-92 -115 -252 -114q-115 0 -221.5 86t-106.5 252zM248 1192v207h207v-207h-207zM586 1192v207h209v-207h-209z" />
<glyph unicode="&#xfd;" horiz-adv-x="856" d="M-12 975h209l231 -684h4l232 684h206l-419 -1178q-43 -113 -115 -153.5t-160 -40.5h-65v186h57q88 0 117 86l55 162zM215 1100l174 282h248l-265 -282h-157z" />
<glyph unicode="&#xfe;" horiz-adv-x="731" d="M88 -379v1739h115v-479q47 72 82 96q47 31 106 31q84 0 151.5 -65.5t101.5 -183.5t34 -259q0 -154 -38 -272.5t-109.5 -184.5t-147.5 -66q-55 0 -100 31q-33 25 -80 94v-481h-115zM190 487q0 -190 54.5 -280t130.5 -90t131 93t55 292q0 188 -53 281.5t-127 93.5 q-78 0 -134.5 -100t-56.5 -290z" />
<glyph unicode="&#xff;" horiz-adv-x="856" d="M-12 975h209l231 -684h4l232 684h206l-419 -1178q-43 -113 -115 -153.5t-160 -40.5h-65v186h57q88 0 117 86l55 162zM158 1192v207h207v-207h-207zM496 1192v207h209v-207h-209z" />
<glyph unicode="&#x152;" horiz-adv-x="1409" d="M86 684q0 317 96 504q104 207 310 207q172 0 237 -154v131h592v-186h-442v-367h288v-184h-288v-449h467v-186h-617v123q-92 -145 -240 -146q-203 0 -307 205q-96 184 -96 502zM279 688q0 -217 47 -354q55 -164 170 -164q211 0 211 514q0 217 -50 354q-57 164 -170 164 q-209 0 -208 -514z" />
<glyph unicode="&#x153;" horiz-adv-x="1390" d="M76 510q0 264 96 405q94 135 266 136q182 0 262 -164q86 164 261 164q158 0 253 -131q101 -144 101 -402q0 -47 -2 -67h-527q16 -291 191 -291q100 0 182 76l113 -121q-121 -137 -299 -138q-193 0 -271 168q-84 -168 -270 -168q-164 0 -258 134q-98 137 -98 399zM260 514 q0 -354 178 -354q84 0 130 95t46 259q0 356 -178 356q-176 0 -176 -356zM788 614h340q-4 117 -49 188.5t-123 71.5q-145 0 -168 -260z" />
<glyph unicode="&#x178;" horiz-adv-x="964" d="M-27 1370h220l290 -608l291 608h221l-413 -807v-563h-197v563zM211 1563v207h207v-207h-207zM549 1563v207h209v-207h-209z" />
<glyph unicode="&#x2c6;" horiz-adv-x="1028" d="M219 1133l215 280h164l213 -280h-152l-147 196l-143 -196h-150z" />
<glyph unicode="&#x2dc;" horiz-adv-x="753" d="M49 1120q16 102 72 164q55 59 141 59q39 0 70 -10q41 -10 65 -24q33 -16 64 -25q27 -14 55 -14q29 -2 55 18q25 16 33 68h113q-14 -92 -62 -156q-51 -70 -143 -70q-37 0 -72 15q-35 10 -69 20q-72 35 -129 37q-18 0 -49 -14q-31 -23 -31 -68h-113z" />
<glyph unicode="&#x2000;" horiz-adv-x="952" />
<glyph unicode="&#x2001;" horiz-adv-x="1904" />
<glyph unicode="&#x2002;" horiz-adv-x="952" />
<glyph unicode="&#x2003;" horiz-adv-x="1904" />
<glyph unicode="&#x2004;" horiz-adv-x="634" />
<glyph unicode="&#x2005;" horiz-adv-x="476" />
<glyph unicode="&#x2006;" horiz-adv-x="317" />
<glyph unicode="&#x2007;" horiz-adv-x="317" />
<glyph unicode="&#x2008;" horiz-adv-x="238" />
<glyph unicode="&#x2009;" horiz-adv-x="380" />
<glyph unicode="&#x200a;" horiz-adv-x="105" />
<glyph unicode="&#x2010;" horiz-adv-x="784" d="M104 434v197h580v-197h-580z" />
<glyph unicode="&#x2011;" horiz-adv-x="784" d="M104 434v197h580v-197h-580z" />
<glyph unicode="&#x2012;" horiz-adv-x="784" d="M104 434v197h580v-197h-580z" />
<glyph unicode="&#x2013;" horiz-adv-x="1048" d="M63 438v185h934v-185h-934z" />
<glyph unicode="&#x2014;" horiz-adv-x="1918" d="M43 438v185h1872v-185h-1872z" />
<glyph unicode="&#x2018;" horiz-adv-x="374" d="M96 1030v197l189 143v-340h-189z" />
<glyph unicode="&#x2019;" horiz-adv-x="374" d="M96 1030v340h189v-196z" />
<glyph unicode="&#x201a;" horiz-adv-x="393" d="M100 -74v264h148v-190z" />
<glyph unicode="&#x201c;" horiz-adv-x="641" d="M68 1030v197l190 143v-340h-190zM367 1030v197l190 143v-340h-190z" />
<glyph unicode="&#x201d;" horiz-adv-x="622" d="M78 1030v340h188v-196zM375 1030v340h190v-196z" />
<glyph unicode="&#x201e;" horiz-adv-x="587" d="M100 -74v264h148v-190zM346 -74v264h146v-190z" />
<glyph unicode="&#x2022;" horiz-adv-x="765" d="M63 682q0 147 99 244q94 98 235 100q141 -2 236 -100q94 -98 96 -244q-2 -143 -96 -242q-94 -98 -236 -100q-143 2 -235 100q-99 99 -99 242z" />
<glyph unicode="&#x2026;" horiz-adv-x="1181" d="M98 0v195h197v-195h-197zM492 0v195h198v-195h-198zM887 0v195h194v-195h-194z" />
<glyph unicode="&#x202f;" horiz-adv-x="380" />
<glyph unicode="&#x2039;" horiz-adv-x="487" d="M109 418v174l245 256v-166l-155 -176l155 -170v-170z" />
<glyph unicode="&#x203a;" horiz-adv-x="487" d="M133 166v164l156 180l-156 170v170l248 -252v-176z" />
<glyph unicode="&#x205f;" horiz-adv-x="476" />
<glyph unicode="&#x20ac;" horiz-adv-x="1529" d="M80 496l59 125h140q-2 25 -3 61q0 37 3 61h-199l59 125h164q53 233 236.5 365.5t425.5 132.5q141 0 277 -54.5t214 -150.5l-55 -119q-76 86 -191.5 143.5t-263.5 57.5q-184 0 -321.5 -107.5t-184.5 -267.5h881l-61 -125h-846q-4 -49 -4 -63q0 -16 4 -59h790l-59 -125 h-705q55 -174 194.5 -276.5t330.5 -102.5q133 0 246.5 53t189.5 141v-166q-76 -61 -193.5 -106t-249.5 -45q-238 0 -420 134t-235 368h-223z" />
<glyph unicode="&#x2122;" horiz-adv-x="1802" d="M82 1233v137h608v-137h-233v-660h-146v660h-229zM829 573v797h228l215 -588l215 588h229v-797h-145v648h-4l-246 -648h-96l-248 648h-4v-648h-144z" />
<glyph unicode="&#x25fc;" horiz-adv-x="972" d="M0 0v973h973v-973h-973z" />
</font>
</defs>
</svg>
