<?xml version="1.0" standalone="no"?>
<!DOCTYPE svg PUBLIC "-//W3C//DTD SVG 1.1//EN" "http://www.w3.org/Graphics/SVG/1.1/DTD/svg11.dtd" >
<svg xmlns="http://www.w3.org/2000/svg">
<metadata></metadata>
<defs>
<font id="roadgeek_2005_new_parksRg" horiz-adv-x="1146" >
<font-face units-per-em="2048" ascent="1638" descent="-410" />
<missing-glyph horiz-adv-x="471" />
<glyph unicode="&#xfb01;" horiz-adv-x="1378" d="M51 879v96h47q62 0 87 21.5t38 70.5q66 241 201.5 367.5t363.5 126.5q153 0 251 -61t98 -152q0 -72 -39 -111t-99 -39q-49 0 -79 18t-40.5 44.5t-21 57.5t-20.5 57.5t-39.5 44.5t-77.5 18q-64 0 -111 -22.5t-73 -63.5t-38 -90.5t-12 -110.5v-156h414q87 0 156 7.5 t90 15.5l33 -23v-821q0 -26 7 -43t16.5 -26t32 -13.5t39 -5t52.5 -0.5v-86q-27 0 -146 3t-137 3q-21 0 -138 -3t-140 -3v86q32 0 47 0.5t36 5t29.5 14t15.5 27.5t7 45v584q0 117 -86 117h-328v-703q0 -19 4 -33t8.5 -24t17.5 -16t22.5 -9.5t33 -5t38.5 -2t48 -0.5v-86 q-153 6 -311 6q-152 0 -287 -6v86q35 0 51.5 0.5t40 5t34 14t18.5 27t8 43.5v703h-162z" />
<glyph unicode="&#xfb02;" horiz-adv-x="1384" d="M59 879v96h47q62 0 87 21.5t38 70.5q66 241 202 367.5t364 126.5q139 0 227 -45q73 17 115 36l47 -20v-1360q0 -25 9 -42t20 -25.5t34 -13t38.5 -5t45.5 -0.5v-86q-123 6 -282 6q-160 0 -289 -6v86q27 0 40.5 0.5t34.5 3t31 8t21 15t15.5 25.5t4.5 38v703h-413v-703 q0 -22 4.5 -38t17.5 -25.5t24 -15t38 -8t45 -3t57 -0.5v-86q-153 6 -326 6q-151 0 -286 -6v86q35 0 51.5 0.5t40 5t33.5 14t18 27t8 43.5v703h-162zM496 995h413v230q-22 30 -38.5 73.5t-25 71t-37 48t-79.5 20.5q-233 0 -233 -297v-146z" />
<glyph unicode="&#xfb03;" horiz-adv-x="2037" d="M51 879v96h47q62 0 87 21.5t38 70.5q66 242 200 368t361 126q110 0 198.5 -33.5t125.5 -89.5q78 64 154.5 93.5t185.5 29.5q152 0 250 -60.5t98 -152.5q0 -150 -143 -150q-44 0 -72.5 18t-40 44.5t-23.5 57.5t-23 57.5t-39 44.5t-71 18q-67 0 -115 -24t-72.5 -66.5 t-35 -89t-10.5 -103.5v-160h410q87 0 155.5 7t89.5 16l33 -23v-823q0 -26 7.5 -43t16.5 -26t32 -13.5t39.5 -5t52.5 -0.5v-84q-27 0 -146 3t-137 3q-22 0 -147 -3t-146 -3v84q33 0 49 0.5t39.5 5.5t34 14t19 27t8.5 45v586q0 117 -86 117h-324v-705q0 -27 9 -44t21 -26.5 t41 -14t50 -5t67 -0.5v-84q-153 6 -325 6q-158 0 -287 -6v84q35 0 51 0.5t39.5 5t33.5 14t18 27t8 43.5v705h-390v-705q0 -27 6 -44t14.5 -26.5t32.5 -13.5t43.5 -5t65.5 -1v-84q-153 6 -301 6q-152 0 -287 -6v84q35 0 51.5 0.5t40 5t34 14t18.5 27t8 43.5v705h-162z M487 995h359q24 14 41 72q20 67 47 139q-31 11 -49.5 39t-28 60t-21.5 62.5t-40 50.5t-74 20q-234 0 -234 -283v-160z" />
<glyph unicode="&#xfb04;" horiz-adv-x="2039" d="M51 879v96h47q62 0 87 21.5t38 70.5q66 241 201.5 367.5t363.5 126.5q110 0 196.5 -33.5t123.5 -89.5q78 63 156.5 93t187.5 30q142 0 227 -45q69 15 115 36l47 -20v-1360q0 -25 9 -42t20.5 -25.5t35 -13t38.5 -5t45 -0.5v-86q-123 6 -283 6q-164 0 -287 -6v86 q27 0 40 0.5t33.5 3t30.5 8t21.5 15t16 25.5t4.5 38v703h-414v-703q0 -22 6 -38t21.5 -25.5t29 -15t43 -8t48.5 -3t59 -0.5v-86q-153 6 -344 6q-158 0 -287 -6v86q35 0 51 0.5t39.5 5t33.5 14t18 27t8 43.5v703h-390v-703q0 -27 8 -44t19 -26.5t38.5 -14t48 -5t67.5 -0.5 v-86q-153 6 -320 6q-152 0 -287 -6v86q35 0 51.5 0.5t40 5t34 14t18.5 27t8 43.5v703h-162zM487 995h359q24 14 41 72q16 55 47 139q-31 11 -50 39t-28 60t-21.5 62.5t-40 50.5t-73.5 20q-234 0 -234 -283v-160zM1151 995h414v230q-19 18 -35 57.5t-26.5 72t-40.5 58 t-79 25.5q-67 0 -115 -24t-72.5 -66.5t-35 -89t-10.5 -103.5v-160z" />
<glyph horiz-adv-x="0" />
<glyph horiz-adv-x="682" />
<glyph horiz-adv-x="471" />
<glyph unicode=" "  horiz-adv-x="471" />
<glyph unicode="&#x09;" horiz-adv-x="471" />
<glyph unicode="&#xa0;" horiz-adv-x="471" />
<glyph unicode="!" horiz-adv-x="591" d="M121 156q0 74 50.5 127t123.5 53q71 0 123.5 -53t52.5 -127t-52 -127.5t-124 -53.5t-123 53.5t-51 127.5zM129 1239q0 35 3 62.5t13 59t27 52t48 34t73 13.5t73 -14t47 -35t25.5 -52.5t12 -58t2.5 -61.5q0 -55 -16.5 -147.5t-36 -179.5t-36 -203.5t-16.5 -214.5h-104 q0 121 -29 267.5t-57.5 274t-28.5 203.5z" />
<glyph unicode="&#x22;" horiz-adv-x="1052" d="M188 1321q0 58 33 96.5t98 38.5q62 0 93.5 -38.5t31.5 -96.5q0 -44 -34 -219.5t-68 -284.5h-49q-34 113 -69.5 288t-35.5 216zM608 1321q0 58 32.5 96.5t96.5 38.5t94.5 -38t30.5 -97q0 -43 -35 -218.5t-69 -285.5h-45q-34 111 -69.5 286t-35.5 218z" />
<glyph unicode="#" horiz-adv-x="1261" d="M72 385v170h215l53 309h-236v170h261l75 422h174l-69 -422h295l67 422h176l-71 -422h184v-170h-215l-47 -309h231v-170h-262l-69 -416h-177l74 416h-299l-74 -416h-174l70 416h-182zM463 557h295l51 307h-295z" />
<glyph unicode="$" d="M111 63v334h90q19 -89 54.5 -161t82.5 -99l74 496q-291 151 -291 403q0 175 109 286t298 130l17 119l65 -119q48 0 107 -12l96 131l-22 -148q59 -12 153 -43l10 -309h-94q-24 138 -88 211l-63 -451q57 -34 98.5 -62t87 -69t73 -83.5t46 -99.5t18.5 -122q0 -193 -122 -302 t-328 -120l-105 -168l27 168q-33 0 -107 9l-106 -177l28 191q-136 29 -208 67zM385 1149q0 -101 76 -174l55 381q-131 -39 -131 -207zM414 94q45 -20 102 -26l68 477q-50 31 -101 51zM535 922q51 -32 98 -52l63 471q-43 22 -100 25zM596 74q71 7 112.5 63t41.5 139 q0 137 -91 216z" />
<glyph unicode="%" horiz-adv-x="1740" d="M88 1096q0 48 11 100.5t36.5 106t62.5 95.5t93.5 68.5t124.5 26.5q70 0 127 -25t93 -64.5t61 -91t35.5 -102t10.5 -100.5t-10.5 -104t-35.5 -110t-61 -100t-93.5 -72t-126.5 -28t-126.5 26.5t-94 68.5t-61.5 96t-35.5 106.5t-10.5 102.5zM180 -43l1194 1507h125 l-1196 -1507h-123zM287 1090q0 -312 129 -312q127 0 127 305v54q0 274 -127 274q-30 0 -53.5 -15.5t-36.5 -44.5t-22 -57.5t-12 -68.5t-4 -63.5t-1 -55.5v-16zM997 385q0 48 11 100.5t36.5 106t62.5 95.5t93.5 68.5t124.5 26.5q70 0 127 -25t93.5 -64.5t61.5 -91t35.5 -102 t10.5 -100.5t-10.5 -103.5t-35.5 -110t-61.5 -100t-94 -71.5t-126.5 -28t-126.5 26.5t-94 68.5t-61.5 95.5t-35.5 106t-10.5 102.5zM1196 379q0 -311 129 -311q127 0 127 305v53q0 274 -127 274q-30 0 -53.5 -15.5t-36.5 -44.5t-22 -57.5t-12 -68.5t-4 -63.5t-1 -55.5v-16z " />
<glyph unicode="&#x26;" horiz-adv-x="1777" d="M100 362q0 142 103.5 265.5t279.5 218.5q-77 84 -114 155.5t-37 143.5q0 89 57.5 169t148 126.5t187.5 46.5q112 0 205.5 -72t93.5 -180q0 -87 -62 -155t-174 -138q215 -169 396 -420q59 77 114.5 179t55.5 155q0 25 -9.5 43t-22 27t-32.5 13.5t-32.5 5.5t-30.5 1v72 q264 -8 268 -8q37 0 127 3t107 3v-80q-58 0 -114 -31.5t-108 -89.5t-93.5 -114t-93.5 -132t-85 -116q23 -36 37 -57.5t41.5 -61.5t48.5 -65.5t50.5 -57.5t55.5 -51t55.5 -32t57.5 -13q104 0 156 14l30 -51q-137 -115 -354 -115q-59 0 -108 16.5t-92.5 53.5t-78 78t-81.5 108 q-251 -248 -525 -248q-99 0 -181 31.5t-135.5 85.5t-82.5 124.5t-29 149.5zM360 526q0 -155 100.5 -269t250.5 -114q80 0 146 39t134 115q-62 93 -220 272t-230 222q-91 -65 -136 -126.5t-45 -138.5zM549 1260q0 -30 10 -59t23 -52t40 -52t47.5 -49t57.5 -53q133 90 133 195 q0 31 -9.5 63.5t-29 63t-55 50t-80.5 19.5q-57 0 -97 -37t-40 -89z" />
<glyph unicode="'" horiz-adv-x="598" d="M172 1321q0 58 31.5 96.5t93.5 38.5q66 0 97.5 -38t31.5 -97q0 -43 -35 -218.5t-69 -285.5h-46q-34 110 -69 285.5t-35 218.5z" />
<glyph unicode="(" horiz-adv-x="772" d="M147 543q0 513 469 946l72 -66q-287 -388 -287 -878q0 -249 74 -477t213 -402l-76 -72q-206 161 -335.5 410.5t-129.5 538.5z" />
<glyph unicode=")" horiz-adv-x="772" d="M92 -340q146 181 220.5 406.5t74.5 472.5q0 491 -289 884l72 66q207 -172 339 -423.5t132 -522.5q0 -284 -130.5 -534t-336.5 -415z" />
<glyph unicode="*" horiz-adv-x="770" d="M59 1206q0 38 26 65t58 27t60 -17.5t69.5 -52.5t77.5 -57l6 3q-9 37 -24.5 83t-25 76t-9.5 49q0 39 20.5 65t61.5 26q44 0 64 -25.5t20 -65.5q0 -19 -7.5 -46.5t-25.5 -80t-27 -79.5l11 -5q37 22 78.5 57t70 52.5t62.5 17.5q30 0 52.5 -27t22.5 -63q0 -46 -33.5 -67 t-82.5 -21q-15 0 -55 4t-70 4q-19 0 -29 -2l-6 -12q27 -26 65 -50.5t63 -38.5t43.5 -39.5t18.5 -59.5q0 -31 -23.5 -56.5t-55.5 -25.5q-35 0 -56.5 13.5t-32.5 40t-17 54.5t-16.5 68t-25.5 70h-12q-16 -34 -28.5 -85t-19.5 -82t-30.5 -55t-63.5 -24q-35 0 -58 26.5t-23 57.5 q0 34 18 59t42 38.5t61.5 38t64.5 50.5l-2 10q-18 2 -53 2q-23 0 -53 -2t-40 -2q-131 0 -131 84z" />
<glyph unicode="+" horiz-adv-x="1226" d="M117 498v194h430v438h190v-438h424v-194h-424v-439h-190v439h-430z" />
<glyph unicode="," horiz-adv-x="608" d="M88 -303q213 75 213 223q0 103 -86 103q-45 0 -82 38t-37 101q0 73 50 118.5t124 45.5q98 0 146.5 -75t48.5 -198q0 -173 -104 -288.5t-248 -135.5z" />
<glyph unicode="-" horiz-adv-x="872" d="M121 410l16 215q90 -4 289 -4q152 0 328 4l-19 -215q-212 4 -297 4q-219 0 -317 -4z" />
<glyph unicode="." horiz-adv-x="624" d="M141 152q0 71 50.5 122.5t119.5 51.5t119.5 -51t50.5 -123t-50 -124.5t-120 -52.5q-68 0 -119 52.5t-51 124.5z" />
<glyph unicode="/" horiz-adv-x="831" d="M59 -33l496 1587h215l-494 -1587h-217z" />
<glyph unicode="0" d="M82 745q0 108 17 211t56 200t95 170t140.5 117t187.5 44q85 0 158 -30.5t125 -85t92 -125.5t64 -155t36 -170.5t12 -175.5q0 -113 -17 -221t-55.5 -209t-94.5 -177t-140 -121.5t-187 -45.5q-89 0 -164 32t-127 88.5t-91.5 130t-62 162t-33.5 178t-11 183.5zM381 739 q0 -51 0.5 -81t1.5 -84t3.5 -89t7 -85.5t12 -84t17.5 -73.5t25 -65.5t33 -48t42 -33.5t52 -11t51.5 11t41.5 35t32 50.5t24 67.5t17.5 76t12 86.5t7 87.5t3.5 91.5t1.5 85.5t0.5 81v35q0 52 -0.5 85t-1.5 82.5t-4 82t-7.5 75.5t-11.5 71.5t-17 61t-24 53t-31.5 38.5 t-40.5 26t-50 8q-29 0 -53 -8.5t-42.5 -27.5t-33 -40t-25 -55.5t-18 -63t-12 -74t-7.5 -78t-4 -85t-1.5 -84.5t-0.5 -86v-33z" />
<glyph unicode="1" d="M201 1225q113 49 234.5 122t199.5 142l98 -16v-1301q0 -55 31 -67.5t125 -12.5h57v-92q-42 0 -185.5 3t-168.5 3q-26 0 -169 -3t-185 -3v92h73q41 0 60.5 1t42 4.5t32 12t15.5 23t6 37.5v1065q-31 -20 -107 -53t-120 -45z" />
<glyph unicode="2" d="M68 0v119q91 84 172.5 168.5t164.5 184.5t142.5 192t97 188t37.5 174q0 64 -10.5 110t-35.5 82.5t-71.5 55t-115.5 18.5q-73 0 -149.5 -49t-135.5 -123l-76 60q86 143 208.5 225t274.5 82q165 0 282.5 -113t117.5 -274q0 -139 -75 -279t-206 -258l-350 -311h506 q38 0 60 28.5t46 88.5h95l-84 -369h-895z" />
<glyph unicode="3" horiz-adv-x="1130" d="M68 137l69 82q4 -3 26 -24t26.5 -25t24 -20.5t28 -20.5t27.5 -15.5t33.5 -15t35.5 -9.5t43.5 -7.5t48.5 -1.5q124 0 200.5 82.5t76.5 212.5q0 160 -83.5 242.5t-242.5 82.5q-39 0 -88 -6l-17 97q158 24 257.5 113.5t99.5 215.5q0 98 -50 146.5t-163 48.5 q-65 0 -116.5 -31t-129.5 -106l-72 65q193 244 459 244q95 0 179.5 -34.5t139 -101t54.5 -149.5q0 -119 -67 -202.5t-195 -145.5l2 -4q158 -23 248 -114t90 -230q0 -147 -76 -269.5t-212.5 -194t-305.5 -71.5q-116 0 -205.5 50.5t-144.5 115.5z" />
<glyph unicode="4" d="M57 401v140l656 946h164v-903h51q37 0 54.5 8.5t41.5 40.5l63 -64l-73 -168h-137v-225q0 -21 3 -35.5t12.5 -23.5t18 -14.5t30 -7.5t36 -2.5t47.5 -0.5h47v-92q-33 0 -155.5 3t-149.5 3q-31 0 -175.5 -3t-172.5 -3v92h59q30 0 44.5 0.5t35.5 2.5t30.5 7t20.5 13.5 t15 22.5t4 34v229h-570zM203 584h424v612h-4z" />
<glyph unicode="5" d="M53 133l64 76q70 -65 141 -96t158 -31q128 0 194 101.5t66 293.5q0 177 -89 264.5t-239 87.5q-68 0 -145 -20l-47 31l176 616h659l-51 -221h-553l-51 -197q11 3 55.5 7t67.5 4q249 0 383.5 -140t134.5 -393q0 -238 -155.5 -391.5t-411.5 -153.5q-200 0 -357 162z" />
<glyph unicode="6" d="M104 565q0 176 58 330.5t150 261t206.5 183.5t228 113t214.5 36l14 -94q-254 -37 -404 -196.5t-176 -416.5h8q36 49 59.5 72t69 40t113.5 17q97 0 175 -38t125.5 -101t72 -140t24.5 -161q0 -94 -28 -180t-83.5 -159t-150 -117t-215.5 -44q-214 0 -337.5 161t-123.5 433z M406 525.5q0 -28.5 1 -76t3.5 -75t6.5 -67.5t10 -63t15 -52.5t21 -46t27.5 -32.5t36 -22.5t44.5 -6.5q50 0 85 25.5t52.5 73.5t25 103.5t7.5 127.5q0 56 -2 96t-8.5 83t-19 71t-32 52t-49 35t-69.5 11q-95 0 -155 -135v-21v-80.5z" />
<glyph unicode="7" d="M115 1124l73 338h879l63 -104q-95 -105 -181 -238.5t-165 -303.5t-132 -381.5t-68 -434.5h-265q12 168 59 340.5t110.5 310t138.5 260.5t141 203.5t119 126.5h-547q-32 0 -57 -13.5t-39.5 -36t-21.5 -43t-11 -42.5z" />
<glyph unicode="8" d="M121 313q0 129 65 222t209 163q-65 48 -105.5 84.5t-76 83t-51 99.5t-15.5 120q0 75 24 140.5t66.5 113t99 81t121.5 50.5t134 17q165 0 275 -91t110 -241q0 -108 -70.5 -199t-199.5 -157q140 -50 228.5 -167t88.5 -253q0 -118 -65 -212t-173.5 -145t-238.5 -51 q-202 0 -314 97.5t-112 244.5zM303 342q0 -127 63.5 -192.5t184.5 -65.5q94 0 146.5 65t52.5 181q0 103 -61 168t-212 141q-82 -57 -128 -133.5t-46 -163.5zM395 1159q0 -45 10.5 -80.5t26.5 -61.5t49.5 -52.5t64 -45.5t85.5 -49q74 46 117 121.5t43 163.5 q0 110 -47.5 164.5t-155.5 54.5q-90 0 -141.5 -59.5t-51.5 -155.5z" />
<glyph unicode="9" d="M102 991q0 99 31 187.5t89.5 158.5t152.5 111t211 41q218 0 338 -152.5t120 -439.5q0 -148 -40.5 -281t-108.5 -232t-155.5 -179t-183.5 -129.5t-189.5 -76t-176.5 -26.5l-18 95q241 36 396.5 194.5t181.5 409.5h-9q-51 -62 -101 -88.5t-134 -26.5q-122 0 -216 64 t-141 161.5t-47 208.5zM403 1049q0 -349 187 -349q48 0 92 38t61 96v65q0 66 -0.5 106t-2.5 92t-7 82.5t-12.5 66.5t-19.5 56t-29 38.5t-40 26t-52 7.5q-96 0 -136.5 -79t-40.5 -246z" />
<glyph unicode=":" horiz-adv-x="624" d="M119 152q0 71 50.5 122.5t119.5 51.5t119.5 -51t50.5 -123t-50 -124.5t-120 -52.5q-68 0 -119 52.5t-51 124.5zM119 758q0 71 50.5 123.5t119.5 52.5t119.5 -52t50.5 -124t-50 -123t-120 -51q-68 0 -119 51.5t-51 122.5z" />
<glyph unicode=";" horiz-adv-x="624" d="M80 -303q36 13 59.5 22.5t61 30t59.5 42t39.5 55.5t17.5 73q0 54 -29 78.5t-73 24.5q-45 0 -82 38t-37 101q0 73 49.5 118.5t120.5 45.5q99 0 151 -76t52 -197q0 -114 -54.5 -208.5t-136.5 -148.5t-174 -67zM111 758q0 71 50 123.5t120 52.5q69 0 120.5 -52t51.5 -124 t-50.5 -123t-121.5 -51q-69 0 -119.5 51t-50.5 123z" />
<glyph unicode="&#x3c;" horiz-adv-x="1226" d="M80 514v164l1053 459v-205l-787 -336l787 -336v-205z" />
<glyph unicode="=" horiz-adv-x="1226" d="M117 274v195h1048v-195h-1048zM117 725v195h1048v-195h-1048z" />
<glyph unicode="&#x3e;" horiz-adv-x="1226" d="M117 55v205l788 336l-788 336v205l1050 -459v-164z" />
<glyph unicode="?" horiz-adv-x="894" d="M121 1305q0 56 54 93.5t126 37.5q76 0 158.5 -40.5t151.5 -108t114 -168t45 -210.5q0 -125 -82.5 -201.5t-255.5 -123.5q-23 -6 -43 -26t-20 -38v-76h-97v361l29 35q332 103 332 207q0 81 -55 138.5t-136 57.5q-51 0 -113 -31.5t-96 -31.5q-49 0 -80.5 33.5t-31.5 91.5z M172 152q0 71 51 122.5t121 51.5t121 -51t51 -123t-51 -124.5t-121 -52.5q-69 0 -120.5 52.5t-51.5 124.5z" />
<glyph unicode="@" horiz-adv-x="1998" d="M160 604q0 198 73.5 371t198.5 293.5t295.5 190t359.5 69.5q340 0 546 -193t206 -506q0 -183 -64 -334t-183.5 -240t-272.5 -89q-60 0 -123 48t-63 126q0 45 2 55h-5q-57 -103 -136.5 -166t-176.5 -63q-93 0 -159 67.5t-66 200.5q0 131 45.5 257t119 218.5t169.5 149.5 t192 57q127 0 152 -121h2l26 90h203l-158 -647q-12 -60 -12 -78q0 -40 22.5 -58.5t57.5 -18.5q50 0 105.5 41t102 109.5t77 171t30.5 214.5q0 270 -168 427t-460 157q-225 0 -395.5 -102t-262.5 -287t-92 -428q0 -157 49.5 -290t139.5 -229t224 -150t296 -54q204 0 378 82.5 t279 232.5l66 -63q-116 -175 -306 -272t-417 -97q-178 0 -327 47.5t-253 129.5t-176.5 191.5t-106.5 233.5t-34 256zM852 481q0 -69 21 -101t71 -32q35 0 83.5 44.5t92.5 114.5t74.5 167.5t30.5 191.5q0 129 -82 129q-64 0 -133 -83t-113.5 -204t-44.5 -227z" />
<glyph unicode="A" horiz-adv-x="1517" d="M10 0v92q81 0 117.5 27.5t65.5 103.5l352 973q6 16 18.5 47.5t18 48t11 37.5t5.5 35q0 46 -14 70q40 3 150 21.5t145 27.5l473 -1299q10 -26 14.5 -37.5t14 -25t16.5 -17t24.5 -7.5t34.5 -4.5t51 -0.5v-92q-33 0 -158.5 3t-148.5 3t-162.5 -3t-175.5 -3v92h35.5t34.5 1.5 t34.5 5t26 9t19.5 15t6 22.5q0 26 -45 158l-80 229h-477l-76 -241q-29 -106 -29 -156q0 -15 10.5 -24.5t32 -13t36 -4.5t40.5 -1v-92q-86 4 -194 4q-148 0 -226 -4zM459 645h393l-199 535h-6z" />
<glyph unicode="B" horiz-adv-x="1460" d="M72 1364v92q30 0 153.5 -2t151.5 -2q11 0 157 5t222 5q64 0 121.5 -4.5t127 -16.5t125.5 -36.5t104 -60.5t74.5 -93t26.5 -129q0 -141 -98.5 -226t-269.5 -118v-4q195 -12 318.5 -108t123.5 -258q0 -89 -39 -161t-100.5 -118t-142 -76.5t-159.5 -43.5t-157 -13 q-86 0 -239.5 5t-165.5 5q-33 0 -172 -3t-158 -3v92q34 0 50.5 0.5t41.5 2.5t36.5 7.5t24.5 14.5t18 23.5t5 35.5v1104q0 25 -9 41t-21 24.5t-40 13t-47.5 5t-62.5 0.5zM565 197q0 -57 29.5 -69.5t130.5 -12.5h51q143 0 222 73.5t79 208.5q0 147 -92 228.5t-246 81.5h-174 v-510zM565 813h168q126 0 198.5 68t72.5 192q0 137 -76.5 202.5t-212.5 65.5q-40 0 -150 -4v-524z" />
<glyph unicode="C" horiz-adv-x="1558" d="M82 725q0 161 59.5 301.5t165.5 242t259.5 160t332.5 58.5q77 0 145.5 -8t144.5 -29.5t117 -35t134 -46.5l26 -342h-118q-15 65 -32 111t-50.5 94t-79.5 77t-119 47.5t-170 18.5q-215 0 -344 -165t-129 -445q0 -193 59.5 -346t175.5 -243.5t271 -90.5q199 0 296.5 89.5 t125.5 268.5l106 -10l-12 -330q-103 -62 -248 -96.5t-285 -34.5q-173 0 -322 47t-263.5 138t-180 237t-65.5 332z" />
<glyph unicode="D" horiz-adv-x="1708" d="M72 0v92q34 0 50.5 0.5t42 2.5t37 7.5t25 14.5t18.5 23.5t5 35.5v1104q0 25 -9 41t-21 24.5t-39.5 13t-47 5t-61.5 0.5v92q10 0 135 -2t164 -2q11 0 141 2t207 2q122 0 230.5 -15.5t212.5 -48.5t187 -89.5t146 -133.5t97 -186t34 -242q0 -191 -62 -336.5t-174 -234.5 t-258.5 -133.5t-324.5 -44.5q-67 0 -208.5 7t-195.5 7q-40 0 -182.5 -3t-148.5 -3zM563 203q0 -25 9 -41.5t22 -26t43 -14t57.5 -5.5t79.5 -1h72q82 0 154 33t123.5 89t88.5 130t55.5 157.5t18.5 169.5q0 114 -19 209.5t-62.5 178t-109.5 139.5t-164 89.5t-222 32.5 q-71 0 -146 -6v-1134z" />
<glyph unicode="E" horiz-adv-x="1411" d="M72 0v92q40 0 59.5 0.5t47 5t40 13t22 24.5t9.5 41v1104q0 21 -5.5 35.5t-19 23.5t-25.5 14.5t-37.5 7.5t-41.5 2.5t-49 0.5v92q26 0 154.5 -2t174.5 -2q117 0 435 5.5t432 6.5l18 -352l-92 -20q-38 118 -63 157q-49 77 -155 89q-25 3 -54 3h-359v-528h311q89 0 120.5 47 t31.5 137h100q-8 -81 -8 -239q0 -160 8 -244h-100q0 111 -29 147.5t-127 36.5h-307v-497q0 -58 42 -72t173 -14h137q85 0 140.5 13.5t98 49t71.5 86t63 137.5l92 -26q-10 -38 -35.5 -184t-31.5 -199q-108 0 -465 7t-440 7q-50 0 -181 -3t-155 -3z" />
<glyph unicode="F" horiz-adv-x="1312" d="M72 0v92h59.5t47 5t40 13.5t22 24.5t9.5 41v1104q0 21 -5 35.5t-18.5 23.5t-25 14.5t-37 7.5t-42 2.5t-50.5 0.5v92q26 0 155.5 -2t175.5 -2q133 0 441 5.5t403 6.5l15 -350l-99 -18l-14.5 58t-15 50.5t-20 47.5t-26 35.5t-36.5 30t-48 16.5t-63 7h-377v-522h293 q51 0 81.5 9t46 31.5t20 49t4.5 72.5h100q-8 -156 -8 -225q0 -166 8 -256h-100q0 51 -5 83.5t-19.5 62.5t-46 44.5t-81.5 14.5h-293v-529q0 -21 6 -35.5t22 -23.5t30.5 -14.5t45.5 -7.5t51.5 -2.5t63.5 -0.5v-92q-61 0 -208.5 3t-170.5 3t-157.5 -3t-173.5 -3z" />
<glyph unicode="G" horiz-adv-x="1691" d="M82 727q0 221 107.5 395t296.5 269.5t425 95.5q88 0 194.5 -17.5t167.5 -33.5t189 -52l25 -346h-121q-46 176 -152.5 256t-302.5 80q-227 0 -356 -164.5t-129 -449.5q0 -195 58.5 -346t177 -240.5t282.5 -89.5q59 0 121 12.5t94 34.5v344q0 21 -4 36t-17 24.5t-24 15 t-37.5 7.5t-44.5 2.5t-57 0.5v105q110 -4 348 -4q203 0 297 4v-103q-31 0 -44 -0.5t-35.5 -2t-32 -5.5t-21 -11t-15.5 -18.5t-4 -27.5v-211q0 -108 27 -187l-20 -37q-117 -41 -274 -66.5t-304 -25.5q-243 0 -426 88.5t-286 260.5t-103 407z" />
<glyph unicode="H" horiz-adv-x="1814" d="M72 0v92q34 0 50.5 0.5t43 2.5t39.5 7.5t28 14.5t21 24t6 35v1106q0 20 -5.5 34.5t-19.5 23.5t-26.5 14t-39 7t-44 2.5t-53.5 0.5v92q18 0 162.5 -3t171.5 -3q30 0 185.5 3t176.5 3v-92q-36 0 -53 -0.5t-44 -2.5t-40 -7.5t-27.5 -14.5t-20 -23.5t-5.5 -35.5v-465h663v465 q0 21 -5.5 35.5t-20.5 23.5t-28 14.5t-40 7.5t-44.5 2.5t-53.5 0.5v92q21 0 173.5 -3t182.5 -3q29 0 174 3t164 3v-92q-37 0 -54.5 -0.5t-44.5 -3t-39.5 -8.5t-26.5 -17t-19 -28t-5 -41v-1090q0 -21 5.5 -35.5t19.5 -23.5t26.5 -14.5t39 -7.5t44 -2.5t54.5 -0.5v-92 q-19 0 -163 3t-173 3t-180 -3t-172 -3v92q34 0 50.5 0.5t43 2.5t39.5 7.5t27 14.5t20 24t6 35v510h-663v-510q0 -21 5.5 -35.5t19.5 -23.5t26.5 -14.5t39.5 -7.5t44.5 -2.5t54.5 -0.5v-92q-21 0 -176.5 3t-185.5 3q-27 0 -171.5 -3t-162.5 -3z" />
<glyph unicode="I" horiz-adv-x="819" d="M72 0v92h48t41.5 2.5t38 8t26.5 14.5t20 24t6 35v1106q0 20 -5.5 34.5t-19 23.5t-25.5 14t-37.5 7t-42 2.5t-50.5 0.5v92q18 0 160 -3t169 -3t175.5 3t171.5 3v-92q-34 0 -50.5 -0.5t-42 -2.5t-38 -7.5t-26 -14.5t-19 -23.5t-5.5 -35.5v-1104q0 -21 5.5 -35.5t19.5 -23.5 t26.5 -14.5t38 -7.5t42 -2.5t49.5 -0.5v-92q-26 0 -170 3t-170 3q-27 0 -173 -3t-163 -3z" />
<glyph unicode="J" horiz-adv-x="815" d="M-156 -258q0 49 33.5 85t97.5 36q36 0 56.5 -20t28.5 -48.5t16.5 -57.5t30 -49t59.5 -20q43 0 66.5 48t23.5 118v1446q0 20 -6.5 35t-21.5 24t-29 14.5t-40.5 7.5t-42.5 2.5t-48 0.5v92q58 0 175 -3t158 -3q42 0 166.5 3t175.5 3v-92q-33 0 -48.5 -0.5t-40 -2.5t-36 -7.5 t-24.5 -14.5t-18 -23.5t-5 -35.5v-1204q0 -232 -126 -374t-365 -142q-98 0 -167 49.5t-69 132.5z" />
<glyph unicode="K" horiz-adv-x="1611" d="M72 0v92h48t41 2.5t37.5 8t26.5 14.5t19.5 24t5.5 35v1106q0 24 -9.5 40t-21.5 24.5t-39.5 12.5t-47 4.5t-60.5 0.5v92q18 0 151 -3t160 -3t184.5 3t180.5 3v-92q-34 0 -50.5 -0.5t-43 -2.5t-39 -7.5t-27 -14.5t-20 -24t-5.5 -35v-498q93 77 261 225.5t208 186.5l12 12 l12.5 12.5t11.5 12t12 13t10.5 12t9.5 12.5t6.5 11t5.5 11t2 10v7q0 32 -21 44.5t-85 12.5v92q23 0 125.5 -3t123.5 -3q16 0 133 3t136 3v-92q-91 0 -133 -12t-119 -68q-31 -23 -217.5 -195t-261.5 -233q55 -53 118.5 -120t143.5 -156t126.5 -142t141 -162t113.5 -131 q32 -36 65.5 -44.5t98.5 -8.5v-92q-18 0 -108 3t-105 3q-13 0 -118 -3t-118 -3q-66 73 -590 657v-481q0 -20 6 -35t20 -24t26.5 -14.5t38.5 -7.5t42 -2.5t49 -0.5v-92q-24 0 -174 3t-176 3q-27 0 -166.5 -3t-156.5 -3z" />
<glyph unicode="L" horiz-adv-x="1349" d="M72 0v92q41 0 60 0.5t46 5t38.5 13t20.5 24.5t9 41v1104q0 20 -6 35t-19.5 24t-26 14.5t-37 7.5t-40 2.5t-45.5 0.5v92q26 0 172.5 -2t175.5 -2q25 0 166 2t168 2v-92q-36 0 -53 -0.5t-44 -2.5t-40 -7.5t-28 -14.5t-20.5 -23.5t-5.5 -35.5v-1047q0 -32 7.5 -54t19 -34.5 t34 -19t44 -8.5t57.5 -2h156q68 0 116.5 10.5t82.5 28t61.5 54.5t46.5 75.5t45 105.5l86 -18q-34 -117 -72 -379q-150 0 -476.5 6t-369.5 6q-40 0 -153.5 -2t-175.5 -2z" />
<glyph unicode="M" horiz-adv-x="2125" d="M51 0v92q104 0 134.5 22.5t41.5 106.5l107 862q16 152 16 166q0 67 -36 91t-128 24v92q30 0 129 -2t117 -2q24 0 114.5 2t112.5 2q4 -63 86.5 -259t189 -434.5t142.5 -338.5q79 215 340 795q78 181 78 237q13 0 96.5 -3t104.5 -3q19 0 140.5 3t137.5 3v-92 q-37 0 -54.5 -0.5t-44.5 -3t-40 -9t-27.5 -17.5t-20 -29t-5.5 -43q0 -29 14 -129l111 -961q2 -20 7.5 -33.5t17 -22.5t21.5 -14t33 -7t38.5 -2.5t50.5 -0.5v-92q-153 6 -322 6q-163 0 -328 -6v92h44t34 2t29 5t18.5 9t13 15.5t3.5 23.5q0 45 -15 203l-63 748h-4 q-13 -28 -88.5 -204.5t-132.5 -301.5q-136 -300 -230 -578l-116 -28q-31 126 -96.5 286t-129.5 290.5t-136 288t-110 265.5h-4l-94 -801q-8 -92 -8 -129q0 -28 7.5 -46t17.5 -28t35.5 -14t44.5 -5t63 -1v-92q-135 6 -225 6q-109 0 -232 -6z" />
<glyph unicode="N" horiz-adv-x="1681" d="M51 0v92q93 0 135 9.5t57 32.5t15 75v999q0 39 -13.5 73.5t-33.5 49.5q-44 33 -160 33v92q20 0 130.5 -3t129.5 -3q18 0 92 3t89 3l823 -962v690q0 43 -2.5 70t-11.5 48.5t-21 32.5t-38 18t-54.5 8.5t-77.5 2.5v92q24 0 135 -3t135 -3q21 0 126 3t124 3v-92 q-46 -1 -75.5 -3t-53.5 -9.5t-36.5 -18t-21 -30.5t-11 -44t-2.5 -63v-924q0 -142 20 -295h-100q-27 37 -61 78t-75.5 89t-62.5 73l-778 946v-913q0 -32 0.5 -47.5t3.5 -36t7.5 -28.5t15.5 -19.5t24.5 -14.5t37 -7t50.5 -4.5t68 -0.5v-92q-23 0 -137 3t-134 3q-27 0 -133 -3 t-125 -3z" />
<glyph unicode="O" horiz-adv-x="1740" d="M82 711q0 169 63.5 315.5t170.5 246.5t249.5 157t298.5 57q117 0 229 -26.5t215 -85t181 -142t124 -207t46 -270.5q0 -163 -56.5 -306.5t-158.5 -249.5t-254 -167.5t-332 -61.5q-118 0 -223.5 26.5t-190.5 74t-153.5 115t-114 149.5t-70 177t-24.5 198zM426 780 q0 -318 122.5 -507t340.5 -189q99 0 175.5 36.5t122 94.5t74.5 140.5t39.5 164.5t10.5 176q0 191 -50 341.5t-155 243.5t-252 93q-109 0 -192.5 -45.5t-134 -127.5t-76 -188t-25.5 -233z" />
<glyph unicode="P" horiz-adv-x="1361" d="M72 0v92q47 0 67 0.5t46 4.5t35.5 12.5t16.5 23.5t7 39v1108q0 59 -33 71.5t-139 12.5v92q9 0 127 -3t176 -3q8 0 144.5 6t197.5 6q85 0 164.5 -11.5t159 -40.5t138.5 -73.5t95.5 -117t36.5 -164.5q0 -93 -31 -169t-82.5 -126.5t-122 -84t-146.5 -48.5t-159 -15 q-25 0 -64.5 9t-54.5 18l15 84q57 -8 94 -8q104 0 162.5 91t58.5 236q0 141 -79.5 221t-231.5 80q-56 0 -111 -6v-1161q0 -21 5.5 -35.5t20.5 -23.5t28 -14.5t43 -7.5t50.5 -2.5t63.5 -0.5v-92q-18 0 -143 3t-193 3q-56 0 -198 -3t-164 -3z" />
<glyph unicode="Q" horiz-adv-x="1738" d="M82 715q0 218 102.5 395t281.5 277t398 100q118 0 231 -27.5t215.5 -86.5t179 -143t122 -205.5t45.5 -266.5q0 -280 -149 -481.5t-402 -270.5q50 -13 110 -49.5t116 -78t115 -82t125.5 -67t129.5 -26.5l10 -70q-109 -47 -223 -47q-106 0 -207.5 31.5t-188.5 83 t-162 105.5t-160.5 112.5t-152.5 89.5q-239 59 -387.5 251t-148.5 456zM428 780q0 -315 121.5 -505.5t333.5 -190.5q111 0 194 46t133 129.5t74.5 192t24.5 242.5q0 141 -29 263t-84.5 215t-143 146.5t-198.5 53.5q-109 0 -192 -45.5t-133.5 -126.5t-75.5 -187t-25 -233z " />
<glyph unicode="R" horiz-adv-x="1550" d="M72 0v92q33 0 49.5 0.5t42 2.5t38.5 7.5t27 14.5t19.5 24t5.5 35v1104q0 21 -4.5 35.5t-17.5 23.5t-24.5 14.5t-37.5 7.5t-43 2.5t-55 0.5v92q6 0 123 -3t178 -3q14 0 158.5 6t205.5 6q602 0 602 -379q0 -133 -89.5 -231t-233.5 -137l389 -555q32 -44 58 -56t87 -12v-92 q-14 0 -100 -6t-104 -6q-58 0 -106 13t-84.5 33.5t-71 56t-60 72t-57.5 89.5l-181 297q-23 37 -34 53.5t-27.5 36t-31 26.5t-31.5 7h-91v-496q0 -16 2 -28t9.5 -20.5t13.5 -15t21 -10t25.5 -6t34 -3.5t38.5 -1h47v-92q-24 0 -172.5 3t-204.5 3q-38 0 -163 -3t-150 -3z M571 791h117q170 0 246 60.5t76 211.5q0 131 -78.5 205.5t-226.5 74.5q-64 0 -134 -4v-548z" />
<glyph unicode="S" horiz-adv-x="1169" d="M92 1061q0 192 142.5 309t367.5 117q80 0 200.5 -23t194.5 -53l13 -317h-113q-11 276 -289 276q-124 0 -186 -63t-62 -158q0 -30 9 -56.5t21.5 -46t37 -39t44.5 -32.5t57 -29t60.5 -25.5t67.5 -25.5q51 -19 89 -35t85.5 -41t81.5 -50.5t68.5 -62t56.5 -77.5t35.5 -94.5 t13.5 -114.5q0 -114 -41.5 -201.5t-115.5 -141t-171 -80t-214 -26.5q-230 0 -436 95l-13 344h111q32 -163 111.5 -243.5t230.5 -80.5q109 0 181.5 68.5t72.5 167.5q0 49 -17.5 89t-42.5 66t-70 50t-82.5 39t-97.5 36q-8 3 -12 4q-78 28 -144 67t-123 93.5t-89.5 130.5 t-32.5 164z" />
<glyph unicode="T" horiz-adv-x="1519" d="M61 1098v389h54q2 -14 17.5 -21.5t30.5 -8.5l15 -1h1161q16 0 24 0.5t20 3t17.5 9.5t6.5 18h72v-389h-97q-15 64 -28 101.5t-36 73.5t-58 52t-86 16h-256v-1165q0 -21 4 -35.5t17 -23.5t24.5 -14.5t39.5 -7.5t48 -2.5t63 -0.5v-92q-18 0 -168 3t-180 3q-34 0 -187 -3 t-169 -3v92h48t39.5 1t34.5 3t25.5 6t21.5 9.5t13.5 14t9.5 20t2 26.5v1169h-254q-50 0 -84.5 -15.5t-58 -51.5t-37.5 -73.5t-31 -102.5h-78z" />
<glyph unicode="U" horiz-adv-x="1656" d="M51 1364v92q20 0 162 -3t178 -3q32 0 181.5 3t166.5 3v-92h-47.5t-40 -1.5t-35.5 -5t-26 -9.5t-21 -15t-11 -22t-5 -31v-739q0 -209 89.5 -314.5t293.5 -105.5q180 0 281.5 105.5t101.5 312.5v696q0 33 -2.5 54.5t-12.5 36.5t-18.5 22t-33.5 11t-43 4.5t-60 0.5v92 q28 0 116 -3t107 -3q20 0 117 3t127 3v-92q-31 0 -46 -0.5t-39 -2.5t-35 -7t-25.5 -14t-21 -23t-11 -34.5t-4.5 -47.5v-688q0 -134 -29 -235.5t-78.5 -165.5t-123 -104t-154.5 -55.5t-181 -15.5q-147 0 -259 27.5t-197.5 87.5t-130.5 163.5t-45 248.5v774q0 23 -4 39 t-16.5 26t-23.5 15.5t-37.5 8t-45 3t-58.5 0.5z" />
<glyph unicode="V" horiz-adv-x="1495" d="M20 1364v92q27 0 139.5 -3t164.5 -3q39 0 157 3t129 3v-92q-29 0 -43.5 -0.5t-34.5 -4t-29 -11.5t-9 -21q0 -24 28 -100l326 -873l299 779q43 114 43 172q0 20 -9 32.5t-28.5 18t-38.5 7t-51 1.5v92q17 0 97 -3t102 -3q18 0 106 3t100 3v-92q-65 0 -96.5 -28.5 t-56.5 -90.5l-379 -960q-68 -169 -113 -314h-121l-544 1346q-13 33 -38 40t-100 7z" />
<glyph unicode="W" horiz-adv-x="2197" d="M20 1364v92q23 0 138 -3t155 -3q27 0 132 3t116 3v-92q-34 0 -53 -11.5t-19 -43.5q0 -17 33 -86l414 -869l135 301l-297 621q-28 58 -47 73t-65 15v92q35 0 138 -3t128 -3q27 0 124.5 3t110.5 3v-92q-22 0 -33.5 -1.5t-23.5 -14t-12 -37.5q0 -9 4 -22.5t8 -23t11 -25 t9 -19.5l119 -258l86 202q35 82 35 135q0 33 -17.5 48.5t-56.5 15.5v92q18 0 71 -3t77 -3q20 0 87 3t79 3v-92q-43 0 -62 -12.5t-39 -55.5l-202 -454l223 -465l346 805q35 84 35 121q0 61 -90 61v92q16 0 78.5 -3t86.5 -3q20 0 93.5 3t101.5 3v-92q-63 0 -90 -20.5 t-57 -86.5l-439 -987q-24 -51 -108 -299h-113q-27 77 -98 234l-142 317l-126 -266q-108 -227 -127 -285h-111q-18 70 -96 238l-504 1073q-25 54 -52 68t-94 14z" />
<glyph unicode="X" horiz-adv-x="1640" d="M31 0v92q49 0 113.5 31t107.5 82l410 483l-441 596q-36 47 -67 63.5t-91 16.5v92q17 0 143.5 -2t199.5 -2q55 0 185.5 2t151.5 2v-92q-122 0 -122 -66q0 -24 13 -47t44 -65l201 -266l221 272q61 77 61 117q0 28 -19.5 41.5t-68.5 13.5v92q31 0 124 -3t116 -3 q28 0 120.5 3t118.5 3v-92q-97 0 -138 -19t-93 -79l-369 -437l451 -626q32 -43 44.5 -59t37 -31.5t50 -18t75.5 -2.5v-92q-20 0 -172 3t-195 3q-67 0 -179 -3t-132 -3v92q106 0 106 62q0 5 -1 9.5t-2 8.5t-4 9.5t-5 9t-7 10.5t-8 11.5t-10.5 14t-11.5 15.5l-254 350 l-268 -324q-26 -32 -35.5 -45.5t-19 -33t-9.5 -37.5q0 -33 30.5 -46.5t101.5 -13.5v-92q-21 0 -106.5 3t-123.5 3q-52 0 -156 -3t-118 -3z" />
<glyph unicode="Y" horiz-adv-x="1505" d="M31 1364v92q28 0 179.5 -2t176.5 -2q30 0 151.5 2t145.5 2v-92q-78 0 -102.5 -9t-24.5 -42q0 -35 35 -90l289 -467l252 413q53 87 53 134q0 61 -105 61v92q19 0 94 -2t93 -2t105.5 2t101.5 2v-92q-55 0 -78.5 -11t-53.5 -55l-407 -636v-486q0 -21 4 -35.5t17.5 -23.5 t25 -14.5t41 -7.5t50 -2.5t65.5 -0.5v-92q-23 0 -157 3t-202 3q-72 0 -207 -3t-157 -3v92q45 0 65 0.5t49.5 2.5t41.5 7t26 14t18.5 23.5t4.5 34.5v432l-418 686q-22 38 -37.5 51t-40.5 17t-94 4z" />
<glyph unicode="Z" horiz-adv-x="1452" d="M59 0v92l926 1249h-465q-64 0 -107 -9t-72.5 -24.5t-50.5 -50t-34.5 -72t-30.5 -104.5h-100l45 381q157 0 513.5 -6t444.5 -6q106 0 228 8v-96l-928 -1247h530q63 0 112.5 16t83 41t61.5 66.5t45 80.5t36 95l95 -15l-72 -407q-120 0 -564.5 7t-502.5 7q-40 0 -193 -6z " />
<glyph unicode="[" horiz-adv-x="753" d="M215 -383v1856q82 -3 252 -3q26 0 119 1.5t129 1.5v-109h-97q-37 0 -56 -1t-43.5 -7t-36 -18.5t-19.5 -35.5t-8 -57v-1399q0 -63 19 -91.5t83 -28.5h158v-109q-12 0 -118 1t-134 1q-22 0 -105.5 -1t-142.5 -1z" />
<glyph unicode="\" horiz-adv-x="688" d="M-8 1487h215l475 -1520h-217z" />
<glyph unicode="]" horiz-adv-x="753" d="M51 -274h156q63 0 83.5 28.5t20.5 91.5v1399q0 34 -8 57t-19.5 35.5t-36 18.5t-43.5 7t-57 1h-96v109q36 0 130 -1.5t114 -1.5q171 0 256 3v-1856q-58 0 -143.5 1t-106.5 1q-27 0 -134 -1t-116 -1v109z" />
<glyph unicode="^" horiz-adv-x="1138" d="M72 602l379 803h186l371 -803h-232l-233 551l-238 -551h-233z" />
<glyph unicode="_" horiz-adv-x="1001" d="M-6 -154h1014v-106h-1014v106z" />
<glyph unicode="`" horiz-adv-x="716" d="M180 1413q0 28 23 56t78 28q31 0 54 -8.5t39 -26.5t25 -32.5t21 -40.5l115 -248l-41 -25l-234 176q-43 33 -61.5 58t-18.5 63z" />
<glyph unicode="a" horiz-adv-x="1136" d="M76 223q0 124 86 207t229 113l275 57v168q0 81 -36 114t-134 33q-78 0 -119 -32.5t-41 -87.5q0 -15 6 -49.5t6 -53.5q0 -31 -41.5 -52.5t-122.5 -21.5q-34 0 -62 27.5t-28 75.5q0 62 37 114.5t93 86.5t125 57.5t131.5 34t113.5 10.5q184 0 268 -69.5t84 -213.5v-526 q0 -39 13.5 -57.5t46.5 -18.5q15 0 36 9.5t35 21.5l49 -76q-111 -117 -264 -117q-80 0 -126 32.5t-66 107.5q-81 -80 -151 -113t-171 -33q-118 0 -195 69.5t-77 182.5zM356 272q0 -72 39.5 -111.5t100.5 -39.5q31 0 63.5 16t53 33.5t53.5 48.5v283l-95 -17 q-104 -19 -159.5 -73.5t-55.5 -139.5z" />
<glyph unicode="b" horiz-adv-x="1296" d="M20 1393v90q97 0 215.5 21t167.5 48l50 -18v-637q141 127 335 127q99 0 178.5 -40.5t130 -109.5t77 -156t26.5 -183q0 -112 -38.5 -213.5t-109 -180t-180 -124.5t-243.5 -46q-83 0 -161.5 17.5t-125.5 38t-90.5 38t-65.5 17.5l-24 59q14 71 14 203v911q0 30 -2 47t-10 37 t-24 30t-46 17t-74 7zM453 254q0 -174 200 -174q115 0 181.5 106t66.5 252q0 185 -73 296.5t-201 111.5q-87 0 -174 -64v-528z" />
<glyph unicode="c" horiz-adv-x="1073" d="M96 471q0 81 22.5 160t68.5 150t110 125t153.5 86t192.5 32q143 0 242.5 -59.5t100.5 -159.5q0 -57 -33 -90t-87 -33q-52 0 -79.5 24t-37 58.5t-21.5 68.5t-47 58t-99 24q-97 0 -160.5 -92.5t-63.5 -230.5q0 -207 84.5 -319.5t245.5 -112.5q141 0 273 135l61 -57 q-70 -124 -187 -195.5t-268 -71.5q-91 0 -168 27.5t-132 75.5t-94 111.5t-58 136t-19 149.5z" />
<glyph unicode="d" horiz-adv-x="1302" d="M96 449q0 122 43 229.5t115.5 183t170.5 119t204 43.5q109 0 207 -41v272q0 23 -0.5 34.5t-3.5 29t-9 26.5t-17.5 20t-28.5 16t-42.5 8.5t-58.5 3.5v90q92 0 214 20.5t175 48.5l45 -20v-1352q0 -33 6 -52.5t19.5 -28.5t26 -11t34.5 -2h51v-86q-72 0 -189.5 -5t-158.5 -11 l-49 34l-12 88q-74 -71 -155.5 -103t-186.5 -32q-166 0 -283 139.5t-117 338.5zM385 547q0 -191 71.5 -297.5t194.5 -106.5q88 0 185 72v510q0 95 -59 142.5t-146 47.5q-119 0 -182.5 -100.5t-63.5 -267.5z" />
<glyph unicode="e" horiz-adv-x="1085" d="M96 475q0 150 62 275t177.5 199.5t262.5 74.5q91 0 168 -41.5t126.5 -110t77 -155t27.5 -178.5l-32 -35h-613v-43q0 -60 15 -111.5t48 -96t93.5 -70t142.5 -25.5q149 0 303 137l60 -59q-176 -265 -471 -265q-134 0 -237 68.5t-156.5 182.5t-53.5 253zM350 610h348 q33 0 33 41q0 110 -45.5 187t-128.5 77q-93 0 -150 -89t-57 -216z" />
<glyph unicode="f" horiz-adv-x="772" d="M51 879v96h45q62 0 88.5 22t36.5 70q22 108 59.5 195.5t92.5 155.5t133.5 105.5t173.5 37.5q108 0 166.5 -40.5t58.5 -119.5q0 -59 -32.5 -92t-90.5 -33q-38 0 -59 15.5t-28.5 38t-14.5 44.5t-25.5 37.5t-52.5 15.5q-53 0 -85 -32t-32 -84v-316h226v-116h-226v-703 q0 -22 6 -38t21.5 -25.5t29 -15t43 -8t48.5 -3t59 -0.5v-86q-153 6 -344 6q-154 0 -289 -6v86q36 0 52.5 0.5t40 5t33.5 14t18 27t8 43.5v703h-160z" />
<glyph unicode="g" horiz-adv-x="1093" d="M20 -264q0 75 42 129t149 98l-2 2q-137 21 -137 172q0 41 14 62l184 176q-194 95 -194 297q0 157 119 254.5t299 97.5q78 0 210.5 -22.5t256.5 -22.5q64 0 122 8v-139q-42 -6 -86 -6q-110 0 -149 6q35 -29 56.5 -76t21.5 -100q0 -99 -62.5 -177.5t-160.5 -119.5t-209 -41 q-74 0 -123 16q-21 -17 -40.5 -48t-19.5 -54q0 -36 30 -47.5t112 -14.5l278 -12q158 -4 243 -73t85 -175q0 -135 -76 -237.5t-208.5 -156.5t-301.5 -54q-204 0 -328.5 75t-124.5 183zM203 -229q0 -89 76 -135t215 -46q158 0 258 65t100 152q0 61 -50 84.5t-165 26.5 q-62 2 -110 6t-90.5 9.5t-65.5 7.5q-67 -24 -117.5 -70.5t-50.5 -99.5zM342 700q0 -264 170 -264q40 0 69.5 19t46 50.5t24 66t7.5 71.5q0 139 -34.5 207t-124.5 68q-57 0 -93.5 -32.5t-50.5 -79t-14 -106.5z" />
<glyph unicode="h" horiz-adv-x="1329" d="M55 1393v90q82 0 203.5 19t181.5 50l49 -20v-647h5q172 139 364 139q136 0 214.5 -71t78.5 -218v-559q0 -59 26 -74.5t111 -15.5v-86q-117 6 -262 6q-151 0 -274 -6v86q72 0 96 15.5t24 76.5v461q0 205 -155 205q-52 0 -116.5 -22.5t-111.5 -53.5v-590q0 -59 31 -75.5 t101 -16.5v-86q-129 6 -269 6q-145 0 -280 -6v86q31 0 47.5 1t37 5.5t30.5 14t17 26.5t7 43v1079q0 32 -1 47.5t-9 36.5t-24 30.5t-46 16.5t-76 7z" />
<glyph unicode="i" horiz-adv-x="675" d="M55 889v88q2 0 53.5 1t87.5 2.5t89.5 5.5t96.5 12t71 20l34 -23v-821q0 -26 7 -43t16.5 -26t32 -13.5t39 -5t53.5 -0.5v-86q-27 0 -146.5 3t-138.5 3q-20 0 -145 -3t-148 -3v86q33 0 49 0.5t40 5.5t35 14t19.5 27t8.5 45v594q0 26 -1.5 39.5t-9.5 31t-24 26t-45.5 14.5 t-73.5 6zM174 1346q0 67 47 114t115 47q64 0 110 -47.5t46 -113.5t-46 -115t-110 -49q-67 0 -114.5 48t-47.5 116z" />
<glyph unicode="j" horiz-adv-x="622" d="M31 885v92q301 0 395 41l31 -23v-1024q0 -186 -76.5 -300t-278.5 -222l-59 68q48 34 78 77t42.5 99t15.5 97t3 108v862q0 23 -0.5 34t-4.5 29t-13.5 26.5t-25.5 18t-43 13.5t-64 4zM154 1346q0 66 46.5 113.5t110.5 47.5q65 0 111.5 -47.5t46.5 -113.5 q0 -67 -46.5 -115.5t-111.5 -48.5q-63 0 -110 48.5t-47 115.5z" />
<glyph unicode="k" horiz-adv-x="1280" d="M55 1393v90q76 0 200.5 19.5t186.5 49.5l45 -20v-987h56l233 221q25 23 44.5 51t19.5 45q0 22 -12.5 32t-30 11.5t-62.5 1.5v88q78 -4 238 -4q157 0 227 4v-88q-90 0 -145.5 -28t-143.5 -109l-166 -156l281 -372q58 -78 107.5 -118t107.5 -40v-84q-31 0 -106.5 2t-90.5 2 q-16 0 -70 -2t-79 -2q-96 108 -164 207l-182 258h-62v-295q0 -25 7 -42t15.5 -25.5t28.5 -13t34 -5t44 -0.5v-84q-24 0 -130 3t-136 3q-25 0 -140.5 -3t-143.5 -3v84q32 0 47.5 0.5t38 5t33 13t18.5 25t8 40.5v1087q0 35 -5 57.5t-20.5 42.5t-47.5 29t-83 9z" />
<glyph unicode="l" horiz-adv-x="686" d="M55 1393v90q91 0 205 18.5t180 50.5l47 -20v-1360q0 -25 9 -42t20.5 -25.5t34.5 -13t38.5 -5t45.5 -0.5v-86q-123 6 -285 6q-158 0 -287 -6v86q33 0 48.5 0.5t39 5t33.5 13.5t18.5 27t8.5 44v1079q0 36 -5 58t-20 42t-47.5 29t-83.5 9z" />
<glyph unicode="m" horiz-adv-x="1900" d="M55 0v86q33 0 48.5 0.5t37.5 5t31.5 14t17 27t7.5 43.5v578q0 37 -4 58t-17.5 41t-43 28t-77.5 8v88q266 0 383 41l29 -23v-127h10q65 70 161.5 113t182.5 43q199 0 250 -176q74 76 172 126t191 50q135 0 213.5 -71t78.5 -218v-559q0 -63 25 -76.5t109 -13.5v-86 q-78 4 -263 4q-188 0 -266 -4v86q38 0 53.5 1.5t32.5 10t22 27.5t5 53v475q0 104 -34 147.5t-112 43.5q-83 0 -204 -78v-590q0 -33 7.5 -52t28 -27t38 -9.5t57.5 -1.5v-86q-90 4 -260 4q-175 0 -269 -4v86q27 0 39 0.5t29.5 3t25 8t16 15.5t11 26t2.5 39v475 q0 104 -36 147.5t-115 43.5q-75 0 -197 -70v-598q0 -33 8 -52t28.5 -27t37.5 -9.5t53 -1.5v-86q-82 4 -260 4q-201 0 -283 -4z" />
<glyph unicode="n" horiz-adv-x="1314" d="M55 0v86q33 0 48.5 0.5t37.5 5t31.5 14t17 27t7.5 43.5v578q0 39 -3 58.5t-16 40t-42.5 28.5t-80.5 8v88q274 0 383 41l29 -23v-125h10q71 71 169.5 112.5t195.5 41.5q138 0 217.5 -71t79.5 -218v-559q0 -26 7.5 -43.5t17 -27t30.5 -14t35.5 -5t44.5 -0.5v-86 q-78 4 -262 4q-191 0 -277 -4v86q31 0 44.5 0.5t32.5 5t26.5 14t13.5 26.5t6 44v473q0 195 -151 195q-106 0 -234 -76v-592q0 -26 7.5 -44t17.5 -27t31 -13.5t35 -5t42 -0.5v-86q-86 4 -268 4q-189 0 -283 -4z" />
<glyph unicode="o" horiz-adv-x="1253" d="M96 489q0 107 38 204t106 170.5t170.5 117t224.5 43.5q126 0 227.5 -43.5t164.5 -116.5t96.5 -165.5t33.5 -194.5q0 -86 -22.5 -165t-68 -146t-108.5 -116.5t-149 -77.5t-186 -28q-233 0 -380 145t-147 373zM395 528q0 -230 60 -339t188 -109q61 0 103 23.5t66 69.5 t34 104.5t10 136.5q0 114 -11.5 200.5t-38 156.5t-74.5 107t-116 37t-114 -30t-68 -87.5t-30.5 -120t-8.5 -149.5z" />
<glyph unicode="p" horiz-adv-x="1302" d="M41 885v92q276 0 387 41l33 -23v-100q140 129 346 129q179 0 289 -133.5t110 -331.5q0 -271 -147 -424t-397 -153q-109 0 -195 36v-362q0 -18 4 -31t17 -21t24.5 -12.5t38.5 -6.5t45.5 -2.5t58.5 -0.5v-90q-51 0 -172 2t-149 2q-11 0 -126 -2t-161 -2v90q26 0 39 0.5 t33.5 2t31 6t22 12t16 20t4.5 29.5v1110q0 30 -4.5 49t-19 38t-46.5 27.5t-82 8.5zM467 276q0 -79 59 -137.5t150 -58.5q78 0 134 57t80.5 137t24.5 170q0 84 -15 154t-46 127t-85 89t-126 32q-43 0 -92 -18.5t-84 -45.5v-506z" />
<glyph unicode="q" horiz-adv-x="1269" d="M96 449q0 122 45 230t121 183t178.5 118.5t214.5 43.5q68 0 121.5 -11t89.5 -33t54.5 -37t40.5 -40q34 92 73 148l90 -25q-12 -54 -12 -235v-1125q0 -24 7.5 -40t18 -25t32.5 -13t39.5 -5t50.5 -1v-90q-94 4 -291 4q-242 0 -324 -4v90q30 0 46 0.5t43 2.5t42 7.5t31 14.5 t23.5 24t7.5 35v440q-128 -135 -336 -135q-111 0 -204 62.5t-147.5 172.5t-54.5 243zM387 547q0 -183 76.5 -293.5t198.5 -110.5q86 0 176 68v504q0 98 -51 149t-148 51q-82 0 -140 -51.5t-85 -133t-27 -183.5z" />
<glyph unicode="r" horiz-adv-x="989" d="M61 0v86h48.5t41 5t36 13t21 25t9.5 41v575q0 32 -1.5 49t-9.5 37.5t-24.5 30t-46 16.5t-74.5 7v92q254 0 381 41l31 -23v-172h16q47 91 125 146t168 55q67 0 116.5 -45t49.5 -115q0 -91 -36.5 -133.5t-92.5 -42.5q-35 0 -59.5 13t-38 31t-24.5 36.5t-25.5 31.5t-34.5 13 q-66 0 -105.5 -57t-39.5 -135v-449q0 -25 13 -42t29.5 -25.5t49 -13t52.5 -5t58 -0.5v-86q-42 0 -176.5 3t-159.5 3q-19 0 -141.5 -3t-155.5 -3z" />
<glyph unicode="s" horiz-adv-x="917" d="M92 711q0 102 53 174.5t135.5 105.5t184.5 33q133 0 278 -49l35 -254l-92 -4q-13 108 -69 153t-158 45q-79 0 -121.5 -35t-42.5 -98q0 -32 17.5 -55t50.5 -38t67 -24.5t81 -19.5q2 0 3.5 -0.5t3.5 -1t4 -0.5q77 -17 128 -37.5t96.5 -57.5t67.5 -97t22 -146 q0 -160 -108 -247t-275 -87q-85 0 -155.5 17.5t-176.5 58.5l-23 252l86 6q18 -101 89.5 -163t179.5 -62q78 0 128 39t50 110q0 67 -52 99t-188 65q-58 15 -108 39.5t-94.5 62t-70.5 93.5t-26 123z" />
<glyph unicode="t" horiz-adv-x="768" d="M31 879v98q49 0 89 17t66.5 43t50 70.5t37.5 84.5t31 100h139v-297h273v-116h-273v-615q0 -70 26 -101.5t95 -31.5q66 0 140 64l43 -93q-63 -61 -151.5 -96t-186.5 -35q-118 0 -182 66.5t-64 175.5v666h-133z" />
<glyph unicode="u" horiz-adv-x="1273" d="M41 885v92q74 0 209.5 11t187.5 24l15 -19q-7 -158 -7 -207v-487q0 -156 160 -156q89 0 199 88v525q0 70 -31.5 99.5t-105.5 29.5v92q80 0 219 10.5t188 24.5l12 -17q-8 -41 -8 -176v-649q0 -52 11 -68t53 -16h80v-86q-77 0 -199.5 -4.5t-165.5 -9.5l-41 28l-12 90 q-152 -133 -344 -133q-149 0 -221 81t-72 231v465q0 37 -3 57t-14.5 41t-38 30t-71.5 9z" />
<glyph unicode="v" horiz-adv-x="1107" d="M0 907v88q82 -4 266 -4q166 0 252 4v-88q-34 0 -50.5 -0.5t-37 -4t-29 -12t-8.5 -22.5t3 -28t5.5 -21.5t9.5 -22.5t9 -20l203 -485l202 469q27 70 27 94q0 34 -22 43.5t-72 9.5v88q62 -4 162 -4q113 0 167 4v-88q-40 0 -69 -14t-39 -39l-393 -883l-92 -16l-394 895 q-17 38 -34.5 47.5t-65.5 9.5z" />
<glyph unicode="w" horiz-adv-x="1654" d="M0 907v88q82 -4 250 -4q143 0 225 4v-88q-42 0 -63 -8t-21 -33q0 -26 19 -69l196 -465l170 366q-42 128 -79 168.5t-99 40.5v88q90 -4 287 -4q155 0 233 4v-88q-32 0 -51 -3t-36 -18t-17 -44q0 -19 30 -92l173 -422l141 372q37 95 37 140q0 41 -29 54t-78 13v88 q58 -4 180 -4q146 0 166 4v-88q-24 0 -43 -7t-30 -14.5t-23 -27.5t-16 -29.5t-15 -37.5l-331 -816l-91 -14l-251 606l-291 -592l-86 -12l-348 873q-9 23 -17.5 35.5t-32 24t-59.5 11.5z" />
<glyph unicode="x" horiz-adv-x="1202" d="M31 0v86q53 0 92.5 16.5t77.5 59.5l260 303l-289 381q-30 40 -49.5 50.5t-73.5 10.5v88q94 -4 281 -4q163 0 241 4v-88q-25 0 -38 -1.5t-23 -9t-10 -22.5q0 -33 65 -114l94 -117l129 152q46 50 46 82q0 11 -6.5 17.5t-23 9t-26.5 3t-33 0.5v88q70 -4 177 -4q149 0 215 4 v-88q-68 0 -109 -19.5t-92 -74.5l-219 -238l325 -428q26 -33 52 -47t77 -14v-86q-111 6 -272 6q-119 0 -266 -6v86q20 0 30.5 0.5t24 3t19.5 9t6 16.5q0 19 -27 51l-164 227l-164 -211q-39 -44 -39 -71q0 -18 16.5 -21.5t76.5 -3.5v-86q-117 6 -164 6q-118 0 -217 -6z" />
<glyph unicode="y" horiz-adv-x="1110" d="M0 907v88q82 -4 260 -4q166 0 252 4v-88q-63 0 -88 -8.5t-25 -34.5q0 -13 5.5 -32t11 -33.5t14 -34t10.5 -23.5l185 -436h2l198 461q19 49 19 88q0 53 -90 53v88q70 -4 153 -4q130 0 180 4v-88q-51 0 -82.5 -28t-52.5 -78l-471 -1094q-49 -114 -115 -171.5t-137 -57.5 q-81 0 -134.5 37.5t-53.5 105.5q0 56 28 88.5t87 32.5q30 0 52.5 -17t33 -37.5t24.5 -37.5t31 -17q46 0 78 74l123 289l-387 840q-22 47 -43.5 59t-67.5 12z" />
<glyph unicode="z" horiz-adv-x="1036" d="M51 0v82l567 801h-178q-37 0 -59 -1t-51.5 -5t-47 -12t-38.5 -22.5t-34 -36t-25.5 -53t-20.5 -73.5h-82l29 362h67q3 -21 17 -32t28.5 -13t40.5 -2h690v-84l-534 -798h209q120 0 178.5 44.5t105.5 172.5l82 -13l-45 -317h-899z" />
<glyph unicode="{" horiz-adv-x="729" d="M205 516l20 37q150 37 150 223q0 26 -12.5 176t-12.5 172q0 155 107.5 234.5t294.5 79.5v-33q-90 -4 -137.5 -71t-47.5 -154q0 -28 12.5 -169.5t12.5 -179.5q0 -116 -54 -190.5t-184 -108.5v-4q130 -32 184 -107t54 -192q0 -37 -12.5 -178t-12.5 -170q0 -87 47.5 -154 t137.5 -71v-31q-188 0 -295 78.5t-107 233.5q0 21 12.5 172t12.5 178q0 95 -40 152t-130 77z" />
<glyph unicode="|" horiz-adv-x="602" d="M203 -154v1649h196v-1649h-196z" />
<glyph unicode="}" horiz-adv-x="729" d="M78 -344q88 4 133 70.5t45 154.5q0 28 -10 169t-10 179q0 116 53.5 190.5t181.5 108.5v4q-128 32 -181.5 107t-53.5 192q0 37 10 178.5t10 170.5q0 88 -45 154.5t-133 70.5v33q186 0 291.5 -79t105.5 -235q0 -20 -11 -171t-11 -177q0 -186 147 -223l23 -37 q-89 -18 -129.5 -75.5t-40.5 -153.5q0 -25 11 -176.5t11 -173.5q0 -155 -105.5 -233.5t-291.5 -78.5v31z" />
<glyph unicode="~" horiz-adv-x="1075" d="M16 504q26 116 94.5 186t174.5 70q101 0 231 -70q133 -72 217 -72q100 0 162 142l68 -66q-25 -114 -93 -189t-168 -75q-37 0 -79 11t-72 23t-78 34q-7 3 -31.5 14.5t-33.5 15.5t-30 13t-33.5 12.5t-30.5 8.5t-34 7t-32 2q-111 0 -166 -141z" />
<glyph unicode="&#xa1;" horiz-adv-x="698" d="M170 813q0 73 53 126.5t125 53.5t123 -53t51 -127t-50.5 -127t-123.5 -53q-72 0 -125 52.5t-53 127.5zM188 -270q0 67 30.5 193.5t61.5 276.5t31 275h72q0 -96 20.5 -210t45 -199.5t45 -179.5t20.5 -156q0 -35 -3 -62.5t-13 -59t-27 -52t-48 -34.5t-73 -14t-73 14 t-47.5 35t-26.5 53t-12.5 59t-2.5 61z" />
<glyph unicode="&#xa2;" d="M117 469q0 106 36.5 207t102 181t164 128.5t213.5 48.5q35 0 76 -6l131 346h94l-133 -364q100 -26 164.5 -78t64.5 -119q0 -58 -36.5 -92.5t-90.5 -34.5q-58 0 -93 45.5t-65 134.5l-217 -618q84 -90 217 -90q75 0 137 31t124 98l53 -45q-69 -129 -185 -200t-272 -71 q-104 0 -170 31l-96 -278h-88l110 309q-113 63 -177 178.5t-64 257.5zM391 614q0 -160 76 -272l209 582q-27 8 -72 8q-90 0 -151.5 -96.5t-61.5 -221.5z" />
<glyph unicode="&#xa3;" d="M25 -106q0 73 62 123.5t157 76.5q49 165 102 455h-201l15 125h215l78 321q15 56 42.5 116t74 127t103 119t136 86t166.5 34q88 0 139 -41.5t51 -106.5q0 -52 -22.5 -87.5t-65.5 -35.5q-38 0 -62 20.5t-24 51.5q0 104 -73 104q-65 0 -126 -95t-96 -257l-78 -356h259 l-21 -125h-262q-28 -139 -95 -273t-124 -165q43 6 102 6q43 0 104.5 -28.5t112.5 -63t107 -63t90 -28.5q31 0 49 15t18 45q0 24 -14 42.5t-31 29.5t-31 30.5t-14 44.5q0 36 28.5 66.5t64.5 30.5q46 0 75 -42.5t29 -111.5q0 -129 -77.5 -213t-211.5 -84q-23 0 -48.5 4t-47 9 t-50 16.5t-46.5 18.5t-48 24t-44 24.5t-45.5 27.5t-41 26.5t-41 28t-36.5 24.5q-37 -84 -88.5 -139.5t-106.5 -55.5q-108 0 -108 99z" />
<glyph unicode="&#xa4;" horiz-adv-x="1126" d="M94 1108l101 100l122 -123q114 80 248 80q135 0 246 -78l121 121l100 -100l-121 -121q80 -114 80 -248q0 -133 -80 -247l119 -119l-100 -101l-119 119q-111 -78 -246 -78q-138 0 -248 80l-120 -121l-101 101l121 121q-78 111 -78 245q0 135 78 246zM315 739 q0 -104 73 -177t177 -73q103 0 175.5 73t72.5 177q0 103 -72.5 175.5t-175.5 72.5q-104 0 -177 -72.5t-73 -175.5z" />
<glyph unicode="&#xa5;" d="M10 1364v92q23 0 119 -2t145 -2q44 0 142 2t119 2v-92q-35 0 -49.5 -11.5t-14.5 -39.5q0 -30 33 -105l176 -454l166 397q57 134 57 172q0 27 -16 34t-58 7v92q35 0 82 -2t60 -2q26 0 82 2t73 2v-92q-44 0 -60.5 -11t-39.5 -57l-203 -458h230v-109h-271l-32 -90v-129h303 v-109h-303v-235q0 -51 33 -62.5t149 -11.5v-92q-22 0 -146 3t-192 3q-72 0 -197 -3t-147 -3v92q49 0 73.5 1t50.5 4.5t36 11t17 21t7 34.5v237h-332v109h332v74l-57 145h-275v109h222l-224 460q-21 41 -37 53.5t-53 12.5z" />
<glyph unicode="&#xa6;" horiz-adv-x="602" d="M203 -154v748h196v-748h-196zM203 805v747h196v-747h-196z" />
<glyph unicode="&#xa7;" horiz-adv-x="1122" d="M121 944q0 65 21 133.5t65.5 134.5t105.5 117.5t149 83t189 31.5q134 0 231 -52t97 -135q0 -51 -33.5 -83.5t-83.5 -32.5q-27 0 -71.5 32.5t-85 72t-86 72t-72.5 32.5q-53 0 -86 -38t-33 -87q0 -83 65.5 -190.5t206.5 -289.5l57.5 -75t50 -67t49 -69.5t39.5 -63t38 -69 t26.5 -65t23.5 -73t11.5 -71.5t5.5 -81q0 -74 -18 -144.5t-58.5 -136.5t-100 -115t-148.5 -78.5t-197 -29.5q-160 0 -257 58t-97 151q0 47 33.5 79.5t85.5 32.5q27 0 57.5 -24.5t59 -59.5t58 -69.5t65.5 -59t71 -24.5q67 0 104 38.5t37 106.5q0 75 -54 169.5t-224 316.5 q-65 84 -98.5 130t-78.5 116.5t-66.5 122.5t-37.5 118.5t-16 134.5zM227 983q0 -42 7.5 -81.5t30 -87.5t39 -79.5t61 -94.5t67 -93t84.5 -111q80 -105 121.5 -164t82.5 -129.5t57 -127t16 -115.5q0 -88 -39 -152l4 -4q64 50 99.5 126.5t35.5 170.5q0 73 -18.5 141.5 t-62 144.5t-86 136.5t-118.5 157.5q-138 177 -209 296.5t-71 212.5q0 78 30 152l-4 4q-60 -62 -93.5 -141t-33.5 -162z" />
<glyph unicode="&#xa8;" horiz-adv-x="716" d="M16 1298q0 56 37 95t92 39q54 0 92.5 -38.5t38.5 -95.5q0 -55 -37.5 -95t-93.5 -40q-54 0 -91.5 39.5t-37.5 95.5zM436 1298q0 56 37 95t92 39t95 -39t40 -95q0 -54 -40 -94.5t-95 -40.5q-54 0 -91.5 39.5t-37.5 95.5z" />
<glyph unicode="&#xa9;" horiz-adv-x="1681" d="M100 731q0 208 97.5 382.5t269 276t377.5 101.5q203 0 373 -101.5t267 -276t97 -382.5q0 -207 -97 -380.5t-267 -274.5t-373 -101q-155 0 -293 59t-237 160t-156.5 241t-57.5 296zM213 731q0 -130 48.5 -250t132 -208.5t201.5 -141.5t249 -53q129 0 245 52.5t199.5 141 t132.5 208.5t49 251q0 130 -49 250t-131.5 208.5t-199.5 141.5t-246 53q-131 0 -248.5 -53t-201 -141.5t-132.5 -208.5t-49 -250zM403 731q0 86 30 164.5t86.5 142t148 101t204.5 37.5q72 0 150 -26t92 -26q34 0 41 17l27 -11v-229h-56q-23 96 -76.5 146.5t-154.5 50.5 q-124 0 -193 -90t-69 -265q0 -182 69 -275t195 -93q167 0 254 162l49 -15l-61 -147q-118 -80 -283 -80q-205 0 -329 115t-124 321z" />
<glyph unicode="&#xaa;" horiz-adv-x="864" d="M72 922q0 86 62 142t169 77l203 39v100q0 53 -24 71.5t-97 18.5q-56 0 -86.5 -21.5t-30.5 -54.5q0 -8 2 -23.5t2 -27.5q0 -22 -29.5 -36.5t-90.5 -14.5q-24 0 -46 20.5t-22 49.5q0 50 40.5 91t101 64t120 35t107.5 12q134 0 195 -47t61 -141v-348q0 -51 45 -51 q10 0 25.5 6t21.5 12l41 -55q-82 -82 -191 -82q-61 0 -95 22t-46 72q-63 -54 -114.5 -76t-125.5 -22q-86 0 -142 47.5t-56 120.5zM276 956q0 -43 29.5 -65.5t73.5 -22.5q36 0 64.5 16t62.5 46v170l-72 -8q-158 -19 -158 -136z" />
<glyph unicode="&#xab;" horiz-adv-x="1110" d="M43 504l414 491l121 -34l-256 -457l278 -473l-127 -35zM522 504l387 487l121 -35l-239 -452l256 -469l-127 -35z" />
<glyph unicode="&#xad;" horiz-adv-x="872" d="M121 410l16 215q90 -4 289 -4q152 0 328 4l-19 -215q-212 4 -297 4q-219 0 -317 -4z" />
<glyph unicode="&#xae;" horiz-adv-x="1030" d="M80 1116q0 182 123.5 309t304.5 127q179 0 301.5 -127t122.5 -309t-122.5 -309t-301.5 -127q-181 0 -304.5 126.5t-123.5 309.5zM162 1116q0 -152 98 -260t248 -108q148 0 251 108t103 260q0 151 -103 260t-251 109t-247 -108.5t-99 -260.5zM313 899v39q33 2 44.5 12 t11.5 43v242q0 38 -9.5 50.5t-40.5 12.5v39h222q63 0 102 -31t39 -83q0 -42 -24.5 -72.5t-69.5 -44.5l69 -96q51 -76 70 -76v-35h-104q-63 110 -127 195h-33v-103q0 -32 10.5 -41t50.5 -12v-39h-211zM463 1143h35q43 0 62.5 17.5t19.5 60.5q0 44 -20 57.5t-66 13.5h-31v-149 z" />
<glyph unicode="&#xaf;" horiz-adv-x="716" d="M41 1212v168h635v-168h-635z" />
<glyph unicode="&#xb0;" horiz-adv-x="827" d="M100 1102q0 132 92 225.5t222 93.5q129 0 221 -93t92 -226q0 -132 -91.5 -226t-221.5 -94q-129 0 -221.5 93.5t-92.5 226.5zM236 1102q0 -72 53 -127t125 -55q71 0 124.5 55.5t53.5 126.5q0 72 -53 127t-125 55q-71 0 -124.5 -55.5t-53.5 -126.5z" />
<glyph unicode="&#xb1;" horiz-adv-x="1191" d="M121 0v195h1018v-195h-1018zM121 676v194h418v359h184v-359h416v-194h-416v-359h-184v359h-418z" />
<glyph unicode="&#xb2;" horiz-adv-x="747" d="M61 1010v71q92 73 155 128t120.5 116t86 115t28.5 102q0 63 -28 94t-93 31q-50 0 -93 -31t-92 -92l-73 43q57 97 133.5 151t183.5 54q109 0 184.5 -64.5t75.5 -154.5q0 -93 -72 -180t-202 -183l-80 -61h242q23 0 57 70h102l-55 -209h-580z" />
<glyph unicode="&#xb3;" horiz-adv-x="690" d="M51 1092l62 65q30 -24 47.5 -36.5t52.5 -27t68 -14.5q72 0 113.5 42.5t41.5 113.5q0 57 -32 94.5t-89 40.5q-3 -3 -63 -8q-4 -1 -19.5 -3t-19.5 -3l-20 76q198 50 198 159q0 84 -86 84q-67 0 -155 -94l-70 61q77 77 139.5 113.5t147.5 36.5q91 0 155 -47.5t64 -114.5 q0 -95 -125 -166h-2q77 -19 123.5 -64t46.5 -118q0 -116 -95 -201.5t-255 -85.5q-74 0 -133.5 29t-94.5 68z" />
<glyph unicode="&#xb4;" horiz-adv-x="716" d="M180 1141l115 248q12 26 21 40.5t25 32.5t39 26.5t54 8.5q55 0 78 -28t23 -56q0 -38 -18.5 -63t-61.5 -58l-234 -176z" />
<glyph unicode="&#xb6;" horiz-adv-x="1382" d="M100 934q0 112 33 207.5t96 167t162 112.5t223 41q60 0 184.5 -6t170.5 -6q95 0 299 6v-82q-24 0 -40 -1.5t-31.5 -5.5t-23.5 -13t-8 -23v-1167q0 -49 14.5 -64.5t57.5 -15.5h66v-84q-42 0 -159.5 2t-176.5 2q-96 0 -278 -2t-212 -2v84h156q125 0 125 68v270 q-82 -10 -189 -10q-219 0 -344 135.5t-125 386.5zM489 934q0 -83 8 -154t26 -134.5t52 -100.5t80 -37q78 0 111 8v854q-30 10 -90 10q-53 0 -92 -42t-58.5 -112t-28 -142t-8.5 -150zM899 162q0 -80 68 -80q67 0 67 80v1153q0 67 -65 67q-34 0 -52 -18.5t-18 -48.5v-1153z " />
<glyph unicode="&#xb7;" horiz-adv-x="624" d="M119 625q0 72 51 124t121 52t119 -51t49 -125q0 -72 -49 -123t-119 -51q-69 0 -120.5 51.5t-51.5 122.5z" />
<glyph unicode="&#xb8;" horiz-adv-x="661" d="M106 -451l17 68q58 -14 129 -14q55 0 87 31.5t32 80.5q0 34 -22 57t-56 23t-64 -10l-16 12l127 209h84l-62 -115q35 5 66 5q65 0 104 -46.5t39 -117.5q0 -99 -88.5 -150t-234.5 -51q-105 0 -142 18z" />
<glyph unicode="&#xb9;" horiz-adv-x="530" d="M41 1657q176 75 274 153l64 -20v-680q0 -18 11 -21.5t48 -3.5h82v-75q-156 4 -233 4q-76 0 -224 -4v75h80q25 0 34.5 1t16.5 6t7 16v528q-78 -30 -127 -43z" />
<glyph unicode="&#xba;" horiz-adv-x="831" d="M49 1102q0 150 102.5 256t268.5 106q86 0 155.5 -29.5t113 -79t66.5 -112t23 -131.5q0 -149 -99 -253.5t-267 -104.5q-160 0 -261.5 98t-101.5 250zM254 1128q0 -152 40.5 -216t131.5 -64q83 0 114 49t31 156q0 78 -7 133t-25 98t-50.5 64.5t-80.5 21.5q-39 0 -67 -12 t-44.5 -32t-26.5 -52.5t-13 -66t-3 -79.5z" />
<glyph unicode="&#xbb;" horiz-adv-x="1110" d="M43 35l254 469l-240 452l121 35l387 -487l-397 -504zM487 31l279 473l-256 457l121 34l416 -491l-433 -508z" />
<glyph unicode="&#xbc;" horiz-adv-x="1740" d="M102 1360q178 76 275 153l63 -20v-680q0 -17 11 -21t49 -4h82v-75h-82q-7 0 -22 1t-23 1q-45 2 -107 2h-59q-6 0 -19.5 -1t-19.5 -1q-43 -2 -125 -2v75h80q25 0 34.5 1t16 6t6.5 16v528q-78 -30 -127 -43zM168 -43l1194 1507h125l-1196 -1507h-123zM889 221v76l428 485 h125v-460h12q17 0 32 10t42 37l59 -62l-74 -86h-71v-145h90v-76h-57q-2 0 -6.5 1t-6.5 1h-20q-27 2 -86 2q-66 0 -101 -2q-2 0 -7 -1t-7 -1h-84v76h107v145h-375zM1036 322h228v262z" />
<glyph unicode="&#xbd;" horiz-adv-x="1740" d="M102 1360q178 76 275 153l63 -20v-680q0 -17 11 -21t49 -4h82v-75h-82q-7 0 -22 1t-23 1q-45 2 -107 2h-59q-6 0 -19.5 -1t-19.5 -1q-43 -2 -125 -2v75h80q25 0 34.5 1t16 6t6.5 16v528q-78 -30 -127 -43zM133 -43l1194 1507h125l-1196 -1507h-123zM987 0v72 q93 73 157 128.5t121.5 115.5t86 114t28.5 102q0 125 -120 125q-54 0 -93.5 -29.5t-91.5 -92.5l-78 43q62 98 137.5 151t184.5 53t184.5 -64.5t75.5 -154.5q0 -93 -72 -179.5t-202 -182.5l-80 -62h241q20 0 54 70h106l-55 -209h-584z" />
<glyph unicode="&#xbe;" horiz-adv-x="1740" d="M123 793l61 65q30 -24 47.5 -36.5t52.5 -27t68 -14.5q72 0 114 42.5t42 113.5q0 57 -32 94.5t-89 40.5q-3 -3 -63 -8q-4 -1 -19.5 -3t-19.5 -3l-21 76q199 50 199 159q0 84 -86 84q-68 0 -156 -94l-69 61q77 77 139 113.5t147 36.5q91 0 155 -47.5t64 -114.5 q0 -95 -125 -166h-2q77 -19 123.5 -64t46.5 -118q0 -116 -95 -201.5t-255 -85.5q-74 0 -133 29t-94 68zM182 -43l1194 1507h125l-1196 -1507h-123zM883 221v76l428 485h125v-460h12q17 0 32 10t42 37l59 -62l-74 -86h-71v-145h90v-76h-58q-2 0 -6 1t-6 1h-20q-27 2 -86 2 q-66 0 -101 -2q-2 0 -7 -1t-7 -1h-84v76h106v145h-374zM1030 322h227v262z" />
<glyph unicode="&#xbf;" horiz-adv-x="903" d="M129 61q0 125 82.5 202t255.5 124q23 6 43 26t20 38v75h97v-360l-29 -35q-332 -103 -332 -207q0 -79 55.5 -133.5t135.5 -54.5q46 0 115.5 27.5t93.5 27.5q49 0 80.5 -33.5t31.5 -91.5q0 -56 -54 -93.5t-126 -37.5q-60 0 -125.5 25t-126.5 73t-109.5 111t-78 146 t-29.5 171zM383 819q0 72 51 124t121 52q69 0 120.5 -52t51.5 -124q0 -71 -50.5 -122.5t-121.5 -51.5q-69 0 -120.5 51.5t-51.5 122.5z" />
<glyph unicode="&#xc0;" horiz-adv-x="1517" d="M10 0v92q81 0 117.5 27.5t65.5 103.5l352 973q6 16 18.5 47.5t18 48t11 37.5t5.5 35q0 46 -14 70q40 3 150 21.5t145 27.5l473 -1299q10 -26 14.5 -37.5t14 -25t16.5 -17t24.5 -7.5t34.5 -4.5t51 -0.5v-92q-33 0 -158.5 3t-148.5 3t-162.5 -3t-175.5 -3v92q23 0 35.5 0.5 t34.5 1.5t34.5 4.5t26 9t19.5 15t6 22.5q0 26 -45 158l-80 229h-477l-76 -241q-29 -106 -29 -156q0 -15 10.5 -24.5t32 -13t36 -4.5t40.5 -1v-92q-86 4 -194 4q-148 0 -226 -4zM459 645h393l-199 535h-6zM581 1882q0 28 23 56t78 28q31 0 54 -8.5t39 -26.5t25 -32.5 t21 -40.5l115 -248l-41 -25l-234 176q-43 33 -61.5 58t-18.5 63z" />
<glyph unicode="&#xc1;" horiz-adv-x="1517" d="M10 0v92q81 0 117.5 27.5t65.5 103.5l352 973q6 16 18.5 47.5t18 48t11 37.5t5.5 35q0 46 -14 70q40 3 150 21.5t145 27.5l473 -1299q10 -26 14.5 -37.5t14 -25t16.5 -17t24.5 -7.5t34.5 -4.5t51 -0.5v-92q-33 0 -158.5 3t-148.5 3t-162.5 -3t-175.5 -3v92q23 0 35.5 0.5 t34.5 1.5t34.5 4.5t26 9t19.5 15t6 22.5q0 26 -45 158l-80 229h-477l-76 -241q-29 -106 -29 -156q0 -15 10.5 -24.5t32 -13t36 -4.5t40.5 -1v-92q-86 4 -194 4q-148 0 -226 -4zM459 645h393l-199 535h-6zM581 1610l115 248q12 26 21 40.5t25 32.5t39 26.5t54 8.5 q55 0 78 -28t23 -56q0 -38 -18.5 -63t-61.5 -58l-234 -176z" />
<glyph unicode="&#xc2;" horiz-adv-x="1517" d="M10 0v92q81 0 117.5 27.5t65.5 103.5l352 973q6 16 18.5 47.5t18 48t11 37.5t5.5 35q0 46 -14 70q40 3 150 21.5t145 27.5l473 -1299q10 -26 14.5 -37.5t14 -25t16.5 -17t24.5 -7.5t34.5 -4.5t51 -0.5v-92q-33 0 -158.5 3t-148.5 3t-162.5 -3t-175.5 -3v92q23 0 35.5 0.5 t34.5 1.5t34.5 4.5t26 9t19.5 15t6 22.5q0 26 -45 158l-80 229h-477l-76 -241q-29 -106 -29 -156q0 -15 10.5 -24.5t32 -13t36 -4.5t40.5 -1v-92q-86 4 -194 4q-148 0 -226 -4zM415 1597l258 326h170l258 -326h-94l-252 160l-245 -160h-95zM459 645h393l-199 535h-6z" />
<glyph unicode="&#xc3;" horiz-adv-x="1517" d="M10 0v92q81 0 117.5 27.5t65.5 103.5l352 973q6 16 18.5 47.5t18 48t11 37.5t5.5 35q0 46 -14 70q40 3 150 21.5t145 27.5l473 -1299q10 -26 14.5 -37.5t14 -25t16.5 -17t24.5 -7.5t34.5 -4.5t51 -0.5v-92q-33 0 -158.5 3t-148.5 3t-162.5 -3t-175.5 -3v92q23 0 35.5 0.5 t34.5 1.5t34.5 4.5t26 9t19.5 15t6 22.5q0 26 -45 158l-80 229h-477l-76 -241q-29 -106 -29 -156q0 -15 10.5 -24.5t32 -13t36 -4.5t40.5 -1v-92q-86 4 -194 4q-148 0 -226 -4zM391 1624q5 106 69.5 185t155.5 79q50 0 154 -42t151 -42q39 0 69.5 24.5t43.5 70.5h90 q0 -106 -65.5 -185.5t-157.5 -79.5q-55 0 -163 43t-153 43q-36 0 -65.5 -27t-38.5 -69h-90zM459 645h393l-199 535h-6z" />
<glyph unicode="&#xc4;" horiz-adv-x="1517" d="M10 0v92q81 0 117.5 27.5t65.5 103.5l352 973q6 16 18.5 47.5t18 48t11 37.5t5.5 35q0 46 -14 70q40 3 150 21.5t145 27.5l473 -1299q10 -26 14.5 -37.5t14 -25t16.5 -17t24.5 -7.5t34.5 -4.5t51 -0.5v-92q-33 0 -158.5 3t-148.5 3t-162.5 -3t-175.5 -3v92q23 0 35.5 0.5 t34.5 1.5t34.5 4.5t26 9t19.5 15t6 22.5q0 26 -45 158l-80 229h-477l-76 -241q-29 -106 -29 -156q0 -15 10.5 -24.5t32 -13t36 -4.5t40.5 -1v-92q-86 4 -194 4q-148 0 -226 -4zM415 1767q0 56 37 95t92 39q54 0 92.5 -38.5t38.5 -95.5q0 -55 -37.5 -95t-93.5 -40 q-54 0 -91.5 39.5t-37.5 95.5zM459 645h393l-199 535h-6zM835 1767q0 56 37 95t92 39t95 -39t40 -95q0 -54 -40 -94.5t-95 -40.5q-54 0 -91.5 39.5t-37.5 95.5z" />
<glyph unicode="&#xc5;" horiz-adv-x="1517" d="M10 0v92q81 0 117.5 27.5t65.5 103.5l352 973q6 16 18.5 47.5t18 48t11 37.5t5.5 35q0 46 -14 70q40 3 150 21.5t145 27.5l473 -1299q10 -26 14.5 -37.5t14 -25t16.5 -17t24.5 -7.5t34.5 -4.5t51 -0.5v-92q-33 0 -158.5 3t-148.5 3t-162.5 -3t-175.5 -3v92q23 0 35.5 0.5 t34.5 1.5t34.5 4.5t26 9t19.5 15t6 22.5q0 26 -45 158l-80 229h-477l-76 -241q-29 -106 -29 -156q0 -15 10.5 -24.5t32 -13t36 -4.5t40.5 -1v-92q-86 4 -194 4q-148 0 -226 -4zM459 645h393l-199 535h-6zM526 1757q0 87 59 147t144 60q83 0 142 -60t59 -147 q0 -84 -59.5 -144.5t-141.5 -60.5q-85 0 -144 60t-59 145zM610 1757q0 -47 35 -81t84 -34q44 0 78.5 34.5t34.5 80.5q0 47 -34.5 84t-78.5 37q-49 0 -84 -36.5t-35 -84.5z" />
<glyph unicode="&#xc6;" horiz-adv-x="2021" d="M68 0v84q68 0 105 27.5t75 95.5l645 1157h-111v92q26 0 140.5 -2t160.5 -2q179 0 462 6t296 6l17 -352l-86 -20q-14 47 -22.5 72t-24.5 59t-33.5 51.5t-44.5 35t-63.5 24.5t-84.5 7h-217v-528h184q89 0 120.5 47t31.5 137h100q-8 -81 -8 -239q0 -160 8 -244h-100 q0 111 -29 147.5t-127 36.5h-180v-501q0 -29 7 -47t23 -25t27.5 -8.5t34.5 -1.5h133q70 0 116.5 7t85.5 24t67.5 51t52.5 81.5t51 122.5l92 -26q-8 -30 -35.5 -195t-31.5 -186q-2 0 -292.5 6t-471.5 6q-51 0 -170 -3t-142 -3v82q29 0 42.5 0.5t34 2.5t29 7.5t18 14.5 t13 23.5t3.5 35.5v371h-418l-135 -248q-62 -111 -62 -162q0 -15 8 -24.5t26 -13t30.5 -4.5t36.5 -1v-84q-82 4 -183 4q-130 0 -204 -4zM600 641h369v616h-23z" />
<glyph unicode="&#xc7;" horiz-adv-x="1558" d="M82 725q0 161 59.5 301.5t165.5 242t259.5 160t332.5 58.5q77 0 145.5 -8t144.5 -29.5t117 -35t134 -46.5l26 -342h-118q-15 65 -32 111t-50.5 94t-79.5 77t-119 47.5t-170 18.5q-215 0 -344 -165t-129 -445q0 -193 59.5 -346t175.5 -243.5t271 -90.5q199 0 296.5 89.5 t125.5 268.5l106 -10l-12 -330q-103 -62 -248 -96.5t-285 -34.5q-173 0 -322 47t-263.5 138t-180 237t-65.5 332zM546 -451l17 68q58 -14 129 -14q55 0 87 31.5t32 80.5q0 34 -22 57t-56 23t-64 -10l-16 12l127 209h84l-62 -115q35 5 66 5q65 0 104 -46.5t39 -117.5 q0 -99 -88.5 -150t-234.5 -51q-105 0 -142 18z" />
<glyph unicode="&#xc8;" horiz-adv-x="1411" d="M72 0v92q40 0 59.5 0.5t47 5t40 13t22 24.5t9.5 41v1104q0 21 -5.5 35.5t-19 23.5t-25.5 14.5t-37.5 7.5t-41.5 2.5t-49 0.5v92q26 0 154.5 -2t174.5 -2q117 0 435 5.5t432 6.5l18 -352l-92 -20q-38 118 -63 157q-49 77 -155 89q-25 3 -54 3h-359v-528h311q89 0 120.5 47 t31.5 137h100q-8 -81 -8 -239q0 -160 8 -244h-100q0 111 -29 147.5t-127 36.5h-307v-497q0 -58 42 -72t173 -14h137q85 0 140.5 13.5t98 49t71.5 86t63 137.5l92 -26q-10 -38 -35.5 -184t-31.5 -199q-108 0 -465 7t-440 7q-50 0 -181 -3t-155 -3zM528 1882q0 28 23 56t78 28 q31 0 54 -8.5t39 -26.5t25 -32.5t21 -40.5l115 -248l-41 -25l-234 176q-43 33 -61.5 58t-18.5 63z" />
<glyph unicode="&#xc9;" horiz-adv-x="1411" d="M72 0v92q40 0 59.5 0.5t47 5t40 13t22 24.5t9.5 41v1104q0 21 -5.5 35.5t-19 23.5t-25.5 14.5t-37.5 7.5t-41.5 2.5t-49 0.5v92q26 0 154.5 -2t174.5 -2q117 0 435 5.5t432 6.5l18 -352l-92 -20q-38 118 -63 157q-49 77 -155 89q-25 3 -54 3h-359v-528h311q89 0 120.5 47 t31.5 137h100q-8 -81 -8 -239q0 -160 8 -244h-100q0 111 -29 147.5t-127 36.5h-307v-497q0 -58 42 -72t173 -14h137q85 0 140.5 13.5t98 49t71.5 86t63 137.5l92 -26q-10 -38 -35.5 -184t-31.5 -199q-108 0 -465 7t-440 7q-50 0 -181 -3t-155 -3zM528 1610l115 248 q12 26 21 40.5t25 32.5t39 26.5t54 8.5q55 0 78 -28t23 -56q0 -38 -18.5 -63t-61.5 -58l-234 -176z" />
<glyph unicode="&#xca;" horiz-adv-x="1411" d="M72 0v92q40 0 59.5 0.5t47 5t40 13t22 24.5t9.5 41v1104q0 21 -5.5 35.5t-19 23.5t-25.5 14.5t-37.5 7.5t-41.5 2.5t-49 0.5v92q26 0 154.5 -2t174.5 -2q117 0 435 5.5t432 6.5l18 -352l-92 -20q-38 118 -63 157q-49 77 -155 89q-25 3 -54 3h-359v-528h311q89 0 120.5 47 t31.5 137h100q-8 -81 -8 -239q0 -160 8 -244h-100q0 111 -29 147.5t-127 36.5h-307v-497q0 -58 42 -72t173 -14h137q85 0 140.5 13.5t98 49t71.5 86t63 137.5l92 -26q-10 -38 -35.5 -184t-31.5 -199q-108 0 -465 7t-440 7q-50 0 -181 -3t-155 -3zM362 1597l258 326h170 l258 -326h-94l-252 160l-245 -160h-95z" />
<glyph unicode="&#xcb;" horiz-adv-x="1411" d="M72 0v92q40 0 59.5 0.5t47 5t40 13t22 24.5t9.5 41v1104q0 21 -5.5 35.5t-19 23.5t-25.5 14.5t-37.5 7.5t-41.5 2.5t-49 0.5v92q26 0 154.5 -2t174.5 -2q117 0 435 5.5t432 6.5l18 -352l-92 -20q-38 118 -63 157q-49 77 -155 89q-25 3 -54 3h-359v-528h311q89 0 120.5 47 t31.5 137h100q-8 -81 -8 -239q0 -160 8 -244h-100q0 111 -29 147.5t-127 36.5h-307v-497q0 -58 42 -72t173 -14h137q85 0 140.5 13.5t98 49t71.5 86t63 137.5l92 -26q-10 -38 -35.5 -184t-31.5 -199q-108 0 -465 7t-440 7q-50 0 -181 -3t-155 -3zM362 1767q0 56 37 95t92 39 q54 0 92.5 -38.5t38.5 -95.5q0 -55 -37.5 -95t-93.5 -40q-54 0 -91.5 39.5t-37.5 95.5zM782 1767q0 56 37 95t92 39t95 -39t40 -95q0 -54 -40 -94.5t-95 -40.5q-54 0 -91.5 39.5t-37.5 95.5z" />
<glyph unicode="&#xcc;" horiz-adv-x="819" d="M72 0v92q32 0 48 0.5t41.5 2.5t38 7.5t26.5 14.5t20 24t6 35v1106q0 20 -5.5 34.5t-19 23.5t-25.5 14t-37.5 7t-42 2.5t-50.5 0.5v92q18 0 160 -3t169 -3t175.5 3t171.5 3v-92q-34 0 -50.5 -0.5t-42 -2.5t-38 -7.5t-26 -14.5t-19 -23.5t-5.5 -35.5v-1104q0 -21 5.5 -35.5 t19.5 -23.5t26.5 -14.5t38 -7.5t42 -2.5t49.5 -0.5v-92q-26 0 -170 3t-170 3q-27 0 -173 -3t-163 -3zM231 1882q0 28 23 56t78 28q31 0 54 -8.5t39 -26.5t25 -32.5t21 -40.5l115 -248l-41 -25l-234 176q-43 33 -61.5 58t-18.5 63z" />
<glyph unicode="&#xcd;" horiz-adv-x="819" d="M72 0v92q32 0 48 0.5t41.5 2.5t38 7.5t26.5 14.5t20 24t6 35v1106q0 20 -5.5 34.5t-19 23.5t-25.5 14t-37.5 7t-42 2.5t-50.5 0.5v92q18 0 160 -3t169 -3t175.5 3t171.5 3v-92q-34 0 -50.5 -0.5t-42 -2.5t-38 -7.5t-26 -14.5t-19 -23.5t-5.5 -35.5v-1104q0 -21 5.5 -35.5 t19.5 -23.5t26.5 -14.5t38 -7.5t42 -2.5t49.5 -0.5v-92q-26 0 -170 3t-170 3q-27 0 -173 -3t-163 -3zM231 1610l115 248q12 26 21 40.5t25 32.5t39 26.5t54 8.5q55 0 78 -28t23 -56q0 -38 -18.5 -63t-61.5 -58l-234 -176z" />
<glyph unicode="&#xce;" horiz-adv-x="819" d="M65 1597l258 326h170l258 -326h-94l-252 160l-245 -160h-95zM72 0v92q32 0 48 0.5t41.5 2.5t38 7.5t26.5 14.5t20 24t6 35v1106q0 20 -5.5 34.5t-19 23.5t-25.5 14t-37.5 7t-42 2.5t-50.5 0.5v92q18 0 160 -3t169 -3t175.5 3t171.5 3v-92q-34 0 -50.5 -0.5t-42 -2.5 t-38 -7.5t-26 -14.5t-19 -23.5t-5.5 -35.5v-1104q0 -21 5.5 -35.5t19.5 -23.5t26.5 -14.5t38 -7.5t42 -2.5t49.5 -0.5v-92q-26 0 -170 3t-170 3q-27 0 -173 -3t-163 -3z" />
<glyph unicode="&#xcf;" horiz-adv-x="819" d="M67 1767q0 56 37 95t92 39q54 0 92.5 -38.5t38.5 -95.5q0 -55 -37.5 -95t-93.5 -40q-54 0 -91.5 39.5t-37.5 95.5zM72 0v92q32 0 48 0.5t41.5 2.5t38 7.5t26.5 14.5t20 24t6 35v1106q0 20 -5.5 34.5t-19 23.5t-25.5 14t-37.5 7t-42 2.5t-50.5 0.5v92q18 0 160 -3t169 -3 t175.5 3t171.5 3v-92q-34 0 -50.5 -0.5t-42 -2.5t-38 -7.5t-26 -14.5t-19 -23.5t-5.5 -35.5v-1104q0 -21 5.5 -35.5t19.5 -23.5t26.5 -14.5t38 -7.5t42 -2.5t49.5 -0.5v-92q-26 0 -170 3t-170 3q-27 0 -173 -3t-163 -3zM487 1767q0 56 37 95t92 39t95 -39t40 -95 q0 -54 -40 -94.5t-95 -40.5q-54 0 -91.5 39.5t-37.5 95.5z" />
<glyph unicode="&#xd0;" horiz-adv-x="1705" d="M72 0v92q34 0 50.5 0.5t42 2.5t37 7.5t25 14.5t18.5 23.5t5 35.5v529h-172v106h172v469q0 25 -9 41t-21 24.5t-39.5 13t-47 5t-61.5 0.5v92q8 0 133.5 -2t165.5 -2q9 0 139 2t207 2q147 0 274.5 -21.5t246.5 -73.5t203 -132t134.5 -205t50.5 -283q0 -191 -62 -336.5 t-174 -234.5t-259 -133.5t-326 -44.5q-65 0 -207 7t-197 7q-40 0 -182.5 -3t-146.5 -3zM563 199q0 -21 4 -35.5t18 -23.5t26 -14.5t42.5 -7.5t51.5 -2.5t69 -0.5h70q102 0 187.5 50t140 132.5t84.5 185.5t30 211q0 114 -19.5 209.5t-63 177.5t-110 139t-164.5 89t-222 32 q-75 0 -144 -6v-524h242v-106h-242v-506z" />
<glyph unicode="&#xd1;" horiz-adv-x="1681" d="M51 0v92q93 0 135 9.5t57 32.5t15 75v999q0 39 -13.5 73.5t-33.5 49.5q-44 33 -160 33v92q20 0 130.5 -3t129.5 -3q18 0 92 3t89 3l823 -962v690q0 43 -2.5 70t-11.5 48.5t-21 32.5t-38 18t-54.5 8.5t-77.5 2.5v92q24 0 135 -3t135 -3q21 0 126 3t124 3v-92 q-46 -1 -75.5 -3t-53.5 -9.5t-36.5 -18t-21 -30.5t-11 -44t-2.5 -63v-924q0 -142 20 -295h-100q-27 37 -61 78t-75.5 89t-62.5 73l-778 946v-913q0 -32 0.5 -47.5t3.5 -36t7.5 -28.5t15.5 -19.5t24.5 -14.5t37 -7t50.5 -4.5t68 -0.5v-92q-23 0 -137 3t-134 3q-27 0 -133 -3 t-125 -3zM473 1624q5 106 69.5 185t155.5 79q50 0 154.5 -42t150.5 -42q39 0 69.5 24.5t43.5 70.5h90q0 -106 -65.5 -185.5t-157.5 -79.5q-55 0 -163 43t-153 43q-36 0 -65.5 -27t-38.5 -69h-90z" />
<glyph unicode="&#xd2;" horiz-adv-x="1740" d="M82 711q0 169 63.5 315.5t170.5 246.5t249.5 157t298.5 57q117 0 229 -26.5t215 -85t181 -142t124 -207t46 -270.5q0 -163 -56.5 -306.5t-158.5 -249.5t-254 -167.5t-332 -61.5q-118 0 -223.5 26.5t-190.5 74t-153.5 115t-114 149.5t-70 177t-24.5 198zM426 780 q0 -318 122.5 -507t340.5 -189q99 0 175.5 36.5t122 94.5t74.5 140.5t39.5 164.5t10.5 176q0 191 -50 341.5t-155 243.5t-252 93q-109 0 -192.5 -45.5t-134 -127.5t-76 -188t-25.5 -233zM692 1882q0 28 23 56t78 28q31 0 54 -8.5t39 -26.5t25 -32.5t21 -40.5l115 -248 l-41 -25l-234 176q-43 33 -61.5 58t-18.5 63z" />
<glyph unicode="&#xd3;" horiz-adv-x="1740" d="M82 711q0 169 63.5 315.5t170.5 246.5t249.5 157t298.5 57q117 0 229 -26.5t215 -85t181 -142t124 -207t46 -270.5q0 -163 -56.5 -306.5t-158.5 -249.5t-254 -167.5t-332 -61.5q-118 0 -223.5 26.5t-190.5 74t-153.5 115t-114 149.5t-70 177t-24.5 198zM426 780 q0 -318 122.5 -507t340.5 -189q99 0 175.5 36.5t122 94.5t74.5 140.5t39.5 164.5t10.5 176q0 191 -50 341.5t-155 243.5t-252 93q-109 0 -192.5 -45.5t-134 -127.5t-76 -188t-25.5 -233zM692 1610l115 248q12 26 21 40.5t25 32.5t39 26.5t54 8.5q55 0 78 -28t23 -56 q0 -38 -18.5 -63t-61.5 -58l-234 -176z" />
<glyph unicode="&#xd4;" horiz-adv-x="1740" d="M82 711q0 169 63.5 315.5t170.5 246.5t249.5 157t298.5 57q117 0 229 -26.5t215 -85t181 -142t124 -207t46 -270.5q0 -163 -56.5 -306.5t-158.5 -249.5t-254 -167.5t-332 -61.5q-118 0 -223.5 26.5t-190.5 74t-153.5 115t-114 149.5t-70 177t-24.5 198zM426 780 q0 -318 122.5 -507t340.5 -189q99 0 175.5 36.5t122 94.5t74.5 140.5t39.5 164.5t10.5 176q0 191 -50 341.5t-155 243.5t-252 93q-109 0 -192.5 -45.5t-134 -127.5t-76 -188t-25.5 -233zM526 1597l258 326h170l258 -326h-94l-252 160l-245 -160h-95z" />
<glyph unicode="&#xd5;" horiz-adv-x="1740" d="M82 711q0 169 63.5 315.5t170.5 246.5t249.5 157t298.5 57q117 0 229 -26.5t215 -85t181 -142t124 -207t46 -270.5q0 -163 -56.5 -306.5t-158.5 -249.5t-254 -167.5t-332 -61.5q-118 0 -223.5 26.5t-190.5 74t-153.5 115t-114 149.5t-70 177t-24.5 198zM426 780 q0 -318 122.5 -507t340.5 -189q99 0 175.5 36.5t122 94.5t74.5 140.5t39.5 164.5t10.5 176q0 191 -50 341.5t-155 243.5t-252 93q-109 0 -192.5 -45.5t-134 -127.5t-76 -188t-25.5 -233zM455 1569q5 120 66.5 201t162.5 81q59 0 187 -52t190 -52q39 0 62 25t38 79h58 q0 -120 -61.5 -200t-162.5 -80q-62 0 -192.5 53t-188.5 53q-74 0 -98 -108h-61z" />
<glyph unicode="&#xd6;" horiz-adv-x="1740" d="M82 711q0 169 63.5 315.5t170.5 246.5t249.5 157t298.5 57q117 0 229 -26.5t215 -85t181 -142t124 -207t46 -270.5q0 -163 -56.5 -306.5t-158.5 -249.5t-254 -167.5t-332 -61.5q-118 0 -223.5 26.5t-190.5 74t-153.5 115t-114 149.5t-70 177t-24.5 198zM426 780 q0 -318 122.5 -507t340.5 -189q99 0 175.5 36.5t122 94.5t74.5 140.5t39.5 164.5t10.5 176q0 191 -50 341.5t-155 243.5t-252 93q-109 0 -192.5 -45.5t-134 -127.5t-76 -188t-25.5 -233zM528 1767q0 56 37 95t92 39q54 0 92.5 -38.5t38.5 -95.5q0 -55 -37.5 -95t-93.5 -40 q-54 0 -91.5 39.5t-37.5 95.5zM948 1767q0 56 37 95t92 39t95 -39t40 -95q0 -54 -40 -94.5t-95 -40.5q-54 0 -91.5 39.5t-37.5 95.5z" />
<glyph unicode="&#xd7;" horiz-adv-x="1144" d="M98 233l344 363l-344 362l129 136l344 -363l347 365l131 -138l-347 -362l347 -360l-134 -140l-344 363l-344 -363z" />
<glyph unicode="&#xd8;" horiz-adv-x="1740" d="M29 66l202 188q-149 194 -149 457q0 169 63.5 315.5t170.5 246.5t249.5 157t298.5 57q144 0 280.5 -41.5t246.5 -124.5l178 166l80 -90l-170 -156q180 -193 180 -485q0 -163 -56.5 -306.5t-158.5 -249.5t-254 -167.5t-332 -61.5q-324 0 -539 189l-202 -191zM426 780 q0 -181 37 -311l747 682q-57 104 -149.5 163.5t-206.5 59.5q-109 0 -192.5 -45.5t-134 -127.5t-76 -188t-25.5 -233zM512 338q58 -121 155 -187.5t222 -66.5q99 0 175.5 36.5t122 94.5t74.5 140.5t39.5 164.5t10.5 176q0 188 -54 336z" />
<glyph unicode="&#xd9;" horiz-adv-x="1656" d="M51 1364v92q20 0 162 -3t178 -3q32 0 181.5 3t166.5 3v-92h-47.5t-40 -1.5t-35.5 -5t-26 -9.5t-21 -15t-11 -22t-5 -31v-739q0 -209 89.5 -314.5t293.5 -105.5q180 0 281.5 105.5t101.5 312.5v696q0 33 -2.5 54.5t-12.5 36.5t-18.5 22t-33.5 11t-43 4.5t-60 0.5v92 q28 0 116 -3t107 -3q20 0 117 3t127 3v-92q-31 0 -46 -0.5t-39 -2.5t-35 -7t-25.5 -14t-21 -23t-11 -34.5t-4.5 -47.5v-688q0 -134 -29 -235.5t-78.5 -165.5t-123 -104t-154.5 -55.5t-181 -15.5q-147 0 -259 27.5t-197.5 87.5t-130.5 163.5t-45 248.5v774q0 23 -4 39 t-16.5 26t-23.5 15.5t-37.5 8t-45 3t-58.5 0.5zM651 1882q0 28 23 56t78 28q31 0 54 -8.5t39 -26.5t25 -32.5t21 -40.5l115 -248l-41 -25l-234 176q-43 33 -61.5 58t-18.5 63z" />
<glyph unicode="&#xda;" horiz-adv-x="1656" d="M51 1364v92q20 0 162 -3t178 -3q32 0 181.5 3t166.5 3v-92h-47.5t-40 -1.5t-35.5 -5t-26 -9.5t-21 -15t-11 -22t-5 -31v-739q0 -209 89.5 -314.5t293.5 -105.5q180 0 281.5 105.5t101.5 312.5v696q0 33 -2.5 54.5t-12.5 36.5t-18.5 22t-33.5 11t-43 4.5t-60 0.5v92 q28 0 116 -3t107 -3q20 0 117 3t127 3v-92q-31 0 -46 -0.5t-39 -2.5t-35 -7t-25.5 -14t-21 -23t-11 -34.5t-4.5 -47.5v-688q0 -134 -29 -235.5t-78.5 -165.5t-123 -104t-154.5 -55.5t-181 -15.5q-147 0 -259 27.5t-197.5 87.5t-130.5 163.5t-45 248.5v774q0 23 -4 39 t-16.5 26t-23.5 15.5t-37.5 8t-45 3t-58.5 0.5zM651 1610l115 248q12 26 21 40.5t25 32.5t39 26.5t54 8.5q55 0 78 -28t23 -56q0 -38 -18.5 -63t-61.5 -58l-234 -176z" />
<glyph unicode="&#xdb;" horiz-adv-x="1656" d="M51 1364v92q20 0 162 -3t178 -3q32 0 181.5 3t166.5 3v-92h-47.5t-40 -1.5t-35.5 -5t-26 -9.5t-21 -15t-11 -22t-5 -31v-739q0 -209 89.5 -314.5t293.5 -105.5q180 0 281.5 105.5t101.5 312.5v696q0 33 -2.5 54.5t-12.5 36.5t-18.5 22t-33.5 11t-43 4.5t-60 0.5v92 q28 0 116 -3t107 -3q20 0 117 3t127 3v-92q-31 0 -46 -0.5t-39 -2.5t-35 -7t-25.5 -14t-21 -23t-11 -34.5t-4.5 -47.5v-688q0 -134 -29 -235.5t-78.5 -165.5t-123 -104t-154.5 -55.5t-181 -15.5q-147 0 -259 27.5t-197.5 87.5t-130.5 163.5t-45 248.5v774q0 23 -4 39 t-16.5 26t-23.5 15.5t-37.5 8t-45 3t-58.5 0.5zM485 1597l258 326h170l258 -326h-94l-252 160l-245 -160h-95z" />
<glyph unicode="&#xdc;" horiz-adv-x="1656" d="M51 1364v92q20 0 162 -3t178 -3q32 0 181.5 3t166.5 3v-92h-47.5t-40 -1.5t-35.5 -5t-26 -9.5t-21 -15t-11 -22t-5 -31v-739q0 -209 89.5 -314.5t293.5 -105.5q180 0 281.5 105.5t101.5 312.5v696q0 33 -2.5 54.5t-12.5 36.5t-18.5 22t-33.5 11t-43 4.5t-60 0.5v92 q28 0 116 -3t107 -3q20 0 117 3t127 3v-92q-31 0 -46 -0.5t-39 -2.5t-35 -7t-25.5 -14t-21 -23t-11 -34.5t-4.5 -47.5v-688q0 -134 -29 -235.5t-78.5 -165.5t-123 -104t-154.5 -55.5t-181 -15.5q-147 0 -259 27.5t-197.5 87.5t-130.5 163.5t-45 248.5v774q0 23 -4 39 t-16.5 26t-23.5 15.5t-37.5 8t-45 3t-58.5 0.5zM485 1767q0 56 37 95t92 39q54 0 92.5 -38.5t38.5 -95.5q0 -55 -37.5 -95t-93.5 -40q-54 0 -91.5 39.5t-37.5 95.5zM905 1767q0 56 37 95t92 39t95 -39t40 -95q0 -54 -40 -94.5t-95 -40.5q-54 0 -91.5 39.5t-37.5 95.5z" />
<glyph unicode="&#xdd;" horiz-adv-x="1505" d="M31 1364v92q28 0 179.5 -2t176.5 -2q30 0 151.5 2t145.5 2v-92q-78 0 -102.5 -9t-24.5 -42q0 -35 35 -90l289 -467l252 413q53 87 53 134q0 61 -105 61v92q19 0 94 -2t93 -2t105.5 2t101.5 2v-92q-55 0 -78.5 -11t-53.5 -55l-407 -636v-486q0 -21 4 -35.5t17.5 -23.5 t25 -14.5t41 -7.5t50 -2.5t65.5 -0.5v-92q-23 0 -157 3t-202 3q-72 0 -207 -3t-157 -3v92q45 0 65 0.5t49.5 2.5t41.5 7t26 14t18.5 23.5t4.5 34.5v432l-418 686q-22 38 -37.5 51t-40.5 17t-94 4zM575 1610l115 248q12 26 21 40.5t25 32.5t39 26.5t54 8.5q55 0 78 -28 t23 -56q0 -38 -18.5 -63t-61.5 -58l-234 -176z" />
<glyph unicode="&#xde;" horiz-adv-x="1361" d="M72 0v92q39 0 56.5 0.5t42 2.5t34.5 7t21 14t14.5 22.5t3.5 33.5v1110q0 24 -9 40t-20.5 24.5t-38 12.5t-45.5 4.5t-59 0.5v92q16 0 147 -3t160 -3q26 0 183 3t181 3v-92q-34 0 -51 -0.5t-42.5 -2.5t-38 -7.5t-26 -14.5t-19 -23.5t-5.5 -35.5v-84q110 4 170 4 q85 0 163.5 -11.5t156 -41t134 -74.5t91.5 -117t35 -163q0 -114 -49 -204t-131.5 -144t-182.5 -81.5t-209 -27.5q-95 0 -180 18v-178q0 -21 5 -35.5t20 -23.5t28 -14.5t43.5 -7.5t50.5 -2.5t64 -0.5v-92q-19 0 -144 3t-194 3q-56 0 -197.5 -3t-162.5 -3zM559 465 q94 -23 156 -23q268 0 268 338q0 143 -73.5 223t-223.5 80q-86 0 -127 -6v-612z" />
<glyph unicode="&#xdf;" horiz-adv-x="1286" d="M29 0v84q35 0 52.5 1t39.5 5.5t32 13.5t17.5 26t7.5 42v694h-147v86q114 16 133 35q40 264 195.5 419t416.5 155q181 0 288 -88.5t107 -225.5q0 -47 -18 -89.5t-43 -72.5t-66.5 -62.5t-71.5 -50t-76.5 -44t-64.5 -37.5v-8q35 -22 59.5 -38t69 -49.5t76.5 -62.5t70 -71.5 t62 -83.5t40.5 -91.5t16.5 -101.5q0 -178 -115 -296t-272 -118q-106 0 -180 40.5t-74 113.5q0 55 30 79.5t78 24.5q36 0 62.5 -25.5t40 -56t37 -56t53.5 -25.5q62 0 97.5 41t35.5 102q0 76 -28.5 151.5t-62 126.5t-97.5 114.5t-94.5 88.5t-94.5 74q-7 5 -10 8l8 111 q25 20 72.5 52.5t76.5 54.5t61.5 55t48 72.5t15.5 86.5q0 109 -63 185.5t-160 76.5q-81 0 -135.5 -43t-78 -109t-23.5 -151v-1163q-17 0 -70 3t-76 3q-47 0 -148.5 -3t-129.5 -3z" />
<glyph unicode="&#xe0;" horiz-adv-x="1136" d="M76 223q0 124 86 207t229 113l275 57v168q0 81 -36 114t-134 33q-78 0 -119 -32.5t-41 -87.5q0 -15 6 -49.5t6 -53.5q0 -31 -41.5 -52.5t-122.5 -21.5q-34 0 -62 27.5t-28 75.5q0 62 37 114.5t93 86.5t125 57.5t131.5 34t113.5 10.5q184 0 268 -69.5t84 -213.5v-526 q0 -39 13.5 -57.5t46.5 -18.5q15 0 36 9.5t35 21.5l49 -76q-111 -117 -264 -117q-80 0 -126 32.5t-66 107.5q-81 -80 -151 -113t-171 -33q-118 0 -195 69.5t-77 182.5zM356 272q0 -72 39.5 -111.5t100.5 -39.5q31 0 63.5 16t53 33.5t53.5 48.5v283l-95 -17 q-104 -19 -159.5 -73.5t-55.5 -139.5zM391 1413q0 28 23 56t78 28q31 0 54 -8.5t39 -26.5t25 -32.5t21 -40.5l115 -248l-41 -25l-234 176q-43 33 -61.5 58t-18.5 63z" />
<glyph unicode="&#xe1;" horiz-adv-x="1136" d="M76 223q0 124 86 207t229 113l275 57v168q0 81 -36 114t-134 33q-78 0 -119 -32.5t-41 -87.5q0 -15 6 -49.5t6 -53.5q0 -31 -41.5 -52.5t-122.5 -21.5q-34 0 -62 27.5t-28 75.5q0 62 37 114.5t93 86.5t125 57.5t131.5 34t113.5 10.5q184 0 268 -69.5t84 -213.5v-526 q0 -39 13.5 -57.5t46.5 -18.5q15 0 36 9.5t35 21.5l49 -76q-111 -117 -264 -117q-80 0 -126 32.5t-66 107.5q-81 -80 -151 -113t-171 -33q-118 0 -195 69.5t-77 182.5zM356 272q0 -72 39.5 -111.5t100.5 -39.5q31 0 63.5 16t53 33.5t53.5 48.5v283l-95 -17 q-104 -19 -159.5 -73.5t-55.5 -139.5zM391 1141l115 248q12 26 21 40.5t25 32.5t39 26.5t54 8.5q55 0 78 -28t23 -56q0 -38 -18.5 -63t-61.5 -58l-234 -176z" />
<glyph unicode="&#xe2;" horiz-adv-x="1136" d="M76 223q0 124 86 207t229 113l275 57v168q0 81 -36 114t-134 33q-78 0 -119 -32.5t-41 -87.5q0 -15 6 -49.5t6 -53.5q0 -31 -41.5 -52.5t-122.5 -21.5q-34 0 -62 27.5t-28 75.5q0 62 37 114.5t93 86.5t125 57.5t131.5 34t113.5 10.5q184 0 268 -69.5t84 -213.5v-526 q0 -39 13.5 -57.5t46.5 -18.5q15 0 36 9.5t35 21.5l49 -76q-111 -117 -264 -117q-80 0 -126 32.5t-66 107.5q-81 -80 -151 -113t-171 -33q-118 0 -195 69.5t-77 182.5zM225 1128l258 326h170l258 -326h-94l-252 160l-245 -160h-95zM356 272q0 -72 39.5 -111.5t100.5 -39.5 q31 0 63.5 16t53 33.5t53.5 48.5v283l-95 -17q-104 -19 -159.5 -73.5t-55.5 -139.5z" />
<glyph unicode="&#xe3;" horiz-adv-x="1136" d="M76 223q0 124 86 207t229 113l275 57v168q0 81 -36 114t-134 33q-78 0 -119 -32.5t-41 -87.5q0 -15 6 -49.5t6 -53.5q0 -31 -41.5 -52.5t-122.5 -21.5q-34 0 -62 27.5t-28 75.5q0 62 37 114.5t93 86.5t125 57.5t131.5 34t113.5 10.5q184 0 268 -69.5t84 -213.5v-526 q0 -39 13.5 -57.5t46.5 -18.5q15 0 36 9.5t35 21.5l49 -76q-111 -117 -264 -117q-80 0 -126 32.5t-66 107.5q-81 -80 -151 -113t-171 -33q-118 0 -195 69.5t-77 182.5zM201 1155q5 106 69.5 185t155.5 79q50 0 154.5 -42t150.5 -42q39 0 69.5 24.5t43.5 70.5h90 q0 -106 -65.5 -185.5t-157.5 -79.5q-55 0 -163 43t-153 43q-36 0 -65.5 -27t-38.5 -69h-90zM356 272q0 -72 39.5 -111.5t100.5 -39.5q31 0 63.5 16t53 33.5t53.5 48.5v283l-95 -17q-104 -19 -159.5 -73.5t-55.5 -139.5z" />
<glyph unicode="&#xe4;" horiz-adv-x="1136" d="M76 223q0 124 86 207t229 113l275 57v168q0 81 -36 114t-134 33q-78 0 -119 -32.5t-41 -87.5q0 -15 6 -49.5t6 -53.5q0 -31 -41.5 -52.5t-122.5 -21.5q-34 0 -62 27.5t-28 75.5q0 62 37 114.5t93 86.5t125 57.5t131.5 34t113.5 10.5q184 0 268 -69.5t84 -213.5v-526 q0 -39 13.5 -57.5t46.5 -18.5q15 0 36 9.5t35 21.5l49 -76q-111 -117 -264 -117q-80 0 -126 32.5t-66 107.5q-81 -80 -151 -113t-171 -33q-118 0 -195 69.5t-77 182.5zM225 1298q0 56 37 95t92 39q54 0 92.5 -38.5t38.5 -95.5q0 -55 -37.5 -95t-93.5 -40q-54 0 -91.5 39.5 t-37.5 95.5zM356 272q0 -72 39.5 -111.5t100.5 -39.5q31 0 63.5 16t53 33.5t53.5 48.5v283l-95 -17q-104 -19 -159.5 -73.5t-55.5 -139.5zM645 1298q0 56 37 95t92 39t95 -39t40 -95q0 -54 -40 -94.5t-95 -40.5q-54 0 -91.5 39.5t-37.5 95.5z" />
<glyph unicode="&#xe5;" horiz-adv-x="1136" d="M76 223q0 124 86 207t229 113l275 57v168q0 81 -36 114t-134 33q-78 0 -119 -32.5t-41 -87.5q0 -15 6 -49.5t6 -53.5q0 -31 -41.5 -52.5t-122.5 -21.5q-34 0 -62 27.5t-28 75.5q0 62 37 114.5t93 86.5t125 57.5t131.5 34t113.5 10.5q184 0 268 -69.5t84 -213.5v-526 q0 -39 13.5 -57.5t46.5 -18.5q15 0 36 9.5t35 21.5l49 -76q-111 -117 -264 -117q-80 0 -126 32.5t-66 107.5q-81 -80 -151 -113t-171 -33q-118 0 -195 69.5t-77 182.5zM356 272q0 -72 39.5 -111.5t100.5 -39.5q31 0 63.5 16t53 33.5t53.5 48.5v283l-95 -17 q-104 -19 -159.5 -73.5t-55.5 -139.5zM358 1317q0 78 54 132t131 54q71 0 124.5 -54.5t53.5 -131.5q0 -76 -53.5 -130t-124.5 -54q-77 0 -131 54t-54 130zM440 1317q0 -41 30 -70.5t73 -29.5q37 0 66.5 29.5t29.5 70.5q0 40 -29 72t-67 32q-42 0 -72.5 -31t-30.5 -73z" />
<glyph unicode="&#xe6;" horiz-adv-x="1669" d="M80 223q0 124 86 207t229 113l275 57v168q0 81 -36 114t-134 33q-82 0 -121 -34.5t-39 -92.5q0 -8 6 -44t6 -52q0 -31 -43.5 -52.5t-130.5 -21.5q-25 0 -52.5 31t-27.5 72q0 62 37 114.5t93 86.5t125 57.5t131.5 34t113.5 10.5q196 0 285 -102q130 102 301 102 q91 0 168 -41.5t126.5 -110t77 -155t27.5 -178.5l-33 -35h-612v-43q0 -57 16.5 -108.5t51.5 -96.5t97 -71.5t144 -26.5q68 0 146 37t147 98l59 -57q-85 -128 -205.5 -196.5t-265.5 -68.5q-259 0 -378 209q-91 -102 -185 -155.5t-213 -53.5q-118 0 -195 69.5t-77 182.5z M360 272q0 -69 40 -110t100 -41q26 0 49.5 8t49 27t38.5 30.5t41 38.5v279l-103 -17q-104 -19 -159.5 -74.5t-55.5 -140.5zM936 610h348q33 0 33 41q0 64 -18.5 122.5t-59.5 100t-96 41.5q-60 0 -109 -48.5t-73.5 -117.5t-24.5 -139z" />
<glyph unicode="&#xe7;" horiz-adv-x="1073" d="M96 471q0 81 22.5 160t68.5 150t110 125t153.5 86t192.5 32q143 0 242.5 -59.5t99.5 -159.5q0 -57 -32.5 -90t-86.5 -33q-52 0 -79.5 24t-37 58.5t-21.5 68.5t-47 58t-99 24q-97 0 -160.5 -92.5t-63.5 -230.5q0 -207 84.5 -319.5t245.5 -112.5q141 0 273 135l61 -57 q-70 -124 -187 -195.5t-268 -71.5q-91 0 -168 27.5t-132 75.5t-94 111.5t-58 136t-19 149.5zM303 -451l17 68q58 -14 129 -14q55 0 87 31.5t32 80.5q0 34 -22 57t-56 23t-64 -10l-16 12l127 209h84l-62 -115q35 5 66 5q65 0 104 -46.5t39 -117.5q0 -99 -88.5 -150 t-234.5 -51q-105 0 -142 18z" />
<glyph unicode="&#xe8;" horiz-adv-x="1085" d="M96 475q0 150 62 275t177.5 199.5t262.5 74.5q91 0 168 -41.5t126.5 -110t77 -155t27.5 -178.5l-32 -35h-613v-43q0 -60 15 -111.5t48 -96t93.5 -70t142.5 -25.5q149 0 303 137l60 -59q-176 -265 -471 -265q-134 0 -237 68.5t-156.5 182.5t-53.5 253zM350 610h348 q33 0 33 41q0 110 -45.5 187t-128.5 77q-93 0 -150 -89t-57 -216zM364 1413q0 28 23 56t78 28q31 0 54 -8.5t39 -26.5t25 -32.5t21 -40.5l115 -248l-41 -25l-234 176q-43 33 -61.5 58t-18.5 63z" />
<glyph unicode="&#xe9;" horiz-adv-x="1085" d="M96 475q0 150 62 275t177.5 199.5t262.5 74.5q91 0 168 -41.5t126.5 -110t77 -155t27.5 -178.5l-32 -35h-613v-43q0 -60 15 -111.5t48 -96t93.5 -70t142.5 -25.5q149 0 303 137l60 -59q-176 -265 -471 -265q-134 0 -237 68.5t-156.5 182.5t-53.5 253zM350 610h348 q33 0 33 41q0 110 -45.5 187t-128.5 77q-93 0 -150 -89t-57 -216zM364 1141l115 248q12 26 21 40.5t25 32.5t39 26.5t54 8.5q55 0 78 -28t23 -56q0 -38 -18.5 -63t-61.5 -58l-234 -176z" />
<glyph unicode="&#xea;" horiz-adv-x="1085" d="M96 475q0 150 62 275t177.5 199.5t262.5 74.5q91 0 168 -41.5t126.5 -110t77 -155t27.5 -178.5l-32 -35h-613v-43q0 -60 15 -111.5t48 -96t93.5 -70t142.5 -25.5q149 0 303 137l60 -59q-176 -265 -471 -265q-134 0 -237 68.5t-156.5 182.5t-53.5 253zM198 1128l258 326 h170l258 -326h-94l-252 160l-245 -160h-95zM350 610h348q33 0 33 41q0 110 -45.5 187t-128.5 77q-93 0 -150 -89t-57 -216z" />
<glyph unicode="&#xeb;" horiz-adv-x="1085" d="M96 475q0 150 62 275t177.5 199.5t262.5 74.5q91 0 168 -41.5t126.5 -110t77 -155t27.5 -178.5l-32 -35h-613v-43q0 -60 15 -111.5t48 -96t93.5 -70t142.5 -25.5q149 0 303 137l60 -59q-176 -265 -471 -265q-134 0 -237 68.5t-156.5 182.5t-53.5 253zM200 1298 q0 56 37 95t92 39q54 0 92.5 -38.5t38.5 -95.5q0 -55 -37.5 -95t-93.5 -40q-54 0 -91.5 39.5t-37.5 95.5zM350 610h348q33 0 33 41q0 110 -45.5 187t-128.5 77q-93 0 -150 -89t-57 -216zM620 1298q0 56 37 95t92 39t95 -39t40 -95q0 -54 -40 -94.5t-95 -40.5 q-54 0 -91.5 39.5t-37.5 95.5z" />
<glyph unicode="&#xec;" horiz-adv-x="675" d="M55 889v88q2 0 53.5 1t87.5 2.5t89.5 5.5t96.5 12t71 20l34 -23v-821q0 -26 7.5 -43t16.5 -26t32 -13.5t39.5 -5t52.5 -0.5v-86q-36 0 -151 3t-140 3q-20 0 -138 -3t-149 -3v86q34 0 50 0.5t39.5 5.5t34.5 14t19.5 27t8.5 45v594q0 26 -1.5 39.5t-9.5 31t-24 26 t-45.5 14.5t-73.5 6zM162 1413q0 28 23 56t78 28q31 0 54 -8.5t39 -26.5t25 -32.5t21 -40.5l115 -248l-41 -25l-234 176q-43 33 -61.5 58t-18.5 63z" />
<glyph unicode="&#xed;" horiz-adv-x="675" d="M55 889v88q2 0 53.5 1t87.5 2.5t89.5 5.5t96.5 12t71 20l34 -23v-821q0 -26 7.5 -43t16.5 -26t32 -13.5t39.5 -5t52.5 -0.5v-86q-36 0 -151 3t-140 3q-20 0 -138 -3t-149 -3v86q34 0 50 0.5t39.5 5.5t34.5 14t19.5 27t8.5 45v594q0 26 -1.5 39.5t-9.5 31t-24 26 t-45.5 14.5t-73.5 6zM162 1141l115 248q12 26 21 40.5t25 32.5t39 26.5t54 8.5q55 0 78 -28t23 -56q0 -38 -18.5 -63t-61.5 -58l-234 -176z" />
<glyph unicode="&#xee;" horiz-adv-x="675" d="M-4 1128l258 326h170l258 -326h-94l-252 160l-245 -160h-95zM55 889v88q2 0 53.5 1t87.5 2.5t89.5 5.5t96.5 12t71 20l34 -23v-821q0 -26 7.5 -43t16.5 -26t32 -13.5t39.5 -5t52.5 -0.5v-86q-36 0 -151 3t-140 3q-20 0 -138 -3t-149 -3v86q34 0 50 0.5t39.5 5.5t34.5 14 t19.5 27t8.5 45v594q0 26 -1.5 39.5t-9.5 31t-24 26t-45.5 14.5t-73.5 6z" />
<glyph unicode="&#xef;" horiz-adv-x="675" d="M-4 1298q0 56 37 95t92 39q54 0 92.5 -38.5t38.5 -95.5q0 -55 -37.5 -95t-93.5 -40q-54 0 -91.5 39.5t-37.5 95.5zM55 889v88q2 0 53.5 1t87.5 2.5t89.5 5.5t96.5 12t71 20l34 -23v-821q0 -26 7.5 -43t16.5 -26t32 -13.5t39.5 -5t52.5 -0.5v-86q-36 0 -151 3t-140 3 q-20 0 -138 -3t-149 -3v86q34 0 50 0.5t39.5 5.5t34.5 14t19.5 27t8.5 45v594q0 26 -1.5 39.5t-9.5 31t-24 26t-45.5 14.5t-73.5 6zM416 1298q0 56 37 95t92 39t95 -39t40 -95q0 -54 -40 -94.5t-95 -40.5q-54 0 -91.5 39.5t-37.5 95.5z" />
<glyph unicode="&#xf0;" horiz-adv-x="1234" d="M96 489q0 107 38 204t106 170.5t170.5 117t224.5 43.5q69 0 138.5 -20.5t105.5 -63.5q-40 131 -127 283l-177 -113l-53 80l180 117q-47 77 -133 172l86 75q102 -82 172 -163l187 122l53 -79l-180 -119q123 -162 190.5 -359.5t67.5 -414.5q0 -109 -34.5 -210t-98.5 -182 t-165 -129.5t-224 -48.5q-241 0 -384 144t-143 374zM395 528q0 -223 65.5 -336.5t182.5 -113.5q213 0 213 336q0 114 -11.5 200.5t-38 156.5t-74.5 107t-116 37q-65 0 -110 -30.5t-68.5 -86.5t-33 -121t-9.5 -149z" />
<glyph unicode="&#xf1;" horiz-adv-x="1314" d="M55 0v86q33 0 48.5 0.5t37.5 5t31.5 14t17 27t7.5 43.5v578q0 39 -3 58.5t-16 40t-42.5 28.5t-80.5 8v88q274 0 383 41l29 -23v-125h10q71 71 169.5 112.5t195.5 41.5q138 0 217.5 -71t79.5 -218v-559q0 -26 7.5 -43.5t17 -27t30.5 -14t35.5 -5t44.5 -0.5v-86 q-78 4 -262 4q-191 0 -277 -4v86q31 0 44.5 0.5t32.5 5t26.5 14t13.5 26.5t6 44v473q0 195 -151 195q-106 0 -234 -76v-592q0 -26 7.5 -44t17.5 -27t31 -13.5t35 -5t42 -0.5v-86q-86 4 -268 4q-189 0 -283 -4zM291 1155q5 106 69.5 185t155.5 79q50 0 154 -42t151 -42 q39 0 69.5 24.5t43.5 70.5h90q0 -106 -65.5 -185.5t-157.5 -79.5q-54 0 -162.5 43t-153.5 43q-36 0 -65.5 -27t-38.5 -69h-90z" />
<glyph unicode="&#xf2;" horiz-adv-x="1253" d="M96 489q0 107 38 204t106 170.5t170.5 117t224.5 43.5q126 0 227.5 -43.5t164.5 -116.5t96.5 -165.5t33.5 -194.5q0 -86 -22.5 -165t-68 -146t-108.5 -116.5t-149 -77.5t-186 -28q-233 0 -380 145t-147 373zM395 528q0 -230 60 -339t188 -109q61 0 103 23.5t66 69.5 t34 104.5t10 136.5q0 114 -11.5 200.5t-38 156.5t-74.5 107t-116 37t-114 -30t-68 -87.5t-30.5 -120t-8.5 -149.5zM448 1413q0 28 23 56t78 28q31 0 54 -8.5t39 -26.5t25 -32.5t21 -40.5l115 -248l-41 -25l-234 176q-43 33 -61.5 58t-18.5 63z" />
<glyph unicode="&#xf3;" horiz-adv-x="1253" d="M96 489q0 107 38 204t106 170.5t170.5 117t224.5 43.5q126 0 227.5 -43.5t164.5 -116.5t96.5 -165.5t33.5 -194.5q0 -86 -22.5 -165t-68 -146t-108.5 -116.5t-149 -77.5t-186 -28q-233 0 -380 145t-147 373zM395 528q0 -230 60 -339t188 -109q61 0 103 23.5t66 69.5 t34 104.5t10 136.5q0 114 -11.5 200.5t-38 156.5t-74.5 107t-116 37t-114 -30t-68 -87.5t-30.5 -120t-8.5 -149.5zM448 1141l115 248q12 26 21 40.5t25 32.5t39 26.5t54 8.5q55 0 78 -28t23 -56q0 -38 -18.5 -63t-61.5 -58l-234 -176z" />
<glyph unicode="&#xf4;" horiz-adv-x="1253" d="M96 489q0 107 38 204t106 170.5t170.5 117t224.5 43.5q126 0 227.5 -43.5t164.5 -116.5t96.5 -165.5t33.5 -194.5q0 -86 -22.5 -165t-68 -146t-108.5 -116.5t-149 -77.5t-186 -28q-233 0 -380 145t-147 373zM282 1128l258 326h170l258 -326h-94l-252 160l-245 -160h-95z M395 528q0 -230 60 -339t188 -109q61 0 103 23.5t66 69.5t34 104.5t10 136.5q0 114 -11.5 200.5t-38 156.5t-74.5 107t-116 37t-114 -30t-68 -87.5t-30.5 -120t-8.5 -149.5z" />
<glyph unicode="&#xf5;" horiz-adv-x="1253" d="M96 489q0 107 38 204t106 170.5t170.5 117t224.5 43.5q126 0 227.5 -43.5t164.5 -116.5t96.5 -165.5t33.5 -194.5q0 -86 -22.5 -165t-68 -146t-108.5 -116.5t-149 -77.5t-186 -28q-233 0 -380 145t-147 373zM219 1155q5 106 69.5 185t155.5 79q50 0 154.5 -42t151.5 -42 q39 0 69 24.5t43 70.5h90q0 -106 -65.5 -185.5t-157.5 -79.5q-55 0 -162 43t-153 43q-36 0 -66 -27t-39 -69h-90zM395 528q0 -230 60 -339t188 -109q61 0 103 23.5t66 69.5t34 104.5t10 136.5q0 114 -11.5 200.5t-38 156.5t-74.5 107t-116 37t-114 -30t-68 -87.5t-30.5 -120 t-8.5 -149.5z" />
<glyph unicode="&#xf6;" horiz-adv-x="1253" d="M96 489q0 107 38 204t106 170.5t170.5 117t224.5 43.5q126 0 227.5 -43.5t164.5 -116.5t96.5 -165.5t33.5 -194.5q0 -86 -22.5 -165t-68 -146t-108.5 -116.5t-149 -77.5t-186 -28q-233 0 -380 145t-147 373zM284 1298q0 56 37 95t92 39q54 0 92.5 -38.5t38.5 -95.5 q0 -55 -37.5 -95t-93.5 -40q-54 0 -91.5 39.5t-37.5 95.5zM395 528q0 -230 60 -339t188 -109q61 0 103 23.5t66 69.5t34 104.5t10 136.5q0 114 -11.5 200.5t-38 156.5t-74.5 107t-116 37t-114 -30t-68 -87.5t-30.5 -120t-8.5 -149.5zM704 1298q0 56 37 95t92 39t95 -39 t40 -95q0 -54 -40 -94.5t-95 -40.5q-54 0 -91.5 39.5t-37.5 95.5z" />
<glyph unicode="&#xf8;" horiz-adv-x="1255" d="M45 66l139 122q-86 131 -86 301q0 107 38 204t106 170.5t170.5 117t224.5 43.5q213 0 350 -121l133 117l62 -72l-129 -114q106 -143 106 -330q0 -86 -22.5 -165t-68 -146t-108.5 -116.5t-149 -77.5t-186 -28q-235 0 -385 150l-144 -125zM397 528q0 -82 6 -143l410 363 q-27 75 -76.5 121t-118.5 46q-54 0 -94 -21t-64 -55t-38.5 -86t-19.5 -105t-5 -120zM424 279q25 -84 85 -141.5t136 -57.5q61 0 103 23.5t66 69.5t34 104.5t10 136.5q0 145 -14 233z" />
<glyph unicode="&#xf9;" horiz-adv-x="1273" d="M41 885v92q74 0 209.5 11t187.5 24l15 -19q-7 -158 -7 -207v-487q0 -156 160 -156q89 0 199 88v525q0 70 -31.5 99.5t-105.5 29.5v92q80 0 219 10.5t188 24.5l12 -17q-8 -41 -8 -176v-649q0 -52 11 -68t53 -16h80v-86q-77 0 -199.5 -4.5t-165.5 -9.5l-41 28l-12 90 q-152 -133 -344 -133q-149 0 -221 81t-72 231v465q0 37 -3 57t-14.5 41t-38 30t-71.5 9zM459 1413q0 28 23 56t78 28q31 0 54 -8.5t39 -26.5t25 -32.5t21 -40.5l115 -248l-41 -25l-234 176q-43 33 -61.5 58t-18.5 63z" />
<glyph unicode="&#xfa;" horiz-adv-x="1273" d="M41 885v92q74 0 209.5 11t187.5 24l15 -19q-7 -158 -7 -207v-487q0 -156 160 -156q89 0 199 88v525q0 70 -31.5 99.5t-105.5 29.5v92q80 0 219 10.5t188 24.5l12 -17q-8 -41 -8 -176v-649q0 -52 11 -68t53 -16h80v-86q-77 0 -199.5 -4.5t-165.5 -9.5l-41 28l-12 90 q-152 -133 -344 -133q-149 0 -221 81t-72 231v465q0 37 -3 57t-14.5 41t-38 30t-71.5 9zM459 1141l115 248q12 26 21 40.5t25 32.5t39 26.5t54 8.5q55 0 78 -28t23 -56q0 -38 -18.5 -63t-61.5 -58l-234 -176z" />
<glyph unicode="&#xfb;" horiz-adv-x="1273" d="M41 885v92q74 0 209.5 11t187.5 24l15 -19q-7 -158 -7 -207v-487q0 -156 160 -156q89 0 199 88v525q0 70 -31.5 99.5t-105.5 29.5v92q80 0 219 10.5t188 24.5l12 -17q-8 -41 -8 -176v-649q0 -52 11 -68t53 -16h80v-86q-77 0 -199.5 -4.5t-165.5 -9.5l-41 28l-12 90 q-152 -133 -344 -133q-149 0 -221 81t-72 231v465q0 37 -3 57t-14.5 41t-38 30t-71.5 9zM292 1128l258 326h170l258 -326h-94l-252 160l-245 -160h-95z" />
<glyph unicode="&#xfc;" horiz-adv-x="1273" d="M41 885v92q74 0 209.5 11t187.5 24l15 -19q-7 -158 -7 -207v-487q0 -156 160 -156q89 0 199 88v525q0 70 -31.5 99.5t-105.5 29.5v92q80 0 219 10.5t188 24.5l12 -17q-8 -41 -8 -176v-649q0 -52 11 -68t53 -16h80v-86q-77 0 -199.5 -4.5t-165.5 -9.5l-41 28l-12 90 q-152 -133 -344 -133q-149 0 -221 81t-72 231v465q0 37 -3 57t-14.5 41t-38 30t-71.5 9zM295 1298q0 56 37 95t92 39q54 0 92.5 -38.5t38.5 -95.5q0 -55 -37.5 -95t-93.5 -40q-54 0 -91.5 39.5t-37.5 95.5zM715 1298q0 56 37 95t92 39t95 -39t40 -95q0 -54 -40 -94.5 t-95 -40.5q-54 0 -91.5 39.5t-37.5 95.5z" />
<glyph unicode="&#xfd;" horiz-adv-x="1110" d="M0 907v88q82 -4 260 -4q166 0 252 4v-88q-63 0 -88 -8.5t-25 -34.5q0 -13 5.5 -32t11 -33.5t14 -34t10.5 -23.5l185 -436h2l198 461q19 49 19 88q0 53 -90 53v88q70 -4 153 -4q130 0 180 4v-88q-51 0 -82.5 -28t-52.5 -78l-471 -1094q-49 -114 -115 -171.5t-137 -57.5 q-81 0 -134.5 37.5t-53.5 105.5q0 56 28 88.5t87 32.5q30 0 52.5 -17t33 -37.5t24.5 -37.5t31 -17q46 0 78 74l123 289l-387 840q-22 47 -43.5 59t-67.5 12zM377 1141l115 248q12 26 21 40.5t25 32.5t39 26.5t54 8.5q55 0 78 -28t23 -56q0 -38 -18.5 -63t-61.5 -58 l-234 -176z" />
<glyph unicode="&#xfe;" horiz-adv-x="1302" d="M41 1395v88q276 0 387 41l33 -23v-614q149 137 346 137q179 0 289 -133.5t110 -331.5q0 -271 -147 -424t-397 -153q-111 0 -193 36v-362q0 -18 4 -31t17 -21t23.5 -12.5t37.5 -6.5t45.5 -2.5t58.5 -0.5v-90q-25 0 -153.5 2t-151.5 2q-25 0 -153 -2t-150 -2v90 q26 0 39 0.5t33.5 2t31 6t22 12t16 20t4.5 29.5v1620q0 30 -4.5 49t-19 38t-46.5 27.5t-82 8.5zM469 276q0 -79 58 -137.5t149 -58.5q78 0 134 57t80.5 137t24.5 170q0 84 -15 154t-46 127t-85 89t-126 32q-43 0 -92 -18.5t-82 -45.5v-506z" />
<glyph unicode="&#xff;" horiz-adv-x="1110" d="M0 907v88q82 -4 260 -4q166 0 252 4v-88q-63 0 -88 -8.5t-25 -34.5q0 -13 5.5 -32t11 -33.5t14 -34t10.5 -23.5l185 -436h2l198 461q19 49 19 88q0 53 -90 53v88q70 -4 153 -4q130 0 180 4v-88q-51 0 -82.5 -28t-52.5 -78l-471 -1094q-49 -114 -115 -171.5t-137 -57.5 q-81 0 -134.5 37.5t-53.5 105.5q0 56 28 88.5t87 32.5q30 0 52.5 -17t33 -37.5t24.5 -37.5t31 -17q46 0 78 74l123 289l-387 840q-22 47 -43.5 59t-67.5 12zM213 1298q0 56 37 95t92 39q54 0 92.5 -38.5t38.5 -95.5q0 -55 -37.5 -95t-93.5 -40q-54 0 -91.5 39.5t-37.5 95.5z M633 1298q0 56 37 95t92 39t95 -39t40 -95q0 -54 -40 -94.5t-95 -40.5q-54 0 -91.5 39.5t-37.5 95.5z" />
<glyph unicode="&#x152;" horiz-adv-x="2404" d="M66 711q0 169 63.5 314t171 243t250 153.5t299.5 55.5q112 0 233 -12.5t166 -12.5q159 0 457 5t340 5h25l20 -350l-86 -20q-1 3 -3 10q-39 114 -66 154q-53 75 -168 84l-37 1h-345v-528h312q89 0 120 46.5t31 137.5h101q-8 -81 -8 -239q0 -160 8 -244h-101 q0 112 -28.5 148t-126.5 36h-308v-501q0 -57 41 -69.5t175 -12.5h135q167 0 240.5 56t133.5 230l93 -26q-8 -30 -36 -195t-32 -186q-3 0 -356.5 6t-534.5 6q-22 0 -147.5 -8t-251.5 -8q-177 0 -324.5 55t-246.5 151t-154 228.5t-55 286.5zM410 780q0 -209 53 -363 t165.5 -243.5t274.5 -89.5q170 0 170 117l-2 1073q0 57 -53 78.5t-182 21.5q-109 0 -192 -45.5t-133.5 -127.5t-75.5 -187.5t-25 -233.5z" />
<glyph unicode="&#x153;" horiz-adv-x="1828" d="M80 489q0 107 37.5 204t105.5 170.5t170.5 117t224.5 43.5q241 0 369 -158q139 158 356 158q91 0 167.5 -41.5t126.5 -109.5t78 -155t28 -179l-35 -35h-612v-43q0 -57 16.5 -108.5t51.5 -97t97 -72.5t144 -27q68 0 148 37t149 98l55 -55q-84 -128 -204.5 -196.5 t-266.5 -68.5q-190 0 -319 144q-76 -76 -159.5 -110t-201.5 -34q-233 0 -379.5 145t-146.5 373zM379 528q0 -238 59 -343t189 -105q61 0 103 23.5t66 69.5t34 104.5t10 136.5q0 114 -11.5 200.5t-38 156.5t-74.5 107t-116 37t-114 -30t-68 -87.5t-30.5 -120t-8.5 -149.5z M1094 621h350q31 0 31 41q0 113 -44.5 183t-130.5 70q-93 0 -149.5 -84t-56.5 -210z" />
<glyph unicode="&#x178;" horiz-adv-x="1505" d="M31 1364v92q28 0 179.5 -2t176.5 -2q30 0 151.5 2t145.5 2v-92q-78 0 -102.5 -9t-24.5 -42q0 -35 35 -90l289 -467l252 413q53 87 53 134q0 61 -105 61v92q19 0 94 -2t93 -2t105.5 2t101.5 2v-92q-55 0 -78.5 -11t-53.5 -55l-407 -636v-486q0 -21 4 -35.5t17.5 -23.5 t25 -14.5t41 -7.5t50 -2.5t65.5 -0.5v-92q-23 0 -157 3t-202 3q-72 0 -207 -3t-157 -3v92q45 0 65 0.5t49.5 2.5t41.5 7t26 14t18.5 23.5t4.5 34.5v432l-418 686q-22 38 -37.5 51t-40.5 17t-94 4zM494 1688q0 56 37 94.5t92 38.5t93 -38.5t38 -94.5q0 -55 -37.5 -95.5 t-93.5 -40.5q-54 0 -91.5 40t-37.5 96zM938 1688q0 56 38 94.5t93 38.5q54 0 94.5 -38.5t40.5 -94.5q0 -54 -40.5 -95t-94.5 -41t-92.5 40t-38.5 96z" />
<glyph unicode="&#x2c6;" horiz-adv-x="716" d="M16 1128l258 326h170l258 -326h-94l-252 160l-245 -160h-95z" />
<glyph unicode="&#x2dc;" horiz-adv-x="716" d="M-8 1155q5 106 69.5 185t155.5 79q49 0 154 -42t151 -42q39 0 69.5 24.5t43.5 70.5h90q0 -106 -65.5 -185.5t-157.5 -79.5q-54 0 -162 43t-154 43q-36 0 -65.5 -27t-38.5 -69h-90z" />
<glyph unicode="&#x2000;" horiz-adv-x="983" />
<glyph unicode="&#x2001;" horiz-adv-x="1966" />
<glyph unicode="&#x2002;" horiz-adv-x="983" />
<glyph unicode="&#x2003;" horiz-adv-x="1966" />
<glyph unicode="&#x2004;" horiz-adv-x="655" />
<glyph unicode="&#x2005;" horiz-adv-x="491" />
<glyph unicode="&#x2006;" horiz-adv-x="327" />
<glyph unicode="&#x2007;" horiz-adv-x="327" />
<glyph unicode="&#x2008;" horiz-adv-x="245" />
<glyph unicode="&#x2009;" horiz-adv-x="393" />
<glyph unicode="&#x200a;" horiz-adv-x="109" />
<glyph unicode="&#x2010;" horiz-adv-x="872" d="M121 410l16 215q90 -4 289 -4q152 0 328 4l-19 -215q-212 4 -297 4q-219 0 -317 -4z" />
<glyph unicode="&#x2011;" horiz-adv-x="872" d="M121 410l16 215q90 -4 289 -4q152 0 328 4l-19 -215q-212 4 -297 4q-219 0 -317 -4z" />
<glyph unicode="&#x2012;" horiz-adv-x="872" d="M121 410l16 215q90 -4 289 -4q152 0 328 4l-19 -215q-212 4 -297 4q-219 0 -317 -4z" />
<glyph unicode="&#x2013;" horiz-adv-x="1001" d="M0 414v159h1001v-159h-1001z" />
<glyph unicode="&#x2014;" horiz-adv-x="2002" d="M72 418v155h1861v-155h-1861z" />
<glyph unicode="&#x2018;" horiz-adv-x="624" d="M109 1085q0 78 30.5 148.5t80 119t110.5 80t123 40.5l22 -62q-43 -16 -70 -28t-67 -37t-61 -60t-21 -78q0 -51 28 -73.5t68 -22.5q43 0 75 -34.5t32 -92.5q0 -66 -44.5 -107.5t-107.5 -41.5q-93 0 -145.5 70t-52.5 179z" />
<glyph unicode="&#x2019;" horiz-adv-x="598" d="M100 889q42 15 70.5 28t67 37.5t59 59.5t20.5 78q0 51 -26.5 73.5t-65.5 22.5q-43 0 -75.5 34.5t-32.5 92.5q0 66 45 107.5t108 41.5q91 0 144 -70.5t53 -179.5q0 -78 -30 -148t-79.5 -118.5t-110 -80t-122.5 -40.5z" />
<glyph unicode="&#x201a;" horiz-adv-x="624" d="M113 -250q42 15 70.5 28t67 37.5t59 59.5t20.5 78q0 51 -26.5 73.5t-65.5 22.5q-43 0 -76 34.5t-33 92.5q0 66 45.5 108t108.5 42q91 0 143.5 -70.5t52.5 -179.5q0 -78 -30 -148t-79.5 -118.5t-110 -80t-122.5 -40.5z" />
<glyph unicode="&#x201c;" horiz-adv-x="1052" d="M131 1090q0 78 30.5 148t80 118.5t110.5 80t123 40.5l23 -62q-33 -12 -54 -20.5t-55.5 -27.5t-55 -39t-36.5 -50.5t-16 -65.5q0 -51 27.5 -73.5t66.5 -22.5q43 0 74.5 -34.5t31.5 -92.5q0 -66 -44 -107.5t-107 -41.5q-93 0 -146 70.5t-53 179.5zM582 1090q0 78 30.5 148 t80.5 118.5t111 80t124 40.5l22 -62q-33 -12 -54 -20.5t-55.5 -27.5t-55 -39t-36.5 -50.5t-16 -65.5q0 -96 94 -96q42 0 74.5 -34.5t32.5 -92.5q0 -66 -45 -107.5t-111 -41.5q-91 0 -143.5 70.5t-52.5 179.5z" />
<glyph unicode="&#x201d;" horiz-adv-x="1052" d="M100 889q33 11 56 20.5t56.5 28t54.5 38.5t36.5 50.5t15.5 65.5q0 51 -27 73.5t-67 22.5q-42 0 -75 34.5t-33 92.5q0 66 45.5 107.5t109.5 41.5q91 0 144 -70.5t53 -179.5q0 -78 -30.5 -148t-79.5 -118.5t-110 -80t-124 -40.5zM553 889q33 11 56 20.5t56.5 28t54.5 38.5 t36.5 50.5t15.5 65.5q0 51 -27 73.5t-67 22.5t-73.5 34.5t-33.5 92.5q0 66 45.5 107.5t108.5 41.5q92 0 144.5 -70.5t52.5 -179.5q0 -78 -30.5 -148t-79.5 -118.5t-110 -80t-124 -40.5z" />
<glyph unicode="&#x201e;" horiz-adv-x="1173" d="M152 -250q33 11 56 20.5t56 28t53.5 38.5t36 50.5t15.5 65.5q0 51 -26.5 73.5t-68.5 22.5q-41 0 -74.5 34.5t-33.5 92.5q0 65 47 107.5t111 42.5q91 0 143.5 -70.5t52.5 -179.5q0 -78 -30.5 -148t-80 -118.5t-110.5 -80t-125 -40.5zM604 -250q33 12 55 20.5t56.5 27.5 t55 39t36.5 50.5t16 65.5q0 51 -27.5 73.5t-66.5 22.5q-41 0 -73.5 34.5t-32.5 92.5q0 66 44 108t107 42q92 0 144.5 -70.5t52.5 -179.5q0 -78 -30 -148t-79.5 -118.5t-110 -80t-122.5 -40.5z" />
<glyph unicode="&#x2022;" horiz-adv-x="948" d="M160 659q0 133 90.5 227.5t218.5 94.5q131 0 224 -94.5t93 -227.5t-92 -227t-225 -94q-128 0 -218.5 94t-90.5 227z" />
<glyph unicode="&#x2026;" horiz-adv-x="2648" d="M195 152q0 71 50 122.5t120 51.5q69 0 121.5 -51.5t52.5 -122.5q0 -72 -52.5 -124.5t-121.5 -52.5t-119.5 52.5t-50.5 124.5zM1153 152q0 71 51 122.5t121 51.5q71 0 121.5 -51t50.5 -123t-51 -124.5t-121 -52.5q-69 0 -120.5 52.5t-51.5 124.5zM2111 152q0 71 50 122.5 t120 51.5q71 0 122 -51t51 -123t-51.5 -124.5t-121.5 -52.5q-69 0 -119.5 52.5t-50.5 124.5z" />
<glyph unicode="&#x202f;" horiz-adv-x="393" />
<glyph unicode="&#x2039;" horiz-adv-x="700" d="M78 504l416 491l120 -34l-258 -457l281 -473l-127 -35z" />
<glyph unicode="&#x203a;" horiz-adv-x="700" d="M78 31l278 473l-256 457l121 34l416 -491l-432 -508z" />
<glyph unicode="&#x205f;" horiz-adv-x="491" />
<glyph unicode="&#x20ac;" d="M-47 535l47 104h117q-4 36 -4 94q0 53 8 111h-123l43 102h98q26 121 71.5 218.5t111.5 170.5t156 112.5t198 39.5q59 0 109.5 -8.5t104 -30t81 -34.5t88.5 -46l14 -295h-110q-14 79 -31.5 129.5t-47.5 92t-78 60.5t-118 19q-116 0 -184.5 -113.5t-79.5 -314.5h469 l-43 -102h-434v-80q0 -94 2 -125h364l-43 -104h-311q19 -216 89 -333.5t190 -117.5q115 0 175 85.5t85 248.5l110 -10l-12 -302q-165 -131 -379 -131q-224 0 -366.5 143t-188.5 417h-178z" />
<glyph unicode="&#x2122;" horiz-adv-x="1460" d="M51 1243v152h510v-152h-26q-12 105 -111 105h-45v-410q0 -42 9.5 -55t57.5 -17v-39h-286v39q44 1 57.5 15.5t13.5 56.5v410h-43q-51 0 -76 -25.5t-34 -79.5h-27zM627 1352v43h223l174 -379l180 379h207v-43q-45 -1 -57.5 -15.5t-12.5 -64.5v-334q0 -34 13.5 -51t54.5 -21 v-39h-297v39q47 0 62.5 18t15.5 62v322h-6l-207 -441h-21l-202 439v-328q0 -40 14.5 -56t58.5 -16v-39h-184v39q44 1 58 17.5t14 62.5v324q0 48 -21 65t-67 17z" />
<glyph unicode="&#x25fc;" horiz-adv-x="993" d="M0 0v993h993v-993h-993z" />
</font>
</defs>
</svg>
