<?xml version="1.0" standalone="no"?>
<!DOCTYPE svg PUBLIC "-//W3C//DTD SVG 1.1//EN" "http://www.w3.org/Graphics/SVG/1.1/DTD/svg11.dtd" >
<svg xmlns="http://www.w3.org/2000/svg">
<metadata></metadata>
<defs>
<font id="roadgeek_2014_series_fregular" horiz-adv-x="1118" >
<font-face units-per-em="2048" ascent="1463" descent="-585" />
<missing-glyph horiz-adv-x="1151" />
<glyph unicode="&#xd;" horiz-adv-x="1018" />
<glyph horiz-adv-x="0" />
<glyph horiz-adv-x="0" />
<glyph unicode=" "  horiz-adv-x="1151" />
<glyph unicode="&#x09;" horiz-adv-x="1151" />
<glyph unicode="&#xa0;" horiz-adv-x="1151" />
<glyph unicode="!" horiz-adv-x="554" d="M164 90q0 46 32 78t83 32q46 0 79 -32t33 -78q0 -50 -33.5 -82.5t-78.5 -32.5q-50 0 -82.5 32.5t-32.5 82.5zM164 891v279h223v-279l-35 -582h-152z" />
<glyph unicode="&#x22;" horiz-adv-x="919" d="M164 1170h216l-31 -473h-149zM534 1170h222l-39 -473h-146z" />
<glyph unicode="#" horiz-adv-x="1068" d="M23 332l26 177h184l24 172h-180l28 182h181l50 307h200l-52 -307h176l53 307h202l-50 -307h180l-28 -182h-180l-25 -172h182l-27 -177h-184l-53 -332h-210l58 332h-172l-55 -332h-200l53 332h-181zM434 509h172l28 172h-176z" />
<glyph unicode="$" horiz-adv-x="1330" d="M117 157l128 180q106 -73 208.5 -102.5t238.5 -29.5q304 0 305 136q0 39 -31.5 71.5t-80.5 50.5q-92 32 -279 66q-242 50 -325 132q-90 90 -90 205q0 185 199 267q84 39 180 50v1v3v2v1v3v2v2v1v3v2v1v3v2v2v1v3v2v1v5v2v1v3v2v1v5v2v2v2v3v3v2v4v2v2v4v2v4v2v3v3v4v2v4 v1v5v3v3v4v2v5v1v4v4v2v4v4v4v2v4v4v4v2v4v19h225v-32.5t-1.5 -62.5t-1.5 -69t3 -25q169 -25 344 -132l-119 -185q-157 98 -365 98q-242 0 -242 -94q0 -20 11 -38.5t33.5 -30t44 -21.5t55 -16.5t53.5 -10t51 -7.5t39 -6q199 -34 340 -105q81 -44 127.5 -126t46.5 -177 q0 -150 -112 -240t-312 -108v-192h-217v196q-242 16 -456 169z" />
<glyph unicode="&#x26;" horiz-adv-x="1552" d="M164 321q0 112 70.5 192t241.5 161q-110 98 -110 246q0 122 91.5 196t241.5 74q158 0 253 -76t95 -202q0 -81 -46 -143.5t-160 -133.5l263 -248q32 30 51 60t22 46l5 16l222 4q-16 -110 -148 -266l250 -247h-332l-87 87l-9 -6q-11 -6 -29.5 -15.5t-46 -20.5t-63.5 -22.5 t-76 -21t-92 -15.5t-106 -6q-234 0 -367.5 89t-133.5 252zM386 329q0 -70 72 -109.5t190 -39.5q78 2 146.5 17.5t98.5 28t30 16.5l-314 295q-121 -62 -172 -110t-51 -98zM590 912q0 -53 67 -105l53 -43l71 58q44 32 44 78q0 87 -115 87q-121 0 -120 -75z" />
<glyph unicode="'" horiz-adv-x="393" d="M82 1065q0 46 30.5 75.5t75.5 29.5q54 0 88.5 -34t34.5 -84q0 -115 -98 -204l-70 32q11 8 25.5 28t24.5 34l7 16h-12t-29 6t-35.5 15t-28 32.5t-13.5 53.5z" />
<glyph unicode="(" horiz-adv-x="546" d="M117 591q0 273 169 579h225q-172 -331 -172 -579q0 -276 172 -591h-218q-177 324 -176 591z" />
<glyph unicode=")" horiz-adv-x="546" d="M35 0q172 315 172 591q0 248 -172 579h226q168 -306 168 -579q0 -267 -175 -591h-219z" />
<glyph unicode="*" horiz-adv-x="807" d="M82 870l54 181q14 -4 57 -13t70 -18.5t49 -21.5q-12 46 -11 172h212q0 -118 -12 -175q14 11 33.5 17t35 10t48 11t51.5 13l57 -180q-124 -34 -167 -40q20 -12 36 -28t39.5 -47t39.5 -49l-161 -115q0 -2 -20.5 24.5t-46 61.5t-35.5 53q-11 -18 -36.5 -52.5t-48.5 -60.5 t-25 -26l-161 110q67 96 107 129q-32 4 -165 44z" />
<glyph unicode="+" horiz-adv-x="851" d="M47 489v220h267v255h221v-255h270v-220h-270v-262h-221v262h-267z" />
<glyph unicode="," horiz-adv-x="393" d="M82 90q0 46 30.5 76.5t75.5 30.5q54 0 88.5 -34.5t34.5 -84.5q0 -115 -98 -204l-70 31q11 8 25.5 28.5t24.5 34.5l7 16h-12t-29 6t-35.5 15t-28 32t-13.5 53z" />
<glyph unicode="-" horiz-adv-x="506" d="M47 309v216h413v-216h-413z" />
<glyph unicode="." horiz-adv-x="390" d="M82 87q0 50 32 81.5t78 31.5q50 0 83.5 -32t33.5 -78q0 -50 -32 -82.5t-80 -32.5q-50 0 -82.5 32.5t-32.5 79.5z" />
<glyph unicode="/" horiz-adv-x="911" d="M0 0l678 1175h234l-678 -1175h-234z" />
<glyph unicode="0" horiz-adv-x="1368" d="M117 587q0 262 158 432.5t408 170.5q255 0 411.5 -169t156.5 -430q0 -267 -158.5 -441.5t-409 -174.5t-408.5 174t-158 438zM339 587q0 -172 96 -281t249 -109t249 109.5t96 280.5q0 172 -95.5 274.5t-250 102.5t-249.5 -104t-95 -273z" />
<glyph unicode="1" horiz-adv-x="712" d="M164 858v165q76 2 134.5 43t81.5 104h169v-1170h-220v858h-165z" />
<glyph unicode="2" horiz-adv-x="1308" d="M118 0q-6 143 37 254.5t117 180t165.5 119.5t183.5 84.5t168.5 62t123.5 66t44 83.5q-2 84 -132 112t-292.5 -11t-246.5 -125l-153 169q172 122 365.5 168t340 19t245 -109.5t100.5 -198.5q2 -74 -25 -136.5t-64 -102t-108.5 -80t-120.5 -60.5t-137 -51q-12 -4 -50 -20 t-52 -20.5t-48.5 -18.5t-49 -22t-41 -22t-39 -26t-29.5 -27t-27 -31t-16 -35h816v-222h-1075z" />
<glyph unicode="3" horiz-adv-x="1330" d="M117 205l152 155q166 -160 423 -160q144 0 224.5 44.5t80.5 124.5q0 42 -23.5 80t-59.5 57q-36 20 -116 19h-126v223h126q129 0 129 93q0 64 -79 99q-60 25 -168 24q-202 0 -357 -114l-132 173q220 169 489 167q202 0 332.5 -96t130.5 -244q0 -115 -90 -211 q161 -101 161 -279q0 -84 -43.5 -163t-117.5 -130q-130 -87 -348 -87q-301 0 -490 138q-36 25 -98 87z" />
<glyph unicode="4" horiz-adv-x="1399" d="M47 222v213l828 735h219v-735h142v-213h-142v-222h-219v222h-828zM358 435h517v451z" />
<glyph unicode="5" horiz-adv-x="1330" d="M117 78l85 205q211 -78 474 -78q191 0 271 74q50 56 50 124q0 92 -101 151q-96 46 -213 45q-132 0 -316 -50l-213 38l33 583h920v-222h-714l-10 -172q124 46 293 46q262 0 419 -144q119 -106 119 -275q0 -102 -50.5 -193.5t-138.5 -147.5q-135 -82 -349 -82 q-307 0 -559 98z" />
<glyph unicode="6" horiz-adv-x="1334" d="M117 489q0 293 208.5 497t498.5 204q88 0 193 -31l-62 -215q-73 20 -131 20q-132 0 -250.5 -63t-176.5 -170q-26 -53 -34 -70q130 48 329 48q236 0 380.5 -98.5t144.5 -258.5q0 -104 -51 -180t-137.5 -116t-176.5 -58t-188 -18q-548 0 -547 509zM343 345q0 -62 95.5 -101 t233.5 -39q150 0 237.5 38t87.5 102q0 68 -86.5 110t-234.5 42q-143 0 -238 -43t-95 -109z" />
<glyph unicode="7" horiz-adv-x="1192" d="M47 948v222h1099v-222q-82 -73 -126.5 -121.5t-90.5 -120.5q-214 -318 -214 -706h-216q0 535 337 948h-789z" />
<glyph unicode="8" horiz-adv-x="1334" d="M117 360q0 82 31.5 143.5t112.5 135.5q-90 101 -90 219q0 152 133.5 242t359.5 90q222 0 361 -92t139 -244q0 -118 -90 -215q143 -121 143 -270q0 -104 -58 -195.5t-158 -141.5q-108 -53 -337 -52q-287 0 -407 94q-140 108 -140 286zM335 360q0 -70 92.5 -112.5 t240.5 -42.5q48 0 96 6t106 21t94.5 51t36.5 86q0 73 -92.5 116.5t-240.5 43.5q-157 0 -245 -44t-88 -125zM390 857.5q0 -106.5 274 -106.5q283 0 283 106.5t-278.5 106.5t-278.5 -106.5z" />
<glyph unicode="9" horiz-adv-x="1334" d="M117 807q0 104 52 181t137 117t176 59t190 19q545 0 545 -509q0 -290 -208.5 -494.5t-497.5 -204.5q-101 0 -196 29l64 215q102 -30 132 -31q129 0 247.5 68t175.5 179q18 25 33 66q-146 -50 -329 -50q-234 0 -377.5 98t-143.5 258zM339 818q0 -68 85 -106t236 -38 q144 0 229.5 39t85.5 109q0 60 -89.5 99t-225.5 39q-150 0 -235.5 -37t-85.5 -105z" />
<glyph unicode=":" horiz-adv-x="388" d="M82 87q0 50 32 81.5t83 31.5q46 0 78 -31.5t32 -81.5v3q0 -50 -32.5 -82.5t-77.5 -32.5q-50 0 -82.5 32.5t-32.5 79.5zM82 635q0 48 33.5 82t81.5 34q46 0 78 -34t32 -82q0 -46 -32.5 -80t-77.5 -34q-48 0 -81.5 33t-33.5 81z" />
<glyph unicode="=" horiz-adv-x="851" d="M47 317v220h758v-220h-758zM47 658v220h758v-220h-758z" />
<glyph unicode="?" horiz-adv-x="1219" d="M117 743q2 116 24 182.5t74 125.5q129 140 406 139q219 0 350 -95.5t131 -253.5q0 -138 -110 -230q-12 -11 -37 -29.5t-36 -27.5l-79 -53q-64 -44 -83 -77t-19 -107h-210q2 124 36 176t174 153q82 54 112 93t30 87q0 64 -71 103t-191 39q-273 0 -279 -225h-222zM523 95 q0 44 32 74.5t79 30.5q44 0 76 -31t32 -74q0 -46 -32 -78.5t-76 -32.5q-46 0 -78.5 32.5t-32.5 78.5z" />
<glyph unicode="@" horiz-adv-x="1407" d="M117 587q0 267 170.5 435t436.5 168q247 0 407 -146.5t160 -377.5q0 -163 -91 -291t-217 -128q-88 0 -131 70q-82 -82 -197 -83q-116 0 -190.5 85.5t-74.5 214.5q0 150 94.5 260.5t231.5 110.5q95 0 156 -64l8 41h173l-70 -376q-12 -60 -13 -71q0 -36 22 -36q46 0 92 78 t46 184q0 164 -108 266.5t-288 102.5q-199 0 -322 -124t-123 -323q0 -191 124 -321q116 -122 329 -122q178 0 357 79l44 -160q-192 -82 -401 -84q-270 0 -445 169q-180 174 -180 443zM578 537q0 -60 28 -93t74 -33q59 0 101.5 54.5t42.5 141.5q0 54 -28 84.5t-72 30.5 q-56 0 -101 -54.5t-45 -130.5z" />
<glyph unicode="A" horiz-adv-x="1423" d="M47 0l553 1170h223l553 -1170h-247l-118 255h-594l-126 -255h-244zM518 481h388l-196 405z" />
<glyph unicode="B" horiz-adv-x="1382" d="M164 0v1170h718q138 0 231.5 -89t93.5 -223q0 -78 -28.5 -144.5t-81.5 -94.5q78 -34 123 -104.5t45 -157.5q0 -169 -98.5 -263t-254.5 -94h-748zM387 222h467q100 0 144 36q40 33 40 88v11q0 152 -180 152h-471v-287zM387 731h467q133 1 133 127q0 90 -133 90h-467v-217z " />
<glyph unicode="C" horiz-adv-x="1299" d="M117 583q0 255 177.5 431t433.5 176q150 0 265.5 -61t223.5 -197l-180 -128q-130 160 -317 160q-158 0 -269.5 -110.5t-111.5 -266.5q0 -160 111.5 -271t269.5 -111q135 0 247 85q39 39 70 75l180 -123q-82 -108 -152 -152q-154 -110 -345 -110q-248 0 -425.5 176 t-177.5 427z" />
<glyph unicode="D" horiz-adv-x="1382" d="M164 0v1170h514q242 0 414.5 -171t172.5 -412q0 -242 -171.5 -414.5t-415.5 -172.5h-514zM387 222h291q150 0 255 107.5t105 257.5q0 149 -105.5 255t-254.5 106h-291v-726z" />
<glyph unicode="E" horiz-adv-x="1229" d="M164 0v1170h933v-222h-710v-212h409v-227h-409v-287h726v-222h-949z" />
<glyph unicode="F" horiz-adv-x="1229" d="M164 0v1170h949v-222h-726v-212h435v-227h-435v-509h-223z" />
<glyph unicode="G" horiz-adv-x="1330" d="M117 583q0 270 165 438.5t430 168.5q183 0 313 -90q74 -48 168 -168l-184 -128q-62 87 -132.5 123.5t-168.5 36.5q-171 0 -270 -103.5t-99 -281.5q0 -166 94.5 -270t246.5 -104t242 107q32 40 56 103h-262v224h498v-130q0 -219 -154.5 -374t-379.5 -155q-118 0 -228.5 48 t-187.5 132q-147 158 -147 416v7z" />
<glyph unicode="H" horiz-adv-x="1424" d="M164 0v1170h223v-434h656v434h217v-1170h-217v509h-656v-509h-223z" />
<glyph unicode="I" horiz-adv-x="552" d="M164 0v1170h223q2 -585 2 -877.5t-2 -292.5h-2h-2h-3h-1h-2h-3h-1h-2h-2h-3h-1h-2h-3h-1h-2h-2h-3h-1h-2h-3h-3h-2h-3h-1h-2h-3h-1h-4h-3h-1h-2h-4h-2h-3h-2h-3h-3h-1h-5h-1h-4h-3h-1h-5h-1h-4h-3h-3h-3h-3h-3h-3h-5h-1h-5h-2h-3h-3h-3h-5h-1h-5h-3h-3h-3h-5h-3h-3h-3h-5 h-3h-3h-3h-5h-3h-19z" />
<glyph unicode="J" horiz-adv-x="1178" d="M47 365l213 46q20 -95 93 -150.5t169 -55.5q118 0 194.5 82t76.5 214v669h223v-664q0 -166 -67 -279q-64 -112 -182.5 -179.5t-248.5 -67.5q-171 0 -297.5 104t-173.5 281z" />
<glyph unicode="K" horiz-adv-x="1307" d="M164 0v1170h223v-517l487 517h301l-371 -402l456 -768h-254l-356 599l-263 -270v-329h-223z" />
<glyph unicode="L" horiz-adv-x="1217" d="M164 0v1170h223v-948h783v-222h-1006z" />
<glyph unicode="M" horiz-adv-x="1592" d="M164 0v1170h205l415 -735l434 735h211v-1170h-222v694l-423 -694l-404 694v-694h-216z" />
<glyph unicode="N" horiz-adv-x="1428" d="M164 0v1170h216l658 -818v818h227v-1170h-222l-656 807v-807h-223z" />
<glyph unicode="O" horiz-adv-x="1455" d="M117 587q0 255 176 429t435 174q245 0 429 -178.5t184 -420.5q0 -253 -181.5 -432t-432 -179t-430.5 179t-180 428zM339 591q0 -158 114.5 -272t274.5 -114t275.5 114t115.5 272v-4q0 157 -115.5 267t-275.5 110t-274.5 -108t-114.5 -265z" />
<glyph unicode="P" horiz-adv-x="1382" d="M164 0v1170h736q150 0 257.5 -108t107.5 -258.5t-107 -257.5t-258 -107h-513v-439h-223zM387 661h513q59 0 98.5 42t39.5 101q0 60 -40 102t-98 42h-513v-287z" />
<glyph unicode="Q" horiz-adv-x="1460" d="M164 587q0 248 179 425.5t432 177.5q255 0 436.5 -176.5t181.5 -426.5q0 -273 -196 -443l67 -104l-189 -122l-66 107q-96 -44 -234 -45q-253 0 -432 178.5t-179 428.5zM386 587q0 -158 114 -270t275 -112q82 0 112 8l-102 164l189 120l101 -160q95 94 95 250t-115 266.5 t-280 110.5q-160 0 -274.5 -110.5t-114.5 -266.5z" />
<glyph unicode="R" horiz-adv-x="1382" d="M164 0v1170h714q152 0 261.5 -108t109.5 -258q0 -116 -68 -210t-183 -135l267 -459h-259l-258 439h-361v-439h-223zM387 661h491q62 0 105 42t43 101t-43 101.5t-105 42.5h-491v-287z" />
<glyph unicode="S" horiz-adv-x="1328" d="M117 157l128 180q106 -73 208.5 -102.5t238.5 -29.5q304 0 305 136q0 39 -31.5 71.5t-80.5 50.5q-92 32 -279 66q-242 50 -325 132q-90 90 -90 205q0 185 199 267q128 57 272 57h10q234 0 467 -139l-119 -185q-157 98 -365 98q-242 0 -242 -94q0 -20 11 -38.5t33.5 -30 t44 -21.5t55 -16.5t53.5 -10t51 -7.5t39 -6q199 -34 340 -105q81 -44 127.5 -126t46.5 -177q0 -166 -136 -259t-378 -93q-180 0 -315.5 41t-267.5 136z" />
<glyph unicode="T" horiz-adv-x="1098" d="M47 948v222h1005v-222h-381v-948h-223v948h-401z" />
<glyph unicode="U" horiz-adv-x="1424" d="M164 554v616h223v-616q0 -104 44 -189q44 -74 120 -117t162 -43t163.5 44t118.5 116q43 72 43 184v5v616h222v-616q0 -183 -70 -304q-74 -124 -203 -197t-273.5 -73t-274.5 74.5t-200 195.5q-74 135 -75 304z" />
<glyph unicode="V" horiz-adv-x="1316" d="M47 1170h237l375 -900l365 900h246l-477 -1170h-271z" />
<glyph unicode="W" horiz-adv-x="1461" d="M47 1170h225l152 -715l196 715h219l197 -715l152 715h227l-247 -1170h-239l-202 731l-200 -731h-236z" />
<glyph unicode="X" horiz-adv-x="1282" d="M47 0l455 607l-419 563h275l282 -374l286 374h274l-419 -563l455 -607h-275l-321 422l-318 -422h-275z" />
<glyph unicode="Y" horiz-adv-x="1423" d="M47 1170h283l380 -481l384 481h282l-553 -697v-473h-223v473z" />
<glyph unicode="Z" horiz-adv-x="1260" d="M82 0v222l772 726h-736v222h1060v-222l-771 -726h771v-222h-1096z" />
<glyph unicode="`" horiz-adv-x="512" d="M0 1170h214l129 -208h-166z" />
<glyph unicode="a" horiz-adv-x="1119" d="M94 267q0 129 117 215t293 86q116 0 254 -34q-2 82 -49 113t-147 31q-116 0 -296 -74l-95 184q200 86 387 86h4q417 0 418 -357v-517h-245v36q-8 -4 -12 -5t-15.5 -3.5t-27.5 -7.5q-112 -36 -208 -36q-166 0 -272 79.5t-106 203.5zM316 281q0 -103 151 -102q107 0 291 52 v118q-36 16 -106 27t-147 14h-15q-68 0 -118 -24q-56 -28 -56 -85z" />
<glyph unicode="b" horiz-adv-x="1159" d="M140 0v1113l225 77v-383q102 59 239 59q197 0 329.5 -127t132.5 -312q0 -188 -132 -315.5t-327 -127.5q-62 0 -137.5 19t-104.5 43v-46h-225zM365 279q79 -74 193 -84q16 -1 30 -1q96 0 171 54q87 63 87 179q0 122 -87 182q-72 50 -162 50q-19 -1 -39 -3 q-114 -12 -193 -80v-297z" />
<glyph unicode="c" horiz-adv-x="973" d="M94 426.5q0 184.5 135 312t329 127.5q220 0 352 -152v3l-135 -180q-87 121 -217 121q-95 0 -167 -66.5t-72 -164.5q0 -102 71.5 -166t167.5 -64q136 0 205 98l152 -155q-135 -156 -354 -156h-3q-194 0 -329 129t-135 313.5z" />
<glyph unicode="d" horiz-adv-x="1162" d="M94 427q0 185 135.5 312t332.5 127q130 0 233 -59v298l227 85v-1190h-224q0 46 -3 46q-32 -22 -106.5 -42t-130.5 -20q-197 0 -330.5 127.5t-133.5 315.5zM316 427q0 -116 87 -179q75 -54 170 -54q15 0 30 1q113 10 192 84v297q-81 68 -194 80q-19 2 -38 3 q-90 0 -161 -50q-86 -60 -86 -182z" />
<glyph unicode="e" d="M94 426.5q0 184.5 135 312t329 127.5q205 0 332 -129.5t135 -376.5h-702q20 -74 86.5 -123t142.5 -49q44 0 100 19.5t86 42.5l169 -152q-154 -118 -348.5 -118t-329.5 131t-135 315.5zM323 529h447v-4q-18 62 -78.5 97.5t-133.5 35.5q-95 0 -158 -41t-77 -88z" />
<glyph unicode="f" horiz-adv-x="574" d="M35 650v200h128v126q0 112 61.5 163t193.5 51q42 0 122 -7v-185q-40 4 -74 4q-44 0 -60 -19t-16 -58v-75h150v-200h-150v-650h-227v650h-128z" />
<glyph unicode="g" horiz-adv-x="1107" d="M94 422q0 192 105.5 320t300.5 128q76 0 145.5 -22t101.5 -49v55h220v-846q0 -197 -106 -299t-317 -168l-98 189q50 11 116 40.5t125.5 85.5t59.5 116v87q-81 -74 -251 -75h-6q-182 0 -288 124q-108 125 -108 314zM316 422q0 -122 76 -179q63 -47 141 -47q17 0 34 2 q99 12 180 72v306q-70 70 -171 84q-19 3 -38 3q-77 0 -142 -49q-80 -60 -80 -192z" />
<glyph unicode="h" horiz-adv-x="1150" d="M140 0v1113l220 77v-406q42 40 118.5 63t153.5 23q174 0 276 -79t102 -237v-554h-222v473q0 116 -56.5 158.5t-155.5 42.5q-96 0 -156 -43.5t-60 -167.5v-463h-220z" />
<glyph unicode="i" horiz-adv-x="509" d="M140 1080q0 46 34 78t80.5 32t80.5 -31.5t34 -77.5t-34 -81.5t-80 -35.5q-50 0 -82.5 33t-32.5 83zM144 0v850h225v-850h-225z" />
<glyph unicode="j" horiz-adv-x="520" d="M12 -180q90 6 115 47t25 161v826h225v-826q0 -129 -22.5 -195.5t-79.5 -119.5q-88 -78 -263 -90v197zM152 1080q0 46 32.5 78t82.5 32q46 0 79.5 -31.5t33.5 -77.5t-34 -81.5t-79 -35.5q-50 0 -82.5 33t-32.5 83z" />
<glyph unicode="k" horiz-adv-x="991" d="M140 0v1113l220 77v-631l275 291h309l-266 -271l278 -579h-247l-200 407l-149 -157v-250h-220z" />
<glyph unicode="l" horiz-adv-x="500" d="M140 0v1105l220 85v-1190h-220z" />
<glyph unicode="m" horiz-adv-x="1655" d="M140 0v854h220v-55q82 70 256 71q164 0 254 -86q97 86 285 86h4q164 0 260.5 -78t96.5 -205v-587h-223v509q0 70 -48 113.5t-124.5 43.5t-130.5 -44.5t-54 -104.5v-517h-219v509q0 67 -53 112t-130 45q-76 0 -124 -43q-49 -44 -50 -110v-513h-220z" />
<glyph unicode="n" horiz-adv-x="1150" d="M140 0v854h220v-55q70 67 272 67q174 0 276 -77t102 -235v-554h-222v467q0 116 -56.5 157.5t-155.5 41.5q-96 0 -156 -41.5t-60 -165.5v-459h-220z" />
<glyph unicode="o" d="M94 426.5q0 184.5 135 312t329 127.5q197 0 332 -127t135 -312q0 -188 -135 -315.5t-332 -127.5q-194 0 -329 129t-135 313.5zM319 427q0 -102 71.5 -166t167.5 -64t168 66t72 164t-72 164.5t-168 66.5q-95 0 -167 -66.5t-72 -164.5z" />
<glyph unicode="p" horiz-adv-x="1159" d="M140 -349v1199h225v-46q28 22 95 42t136 20h7q214 0 337 -122q126 -125 126 -317q0 -188 -133.5 -315.5t-328.5 -127.5q-130 0 -239 56v-310zM365 275q82 -67 195 -78q18 -2 35 -2q93 0 165 50q86 59 86 177.5t-86 181.5q-74 54 -169 54q-15 0 -31 -1q-113 -10 -195 -81 v-301z" />
<glyph unicode="q" horiz-adv-x="1162" d="M94 427q0 192 127 317q125 122 338 122h7q70 0 134 -20t95 -42v46h227v-1117l-227 -82v389q-108 -56 -233 -56q-197 0 -332.5 127.5t-135.5 315.5zM316 422q0 -118 85 -178q72 -50 164 -50q17 0 35 2q113 11 195 79v308q-104 67 -215 73h-19q-99 0 -169 -56 q-76 -60 -76 -178z" />
<glyph unicode="r" horiz-adv-x="752" d="M140 0v854h225v-62q64 74 194 74q91 0 158 -48l-64 -214q-43 49 -109 49h-3q-88 0 -132 -68t-44 -158v-427h-225z" />
<glyph unicode="s" horiz-adv-x="1021" d="M82 62l95 185q214 -62 332 -62q213 0 213 62q0 34 -33.5 48t-145.5 40q-18 4 -26 6q-211 42 -298 103q-112 74 -113 188q0 110 107.5 174t292.5 64q205 0 399 -86l-98 -185l-3 3q-4 2 -14.5 5.5t-24.5 8.5t-31 10.5t-36.5 11.5t-42.5 11.5t-46.5 10t-49 8.5t-50.5 6 q-23 2 -44 2q-51 0 -85 -11q-48 -15 -51 -46q0 -30 43 -47t157 -38q214 -42 312.5 -110.5t98.5 -184.5q0 -121 -111.5 -188t-307.5 -67q-256 0 -439 78z" />
<glyph unicode="t" horiz-adv-x="636" d="M35 653v197h141v263l222 77v-340h180v-197h-180v-321q0 -127 95 -127h3h2q40 0 92 45l-38 -225q-78 -44 -151 -45q-102 0 -163.5 71t-61.5 191v411h-141z" />
<glyph unicode="u" horiz-adv-x="1150" d="M140 301v553h220v-474q0 -118 57.5 -159t158.5 -41q96 0 152 41t56 166v467h226v-854h-226v46q-67 -62 -267 -62q-174 0 -275.5 79.5t-101.5 237.5z" />
<glyph unicode="v" horiz-adv-x="1028" d="M23 854h243l245 -579l259 579h235l-367 -854h-252z" />
<glyph unicode="w" horiz-adv-x="1389" d="M23 854h231l172 -494l136 494h267l134 -497l164 497h239l-287 -854h-242l-144 517l-141 -517h-241z" />
<glyph unicode="x" horiz-adv-x="1068" d="M23 0l370 481l-288 373h285l146 -188l144 188h283l-287 -373l369 -481h-278l-231 295l-228 -295h-285z" />
<glyph unicode="y" horiz-adv-x="1122" d="M23 854h254l305 -587l266 587h251l-529 -1178h-259l147 324z" />
<glyph unicode="z" horiz-adv-x="1006" d="M59 0v185l520 465h-492v204h861v-168l-541 -486h541v-200h-889z" />
<glyph unicode="&#xa2;" horiz-adv-x="1029" d="M94 619q0 194 98.5 331.5t245.5 149.5v169h219v-164q192 -18 314 -205l-180 -96q-40 59 -88.5 85.5t-150.5 26.5q-122 0 -183 -84t-58 -213q4 -130 65.5 -216t189.5 -86q44 0 72 3t51.5 16t33.5 20t32.5 33t35.5 38l180 -90q-54 -88 -142 -144.5t-172 -66.5v-200h-219 v206q-143 16 -243.5 152.5t-100.5 334.5z" />
<glyph unicode="&#xa8;" horiz-adv-x="703" d="M74 1077q0 50 32 81.5t79 31.5q50 0 81.5 -31.5t31.5 -81.5q0 -48 -32.5 -82.5t-80.5 -34.5q-46 0 -78.5 34.5t-32.5 82.5zM405 1077q0 -48 32 -82.5t78 -34.5q48 0 81.5 34.5t33.5 82.5q0 50 -32.5 81.5t-82.5 31.5q-46 0 -78 -31.5t-32 -81.5z" />
<glyph unicode="&#xad;" horiz-adv-x="506" d="M47 309v216h413v-216h-413z" />
<glyph unicode="&#xb4;" horiz-adv-x="472" d="M150 962l129 208h214l-176 -208h-167z" />
<glyph unicode="&#xb8;" horiz-adv-x="596" d="M121 -202l28 66q59 -36 124 -35q46 2 58 22q11 16 -7 37q-20 26 -68 -10l-48 35l28 99h79l-17 -58q104 36 141 -32q39 -74 -24 -142q-28 -32 -111 -33q-95 2 -183 51z" />
<glyph unicode="&#xbc;" horiz-adv-x="1701" d="M140 962v110q50 2 89.5 29t55.5 69h111v-779h-146v571h-110zM304 0l675 1173h157l-675 -1173h-157zM770 149v141l552 489h146v-489h94v-141h-94v-149h-146v149h-552zM976 290h346v301z" />
<glyph unicode="&#xbd;" horiz-adv-x="1818" d="M140 962v110q50 2 89.5 29t55.5 69h111v-779h-146v571h-110zM295 0l675 1173h157l-675 -1173h-157zM962 0q-4 95 25 170t78 120t110.5 79t122.5 56t112.5 42t82.5 44t28 57q0 56 -87 74t-195.5 -8.5t-164.5 -82.5l-102 113q116 81 244.5 111.5t226.5 12.5t163.5 -73 t66.5 -132q0 -50 -18 -91t-42 -68t-72 -54t-80 -40t-92 -35q-8 -2 -33 -12t-34 -13t-32.5 -13t-33.5 -15.5t-26.5 -14t-25.5 -17t-20 -18t-18 -21t-11 -22.5h543v-149h-716z" />
<glyph unicode="&#xbe;" horiz-adv-x="2032" d="M140 527l102 105q110 -106 281 -107q96 0 150.5 29t54.5 84q0 28 -16 53t-41 37q-25 14 -76 14h-84v149h84q84 0 85 62q0 42 -53 65q-40 16 -112 17q-135 0 -237 -77l-88 114q146 112 325 112q136 0 222.5 -63.5t86.5 -162.5q0 -76 -60 -140q107 -68 107 -186 q0 -56 -28.5 -109.5t-78.5 -87.5q-87 -59 -233 -58q-200 0 -324 92q-25 16 -67 58zM664 0l675 1173h157l-675 -1173h-157zM1101 149v141l552 489h146v-489h94v-141h-94v-149h-146v149h-552zM1307 290h346v301z" />
<glyph unicode="&#xc0;" horiz-adv-x="1423" d="M47 0l553 1170h223l553 -1170h-247l-118 255h-594l-126 -255h-244zM484 1487h214l129 -208h-166zM518 481h388l-196 405z" />
<glyph unicode="&#xc1;" horiz-adv-x="1423" d="M47 0l553 1170h223l553 -1170h-247l-118 255h-594l-126 -255h-244zM518 481h388l-196 405zM598 1279l129 208h214l-176 -208h-167z" />
<glyph unicode="&#xc2;" horiz-adv-x="1423" d="M47 0l553 1170h223l553 -1170h-247l-118 255h-594l-126 -255h-244zM394 1259l211 228h214l210 -228h-146l-170 107l-173 -107h-146zM518 481h388l-196 405z" />
<glyph unicode="&#xc3;" horiz-adv-x="1423" d="M47 0l553 1170h223l553 -1170h-247l-118 255h-594l-126 -255h-244zM443 1307q0 104 53 165q46 50 110 49q64 0 120 -35q56 -36 79 -36q39 0 43 70h131q0 -92 -42 -151q-46 -67 -126 -65q-50 0 -113 37q-62 36 -78 36q-42 0 -46 -70h-131zM518 481h388l-196 405z" />
<glyph unicode="&#xc4;" horiz-adv-x="1423" d="M47 0l553 1170h223l553 -1170h-247l-118 255h-594l-126 -255h-244zM434 1394q0 50 32 81.5t79 31.5q50 0 81.5 -31.5t31.5 -81.5q0 -48 -32.5 -82.5t-80.5 -34.5q-46 0 -78.5 34.5t-32.5 82.5zM518 481h388l-196 405zM765 1394q0 -48 32 -82.5t78 -34.5q48 0 81.5 34.5 t33.5 82.5q0 50 -32.5 81.5t-82.5 31.5q-46 0 -78 -31.5t-32 -81.5z" />
<glyph unicode="&#xc7;" horiz-adv-x="1299" d="M117 583q0 255 177.5 431t433.5 176q150 0 265.5 -61t223.5 -197l-180 -128q-130 160 -317 160q-158 0 -269.5 -110.5t-111.5 -266.5q0 -160 111.5 -271t269.5 -111q135 0 247 85q39 39 70 75l180 -123q-82 -108 -152 -152q-154 -110 -345 -110h-34l-8 -26 q104 36 140 -32q39 -74 -23 -142q-28 -32 -112 -33q-95 2 -183 51l28 66q59 -36 124 -35q46 2 58 22q11 16 -5 37q-20 26 -70 -10l-48 35l23 76q-178 30 -315 168q-178 177 -178 426z" />
<glyph unicode="&#xc8;" horiz-adv-x="1229" d="M164 0v1170h933v-222h-710v-212h409v-227h-409v-287h726v-222h-949zM411 1487h214l129 -208h-166z" />
<glyph unicode="&#xc9;" horiz-adv-x="1229" d="M164 0v1170h933v-222h-710v-212h409v-227h-409v-287h726v-222h-949zM524 1279l129 208h214l-176 -208h-167z" />
<glyph unicode="&#xca;" horiz-adv-x="1229" d="M164 0v1170h933v-222h-710v-212h409v-227h-409v-287h726v-222h-949zM321 1259l211 228h214l210 -228h-146l-170 107l-173 -107h-146z" />
<glyph unicode="&#xcb;" horiz-adv-x="1229" d="M164 0v1170h933v-222h-710v-212h409v-227h-409v-287h726v-222h-949zM361 1394q0 50 32 81.5t79 31.5q50 0 81.5 -31.5t31.5 -81.5q0 -48 -32.5 -82.5t-80.5 -34.5q-46 0 -78.5 34.5t-32.5 82.5zM692 1394q0 -48 32 -82.5t78 -34.5q48 0 81.5 34.5t33.5 82.5 q0 50 -32.5 81.5t-82.5 31.5q-46 0 -78 -31.5t-32 -81.5z" />
<glyph unicode="&#xcc;" horiz-adv-x="552" d="M48 1487h214l129 -208h-166zM164 0v1170h223q4 -1170 0 -1170h-2h-2h-3h-1h-2h-3h-1h-2h-2h-3h-1h-2h-3h-1h-2h-2h-3h-1h-2h-3h-3h-2h-3h-1h-2h-3h-1h-4h-3h-1h-2h-4h-2h-3h-2h-3h-3h-1h-5h-1h-4h-3h-1h-5h-1h-4h-3h-3h-3h-3h-3h-3h-5h-1h-5h-2h-3h-3h-3h-5h-1h-5h-3h-3 h-3h-5h-3h-3h-3h-5h-3h-3h-3h-5h-3h-19z" />
<glyph unicode="&#xcd;" horiz-adv-x="552" d="M162 1279l129 208h214l-176 -208h-167zM164 0v1170h223q4 -1170 0 -1170h-2h-2h-3h-1h-2h-3h-1h-2h-2h-3h-1h-2h-3h-1h-2h-2h-3h-1h-2h-3h-3h-2h-3h-1h-2h-3h-1h-4h-3h-1h-2h-4h-2h-3h-2h-3h-3h-1h-5h-1h-4h-3h-1h-5h-1h-4h-3h-3h-3h-3h-3h-3h-5h-1h-5h-2h-3h-3h-3h-5h-1 h-5h-3h-3h-3h-5h-3h-3h-3h-5h-3h-3h-3h-5h-3h-19z" />
<glyph unicode="&#xce;" horiz-adv-x="552" d="M-40 1259l211 228h214l210 -228h-146l-170 107l-173 -107h-146zM164 0v1170h223q4 -1170 0 -1170h-2h-2h-3h-1h-2h-3h-1h-2h-2h-3h-1h-2h-3h-1h-2h-2h-3h-1h-2h-3h-3h-2h-3h-1h-2h-3h-1h-4h-3h-1h-2h-4h-2h-3h-2h-3h-3h-1h-5h-1h-4h-3h-1h-5h-1h-4h-3h-3h-3h-3h-3h-3h-5 h-1h-5h-2h-3h-3h-3h-5h-1h-5h-3h-3h-3h-5h-3h-3h-3h-5h-3h-3h-3h-5h-3h-19z" />
<glyph unicode="&#xcf;" horiz-adv-x="552" d="M0 1394q0 50 32 81.5t79 31.5q50 0 81.5 -31.5t31.5 -81.5q0 -48 -32.5 -82.5t-80.5 -34.5q-46 0 -78.5 34.5t-32.5 82.5zM164 0v1170h223q4 -1170 0 -1170h-2h-2h-3h-1h-2h-3h-1h-2h-2h-3h-1h-2h-3h-1h-2h-2h-3h-1h-2h-3h-3h-2h-3h-1h-2h-3h-1h-4h-3h-1h-2h-4h-2h-3h-2 h-3h-3h-1h-5h-1h-4h-3h-1h-5h-1h-4h-3h-3h-3h-3h-3h-3h-5h-1h-5h-2h-3h-3h-3h-5h-1h-5h-3h-3h-3h-5h-3h-3h-3h-5h-3h-3h-3h-5h-3h-19zM331 1394q0 -48 32 -82.5t78 -34.5q48 0 81.5 34.5t33.5 82.5q0 50 -32.5 81.5t-82.5 31.5q-46 0 -78 -31.5t-32 -81.5z" />
<glyph unicode="&#xd1;" horiz-adv-x="1428" d="M164 0v1170h216l658 -818v818h227v-1170h-222l-656 807v-807h-223zM447 1307q0 104 53 165q46 50 110 49q64 0 120 -35q56 -36 79 -36q39 0 43 70h131q0 -92 -42 -151q-46 -67 -126 -65q-50 0 -113 37q-62 36 -78 36q-42 0 -46 -70h-131z" />
<glyph unicode="&#xd2;" horiz-adv-x="1455" d="M117 587q0 255 176 429t435 174q245 0 429 -178.5t184 -420.5q0 -253 -181.5 -432t-432 -179t-430.5 179t-180 428zM339 591q0 -158 114.5 -272t274.5 -114t275.5 114t115.5 272v-4q0 157 -115.5 267t-275.5 110t-274.5 -108t-114.5 -265zM502 1487h214l129 -208h-166z " />
<glyph unicode="&#xd3;" horiz-adv-x="1455" d="M117 587q0 255 176 429t435 174q245 0 429 -178.5t184 -420.5q0 -253 -181.5 -432t-432 -179t-430.5 179t-180 428zM339 591q0 -158 114.5 -272t274.5 -114t275.5 114t115.5 272v-4q0 157 -115.5 267t-275.5 110t-274.5 -108t-114.5 -265zM616 1279l129 208h214 l-176 -208h-167z" />
<glyph unicode="&#xd4;" horiz-adv-x="1455" d="M117 587q0 255 176 429t435 174q245 0 429 -178.5t184 -420.5q0 -253 -181.5 -432t-432 -179t-430.5 179t-180 428zM339 591q0 -158 114.5 -272t274.5 -114t275.5 114t115.5 272v-4q0 157 -115.5 267t-275.5 110t-274.5 -108t-114.5 -265zM411 1259l211 228h214l210 -228 h-146l-170 107l-173 -107h-146z" />
<glyph unicode="&#xd5;" horiz-adv-x="1455" d="M117 587q0 255 176 429t435 174q245 0 429 -178.5t184 -420.5q0 -253 -181.5 -432t-432 -179t-430.5 179t-180 428zM339 591q0 -158 114.5 -272t274.5 -114t275.5 114t115.5 272v-4q0 157 -115.5 267t-275.5 110t-274.5 -108t-114.5 -265zM461 1307q0 104 53 165 q46 50 110 49q64 0 120 -35q56 -36 79 -36q39 0 43 70h131q0 -92 -42 -151q-46 -67 -126 -65q-50 0 -113 37q-62 36 -78 36q-42 0 -46 -70h-131z" />
<glyph unicode="&#xd6;" horiz-adv-x="1455" d="M117 587q0 255 176 429t435 174q245 0 429 -178.5t184 -420.5q0 -253 -181.5 -432t-432 -179t-430.5 179t-180 428zM339 591q0 -158 114.5 -272t274.5 -114t275.5 114t115.5 272v-4q0 157 -115.5 267t-275.5 110t-274.5 -108t-114.5 -265zM451 1394q0 50 32 81.5t79 31.5 q50 0 81.5 -31.5t31.5 -81.5q0 -48 -32.5 -82.5t-80.5 -34.5q-46 0 -78.5 34.5t-32.5 82.5zM782 1394q0 -48 32 -82.5t78 -34.5q48 0 81.5 34.5t33.5 82.5q0 50 -32.5 81.5t-82.5 31.5q-46 0 -78 -31.5t-32 -81.5z" />
<glyph unicode="&#xd9;" horiz-adv-x="1424" d="M164 554v616h223v-616q0 -104 44 -189q44 -74 120 -117t162 -43t163.5 44t118.5 116q44 74 43 189v616h222v-616q0 -183 -70 -304q-74 -124 -203 -197t-273.5 -73t-274.5 74.5t-200 195.5q-74 135 -75 304zM486 1487h214l129 -208h-166z" />
<glyph unicode="&#xda;" horiz-adv-x="1424" d="M164 554v616h223v-616q0 -104 44 -189q44 -74 120 -117t162 -43t163.5 44t118.5 116q44 74 43 189v616h222v-616q0 -183 -70 -304q-74 -124 -203 -197t-273.5 -73t-274.5 74.5t-200 195.5q-74 135 -75 304zM599 1279l129 208h214l-176 -208h-167z" />
<glyph unicode="&#xdb;" horiz-adv-x="1424" d="M164 554v616h223v-616q0 -104 44 -189q44 -74 120 -117t162 -43t163.5 44t118.5 116q44 74 43 189v616h222v-616q0 -183 -70 -304q-74 -124 -203 -197t-273.5 -73t-274.5 74.5t-200 195.5q-74 135 -75 304zM394 1259l211 228h214l210 -228h-146l-170 107l-173 -107h-146z " />
<glyph unicode="&#xdc;" horiz-adv-x="1424" d="M164 554v616h223v-616q0 -104 44 -189q44 -74 120 -117t162 -43t163.5 44t118.5 116q44 74 43 189v616h222v-616q0 -183 -70 -304q-74 -124 -203 -197t-273.5 -73t-274.5 74.5t-200 195.5q-74 135 -75 304zM434 1394q0 50 32 81.5t79 31.5q50 0 81.5 -31.5t31.5 -81.5 q0 -48 -32.5 -82.5t-80.5 -34.5q-46 0 -78.5 34.5t-32.5 82.5zM765 1394q0 -48 32 -82.5t78 -34.5q48 0 81.5 34.5t33.5 82.5q0 50 -32.5 81.5t-82.5 31.5q-46 0 -78 -31.5t-32 -81.5z" />
<glyph unicode="&#xdd;" horiz-adv-x="1423" d="M47 1170h283l380 -481l384 481h282l-553 -697v-473h-223v473zM598 1279l129 208h214l-176 -208h-167z" />
<glyph unicode="&#xe0;" horiz-adv-x="1119" d="M94 267q0 129 117 215t293 86q116 0 254 -34q-2 82 -49 113t-147 31q-116 0 -296 -74l-95 184q202 87 391 86q417 0 418 -357v-517h-245v36q-8 -4 -12 -5t-15.5 -3.5t-27.5 -7.5q-112 -36 -208 -36q-166 0 -272 79.5t-106 203.5zM308 1170h214l129 -208h-166zM316 283 q-2 -178 442 -52v118q-36 16 -106 27t-147 14t-133 -24.5t-56 -82.5z" />
<glyph unicode="&#xe1;" horiz-adv-x="1119" d="M94 267q0 129 117 215t293 86q116 0 254 -34q-2 82 -49 113t-147 31q-116 0 -296 -74l-95 184q202 87 391 86q417 0 418 -357v-517h-245v36q-8 -4 -12 -5t-15.5 -3.5t-27.5 -7.5q-112 -36 -208 -36q-166 0 -272 79.5t-106 203.5zM316 283q-2 -178 442 -52v118 q-36 16 -106 27t-147 14t-133 -24.5t-56 -82.5zM422 962l129 208h214l-176 -208h-167z" />
<glyph unicode="&#xe2;" horiz-adv-x="1119" d="M94 267q0 129 117 215t293 86q116 0 254 -34q-2 82 -49 113t-147 31q-116 0 -296 -74l-95 184q202 87 391 86q417 0 418 -357v-517h-245v36q-8 -4 -12 -5t-15.5 -3.5t-27.5 -7.5q-112 -36 -208 -36q-166 0 -272 79.5t-106 203.5zM219 942l211 228h214l210 -228h-146 l-170 107l-173 -107h-146zM316 283q-2 -178 442 -52v118q-36 16 -106 27t-147 14t-133 -24.5t-56 -82.5z" />
<glyph unicode="&#xe3;" horiz-adv-x="1119" d="M94 267q0 129 117 215t293 86q116 0 254 -34q-2 82 -49 113t-147 31q-116 0 -296 -74l-95 184q202 87 391 86q417 0 418 -357v-517h-245v36q-8 -4 -12 -5t-15.5 -3.5t-27.5 -7.5q-112 -36 -208 -36q-166 0 -272 79.5t-106 203.5zM269 990q0 104 53 165q46 50 110 49 q64 0 120 -35q56 -36 79 -36q39 0 43 70h131q0 -92 -42 -151q-46 -67 -126 -65q-50 0 -113 37q-62 36 -78 36q-42 0 -46 -70h-131zM316 283q-2 -178 442 -52v118q-36 16 -106 27t-147 14t-133 -24.5t-56 -82.5z" />
<glyph unicode="&#xe4;" horiz-adv-x="1119" d="M94 267q0 129 117 215t293 86q116 0 254 -34q-2 82 -49 113t-147 31q-116 0 -296 -74l-95 184q202 87 391 86q417 0 418 -357v-517h-245v36q-8 -4 -12 -5t-15.5 -3.5t-27.5 -7.5q-112 -36 -208 -36q-166 0 -272 79.5t-106 203.5zM259 1077q0 50 32 81.5t79 31.5 q50 0 81.5 -31.5t31.5 -81.5q0 -48 -32.5 -82.5t-80.5 -34.5q-46 0 -78.5 34.5t-32.5 82.5zM316 283q-2 -178 442 -52v118q-36 16 -106 27t-147 14t-133 -24.5t-56 -82.5zM590 1077q0 -48 32 -82.5t78 -34.5q48 0 81.5 34.5t33.5 82.5q0 50 -32.5 81.5t-82.5 31.5 q-46 0 -78 -31.5t-32 -81.5z" />
<glyph unicode="&#xe7;" horiz-adv-x="973" d="M93.5 427.5q0.5 183.5 135.5 311t329 127.5q219 0 351 -150l-134 -179q-87 121 -217 121q-95 0 -167 -66.5t-72 -164.5q0 -102 71.5 -166t167.5 -64q136 0 205 98l152 -155q-136 -157 -357 -156h-34l-8 -30q104 36 141 -32q39 -74 -25 -142q-28 -32 -110 -33 q-95 2 -185 51l28 66q59 -36 125 -35q46 2 58 22q11 16 -6 37q-20 26 -68 -10l-48 35l23 83q-126 26 -220 119q-136 129 -135.5 312.5zM909 716l1 -2v3z" />
<glyph unicode="&#xe8;" d="M94 426.5q0 184.5 135 312t329 127.5q205 0 332 -129.5t135 -376.5h-702q20 -74 86.5 -123t142.5 -49q44 0 100 19.5t86 42.5l169 -152q-154 -118 -348.5 -118t-329.5 131t-135 315.5zM323 529h447v-4q-18 62 -78.5 97.5t-133.5 35.5q-95 0 -158 -41t-77 -88zM331 1170 h214l129 -208h-166z" />
<glyph unicode="&#xe9;" d="M94 426.5q0 184.5 135 312t329 127.5q205 0 332 -129.5t135 -376.5h-702q20 -74 86.5 -123t142.5 -49q44 0 100 19.5t86 42.5l169 -152q-154 -118 -348.5 -118t-329.5 131t-135 315.5zM323 529h447v-4q-18 62 -78.5 97.5t-133.5 35.5q-95 0 -158 -41t-77 -88zM446 962 l129 208h214l-176 -208h-167z" />
<glyph unicode="&#xea;" d="M94 426.5q0 184.5 135 312t329 127.5q205 0 332 -129.5t135 -376.5h-702q20 -74 86.5 -123t142.5 -49q44 0 100 19.5t86 42.5l169 -152q-154 -118 -348.5 -118t-329.5 131t-135 315.5zM241 942l211 228h214l210 -228h-146l-170 107l-173 -107h-146zM323 529h447v-4 q-18 62 -78.5 97.5t-133.5 35.5q-95 0 -158 -41t-77 -88z" />
<glyph unicode="&#xeb;" d="M94 426.5q0 184.5 135 312t329 127.5q205 0 332 -129.5t135 -376.5h-702q20 -74 86.5 -123t142.5 -49q44 0 100 19.5t86 42.5l169 -152q-154 -118 -348.5 -118t-329.5 131t-135 315.5zM281 1077q0 50 32 81.5t79 31.5q50 0 81.5 -31.5t31.5 -81.5q0 -48 -32.5 -82.5 t-80.5 -34.5q-46 0 -78.5 34.5t-32.5 82.5zM323 529h447v-4q-18 62 -78.5 97.5t-133.5 35.5q-95 0 -158 -41t-77 -88zM612 1077q0 -48 32 -82.5t78 -34.5q48 0 81.5 34.5t33.5 82.5q0 50 -32.5 81.5t-82.5 31.5q-46 0 -78 -31.5t-32 -81.5z" />
<glyph unicode="&#xec;" horiz-adv-x="505" d="M25 1170h214l129 -208h-166zM140 0v850h225v-850h-225z" />
<glyph unicode="&#xed;" horiz-adv-x="505" d="M138 962l129 208h214l-176 -208h-167zM140 0v850h225v-850h-225z" />
<glyph unicode="&#xee;" horiz-adv-x="505" d="M-64 942l211 228h214l210 -228h-146l-170 107l-173 -107h-146zM140 0v850h225v-850h-225z" />
<glyph unicode="&#xef;" horiz-adv-x="505" d="M-24 1077q0 50 32 81.5t79 31.5q50 0 81.5 -31.5t31.5 -81.5q0 -48 -32.5 -82.5t-80.5 -34.5q-46 0 -78.5 34.5t-32.5 82.5zM140 0v850h225v-850h-225zM307 1077q0 -48 32 -82.5t78 -34.5q48 0 81.5 34.5t33.5 82.5q0 50 -32.5 81.5t-82.5 31.5q-46 0 -78 -31.5 t-32 -81.5z" />
<glyph unicode="&#xf1;" horiz-adv-x="1150" d="M140 0v854h220v-55q70 67 272 67q174 0 276 -77t102 -235v-554h-222v467q0 116 -56.5 157.5t-155.5 41.5q-96 0 -156 -41.5t-60 -165.5v-459h-220zM309 990q0 104 53 165q46 50 110 49q64 0 120 -35q56 -36 79 -36q39 0 43 70h131q0 -92 -42 -151q-46 -67 -126 -65 q-50 0 -113 37q-62 36 -78 36q-42 0 -46 -70h-131z" />
<glyph unicode="&#xf2;" d="M94 426.5q0 184.5 135 312t329 127.5q197 0 332 -127t135 -312q0 -188 -135 -315.5t-332 -127.5q-194 0 -329 129t-135 313.5zM319 427q0 -102 71.5 -166t167.5 -64t168 66t72 164t-72 164.5t-168 66.5q-95 0 -167 -66.5t-72 -164.5zM331 1170h214l129 -208h-166z" />
<glyph unicode="&#xf3;" d="M94 426.5q0 184.5 135 312t329 127.5q197 0 332 -127t135 -312q0 -188 -135 -315.5t-332 -127.5q-194 0 -329 129t-135 313.5zM319 427q0 -102 71.5 -166t167.5 -64t168 66t72 164t-72 164.5t-168 66.5q-95 0 -167 -66.5t-72 -164.5zM446 962l129 208h214l-176 -208h-167 z" />
<glyph unicode="&#xf4;" d="M94 426.5q0 184.5 135 312t329 127.5q197 0 332 -127t135 -312q0 -188 -135 -315.5t-332 -127.5q-194 0 -329 129t-135 313.5zM241 942l211 228h214l210 -228h-146l-170 107l-173 -107h-146zM319 427q0 -102 71.5 -166t167.5 -64t168 66t72 164t-72 164.5t-168 66.5 q-95 0 -167 -66.5t-72 -164.5z" />
<glyph unicode="&#xf5;" d="M94 426.5q0 184.5 135 312t329 127.5q197 0 332 -127t135 -312q0 -188 -135 -315.5t-332 -127.5q-194 0 -329 129t-135 313.5zM291 990q0 104 53 165q46 50 110 49q64 0 120 -35q56 -36 79 -36q39 0 43 70h131q0 -92 -42 -151q-46 -67 -126 -65q-50 0 -113 37 q-62 36 -78 36q-42 0 -46 -70h-131zM319 427q0 -102 71.5 -166t167.5 -64t168 66t72 164t-72 164.5t-168 66.5q-95 0 -167 -66.5t-72 -164.5z" />
<glyph unicode="&#xf6;" d="M94 426.5q0 184.5 135 312t329 127.5q197 0 332 -127t135 -312q0 -188 -135 -315.5t-332 -127.5q-194 0 -329 129t-135 313.5zM281 1077q0 50 32 81.5t79 31.5q50 0 81.5 -31.5t31.5 -81.5q0 -48 -32.5 -82.5t-80.5 -34.5q-46 0 -78.5 34.5t-32.5 82.5zM319 427 q0 -102 71.5 -166t167.5 -64t168 66t72 164t-72 164.5t-168 66.5q-95 0 -167 -66.5t-72 -164.5zM612 1077q0 -48 32 -82.5t78 -34.5q48 0 81.5 34.5t33.5 82.5q0 50 -32.5 81.5t-82.5 31.5q-46 0 -78 -31.5t-32 -81.5z" />
<glyph unicode="&#xf9;" horiz-adv-x="1150" d="M140 301v553h220v-474q0 -118 57.5 -159t158.5 -41q96 0 152 41t56 166v467h226v-854h-226v46q-67 -62 -267 -62q-174 0 -275.5 79.5t-101.5 237.5zM346 1170h214l129 -208h-166z" />
<glyph unicode="&#xfa;" horiz-adv-x="1150" d="M140 301v553h220v-474q0 -118 57.5 -159t158.5 -41q96 0 152 41t56 166v467h226v-854h-226v46q-67 -62 -267 -62q-174 0 -275.5 79.5t-101.5 237.5zM460 962l129 208h214l-176 -208h-167z" />
<glyph unicode="&#xfb;" horiz-adv-x="1150" d="M140 301v553h220v-474q0 -118 57.5 -159t158.5 -41q96 0 152 41t56 166v467h226v-854h-226v46q-67 -62 -267 -62q-174 0 -275.5 79.5t-101.5 237.5zM259 942l211 228h214l210 -228h-146l-170 107l-173 -107h-146z" />
<glyph unicode="&#xfc;" horiz-adv-x="1150" d="M140 301v553h220v-474q0 -118 57.5 -159t158.5 -41q96 0 152 41t56 166v467h226v-854h-226v46q-67 -62 -267 -62q-174 0 -275.5 79.5t-101.5 237.5zM299 1077q0 50 32 81.5t79 31.5q50 0 81.5 -31.5t31.5 -81.5q0 -48 -32.5 -82.5t-80.5 -34.5q-46 0 -78.5 34.5 t-32.5 82.5zM630 1077q0 -48 32 -82.5t78 -34.5q48 0 81.5 34.5t33.5 82.5q0 50 -32.5 81.5t-82.5 31.5q-46 0 -78 -31.5t-32 -81.5z" />
<glyph unicode="&#xfd;" horiz-adv-x="1122" d="M23 854h254l305 -587l266 587h251l-529 -1178h-259l147 324zM447 962l129 208h214l-176 -208h-167z" />
<glyph unicode="&#xff;" horiz-adv-x="1122" d="M23 854h254l305 -587l266 587h251l-529 -1178h-259l147 324zM283 1077q0 50 32 81.5t79 31.5q50 0 81.5 -31.5t31.5 -81.5q0 -48 -32.5 -82.5t-80.5 -34.5q-46 0 -78.5 34.5t-32.5 82.5zM614 1077q0 -48 32 -82.5t78 -34.5q48 0 81.5 34.5t33.5 82.5q0 50 -32.5 81.5 t-82.5 31.5q-46 0 -78 -31.5t-32 -81.5z" />
<glyph unicode="&#x2c6;" horiz-adv-x="855" d="M110 942l211 228h214l210 -228h-146l-170 107l-173 -107h-146z" />
<glyph unicode="&#x2dc;" horiz-adv-x="799" d="M124 990q0 104 53 165q46 50 110 49q64 0 120 -35q56 -36 79 -36q39 0 43 70h131q0 -92 -42 -151q-46 -67 -126 -65q-50 0 -113 37q-62 36 -78 36q-42 0 -46 -70h-131z" />
<glyph unicode="&#x2000;" horiz-adv-x="760" />
<glyph unicode="&#x2001;" horiz-adv-x="1521" />
<glyph unicode="&#x2002;" horiz-adv-x="760" />
<glyph unicode="&#x2003;" horiz-adv-x="1521" />
<glyph unicode="&#x2004;" horiz-adv-x="507" />
<glyph unicode="&#x2005;" horiz-adv-x="380" />
<glyph unicode="&#x2006;" horiz-adv-x="253" />
<glyph unicode="&#x2007;" horiz-adv-x="253" />
<glyph unicode="&#x2008;" horiz-adv-x="190" />
<glyph unicode="&#x2009;" horiz-adv-x="304" />
<glyph unicode="&#x200a;" horiz-adv-x="84" />
<glyph unicode="&#x2010;" horiz-adv-x="506" d="M47 309v216h413v-216h-413z" />
<glyph unicode="&#x2011;" horiz-adv-x="506" d="M47 309v216h413v-216h-413z" />
<glyph unicode="&#x2012;" horiz-adv-x="506" d="M47 309v216h413v-216h-413z" />
<glyph unicode="&#x2013;" horiz-adv-x="1117" d="M47 309v216h1024v-216h-1024z" />
<glyph unicode="&#x2014;" horiz-adv-x="2141" d="M47 309v216h2048v-216h-2048z" />
<glyph unicode="&#x202f;" horiz-adv-x="304" />
<glyph unicode="&#x205f;" horiz-adv-x="380" />
<glyph unicode="&#x25fc;" horiz-adv-x="854" d="M0 0v854h854v-854h-854z" />
</font>
</defs>
</svg>
