<?xml version="1.0" standalone="no"?>
<!DOCTYPE svg PUBLIC "-//W3C//DTD SVG 1.1//EN" "http://www.w3.org/Graphics/SVG/1.1/DTD/svg11.dtd" >
<svg xmlns="http://www.w3.org/2000/svg">
<metadata></metadata>
<defs>
<font id="roadgeek_2014_series_cregular" horiz-adv-x="789" >
<font-face units-per-em="2048" ascent="1463" descent="-585" />
<missing-glyph horiz-adv-x="500" />
<glyph unicode="&#xd;" horiz-adv-x="1018" />
<glyph horiz-adv-x="0" />
<glyph horiz-adv-x="0" />
<glyph unicode=" "  horiz-adv-x="500" />
<glyph unicode="&#x09;" horiz-adv-x="500" />
<glyph unicode="&#xa0;" horiz-adv-x="500" />
<glyph unicode="!" horiz-adv-x="430" d="M129 70q0 34 24.5 58t61.5 24q34 0 60.5 -24t26.5 -58q0 -36 -25 -61t-62 -25q-39 0 -62.5 24t-23.5 62zM133 1170h164l-35 -875h-91z" />
<glyph unicode="&#x22;" horiz-adv-x="763" d="M129 1170h182l-30 -473h-122zM453 1170h181l-28 -473h-123z" />
<glyph unicode="#" horiz-adv-x="1029" d="M70 349l20 144h169l28 204h-169l22 144h169l43 329h154l-51 -329h184l47 329h152l-46 -329h168l-20 -144h-169l-23 -204h164l-21 -144h-169l-48 -349h-153l50 349h-184l-50 -349h-145l50 349h-172zM411 493h180l28 204h-184z" />
<glyph unicode="$" horiz-adv-x="863" d="M105 329v16h161v-13q0 -81 46.5 -134.5t116.5 -53.5q68 0 117 53t49 127q0 84 -91 165q-22 20 -196 138q-149 101 -149 259q0 112 54.5 190.5t158.5 101.5v165h164v-160q217 -46 222 -297h-163q-2 62 -40.5 99.5t-96.5 37.5q-56 0 -95.5 -39.5t-39.5 -97.5 q0 -44 22 -72.5t84 -65.5q329 -183 329 -424q0 -121 -58 -211.5t-164 -120.5v-161h-164v153q-124 18 -195.5 113t-71.5 232z" />
<glyph unicode="&#x26;" horiz-adv-x="1123" d="M105 317q0 220 243 341q-18 20 -39 49t-27 36q-56 84 -56 182q0 115 75 188.5t195 73.5q122 0 198 -72t76 -187q0 -88 -49.5 -168t-138.5 -133l201 -236q34 82 34 180h138q0 -186 -70 -296l238 -275h-200l-125 144q-62 -74 -154 -119t-186 -45q-152 0 -252.5 96 t-100.5 241zM269 324q0 -88 55 -145t142 -57q118 1 239 133l-263 299q-172 -84 -173 -230zM390 928q0 -40 18 -78t33 -56t51 -58q73 46 102 87t29 93t-34.5 87t-84.5 35t-83.5 -30t-30.5 -80z" />
<glyph unicode="'" horiz-adv-x="282" d="M47 1078.5q0 40.5 28 67.5t67 27q44 0 68.5 -28.5t24.5 -78.5q0 -121 -93 -202l-51 38q50 50 62 90h-11q-42 0 -68.5 23t-26.5 63.5z" />
<glyph unicode="(" horiz-adv-x="507" d="M117 583.5q0 111.5 18.5 213t45 167t52.5 114.5t47 70l17 22h164q-8 -8 -20 -22.5t-44 -68t-56 -115.5t-44 -165.5t-20 -215t19 -213t45 -166t52 -113.5t47 -71l18 -20h-164q-8 8 -19.5 22t-42.5 67.5t-54.5 114t-42 164.5t-18.5 215.5z" />
<glyph unicode=")" horiz-adv-x="509" d="M47 1170h162q8 -8 20.5 -22.5t43.5 -68t55 -115.5t44 -165.5t20 -215.5q0 -177 -45 -322.5t-90 -204.5l-43 -56h-163q8 8 20 23.5t43 68t55 114t43.5 164t19.5 214t-19.5 214t-46.5 167.5t-54 114t-46 71z" />
<glyph unicode="*" d="M94 882l41 153q95 -20 103 -25q32 -4 78 -20q0 8 -2.5 31t-2.5 33v116h169v-116q0 -8 -2 -32t-2 -35q34 14 72 23q25 8 66 16l43 9l39 -157l-110 -28q-30 -12 -62 -12q6 -8 19 -23.5t19 -22.5q18 -20 76 -98l-127 -98q-70 82 -82 98l-31 49l-39 -49l-73 -98l-130 93 q42 62 65 90q32 44 48 59q-12 2 -62 12q-28 6 -113 32z" />
<glyph unicode="+" horiz-adv-x="829" d="M35 513v161h296v282h165v-282h299v-161h-299v-282h-165v282h-296z" />
<glyph unicode="," horiz-adv-x="282" d="M47 78.5q0 39.5 28 66.5t67 27q44 0 68.5 -27.5t24.5 -77.5q0 -121 -93 -203l-51 38q50 50 62 90h-11q-42 0 -68.5 23.5t-26.5 63z" />
<glyph unicode="-" horiz-adv-x="480" d="M35 481v154h411v-154h-411z" />
<glyph unicode="." horiz-adv-x="282" d="M47 82.5q0 38.5 28 66.5t66 28t66 -28t28 -66.5t-28 -66.5t-66 -28t-66 28t-28 66.5z" />
<glyph unicode="/" horiz-adv-x="857" d="M0 0l678 1175h180l-678 -1175h-180z" />
<glyph unicode="0" horiz-adv-x="826" d="M70 587q0 261 66 408q46 104 111 149.5t167.5 45.5t166.5 -45.5t108 -154.5q67 -150 67 -403q0 -261 -67 -407q-82 -200 -275 -200q-104 0 -169 47t-109 153q-67 150 -66 407zM231 583q0 -149 37 -296q40 -143 146 -143q104 0 145 143q37 120 37 300q0 163 -37 291 q-40 149 -144.5 148.5t-146.5 -144.5q-39 -122 -37 -299z" />
<glyph unicode="1" horiz-adv-x="476" d="M105 960v128q96 6 133 82h110v-1170h-169v960h-74z" />
<glyph unicode="2" horiz-adv-x="792" d="M70 0q11 188 56 321q74 180 191 290q48 42 146 111q60 42 80 70t20 71q0 68 -48 115.5t-116 47.5t-116.5 -48t-48.5 -115h-164q4 138 97.5 232.5t231.5 94.5q135 0 229 -96t94 -231q0 -138 -98 -231q-25 -16 -37 -28l-42 -28l-39 -31l-47 -32q-56 -42 -108.5 -114 t-75.5 -144q-12 -26 -25 -91h472v-164h-652z" />
<glyph unicode="3" horiz-adv-x="792" d="M70 309h164q6 -73 52 -119t113 -46q70 0 117 49t47 124q0 92 -45 158t-107 66h-82v161h70q46 0 87 46q48 54 48 130q0 68 -36.5 108t-98.5 40q-116 0 -129 -121l-164 20q12 118 94.5 191.5t198.5 73.5q126 0 210.5 -87t84.5 -212q0 -144 -107 -267q135 -122 135 -307 q0 -144 -91 -240.5t-231.5 -96.5t-232 92t-97.5 237z" />
<glyph unicode="4" horiz-adv-x="863" d="M35 283v120l485 767h168v-731h70v-156h-70v-283h-168v283h-485zM241 439h279v439z" />
<glyph unicode="5" horiz-adv-x="792" d="M70 82l110 118q82 -56 161 -56q95 0 156.5 77t61.5 198q0 95 -43 150t-117 55q-78 0 -140 -56l-161 19l28 583h552v-164h-395l-13 -246q70 25 133 24q143 0 231 -103.5t88 -269.5q0 -185 -104.5 -308t-260.5 -123q-154 0 -287 102z" />
<glyph unicode="6" horiz-adv-x="863" d="M105 403q0 214 107 421.5t296 353.5l95 -132q-74 -56 -145.5 -149t-101.5 -175q28 4 73 4q150 0 239.5 -102.5t89.5 -270.5t-89 -270.5t-240 -102.5q-158 0 -241 110t-83 313zM266 369q0 -101 45 -163t119 -62t119.5 58.5t45.5 150.5t-46.5 153.5t-118.5 61.5t-118 -57.5 t-46 -141.5z" />
<glyph unicode="7" horiz-adv-x="793" d="M35 1006v164h653v-164q-152 -177 -250 -457q-82 -241 -94 -549h-165v25q0 197 70 468q68 259 227 513h-441z" />
<glyph unicode="8" horiz-adv-x="792" d="M70 345q0 180 110 290q-95 101 -93 243q0 136 87 224t225 88q135 0 221 -87.5t86 -224.5q0 -149 -95 -243q111 -104 111 -290q0 -183 -111 -286q-78 -78 -212 -79q-169 0 -255 122q-74 106 -74 243zM234 345q0 -88 45 -144.5t119.5 -56.5t119.5 56.5t45 144.5 q0 95 -45 152t-119.5 57t-119.5 -57.5t-45 -151.5zM250 878q0 -70 41 -113t108 -43q62 0 102 43t40 113q0 64 -40 106t-102 42q-64 0 -106.5 -42t-42.5 -106z" />
<glyph unicode="9" horiz-adv-x="792" d="M70 826q0 166 89 265t240 99q323 0 323 -419q0 -217 -105.5 -419t-295.5 -352l-94 132q74 56 145.5 150.5t100.5 176.5q-28 -4 -74 -4q-150 0 -239.5 100t-89.5 271zM234 826q0 -95 44.5 -151t120.5 -56q74 0 119 50.5t45 137.5q0 98 -45 158.5t-119 60.5 q-76 0 -120.5 -53.5t-44.5 -146.5z" />
<glyph unicode=":" horiz-adv-x="278" d="M47 78q0 39 27 66.5t66 27.5t65.5 -27.5t26.5 -66.5q0 -40 -26.5 -67t-65.5 -27q-40 0 -66.5 27.5t-26.5 66.5zM47 571q0 40 27 67.5t66 27.5t65.5 -27.5t26.5 -67.5q0 -39 -26.5 -64.5t-65.5 -25.5q-40 0 -66.5 26.5t-26.5 63.5z" />
<glyph unicode="=" horiz-adv-x="841" d="M35 360v165h760v-165h-760zM35 661v165h760v-165h-760z" />
<glyph unicode="?" horiz-adv-x="857" d="M70 784q0 104 17 165t62 114q104 129 290 127q154 0 247 -85q102 -103 102 -235q0 -81 -33 -139.5t-79 -96t-92.5 -77.5t-75.5 -107t-22 -160h-141q0 177 32 247q25 44 89.5 99.5t111 109t46.5 117.5q0 76 -51.5 121.5t-133.5 45.5q-124 0 -172 -82q-25 -39 -36 -164 h-161zM332 66.5q0 34.5 26.5 60t60.5 25.5t58 -25.5t24 -60t-24 -58.5t-58 -24t-60.5 24t-26.5 58.5z" />
<glyph unicode="@" horiz-adv-x="1380" d="M105 587q0 250 177.5 426.5t430.5 176.5q245 0 404 -146.5t159 -374.5q0 -166 -89 -292.5t-212 -126.5q-96 0 -130 87q-76 -95 -207 -95q-110 0 -184.5 81.5t-74.5 205.5q0 150 94.5 257.5t227.5 107.5q115 0 167 -87l13 67h148l-71 -368q-12 -60 -11 -75q0 -54 38 -54 q59 0 108.5 88.5t49.5 200.5q0 177 -118 288.5t-309 111.5q-194 0 -332 -143.5t-138 -339.5q0 -199 130 -341q132 -132 348 -132q197 0 360 75l36 -131q-177 -78 -390 -79q-276 0 -444 169q-180 169 -181 443zM540 534q0 -64 35 -103.5t90 -39.5q67 0 115.5 62t48.5 154 q0 64 -31 100t-85 36q-68 0 -120.5 -62.5t-52.5 -146.5z" />
<glyph unicode="A" horiz-adv-x="818" d="M35 0l293 1170h164l291 -1170h-169l-82 321h-250l-78 -321h-169zM323 486h169l-86 336z" />
<glyph unicode="B" horiz-adv-x="856" d="M129 0v1170h371q118 0 192.5 -84.5t74.5 -219.5q0 -78 -26.5 -128t-99.5 -127q145 -118 145 -290q0 -132 -91 -226.5t-220 -94.5h-346zM297 164h169q70 0 112.5 46t42.5 122q0 82 -46 139.5t-109 57.5h-169v-365zM297 694h178q59 0 93 45.5t34 126.5q0 74 -29.5 107 t-97.5 33h-178v-312z" />
<glyph unicode="C" horiz-adv-x="863" d="M105 611q0 284 88.5 431.5t260.5 147.5q149 0 231 -118q57 -74 73 -214h-168q-25 168 -140 168h-1q-102 0 -142.5 -91t-40.5 -319q0 -253 46 -362.5t154 -109.5q124 0 124 168h168q-2 -144 -85 -238t-207 -94q-186 0 -273.5 153.5t-87.5 477.5z" />
<glyph unicode="D" horiz-adv-x="891" d="M129 0v1170h300q130 0 189 -45q110 -78 140 -259q28 -150 28 -279q0 -401 -168 -533q-60 -54 -165 -54h-324zM297 164h141q70 0 112 47.5t56 120.5q15 149 15 247q0 227 -31 307q-40 120 -150 120h-2h-141v-842z" />
<glyph unicode="E" horiz-adv-x="794" d="M129 0v1170h551v-164h-383v-297h243v-160h-243v-385h427v-164h-595z" />
<glyph unicode="F" horiz-adv-x="759" d="M129 0v1170h595v-164h-427v-297h234v-160h-234v-549h-168z" />
<glyph unicode="G" horiz-adv-x="863" d="M105 583q0 245 54 393q30 92 112 153t183 61q126 0 212 -83.5t92 -212.5h-168q-4 60 -42 96t-99 36q-88 0 -130 -86q-53 -96 -53 -321v-8q0 -157 23 -290q39 -177 173 -177q129 0 128 180v79h-132v165h300v-244q0 -110 -34 -180q-34 -78 -102 -121t-156 -43 q-211 0 -299 200q-62 149 -62 403z" />
<glyph unicode="H" horiz-adv-x="915" d="M129 0v1170h168v-476h321v476h168v-1170h-168v529h-321v-529h-168z" />
<glyph unicode="I" horiz-adv-x="421" d="M129 0v1170h164v-1170h-164z" />
<glyph unicode="J" horiz-adv-x="759" d="M35 126l128 101q60 -82 148 -83q92 0 131 75q20 40 20 71v880h169v-829q0 -95 -17.5 -148t-61.5 -103q-96 -110 -241 -110q-88 0 -163 39.5t-113 106.5z" />
<glyph unicode="K" horiz-adv-x="856" d="M129 0v1170h168v-468l268 468h193l-243 -410l271 -760h-176l-205 571l-108 -198v-373h-168z" />
<glyph unicode="L" horiz-adv-x="759" d="M129 0v1170h168v-1013h427v-157h-595z" />
<glyph unicode="M" horiz-adv-x="1031" d="M129 0v1170h168l218 -657l219 657h168v-1170h-168v658l-219 -658l-218 658v-658h-168z" />
<glyph unicode="N" horiz-adv-x="915" d="M129 0v1170h168l321 -703v703h168v-1170h-126l-363 784v-784h-168z" />
<glyph unicode="O" horiz-adv-x="896" d="M105 587q0 261 66 408q46 104 111.5 149.5t167.5 45.5t166 -45.5t108 -154.5q67 -150 67 -403q0 -261 -67 -407q-82 -200 -275 -200q-104 0 -169 47t-109 153q-66 148 -66 399v8zM266 583q0 -149 37 -296q40 -143 146 -143q104 0 146 143q36 120 36 300q0 163 -36 291 q-40 149 -144 149l-1 -1q-105 0 -147 -144q-37 -116 -37 -282v-17z" />
<glyph unicode="P" horiz-adv-x="891" d="M129 0v1170h351q138 0 222 -90t84 -239q0 -158 -79.5 -243t-226.5 -85h-183v-513h-168zM297 674h172q74 0 113 43t39 124q0 74 -42 119.5t-110 45.5h-172v-332z" />
<glyph unicode="Q" horiz-adv-x="896" d="M172 995q44 102 110.5 148.5t169 46.5t166 -46.5t108.5 -153.5q66 -150 66 -403q0 -359 -134 -520l44 -71l-106 -70l-42 70q-54 -16 -103 -16q-102 0 -168 48t-111 152q-67 149 -67 403q0 260 67 412zM267 583q0 -62 8 -135.5t25.5 -159.5t57.5 -129q25 -26 55 -26 q20 0 42 11l-68 111l106 69l70 -111q69 115 69 374q0 174 -36 291q-40 149 -144 149l-1 -1q-105 0 -147 -144q-37 -116 -37 -282v-17z" />
<glyph unicode="R" horiz-adv-x="856" d="M129 0v1170h351q138 0 222 -86t84 -226q0 -220 -168 -282l168 -576h-173l-155 549h-161v-549h-168zM297 709h172q74 0 113 39.5t39 109.5q0 68 -42 108t-110 40h-172v-297z" />
<glyph unicode="S" horiz-adv-x="792" d="M70 345h164q0 -82 42 -141.5t123 -59.5q68 0 116 53t48 124q0 95 -96 168q-6 6 -6 8q-4 4 -88 62q-60 40 -103 68q-144 102 -144 259q0 126 87.5 215t213.5 89q124 0 208.5 -86t86.5 -218h-159q-2 60 -41 98.5t-95 38.5q-59 0 -99.5 -39.5t-40.5 -97.5q0 -44 22.5 -72.5 t89.5 -65.5q171 -101 247 -201t76 -226q0 -143 -94 -242t-229 -99q-149 0 -239 107t-90 258z" />
<glyph unicode="T" horiz-adv-x="665" d="M35 1015v155h596v-155h-213v-1015h-169v1015h-214z" />
<glyph unicode="U" horiz-adv-x="915" d="M129 349v821h168v-841q0 -82 45 -133.5t119 -51.5q68 0 112.5 51.5t44.5 133.5v841h168v-821q0 -118 -44 -205q-44 -73 -121.5 -118.5t-159.5 -45.5q-87 0 -164.5 45t-122.5 119q-46 90 -45 205z" />
<glyph unicode="V" horiz-adv-x="793" d="M35 1170h169l194 -759l192 759h168l-300 -1170h-127z" />
<glyph unicode="W" horiz-adv-x="958" d="M35 1170h164l101 -625l114 625h130l113 -625l101 625h165l-188 -1170h-145l-110 611l-113 -611h-146z" />
<glyph unicode="X" horiz-adv-x="756" d="M35 0l254 607l-236 563h176l147 -352l148 352h177l-235 -563l255 -607h-181l-164 399l-164 -399h-177z" />
<glyph unicode="Y" horiz-adv-x="818" d="M35 1170h177l198 -422l193 422h180l-291 -641v-529h-169v529z" />
<glyph unicode="Z" horiz-adv-x="784" d="M70 0v180l436 830h-391v165h599v-109l-472 -906h472v-160h-644z" />
<glyph unicode="`" horiz-adv-x="341" d="M0 1170h174l68 -208h-106z" />
<glyph unicode="a" horiz-adv-x="702" d="M47 287q-1 178 125 252q64 38 134 38q68 0 142 -36q-2 44 -2.5 59.5t-7.5 46.5t-20.5 42t-39.5 22t-64 11q-53 0 -103 -33.5t-74 -72.5l-41 160q104 98 238 98q275 0 275 -303v-571h-153v25q-42 -36 -142 -37q-110 0 -188.5 85t-78.5 214zM209 283q0 -150 141 -151 q98 0 98 76v169q-44 40 -99 45q-7 1 -13 1q-46 0 -84 -32q-42 -36 -43 -108z" />
<glyph unicode="b" horiz-adv-x="771" d="M105 0v1100l164 90v-356q59 40 152 40h1q279 0 279 -443q0 -447 -300 -447q-32 0 -65 14t-48 28l-19 14v-40h-164zM274 301q0 -76 35.5 -120.5t100 -44.5t95.5 90t31 205q-11 286 -134 286h-1q-129 0 -127 -163v-253z" />
<glyph unicode="c" horiz-adv-x="684" d="M70 431q0 81 12.5 151t42 140t90.5 111t150 41q214 0 270 -213l-154 -65q-28 126 -116 126q-42 0 -71.5 -32t-41 -82.5t-16.5 -92.5t-5 -84t5 -84.5t16.5 -92t41 -82t71.5 -32.5q104 0 128 177l157 -50q-53 -283 -285 -283q-295 0 -295 447z" />
<glyph unicode="d" horiz-adv-x="771" d="M70 431q0 443 278 443h1q42 0 80 -11t57 -22l15 -11v270l165 90v-1190h-165v40q-59 -56 -132 -56q-298 0 -299 447zM234 431q0 -116 30.5 -205.5t95.5 -89.5q64 0 100.5 44.5t36.5 120.5v253q0 163 -130 163h-2q-121 0 -131 -286z" />
<glyph unicode="e" horiz-adv-x="708" d="M70 431q0 81 12.5 151t42 140t90.5 111t150 41q101 0 166 -48t91 -134q25 -86 33 -160q6 -59 6 -134v-38h-427q18 -220 131 -220q48 0 86 38.5t50 96.5l126 -95q-73 -196 -260 -196h-2q-295 0 -295 447zM231 509h266q0 213 -132 213q-135 0 -134 -213z" />
<glyph unicode="f" horiz-adv-x="431" d="M47 697v157h95v148q0 76 35 132t107 56q74 0 120 -12v-152q-24 6 -43 6q-55 0 -56 -56v-122h103v-157h-103v-697h-163v697h-95z" />
<glyph unicode="g" horiz-adv-x="775" d="M70 431q0 443 278 443h1q42 0 80 -14t57 -28l15 -14v36h168v-784q0 -2 1 -39q1 -19 1 -33t-1 -23q-1 -19 -3.5 -62t-12.5 -70.5t-24 -67t-40.5 -68t-60.5 -56.5t-83 -47t-109 -26l-78 132q242 48 242 220v78q-57 -24 -126 -24h-6q-298 0 -299 447zM234 431 q0 -116 30.5 -205.5t95.5 -89.5q64 0 100.5 44.5t36.5 120.5v253q0 163 -130 163h-2q-39 0 -65.5 -26.5t-39.5 -72t-19.5 -90.5t-6.5 -97z" />
<glyph unicode="h" d="M105 0v1100l161 90v-349q74 36 150 37h2q74 0 136 -30t102 -98.5t40 -162.5v-587h-164v587q0 76 -37 105.5t-105 29.5q-121 -8 -121 -135v-587h-164z" />
<glyph unicode="i" horiz-adv-x="379" d="M105 0v854h164v-854h-164zM105 1100q0 39 24 63t58 24q39 0 63 -24t24 -63q0 -34 -24 -58t-63 -24q-34 0 -58 24t-24 58z" />
<glyph unicode="j" horiz-adv-x="442" d="M0 -259q67 22 106 51q62 50 63 134v928h163v-882q0 -214 -124 -301q-121 -84 -208 -93v163zM169 1100q0 39 24 63t57 24q39 0 63 -24t24 -63q0 -34 -24 -58t-63 -24q-34 0 -57.5 24t-23.5 58z" />
<glyph unicode="k" horiz-adv-x="765" d="M105 0v1100l164 90v-583l197 247h199l-189 -235l266 -619h-176l-207 481l-90 -112v-369h-164z" />
<glyph unicode="l" horiz-adv-x="370" d="M105 0v1100l161 90v-1190h-161z" />
<glyph unicode="m" horiz-adv-x="1180" d="M105 0v854h161v-50q78 70 172 70q108 0 180 -103q66 103 211 103h19q101 -6 170 -78.5t69 -208.5v-587h-168v587q0 78 -31 106.5t-102 28.5q-110 0 -110 -135v-587h-165v587q0 78 -31.5 106.5t-100.5 28.5q-110 -8 -110 -135v-587h-164z" />
<glyph unicode="n" d="M105 0v854h161v-36q28 36 98 49q31 6 64 6q40 0 80 -9q74 -16 131 -88.5t57 -188.5v-587h-164v583q0 76 -37 105t-105 29q-121 -8 -121 -134v-583h-164z" />
<glyph unicode="o" horiz-adv-x="731" d="M70 431q0 81 12.5 151t42 140t90.5 111t150 41h1q295 0 295 -443q0 -447 -296 -447q-295 0 -295 447zM231 427q0 -42 5 -84t16.5 -92.5t41 -82.5t71.5 -32t71 32t42.5 84t18 95.5t4.5 83.5q0 39 -4.5 81t-18 91.5t-42.5 81.5t-71 32t-71.5 -32t-41 -81.5t-16.5 -92 t-5 -84.5z" />
<glyph unicode="p" horiz-adv-x="771" d="M105 -329v1183h164v-41q62 56 145 61h9q84 0 142 -36q61 -39 88 -111t37.5 -142.5t10.5 -162.5q0 -442 -277 -442h-3q-42 0 -80 8t-53 16l-19 8v-262zM274 329q0 -95 37 -144t90 -49t84 49t41 106.5t10 130.5q0 283 -130 292q-7 1 -14 1q-50 0 -82 -37q-36 -43 -36 -157 v-192z" />
<glyph unicode="q" horiz-adv-x="771" d="M70 422q0 92 10 162.5t37 142.5t89 111q57 36 138 36h13q74 -4 144 -61v41h165v-1104l-165 -79v341q-59 -32 -152 -32q-279 0 -279 442zM234 422q0 -53 6.5 -97t19.5 -89t40 -72.5t65 -27.5q56 0 94 49t38 144v192q0 115 -37 157q-33 37 -81 37q-7 0 -14 -1 q-130 -8 -131 -292z" />
<glyph unicode="r" horiz-adv-x="514" d="M105 0v854h161v-41l35.5 35.5t29.5 17.5t48 8q65 0 113 -56l-26 -152q-54 48 -94 48q-67 0 -86.5 -39.5t-19.5 -129.5v-545h-161z" />
<glyph unicode="s" horiz-adv-x="576" d="M47 118l126 101q53 -79 114 -79q13 0 27 4q53 14 56 62v7q0 45 -40 91q-36 46 -110.5 105.5t-118.5 109.5t-50 108q-1 11 -1 22q0 75 37 131q42 66 122 86q36 9 70 9q125 0 223 -127l-120 -95q-4 4 -10.5 11.5t-23.5 21.5t-34 21t-38 6t-36 -19q-16 -23 -17 -43 q0 -13 9 -25q20 -28 73 -73.5t107 -86.5q54 -42 94 -108q36 -60 36 -123v-13q-6 -101 -76 -169.5t-191 -68.5q-146 0 -228 134z" />
<glyph unicode="t" horiz-adv-x="447" d="M12 697v157h110v246l165 90v-336h135v-157h-135v-475q0 -46 11 -64t47 -18q37 0 90 40l-24 -160q-70 -36 -128 -36q-8 -1 -15 -1q-75 0 -109 57q-37 62 -37 165v492h-110z" />
<glyph unicode="u" d="M94 267v587h163v-587q0 -74 38.5 -102.5t105.5 -28.5q118 0 119 131v587h165v-854h-161v50q-78 -70 -173 -70q-101 0 -179 75t-78 212z" />
<glyph unicode="v" horiz-adv-x="731" d="M23 854h164l177 -575l172 575h172l-274 -854h-134z" />
<glyph unicode="w" horiz-adv-x="1146" d="M23 854h164l129 -545l168 545h176l165 -550l130 550h168l-196 -854h-177l-175 568l-182 -568h-172z" />
<glyph unicode="x" horiz-adv-x="759" d="M0 0l287 473l-233 381h193l130 -222l136 222h184l-224 -377l287 -477h-192l-191 317l-189 -317h-188z" />
<glyph unicode="y" horiz-adv-x="773" d="M23 854h168l195 -599l189 599h175l-386 -1183h-177l107 329z" />
<glyph unicode="z" horiz-adv-x="559" d="M35 0v132l309 549h-278v173h458v-168l-295 -529h295v-157h-489z" />
<glyph unicode="&#xa2;" horiz-adv-x="674" d="M70 604q0 191 58 302.5t162 123.5v140h161v-140q78 -14 128.5 -90.5t59.5 -163.5h-146q-16 106 -120 106q-90 0 -118 -57t-28 -221q0 -178 35 -249.5t125 -71.5q106 0 106 108h146q-2 -98 -57 -169.5t-131 -89.5v-136h-161v144q-220 39 -220 464z" />
<glyph unicode="&#xa8;" horiz-adv-x="624" d="M106 1100q0 39 24 63t58 24q39 0 63 -24t24 -63q0 -34 -24 -58t-63 -24q-34 0 -58 24t-24 58zM351 1100q0 39 24 63t58 24q39 0 63 -24t24 -63q0 -34 -24 -58t-63 -24q-34 0 -58 24t-24 58z" />
<glyph unicode="&#xad;" horiz-adv-x="480" d="M35 481v154h411v-154h-411z" />
<glyph unicode="&#xb2;" horiz-adv-x="526" d="M46 391q6 126 38 214q48 121 127 193q32 28 98 74q40 28 52.5 47.5t12.5 47.5q0 44 -32 75.5t-77 31.5t-76.5 -32t-31.5 -75h-111q2 92 64 154.5t154 62.5q90 0 153.5 -63.5t63.5 -153.5q0 -92 -66 -155q-16 -11 -24 -19l-28 -19l-26 -20l-33 -20q-36 -28 -70.5 -76 t-50.5 -96q-8 -18 -17 -61h315v-110h-435z" />
<glyph unicode="&#xb3;" horiz-adv-x="526" d="M46 597h111q4 -48 33.5 -79t73.5 -31q48 0 79 33.5t31 81.5q0 62 -29.5 105.5t-71.5 43.5h-54v107h45q32 0 59 33q32 36 32 85q0 46 -24 72t-67 26q-76 0 -84 -79l-110 11q8 81 63 129.5t131 48.5q84 0 140.5 -58t56.5 -142q0 -96 -70 -178q90 -80 90 -204 q0 -96 -61 -160.5t-154.5 -64.5t-154.5 62t-65 158z" />
<glyph unicode="&#xb4;" horiz-adv-x="341" d="M101 962l68 208h174l-137 -208h-105z" />
<glyph unicode="&#xb8;" horiz-adv-x="0" d="M121 -202l28 66q59 -36 124 -35q46 2 58 22q11 16 -7 37q-20 26 -68 -10l-48 35l28 99h79l-17 -58q64 36 101 -32q39 -74 -25 -133q-28 -32 -70 -31q-95 2 -183 40z" />
<glyph unicode="&#xb9;" horiz-adv-x="301" d="M70 1030v86q64 4 88 54h75v-779h-112v639h-51z" />
<glyph unicode="&#xbc;" horiz-adv-x="1040" d="M70 1030v86q64 4 88 54h75v-779h-112v639h-51zM92 0l674 1169h119l-672 -1169h-121zM488 188v81l321 510h113v-486h48v-105h-48v-188h-113v188h-321zM626 293h183v292z" />
<glyph unicode="&#xbd;" horiz-adv-x="1217" d="M70 1030v86q64 4 88 54h75v-779h-112v639h-51zM110 0l674 1169h119l-672 -1169h-121zM712 0q6 126 38 214q48 121 127 193q32 28 98 74q40 28 52.5 47.5t12.5 47.5q0 44 -32 75.5t-77 31.5t-76.5 -32t-31.5 -75h-111q2 92 64 154.5t154 62.5q90 0 153.5 -63.5 t63.5 -153.5q0 -92 -66 -155q-16 -11 -24 -18l-28 -20l-26 -20l-33 -20q-36 -28 -70.5 -76t-50.5 -96q-8 -18 -17 -61h315v-110h-435z" />
<glyph unicode="&#xbe;" horiz-adv-x="1240" d="M71 597h111q4 -48 33.5 -79t73.5 -31q48 0 79 33.5t31 81.5q0 62 -29.5 105.5t-71.5 43.5h-54v107h45q32 0 59 33q32 36 32 85q0 46 -24 72t-67 26q-76 0 -84 -79l-110 11q8 81 63 129.5t131 48.5q84 0 140.5 -58t56.5 -142q0 -96 -70 -178q90 -80 90 -204 q0 -96 -61 -160.5t-154.5 -64.5t-154.5 62t-65 158zM289 -4l674 1169h119l-672 -1169h-121zM689 188v81l321 510h113v-486h48v-105h-48v-188h-113v188h-321zM827 293h183v292z" />
<glyph unicode="&#xc0;" horiz-adv-x="818" d="M35 0l293 1170h164l291 -1170h-169l-82 321h-250l-78 -321h-169zM247 1487h174l68 -208h-106zM323 486h169l-86 336z" />
<glyph unicode="&#xc1;" horiz-adv-x="818" d="M35 0l293 1170h164l291 -1170h-169l-82 321h-250l-78 -321h-169zM323 486h169l-86 336zM328 1279l68 208h174l-137 -208h-105z" />
<glyph unicode="&#xc2;" horiz-adv-x="818" d="M35 0l293 1170h164l291 -1170h-169l-82 321h-250l-78 -321h-169zM213 1279l109 208h174l108 -208h-106l-89 75l-90 -75h-106zM323 486h169l-86 336z" />
<glyph unicode="&#xc3;" horiz-adv-x="818" d="M35 0l293 1170h164l291 -1170h-169l-82 321h-250l-78 -321h-169zM181 1307q0 104 53 165q46 50 110 49q44 0 92 -56q25 -36 66 -35q39 0 44 90h90q0 -92 -42 -151q-46 -67 -126 -65q-50 0 -93 57q-22 36 -57 36q-42 0 -47 -90h-90zM323 486h169l-86 336z" />
<glyph unicode="&#xc4;" horiz-adv-x="818" d="M35 0l293 1170h164l291 -1170h-169l-82 321h-250l-78 -321h-169zM201 1417q0 39 24 63t58 24q39 0 63 -24t24 -63q0 -34 -24 -58t-63 -24q-34 0 -58 24t-24 58zM323 486h169l-86 336zM446 1417q0 39 24 63t58 24q39 0 63 -24t24 -63q0 -34 -24 -58t-63 -24q-34 0 -58 24 t-24 58z" />
<glyph unicode="&#xc7;" horiz-adv-x="863" d="M105 611q0 284 88.5 431.5t260.5 147.5q149 0 231 -118q59 -74 73 -214h-168q-25 169 -141 168q-102 0 -142.5 -91t-40.5 -319q0 -253 46 -362.5t154 -109.5q124 0 124 168h168q-2 -144 -84 -238q-82 -92 -204 -94l-7 -26q64 36 101 -32q39 -74 -24 -133q-28 -32 -70 -31 q-95 2 -184 40l28 66q59 -36 124 -35q46 2 58 22q11 16 -6 37q-20 26 -69 -10l-49 35l20 73q-130 26 -199 149q-88 152 -88 476z" />
<glyph unicode="&#xc8;" horiz-adv-x="794" d="M129 0v1170h551v-164h-383v-297h243v-160h-243v-385h427v-164h-595zM264 1487h174l68 -208h-106z" />
<glyph unicode="&#xc9;" horiz-adv-x="794" d="M129 0v1170h551v-164h-383v-297h243v-160h-243v-385h427v-164h-595zM346 1279l68 208h174l-137 -208h-105z" />
<glyph unicode="&#xca;" horiz-adv-x="794" d="M129 0v1170h551v-164h-383v-297h243v-160h-243v-385h427v-164h-595zM231 1279l109 208h174l108 -208h-106l-89 75l-90 -75h-106z" />
<glyph unicode="&#xcb;" horiz-adv-x="794" d="M129 0v1170h551v-164h-383v-297h243v-160h-243v-385h427v-164h-595zM218 1417q0 39 24 63t58 24q39 0 63 -24t24 -63q0 -34 -24 -58t-63 -24q-34 0 -58 24t-24 58zM463 1417q0 39 24 63t58 24q39 0 63 -24t24 -63q0 -34 -24 -58t-63 -24q-34 0 -58 24t-24 58z" />
<glyph unicode="&#xcc;" horiz-adv-x="421" d="M48 1487h174l68 -208h-106zM129 0v1170h164v-1170h-164z" />
<glyph unicode="&#xcd;" horiz-adv-x="421" d="M129 0v1170h164v-1170h-164zM131 1279l68 208h174l-137 -208h-105z" />
<glyph unicode="&#xce;" horiz-adv-x="421" d="M17 1279l109 208h174l108 -208h-106l-89 75l-90 -75h-106zM129 0v1170h164v-1170h-164z" />
<glyph unicode="&#xcf;" horiz-adv-x="421" d="M4 1417q0 39 24 63t58 24q39 0 63 -24t24 -63q0 -34 -24 -58t-63 -24q-34 0 -58 24t-24 58zM129 0v1170h164v-1170h-164zM249 1417q0 39 24 63t58 24q39 0 63 -24t24 -63q0 -34 -24 -58t-63 -24q-34 0 -58 24t-24 58z" />
<glyph unicode="&#xd1;" horiz-adv-x="915" d="M129 0v1170h168l321 -703v703h168v-1170h-126l-363 784v-784h-168zM228 1307q0 104 53 165q46 50 110 49q44 0 92 -56q25 -36 66 -35q39 0 44 90h90q0 -92 -42 -151q-46 -67 -126 -65q-50 0 -93 57q-22 36 -57 36q-42 0 -47 -90h-90z" />
<glyph unicode="&#xd2;" horiz-adv-x="896" d="M105 587q0 261 66 408q46 104 111.5 149.5t167.5 45.5t166 -45.5t108 -154.5q67 -150 67 -403q0 -261 -67 -407q-82 -200 -275 -200q-104 0 -169 47t-109 153q-67 150 -66 407zM266 583q0 -149 37 -296q40 -143 146 -143q104 0 146 143q36 120 36 300q0 163 -36 291 q-40 149 -145 148.5t-147 -144.5q-39 -122 -37 -299zM286 1487h174l68 -208h-106z" />
<glyph unicode="&#xd3;" horiz-adv-x="896" d="M105 587q0 261 66 408q46 104 111.5 149.5t167.5 45.5t166 -45.5t108 -154.5q67 -150 67 -403q0 -261 -67 -407q-82 -200 -275 -200q-104 0 -169 47t-109 153q-67 150 -66 407zM266 583q0 -149 37 -296q40 -143 146 -143q104 0 146 143q36 120 36 300q0 163 -36 291 q-40 149 -145 148.5t-147 -144.5q-39 -122 -37 -299zM369 1279l68 208h174l-137 -208h-105z" />
<glyph unicode="&#xd4;" horiz-adv-x="896" d="M105 587q0 261 66 408q46 104 111.5 149.5t167.5 45.5t166 -45.5t108 -154.5q67 -150 67 -403q0 -261 -67 -407q-82 -200 -275 -200q-104 0 -169 47t-109 153q-67 150 -66 407zM253 1279l109 208h174l108 -208h-106l-89 75l-90 -75h-106zM266 583q0 -149 37 -296 q40 -143 146 -143q104 0 146 143q36 120 36 300q0 163 -36 291q-40 149 -145 148.5t-147 -144.5q-39 -122 -37 -299z" />
<glyph unicode="&#xd5;" horiz-adv-x="896" d="M105 587q0 261 66 408q46 104 111.5 149.5t167.5 45.5t166 -45.5t108 -154.5q67 -150 67 -403q0 -261 -67 -407q-82 -200 -275 -200q-104 0 -169 47t-109 153q-67 150 -66 407zM219 1307q0 104 53 165q46 50 110 49q44 0 92 -56q25 -36 66 -35q39 0 44 90h90 q0 -92 -42 -151q-46 -67 -126 -65q-50 0 -93 57q-22 36 -57 36q-42 0 -47 -90h-90zM266 583q0 -149 37 -296q40 -143 146 -143q104 0 146 143q36 120 36 300q0 163 -36 291q-40 149 -145 148.5t-147 -144.5q-39 -122 -37 -299z" />
<glyph unicode="&#xd6;" horiz-adv-x="896" d="M105 587q0 261 66 408q46 104 111.5 149.5t167.5 45.5t166 -45.5t108 -154.5q67 -150 67 -403q0 -261 -67 -407q-82 -200 -275 -200q-104 0 -169 47t-109 153q-67 150 -66 407zM241 1417q0 39 24 63t58 24q39 0 63 -24t24 -63q0 -34 -24 -58t-63 -24q-34 0 -58 24t-24 58 zM266 583q0 -149 37 -296q40 -143 146 -143q104 0 146 143q36 120 36 300q0 163 -36 291q-40 149 -145 148.5t-147 -144.5q-39 -122 -37 -299zM486 1417q0 39 24 63t58 24q39 0 63 -24t24 -63q0 -34 -24 -58t-63 -24q-34 0 -58 24t-24 58z" />
<glyph unicode="&#xd9;" horiz-adv-x="915" d="M129 349v821h168v-841q0 -82 45 -133.5t119 -51.5q68 0 112.5 51.5t44.5 133.5v841h168v-821q0 -118 -44 -205q-44 -73 -121.5 -118.5t-159.5 -45.5q-87 0 -164.5 45t-122.5 119q-46 90 -45 205zM295 1487h174l68 -208h-106z" />
<glyph unicode="&#xda;" horiz-adv-x="915" d="M129 349v821h168v-841q0 -82 45 -133.5t119 -51.5q68 0 112.5 51.5t44.5 133.5v841h168v-821q0 -118 -44 -205q-44 -73 -121.5 -118.5t-159.5 -45.5q-87 0 -164.5 45t-122.5 119q-46 90 -45 205zM378 1279l68 208h174l-137 -208h-105z" />
<glyph unicode="&#xdb;" horiz-adv-x="915" d="M129 349v821h168v-841q0 -82 45 -133.5t119 -51.5q68 0 112.5 51.5t44.5 133.5v841h168v-821q0 -118 -44 -205q-44 -73 -121.5 -118.5t-159.5 -45.5q-87 0 -164.5 45t-122.5 119q-46 90 -45 205zM262 1279l109 208h174l108 -208h-106l-89 75l-90 -75h-106z" />
<glyph unicode="&#xdc;" horiz-adv-x="915" d="M129 349v821h168v-841q0 -82 45 -133.5t119 -51.5q68 0 112.5 51.5t44.5 133.5v841h168v-821q0 -118 -44 -205q-44 -73 -121.5 -118.5t-159.5 -45.5q-87 0 -164.5 45t-122.5 119q-46 90 -45 205zM251 1417q0 39 24 63t58 24q39 0 63 -24t24 -63q0 -34 -24 -58t-63 -24 q-34 0 -58 24t-24 58zM496 1417q0 39 24 63t58 24q39 0 63 -24t24 -63q0 -34 -24 -58t-63 -24q-34 0 -58 24t-24 58z" />
<glyph unicode="&#xdd;" horiz-adv-x="818" d="M35 1170h177l198 -422l193 422h180l-291 -641v-529h-169v529zM328 1279l68 208h174l-137 -208h-105z" />
<glyph unicode="&#xe0;" horiz-adv-x="702" d="M47 287q0 178 125.5 252t275.5 2q-2 44 -2.5 59.5t-7.5 46.5t-20.5 42t-39.5 22t-64 11q-53 0 -103 -33.5t-74 -72.5l-41 160q104 98 238 98q275 0 275 -303v-571h-153v25q-42 -36 -142 -37q-110 0 -188.5 85t-78.5 214zM165 1170h174l68 -208h-106zM209 283 q0 -150 141 -151q98 0 98 76v169q-44 40 -99 45t-97.5 -31t-42.5 -108z" />
<glyph unicode="&#xe1;" horiz-adv-x="702" d="M47 287q0 178 125.5 252t275.5 2q-2 44 -2.5 59.5t-7.5 46.5t-20.5 42t-39.5 22t-64 11q-53 0 -103 -33.5t-74 -72.5l-41 160q104 98 238 98q275 0 275 -303v-571h-153v25q-42 -36 -142 -37q-110 0 -188.5 85t-78.5 214zM209 283q0 -150 141 -151q98 0 98 76v169 q-44 40 -99 45t-97.5 -31t-42.5 -108zM248 962l68 208h174l-137 -208h-105z" />
<glyph unicode="&#xe2;" horiz-adv-x="702" d="M47 287q0 178 125.5 252t275.5 2q-2 44 -2.5 59.5t-7.5 46.5t-20.5 42t-39.5 22t-64 11q-53 0 -103 -33.5t-74 -72.5l-41 160q104 98 238 98q275 0 275 -303v-571h-153v25q-42 -36 -142 -37q-110 0 -188.5 85t-78.5 214zM134 962l109 208h174l108 -208h-106l-89 75 l-90 -75h-106zM209 283q0 -150 141 -151q98 0 98 76v169q-44 40 -99 45t-97.5 -31t-42.5 -108z" />
<glyph unicode="&#xe3;" horiz-adv-x="702" d="M47 287q0 178 125.5 252t275.5 2q-2 44 -2.5 59.5t-7.5 46.5t-20.5 42t-39.5 22t-64 11q-53 0 -103 -33.5t-74 -72.5l-41 160q104 98 238 98q275 0 275 -303v-571h-153v25q-42 -36 -142 -37q-110 0 -188.5 85t-78.5 214zM99 990q0 104 53 165q46 50 110 49q44 0 92 -56 q25 -36 66 -35q39 0 44 90h90q0 -92 -42 -151q-46 -67 -126 -65q-50 0 -93 57q-22 36 -57 36q-42 0 -47 -90h-90zM209 283q0 -150 141 -151q98 0 98 76v169q-44 40 -99 45t-97.5 -31t-42.5 -108z" />
<glyph unicode="&#xe4;" horiz-adv-x="702" d="M47 287q0 178 125.5 252t275.5 2q-2 44 -2.5 59.5t-7.5 46.5t-20.5 42t-39.5 22t-64 11q-53 0 -103 -33.5t-74 -72.5l-41 160q104 98 238 98q275 0 275 -303v-571h-153v25q-42 -36 -142 -37q-110 0 -188.5 85t-78.5 214zM121 1100q0 39 24 63t58 24q39 0 63 -24t24 -63 q0 -34 -24 -58t-63 -24q-34 0 -58 24t-24 58zM209 283q0 -150 141 -151q98 0 98 76v169q-44 40 -99 45t-97.5 -31t-42.5 -108zM366 1100q0 39 24 63t58 24q39 0 63 -24t24 -63q0 -34 -24 -58t-63 -24q-34 0 -58 24t-24 58z" />
<glyph unicode="&#xe7;" horiz-adv-x="684" d="M70 431q0 81 12.5 151t42 140t90.5 111t150 41q214 0 270 -213l-154 -65q-28 126 -116 126q-42 0 -71.5 -32t-41 -82.5t-16.5 -92.5t-5 -84t5 -84.5t16.5 -92t41 -82t71.5 -32.5q104 0 128 177l157 -50q-48 -261 -251 -281l-8 -32q64 36 101 -32q40 -74 -23 -133 q-28 -32 -70 -31q-95 2 -186 40l28 66q59 -36 124 -35q46 2 57 22q12 16 -3 37q-20 26 -68 -10l-50 35l20 73q-250 32 -251 445z" />
<glyph unicode="&#xe8;" horiz-adv-x="708" d="M70 431q0 81 12.5 151t42 140t90.5 111t150 41q101 0 166 -48t90.5 -134.5t33.5 -160t6 -171.5h-427q18 -220 131 -220q48 0 86 38.5t50 96.5l126 -95q-73 -197 -262 -196q-295 0 -295 447zM205 1170h174l68 -208h-106zM231 509h266q0 213 -132 213q-135 0 -134 -213z " />
<glyph unicode="&#xe9;" horiz-adv-x="708" d="M70 431q0 81 12.5 151t42 140t90.5 111t150 41q101 0 166 -48t90.5 -134.5t33.5 -160t6 -171.5h-427q18 -220 131 -220q48 0 86 38.5t50 96.5l126 -95q-73 -197 -262 -196q-295 0 -295 447zM231 509h266q0 213 -132 213q-135 0 -134 -213zM286 962l68 208h174l-137 -208 h-105z" />
<glyph unicode="&#xea;" horiz-adv-x="708" d="M70 431q0 81 12.5 151t42 140t90.5 111t150 41q101 0 166 -48t90.5 -134.5t33.5 -160t6 -171.5h-427q18 -220 131 -220q48 0 86 38.5t50 96.5l126 -95q-73 -197 -262 -196q-295 0 -295 447zM170 962l109 208h174l108 -208h-106l-89 75l-90 -75h-106zM231 509h266 q0 213 -132 213q-135 0 -134 -213z" />
<glyph unicode="&#xeb;" horiz-adv-x="708" d="M70 431q0 81 12.5 151t42 140t90.5 111t150 41q101 0 166 -48t90.5 -134.5t33.5 -160t6 -171.5h-427q18 -220 131 -220q48 0 86 38.5t50 96.5l126 -95q-73 -197 -262 -196q-295 0 -295 447zM160 1100q0 39 24 63t58 24q39 0 63 -24t24 -63q0 -34 -24 -58t-63 -24 q-34 0 -58 24t-24 58zM231 509h266q0 213 -132 213q-135 0 -134 -213zM405 1100q0 39 24 63t58 24q39 0 63 -24t24 -63q0 -34 -24 -58t-63 -24q-34 0 -58 24t-24 58z" />
<glyph unicode="&#xec;" horiz-adv-x="374" d="M25 1170h174l68 -208h-106zM105 0v854h164v-854h-164z" />
<glyph unicode="&#xed;" horiz-adv-x="374" d="M105 0v854h164v-854h-164zM108 962l68 208h174l-137 -208h-105z" />
<glyph unicode="&#xee;" horiz-adv-x="374" d="M-8 962l109 208h174l108 -208h-106l-89 75l-90 -75h-106zM105 0v854h164v-854h-164z" />
<glyph unicode="&#xef;" horiz-adv-x="374" d="M-19 1100q0 39 24 63t58 24q39 0 63 -24t24 -63q0 -34 -24 -58t-63 -24q-34 0 -58 24t-24 58zM105 0v854h164v-854h-164zM226 1100q0 39 24 63t58 24q39 0 63 -24t24 -63q0 -34 -24 -58t-63 -24q-34 0 -58 24t-24 58z" />
<glyph unicode="&#xf1;" d="M105 0v854h161v-36q28 36 98 49t144 -3t131 -88.5t57 -188.5v-587h-164v583q0 76 -37 105t-105 29q-121 -8 -121 -134v-583h-164zM173 990q0 104 53 165q46 50 110 49q44 0 92 -56q25 -36 66 -35q39 0 44 90h90q0 -92 -42 -151q-46 -67 -126 -65q-50 0 -93 57 q-22 36 -57 36q-42 0 -47 -90h-90z" />
<glyph unicode="&#xf2;" horiz-adv-x="731" d="M70 431q0 81 12.5 151t42 140t90.5 111t150 41q296 1 296 -443q0 -447 -296 -447q-295 0 -295 447zM205 1170h174l68 -208h-106zM231 427q0 -42 5 -84t16.5 -92.5t41 -82.5t71.5 -32t71 32t42.5 84t18 95.5t4.5 83.5q0 39 -4.5 81t-18 91.5t-42.5 81.5t-71 32t-71.5 -32 t-41 -81.5t-16.5 -92t-5 -84.5z" />
<glyph unicode="&#xf3;" horiz-adv-x="731" d="M70 431q0 81 12.5 151t42 140t90.5 111t150 41q296 1 296 -443q0 -447 -296 -447q-295 0 -295 447zM231 427q0 -42 5 -84t16.5 -92.5t41 -82.5t71.5 -32t71 32t42.5 84t18 95.5t4.5 83.5q0 39 -4.5 81t-18 91.5t-42.5 81.5t-71 32t-71.5 -32t-41 -81.5t-16.5 -92 t-5 -84.5zM286 962l68 208h174l-137 -208h-105z" />
<glyph unicode="&#xf4;" horiz-adv-x="731" d="M70 431q0 81 12.5 151t42 140t90.5 111t150 41q296 1 296 -443q0 -447 -296 -447q-295 0 -295 447zM170 962l109 208h174l108 -208h-106l-89 75l-90 -75h-106zM231 427q0 -42 5 -84t16.5 -92.5t41 -82.5t71.5 -32t71 32t42.5 84t18 95.5t4.5 83.5q0 39 -4.5 81t-18 91.5 t-42.5 81.5t-71 32t-71.5 -32t-41 -81.5t-16.5 -92t-5 -84.5z" />
<glyph unicode="&#xf5;" horiz-adv-x="731" d="M70 431q0 81 12.5 151t42 140t90.5 111t150 41q296 1 296 -443q0 -447 -296 -447q-295 0 -295 447zM138 990q0 104 53 165q46 50 110 49q44 0 92 -56q25 -36 66 -35q39 0 44 90h90q0 -92 -42 -151q-46 -67 -126 -65q-50 0 -93 57q-22 36 -57 36q-42 0 -47 -90h-90z M231 427q0 -42 5 -84t16.5 -92.5t41 -82.5t71.5 -32t71 32t42.5 84t18 95.5t4.5 83.5q0 39 -4.5 81t-18 91.5t-42.5 81.5t-71 32t-71.5 -32t-41 -81.5t-16.5 -92t-5 -84.5z" />
<glyph unicode="&#xf6;" horiz-adv-x="731" d="M70 431q0 81 12.5 151t42 140t90.5 111t150 41q296 1 296 -443q0 -447 -296 -447q-295 0 -295 447zM159 1100q0 39 24 63t58 24q39 0 63 -24t24 -63q0 -34 -24 -58t-63 -24q-34 0 -58 24t-24 58zM231 427q0 -42 5 -84t16.5 -92.5t41 -82.5t71.5 -32t71 32t42.5 84 t18 95.5t4.5 83.5q0 39 -4.5 81t-18 91.5t-42.5 81.5t-71 32t-71.5 -32t-41 -81.5t-16.5 -92t-5 -84.5zM404 1100q0 39 24 63t58 24q39 0 63 -24t24 -63q0 -34 -24 -58t-63 -24q-34 0 -58 24t-24 58z" />
<glyph unicode="&#xf9;" d="M94 267v587h163v-587q0 -74 38.5 -102.5t105.5 -28.5q118 0 119 131v587h165v-854h-161v50q-78 -70 -173 -70q-101 0 -179 75t-78 212zM227 1170h174l68 -208h-106z" />
<glyph unicode="&#xfa;" d="M94 267v587h163v-587q0 -74 38.5 -102.5t105.5 -28.5q118 0 119 131v587h165v-854h-161v50q-78 -70 -173 -70q-101 0 -179 75t-78 212zM308 962l68 208h174l-137 -208h-105z" />
<glyph unicode="&#xfb;" d="M94 267v587h163v-587q0 -74 38.5 -102.5t105.5 -28.5q118 0 119 131v587h165v-854h-161v50q-78 -70 -173 -70q-101 0 -179 75t-78 212zM193 962l109 208h174l108 -208h-106l-89 75l-90 -75h-106z" />
<glyph unicode="&#xfc;" d="M94 267v587h163v-587q0 -74 38.5 -102.5t105.5 -28.5q118 0 119 131v587h165v-854h-161v50q-78 -70 -173 -70q-101 0 -179 75t-78 212zM181 1100q0 39 24 63t58 24q39 0 63 -24t24 -63q0 -34 -24 -58t-63 -24q-34 0 -58 24t-24 58zM426 1100q0 39 24 63t58 24 q39 0 63 -24t24 -63q0 -34 -24 -58t-63 -24q-34 0 -58 24t-24 58z" />
<glyph unicode="&#xfd;" horiz-adv-x="773" d="M23 854h168l195 -599l189 599h175l-386 -1183h-177l107 329zM306 962l68 208h174l-137 -208h-105z" />
<glyph unicode="&#xff;" horiz-adv-x="773" d="M23 854h168l195 -599l189 599h175l-386 -1183h-177l107 329zM179 1100q0 39 24 63t58 24q39 0 63 -24t24 -63q0 -34 -24 -58t-63 -24q-34 0 -58 24t-24 58zM424 1100q0 39 24 63t58 24q39 0 63 -24t24 -63q0 -34 -24 -58t-63 -24q-34 0 -58 24t-24 58z" />
<glyph unicode="&#x2c6;" horiz-adv-x="510" d="M60 962l109 208h174l108 -208h-106l-89 75l-90 -75h-106z" />
<glyph unicode="&#x2dc;" horiz-adv-x="0" d="M124 990q0 104 53 165q46 50 110 49q44 0 92 -56q25 -36 66 -35q39 0 44 90h90q0 -92 -42 -151q-46 -67 -126 -65q-50 0 -93 57q-22 36 -57 36q-42 0 -47 -90h-90z" />
<glyph unicode="&#x2000;" horiz-adv-x="760" />
<glyph unicode="&#x2001;" horiz-adv-x="1521" />
<glyph unicode="&#x2002;" horiz-adv-x="760" />
<glyph unicode="&#x2003;" horiz-adv-x="1521" />
<glyph unicode="&#x2004;" horiz-adv-x="507" />
<glyph unicode="&#x2005;" horiz-adv-x="380" />
<glyph unicode="&#x2006;" horiz-adv-x="253" />
<glyph unicode="&#x2007;" horiz-adv-x="253" />
<glyph unicode="&#x2008;" horiz-adv-x="190" />
<glyph unicode="&#x2009;" horiz-adv-x="304" />
<glyph unicode="&#x200a;" horiz-adv-x="84" />
<glyph unicode="&#x2010;" horiz-adv-x="480" d="M35 481v154h411v-154h-411z" />
<glyph unicode="&#x2011;" horiz-adv-x="480" d="M35 481v154h411v-154h-411z" />
<glyph unicode="&#x2012;" horiz-adv-x="480" d="M35 481v154h411v-154h-411z" />
<glyph unicode="&#x2013;" horiz-adv-x="1093" d="M35 481v154h1024v-154h-1024z" />
<glyph unicode="&#x2014;" horiz-adv-x="2117" d="M35 481v154h2048v-154h-2048z" />
<glyph unicode="&#x202f;" horiz-adv-x="304" />
<glyph unicode="&#x205f;" horiz-adv-x="380" />
<glyph unicode="&#x25fc;" horiz-adv-x="854" d="M0 0v854h854v-854h-854z" />
</font>
</defs>
</svg>
