<?xml version="1.0" standalone="no"?>
<!DOCTYPE svg PUBLIC "-//W3C//DTD SVG 1.1//EN" "http://www.w3.org/Graphics/SVG/1.1/DTD/svg11.dtd" >
<svg xmlns="http://www.w3.org/2000/svg">
<metadata></metadata>
<defs>
<font id="roadgeek_2014_series_dregular" horiz-adv-x="1031" >
<font-face units-per-em="2048" ascent="1463" descent="-585" />
<missing-glyph horiz-adv-x="701" />
<glyph unicode="&#xd;" horiz-adv-x="1018" />
<glyph horiz-adv-x="0" />
<glyph horiz-adv-x="0" />
<glyph unicode=" "  horiz-adv-x="701" />
<glyph unicode="&#x09;" horiz-adv-x="701" />
<glyph unicode="&#xa0;" horiz-adv-x="701" />
<glyph unicode="!" horiz-adv-x="465" d="M140 74q0 39 27.5 64.5t67.5 25.5q39 0 64.5 -25.5t25.5 -64.5q0 -40 -26 -67t-64 -27q-40 0 -67.5 27t-27.5 67zM140 834v336h181v-332l-62 -514h-71z" />
<glyph unicode="&#x22;" horiz-adv-x="655" d="M47 1170h225l-37 -468h-152zM379 1170h230l-37 -468h-157z" />
<glyph unicode="#" horiz-adv-x="1128" d="M70 349l20 148h189l33 200h-190l22 149h188l55 324h162l-52 -324h209l50 324h169l-51 -324h184l-20 -149h-188l-28 -200h184l-19 -148h-188l-56 -349h-172l56 349h-205l-53 -349h-164l54 349h-189zM447 497h206l28 200h-204z" />
<glyph unicode="$" horiz-adv-x="912" d="M59 275l175 66q78 -172 252 -172q78 0 129 49t51 123q0 44 -18 78t-57.5 58t-72 38t-94 35t-92.5 33q-227 90 -226 291q0 269 267 309v1v3v2v1v3v2v2v1v3v2v1v3v2v2v1v3v2v1v3v4v1v3v2v4v2v2v4v2v1v5v2v4v2v4v2v4v2v3v3v4v2v4v4v2v4v4v2v4v4v2v4v4v4v18h186v-160 q171 -40 245 -230l-165 -48q-4 11 -15 27t-55 44t-102 30q-76 4 -131 -30t-49 -106q4 -59 64 -93.5t142.5 -58t164.5 -57.5t139 -114.5t57 -209.5q0 -164 -114 -267q-68 -62 -181 -90v-149h-186q-4 160 0 165q-214 48 -314 279z" />
<glyph unicode="&#x26;" horiz-adv-x="1160" d="M117 317q0 136 112 242q2 4 13 15t15 16.5t14 15.5t17 15.5t19 15t26.5 17t29.5 15.5q-62 82 -84 136.5t-22 119.5q0 115 81 188.5t213 73.5q124 0 202.5 -75t78.5 -192q0 -90 -45 -159t-149 -137l168 -209q30 92 34 153h177q-11 -98 -29.5 -162.5t-60.5 -130.5l234 -275 h-251l-100 122q-76 -81 -150.5 -114t-171.5 -33q-164 0 -267.5 95.5t-103.5 246.5zM315 321q0 -70 53 -121t127 -51q113 -2 205 113l-217 267q-90 -50 -129 -98t-39 -110zM438 928q0 -42 28 -87q2 -6 8 -13.5t14.5 -18.5t14.5 -21q2 -4 12 -20l16 -17q68 44 96 81.5t28 83.5 q0 53 -29.5 83.5t-77.5 30.5q-46 0 -78 -28.5t-32 -73.5z" />
<glyph unicode="'" horiz-adv-x="306" d="M47 1060q0 46 31 78t75 32q48 0 77.5 -35t29.5 -95q0 -122 -99 -202l-62 39q44 39 66 90h-12q-50 0 -78 24.5t-28 68.5z" />
<glyph unicode="(" horiz-adv-x="554" d="M117 587q0 365 206 583h185q-200 -275 -201 -583q1 -323 201 -587q-185 0 -189 4q-96 101 -149 263t-53 320z" />
<glyph unicode=")" horiz-adv-x="553" d="M47 0q200 264 201 587q0 307 -197 583h184q202 -218 202 -583q0 -160 -51.5 -322.5t-150.5 -260.5q0 -4 -188 -4z" />
<glyph unicode="*" horiz-adv-x="814" d="M94 874l49 169q20 -6 56 -12.5t55 -12.5l69 -23q-12 40 -12 56v119h189l4 -116l-16 -64q46 20 70 28q20 6 62 13t53 12l48 -173l-123 -32l-46 -8q22 -18 30 -26q16 -18 47 -60t36 -47l-145 -110q-82 90 -91 107l-23 46l-20 -46l-86 -103l-149 103q50 74 75 98q6 8 16 19 t18 16l6 7q-36 4 -48 7q-26 2 -124 33z" />
<glyph unicode="+" horiz-adv-x="855" d="M35 481v188h301v291h184v-291h300v-188h-300v-293h-184v293h-301z" />
<glyph unicode="," horiz-adv-x="306" d="M47 87q0 46 31 78t75 32q48 0 77.5 -35t29.5 -95q0 -122 -99 -203l-62 38q44 39 66 90h-12q-50 0 -78 25t-28 70z" />
<glyph unicode="-" horiz-adv-x="480" d="M35 486v183h411v-183h-411z" />
<glyph unicode="." horiz-adv-x="303" d="M47 94q0 44 31 73.5t75.5 29.5t73.5 -29.5t29 -73.5t-29 -75t-73.5 -31t-75.5 31t-31 75z" />
<glyph unicode="/" horiz-adv-x="864" d="M0 0l678 1175h188l-678 -1175h-188z" />
<glyph unicode="0" horiz-adv-x="1063" d="M117 583q0 295 128 475q102 132 298 132q217 0 325 -209q79 -162 79 -398q0 -143 -33.5 -270.5t-93.5 -202.5q-96 -130 -284 -130q-122 0 -204 50.5t-133 157.5q-82 160 -82 395zM307 583q0 -214 69 -324q53 -90 160 -90q122 0 180 148q46 117 46 266q0 211 -70 329 q-48 84 -152 90q-130 6 -189 -144q-44 -110 -44 -275z" />
<glyph unicode="1" horiz-adv-x="553" d="M117 948v149h12q84 0 135 73h149v-1170h-188v948h-108z" />
<glyph unicode="2" d="M117 0q6 202 98 357q68 122 206 226q30 18 54 36l61 34l57 33l59 31q76 46 76 129q0 64 -63 110t-150 46q-183 0 -212 -164l-186 40q30 144 138 228q105 84 260 84q166 0 282.5 -101.5t116.5 -247.5q0 -143 -119 -250q-32 -25 -50 -32l-57 -38l-62 -32l-56 -34 q-84 -50 -136 -109t-95 -158h575v-188h-797z" />
<glyph unicode="3" horiz-adv-x="1118" d="M211 290l180 55q44 -177 218 -176q92 0 150.5 57.5t58.5 146.5q0 102 -67 148q-20 14 -36 17t-82 7h-20v191v-5h4h4h36q116 0 117 115q0 68 -48 112t-121 44q-116 0 -177 -116l-172 67q46 112 138.5 174.5t207.5 62.5q149 0 252 -104t103 -252q0 -96 -65 -195 q64 -59 87 -112t23 -140q0 -180 -111.5 -293.5t-288.5 -113.5q-140 0 -247 84.5t-144 225.5z" />
<glyph unicode="4" horiz-adv-x="1039" d="M23 290v113l580 767h183v-711h113v-169h-113v-290h-183v290h-580zM269 459h334v441z" />
<glyph unicode="5" d="M117 46l90 162q84 -40 222 -39q126 0 212.5 74t86.5 188q0 87 -61 145.5t-147 58.5q-62 0 -99.5 -24t-89.5 -98l-185 55l28 602h674v-183h-493l-12 -195q122 34 180 34q158 0 274.5 -117.5t116.5 -277.5q0 -194 -144 -322.5t-365 -128.5q-152 0 -288 66z" />
<glyph unicode="6" d="M117 352q0 242 124 472t329 366l94 -155q-106 -82 -170.5 -162t-117.5 -192q67 12 139 13q164 0 281.5 -105.5t117.5 -251.5q0 -150 -114 -253.5t-285 -103.5q-169 0 -283.5 108.5t-114.5 263.5zM307 341q0 -70 61 -121t147.5 -51t149.5 51t63 121q0 68 -62 118t-151 50 q-87 0 -147.5 -50.5t-60.5 -117.5z" />
<glyph unicode="7" horiz-adv-x="956" d="M82 987v183h792v-183q-14 -18 -35 -44.5t-36 -47.5t-32 -49q-164 -276 -217 -559q-25 -146 -25 -287h-188q6 393 168 743q46 104 130 244h-557z" />
<glyph unicode="8" d="M117 373q0 163 136 273q-87 92 -87 212q0 135 103.5 233.5t246 98.5t247.5 -99t105 -233q0 -116 -90 -212q136 -107 136 -273q0 -158 -119 -275.5t-279.5 -117.5t-279.5 117t-119 276zM307 369q0 -82 60 -142q61 -59 148 -58q88 0 150.5 59t62.5 141q0 73 -63 124.5 t-149.5 51.5t-147.5 -50.5t-61 -125.5zM351 863q0 -53 48 -90t116.5 -37t116.5 37t48 90q0 59 -48 99t-116.5 40t-116.5 -41t-48 -98z" />
<glyph unicode="9" d="M117 834q0 150 116 253t282 103q171 0 285 -107t114 -265q0 -241 -124 -470.5t-329 -367.5l-90 156q104 82 168.5 162.5t115.5 194.5q-89 -16 -140 -16q-164 0 -281 105.5t-117 251.5zM307 834.5q0 -70.5 60 -119.5q61 -49 148 -49q88 0 150.5 49t62.5 119q0 68 -63 118 t-149.5 50t-147.5 -48.5t-61 -119z" />
<glyph unicode=":" horiz-adv-x="301" d="M47 87q0 40 31 70.5t75 30.5q40 0 71 -30.5t31 -70.5q0 -44 -29 -75.5t-73 -31.5t-75 31t-31 76zM47 575q0 44 31 73.5t75 29.5q42 0 72 -30t30 -72q0 -44 -30 -76.5t-72 -32.5q-44 0 -75 32t-31 76z" />
<glyph unicode="=" horiz-adv-x="1066" d="M140 321v188h786v-188h-786zM140 639v187h786v-187h-786z" />
<glyph unicode="?" horiz-adv-x="916" d="M82 799q6 154 70 247q116 149 325 149q158 0 257.5 -91t99.5 -234q0 -96 -37 -159.5t-151 -156.5q-48 -40 -64.5 -63.5t-27.5 -63.5q-8 -30 -13 -110h-172q0 74 4 94q6 95 58 160q34 42 118 115q101 88 101 177q0 81 -50.5 126.5t-132.5 45.5q-185 0 -197 -236h-188z M345 87q0 46 31.5 78t78.5 32q44 0 76 -32.5t32 -77.5q0 -44 -31.5 -75.5t-76.5 -31.5q-46 0 -78 31.5t-32 75.5z" />
<glyph unicode="@" horiz-adv-x="1407" d="M117 587q0 267 170.5 435t436.5 168q247 0 407 -146.5t160 -374.5q0 -166 -89 -294t-213 -128q-92 0 -132 82q-84 -90 -202 -90q-115 0 -188.5 84t-73.5 211q0 149 94.5 257.5t228.5 108.5q104 0 164 -74l8 52h161l-71 -372q-12 -60 -11 -71q0 -44 30 -44q53 0 99.5 82 t46.5 193q0 171 -112 274t-297 103q-205 0 -331 -127.5t-126 -332.5q0 -192 124 -328q132 -132 341 -133q174 0 357 78l40 -146q-183 -78 -394 -79q-275 0 -448 169q-180 174 -180 443zM570 534q0 -60 31 -97.5t79 -37.5q62 0 107 59t45 149q0 59 -29 91.5t-79 32.5 q-62 0 -108 -57.5t-46 -139.5z" />
<glyph unicode="A" horiz-adv-x="1060" d="M35 0l403 1170h185l402 -1170h-196l-116 329h-365l-115 -329h-198zM414 517h234l-116 329z" />
<glyph unicode="B" horiz-adv-x="994" d="M140 0v1170h443q138 0 231.5 -84.5t93.5 -211.5q0 -171 -165 -263q193 -91 193 -282q0 -96 -53 -181.5t-135 -119.5q-70 -28 -165 -28h-443zM324 188h280q144 0 144 136q0 59 -31 109t-82 68q-25 8 -76 8h-235v-321zM324 697h221q67 0 113 34q64 53 64 135 q0 121 -126 121h-272v-290z" />
<glyph unicode="C" d="M117 587q0 140 35 267.5t97 203.5q108 132 299 132q132 0 220.5 -56.5t145.5 -180.5l-172 -75q-50 74 -89.5 99t-104.5 25q-140 0 -197 -144q-44 -110 -44 -271q0 -213 72 -328q59 -90 177 -90q116 0 182 135l176 -65q-106 -259 -352 -259q-253 0 -360 208 q-85 159 -85 388v11z" />
<glyph unicode="D" horiz-adv-x="1053" d="M140 0v1170h377q88 0 134 -11.5t92 -50.5q193 -166 193 -521q0 -363 -205 -520q-68 -60 -168 -67h-66h-357zM324 188h185q84 0 130 46q109 108 109 353q0 248 -95 349q-50 50 -119 51h-210v-799z" />
<glyph unicode="E" horiz-adv-x="924" d="M140 0v1170h690v-183h-506v-290h342v-188h-342v-321h542v-188h-726z" />
<glyph unicode="F" horiz-adv-x="901" d="M140 0v1170h726v-183h-542v-290h342v-188h-342v-509h-184z" />
<glyph unicode="G" d="M117 583q0 140 35.5 269t96.5 206q108 132 299 132q136 0 222.5 -59.5t143.5 -198.5l-176 -69q-39 76 -80.5 107.5t-109.5 31.5q-140 0 -197 -144q-44 -110 -44 -275q0 -205 56 -321q52 -93 156 -93h4q88 0 146.5 50t58.5 130v50h-213v184h399v-234q0 -158 -104.5 -263.5 t-266.5 -105.5q-132 0 -214 50.5t-135 161.5q-77 158 -77 385v6z" />
<glyph unicode="H" horiz-adv-x="1076" d="M140 0v1170h184v-473h427v473h185v-1170h-185v509h-427v-509h-184z" />
<glyph unicode="I" horiz-adv-x="469" d="M140 0v1170h189v-1170h-189z" />
<glyph unicode="J" horiz-adv-x="923" d="M35 192l169 78q80 -101 192 -101h2q95 0 146 57.5t51 164.5v779h188v-818q0 -166 -106.5 -269t-278.5 -103q-169 0 -293 118q-40 40 -70 94z" />
<glyph unicode="K" horiz-adv-x="1014" d="M140 0v1170h184v-464l370 464h238l-361 -456l385 -714h-213l-296 554l-123 -151v-403h-184z" />
<glyph unicode="L" horiz-adv-x="901" d="M140 0v1170h184v-998h542v-172h-726z" />
<glyph unicode="M" horiz-adv-x="1191" d="M140 0v1170h184l272 -657l270 657h185v-1170h-185v678l-270 -678l-272 678v-678h-184z" />
<glyph unicode="N" horiz-adv-x="1076" d="M140 0v1170h184l427 -748v748h185v-1170h-165l-447 792v-792h-184z" />
<glyph unicode="O" horiz-adv-x="1063" d="M117 583q0 295 128 475q102 132 298 132q217 0 325 -209q79 -162 79 -398q0 -143 -33.5 -270.5t-93.5 -202.5q-96 -130 -284 -130q-122 0 -204 50.5t-133 157.5q-82 160 -82 395zM307 583q0 -214 69 -324q53 -90 160 -90q122 0 180 148q46 117 46 266q0 211 -70 329 q-48 84 -152 90h-10q-122 0 -179 -144q-44 -110 -44 -275z" />
<glyph unicode="P" horiz-adv-x="971" d="M140 0v1170h401q136 0 214.5 -38t129.5 -120.5t51 -170.5q0 -92 -52 -175t-128 -117q-90 -40 -215 -40h-217v-509h-184zM324 697h244q70 0 110 20q30 14 50 49.5t20 74.5q0 81 -70 123q-44 22 -110 23h-244v-290z" />
<glyph unicode="Q" horiz-adv-x="1063" d="M117 587q0 138 35.5 266t92.5 205q102 132 291 132q228 0 332 -209q79 -161 79 -394q0 -158 -41 -294t-111 -211l42 -66l-141 -90l-44 70q-81 -16 -121 -16q-121 0 -198.5 50.5t-133.5 157.5q-82 169 -82 399zM307 587q0 -269 106 -374q44 -44 123 -44l-95 143l137 91 l105 -156q79 115 79 340q0 194 -70 325q-53 90 -156 90q-135 0 -185 -144q-44 -110 -44 -271z" />
<glyph unicode="R" horiz-adv-x="994" d="M140 0v1170h385q132 0 211 -37q76 -39 126 -121t50 -171q0 -92 -50 -175t-131 -121l205 -545h-200l-191 509h-221v-509h-184zM324 697h221q73 0 108 20q73 37 73 124q0 84 -73 123q-39 22 -108 23h-221v-290z" />
<glyph unicode="S" horiz-adv-x="912" d="M59 275l175 66q78 -172 252 -172q78 0 129 49t51 123q0 44 -18 78t-57.5 58t-72 38t-94 35t-92.5 33q-226 90 -226 289q0 166 99 242t268 76q234 0 331 -237l-165 -48q-4 11 -15 27t-55 44t-102 30h-16q-66 0 -115 -30q-50 -31 -50 -92q0 -7 1 -14q4 -59 64 -93.5 t142.5 -58t164.5 -57.5t139 -114.5t57 -209.5q0 -164 -114 -267q-102 -90 -254 -90q-146 0 -257 79t-170 216z" />
<glyph unicode="T" horiz-adv-x="793" d="M35 1006v164h723v-164h-270v-1006h-185v1006h-268z" />
<glyph unicode="U" horiz-adv-x="1076" d="M140 419v751h184v-751q0 -115 58.5 -182.5t154.5 -67.5t155 67.5t59 182.5v751h185v-751q0 -124 -54 -242q-46 -87 -142 -142t-202.5 -55t-202.5 55t-143 142q-53 115 -52 242z" />
<glyph unicode="V" horiz-adv-x="958" d="M35 1170h194l251 -779l244 779h199l-375 -1170h-142z" />
<glyph unicode="W" horiz-adv-x="1110" d="M35 1170h191l90 -616l146 616h183l150 -616l90 616h190l-172 -1170h-165l-186 751l-180 -751h-165z" />
<glyph unicode="X" horiz-adv-x="912" d="M59 0l290 604l-271 566h209l168 -348l169 348h210l-275 -566l295 -604h-208l-191 391l-188 -391h-208z" />
<glyph unicode="Y" horiz-adv-x="1069" d="M35 1170h220l281 -453l282 453h217l-405 -661v-509h-186v509z" />
<glyph unicode="Z" horiz-adv-x="912" d="M59 0v157l532 830h-489v183h752v-112l-542 -870h542v-188h-795z" />
<glyph unicode="`" horiz-adv-x="424" d="M0 1170h194l89 -208h-126z" />
<glyph unicode="a" horiz-adv-x="830" d="M59 304q0 87 47.5 152t119 93t154.5 33q11 1 22 1q71 0 132 -29v14.5t-6.5 32.5t-18.5 43.5t-38.5 36t-63.5 21.5q-17 2 -34 2q-59 0 -111 -30q-68 -39 -93 -78l-54 180q106 88 249 100q19 2 38 1q120 0 214 -69q110 -80 110 -237v-571h-181v25q-42 -36 -168 -37 q-136 0 -227 84.5t-91 231.5zM242 301q0 -73 35 -111t87.5 -38t96.5 10t76 26v199q-34 16 -79 25.5t-96.5 9.5t-85.5 -31t-34 -90z" />
<glyph unicode="b" horiz-adv-x="894" d="M117 0v1100l190 90v-364q16 16 63.5 31t90.5 17q17 1 34 1q61 0 110 -17q63 -22 103 -64.5t66 -103t37 -123.5t13 -136q0 -199 -86 -325t-269 -126q-82 0 -162 45v-25h-190zM311 208q57 -57 139 -57q8 0 16 1q59 2 98.5 49t53.5 104.5t16 125.5v18q0 97 -40 171 q-44 80 -141 82q-90 0 -142 -63v-431z" />
<glyph unicode="c" horiz-adv-x="799" d="M70 431q0 81 15.5 151t52 140t111 111t178.5 41q255 0 324 -213l-188 -65q-30 106 -136 106q-67 0 -107.5 -53t-50.5 -107.5t-10 -111t10 -111.5t50.5 -108.5t107.5 -53.5q126 0 149 160l188 -50q-60 -283 -337 -283q-357 0 -357 447z" />
<glyph unicode="d" horiz-adv-x="889" d="M70 431v-17q0 -187 84 -308q88 -126 270 -126q84 0 163 45v-25h185v1190l-185 -90v-274q-14 14 -64.5 29t-95.5 19q-17 1 -34 1q-61 0 -109 -17q-62 -22 -101.5 -64.5t-65 -103t-35.5 -123.5t-12 -136zM259 431v18q-1 97 39 171q44 80 142 82q87 0 144 -63v-431 q-57 -57 -140 -57q-8 0 -17 1q-59 2 -98.5 49t-53.5 104.5t-16 125.5z" />
<glyph unicode="e" horiz-adv-x="811" d="M70 431q0 81 15.5 151t50.5 140t108.5 111t177.5 41q70 0 126 -18t91 -49t61 -73t38 -90t20 -100q6 -43 6 -84v-16q-1 -21 -1 -41q0 -27 1 -54h-502q16 -192 160 -192q59 0 103 31t58 87l153 -95q-90 -196 -312 -196h-2q-352 0 -352 447zM259 521h320q0 81 -31 131 t-126 50q-98 0 -130.5 -50t-32.5 -131z" />
<glyph unicode="f" horiz-adv-x="491" d="M47 686v168h111v148q0 78 38.5 133t128.5 55q46 0 143 -20v-160q-2 0 -26.5 6.5t-35 7t-27.5 -1.5t-25 -13t-8 -33v-122h122v-168h-122v-686h-188v686h-111z" />
<glyph unicode="g" horiz-adv-x="891" d="M70 431q2 73 12 136t35.5 123.5t64.5 103t102 64.5q50 17 110 17q16 0 33 -1q44 -4 95 -19t65 -29v28h185v-744q0 -6 1.5 -52t1.5 -73t-7 -80.5t-21 -88.5t-43.5 -80.5t-70.5 -75t-105.5 -54.5t-145.5 -33l-91 140q62 14 95 24t89 34t84 62t28 89v103q-73 -45 -163 -45 q-183 0 -270 126q-84 123 -84 312v13zM259 431q2 -68 16 -125.5t54.5 -104.5t97.5 -49q8 -1 17 -1q83 0 140 57v431q-62 62 -144 63q-98 -2 -142 -82q-39 -74 -39 -171v-18z" />
<glyph unicode="h" horiz-adv-x="911" d="M117 0v1100l186 90v-364q70 44 159 50q15 1 29 1q71 0 135 -25q76 -30 128 -100.5t52 -164.5v-587h-185v568q0 76 -45 105t-127 29q-62 -4 -102 -39.5t-40 -103.5v-559h-190z" />
<glyph unicode="i" horiz-adv-x="431" d="M117 1092.5q0 40.5 28.5 69t69 28.5t70.5 -28.5t30 -69t-29 -67.5t-71 -27q-40 0 -69 27t-29 67.5zM124 0v854h187v-854h-187z" />
<glyph unicode="j" horiz-adv-x="504" d="M0 -247q76 22 122 50q70 48 70 135v916h188v-882q0 -219 -141 -301q-132 -82 -239 -93v175zM192 1092.5q0 40.5 27.5 69t67.5 28.5t70 -28.5t30 -69t-29 -67.5t-71 -27q-40 0 -67.5 27t-27.5 67.5z" />
<glyph unicode="k" horiz-adv-x="895" d="M117 0v1100l190 90v-583l233 247h238l-227 -235l321 -619h-212l-247 481l-106 -112v-369h-190z" />
<glyph unicode="l" horiz-adv-x="423" d="M117 0v1100l190 90v-1190h-190z" />
<glyph unicode="m" horiz-adv-x="1380" d="M117 0v854h190v-36q79 60 181 60q18 0 36 -2q124 -12 200 -100q70 92 203 102q14 1 28 1q116 1 213 -73q108 -82 108 -227v-579h-185v554q0 148 -155 148h-2q-59 0 -97.5 -39t-38.5 -109v-554h-196v554q0 81 -40 114.5t-121 33.5q-130 -8 -130 -148v-554h-194z" />
<glyph unicode="n" horiz-adv-x="911" d="M117 0v854h186v-28q70 44 159 50q15 1 29 1q71 0 135 -25q76 -30 128 -100.5t52 -164.5v-587h-185v568q0 76 -45 105t-127 29q-62 -4 -102 -39.5t-40 -103.5v-559h-190z" />
<glyph unicode="o" horiz-adv-x="849" d="M70 431q0 81 15.5 151t52 140t111 111t178.5 41t177.5 -39t109.5 -107t50.5 -139.5t14.5 -157.5t-14.5 -158.5t-50.5 -140.5t-109.5 -108t-177.5 -40q-357 0 -357 447zM259 427q0 -56 10 -111t50.5 -109.5t107 -54.5t106.5 55t49 110t9 114q0 39 -7 78.5t-21.5 87 t-50 76.5t-85.5 29q-67 0 -107.5 -54.5t-50.5 -109.5t-10 -111z" />
<glyph unicode="p" horiz-adv-x="894" d="M117 -329v1183h190v-28q16 16 63.5 31t90.5 17q17 1 34 1q61 0 110 -17q63 -22 103 -64.5t66 -103t37 -123.5t13 -136q0 -199 -87 -325t-268 -126q-82 0 -162 45v-272zM311 208q57 -57 139 -57q8 0 16 1q59 2 98.5 49t53.5 104.5t16 125.5v18q0 97 -40 171 q-43 80 -141 82q-90 0 -142 -63v-431z" />
<glyph unicode="q" horiz-adv-x="889" d="M70 431v-17q0 -188 84 -308q87 -126 270 -126q84 0 163 45v-354l185 82v1101h-185v-28q-14 14 -64.5 29t-95.5 19q-17 1 -34 1q-60 0 -109 -17q-63 -22 -102 -64.5t-64.5 -103t-35.5 -123.5t-12 -136zM259 431v18q0 97 39 171q44 80 142 82q87 0 144 -63v-431 q-57 -57 -140 -57q-9 0 -17 1q-59 2 -98.5 49t-53.5 104.5t-16 125.5z" />
<glyph unicode="r" horiz-adv-x="585" d="M117 0v854h190v-41q56 48 84 57q20 4 47 4q74 0 124 -56l-26 -165q-62 48 -111 49q-74 0 -96 -39t-22 -129v-534h-190z" />
<glyph unicode="s" horiz-adv-x="627" d="M47 118l130 113q59 -78 120 -78q14 0 28 4q39 11 55 35.5t7.5 58t-37.5 66.5q-40 46 -118.5 101t-126.5 103t-54 106q-1 10 -1 20q0 75 41 133q46 66 136 86q39 9 76 9q136 0 244 -127l-132 -109q-4 4 -9.5 11.5t-24.5 22.5t-37.5 24t-40 7.5t-40.5 -18.5 q-15 -19 -15 -36q0 -14 11 -26q24 -26 81.5 -70.5t115.5 -86.5q58 -43 100 -109q37 -58 37 -119q0 -9 -1 -17q-6 -101 -85 -169.5t-211 -68.5q-160 0 -249 134z" />
<glyph unicode="t" horiz-adv-x="489" d="M12 681v173h124v246l181 90v-336h146v-168h-146v-452q0 -48 10.5 -65t49.5 -17q47 0 100 40l-26 -172q-81 -36 -139 -36q-8 -1 -16 -1q-82 0 -120 57q-40 62 -40 165v476h-124z" />
<glyph unicode="u" horiz-adv-x="908" d="M105 267v587h184v-567q0 -76 45 -105.5t128 -29.5q144 8 144 135v567h185v-854h-181v28q-84 -48 -174 -54q-15 -1 -29 -1q-73 0 -135 26q-73 31 -120 101.5t-47 166.5z" />
<glyph unicode="v" horiz-adv-x="871" d="M23 854h198l213 -575l204 575h210l-332 -854h-165z" />
<glyph unicode="w" horiz-adv-x="1365" d="M23 854h198l151 -571l206 571h213l194 -575l158 575h199l-235 -854h-208l-219 587l-214 -587h-205z" />
<glyph unicode="x" horiz-adv-x="911" d="M0 0l345 473l-278 381h228l160 -222l156 222h227l-270 -377l344 -477h-231l-226 317l-228 -317h-227z" />
<glyph unicode="y" horiz-adv-x="916" d="M23 854h203l232 -599l227 599h208l-464 -1183h-203l125 329z" />
<glyph unicode="z" horiz-adv-x="657" d="M35 0v149l371 537h-333v168h550v-168l-354 -517h349v-169h-583z" />
<glyph unicode="&#xa2;" horiz-adv-x="918" d="M117 571q0 108 27 207t95 179.5t166 96.5v136h180v-136q84 -12 141.5 -55t110.5 -133l-157 -62q-42 59 -76 80t-109 21q-102 0 -154 -96.5t-52 -237t56 -242.5t150 -102q78 0 114.5 28t66.5 86l161 -54q-95 -192 -252 -205v-160h-180v165q-96 14 -164 100t-96 187 t-28 197z" />
<glyph unicode="&#xa8;" horiz-adv-x="725" d="M115 1092.5q0 40.5 28.5 69t69 28.5t70 -28.5t29.5 -69t-28.5 -67.5t-70.5 -27q-40 0 -69 27t-29 67.5zM413 1092.5q0 40.5 29.5 69t69 28.5t69.5 -28.5t30 -69t-28.5 -67.5t-71.5 -27q-40 0 -69 27t-29 67.5z" />
<glyph unicode="&#xad;" horiz-adv-x="480" d="M35 486v183h411v-183h-411z" />
<glyph unicode="&#xb2;" horiz-adv-x="683" d="M76 391q4 135 67 239q44 81 136 149q20 12 36 25l40 22l39 22l39 22q50 30 50 84q0 44 -42 74t-98 30q-122 0 -143 -108l-124 26q20 96 91.5 152t175.5 56q110 0 187 -67.5t77 -163.5q0 -95 -80 -168q-20 -16 -32 -21l-37 -27l-43 -20l-36 -23q-56 -32 -91 -72t-63 -105 h382v-126h-531z" />
<glyph unicode="&#xb3;" horiz-adv-x="650" d="M62 585l121 36q30 -118 146 -118q60 0 99 39.5t39 96.5q0 68 -45 98q-14 11 -23.5 12.5t-53.5 4.5h-14v128v-4h1h5h23q76 0 77 76q0 46 -32 75t-81 29q-76 0 -116 -76l-116 44q32 74 93.5 116t137.5 42q98 0 168.5 -69t70.5 -169q0 -64 -45 -128q42 -40 57.5 -76 t15.5 -92q0 -121 -74.5 -197t-192.5 -76q-95 0 -165 56t-96 152z" />
<glyph unicode="&#xb4;" horiz-adv-x="424" d="M143 962l88 208h194l-156 -208h-126z" />
<glyph unicode="&#xb8;" horiz-adv-x="576" d="M121 -202l28 66q59 -36 124 -35q46 2 58 22q11 16 -7 37q-20 26 -68 -10l-48 35l28 99h79l-17 -58q84 36 121 -32q39 -74 -25 -142q-28 -32 -90 -33q-95 2 -183 51z" />
<glyph unicode="&#xb9;" horiz-adv-x="349" d="M76 1023v99h8q56 0 90 48h101v-779h-126v632h-73z" />
<glyph unicode="&#xbc;" horiz-adv-x="1272" d="M117 1023v99h8q56 0 90 48h101v-779h-126v632h-73zM183 0l675 1173h127l-676 -1173h-126zM572 194v75l387 510h122v-472h74v-113h-74v-194h-122v194h-387zM736 307h223v292z" />
<glyph unicode="&#xbd;" horiz-adv-x="1434" d="M117 1023v99h8q56 0 90 48h101v-779h-126v632h-73zM197 0l675 1173h127l-676 -1173h-126zM786 0q4 135 67 239q44 81 136 150q20 12 36 24l40 22l39 23l39 21q50 30 50 84q0 44 -42 74t-98 30q-122 0 -143 -108l-124 26q20 96 91.5 152t175.5 56q110 0 187 -67.5 t77 -163.5q0 -95 -80 -168q-20 -16 -32 -21l-37 -27l-43 -19l-36 -24q-56 -32 -91 -72t-63 -105h382v-126h-531z" />
<glyph unicode="&#xbe;" horiz-adv-x="1496" d="M117 585l121 36q30 -118 146 -118q60 0 99 39.5t39 96.5q0 68 -45 98q-14 11 -23.5 12.5t-53.5 4.5h-14v128v-4h1h5h23q76 0 77 76q0 46 -32 75t-81 29q-76 0 -116 -76l-116 44q32 74 93.5 116t137.5 42q98 0 168.5 -69t70.5 -169q0 -64 -45 -128q42 -40 57.5 -76 t15.5 -92q0 -121 -74.5 -197t-192.5 -76q-95 0 -165 56t-96 152zM420 0l675 1173h127l-676 -1173h-126zM797 194v75l387 510h122v-472h74v-113h-74v-194h-122v194h-387zM961 307h223v292z" />
<glyph unicode="&#xc0;" horiz-adv-x="1060" d="M35 0l403 1170h185l402 -1170h-196l-116 329h-365l-115 -329h-198zM342 1487h194l89 -208h-126zM414 517h234l-116 329z" />
<glyph unicode="&#xc1;" horiz-adv-x="1060" d="M35 0l403 1170h185l402 -1170h-196l-116 329h-365l-115 -329h-198zM414 517h234l-116 329zM437 1279l88 208h194l-156 -208h-126z" />
<glyph unicode="&#xc2;" horiz-adv-x="1060" d="M35 0l403 1170h185l402 -1170h-196l-116 329h-365l-115 -329h-198zM306 1279l129 208h194l129 -208h-127l-98 78l-101 -78h-126zM414 517h234l-116 329z" />
<glyph unicode="&#xc3;" horiz-adv-x="1060" d="M35 0l403 1170h185l402 -1170h-196l-116 329h-365l-115 -329h-198zM281 1307q0 104 53 165q46 50 110 49q44 0 120 -56q36 -36 58 -35q39 0 44 90h110q0 -92 -42 -151q-46 -67 -126 -65q-70 0 -113 57q-42 36 -57 36q-42 0 -47 -90h-110zM414 517h234l-116 329z" />
<glyph unicode="&#xc4;" horiz-adv-x="1060" d="M35 0l403 1170h185l402 -1170h-196l-116 329h-365l-115 -329h-198zM282 1409.5q0 40.5 28.5 69t69 28.5t70 -28.5t29.5 -69t-28.5 -67.5t-70.5 -27q-40 0 -69 27t-29 67.5zM414 517h234l-116 329zM580 1409.5q0 40.5 29.5 69t69 28.5t69.5 -28.5t30 -69t-28.5 -67.5 t-71.5 -27q-40 0 -69 27t-29 67.5z" />
<glyph unicode="&#xc7;" d="M117 587q0 140 35 267.5t97 203.5q108 132 299 132q132 0 220.5 -56.5t145.5 -180.5l-172 -75q-50 74 -89.5 99t-104.5 25q-140 0 -197 -144q-44 -110 -44 -271q0 -213 72 -328q59 -90 177 -90q116 0 182 135l176 -65q-106 -259 -352 -259h-19l-6 -26q84 36 121 -32 q39 -74 -24 -142q-28 -32 -91 -33q-95 2 -184 51l28 66q59 -36 124 -35q46 2 59 22q11 16 -6 37q-20 26 -69 -10l-49 35l21 75q-180 34 -265 200q-87 163 -85 399z" />
<glyph unicode="&#xc8;" horiz-adv-x="924" d="M140 0v1170h690v-183h-506v-290h342v-188h-342v-321h542v-188h-726zM315 1487h194l89 -208h-126z" />
<glyph unicode="&#xc9;" horiz-adv-x="924" d="M140 0v1170h690v-183h-506v-290h342v-188h-342v-321h542v-188h-726zM410 1279l88 208h194l-156 -208h-126z" />
<glyph unicode="&#xca;" horiz-adv-x="924" d="M140 0v1170h690v-183h-506v-290h342v-188h-342v-321h542v-188h-726zM279 1279l129 208h194l129 -208h-127l-98 78l-101 -78h-126z" />
<glyph unicode="&#xcb;" horiz-adv-x="924" d="M140 0v1170h690v-183h-506v-290h342v-188h-342v-321h542v-188h-726zM255 1409.5q0 40.5 28.5 69t69 28.5t70 -28.5t29.5 -69t-28.5 -67.5t-70.5 -27q-40 0 -69 27t-29 67.5zM553 1409.5q0 40.5 29.5 69t69 28.5t69.5 -28.5t30 -69t-28.5 -67.5t-71.5 -27q-40 0 -69 27 t-29 67.5z" />
<glyph unicode="&#xcc;" horiz-adv-x="469" d="M46 1487h194l89 -208h-126zM140 0v1170h189v-1170h-189z" />
<glyph unicode="&#xcd;" horiz-adv-x="469" d="M140 0v1170h189v-1170h-189zM141 1279l88 208h194l-156 -208h-126z" />
<glyph unicode="&#xce;" horiz-adv-x="469" d="M10 1279l129 208h194l129 -208h-127l-98 78l-101 -78h-126zM140 0v1170h189v-1170h-189z" />
<glyph unicode="&#xcf;" horiz-adv-x="469" d="M-14 1409.5q0 40.5 28.5 69t69 28.5t70 -28.5t29.5 -69t-28.5 -67.5t-70.5 -27q-40 0 -69 27t-29 67.5zM140 0v1170h189v-1170h-189zM284 1409.5q0 40.5 29.5 69t69 28.5t69.5 -28.5t30 -69t-28.5 -67.5t-71.5 -27q-40 0 -69 27t-29 67.5z" />
<glyph unicode="&#xd1;" horiz-adv-x="1076" d="M140 0v1170h184l427 -748v748h185v-1170h-165l-447 792v-792h-184zM290 1307q0 104 53 165q46 50 110 49q44 0 120 -56q36 -36 58 -35q39 0 44 90h110q0 -92 -42 -151q-46 -67 -126 -65q-70 0 -113 57q-42 36 -57 36q-42 0 -47 -90h-110z" />
<glyph unicode="&#xd2;" horiz-adv-x="1063" d="M117 583q0 295 128 475q102 132 298 132q217 0 325 -209q79 -162 79 -398q0 -143 -33.5 -270.5t-93.5 -202.5q-96 -130 -284 -130q-122 0 -204 50.5t-133 157.5q-82 160 -82 395zM307 583q0 -214 69 -324q53 -90 160 -90q122 0 180 148q46 117 46 266q0 211 -70 329 q-48 84 -152 90q-130 6 -189 -144q-44 -110 -44 -275zM343 1487h194l89 -208h-126z" />
<glyph unicode="&#xd3;" horiz-adv-x="1063" d="M117 583q0 295 128 475q102 132 298 132q217 0 325 -209q79 -162 79 -398q0 -143 -33.5 -270.5t-93.5 -202.5q-96 -130 -284 -130q-122 0 -204 50.5t-133 157.5q-82 160 -82 395zM307 583q0 -214 69 -324q53 -90 160 -90q122 0 180 148q46 117 46 266q0 211 -70 329 q-48 84 -152 90q-130 6 -189 -144q-44 -110 -44 -275zM438 1279l88 208h194l-156 -208h-126z" />
<glyph unicode="&#xd4;" horiz-adv-x="1063" d="M117 583q0 295 128 475q102 132 298 132q217 0 325 -209q79 -162 79 -398q0 -143 -33.5 -270.5t-93.5 -202.5q-96 -130 -284 -130q-122 0 -204 50.5t-133 157.5q-82 160 -82 395zM307 583q0 -214 69 -324q53 -90 160 -90q122 0 180 148q46 117 46 266q0 211 -70 329 q-48 84 -152 90q-130 6 -189 -144q-44 -110 -44 -275zM307 1279l129 208h194l129 -208h-127l-98 78l-101 -78h-126z" />
<glyph unicode="&#xd5;" horiz-adv-x="1063" d="M117 583q0 295 128 475q102 132 298 132q217 0 325 -209q79 -162 79 -398q0 -143 -33.5 -270.5t-93.5 -202.5q-96 -130 -284 -130q-122 0 -204 50.5t-133 157.5q-82 160 -82 395zM283 1307q0 104 53 165q46 50 110 49q44 0 120 -56q36 -36 58 -35q39 0 44 90h110 q0 -92 -42 -151q-46 -67 -126 -65q-70 0 -113 57q-42 36 -57 36q-42 0 -47 -90h-110zM307 583q0 -214 69 -324q53 -90 160 -90q122 0 180 148q46 117 46 266q0 211 -70 329q-48 84 -152 90q-130 6 -189 -144q-44 -110 -44 -275z" />
<glyph unicode="&#xd6;" horiz-adv-x="1063" d="M117 583q0 295 128 475q102 132 298 132q217 0 325 -209q79 -162 79 -398q0 -143 -33.5 -270.5t-93.5 -202.5q-96 -130 -284 -130q-122 0 -204 50.5t-133 157.5q-82 160 -82 395zM284 1409.5q0 40.5 28.5 69t69 28.5t70 -28.5t29.5 -69t-28.5 -67.5t-70.5 -27 q-40 0 -69 27t-29 67.5zM307 583q0 -214 69 -324q53 -90 160 -90q122 0 180 148q46 117 46 266q0 211 -70 329q-48 84 -152 90q-130 6 -189 -144q-44 -110 -44 -275zM582 1409.5q0 40.5 29.5 69t69 28.5t69.5 -28.5t30 -69t-28.5 -67.5t-71.5 -27q-40 0 -69 27t-29 67.5z " />
<glyph unicode="&#xd9;" horiz-adv-x="1076" d="M140 419v751h184v-751q0 -115 58.5 -182.5t154.5 -67.5t155 67.5t59 182.5v751h185v-751q0 -124 -54 -242q-46 -87 -142 -142t-202.5 -55t-202.5 55t-143 142q-53 115 -52 242zM351 1487h194l89 -208h-126z" />
<glyph unicode="&#xda;" horiz-adv-x="1076" d="M140 419v751h184v-751q0 -115 58.5 -182.5t154.5 -67.5t155 67.5t59 182.5v751h185v-751q0 -124 -54 -242q-46 -87 -142 -142t-202.5 -55t-202.5 55t-143 142q-53 115 -52 242zM446 1279l88 208h194l-156 -208h-126z" />
<glyph unicode="&#xdb;" horiz-adv-x="1076" d="M140 419v751h184v-751q0 -115 58.5 -182.5t154.5 -67.5t155 67.5t59 182.5v751h185v-751q0 -124 -54 -242q-46 -87 -142 -142t-202.5 -55t-202.5 55t-143 142q-53 115 -52 242zM313 1279l129 208h194l129 -208h-127l-98 78l-101 -78h-126z" />
<glyph unicode="&#xdc;" horiz-adv-x="1076" d="M140 419v751h184v-751q0 -115 58.5 -182.5t154.5 -67.5t155 67.5t59 182.5v751h185v-751q0 -124 -54 -242q-46 -87 -142 -142t-202.5 -55t-202.5 55t-143 142q-53 115 -52 242zM292 1409.5q0 40.5 28.5 69t69 28.5t70 -28.5t29.5 -69t-28.5 -67.5t-70.5 -27q-40 0 -69 27 t-29 67.5zM590 1409.5q0 40.5 29.5 69t69 28.5t69.5 -28.5t30 -69t-28.5 -67.5t-71.5 -27q-40 0 -69 27t-29 67.5z" />
<glyph unicode="&#xdd;" horiz-adv-x="1069" d="M35 1170h220l281 -453l282 453h217l-405 -661v-509h-186v509zM443 1279l88 208h194l-156 -208h-126z" />
<glyph unicode="&#xe0;" horiz-adv-x="830" d="M59 304q0 87 47.5 152t119 93t154.5 33t154 -28v14.5t-6.5 32.5t-18.5 43.5t-38.5 36t-63.5 21.5q-78 11 -145.5 -28t-92.5 -78l-54 180q106 87 249 99.5t252.5 -67.5t109.5 -237v-571h-181v25q-42 -36 -168 -37q-136 0 -227 84.5t-91 231.5zM205 1170h194l89 -208h-126z M242 301q0 -73 35 -111t87.5 -38t96.5 10t76 26v199q-34 16 -79 25.5t-96.5 9.5t-85.5 -31t-34 -90z" />
<glyph unicode="&#xe1;" horiz-adv-x="830" d="M59 304q0 87 47.5 152t119 93t154.5 33t154 -28v14.5t-6.5 32.5t-18.5 43.5t-38.5 36t-63.5 21.5q-78 11 -145.5 -28t-92.5 -78l-54 180q106 87 249 99.5t252.5 -67.5t109.5 -237v-571h-181v25q-42 -36 -168 -37q-136 0 -227 84.5t-91 231.5zM242 301q0 -73 35 -111 t87.5 -38t96.5 10t76 26v199q-34 16 -79 25.5t-96.5 9.5t-85.5 -31t-34 -90zM300 962l88 208h194l-156 -208h-126z" />
<glyph unicode="&#xe2;" horiz-adv-x="830" d="M59 304q0 87 47.5 152t119 93t154.5 33t154 -28v14.5t-6.5 32.5t-18.5 43.5t-38.5 36t-63.5 21.5q-78 11 -145.5 -28t-92.5 -78l-54 180q106 87 249 99.5t252.5 -67.5t109.5 -237v-571h-181v25q-42 -36 -168 -37q-136 0 -227 84.5t-91 231.5zM166 962l129 208h194 l129 -208h-127l-98 78l-101 -78h-126zM242 301q0 -73 35 -111t87.5 -38t96.5 10t76 26v199q-34 16 -79 25.5t-96.5 9.5t-85.5 -31t-34 -90z" />
<glyph unicode="&#xe3;" horiz-adv-x="830" d="M59 304q0 87 47.5 152t119 93t154.5 33t154 -28v14.5t-6.5 32.5t-18.5 43.5t-38.5 36t-63.5 21.5q-78 11 -145.5 -28t-92.5 -78l-54 180q106 87 249 99.5t252.5 -67.5t109.5 -237v-571h-181v25q-42 -36 -168 -37q-136 0 -227 84.5t-91 231.5zM144 990q0 104 53 165 q46 50 110 49q44 0 120 -56q36 -36 58 -35q39 0 44 90h110q0 -92 -42 -151q-46 -67 -126 -65q-70 0 -113 57q-42 36 -57 36q-42 0 -47 -90h-110zM242 301q0 -73 35 -111t87.5 -38t96.5 10t76 26v199q-34 16 -79 25.5t-96.5 9.5t-85.5 -31t-34 -90z" />
<glyph unicode="&#xe4;" horiz-adv-x="830" d="M59 304q0 87 47.5 152t119 93t154.5 33t154 -28v14.5t-6.5 32.5t-18.5 43.5t-38.5 36t-63.5 21.5q-78 11 -145.5 -28t-92.5 -78l-54 180q106 87 249 99.5t252.5 -67.5t109.5 -237v-571h-181v25q-42 -36 -168 -37q-136 0 -227 84.5t-91 231.5zM145 1092.5q0 40.5 28.5 69 t69 28.5t70 -28.5t29.5 -69t-28.5 -67.5t-70.5 -27q-40 0 -69 27t-29 67.5zM242 301q0 -73 35 -111t87.5 -38t96.5 10t76 26v199q-34 16 -79 25.5t-96.5 9.5t-85.5 -31t-34 -90zM443 1092.5q0 40.5 29.5 69t69 28.5t69.5 -28.5t30 -69t-28.5 -67.5t-71.5 -27q-40 0 -69 27 t-29 67.5z" />
<glyph unicode="&#xe7;" horiz-adv-x="799" d="M70 431q0 81 15.5 151t52 140t111 111t178.5 41q255 0 324 -213l-188 -65q-30 106 -136 106q-67 0 -107.5 -53t-50.5 -107.5t-10 -111t10 -111.5t50.5 -108.5t107.5 -53.5q126 0 149 160l188 -50q-59 -273 -317 -283l-8 -30q84 36 120 -32q39 -74 -24 -142 q-28 -32 -90 -33q-95 2 -184 51l28 66q59 -36 124 -35q46 2 59 22q11 16 -7 37q-20 26 -68 -10l-51 35l20 75q-297 34 -296 443z" />
<glyph unicode="&#xe8;" horiz-adv-x="811" d="M70 431q0 81 15.5 151t50.5 140t108.5 111t177.5 41q70 0 126 -18t91 -49t61 -73t38 -90t19.5 -99.5t6 -100.5t0.5 -95h-502q16 -192 160 -192q59 0 103 31t58 87l153 -95q-90 -197 -314 -196q-352 0 -352 447zM228 1170h194l89 -208h-126zM259 521h320q0 81 -31 131 t-126 50q-98 0 -130.5 -50t-32.5 -131z" />
<glyph unicode="&#xe9;" horiz-adv-x="811" d="M70 431q0 81 15.5 151t50.5 140t108.5 111t177.5 41q70 0 126 -18t91 -49t61 -73t38 -90t19.5 -99.5t6 -100.5t0.5 -95h-502q16 -192 160 -192q59 0 103 31t58 87l153 -95q-90 -197 -314 -196q-352 0 -352 447zM259 521h320q0 81 -31 131t-126 50q-98 0 -130.5 -50 t-32.5 -131zM323 962l88 208h194l-156 -208h-126z" />
<glyph unicode="&#xea;" horiz-adv-x="811" d="M70 431q0 81 15.5 151t50.5 140t108.5 111t177.5 41q70 0 126 -18t91 -49t61 -73t38 -90t19.5 -99.5t6 -100.5t0.5 -95h-502q16 -192 160 -192q59 0 103 31t58 87l153 -95q-90 -197 -314 -196q-352 0 -352 447zM192 962l129 208h194l129 -208h-127l-98 78l-101 -78h-126z M259 521h320q0 81 -31 131t-126 50q-98 0 -130.5 -50t-32.5 -131z" />
<glyph unicode="&#xeb;" horiz-adv-x="811" d="M70 431q0 81 15.5 151t50.5 140t108.5 111t177.5 41q70 0 126 -18t91 -49t61 -73t38 -90t19.5 -99.5t6 -100.5t0.5 -95h-502q16 -192 160 -192q59 0 103 31t58 87l153 -95q-90 -197 -314 -196q-352 0 -352 447zM169 1092.5q0 40.5 28.5 69t69 28.5t70 -28.5t29.5 -69 t-28.5 -67.5t-70.5 -27q-40 0 -69 27t-29 67.5zM259 521h320q0 81 -31 131t-126 50q-98 0 -130.5 -50t-32.5 -131zM467 1092.5q0 40.5 29.5 69t69 28.5t69.5 -28.5t30 -69t-28.5 -67.5t-71.5 -27q-40 0 -69 27t-29 67.5z" />
<glyph unicode="&#xec;" horiz-adv-x="421" d="M23 1170h194l89 -208h-126zM117 0v854h187v-854h-187z" />
<glyph unicode="&#xed;" horiz-adv-x="421" d="M117 0v854h187v-854h-187zM118 962l88 208h194l-156 -208h-126z" />
<glyph unicode="&#xee;" horiz-adv-x="421" d="M-15 962l129 208h194l129 -208h-127l-98 78l-101 -78h-126zM117 0v854h187v-854h-187z" />
<glyph unicode="&#xef;" horiz-adv-x="421" d="M-36 1092.5q0 40.5 28.5 69t69 28.5t70 -28.5t29.5 -69t-28.5 -67.5t-70.5 -27q-40 0 -69 27t-29 67.5zM117 0v854h187v-854h-187zM262 1092.5q0 40.5 29.5 69t69 28.5t69.5 -28.5t30 -69t-28.5 -67.5t-71.5 -27q-40 0 -69 27t-29 67.5z" />
<glyph unicode="&#xf1;" horiz-adv-x="911" d="M117 0v854h186v-28q70 44 159 50t164.5 -24t127.5 -100.5t52 -164.5v-587h-185v568q0 76 -45 105t-127 29q-62 -4 -102 -39.5t-40 -103.5v-559h-190zM213 990q0 104 53 165q46 50 110 49q44 0 120 -56q36 -36 58 -35q39 0 44 90h110q0 -92 -42 -151q-46 -67 -126 -65 q-70 0 -113 57q-42 36 -57 36q-42 0 -47 -90h-110z" />
<glyph unicode="&#xf2;" horiz-adv-x="849" d="M70 431q0 81 15.5 151t52 140t111 111t178.5 41t177.5 -39t109.5 -107t50.5 -139.5t14.5 -157.5t-14.5 -158.5t-50.5 -140.5t-109.5 -108t-177.5 -40q-357 0 -357 447zM236 1170h194l89 -208h-126zM259 427q0 -56 10 -111t50.5 -109.5t107 -54.5t106.5 55t49 110t9 114 q0 39 -7 78.5t-21.5 87t-50 76.5t-85.5 29q-67 0 -107.5 -54.5t-50.5 -109.5t-10 -111z" />
<glyph unicode="&#xf3;" horiz-adv-x="849" d="M70 431q0 81 15.5 151t52 140t111 111t178.5 41t177.5 -39t109.5 -107t50.5 -139.5t14.5 -157.5t-14.5 -158.5t-50.5 -140.5t-109.5 -108t-177.5 -40q-357 0 -357 447zM259 427q0 -56 10 -111t50.5 -109.5t107 -54.5t106.5 55t49 110t9 114q0 39 -7 78.5t-21.5 87 t-50 76.5t-85.5 29q-67 0 -107.5 -54.5t-50.5 -109.5t-10 -111zM331 962l88 208h194l-156 -208h-126z" />
<glyph unicode="&#xf4;" horiz-adv-x="849" d="M70 431q0 81 15.5 151t52 140t111 111t178.5 41t177.5 -39t109.5 -107t50.5 -139.5t14.5 -157.5t-14.5 -158.5t-50.5 -140.5t-109.5 -108t-177.5 -40q-357 0 -357 447zM200 962l129 208h194l129 -208h-127l-98 78l-101 -78h-126zM259 427q0 -56 10 -111t50.5 -109.5 t107 -54.5t106.5 55t49 110t9 114q0 39 -7 78.5t-21.5 87t-50 76.5t-85.5 29q-67 0 -107.5 -54.5t-50.5 -109.5t-10 -111z" />
<glyph unicode="&#xf5;" horiz-adv-x="849" d="M70 431q0 81 15.5 151t52 140t111 111t178.5 41t177.5 -39t109.5 -107t50.5 -139.5t14.5 -157.5t-14.5 -158.5t-50.5 -140.5t-109.5 -108t-177.5 -40q-357 0 -357 447zM177 990q0 104 53 165q46 50 110 49q44 0 120 -56q36 -36 58 -35q39 0 44 90h110q0 -92 -42 -151 q-46 -67 -126 -65q-70 0 -113 57q-42 36 -57 36q-42 0 -47 -90h-110zM259 427q0 -56 10 -111t50.5 -109.5t107 -54.5t106.5 55t49 110t9 114q0 39 -7 78.5t-21.5 87t-50 76.5t-85.5 29q-67 0 -107.5 -54.5t-50.5 -109.5t-10 -111z" />
<glyph unicode="&#xf6;" horiz-adv-x="849" d="M70 431q0 81 15.5 151t52 140t111 111t178.5 41t177.5 -39t109.5 -107t50.5 -139.5t14.5 -157.5t-14.5 -158.5t-50.5 -140.5t-109.5 -108t-177.5 -40q-357 0 -357 447zM177 1092.5q0 40.5 28.5 69t69 28.5t70 -28.5t29.5 -69t-28.5 -67.5t-70.5 -27q-40 0 -69 27 t-29 67.5zM259 427q0 -56 10 -111t50.5 -109.5t107 -54.5t106.5 55t49 110t9 114q0 39 -7 78.5t-21.5 87t-50 76.5t-85.5 29q-67 0 -107.5 -54.5t-50.5 -109.5t-10 -111zM475 1092.5q0 40.5 29.5 69t69 28.5t69.5 -28.5t30 -69t-28.5 -67.5t-71.5 -27q-40 0 -69 27t-29 67.5 z" />
<glyph unicode="&#xf9;" horiz-adv-x="908" d="M105 267v587h184v-567q0 -76 45 -105.5t128 -29.5q144 8 144 135v567h185v-854h-181v28q-84 -48 -174.5 -54t-163.5 25t-120 101.5t-47 166.5zM260 1170h194l89 -208h-126z" />
<glyph unicode="&#xfa;" horiz-adv-x="908" d="M105 267v587h184v-567q0 -76 45 -105.5t128 -29.5q144 8 144 135v567h185v-854h-181v28q-84 -48 -174.5 -54t-163.5 25t-120 101.5t-47 166.5zM355 962l88 208h194l-156 -208h-126z" />
<glyph unicode="&#xfb;" horiz-adv-x="908" d="M105 267v587h184v-567q0 -76 45 -105.5t128 -29.5q144 8 144 135v567h185v-854h-181v28q-84 -48 -174.5 -54t-163.5 25t-120 101.5t-47 166.5zM223 962l129 208h194l129 -208h-127l-98 78l-101 -78h-126z" />
<glyph unicode="&#xfc;" horiz-adv-x="908" d="M105 267v587h184v-567q0 -76 45 -105.5t128 -29.5q144 8 144 135v567h185v-854h-181v28q-84 -48 -174.5 -54t-163.5 25t-120 101.5t-47 166.5zM200 1092.5q0 40.5 28.5 69t69 28.5t70 -28.5t29.5 -69t-28.5 -67.5t-70.5 -27q-40 0 -69 27t-29 67.5zM498 1092.5 q0 40.5 29.5 69t69 28.5t69.5 -28.5t30 -69t-28.5 -67.5t-71.5 -27q-40 0 -69 27t-29 67.5z" />
<glyph unicode="&#xfd;" horiz-adv-x="916" d="M23 854h203l232 -599l227 599h208l-464 -1183h-203l125 329zM364 962l88 208h194l-156 -208h-126z" />
<glyph unicode="&#xff;" horiz-adv-x="916" d="M23 854h203l232 -599l227 599h208l-464 -1183h-203l125 329zM210 1092.5q0 40.5 28.5 69t69 28.5t70 -28.5t29.5 -69t-28.5 -67.5t-70.5 -27q-40 0 -69 27t-29 67.5zM508 1092.5q0 40.5 29.5 69t69 28.5t69.5 -28.5t30 -69t-28.5 -67.5t-71.5 -27q-40 0 -69 27t-29 67.5z " />
<glyph unicode="&#x2c6;" horiz-adv-x="655" d="M102 962l129 208h194l129 -208h-127l-98 78l-101 -78h-126z" />
<glyph unicode="&#x2dc;" horiz-adv-x="782" d="M124 990q0 104 53 165q46 50 110 49q44 0 120 -56q36 -36 58 -35q39 0 44 90h110q0 -92 -42 -151q-46 -67 -126 -65q-70 0 -113 57q-42 36 -57 36q-42 0 -47 -90h-110z" />
<glyph unicode="&#x2000;" horiz-adv-x="760" />
<glyph unicode="&#x2001;" horiz-adv-x="1521" />
<glyph unicode="&#x2002;" horiz-adv-x="760" />
<glyph unicode="&#x2003;" horiz-adv-x="1521" />
<glyph unicode="&#x2004;" horiz-adv-x="507" />
<glyph unicode="&#x2005;" horiz-adv-x="380" />
<glyph unicode="&#x2006;" horiz-adv-x="253" />
<glyph unicode="&#x2007;" horiz-adv-x="253" />
<glyph unicode="&#x2008;" horiz-adv-x="190" />
<glyph unicode="&#x2009;" horiz-adv-x="304" />
<glyph unicode="&#x200a;" horiz-adv-x="84" />
<glyph unicode="&#x2010;" horiz-adv-x="480" d="M35 486v183h411v-183h-411z" />
<glyph unicode="&#x2011;" horiz-adv-x="480" d="M35 486v183h411v-183h-411z" />
<glyph unicode="&#x2012;" horiz-adv-x="480" d="M35 486v183h411v-183h-411z" />
<glyph unicode="&#x2013;" horiz-adv-x="1093" d="M35 486v183h1024v-183h-1024z" />
<glyph unicode="&#x2014;" horiz-adv-x="2117" d="M35 486v183h2048v-183h-2048z" />
<glyph unicode="&#x202f;" horiz-adv-x="304" />
<glyph unicode="&#x205f;" horiz-adv-x="380" />
<glyph unicode="&#x25fc;" horiz-adv-x="854" d="M0 0v854h854v-854h-854z" />
</font>
</defs>
</svg>
