<?xml version="1.0" standalone="no"?>
<!DOCTYPE svg PUBLIC "-//W3C//DTD SVG 1.1//EN" "http://www.w3.org/Graphics/SVG/1.1/DTD/svg11.dtd" >
<svg xmlns="http://www.w3.org/2000/svg">
<metadata></metadata>
<defs>
<font id="roadgeek_2014_series_eregular" horiz-adv-x="1108" >
<font-face units-per-em="2048" ascent="1463" descent="-585" />
<missing-glyph horiz-adv-x="701" />
<glyph unicode="&#xd;" horiz-adv-x="1018" />
<glyph horiz-adv-x="0" />
<glyph horiz-adv-x="0" />
<glyph unicode=" "  horiz-adv-x="701" />
<glyph unicode="&#x09;" horiz-adv-x="701" />
<glyph unicode="&#xa0;" horiz-adv-x="701" />
<glyph unicode="!" horiz-adv-x="512" d="M152 87q0 46 30 75.5t75 29.5q44 0 73.5 -29.5t29.5 -75.5q0 -44 -29 -75.5t-74 -31.5q-46 0 -75.5 31t-29.5 76zM152 834v336h204v-332l-56 -514h-100z" />
<glyph unicode="&#x22;" horiz-adv-x="895" d="M152 1170h225l-36 -468h-153zM517 1170h226l-34 -468h-155z" />
<glyph unicode="#" horiz-adv-x="1150" d="M70 337l25 169h184l30 180h-183l26 168h180l48 316h191l-50 -316h188l51 316h188l-48 -316h180l-26 -168h-180l-28 -180h184l-24 -169h-184l-54 -337h-197l56 337h-183l-53 -337h-191l55 337h-185zM473 506h185l23 180h-184z" />
<glyph unicode="$" horiz-adv-x="1178" d="M117 213l169 132q124 -149 312 -148q110 0 182.5 43.5t72.5 108.5q0 70 -75 106q-84 34 -139 46l-55 16l-52 12l-58 16q-164 39 -231 116q-73 78 -72 197q0 122 82.5 207t220.5 110v180h211v-180q180 -30 323 -173l-155 -139q-108 115 -281 113q-88 0 -138 -31t-50 -87 q0 -50 38 -76t147 -51q205 -42 324 -99q78 -40 123 -118t45 -173q0 -177 -163 -274q-101 -59 -213 -71v-204h-211v208q-202 34 -357 213z" />
<glyph unicode="&#x26;" horiz-adv-x="1172" d="M117 321q0 140 112 247q44 40 142 101q-62 76 -86 131t-24 120q0 116 85.5 191.5t215.5 75.5q126 0 206 -76t80 -195q0 -177 -193 -300l151 -185q30 87 31 145h192q-16 -177 -95 -297l239 -279h-259l-104 122q-81 -82 -149.5 -114.5t-168.5 -32.5q-164 0 -269.5 97 t-105.5 249zM327 324q0 -68 51 -117.5t122 -49.5q108 0 196 110l-213 258q-157 -87 -156 -201zM453 925q0 -34 30 -87l37 -54q8 -8 11 -16l17 -17q112 74 112 161q0 50 -27 80.5t-71 30.5q-46 0 -77.5 -27.5t-31.5 -70.5z" />
<glyph unicode="'" horiz-adv-x="310" d="M47 1060q0 48 28 81.5t70 33.5q54 0 86 -37t32 -101q0 -116 -90 -196l-65 36q46 46 57 85h-12q-46 0 -76 28t-30 70z" />
<glyph unicode="(" horiz-adv-x="554" d="M117 587q0 393 180 583h211q-177 -273 -177 -583q0 -318 177 -587h-211q-180 180 -180 587z" />
<glyph unicode=")" horiz-adv-x="552" d="M47 0q180 275 181 587q0 301 -177 583h205q181 -190 181 -583q0 -407 -181 -587h-209z" />
<glyph unicode="*" horiz-adv-x="828" d="M94 870l53 181q14 -4 57 -13t70.5 -18.5t48.5 -21.5q-8 22 -11 45t-3 37t1 44.5t1 45.5h213q-1 -118 -13 -175q14 11 33.5 17t35.5 10t48 11t52 13l55 -180q-110 -32 -165 -40q16 -11 31.5 -24.5t24 -25.5t25.5 -35.5t29 -38.5l-156 -115q0 -2 -21 24.5t-46 61.5t-36 53 q-8 -18 -35.5 -52.5t-49.5 -60.5l-25 -26l-160 110q67 96 106 129q-32 4 -163 44z" />
<glyph unicode="+" horiz-adv-x="829" d="M35 493v209h276v262h209v-262h275v-209h-275v-266h-209v266h-276z" />
<glyph unicode="," horiz-adv-x="310" d="M47 78q0 48 28 81t70 33q54 0 86 -37t32 -101q0 -116 -90 -194l-65 34q46 46 57 86h-12q-46 0 -76 28t-30 70z" />
<glyph unicode="-" horiz-adv-x="480" d="M35 473v208h411v-208h-411z" />
<glyph unicode="." horiz-adv-x="314" d="M47 95q0 46 33.5 78t77.5 32q46 0 78 -32t32 -78q0 -44 -32 -75.5t-78 -31.5q-44 0 -77.5 31t-33.5 76z" />
<glyph unicode="/" horiz-adv-x="891" d="M0 0l683 1175h209l-684 -1175h-208z" />
<glyph unicode="0" horiz-adv-x="1283" d="M152 587q0 253 125.5 428t368 175t365 -176t122.5 -423q0 -118 -27 -223.5t-83 -194.5t-154 -141t-223 -52q-245 0 -369.5 176t-124.5 431zM360 591q0 -192 75.5 -297.5t210.5 -105.5q129 0 204 110t75 293v-4q0 185 -73.5 289.5t-205.5 104.5q-143 0 -214.5 -119 t-71.5 -271z" />
<glyph unicode="1" horiz-adv-x="621" d="M117 1043q124 28 186 127h166v-1170h-200v874h-148z" />
<glyph unicode="2" d="M82 0q0 194 95 357q149 250 462 337q98 26 138.5 60t40.5 87q0 135 -231 135q-222 0 -360 -126l-145 160q208 180 494 180q206 0 328 -94.5t122 -254.5q0 -154 -118 -254q-67 -50 -172 -81q-121 -36 -171 -60t-102 -69q-70 -60 -126 -169h689v-208h-944z" />
<glyph unicode="3" d="M82 219l168 126q118 -152 326 -153q108 0 175 45.5t67 119.5q0 44 -26.5 88t-65.5 64q-48 25 -115 25h-57v209h50q68 0 112 32t44 83q0 53 -58 88t-148 35q-150 0 -259 -115l-155 144q174 180 428 180q177 0 291 -93t114 -234q0 -102 -95 -224q87 -76 117.5 -134 t30.5 -140q0 -164 -133 -274.5t-330 -110.5q-236 0 -391 142q-42 36 -90 97z" />
<glyph unicode="4" horiz-adv-x="1262" d="M47 239v188l722 743h205v-743h172v-188h-172v-239h-205v239h-722zM314 427h455v467z" />
<glyph unicode="5" d="M82 110l110 177q154 -95 342 -95q132 0 208 56t76 155q0 102 -75 160q-60 48 -189 48q-106 0 -225 -43l-211 51l39 551h779l-4 -206h-580l-11 -168q143 30 227 30q199 0 328.5 -120t129.5 -303q0 -185 -139 -304t-353 -119q-236 0 -452 130z" />
<glyph unicode="6" horiz-adv-x="1178" d="M117 463q0 185 79 339t228 256q191 132 472 132v-209h-19q-180 0 -293 -69q-144 -84 -225 -254q132 36 264 36q191 0 314.5 -99.5t123.5 -253.5q0 -157 -125 -259t-322 -102q-214 0 -359 126q-138 121 -138 357zM364 341q0 -68 66 -108.5t174 -40.5q110 0 178.5 40.5 t68.5 104.5q0 68 -67.5 108.5t-179.5 40.5q-108 0 -174 -40.5t-66 -104.5z" />
<glyph unicode="7" horiz-adv-x="1112" d="M47 1170h949v-210q-104 -98 -129 -138q-115 -154 -196 -400q-60 -185 -66 -422h-209q6 233 52 419q60 222 169 399q22 39 93 146h-659z" />
<glyph unicode="8" d="M82 373q0 166 131 285q-54 64 -74.5 108t-20.5 104q0 144 120.5 232t315.5 88q197 0 316.5 -87.5t119.5 -232.5q0 -59 -18.5 -103.5t-71.5 -108.5q126 -114 126 -285q0 -197 -136 -295t-336 -98q-214 0 -343 107t-129 286zM290 373q0 -96 87 -146q54 -34 177 -35 q146 0 202 50q62 57 62 131q0 87 -69 134t-195.5 47t-195 -47.5t-68.5 -133.5zM329 874q0 -110 225 -110t225 110q0 50 -59 78.5t-167 28.5t-166 -28t-58 -79z" />
<glyph unicode="9" d="M82 834q0 157 125 256.5t322 99.5q213 0 357 -124q140 -123 140 -357q0 -186 -79 -341t-230 -258q-183 -130 -467 -130v212h20q171 0 289 67q81 46 131 104.5t94 153.5q-129 -40 -263 -40q-191 0 -315 101.5t-124 255.5zM290 834q0 -67 69.5 -107.5t181.5 -40.5 q104 0 171 42t67 106t-66.5 105.5t-175.5 41.5q-112 0 -179.5 -39.5t-67.5 -107.5z" />
<glyph unicode=":" horiz-adv-x="328" d="M47 95q0 50 34 84t80 34q50 0 85.5 -34t35.5 -84q0 -46 -35 -80.5t-86 -34.5q-46 0 -80 34t-34 81zM47 559q0 50 34 84.5t80 34.5q50 0 85.5 -34.5t35.5 -84.5q0 -46 -35 -80.5t-86 -34.5q-46 0 -80 34.5t-34 80.5z" />
<glyph unicode="=" horiz-adv-x="829" d="M35 321v208h760v-208h-760zM35 658v208h760v-208h-760z" />
<glyph unicode="?" horiz-adv-x="939" d="M82 799q6 157 75 247q116 149 332 149q166 0 267.5 -91t101.5 -234q0 -95 -39.5 -159.5t-152.5 -156.5q-50 -42 -68.5 -64.5t-29.5 -62.5t-14 -110h-177q4 126 26 189q28 62 64 98q13 14 46 42l41 40q96 84 96 177q0 56 -46.5 90t-122.5 34q-186 0 -198 -188h-201z M360 90q0 46 30.5 76.5t76.5 30.5t77.5 -30.5t31.5 -76.5t-31.5 -78t-77.5 -32t-76.5 32t-30.5 78z" />
<glyph unicode="@" horiz-adv-x="1407" d="M117 587q0 267 170.5 435t436.5 168q247 0 407 -146.5t160 -377.5q0 -163 -91 -291t-217 -128q-88 0 -131 70q-82 -82 -197 -83q-116 0 -190.5 85.5t-74.5 214.5q0 150 94.5 260.5t231.5 110.5q95 0 156 -64l8 41h173l-70 -376q-12 -60 -13 -71q0 -36 22 -36q46 0 92 78 t46 184q0 164 -108 266.5t-288 102.5q-199 0 -322 -124t-123 -323q0 -191 124 -321q116 -122 329 -122q178 0 357 79l44 -160q-192 -82 -401 -84q-270 0 -445 169q-180 174 -180 443zM578 537q0 -60 28 -93t74 -33q59 0 101.5 54.5t42.5 141.5q0 54 -28 84.5t-72 30.5 q-56 0 -101 -54.5t-45 -130.5z" />
<glyph unicode="A" horiz-adv-x="1287" d="M47 0l491 1170h214l489 -1170h-225l-115 275h-509l-116 -275h-229zM482 486h327l-162 392z" />
<glyph unicode="B" horiz-adv-x="1178" d="M152 0v1170h545q121 0 203 -42q158 -95 158 -265q0 -146 -114 -244q153 -110 153 -274q0 -88 -48 -169t-129 -126q-90 -50 -180 -50h-59h-529zM365 208h332q82 0 135.5 42.5t53.5 106.5q0 68 -54 114t-135 46h-332v-309zM365 726h332q68 0 110.5 33.5t42.5 86t-41 83.5 t-112 31h-332v-234z" />
<glyph unicode="C" horiz-adv-x="1181" d="M117 587q0 279 133 441t363 162q143 0 264 -68t188 -190l-185 -98q-39 59 -82 86q-76 60 -185 61q-101 0 -166 -63t-90.5 -146t-25.5 -181q0 -191 75 -297t207 -106q78 0 133.5 31t133.5 118l185 -98q-64 -122 -185.5 -190.5t-266.5 -68.5q-231 0 -363.5 165t-132.5 442z " />
<glyph unicode="D" horiz-adv-x="1205" d="M152 0v1170h377q150 0 278 -73q281 -159 281 -510q0 -359 -284 -517q-124 -70 -275 -70h-377zM365 208h164q87 0 168 47q181 98 181 332q0 228 -172 329q-84 44 -177 44h-164v-752z" />
<glyph unicode="E" d="M152 0v1170h854v-210h-641v-217h349v-214h-349v-321h661v-208h-874z" />
<glyph unicode="F" horiz-adv-x="1073" d="M152 0v1170h874v-210h-661v-238h366v-213h-366v-509h-213z" />
<glyph unicode="G" horiz-adv-x="1181" d="M117 587q0 269 134 436t351 167q303 0 435 -290l-213 -74q-73 154 -222 155q-122 0 -198.5 -109.5t-76.5 -284.5q0 -106 21 -189t86.5 -146.5t167.5 -63.5q87 0 155.5 52.5t90.5 132.5h-193v210h410v-152q0 -191 -134.5 -321t-328.5 -130q-164 0 -277.5 90t-160.5 223.5 t-47 293.5z" />
<glyph unicode="H" horiz-adv-x="1248" d="M152 0v1170h208v-453h526v453h211v-1170h-211v513l-526 -4v-509h-208z" />
<glyph unicode="I" horiz-adv-x="512" d="M152 0v1170h208v-1170h-208z" />
<glyph unicode="J" horiz-adv-x="1089" d="M47 312l205 53q22 -68 78 -118q78 -54 160 -55q67 0 124 33.5t85 86.5q28 56 28 161v697h210v-689q0 -174 -58 -276q-56 -102 -161.5 -163.5t-227.5 -61.5q-217 0 -353 169q-59 74 -90 163z" />
<glyph unicode="K" horiz-adv-x="1156" d="M152 0v1170h208v-509l416 509h270l-310 -382l385 -788h-239l-299 607l-223 -278v-329h-208z" />
<glyph unicode="L" horiz-adv-x="1073" d="M152 0v1170h208v-990h666v-180h-874z" />
<glyph unicode="M" horiz-adv-x="1400" d="M152 0v1170h205l340 -693l346 693h206v-1170h-206v714l-346 -714l-340 714v-714h-205z" />
<glyph unicode="N" horiz-adv-x="1248" d="M152 0v1170h205l537 -771v771h203v-1170h-181l-559 804v-804h-205z" />
<glyph unicode="O" horiz-adv-x="1215" d="M117 587q0 281 133 442t363 161q214 0 350 -166t136 -433q0 -275 -132.5 -443t-353.5 -168q-241 0 -368.5 181.5t-127.5 425.5zM331 587q0 -188 75 -293.5t207 -105.5q104 0 169.5 65t85.5 148.5t20 185.5q0 186 -71.5 290t-203.5 104t-207 -105t-75 -289z" />
<glyph unicode="P" horiz-adv-x="1135" d="M152 0v1170h545q118 0 211 -49q84 -48 132 -129t48 -179q0 -92 -49 -177t-131 -130q-84 -46 -211 -47h-332v-459h-213zM365 669h341q76 0 124 40t48 104q0 67 -47 107t-125 40h-341v-291z" />
<glyph unicode="Q" horiz-adv-x="1214" d="M117 587q0 270 137.5 436.5t356.5 166.5q225 0 356 -165t131 -438q0 -303 -157 -465l62 -94l-156 -102l-56 90q-92 -36 -187 -36q-219 0 -353 167.5t-134 439.5zM325 587q0 -186 74.5 -290.5t204.5 -104.5q39 0 63 5l-87 132l153 102l86 -127q70 109 70 283 q0 186 -72.5 290t-205.5 104q-130 0 -208 -105.5t-78 -288.5z" />
<glyph unicode="R" horiz-adv-x="1178" d="M152 0v1170h537q115 0 202 -49q84 -48 132.5 -128.5t48.5 -178.5t-49.5 -180.5t-140.5 -132.5l215 -501h-234l-189 459h-314v-459h-208zM360 669h334q76 0 122.5 40t46.5 104q0 68 -46.5 107.5t-122.5 39.5h-334v-291z" />
<glyph unicode="S" d="M82 213l168 132q123 -148 310 -148h3q110 0 182.5 43.5t72.5 108.5q0 70 -75 106q-84 34 -139 46l-55 16l-52 12l-58 16q-164 39 -231 116q-73 78 -72 197q0 144 111.5 234.5t289.5 90.5q261 0 436 -181l-155 -139q-106 113 -275 113h-6q-88 0 -138 -31t-50 -87 q0 -50 38 -76t147 -51q205 -42 324 -99q78 -40 123 -118t45 -173q0 -177 -163 -274q-129 -78 -295 -79q-290 0 -486 225z" />
<glyph unicode="T" horiz-adv-x="972" d="M47 964v206h879v-206h-337v-964h-207v964h-335z" />
<glyph unicode="U" horiz-adv-x="1248" d="M152 473v697h208v-697q0 -90 39 -152q76 -129 225 -129q70 0 131 35t95 94q36 60 36 152v697h211v-697q0 -214 -133.5 -353.5t-340 -139.5t-339 139.5t-132.5 353.5z" />
<glyph unicode="V" horiz-adv-x="1184" d="M47 1170h225l320 -853l321 853h225l-435 -1170h-224z" />
<glyph unicode="W" horiz-adv-x="1332" d="M47 1170h216l129 -755l172 755h208l182 -755l119 755h213l-208 -1170h-223l-188 784l-185 -784h-222z" />
<glyph unicode="X" horiz-adv-x="1178" d="M82 0l381 616l-348 554h250l222 -357l220 357h251l-344 -554l383 -616h-247l-263 415l-258 -415h-247z" />
<glyph unicode="Y" horiz-adv-x="1287" d="M47 1170h258l342 -476l335 476h259l-492 -693v-477h-211v477z" />
<glyph unicode="Z" horiz-adv-x="1083" d="M82 0v239l666 725h-630v206h884v-238l-661 -724h661v-208h-920z" />
<glyph unicode="`" horiz-adv-x="472" d="M0 1170h214l109 -208h-146z" />
<glyph unicode="a" horiz-adv-x="869" d="M59 283q0 102 50.5 168t130.5 89q74 21 155 21h14q88 -2 170 -27q-8 76 -55 111q-40 30 -90 30q-10 1 -20 -1q-62 -6 -115.5 -24t-90.5 -43l-86 181q156 86 309 86h4q341 0 341 -357v-517h-197v36q-67 -38 -155 -48q-28 -3 -55 -4q-59 0 -115 14q-82 20 -138.5 94 t-56.5 191zM247 283q0 -44 35 -75q34 -30 108 -36q7 -1 15 -1q70 0 174 48v130q-101 41 -172 41h-15q-74 -5 -109.5 -35.5t-35.5 -71.5z" />
<glyph unicode="b" horiz-adv-x="895" d="M105 0v1113l211 77v-368q88 49 166 48q44 0 85 -15q113 -43 185.5 -166.5t72.5 -266.5q0 -90 -31 -174t-84 -144q-54 -60 -118 -96q-57 -32 -119 -32q-9 0 -18 1q-73 5 -139 55v-32h-211zM316 279q48 -94 128 -94h2q76 0 122 69t46 173q0 105 -43 175q-40 64 -110 64h-12 q-44 -2 -84 -32t-49 -58v-297z" />
<glyph unicode="c" horiz-adv-x="827" d="M70 427q0 194 115.5 320.5t291.5 126.5q186 0 315 -160l-131 -173q-26 62 -75 97.5t-105 35.5q-92 0 -151.5 -69.5t-59.5 -178t59.5 -177.5t151.5 -69q98 0 169 107l142 -147q-129 -160 -315 -160q-177 0 -292 126.5t-115 320.5z" />
<glyph unicode="d" horiz-adv-x="897" d="M70 422q0 180 101.5 316t239.5 136q54 0 84 -13t84 -62v314l213 77v-1190h-213v62q-54 -48 -84 -61t-84 -13q-138 0 -239.5 129.5t-101.5 304.5zM275 426.5q0 -102.5 49 -172t123 -69.5h2q83 0 130 94v297q-53 90 -132 90q-74 0 -123 -68.5t-49 -171z" />
<glyph unicode="e" horiz-adv-x="842" d="M70 427q0 185 105.5 312t259.5 127q158 0 259 -130q44 -53 73 -143t29 -171v-62h-521q4 -12 8 -28q14 -73 59 -116.5t102 -43.5q76 0 135 70l138 -124l-8 -8q-104 -130 -265 -130q-157 0 -265.5 129.5t-108.5 317.5zM287 525h304q-26 88 -58 120.5t-89 32.5 q-121 0 -157 -153z" />
<glyph unicode="f" horiz-adv-x="513" d="M47 650v200h111v106q0 112 49.5 163t158.5 51q60 0 124 -8v-186q-32 4 -62 5q-67 0 -66 -76v-55h128v-200h-128v-650h-204v650h-111z" />
<glyph unicode="g" horiz-adv-x="901" d="M70 422q0 185 103 326q94 127 214 127q12 0 24 -1q64 -6 90 -19.5t90 -62.5v62h205v-846q0 -98 -10 -147t-43 -100q-40 -68 -99 -111.5t-177 -93.5l-20 -7l-82 184q124 64 175 121.5t51 125.5v90q-46 -48 -84 -69t-100 -21h-4q-135 0 -233 130q-100 131 -100 312z M279 423q0 -106 46 -174.5t119 -68.5q80 0 147 90v306q-67 90 -147 90q-73 0 -119 -68.5t-46 -174.5z" />
<glyph unicode="h" horiz-adv-x="918" d="M105 0v1113l211 77v-398q64 82 195 82q138 0 226 -81t88 -206v-587h-199v509q0 64 -45 110.5t-109.5 46.5t-110 -39.5t-45.5 -125.5v-501h-211z" />
<glyph unicode="i" horiz-adv-x="424" d="M105 1088q0 44 30 73t77 29q44 0 75.5 -30t31.5 -72q0 -44 -32 -75.5t-75 -31.5q-46 0 -76.5 31t-30.5 76zM109 0v854h210v-854h-210z" />
<glyph unicode="j" horiz-adv-x="462" d="M0 -188q95 6 117.5 49t22.5 167v826h217v-826q0 -129 -22.5 -195.5t-79.5 -119.5q-88 -78 -255 -90v189zM140 1088q0 44 31 73t75 29t75 -28.5t31 -73t-31 -76t-74 -31.5q-46 0 -76.5 31t-30.5 76z" />
<glyph unicode="k" horiz-adv-x="829" d="M105 0v1113l211 77v-631l224 291h258l-223 -271l231 -579h-208l-169 407l-113 -157v-250h-211z" />
<glyph unicode="l" horiz-adv-x="421" d="M105 0v1105l211 85v-1190h-211z" />
<glyph unicode="m" horiz-adv-x="1409" d="M105 0v854h211v-70q90 90 208 90q132 0 223 -103q129 102 258 103q135 0 222.5 -81t87.5 -206v-587h-208v509q0 70 -39.5 113.5t-109.5 43.5q-60 0 -103 -44.5t-43 -104.5v-517h-202v509q0 67 -45 112t-111 45q-60 0 -98 -43q-40 -44 -40 -110v-513h-211z" />
<glyph unicode="n" horiz-adv-x="922" d="M105 0v854h211v-70q73 86 197 86h3q138 0 225.5 -77t87.5 -197v-596h-206v513q0 70 -43.5 115.5t-113.5 45.5q-62 0 -106 -49t-44 -112v-513h-211z" />
<glyph unicode="o" horiz-adv-x="888" d="M70 427q0 186 108.5 316.5t264.5 130.5t265.5 -131.5t109.5 -316t-109.5 -315.5t-265.5 -131t-264.5 130.5t-108.5 316.5zM279 427q0 -104 46 -173t118 -69t116.5 69t44.5 173t-44.5 171.5t-116.5 67.5t-118 -67.5t-46 -171.5z" />
<glyph unicode="p" horiz-adv-x="903" d="M105 -349v1203h211v-62q53 46 84.5 60t87.5 14q138 0 241.5 -130.5t103.5 -309t-103.5 -310.5t-241.5 -132q-54 0 -83 14t-89 64v-332zM316 279q36 -54 63 -74t70 -20q74 0 125.5 69.5t51.5 172t-51 172.5t-126 70q-90 0 -133 -110v-2v-2v-1v-3v-2v-1v-3v-2v-2v-1v-3v-2 v-1v-3v-2v-2v-2v-2v-2v-1v-3v-2v-2v-2v-2v-2v-1v-3v-2v-4v-2v-2v-1v-3v-2v-4v-2v-2v-2v-4v-1v-3v-2v-4v-2v-2v-4v-2v-2v-4v-2v-4v-2v-2v-4v-2v-4v-2v-4v-2v-4v-2v-5v-1v-4v-2v-4v-4v-2v-4v-2v-5v-3v-3v-3v-2v-4v-5v-1v-4v-4v-5v-1v-4v-4v-2v-4v-4v-4v-2v-4v-5v-3v-5v-1v-5 v-19z" />
<glyph unicode="q" horiz-adv-x="901" d="M70 423.5q0 178.5 103 310.5t242 132q56 0 91 -14t90 -60v62h200v-1129l-200 -77v411q-59 -50 -91.5 -64.5t-89.5 -14.5q-138 0 -241.5 132.5t-103.5 311zM275 422q0 -102 51 -172t125 -70q91 0 145 95v301q-54 90 -145 90q-74 0 -125 -69.5t-51 -174.5z" />
<glyph unicode="r" horiz-adv-x="668" d="M105 0v854h211v-62q44 44 78 59t86 15q98 0 165 -48l-67 -202q-44 50 -112 50q-60 0 -107 -47q-44 -34 -43 -118v-501h-211z" />
<glyph unicode="s" horiz-adv-x="795" d="M47 62l76 185q6 -2 62.5 -19t115.5 -30t103 -13q150 0 151 62q0 39 -23.5 52t-123.5 42q-172 44 -247 103q-95 74 -93 188q0 110 90 174t242 64q174 0 333 -86l-79 -185q-118 70 -250 70q-128 0 -128 -57q0 -31 29 -47.5t119 -35.5q177 -34 257 -104t80 -186 q0 -121 -91.5 -188t-257.5 -67q-211 0 -365 78z" />
<glyph unicode="t" horiz-adv-x="565" d="M12 653v197h140v263l213 77v-340h176v-197h-176v-336q0 -129 94 -129q42 0 95 46l-33 -209q-84 -44 -156 -45q-101 0 -157 70.5t-56 191.5v411h-140z" />
<glyph unicode="u" horiz-adv-x="917" d="M94 262v588h209v-509q0 -68 40.5 -112t110.5 -44q64 0 112 45.5t48 106.5v513h198v-850h-198v67q-81 -53 -113.5 -66t-94.5 -13q-138 0 -225 77.5t-87 196.5z" />
<glyph unicode="v" horiz-adv-x="876" d="M23 854h210l205 -579l207 579h208l-305 -854h-220z" />
<glyph unicode="w" horiz-adv-x="1163" d="M23 854h206l130 -485l113 485h221l113 -481l129 481h205l-237 -854h-202l-119 517l-120 -517h-201z" />
<glyph unicode="x" horiz-adv-x="854" d="M0 0l312 481l-242 373h239l118 -188l122 188h235l-239 -373l309 -481h-235l-192 295l-188 -295h-239z" />
<glyph unicode="y" horiz-adv-x="946" d="M23 854h215l250 -587l220 587h215l-443 -1178h-214l124 324z" />
<glyph unicode="z" horiz-adv-x="813" d="M35 0v185l431 465h-409v204h721v-168l-455 -486h455v-200h-743z" />
<glyph unicode="&#xa2;" horiz-adv-x="1052" d="M117 619q0 183 94 311t247 167v172h210v-172q199 -30 302 -197l-164 -82q-48 59 -96 86.5t-132 27.5q-122 0 -188.5 -97.5t-66.5 -215.5q0 -130 69 -227t178 -97q59 0 102.5 18t63.5 35t70 67l164 -78q-98 -164 -302 -201v-206h-210v210q-160 34 -250.5 161.5 t-90.5 317.5z" />
<glyph unicode="&#xa8;" horiz-adv-x="740" d="M106 1088q0 44 30 73t77 29q44 0 76 -30t32 -72q0 -44 -32.5 -75.5t-75.5 -31.5q-46 0 -76.5 31t-30.5 76zM421 1088q0 44 30 73t76 29q44 0 76 -30t32 -72q0 -44 -32 -75.5t-76 -31.5q-46 0 -76 31t-30 76z" />
<glyph unicode="&#xad;" horiz-adv-x="480" d="M35 473v208h411v-208h-411z" />
<glyph unicode="&#xb2;" horiz-adv-x="737" d="M54 393q0 130 62 239q101 166 309 223q67 16 93.5 40t26.5 59q0 90 -154 90q-149 0 -241 -84l-96 106q138 121 329 121q138 0 219 -63.5t81 -169.5q0 -102 -78 -170q-44 -32 -116 -55q-81 -25 -113.5 -39.5t-66.5 -45.5q-48 -40 -84 -113h458v-138h-629z" />
<glyph unicode="&#xb3;" horiz-adv-x="737" d="M54 531l112 85q78 -101 217 -101q73 0 117.5 30.5t44.5 78.5q0 30 -18 59t-44 43q-32 16 -76 16h-38v140h32q46 0 75.5 21.5t29.5 54.5q0 34 -38.5 58t-98.5 24q-101 0 -172 -76l-105 96q116 121 285 121q118 0 194 -62t76 -159q0 -68 -62 -148q56 -50 77 -89t21 -93 q0 -110 -88.5 -183.5t-220.5 -73.5q-158 0 -259 94q-28 25 -61 64z" />
<glyph unicode="&#xb4;" horiz-adv-x="472" d="M150 962l109 208h214l-176 -208h-147z" />
<glyph unicode="&#xb8;" horiz-adv-x="596" d="M121 -202l28 66q59 -36 124 -35q46 2 58 22q11 16 -7 37q-20 26 -68 -10l-48 35l28 99h79l-17 -58q104 36 141 -32q39 -74 -24 -142q-28 -32 -111 -33q-95 2 -183 51z" />
<glyph unicode="&#xb9;" horiz-adv-x="411" d="M76 1088q82 18 124 85h110v-780h-132v583h-100z" />
<glyph unicode="&#xbc;" horiz-adv-x="1391" d="M58 1088q82 18 124 85h110v-780h-132v583h-100zM180 0l681 1173h139l-682 -1173h-138zM601 158v126l481 495h136v-495h115v-126h-115v-158h-136v158h-481zM779 284h303v312z" />
<glyph unicode="&#xbd;" horiz-adv-x="1556" d="M58 1088q82 18 124 85h110v-780h-132v583h-100zM197 0l681 1173h139l-682 -1173h-138zM869 0q0 130 62 239q101 166 309 224q67 16 93.5 39t26.5 60q0 90 -154 90q-149 0 -241 -84l-96 106q138 121 329 119q138 0 219 -63t81 -168q0 -102 -78 -171q-44 -32 -116 -54 q-81 -25 -113.5 -39.5t-66.5 -47.5q-48 -40 -84 -112h458v-138h-629z" />
<glyph unicode="&#xbe;" horiz-adv-x="1725" d="M59 531l112 85q78 -101 217 -101q73 0 117.5 30.5t44.5 78.5q0 30 -18 59t-44 43q-32 16 -76 16h-38v140h32q46 0 75.5 21.5t29.5 54.5q0 34 -38.5 58t-98.5 24q-101 0 -172 -76l-105 96q116 121 285 121q118 0 194 -62t76 -159q0 -68 -62 -148q56 -50 77 -89t21 -93 q0 -110 -88.5 -183.5t-220.5 -73.5q-158 0 -259 94q-28 25 -61 64zM493 0l681 1173h139l-682 -1173h-138zM935 158v126l481 495h136v-495h115v-126h-115v-158h-136v158h-481zM1113 284h303v312z" />
<glyph unicode="&#xc0;" horiz-adv-x="1287" d="M47 0l491 1170h214l489 -1170h-225l-115 275h-509l-116 -275h-229zM428 1487h214l109 -208h-146zM482 486h327l-162 392z" />
<glyph unicode="&#xc1;" horiz-adv-x="1287" d="M47 0l491 1170h214l489 -1170h-225l-115 275h-509l-116 -275h-229zM482 486h327l-162 392zM536 1279l109 208h214l-176 -208h-147z" />
<glyph unicode="&#xc2;" horiz-adv-x="1287" d="M47 0l491 1170h214l489 -1170h-225l-115 275h-509l-116 -275h-229zM386 1279l149 208h218l148 -208h-146l-110 84l-113 -84h-146zM482 486h327l-162 392z" />
<glyph unicode="&#xc3;" horiz-adv-x="1287" d="M47 0l491 1170h214l489 -1170h-225l-115 275h-509l-116 -275h-229zM376 1307q0 104 53 165q46 50 110 49q64 0 120 -35q56 -36 79 -36q39 0 43 70h131q0 -92 -42 -151q-46 -67 -126 -65q-50 0 -113 37q-62 36 -78 36q-42 0 -46 -70h-131zM482 486h327l-162 392z" />
<glyph unicode="&#xc4;" horiz-adv-x="1287" d="M47 0l491 1170h214l489 -1170h-225l-115 275h-509l-116 -275h-229zM378 1405q0 44 30 73t77 29q44 0 76 -30t32 -72q0 -44 -32.5 -75.5t-75.5 -31.5q-46 0 -76.5 31t-30.5 76zM482 486h327l-162 392zM693 1405q0 44 30 73t76 29q44 0 76 -30t32 -72q0 -44 -32 -75.5 t-76 -31.5q-46 0 -76 31t-30 76z" />
<glyph unicode="&#xc7;" horiz-adv-x="1181" d="M117 587q0 279 133 441t363 162q143 0 264 -68t188 -190l-185 -98q-39 59 -82 86q-76 60 -185 61q-101 0 -166 -63t-90.5 -146t-25.5 -181q0 -191 75 -297t207 -106q78 0 133.5 31t133.5 118l185 -98q-64 -122 -185.5 -190.5t-266.5 -68.5h-3l-8 -26q104 36 140 -32 q40 -74 -22 -142q-28 -32 -110 -33q-95 2 -186 51l28 66q59 -36 124 -35q46 2 58 22q12 16 -4 37q-20 26 -68 -10l-51 35l20 73q-172 25 -281 160q-135 164 -133 441z" />
<glyph unicode="&#xc8;" d="M152 0v1170h854v-210h-641v-217h349v-214h-349v-321h661v-208h-874zM374 1487h214l109 -208h-146z" />
<glyph unicode="&#xc9;" d="M152 0v1170h854v-210h-641v-217h349v-214h-349v-321h661v-208h-874zM481 1279l109 208h214l-176 -208h-147z" />
<glyph unicode="&#xca;" d="M152 0v1170h854v-210h-641v-217h349v-214h-349v-321h661v-208h-874zM332 1279l149 208h218l148 -208h-146l-110 84l-113 -84h-146z" />
<glyph unicode="&#xcb;" d="M152 0v1170h854v-210h-641v-217h349v-214h-349v-321h661v-208h-874zM325 1405q0 44 30 73t77 29q44 0 76 -30t32 -72q0 -44 -32.5 -75.5t-75.5 -31.5q-46 0 -76.5 31t-30.5 76zM640 1405q0 44 30 73t76 29q44 0 76 -30t32 -72q0 -44 -32 -75.5t-76 -31.5q-46 0 -76 31 t-30 76z" />
<glyph unicode="&#xcc;" horiz-adv-x="512" d="M42 1487h214l109 -208h-146zM152 0v1170h208v-1170h-208z" />
<glyph unicode="&#xcd;" horiz-adv-x="512" d="M148 1279l109 208h214l-176 -208h-147zM152 0v1170h208v-1170h-208z" />
<glyph unicode="&#xce;" horiz-adv-x="512" d="M0 1279l149 208h218l148 -208h-146l-110 84l-113 -84h-146zM152 0v1170h208v-1170h-208z" />
<glyph unicode="&#xcf;" horiz-adv-x="512" d="M-9 1405q0 44 30 73t77 29q44 0 76 -30t32 -72q0 -44 -32.5 -75.5t-75.5 -31.5q-46 0 -76.5 31t-30.5 76zM152 0v1170h208v-1170h-208zM306 1405q0 44 30 73t76 29q44 0 76 -30t32 -72q0 -44 -32 -75.5t-76 -31.5q-46 0 -76 31t-30 76z" />
<glyph unicode="&#xd1;" horiz-adv-x="1248" d="M152 0v1170h205l537 -771v771h203v-1170h-181l-559 804v-804h-205zM357 1307q0 104 53 165q46 50 110 49q64 0 120 -35q56 -36 79 -36q39 0 43 70h131q0 -92 -42 -151q-46 -67 -126 -65q-50 0 -113 37q-62 36 -78 36q-42 0 -46 -70h-131z" />
<glyph unicode="&#xd2;" horiz-adv-x="1215" d="M117 587q0 281 133 442t363 161q214 0 350 -166t136 -433q0 -275 -132.5 -443t-353.5 -168q-241 0 -368.5 181.5t-127.5 425.5zM331 587q0 -188 75 -293.5t207 -105.5q104 0 169.5 65t85.5 148.5t20 185.5q0 186 -71.5 290t-203.5 104t-207 -105t-75 -289zM393 1487h214 l109 -208h-146z" />
<glyph unicode="&#xd3;" horiz-adv-x="1215" d="M117 587q0 281 133 442t363 161q214 0 350 -166t136 -433q0 -275 -132.5 -443t-353.5 -168q-241 0 -368.5 181.5t-127.5 425.5zM331 587q0 -188 75 -293.5t207 -105.5q104 0 169.5 65t85.5 148.5t20 185.5q0 186 -71.5 290t-203.5 104t-207 -105t-75 -289zM499 1279 l109 208h214l-176 -208h-147z" />
<glyph unicode="&#xd4;" horiz-adv-x="1215" d="M117 587q0 281 133 442t363 161q214 0 350 -166t136 -433q0 -275 -132.5 -443t-353.5 -168q-241 0 -368.5 181.5t-127.5 425.5zM331 587q0 -188 75 -293.5t207 -105.5q104 0 169.5 65t85.5 148.5t20 185.5q0 186 -71.5 290t-203.5 104t-207 -105t-75 -289zM351 1279 l149 208h218l148 -208h-146l-110 84l-113 -84h-146z" />
<glyph unicode="&#xd5;" horiz-adv-x="1215" d="M117 587q0 281 133 442t363 161q214 0 350 -166t136 -433q0 -275 -132.5 -443t-353.5 -168q-241 0 -368.5 181.5t-127.5 425.5zM331 587q0 -188 75 -293.5t207 -105.5q104 0 169.5 65t85.5 148.5t20 185.5q0 186 -71.5 290t-203.5 104t-207 -105t-75 -289zM339 1307 q0 104 53 165q46 50 110 49q64 0 120 -35q56 -36 79 -36q39 0 43 70h131q0 -92 -42 -151q-46 -67 -126 -65q-50 0 -113 37q-62 36 -78 36q-42 0 -46 -70h-131z" />
<glyph unicode="&#xd6;" horiz-adv-x="1215" d="M117 587q0 281 133 442t363 161q214 0 350 -166t136 -433q0 -275 -132.5 -443t-353.5 -168q-241 0 -368.5 181.5t-127.5 425.5zM331 587q0 -188 75 -293.5t207 -105.5q104 0 169.5 65t85.5 148.5t20 185.5q0 186 -71.5 290t-203.5 104t-207 -105t-75 -289zM342 1405 q0 44 30 73t77 29q44 0 76 -30t32 -72q0 -44 -32.5 -75.5t-75.5 -31.5q-46 0 -76.5 31t-30.5 76zM657 1405q0 44 30 73t76 29q44 0 76 -30t32 -72q0 -44 -32 -75.5t-76 -31.5q-46 0 -76 31t-30 76z" />
<glyph unicode="&#xd9;" horiz-adv-x="1248" d="M152 473v697h208v-697q0 -90 39 -152q76 -129 225 -129q70 0 131 35t95 94q36 60 36 152v697h211v-697q0 -214 -133.5 -353.5t-340 -139.5t-339 139.5t-132.5 353.5zM408 1487h214l109 -208h-146z" />
<glyph unicode="&#xda;" horiz-adv-x="1248" d="M152 473v697h208v-697q0 -90 39 -152q76 -129 225 -129q70 0 131 35t95 94q36 60 36 152v697h211v-697q0 -214 -133.5 -353.5t-340 -139.5t-339 139.5t-132.5 353.5zM516 1279l109 208h214l-176 -208h-147z" />
<glyph unicode="&#xdb;" horiz-adv-x="1248" d="M152 473v697h208v-697q0 -90 39 -152q76 -129 225 -129q70 0 131 35t95 94q36 60 36 152v697h211v-697q0 -214 -133.5 -353.5t-340 -139.5t-339 139.5t-132.5 353.5zM366 1279l149 208h218l148 -208h-146l-110 84l-113 -84h-146z" />
<glyph unicode="&#xdc;" horiz-adv-x="1248" d="M152 473v697h208v-697q0 -90 39 -152q76 -129 225 -129q70 0 131 35t95 94q36 60 36 152v697h211v-697q0 -214 -133.5 -353.5t-340 -139.5t-339 139.5t-132.5 353.5zM359 1405q0 44 30 73t77 29q44 0 76 -30t32 -72q0 -44 -32.5 -75.5t-75.5 -31.5q-46 0 -76.5 31 t-30.5 76zM674 1405q0 44 30 73t76 29q44 0 76 -30t32 -72q0 -44 -32 -75.5t-76 -31.5q-46 0 -76 31t-30 76z" />
<glyph unicode="&#xdd;" horiz-adv-x="1287" d="M47 1170h258l342 -476l335 476h259l-492 -693v-477h-211v477zM536 1279l109 208h214l-176 -208h-147z" />
<glyph unicode="&#xe0;" horiz-adv-x="869" d="M59 283q0 102 50.5 168t131 89t168.5 21t170 -27q-8 76 -55 111t-109.5 28.5t-116 -24t-90.5 -42.5l-86 181q158 87 313 86q341 0 341 -357v-517h-197v36q-67 -39 -154.5 -48.5t-170 10.5t-139 94t-56.5 191zM202 1170h214l109 -208h-146zM247 283q0 -44 35 -75 t108.5 -36.5t188.5 47.5v130q-112 46 -186.5 41t-110 -35.5t-35.5 -71.5z" />
<glyph unicode="&#xe1;" horiz-adv-x="869" d="M59 283q0 102 50.5 168t131 89t168.5 21t170 -27q-8 76 -55 111t-109.5 28.5t-116 -24t-90.5 -42.5l-86 181q158 87 313 86q341 0 341 -357v-517h-197v36q-67 -39 -154.5 -48.5t-170 10.5t-139 94t-56.5 191zM247 283q0 -44 35 -75t108.5 -36.5t188.5 47.5v130 q-112 46 -186.5 41t-110 -35.5t-35.5 -71.5zM308 962l109 208h214l-176 -208h-147z" />
<glyph unicode="&#xe2;" horiz-adv-x="869" d="M59 283q0 102 50.5 168t131 89t168.5 21t170 -27q-8 76 -55 111t-109.5 28.5t-116 -24t-90.5 -42.5l-86 181q158 87 313 86q341 0 341 -357v-517h-197v36q-67 -39 -154.5 -48.5t-170 10.5t-139 94t-56.5 191zM160 962l149 208h218l148 -208h-146l-110 84l-113 -84h-146z M247 283q0 -44 35 -75t108.5 -36.5t188.5 47.5v130q-112 46 -186.5 41t-110 -35.5t-35.5 -71.5z" />
<glyph unicode="&#xe3;" horiz-adv-x="869" d="M59 283q0 102 50.5 168t131 89t168.5 21t170 -27q-8 76 -55 111t-109.5 28.5t-116 -24t-90.5 -42.5l-86 181q158 87 313 86q341 0 341 -357v-517h-197v36q-67 -39 -154.5 -48.5t-170 10.5t-139 94t-56.5 191zM149 990q0 104 53 165q46 50 110 49q64 0 120 -35 q56 -36 79 -36q39 0 43 70h131q0 -92 -42 -151q-46 -67 -126 -65q-50 0 -113 37q-62 36 -78 36q-42 0 -46 -70h-131zM247 283q0 -44 35 -75t108.5 -36.5t188.5 47.5v130q-112 46 -186.5 41t-110 -35.5t-35.5 -71.5z" />
<glyph unicode="&#xe4;" horiz-adv-x="869" d="M59 283q0 102 50.5 168t131 89t168.5 21t170 -27q-8 76 -55 111t-109.5 28.5t-116 -24t-90.5 -42.5l-86 181q158 87 313 86q341 0 341 -357v-517h-197v36q-67 -39 -154.5 -48.5t-170 10.5t-139 94t-56.5 191zM152 1088q0 44 30 73t77 29q44 0 76 -30t32 -72 q0 -44 -32.5 -75.5t-75.5 -31.5q-46 0 -76.5 31t-30.5 76zM247 283q0 -44 35 -75t108.5 -36.5t188.5 47.5v130q-112 46 -186.5 41t-110 -35.5t-35.5 -71.5zM467 1088q0 44 30 73t76 29q44 0 76 -30t32 -72q0 -44 -32 -75.5t-76 -31.5q-46 0 -76 31t-30 76z" />
<glyph unicode="&#xe7;" horiz-adv-x="827" d="M70 426.5q0 194.5 115.5 321t291.5 126.5q186 0 315 -160l-131 -173q-26 62 -75 97.5t-105 35.5q-92 0 -151.5 -69.5t-59.5 -178t59.5 -177.5t151.5 -69q98 0 169 107l142 -147q-129 -160 -315 -160h-28l-5 -26q104 36 139 -32q39 -74 -24 -142q-28 -32 -110 -33 q-95 2 -185 51l29 66q59 -36 124 -35q46 2 58 22q11 16 -6 37q-20 26 -68 -10l-50 35l22 79q-108 28 -187 114q-116 126 -116 320.5z" />
<glyph unicode="&#xe8;" horiz-adv-x="842" d="M70 427q0 185 105.5 312t259.5 127q158 0 259 -130q44 -53 73 -143t29 -171v-62h-521q4 -12 8 -28q14 -73 59 -116.5t102 -43.5q76 0 135 70l138 -124l-8 -8q-104 -130 -265 -130q-157 0 -265.5 129.5t-108.5 317.5zM219 1170h214l109 -208h-146zM287 525h304 q-26 88 -58 120.5t-89 32.5q-121 0 -157 -153z" />
<glyph unicode="&#xe9;" horiz-adv-x="842" d="M70 427q0 185 105.5 312t259.5 127q158 0 259 -130q44 -53 73 -143t29 -171v-62h-521q4 -12 8 -28q14 -73 59 -116.5t102 -43.5q76 0 135 70l138 -124l-8 -8q-104 -130 -265 -130q-157 0 -265.5 129.5t-108.5 317.5zM287 525h304q-26 88 -58 120.5t-89 32.5 q-121 0 -157 -153zM324 962l109 208h214l-176 -208h-147z" />
<glyph unicode="&#xea;" horiz-adv-x="842" d="M70 427q0 185 105.5 312t259.5 127q158 0 259 -130q44 -53 73 -143t29 -171v-62h-521q4 -12 8 -28q14 -73 59 -116.5t102 -43.5q76 0 135 70l138 -124l-8 -8q-104 -130 -265 -130q-157 0 -265.5 129.5t-108.5 317.5zM177 962l149 208h218l148 -208h-146l-110 84l-113 -84 h-146zM287 525h304q-26 88 -58 120.5t-89 32.5q-121 0 -157 -153z" />
<glyph unicode="&#xeb;" horiz-adv-x="842" d="M70 427q0 185 105.5 312t259.5 127q158 0 259 -130q44 -53 73 -143t29 -171v-62h-521q4 -12 8 -28q14 -73 59 -116.5t102 -43.5q76 0 135 70l138 -124l-8 -8q-104 -130 -265 -130q-157 0 -265.5 129.5t-108.5 317.5zM168 1088q0 44 30 73t77 29q44 0 76 -30t32 -72 q0 -44 -32.5 -75.5t-75.5 -31.5q-46 0 -76.5 31t-30.5 76zM287 525h304q-26 88 -58 120.5t-89 32.5q-121 0 -157 -153zM483 1088q0 44 30 73t76 29q44 0 76 -30t32 -72q0 -44 -32 -75.5t-76 -31.5q-46 0 -76 31t-30 76z" />
<glyph unicode="&#xec;" horiz-adv-x="421" d="M-5 1170h214l109 -208h-146zM105 0v854h211v-854h-211z" />
<glyph unicode="&#xed;" horiz-adv-x="421" d="M103 962l109 208h214l-176 -208h-147zM105 0v854h211v-854h-211z" />
<glyph unicode="&#xee;" horiz-adv-x="421" d="M-47 962l149 208h218l148 -208h-146l-110 84l-113 -84h-146zM105 0v854h211v-854h-211z" />
<glyph unicode="&#xef;" horiz-adv-x="421" d="M-55 1088q0 44 30 73t77 29q44 0 76 -30t32 -72q0 -44 -32.5 -75.5t-75.5 -31.5q-46 0 -76.5 31t-30.5 76zM105 0v854h211v-854h-211zM260 1088q0 44 30 73t76 29q44 0 76 -30t32 -72q0 -44 -32 -75.5t-76 -31.5q-46 0 -76 31t-30 76z" />
<glyph unicode="&#xf1;" horiz-adv-x="922" d="M105 0v854h211v-70q74 87 200 86q138 0 225.5 -77t87.5 -197v-596h-206v513q0 70 -43.5 115.5t-113.5 45.5q-62 0 -106 -49t-44 -112v-513h-211zM199 990q0 104 53 165q46 50 110 49q64 0 120 -35q56 -36 79 -36q39 0 43 70h131q0 -92 -42 -151q-46 -67 -126 -65 q-50 0 -113 37q-62 36 -78 36q-42 0 -46 -70h-131z" />
<glyph unicode="&#xf2;" horiz-adv-x="888" d="M70 427q0 186 108.5 316.5t264.5 130.5t265.5 -131.5t109.5 -316t-109.5 -315.5t-265.5 -131t-264.5 130.5t-108.5 316.5zM228 1170h214l109 -208h-146zM279 427q0 -104 46 -173t118 -69t116.5 69t44.5 173t-44.5 171.5t-116.5 67.5t-118 -67.5t-46 -171.5z" />
<glyph unicode="&#xf3;" horiz-adv-x="888" d="M70 427q0 186 108.5 316.5t264.5 130.5t265.5 -131.5t109.5 -316t-109.5 -315.5t-265.5 -131t-264.5 130.5t-108.5 316.5zM279 427q0 -104 46 -173t118 -69t116.5 69t44.5 173t-44.5 171.5t-116.5 67.5t-118 -67.5t-46 -171.5zM336 962l109 208h214l-176 -208h-147z" />
<glyph unicode="&#xf4;" horiz-adv-x="888" d="M70 427q0 186 108.5 316.5t264.5 130.5t265.5 -131.5t109.5 -316t-109.5 -315.5t-265.5 -131t-264.5 130.5t-108.5 316.5zM186 962l149 208h218l148 -208h-146l-110 84l-113 -84h-146zM279 427q0 -104 46 -173t118 -69t116.5 69t44.5 173t-44.5 171.5t-116.5 67.5 t-118 -67.5t-46 -171.5z" />
<glyph unicode="&#xf5;" horiz-adv-x="888" d="M70 427q0 186 108.5 316.5t264.5 130.5t265.5 -131.5t109.5 -316t-109.5 -315.5t-265.5 -131t-264.5 130.5t-108.5 316.5zM177 990q0 104 53 165q46 50 110 49q64 0 120 -35q56 -36 79 -36q39 0 43 70h131q0 -92 -42 -151q-46 -67 -126 -65q-50 0 -113 37q-62 36 -78 36 q-42 0 -46 -70h-131zM279 427q0 -104 46 -173t118 -69t116.5 69t44.5 173t-44.5 171.5t-116.5 67.5t-118 -67.5t-46 -171.5z" />
<glyph unicode="&#xf6;" horiz-adv-x="888" d="M70 427q0 186 108.5 316.5t264.5 130.5t265.5 -131.5t109.5 -316t-109.5 -315.5t-265.5 -131t-264.5 130.5t-108.5 316.5zM179 1088q0 44 30 73t77 29q44 0 76 -30t32 -72q0 -44 -32.5 -75.5t-75.5 -31.5q-46 0 -76.5 31t-30.5 76zM279 427q0 -104 46 -173t118 -69 t116.5 69t44.5 173t-44.5 171.5t-116.5 67.5t-118 -67.5t-46 -171.5zM494 1088q0 44 30 73t76 29q44 0 76 -30t32 -72q0 -44 -32 -75.5t-76 -31.5q-46 0 -76 31t-30 76z" />
<glyph unicode="&#xf9;" horiz-adv-x="917" d="M94 262v588h209v-509q0 -68 40.5 -112t110.5 -44q64 0 112 45.5t48 106.5v513h198v-850h-198v67q-81 -53 -113.5 -66t-94.5 -13q-138 0 -225 77.5t-87 196.5zM238 1170h214l109 -208h-146z" />
<glyph unicode="&#xfa;" horiz-adv-x="917" d="M94 262v588h209v-509q0 -68 40.5 -112t110.5 -44q64 0 112 45.5t48 106.5v513h198v-850h-198v67q-81 -53 -113.5 -66t-94.5 -13q-138 0 -225 77.5t-87 196.5zM345 962l109 208h214l-176 -208h-147z" />
<glyph unicode="&#xfb;" horiz-adv-x="917" d="M94 262v588h209v-509q0 -68 40.5 -112t110.5 -44q64 0 112 45.5t48 106.5v513h198v-850h-198v67q-81 -53 -113.5 -66t-94.5 -13q-138 0 -225 77.5t-87 196.5zM195 962l149 208h218l148 -208h-146l-110 84l-113 -84h-146z" />
<glyph unicode="&#xfc;" horiz-adv-x="917" d="M94 262v588h209v-509q0 -68 40.5 -112t110.5 -44q64 0 112 45.5t48 106.5v513h198v-850h-198v67q-81 -53 -113.5 -66t-94.5 -13q-138 0 -225 77.5t-87 196.5zM187 1088q0 44 30 73t77 29q44 0 76 -30t32 -72q0 -44 -32.5 -75.5t-75.5 -31.5q-46 0 -76.5 31t-30.5 76z M502 1088q0 44 30 73t76 29q44 0 76 -30t32 -72q0 -44 -32 -75.5t-76 -31.5q-46 0 -76 31t-30 76z" />
<glyph unicode="&#xfd;" horiz-adv-x="946" d="M23 854h215l250 -587l220 587h215l-443 -1178h-214l124 324zM365 962l109 208h214l-176 -208h-147z" />
<glyph unicode="&#xff;" horiz-adv-x="946" d="M23 854h215l250 -587l220 587h215l-443 -1178h-214l124 324zM207 1088q0 44 30 73t77 29q44 0 76 -30t32 -72q0 -44 -32.5 -75.5t-75.5 -31.5q-46 0 -76.5 31t-30.5 76zM522 1088q0 44 30 73t76 29q44 0 76 -30t32 -72q0 -44 -32 -75.5t-76 -31.5q-46 0 -76 31t-30 76z " />
<glyph unicode="&#x2c6;" horiz-adv-x="734" d="M110 962l149 208h218l148 -208h-146l-110 84l-113 -84h-146z" />
<glyph unicode="&#x2dc;" horiz-adv-x="782" d="M124 990q0 104 53 165q46 50 110 49q64 0 120 -35q56 -36 79 -36q39 0 43 70h131q0 -92 -42 -151q-46 -67 -126 -65q-50 0 -113 37q-62 36 -78 36q-42 0 -46 -70h-131z" />
<glyph unicode="&#x2000;" horiz-adv-x="760" />
<glyph unicode="&#x2001;" horiz-adv-x="1521" />
<glyph unicode="&#x2002;" horiz-adv-x="760" />
<glyph unicode="&#x2003;" horiz-adv-x="1521" />
<glyph unicode="&#x2004;" horiz-adv-x="507" />
<glyph unicode="&#x2005;" horiz-adv-x="380" />
<glyph unicode="&#x2006;" horiz-adv-x="253" />
<glyph unicode="&#x2007;" horiz-adv-x="253" />
<glyph unicode="&#x2008;" horiz-adv-x="190" />
<glyph unicode="&#x2009;" horiz-adv-x="304" />
<glyph unicode="&#x200a;" horiz-adv-x="84" />
<glyph unicode="&#x2010;" horiz-adv-x="480" d="M35 473v208h411v-208h-411z" />
<glyph unicode="&#x2011;" horiz-adv-x="480" d="M35 473v208h411v-208h-411z" />
<glyph unicode="&#x2012;" horiz-adv-x="480" d="M35 473v208h411v-208h-411z" />
<glyph unicode="&#x2013;" horiz-adv-x="1093" d="M35 473v208h1024v-208h-1024z" />
<glyph unicode="&#x2014;" horiz-adv-x="2117" d="M35 473v208h2048v-208h-2048z" />
<glyph unicode="&#x202f;" horiz-adv-x="304" />
<glyph unicode="&#x205f;" horiz-adv-x="380" />
<glyph unicode="&#x25fc;" horiz-adv-x="854" d="M0 0v854h854v-854h-854z" />
</font>
</defs>
</svg>
