<?xml version="1.0" standalone="no"?>
<!DOCTYPE svg PUBLIC "-//W3C//DTD SVG 1.1//EN" "http://www.w3.org/Graphics/SVG/1.1/DTD/svg11.dtd" >
<svg xmlns="http://www.w3.org/2000/svg" xmlns:xlink="http://www.w3.org/1999/xlink" version="1.1">
<metadata></metadata>
<defs>
<font id="russian_road_signmedium" horiz-adv-x="588" >
<font-face units-per-em="1000" ascent="800" descent="-200" />
<missing-glyph horiz-adv-x="500" />
<glyph horiz-adv-x="0" />
<glyph horiz-adv-x="333" />
<glyph unicode=" "  horiz-adv-x="500" />
<glyph unicode="&#x09;" horiz-adv-x="500" />
<glyph unicode="&#xa0;" horiz-adv-x="500" />
<glyph unicode="!" horiz-adv-x="252" d="M187 56q0 -26 -17.5 -43.5t-43.5 -17.5t-43.5 17.5t-17.5 43.5t17.5 43.5t43.5 17.5t43.5 -17.5t17.5 -43.5zM94 182q-27 280 -27 322q0 22 13.5 40.5t45.5 18.5t45.5 -18.5t13.5 -40.5q0 -19 -6.5 -99.5t-13.5 -151.5l-7 -71h-64z" />
<glyph unicode="&#x22;" horiz-adv-x="378" d="M77 364l-14 196h98l-14 -196h-70zM231 364l-14 196h98l-14 -196h-70z" />
<glyph unicode="#" horiz-adv-x="694" d="M259 336l-14 -112h112l14 112h-112zM196 560h98l-21 -140h112l21 140h98l-21 -140h77v-84h-91l-14 -112h77v-84h-91l-21 -140h-98l21 140h-112l-21 -140h-98l21 140h-77v84h91l14 112h-77v84h91z" />
<glyph unicode="$" d="M88 84l69 57q6 -7 17.5 -17.5t50.5 -28.5t83 -18q60 0 86 26.5t26 50.5v6v7q0 11 -3.5 20t-15 20t-39 21t-68.5 17q-46 8 -80 22.5t-51.5 29.5t-28 35t-13 34.5t-2.5 32.5q0 74 57.5 124.5t145.5 50.5q44 0 91 -19t73 -39l25 -19l-63 -70q-5 6 -14 15.5t-42 25t-70 15.5 q-56 0 -80.5 -27.5t-24.5 -56.5q0 -17 10.5 -29t30.5 -20t42.5 -14t52.5 -12q7 -1 11 -2q75 -16 118 -57.5t43 -103.5q0 -60 -60 -117.5t-157 -57.5q-56 0 -111 24.5t-82 49.5zM302 -70h-45v672h45v-672zM380 -70h-44v672h44v-672z" />
<glyph unicode="%" horiz-adv-x="494" d="M359 513l56 -32l-273 -490l-56 32zM336 183q39 0 67 -28t28 -67t-28 -67t-67 -28t-67 28t-28 67t28 67t67 28zM336 119q-14 0 -22.5 -8.5t-8.5 -22.5t8.5 -22.5t22.5 -8.5t22.5 8.5t8.5 22.5t-8.5 22.5t-22.5 8.5zM158 503q39 0 67 -28t28 -67t-28 -67t-67 -28t-67 28 t-28 67t28 67t67 28zM158 439q-14 0 -22.5 -8.5t-8.5 -22.5t8.5 -22.5t22.5 -8.5t22.5 8.5t8.5 22.5t-8.5 22.5t-22.5 8.5z" />
<glyph unicode="&#x26;" horiz-adv-x="609" d="M294 574q63 0 101.5 -41.5t38.5 -84.5q0 -77 -103 -154l90 -127q21 18 39 59l65 -48q-19 -38 -57 -78l71 -100h-112l-28 40q-72 -54 -147 -54q-82 0 -135.5 41.5t-53.5 112.5q0 30 10 56.5t23 43.5t36 33t37.5 24t38.5 19l-33 48q-28 21 -28 84q0 50 41 88t106 38z M294 492q-17 0 -36.5 -12t-19.5 -40q0 -13 14 -34l39 -55q57 50 57 94q0 21 -20 34t-34 13zM252 253q-49 -25 -72.5 -55t-23.5 -58t25.5 -49t70.5 -21q50 0 102 36z" />
<glyph unicode="'" horiz-adv-x="245" d="M121 446q19 0 37 -14q22 -18 22 -68q0 -31 -19 -59t-37 -41l-19 -12l-7 17q44 27 44 62v7q-8 -4 -21 -4q-23 0 -39.5 16.5t-16.5 39.5t16.5 39.5t39.5 16.5z" />
<glyph unicode="(" horiz-adv-x="364" d="M287 539q-5 -5 -12.5 -14.5t-26.5 -42t-34 -69t-27 -95.5t-12 -122t11.5 -121.5t28 -97t33 -68t28.5 -43.5l11 -13l-63 -35q-6 6 -16 16.5t-35 47.5t-44.5 78t-35.5 105t-16 131t15 130.5t37 106t43.5 76t36.5 49.5l15 16z" />
<glyph unicode=")" horiz-adv-x="364" d="M77 539q5 -5 12.5 -14.5t26.5 -42t34 -69t27 -95.5t12 -122t-11.5 -121.5t-28 -97t-33 -68t-28.5 -43.5l-11 -13l63 -35q6 6 16 16.5t35 47.5t44.5 78t35.5 105t16 131t-15 130.5t-37 106t-43.5 76t-36.5 49.5l-15 16z" />
<glyph unicode="*" horiz-adv-x="466" d="M233 504q20 0 44 -6l-16 -114l91 72q33 -33 44 -77l-107 -43l107 -43q-11 -44 -44 -77l-91 72l16 -115q-20 -5 -44 -5q-20 0 -44 6l16 114l-91 -72q-33 33 -44 77l107 43l-107 43q11 44 44 77l91 -72l-16 115q20 5 44 5z" />
<glyph unicode="+" horiz-adv-x="504" d="M210 490h84v-154h154v-84h-154v-154h-84v154h-154v84h154v154z" />
<glyph unicode="," horiz-adv-x="224" d="M112 117q25 0 43 -18t18 -43q0 -10 -7 -27q-3 -10 -32.5 -58.5t-38.5 -61.5h-46l55 87q-23 3 -38 20t-15 40q0 25 18 43t43 18z" />
<glyph unicode="-" horiz-adv-x="336" d="M70 147v91h196v-91h-196z" />
<glyph unicode="." horiz-adv-x="224" d="M173 56q0 -25 -18 -43t-43 -18t-43 18t-18 43t18 43t43 18t43 -18t18 -43z" />
<glyph unicode="/" horiz-adv-x="523" d="M139 -84l342 686h-104l-335 -686h97z" />
<glyph unicode="0" horiz-adv-x="504" d="M252 567q83 0 136 -83t53 -204q0 -126 -52.5 -206.5t-136.5 -80.5t-136.5 80.5t-52.5 206.5t52.5 206.5t136.5 80.5zM252 480q-42 0 -66.5 -49.5t-24.5 -150.5t24.5 -150.5t66.5 -49.5t66.5 49.5t24.5 150.5t-24.5 150.5t-66.5 49.5z" />
<glyph unicode="1" horiz-adv-x="322" d="M11 430l122 130h84v-560h-98v434l-75 -47z" />
<glyph unicode="2" horiz-adv-x="490" d="M70 483q74 84 182 84q60 0 110.5 -43t50.5 -104q0 -50 -10 -75t-39 -61q-20 -25 -47.5 -54.5t-69 -71t-65.5 -67.5h231q0 -39 -21 -91h-336v84q110 100 204 212q22 26 31.5 38.5t18.5 36t9 49.5q0 28 -23 50.5t-58 22.5q-18 0 -38.5 -11t-32.5 -22t-34 -33l-7 -7z" />
<glyph unicode="3" horiz-adv-x="488" d="M63 525q29 17 84.5 33.5t94.5 16.5q56 0 103 -36t47 -91t-34 -94.5t-78 -45.5q23 -5 51.5 -18.5t56.5 -47t28 -74.5q0 -69 -56 -125.5t-150 -56.5q-25 0 -60.5 6t-59.5 12l-23 6l-12 98q46 -31 141 -31q51 0 85 23.5t35 69.5q0 12 -3 23.5t-12 26t-30.5 23.5t-53.5 9 q-35 0 -49 -7v77q52 10 89 41.5t37 63.5q0 26 -21.5 44.5t-48.5 18.5q-40 0 -66.5 -10.5t-57.5 -37.5z" />
<glyph unicode="4" horiz-adv-x="510" d="M315 560h84v-364h77l-32 -84h-38v-112h-98v112h-266v84zM308 413l-161 -217h161v217z" />
<glyph unicode="5" horiz-adv-x="492" d="M371 469h-203v-133q26 35 91 35q63 0 115.5 -48t52.5 -127q0 -86 -60 -144.5t-157 -58.5q-28 0 -61 7t-53 14l-19 7l-14 91q41 -28 133 -28q47 0 86.5 28t39.5 77q0 40 -27 72.5t-71 32.5q-19 0 -36 -8.5t-31 -20t-17 -13.5l-63 35v273h322z" />
<glyph unicode="6" horiz-adv-x="511" d="M280 569q25 0 54.5 -5.5t47.5 -11.5l17 -6l14 -85q-56 29 -119 29q-35 0 -61.5 -19.5t-39.5 -47t-20.5 -55.5t-8.5 -48l-2 -19q73 60 132 60q19 0 41.5 -7.5t47.5 -24.5t41.5 -51.5t16.5 -81.5q0 -83 -53 -143t-122 -60q-90 0 -143 71.5t-53 201.5q0 81 21 147.5t70 111 t119 44.5zM280 280q-22 0 -51 -17.5t-47 -34.5l-18 -18q1 -5 3 -13.5t10 -30.5t17 -38.5t25 -30t34 -13.5q43 0 70 35.5t27 76.5q0 38 -23 61t-47 23z" />
<glyph unicode="7" horiz-adv-x="450" d="M49 469l21 91h336v-70q-67 -133 -110.5 -243t-71.5 -247h-105q37 220 189 469h-259z" />
<glyph unicode="8" horiz-adv-x="504" d="M252 567q73 0 124 -38.5t51 -108.5q0 -27 -10 -50.5t-24.5 -36.5t-29 -22.5t-24.5 -12.5l-10 -4q5 -2 12.5 -5.5t26.5 -16t34 -27t27 -39.5t12 -52q0 -62 -46.5 -111.5t-142.5 -49.5t-142.5 49.5t-46.5 111.5q0 27 11.5 51.5t28 40t33 27t28.5 16.5l11 5q-4 1 -10.5 3.5 t-23.5 12.5t-30 23t-23.5 36.5t-10.5 50.5q0 70 51 108.5t124 38.5zM252 487q-77 0 -77 -67q0 -19 19.5 -40t38.5 -32l19 -12q9 5 21.5 13t34 30t21.5 41q0 67 -77 67zM252 252q-4 -2 -10 -6t-21.5 -16.5t-27.5 -24.5t-22 -28t-10 -30q0 -34 27.5 -52t63.5 -18t63.5 18 t27.5 52q0 25 -22.5 51t-45.5 40z" />
<glyph unicode="9" horiz-adv-x="504" d="M210 -10q-25 0 -54.5 8t-47.5 16l-17 7l-11 86q60 -33 123 -33q35 0 62 19t39.5 46t20.5 54.5t9 46.5l2 19q-70 -56 -133 -56q-19 0 -40 7t-45 23t-39.5 50t-15.5 81q0 84 50 146.5t118 62.5q92 0 147.5 -68.5t55.5 -196.5q0 -88 -21.5 -157.5t-73.5 -115t-129 -45.5z M224 287q31 0 58.5 17.5t39.5 34.5l11 17q-18 127 -88 127q-43 0 -67 -35t-24 -77q0 -39 23 -61.5t47 -22.5z" />
<glyph unicode=":" horiz-adv-x="224" d="M173 56q0 -25 -18 -43t-43 -18t-43 18t-18 43t18 43t43 18t43 -18t18 -43zM173 336q0 -25 -18 -43t-43 -18t-43 18t-18 43t18 43t43 18t43 -18t18 -43z" />
<glyph unicode=";" horiz-adv-x="224" d="M173 336q0 -25 -18 -43t-43 -18t-43 18t-18 43t18 43t43 18t43 -18t18 -43zM112 117q25 0 43 -18t18 -43q0 -10 -7 -27q-3 -10 -32.5 -58.5t-38.5 -61.5h-46l55 87q-23 3 -38 20t-15 40q0 25 18 43t43 18z" />
<glyph unicode="&#x3c;" horiz-adv-x="504" d="M448 504v-91l-280 -112l-22 -7l22 -7l280 -112v-91l-392 168v84z" />
<glyph unicode="=" horiz-adv-x="504" d="M56 168v84h392v-84h-392zM56 336v84h392v-84h-392z" />
<glyph unicode="&#x3e;" horiz-adv-x="504" d="M56 84v91l280 112l22 7l-22 7l-280 112v91l392 -168v-84z" />
<glyph unicode="?" horiz-adv-x="476" d="M135 56q0 61 61 61t61 -61t-61 -61t-61 61zM154 175l2 15q3 14 13.5 39t26.5 46q11 15 40.5 45t47 54t17.5 46q0 34 -21 52t-49 18q-11 0 -22.5 -2t-20 -5t-18.5 -9t-15.5 -9.5t-15.5 -12t-13 -11t-12.5 -12.5t-10.5 -11l-57 65q84 84 185 84q77 0 122.5 -33.5 t45.5 -99.5q0 -26 -7.5 -49.5t-23 -45t-26 -33.5t-31.5 -31.5t-24 -22.5q-10 -10 -16.5 -18t-10 -17.5t-4.5 -12.5t-2.5 -15t-1.5 -14h-98z" />
<glyph unicode="@" horiz-adv-x="633" d="M453 358q-127 -7 -127 -74q0 -31 20 -46.5t36 -15.5q19 0 36.5 14.5t26 29t8.5 18.5v74zM537 390v-134q0 -15 6 -23t11.5 -9.5t15.5 -1.5h1h1l-35 -70q-41 0 -60 11.5t-24 50.5q-31 -62 -92 -62q-47 0 -86.5 34t-39.5 92q0 41 26 70t67 42.5t68 19t52 7.5q-2 16 -9 24 q-22 26 -47.5 39t-67.5 13q-69 0 -126 -61.5t-57 -151.5q0 -89 55.5 -151t117.5 -62q56 0 92 38l74 -59q-6 -7 -18 -17t-55 -26.5t-93 -16.5q-113 0 -180.5 84.5t-67.5 209.5t67.5 209.5t180.5 84.5q70 0 124.5 -33.5t85.5 -91.5q13 -23 13 -59z" />
<glyph unicode="A" horiz-adv-x="616" d="M238 196h140l-70 238zM252 560h112l182 -560h-105l-35 112h-196l-35 -112h-105z" />
<glyph unicode="B" horiz-adv-x="560" d="M91 560h217q74 0 119 -47t45 -107q0 -33 -22 -65t-58 -47q98 -37 98 -126q0 -69 -52 -118.5t-129 -49.5h-218v560zM189 476v-144h112q31 0 50.5 20t19.5 52q0 35 -20.5 53.5t-49.5 18.5h-112zM189 252v-168h119q39 0 61.5 25.5t22.5 58.5t-22.5 58.5t-61.5 25.5h-119z " />
<glyph unicode="C" horiz-adv-x="560" d="M294 574q144 0 203 -154l-94 -35q-29 98 -109 98q-59 0 -96 -55t-37 -148t37 -148t96 -55q80 0 109 98l94 -35q-59 -154 -203 -154q-111 0 -169.5 82.5t-58.5 211.5t58.5 211.5t169.5 82.5z" />
<glyph unicode="D" d="M280 560q113 0 177.5 -78t64.5 -202t-64.5 -202t-177.5 -78h-189v560h189zM273 476h-84v-392h84q62 0 104.5 50.5t42.5 145.5t-42.5 145.5t-104.5 50.5z" />
<glyph unicode="E" horiz-adv-x="539" d="M91 0v560h350v-91h-252v-133h203v-84h-203v-168h259v-84h-357z" />
<glyph unicode="F" horiz-adv-x="511" d="M91 0v560h357v-91h-259v-147h203v-84h-203v-238h-98z" />
<glyph unicode="G" d="M308 574q144 0 203 -154l-94 -35q-29 98 -109 98q-59 0 -96 -55t-37 -148t37 -148t96 -55q49 0 77 28q22 22 28.5 38.5t6.5 52.5h-98v84h203v-280h-84l-21 49q-44 -63 -112 -63q-111 0 -174 83.5t-63 210.5t63 210.5t174 83.5z" />
<glyph unicode="H" d="M91 0v560h98v-224h210v224h98v-560h-98v252h-210v-252h-98z" />
<glyph unicode="I" horiz-adv-x="280" d="M91 0v560h98v-560h-98z" />
<glyph unicode="J" horiz-adv-x="392" d="M42 98q42 -14 91 -14q24 0 43.5 18t19.5 52v406h98v-434q0 -54 -42.5 -97t-111.5 -43q-16 0 -42 3.5t-44 6.5l-19 4z" />
<glyph unicode="K" horiz-adv-x="583" d="M403 0l-209 296l195 264h126l-201 -263l215 -297h-126zM193 560v-560h-98v560h98z" />
<glyph unicode="L" horiz-adv-x="504" d="M91 0v560h98v-476h252v-84h-350z" />
<glyph unicode="M" horiz-adv-x="700" d="M84 0v560h112l154 -259l154 259h112v-560h-91l-7 406l-168 -294l-168 294v-406h-98z" />
<glyph unicode="N" d="M84 0v560h112l210 -399v399h98v-560h-112l-210 406v-406h-98z" />
<glyph unicode="O" d="M294 574q111 0 169.5 -83t58.5 -211t-58.5 -211t-169.5 -83t-169.5 83t-58.5 211t58.5 211t169.5 83zM294 483q-59 0 -96 -55t-37 -148t37 -148t96 -55t96 55t37 148t-37 148t-96 55z" />
<glyph unicode="P" horiz-adv-x="560" d="M91 560h189q62 0 105.5 -30.5t60 -70t16.5 -81.5t-16.5 -81.5t-60 -70t-105.5 -30.5h-91v-196h-98v560zM189 476v-196h63q47 0 79.5 24.5t32.5 73.5t-32.5 73.5t-79.5 24.5h-63z" />
<glyph unicode="Q" d="M294 574q110 0 168 -82.5t58 -211.5q0 -160 -82 -239l31 -55l-81 -45l-27 54q-30 -9 -67 -9q-110 0 -168 82.5t-58 211.5t58 211.5t168 82.5zM294 483q-59 0 -95 -55t-36 -148t36 -148t95 -55q12 0 24 3l-37 74l72 37l35 -60q37 56 37 149t-36 148t-95 55z" />
<glyph unicode="R" horiz-adv-x="616" d="M98 560h189q49 0 85.5 -15.5t55 -40.5t26.5 -49.5t8 -48.5q0 -54 -29.5 -92t-75.5 -55q31 -7 58 -45.5t43.5 -81.5t38 -83t42.5 -49h-119q-12 16 -34 68t-32 71q-2 3 -5 10q-10 20 -16.5 30t-17.5 22.5t-26.5 17.5t-36.5 5h-56v-224h-98v560zM196 476v-168h63 q46 0 75.5 21t29.5 63t-29.5 63t-75.5 21h-63z" />
<glyph unicode="S" horiz-adv-x="586" d="M88 84l69 59q6 -7 18 -18t51.5 -29.5t83.5 -18.5q56 0 83 26.5t27 50.5v1q0 12 -2.5 21t-13 23.5t-38.5 25.5t-72 17q-55 8 -92.5 27.5t-54 44.5t-22.5 45t-6 40q0 74 57.5 124.5t145.5 50.5q44 0 91 -19t73 -39l25 -19l-65 -70q-6 6 -16.5 15.5t-43 25t-64.5 15.5 q-56 0 -80.5 -27t-24.5 -55q0 -14 7 -25.5t17.5 -18.5t29 -13t33.5 -9.5t40 -8.5q13 -3 20 -4q75 -16 117 -57.5t42 -103.5q0 -61 -59 -118t-156 -57q-56 0 -111 24.5t-82 49.5z" />
<glyph unicode="T" horiz-adv-x="532" d="M63 560h406v-84h-154v-476h-98v476h-154v84z" />
<glyph unicode="U" d="M91 560h98v-385q0 -52 33.5 -78.5t71.5 -26.5t71.5 26.5t33.5 78.5v385h98v-378q0 -8 -2 -23t-13.5 -46t-31 -56t-60.5 -44.5t-96 -19.5t-96 19.5t-60.5 44.5t-31 56t-13.5 46t-2 23v378z" />
<glyph unicode="V" horiz-adv-x="581" d="M231 0l-161 560h112l112 -420l112 420h105l-154 -560h-126z" />
<glyph unicode="W" horiz-adv-x="812" d="M189 560l78 -391h6l84 391h98l91 -397l77 397h105l-119 -560h-112l-91 369l-91 -369h-112l-119 560h105z" />
<glyph unicode="X" horiz-adv-x="544" d="M181 560l91 -175l91 175h125l-160 -266l174 -294h-118l-112 203l-112 -203h-118l174 294l-160 266h125z" />
<glyph unicode="Y" d="M245 0v224l-175 336h112l112 -231l112 231h112l-175 -336v-224h-98z" />
<glyph unicode="Z" horiz-adv-x="560" d="M91 0v91l252 385h-245v84h364v-91l-252 -385h259v-84h-378z" />
<glyph unicode="[" horiz-adv-x="329" d="M77 -84v672h175v-84h-84v-504h84v-84h-175z" />
<glyph unicode="\" horiz-adv-x="523" d="M384 -84l-342 686h104l335 -686h-97z" />
<glyph unicode="]" horiz-adv-x="329" d="M252 -84v672h-175v-84h84v-504h-84v-84h175z" />
<glyph unicode="^" horiz-adv-x="452" d="M263 616l119 -168h-54l-102 98l-102 -98h-54l119 168h74z" />
<glyph unicode="_" horiz-adv-x="500" d="M0 -84h500v-55h-500v55z" />
<glyph unicode="`" horiz-adv-x="292" d="M156 588h-91l111 -147h51z" />
<glyph unicode="a" horiz-adv-x="476" d="M238 406q66 0 110 -42.5t44 -97.5v-175q0 -16 6.5 -24.5t12.5 -9.5t16 -1l-35 -70q-41 0 -60 12t-24 51q-12 -24 -42.5 -43.5t-69.5 -19.5q-47 0 -86.5 33.5t-39.5 92.5q0 32 14 55.5t35 36.5t49.5 22.5t52.5 12.5t50.5 6.5t36.5 6.5v21q0 23 -24.5 43t-59.5 20 q-53 0 -105 -47l-42 68q82 49 161 49zM308 189q-8 -3 -50.5 -9t-69.5 -19.5t-27 -41.5q0 -32 19.5 -47.5t36.5 -15.5q19 0 41.5 14.5t36 29.5t13.5 19v70z" />
<glyph unicode="b" horiz-adv-x="497" d="M266 -14q-31 0 -55.5 14t-33.5 28l-9 14q-10 -18 -14 -42h-70v560h84v-203q0 4 12 15.5t36.5 22.5t49.5 11q15 0 34.5 -4.5t45 -19t46 -36.5t35 -61t14.5 -89q0 -60 -17 -103.5t-45 -65t-56 -31.5t-57 -10zM266 63q38 0 64.5 36t26.5 97q0 62 -26.5 101t-64.5 39 q-28 0 -55.5 -15t-42.5 -41v-147q16 -32 42 -51t56 -19z" />
<glyph unicode="c" horiz-adv-x="476" d="M252 406q59 0 103.5 -31.5t64.5 -87.5l-79 -30q-23 79 -89 79q-43 0 -70.5 -39t-27.5 -101t27.5 -101t70.5 -39q66 0 89 79l79 -30q-20 -56 -64.5 -87.5t-103.5 -31.5q-80 0 -134.5 58.5t-54.5 151.5t54.5 151.5t134.5 58.5z" />
<glyph unicode="d" horiz-adv-x="497" d="M259 -14q-29 0 -57 10t-56 31.5t-45 65t-17 103.5q0 50 14.5 89t35 61t46 36.5t45 19t34.5 4.5q25 0 49.5 -11t36.5 -22.5t12 -15.5v203h84v-560h-70q-4 24 -14 42q-1 -2 -3.5 -6t-11 -13.5t-19 -17t-27.5 -13.5t-37 -6zM259 63q30 0 56 19t42 51v147q-15 26 -42.5 41 t-55.5 15q-38 0 -64.5 -39t-26.5 -101q0 -61 26.5 -97t64.5 -36z" />
<glyph unicode="e" horiz-adv-x="504" d="M252 336q-33 0 -62 -29t-29 -69h175q7 0 7 14q0 30 -29.5 57t-61.5 27zM413 168h-252q0 -56 34.5 -80.5t70.5 -24.5q25 0 43 12.5t41 40.5l70 -39q-29 -48 -73.5 -69.5t-87.5 -21.5q-80 0 -135.5 57.5t-55.5 148.5q0 96 40 144q26 32 65 51t79 19q73 0 127.5 -58.5 t54.5 -137.5q0 -16 -6 -29t-15 -13z" />
<glyph unicode="f" horiz-adv-x="364" d="M126 0v315h-63v77h63v77q0 38 30.5 64.5t81.5 26.5q22 0 44.5 -3.5t34.5 -6.5l12 -4l-21 -70q-14 7 -49 7q-25 0 -37 -12.5t-12 -29.5v-49h98v-77h-98v-315h-84z" />
<glyph unicode="g" horiz-adv-x="483" d="M245 406q20 0 37 -6t28 -14t18.5 -16t11.5 -14l3 -6q9 15 14 42h70v-413q0 -74 -54 -116t-128 -42q-64 0 -117 17t-72 36l35 63q23 -15 65.5 -30t88.5 -15q35 0 66.5 24t31.5 63v63q0 -5 -10.5 -17.5t-35 -25.5t-52.5 -13t-57 9t-60.5 30t-51.5 65t-20 106q0 59 19 103 t49.5 65.5t60.5 31.5t60 10zM245 329q-40 0 -72.5 -37t-32.5 -96q0 -60 33 -100t72 -40q19 0 33.5 5.5t26 17.5t18 21t16.5 26q3 5 4 7v126q-16 32 -42 51t-56 19z" />
<glyph unicode="h" horiz-adv-x="469" d="M294 399q57 0 88 -32.5t31 -86.5v-280h-84v273q0 20 -14 38t-42 18q-29 0 -55 -22t-43 -55v-252h-84v560h84v-224q6 7 16 17.5t41 28t62 17.5z" />
<glyph unicode="i" horiz-adv-x="252" d="M187 521q0 -25 -18 -43t-43 -18t-43 18t-18 43t18 43t43 18t43 -18t18 -43zM84 0v392h84v-392h-84z" />
<glyph unicode="j" horiz-adv-x="252" d="M187 521q0 -25 -18 -43t-43 -18t-43 18t-18 43t18 43t43 18t43 -18t18 -43zM84 392h84v-462q0 -43 -29 -70.5t-55 -27.5t-37.5 0.5t-27.5 3.5t-33 10l21 70q19 -3 33 -3q44 0 44 31v448zM84 392h84h-84z" />
<glyph unicode="k" horiz-adv-x="474" d="M98 560h84v-346l130 178h103l-135 -185l138 -207h-105l-131 209v-209h-84v560z" />
<glyph unicode="l" horiz-adv-x="321" d="M98 560h84v-455q0 -35 35 -35q9 0 19.5 2t16.5 4l6 1l14 -77q-21 -7 -56 -7h-42q-77 0 -77 70v497z" />
<glyph unicode="m" horiz-adv-x="672" d="M280 399q40 0 67 -19t38 -51q10 31 44.5 50.5t74.5 19.5q56 0 84 -32t28 -87v-280h-84v273q0 22 -10.5 39t-38.5 17q-52 0 -91 -77v-252h-84v273q0 22 -10.5 39t-38.5 17q-52 0 -91 -77v-252h-84v392h72q6 -32 14 -46q4 6 13 15t37.5 23.5t59.5 14.5z" />
<glyph unicode="n" horiz-adv-x="469" d="M294 399q57 0 88 -32.5t31 -86.5v-280h-84v273q0 20 -14 38t-42 18q-29 0 -55 -22t-43 -55v-252h-84v392h72q6 -32 14 -46q5 6 15 15t40.5 23.5t61.5 14.5z" />
<glyph unicode="o" horiz-adv-x="504" d="M252 406q80 0 131 -58t51 -152t-51 -152t-131 -58t-131 58t-51 152t51 152t131 58zM252 336q-43 0 -70.5 -39t-27.5 -101t27.5 -101t70.5 -39q42 0 70 39t28 101t-28 101t-70 39z" />
<glyph unicode="p" horiz-adv-x="497" d="M266 406q29 0 57 -10t56 -31.5t45 -65t17 -103.5q0 -50 -14.5 -89t-35 -61t-46 -36.5t-45 -19t-34.5 -4.5q-25 0 -49.5 11t-36.5 22.5t-12 15.5v-203h-84v560h70q4 -24 14 -42q1 2 3.5 6t11 13.5t19 17t27.5 13.5t37 6zM266 329q-30 0 -56 -19t-42 -51v-147 q15 -26 42.5 -41t55.5 -15q38 0 64.5 39t26.5 101q0 61 -26.5 97t-64.5 36z" />
<glyph unicode="q" horiz-adv-x="497" d="M259 406q31 0 55.5 -14t33.5 -28l9 -14q10 18 14 42h70v-560h-84v203q0 -4 -12 -15.5t-36.5 -22.5t-49.5 -11q-15 0 -34.5 4.5t-45 19t-46 36.5t-35 61t-14.5 89q0 60 17 103.5t45 65t56 31.5t57 10zM259 329q-38 0 -64.5 -36t-26.5 -97q0 -62 26.5 -101t64.5 -39 q28 0 55.5 15t42.5 41v147q-16 32 -42 51t-56 19z" />
<glyph unicode="r" horiz-adv-x="406" d="M280 399q25 0 38 -2.5t25 -11.5l-28 -84q-14 14 -56 14q-59 0 -91 -63v-252h-84v392h72q6 -32 14 -46q4 6 13 15t37.5 23.5t59.5 14.5z" />
<glyph unicode="s" horiz-adv-x="447" d="M62 56l55 56q18 -17 50 -34.5t63 -17.5q27 0 48.5 15.5t21.5 36.5q0 19 -17.5 31.5t-72.5 21.5q-127 21 -127 115q0 46 43 85t111 39q41 0 78.5 -14t54.5 -28l16 -14l-49 -56q-13 13 -41 26.5t-52 13.5q-34 0 -54 -14t-20 -31q0 -7 2.5 -13t8 -10.5t11.5 -8t16 -6.5 t17 -5t20.5 -5t20.5 -5q69 -18 97 -43.5t28 -71.5t-44 -87.5t-110 -41.5q-50 0 -93.5 16.5t-62.5 33.5z" />
<glyph unicode="t" horiz-adv-x="392" d="M203 560v-168h112v-77h-112v-203q0 -19 15.5 -30t33.5 -12h3q35 0 57 14l17 -77q-42 -14 -84 -14q-57 0 -91.5 24t-34.5 74v224h-56v77h56v133z" />
<glyph unicode="u" horiz-adv-x="469" d="M210 -7q-57 0 -88 32.5t-31 86.5v280h84v-273q0 -20 14 -38t42 -18q29 0 55 22t43 55v252h84v-392h-72q-6 32 -14 46q-5 -6 -15 -15t-40.5 -23.5t-61.5 -14.5z" />
<glyph unicode="v" horiz-adv-x="448" d="M175 0l-126 392h94l81 -273l81 273h94l-126 -392h-98z" />
<glyph unicode="w" horiz-adv-x="679" d="M175 0l-112 392h94l71 -266l66 266h91l66 -266l71 266h94l-119 -392h-98l-63 252l-63 -252h-98z" />
<glyph unicode="x" horiz-adv-x="448" d="M161 392l63 -112l63 112h105l-119 -184l133 -208h-98l-84 140l-84 -140h-98l133 208l-119 184h105z" />
<glyph unicode="y" horiz-adv-x="490" d="M84 -84q17 -8 33 -8q37 0 60 49q5 12 14 43l-135 392h98l84 -236l77 236h98l-161 -483q-15 -35 -47 -56t-65 -21q-28 0 -70 7z" />
<glyph unicode="z" horiz-adv-x="467" d="M98 0v77l182 238h-182v77h280v-84l-175 -231h182v-77h-287z" />
<glyph unicode="{" horiz-adv-x="364" d="M56 238h35q22 0 35.5 32.5t13.5 93.5q0 81 34 135t78 54h56v-63h-28q-18 0 -30 -11t-17.5 -34.5t-7 -47.5t-1.5 -61q0 -32 -8.5 -56t-25 -39t-28.5 -22.5t-30.5 -15t-19.5 -7.5q2 -1 14.5 -6t23 -9.5t25 -16t24.5 -24.5t17.5 -35t7.5 -49q0 -83 13.5 -118.5t42.5 -35.5 h28v-70h-56q-43 0 -77.5 57t-34.5 139q0 61 -13.5 93.5t-35.5 32.5h-35v84z" />
<glyph unicode="|" horiz-adv-x="245" d="M168 -84h-91v672h91v-672z" />
<glyph unicode="}" horiz-adv-x="364" d="M308 147h-35q-22 0 -35.5 -32.5t-13.5 -93.5q0 -81 -34 -135t-78 -54h-56v63h28q18 0 30 11t17.5 34.5t7 47.5t1.5 61q0 32 8.5 56t25 39t28.5 22.5t30.5 15t19.5 7.5q-2 1 -14.5 6t-23 9.5t-25 16t-24.5 24.5t-17.5 35t-7.5 49q0 83 -13.5 118.5t-42.5 35.5h-28v70h56 q43 0 77.5 -57t34.5 -139q0 -61 13.5 -93.5t35.5 -32.5h35v-84z" />
<glyph unicode="~" horiz-adv-x="393" d="M50 504q5 6 13.5 15t31.5 24t42 15q23 0 63 -26t52 -26q24 0 60 36l31 -31l-6 -7q-6 -7 -12 -13t-16 -14t-19 -14t-20 -10.5t-21 -4.5q-23 0 -63 25.5t-52 25.5q-27 0 -53 -26z" />
<glyph unicode="&#xa8;" horiz-adv-x="406" d="M356 518q0 -25 -18 -43t-43 -18t-43 18t-18 43t18 43t43 18t43 -18t18 -43zM172 518q0 -25 -18 -43t-43 -18t-43 18t-18 43t18 43t43 18t43 -18t18 -43z" />
<glyph unicode="&#xa9;" horiz-adv-x="728" d="M362 447q32 0 57 -4q49 -7 90 -39t61 -77l-94 -26q-17 42 -57 63q-23 10 -52 10q-52 0 -87 -31q-45 -41 -47 -111v-9q0 -69 41 -112q36 -37 93 -37q6 0 22 2q30 3 53.5 23t32.5 49l93 -29q-18 -43 -59 -75q-55 -43 -142 -43q-3 0 -9.5 0.5t-9.5 0.5q-95 3 -150 60 q-60 60 -60 161v9q2 98 64 157q61 58 160 58zM364 532q128 0 218 -90.5t90 -218t-90 -217.5t-218 -90t-218 90t-90 217.5t90 218t218 90.5zM364 504q-116 0 -198 -82t-82 -198t82 -198t198 -82t198 82t82 198t-82 198t-198 82z" />
<glyph unicode="&#xab;" horiz-adv-x="392" d="M175 224l98 168h63l-98 -168l98 -168h-63zM48 224l98 168h64l-98 -168l98 -168h-64z" />
<glyph unicode="&#xad;" horiz-adv-x="336" d="M70 147v91h196v-91h-196z" />
<glyph unicode="&#xb4;" horiz-adv-x="292" d="M136 588h91l-111 -147h-51z" />
<glyph unicode="&#xb8;" horiz-adv-x="217" d="M67 0h56l-6 -35q6 -2 14 -7t22 -23.5t14 -41.5q0 -19 -10 -39.5t-19.5 -32.5t-38.5 -45l-42 21q45 42 45 84q0 22 -13 36t-26 17l-13 3z" />
<glyph unicode="&#xbb;" horiz-adv-x="392" d="M217 224l-98 168h-63l98 -168l-98 -168h63zM344 224l-98 168h-64l98 -168l-98 -168h64z" />
<glyph unicode="&#x400;" horiz-adv-x="539" d="M220 781h-90l110 -147h52zM91 0v560h350v-91h-252v-133h203v-84h-203v-168h259v-84h-357z" />
<glyph unicode="&#x401;" horiz-adv-x="539" d="M422 686q0 -25 -18 -43t-43 -18t-43 18t-18 43t18 43t43 18t43 -18t18 -43zM238 686q0 -25 -18 -43t-43 -18t-43 18t-18 43t18 43t43 18t43 -18t18 -43zM91 0v560h350v-91h-252v-133h203v-84h-203v-168h259v-84h-357z" />
<glyph unicode="&#x402;" horiz-adv-x="640" d="M63 560h366v-84h-134v-134q44 15 107 15q72 0 109.5 -29.5t37.5 -82.5v-241q0 -54 -42.5 -97t-111.5 -43q-16 0 -42 3.5t-45 6.5l-18 4l7 98q42 -14 91 -14q24 0 43.5 18t19.5 52v177q0 57 -49 57q-59 0 -107 -17v-249h-98v476h-134v84z" />
<glyph unicode="&#x403;" horiz-adv-x="497" d="M312 781h90l-110 -147h-52zM91 0v560h350v-84h-252v-476h-98z" />
<glyph unicode="&#x404;" horiz-adv-x="560" d="M504 483q-35 35 -53.5 50t-55.5 28t-87 13q-115 0 -176.5 -75t-61.5 -212q0 -139 62 -220t176 -81q65 0 104.5 20.5t84.5 70.5l-70 70q-25 -45 -52 -61t-67 -16q-56 0 -95 46t-43 136h173v84h-172q16 154 137 154q39 0 63.5 -14t55.5 -56z" />
<glyph unicode="&#x405;" horiz-adv-x="586" d="M88 84l69 59q6 -7 18 -18t51.5 -29.5t83.5 -18.5q56 0 83 26.5t27 50.5v1q0 12 -2.5 21t-13 23.5t-38.5 25.5t-72 17q-55 8 -92.5 27.5t-54 44.5t-22.5 45t-6 40q0 74 57.5 124.5t145.5 50.5q44 0 91 -19t73 -39l25 -19l-65 -70q-6 6 -16.5 15.5t-43 25t-64.5 15.5 q-56 0 -80.5 -27t-24.5 -55q0 -14 7 -25.5t17.5 -18.5t29 -13t33.5 -9.5t40 -8.5q13 -3 20 -4q75 -16 117 -57.5t42 -103.5q0 -61 -59 -118t-156 -57q-56 0 -111 24.5t-82 49.5z" />
<glyph unicode="&#x406;" horiz-adv-x="280" d="M91 0v560h98v-560h-98z" />
<glyph unicode="&#x407;" horiz-adv-x="280" d="M293 686q0 -25 -18 -43t-43 -18t-43 18t-18 43t18 43t43 18t43 -18t18 -43zM109 686q0 -25 -18 -43t-43 -18t-43 18t-18 43t18 43t43 18t43 -18t18 -43zM91 0v560h98v-560h-98z" />
<glyph unicode="&#x408;" horiz-adv-x="392" d="M42 98q42 -14 91 -14q24 0 43.5 18t19.5 52v406h98v-434q0 -54 -42.5 -97t-111.5 -43q-16 0 -42 3.5t-44 6.5l-19 4z" />
<glyph unicode="&#x409;" horiz-adv-x="789" d="M478 84h59q98 0 98 84q0 42 -25.5 66.5t-72.5 24.5h-59v-175zM54 80q4 1 10.5 3t23 10.5t30.5 19t26.5 29t16.5 40.5q7 42 7 378h310v-217h80q50 0 86 -15t54.5 -40t26.5 -51t8 -55q0 -28 -10.5 -58t-31 -59t-59 -47t-88.5 -18h-164v476h-114q0 -210 -7 -280 q-6 -55 -27.5 -97t-48 -62t-52.5 -33t-43 -16l-18 -2z" />
<glyph unicode="&#x40a;" horiz-adv-x="779" d="M91 0v560h98v-224h170v224h98v-217h91q50 0 86 -15t54.5 -40t26.5 -51t8 -55q0 -28 -10.5 -58t-31 -59t-59 -47t-88.5 -18h-175v252h-170v-252h-98zM457 84h70q98 0 98 84q0 42 -25.5 66.5t-72.5 24.5h-70v-175z" />
<glyph unicode="&#x40b;" horiz-adv-x="640" d="M63 476v84h366v-84h-134v-134q48 15 107 15q72 0 109.5 -29.5t37.5 -82.5v-245h-98v209q0 57 -49 57q-59 0 -107 -17v-249h-98v476h-134z" />
<glyph unicode="&#x40c;" d="M288 781h92l-112 -147h-50zM84 0v560h98v-209q2 -2 11 -2q28 0 53.5 22t47 53.5t44.5 64t57 57t74 28.5l21 -98q-11 0 -20.5 -1.5t-17.5 -5.5t-13.5 -7.5t-12.5 -11.5l-10.5 -12t-11.5 -15.5t-12 -16.5q-3 -4 -12.5 -16t-14.5 -19t-14 -18t-15.5 -17.5t-14.5 -13.5 t-14.5 -10.5t-12.5 -3.5q15 -1 27 -5t23 -12t17.5 -13.5t16.5 -19.5t13.5 -19.5t14.5 -25t14 -24.5q8 -14 29 -52t32 -56.5t29.5 -43t35.5 -37.5h-122q-9 18 -51 88.5t-58 100.5q-20 36 -40.5 53t-50.5 17l-42 -3v-256h-98z" />
<glyph unicode="&#x40d;" d="M248 781h-90l110 -147h52zM91 0v560h98v-385l203 385h105v-560h-98v385l-203 -385h-105z" />
<glyph unicode="&#x40e;" horiz-adv-x="560" d="M126 742h70q0 -33 22 -55t62 -22t62 22t22 55h63q0 -49 -40 -94.5t-107 -45.5q-68 0 -111 46t-43 94zM56 560h105l133 -294l112 294h105l-182 -469q-15 -39 -55 -66t-78 -27q-37 0 -49 5l-21 88q28 -7 56 -7q25 0 46 19.5t21 36.5q0 9 -48.5 114t-96.5 206z" />
<glyph unicode="&#x40f;" d="M91 0v560h98v-476h210v476h98v-560h-154l-14 -112h-70l-14 112h-154z" />
<glyph unicode="&#x410;" horiz-adv-x="616" d="M238 196h140l-70 238zM252 560h112l182 -560h-105l-35 112h-196l-35 -112h-105z" />
<glyph unicode="&#x411;" horiz-adv-x="567" d="M91 0v560h357v-84h-259v-140h119q50 0 87 -16t57 -42t29 -53.5t9 -56.5q0 -62 -50 -115t-146 -53h-203zM189 84h98q49 0 77 21.5t28 62.5t-28 62.5t-77 21.5h-98v-168z" />
<glyph unicode="&#x412;" horiz-adv-x="560" d="M91 560h217q74 0 119 -47t45 -107q0 -33 -22 -65t-58 -47q98 -37 98 -126q0 -69 -52 -118.5t-129 -49.5h-218v560zM189 476v-144h112q31 0 50.5 20t19.5 52q0 35 -20.5 53.5t-49.5 18.5h-112zM189 252v-168h119q39 0 61.5 25.5t22.5 58.5t-22.5 58.5t-61.5 25.5h-119z " />
<glyph unicode="&#x413;" horiz-adv-x="497" d="M91 0v560h350v-84h-252v-476h-98z" />
<glyph unicode="&#x414;" horiz-adv-x="616" d="M49 84h63q22 56 42.5 176t20.5 216v84h329v-476h63v-182h-84v98h-350v-98h-84v182zM207 84h199v392h-133q0 -100 -19 -212t-47 -180z" />
<glyph unicode="&#x415;" horiz-adv-x="539" d="M91 0v560h350v-91h-252v-133h203v-84h-203v-168h259v-84h-357z" />
<glyph unicode="&#x416;" horiz-adv-x="896" d="M49 0q22 17 40.5 45t43 76.5t35.5 67.5q3 6 14 24.5t14.5 24.5t13 20t16.5 19t17.5 13t22 11t25.5 4q-32 4 -95 101q-18 26 -27 37t-27 20.5t-44 9.5l28 94q55 -3 91 -35q27 -24 57 -73.5t56 -81t59 -31.5h3q3 0 7 2v212h98v-212q4 -2 7 -2h3q33 0 59 31.5t56 81t57 73.5 q36 32 91 35l28 -94q-37 0 -55 -14.5t-43 -52.5q-63 -97 -95 -101q14 -1 25.5 -4t22 -11t17.5 -13t16.5 -19t13 -20t14.5 -24.5t14 -24.5q11 -19 35.5 -67.5t43 -76.5t40.5 -45h-126l-105 189q-40 70 -77 70l-42 -3v-256h-98v256q-28 3 -42 3q-37 0 -77 -70 q-12 -21 -36.5 -65.5t-42 -76t-26.5 -47.5h-126z" />
<glyph unicode="&#x417;" horiz-adv-x="524" d="M213 252v84h63q37 0 56 24t19 46q0 10 -3.5 21t-12 25t-27.5 22.5t-46 8.5q-44 0 -79 -13.5t-48 -27.5l-13 -13l-53 82q9 7 25.5 17.5t67 28t100.5 17.5q82 0 131 -44.5t49 -109.5q0 -29 -10 -53t-24 -37t-28 -21.5t-24 -11.5l-10 -3l12.5 -2.5t27.5 -11.5t35 -23.5 t27.5 -41t12.5 -61.5q0 -59 -55 -113.5t-151 -54.5q-33 0 -66.5 7.5t-57.5 19t-43.5 22.5t-29.5 19l-9 7l59 79q6 -7 17 -17.5t50.5 -28t86.5 -17.5q42 0 70.5 24t28.5 60q0 41 -24 66t-61 25h-63z" />
<glyph unicode="&#x418;" d="M91 0v560h98v-385l203 385h105v-560h-98v385l-203 -385h-105z" />
<glyph unicode="&#x419;" d="M91 0v560h98v-385l203 385h105v-560h-98v385l-203 -385h-105zM140 742h70q0 -33 22 -55t62 -22t62 22t22 55h63q0 -49 -40 -94.5t-107 -45.5q-68 0 -111 46t-43 94z" />
<glyph unicode="&#x41a;" d="M84 0v560h98v-209q2 -2 11 -2q28 0 53.5 22t47 53.5t44.5 64t57 57t74 28.5l21 -98q-11 0 -20.5 -1.5t-17.5 -5.5t-13.5 -7.5t-12.5 -11.5l-10.5 -12t-11.5 -15.5t-12 -16.5q-3 -4 -12.5 -16t-14.5 -19t-14 -18t-15.5 -17.5t-14.5 -13.5t-14.5 -10.5t-12.5 -3.5 q15 -1 27 -5t23 -12t17.5 -13.5t16.5 -19.5t13.5 -19.5t14.5 -25t14 -24.5q8 -14 29 -52t32 -56.5t29.5 -43t35.5 -37.5h-122q-9 18 -51 88.5t-58 100.5q-20 36 -40.5 53t-50.5 17l-42 -3v-256h-98z" />
<glyph unicode="&#x41b;" horiz-adv-x="609" d="M54 80q4 1 10.5 3t23 10.5t30.5 19t26.5 29t16.5 40.5q7 42 7 378h350v-560h-98v476h-154q0 -210 -7 -280q-6 -55 -27.5 -97t-48 -62t-52.5 -33t-43 -16l-18 -2z" />
<glyph unicode="&#x41c;" horiz-adv-x="700" d="M63 0l63 560h98l126 -273l126 273h98l63 -560h-105l-35 413l-147 -329l-147 329l-35 -413h-105z" />
<glyph unicode="&#x41d;" d="M91 0v560h98v-224h210v224h98v-560h-98v252h-210v-252h-98z" />
<glyph unicode="&#x41e;" d="M294 574q111 0 169.5 -83t58.5 -211t-58.5 -211t-169.5 -83t-169.5 83t-58.5 211t58.5 211t169.5 83zM294 483q-59 0 -96 -55t-37 -148t37 -148t96 -55t96 55t37 148t-37 148t-96 55z" />
<glyph unicode="&#x41f;" d="M91 0v560h406v-560h-98v476h-210v-476h-98z" />
<glyph unicode="&#x420;" horiz-adv-x="560" d="M91 560h189q62 0 105.5 -30.5t60 -70t16.5 -81.5t-16.5 -81.5t-60 -70t-105.5 -30.5h-91v-196h-98v560zM189 476v-196h63q47 0 79.5 24.5t32.5 73.5t-32.5 73.5t-79.5 24.5h-63z" />
<glyph unicode="&#x421;" horiz-adv-x="560" d="M294 574q144 0 203 -154l-94 -35q-29 98 -109 98q-59 0 -96 -55t-37 -148t37 -148t96 -55q80 0 109 98l94 -35q-59 -154 -203 -154q-111 0 -169.5 82.5t-58.5 211.5t58.5 211.5t169.5 82.5z" />
<glyph unicode="&#x422;" horiz-adv-x="532" d="M63 560h406v-84h-154v-476h-98v476h-154v84z" />
<glyph unicode="&#x423;" horiz-adv-x="560" d="M56 560h105l133 -294l112 294h105l-182 -469q-15 -39 -55 -66t-78 -27q-37 0 -49 5l-21 88q28 -7 56 -7q25 0 46 19.5t21 36.5q0 9 -48.5 114t-96.5 206z" />
<glyph unicode="&#x424;" horiz-adv-x="700" d="M63 287q0 84 64 147t174 63v63h98v-63q110 0 174 -63t64 -147q0 -86 -62 -148t-176 -62v-77h-98v77q-114 0 -176 62t-62 148zM154 287q0 -58 42 -95.5t105 -37.5v266q-64 0 -105.5 -37.5t-41.5 -95.5zM399 154q63 0 105 37.5t42 95.5t-41.5 95.5t-105.5 37.5v-266z" />
<glyph unicode="&#x425;" horiz-adv-x="544" d="M181 560l91 -175l91 175h125l-160 -266l174 -294h-118l-112 203l-112 -203h-118l174 294l-160 266h125z" />
<glyph unicode="&#x426;" d="M63 0v560h98v-476h210v476h98v-476h63v-196h-84v112h-385z" />
<glyph unicode="&#x427;" horiz-adv-x="560" d="M77 315v245h98v-209q0 -57 49 -57q89 0 147 35v231h98v-560h-98v238q-44 -35 -147 -35q-72 0 -109.5 29.5t-37.5 82.5z" />
<glyph unicode="&#x428;" horiz-adv-x="784" d="M84 0v560h98v-476l161 1v475h98v-476h161v476h98v-560h-616z" />
<glyph unicode="&#x429;" horiz-adv-x="819" d="M84 0v560h98v-476h161v476h98v-476h161v476h98v-476h63v-196h-84v112h-595z" />
<glyph unicode="&#x42a;" horiz-adv-x="616" d="M49 476v84h217v-217h119q50 0 86 -15t54.5 -40t26.5 -51t8 -55q0 -28 -10.5 -58t-31 -59t-59 -47t-88.5 -18h-203v476h-119zM266 84h98q98 0 98 84q0 42 -25.5 66.5t-72.5 24.5h-98v-175z" />
<glyph unicode="&#x42b;" horiz-adv-x="714" d="M525 0v560h98v-560h-98zM91 0v560h98v-217h119q50 0 86 -15t54.5 -40t26.5 -51t8 -55q0 -28 -10.5 -58t-31 -59t-59 -47t-88.5 -18h-203zM189 84h98q98 0 98 84q0 42 -25.5 66.5t-72.5 24.5h-98v-175z" />
<glyph unicode="&#x42c;" horiz-adv-x="539" d="M91 0v560h98v-217h119q50 0 86 -15t54.5 -40t26.5 -51t8 -55q0 -28 -10.5 -58t-31 -59t-59 -47t-88.5 -18h-203zM189 84h98q98 0 98 84q0 42 -25.5 66.5t-72.5 24.5h-98v-175z" />
<glyph unicode="&#x42d;" horiz-adv-x="560" d="M56 483q35 35 53.5 50t55.5 28t87 13q115 0 176.5 -75t61.5 -212q0 -139 -62 -220t-176 -81q-65 0 -104.5 20.5t-84.5 70.5l70 70q25 -45 52 -61t67 -16q56 0 95 46t43 136h-173v84h172q-16 154 -137 154q-39 0 -63.5 -14t-55.5 -56z" />
<glyph unicode="&#x42e;" horiz-adv-x="816" d="M91 0v560h98v-231h96q11 110 69 177.5t157 67.5q111 0 169.5 -83t58.5 -211t-58.5 -211t-169.5 -83q-103 0 -161 72t-66 187h-95v-245h-98zM378 280q0 -93 37 -148t96 -55t96 55t37 148t-37 148t-96 55t-96 -55t-37 -148z" />
<glyph unicode="&#x42f;" d="M42 0q13 7 49.5 72.5t55.5 109.5q11 26 37 50.5t47 29.5q-54 11 -86.5 49t-32.5 95q0 23 9.5 48t28.5 49.5t57 40.5t87 16h203v-560h-98v224h-63q-27 0 -46.5 -11.5t-28.5 -24.5t-22 -39q-3 -7 -5 -10q-53 -104 -73 -139h-119zM210 392q0 -42 29.5 -63t75.5 -21h84v168 h-77q-47 0 -79.5 -21t-32.5 -63z" />
<glyph unicode="&#x430;" horiz-adv-x="476" d="M238 406q66 0 110 -42.5t44 -97.5v-175q0 -16 6.5 -24.5t12.5 -9.5t16 -1l-35 -70q-41 0 -60 12t-24 51q-12 -24 -42.5 -43.5t-69.5 -19.5q-47 0 -86.5 33.5t-39.5 92.5q0 32 14 55.5t35 36.5t49.5 22.5t52.5 12.5t50.5 6.5t36.5 6.5v21q0 23 -24.5 43t-59.5 20 q-53 0 -105 -47l-42 68q82 49 161 49zM308 189q-8 -3 -50.5 -9t-69.5 -19.5t-27 -41.5q0 -32 19.5 -47.5t36.5 -15.5q19 0 41.5 14.5t36 29.5t13.5 19v70z" />
<glyph unicode="&#x431;" horiz-adv-x="511" d="M70 280q0 280 196 280h98q22 0 41 3.5t27 6.5l9 4l-35 -91q-26 -7 -49 -7h-105q-43 0 -74 -47.5t-31 -106.5q35 70 119 70q77 0 126 -53.5t49 -149.5q0 -80 -49 -141.5t-133 -61.5q-55 0 -94 26.5t-58.5 71.5t-28 93t-8.5 103zM168 189q0 -66 29 -99.5t62 -33.5 q36 0 63.5 32.5t27.5 100.5t-27.5 100.5t-63.5 32.5q-33 0 -62 -33.5t-29 -99.5z" />
<glyph unicode="&#x432;" horiz-adv-x="478" d="M84 0v392h196q52 0 85.5 -32t33.5 -80q0 -64 -63 -82q35 -10 53.5 -34t18.5 -52q0 -35 -13.5 -58.5t-36 -34.5t-43 -15t-42.5 -4h-189zM168 231h105q20 0 31 12.5t11 29.5t-11 29.5t-31 12.5h-105v-84zM168 77h105q22 0 35.5 11t13.5 31q0 21 -14 35t-35 14h-105v-91z " />
<glyph unicode="&#x433;" horiz-adv-x="420" d="M91 0v392h273v-77h-189v-315h-84z" />
<glyph unicode="&#x434;" horiz-adv-x="497" d="M35 77h40q58 134 58 315h280v-315h49v-161h-77v84h-266v-84h-84v161zM166 77h163v238h-112q-15 -168 -51 -238z" />
<glyph unicode="&#x435;" horiz-adv-x="504" d="M252 336q-33 0 -62 -29t-29 -69h175q7 0 7 14q0 30 -29.5 57t-61.5 27zM413 168h-252q0 -56 34.5 -80.5t70.5 -24.5q25 0 43 12.5t41 40.5l70 -39q-29 -48 -73.5 -69.5t-87.5 -21.5q-80 0 -135.5 57.5t-55.5 148.5q0 96 40 144q26 32 65 51t79 19q73 0 127.5 -58.5 t54.5 -137.5q0 -16 -6 -29t-15 -13z" />
<glyph unicode="&#x436;" horiz-adv-x="700" d="M49 0q45 68 63 112q39 100 112 105q-17 4 -34 20.5t-30 33.5t-35 30.5t-48 13.5l21 84q30 -2 56 -18.5t45 -39t35.5 -44.5t33 -37.5t32.5 -15.5q5 0 8 1v147h84v-147q3 -1 8 -1q16 0 32.5 15.5t33 37.5t35.5 44.5t45 39t56 18.5l21 -84q-26 0 -48 -13.5t-35 -30.5 t-30 -33.5t-34 -20.5q73 -5 112 -105q18 -44 63 -112h-98q-15 22 -34.5 60t-32 59.5t-33.5 39t-46 17.5q-10 0 -15 -1v-175h-84v175q-5 1 -15 1q-25 0 -46 -17.5t-33.5 -39t-32 -59.5t-34.5 -60h-98z" />
<glyph unicode="&#x437;" horiz-adv-x="465" d="M224 399q74 0 117.5 -27.5t43.5 -77.5q0 -35 -20.5 -60.5t-47.5 -33.5q33 -7 57.5 -29.5t24.5 -65.5q0 -60 -45 -89.5t-116 -29.5q-49 0 -98 17t-80 48l52 57q24 -26 60 -39t66 -13q28 0 50 15.5t22 40.5q0 23 -13 39.5t-38 16.5h-56v63h49q24 0 36.5 12.5t12.5 29.5 q0 28 -25 42t-52 14q-48 0 -102 -39l-38 74q58 35 140 35z" />
<glyph unicode="&#x438;" horiz-adv-x="504" d="M84 0v392h84v-266l161 266h91v-392h-84v266l-161 -266h-91z" />
<glyph unicode="&#x439;" horiz-adv-x="504" d="M84 0v392h84v-266l161 266h91v-392h-84v266l-161 -266h-91zM112 560h70q5 -26 24 -41t46 -15q48 0 70 56h70l-2.5 -12.5t-10.5 -26.5t-23 -34t-41.5 -27t-62.5 -12t-62.5 11.5t-41.5 28t-23 33t-11 27.5z" />
<glyph unicode="&#x43a;" horiz-adv-x="504" d="M91 0v392h84v-140q3 -1 10 -1q21 0 46.5 22t47.5 49t52.5 51t60.5 26l21 -70q-22 -2 -42.5 -17t-33 -33t-30 -34.5t-34.5 -20.5q33 -7 58.5 -34.5t40 -58.5t37 -70t46.5 -61h-105q-14 22 -34 61t-32.5 62t-36 42t-51.5 19q-7 0 -21 -2v-182h-84z" />
<glyph unicode="&#x43b;" horiz-adv-x="504" d="M47 66q47 8 71 53q22 40 22 273h273v-392h-84v315h-112q-1 -19 -1.5 -55t-1.5 -58.5t-5 -55t-14 -54t-26 -44.5t-43 -38t-63 -24z" />
<glyph unicode="&#x43c;" d="M77 0l35 392h84l98 -196l98 196h84l35 -392h-84l-21 273l-112 -224l-112 224l-21 -273h-84z" />
<glyph unicode="&#x43d;" horiz-adv-x="497" d="M91 0v392h84v-147h147v147h84v-392h-84v168h-147v-168h-84z" />
<glyph unicode="&#x43e;" horiz-adv-x="504" d="M252 406q80 0 131 -58t51 -152t-51 -152t-131 -58t-131 58t-51 152t51 152t131 58zM252 336q-43 0 -70.5 -39t-27.5 -101t27.5 -101t70.5 -39q42 0 70 39t28 101t-28 101t-70 39z" />
<glyph unicode="&#x43f;" horiz-adv-x="497" d="M91 0v392h315v-392h-84v315h-147v-315h-84z" />
<glyph unicode="&#x440;" horiz-adv-x="497" d="M266 406q29 0 57 -10t56 -31.5t45 -65t17 -103.5q0 -50 -14.5 -89t-35 -61t-46 -36.5t-45 -19t-34.5 -4.5q-25 0 -49.5 11t-36.5 22.5t-12 15.5v-203h-84v560h70q4 -24 14 -42q1 2 3.5 6t11 13.5t19 17t27.5 13.5t37 6zM266 329q-30 0 -56 -19t-42 -51v-147 q15 -26 42.5 -41t55.5 -15q38 0 64.5 39t26.5 101q0 61 -26.5 97t-64.5 36z" />
<glyph unicode="&#x441;" horiz-adv-x="476" d="M252 406q59 0 103.5 -31.5t64.5 -87.5l-79 -30q-23 79 -89 79q-43 0 -70.5 -39t-27.5 -101t27.5 -101t70.5 -39q66 0 89 79l79 -30q-20 -56 -64.5 -87.5t-103.5 -31.5q-80 0 -134.5 58.5t-54.5 151.5t54.5 151.5t134.5 58.5z" />
<glyph unicode="&#x442;" horiz-adv-x="419" d="M50 315v77h319v-77h-117v-315h-84v315h-118z" />
<glyph unicode="&#x443;" horiz-adv-x="448" d="M42 392h98l91 -259l77 259h98l-161 -483q-15 -35 -47 -56t-65 -21q-7 0 -29 4l-27 80q14 -7 35 -7q55 0 80 91z" />
<glyph unicode="&#x444;" horiz-adv-x="672" d="M70 194q0 51 17 89.5t40 58.5t55 32.5t55 15.5t46 3h11v153h84v-153h11q23 0 46 -3t55 -15.5t55 -32.5t40 -58.5t17 -89.5q0 -50 -17 -87.5t-40 -57.5t-55 -32t-55 -15t-46 -3h-11v-167h-84v167h-11q-23 0 -46 3t-55 15t-55 32t-40 57.5t-17 87.5zM154 196 q0 -55 37 -90.5t82 -35.5h21v252h-21q-45 0 -82 -35.5t-37 -90.5zM378 70h21q45 0 82 35.5t37 90.5t-37 90.5t-82 35.5h-21v-252z" />
<glyph unicode="&#x445;" horiz-adv-x="448" d="M161 392l63 -112l63 112h105l-119 -184l133 -208h-98l-84 140l-84 -140h-98l133 208l-119 184h105z" />
<glyph unicode="&#x446;" horiz-adv-x="504" d="M84 0v392h84v-315h147v315h84v-315h77v-161h-84v84h-308z" />
<glyph unicode="&#x447;" horiz-adv-x="476" d="M77 224v168h84v-168q0 -15 13.5 -25t28.5 -10q42 0 98 28v175h84v-392h-84v147q-47 -28 -105 -28q-52 0 -85.5 25.5t-33.5 79.5z" />
<glyph unicode="&#x448;" horiz-adv-x="658" d="M84 0v392h84v-315h119v315h84v-315h119v315h84v-392h-490z" />
<glyph unicode="&#x449;" horiz-adv-x="672" d="M84 0v392h84v-315h119v315h84v-315h119v315h84v-315h70v-161h-84v84h-476z" />
<glyph unicode="&#x44a;" horiz-adv-x="501" d="M42 315v77h175v-140h91q69 0 103 -36.5t34 -89.5t-34 -89.5t-103 -36.5h-175v315h-91zM217 77h98q20 0 34.5 15.5t14.5 33.5t-14.5 33.5t-34.5 15.5h-98v-98z" />
<glyph unicode="&#x44b;" horiz-adv-x="656" d="M474 0v392h84v-392h-84zM98 0v392h84v-140h98q69 0 103 -36.5t34 -89.5t-34 -89.5t-103 -36.5h-182zM182 77h105q20 0 34.5 15.5t14.5 33.5t-14.5 33.5t-34.5 15.5h-105v-98z" />
<glyph unicode="&#x44c;" horiz-adv-x="473" d="M98 0v392h84v-140h98q69 0 103 -36.5t34 -89.5t-34 -89.5t-103 -36.5h-182zM182 77h105q20 0 34.5 15.5t14.5 33.5t-14.5 33.5t-34.5 15.5h-105v-98z" />
<glyph unicode="&#x44d;" horiz-adv-x="450" d="M59 53l60 52q37 -49 84 -49q38 0 64.5 32.5t26.5 79.5h-126v63h126q0 46 -27 75.5t-64 29.5q-47 0 -84 -49l-57 52q56 67 141 67q79 0 128 -58t49 -152t-49 -152t-128 -58q-94 0 -144 67z" />
<glyph unicode="&#x44e;" horiz-adv-x="672" d="M91 0v392h84v-161h79q9 80 55.5 127.5t117.5 47.5q79 0 127 -57.5t48 -152.5q0 -94 -48 -152t-127 -58q-72 0 -119 49.5t-55 132.5h-78v-168h-84zM336 196q0 -63 24.5 -101.5t66.5 -38.5t66.5 38.5t24.5 101.5t-24.5 101.5t-66.5 38.5t-66.5 -38.5t-24.5 -101.5z" />
<glyph unicode="&#x44f;" horiz-adv-x="483" d="M42 0q15 17 35.5 63t43.5 78.5t54 36.5q-33 9 -58.5 35.5t-25.5 59.5q0 48 32.5 83.5t100.5 35.5h168v-392h-84v156q-9 3 -28 3q-44 0 -72 -29.5t-47.5 -79t-20.5 -50.5h-98zM182 271q0 -17 14.5 -32t34.5 -15h77v91h-77q-21 0 -35 -13t-14 -31z" />
<glyph unicode="&#x450;" horiz-adv-x="504" d="M206 613h-90l110 -147h52zM252 336q-33 0 -62 -29t-29 -69h175q7 0 7 14q0 30 -29.5 57t-61.5 27zM413 168h-252q0 -56 34.5 -80.5t70.5 -24.5q25 0 43 12.5t41 40.5l70 -39q-29 -48 -73.5 -69.5t-87.5 -21.5q-80 0 -135.5 57.5t-55.5 148.5q0 96 40 144q26 32 65 51 t79 19q73 0 127.5 -58.5t54.5 -137.5q0 -16 -6 -29t-15 -13z" />
<glyph unicode="&#x451;" horiz-adv-x="504" d="M161 238h175q7 0 7 14q0 30 -29 57t-59 27q-39 0 -66.5 -24.5t-27.5 -73.5zM68 192q0 96 40 144q26 32 65 51t79 19q73 0 127.5 -58.5t54.5 -137.5q0 -16 -6 -29t-15 -13h-252q0 -56 34.5 -80.5t70.5 -24.5q25 0 43 12.5t41 40.5l68 -39q-71 -91 -152 -91t-139.5 58 t-58.5 148zM402 518q0 -25 -18 -43t-43 -18t-43 18t-18 43t18 43t43 18t43 -18t18 -43zM218 518q0 -25 -18 -43t-43 -18t-43 18t-18 43t18 43t43 18t43 -18t18 -43z" />
<glyph unicode="&#x452;" horiz-adv-x="518" d="M140 560h84v-49h84v-77h-84v-98q6 7 16 17.5t41 28t62 17.5q57 0 88 -32.5t31 -86.5v-350q0 -43 -29.5 -70.5t-55.5 -27.5q-62 0 -97 14l20 70q16 -3 33 -3q45 0 45 31v329q0 20 -14 38t-42 18q-29 0 -55 -22t-43 -55v-252h-84v434h-56v77h56v49z" />
<glyph unicode="&#x453;" horiz-adv-x="420" d="M273 613h91l-111 -147h-51zM91 0v392h273v-77h-189v-315h-84z" />
<glyph unicode="&#x454;" horiz-adv-x="450" d="M391 53l-60 52q-37 -49 -84 -49q-38 0 -64.5 32.5t-26.5 79.5h126v63h-126q0 46 27 75.5t64 29.5q47 0 84 -49l57 52q-56 67 -141 67q-79 0 -128 -58t-49 -152t49 -152t128 -58q94 0 144 67z" />
<glyph unicode="&#x455;" horiz-adv-x="447" d="M62 56l55 56q18 -17 50 -34.5t63 -17.5q27 0 48.5 15.5t21.5 36.5q0 19 -17.5 31.5t-72.5 21.5q-127 21 -127 115q0 46 43 85t111 39q41 0 78.5 -14t54.5 -28l16 -14l-49 -56q-13 13 -41 26.5t-52 13.5q-34 0 -54 -14t-20 -31q0 -7 2.5 -13t8 -10.5t11.5 -8t16 -6.5 t17 -5t20.5 -5t20.5 -5q69 -18 97 -43.5t28 -71.5t-44 -87.5t-110 -41.5q-50 0 -93.5 16.5t-62.5 33.5z" />
<glyph unicode="&#x456;" horiz-adv-x="252" d="M187 521q0 -25 -18 -43t-43 -18t-43 18t-18 43t18 43t43 18t43 -18t18 -43zM84 0v392h84v-392h-84z" />
<glyph unicode="&#x457;" horiz-adv-x="366" d="M336 518q0 -25 -18 -43t-43 -18t-43 18t-18 43t18 43t43 18t43 -18t18 -43zM152 518q0 -25 -18 -43t-43 -18t-43 18t-18 43t18 43t43 18t43 -18t18 -43zM140 0v392h84v-392h-84z" />
<glyph unicode="&#x458;" horiz-adv-x="252" d="M187 521q0 -25 -18 -43t-43 -18t-43 18t-18 43t18 43t43 18t43 -18t18 -43zM84 392h84v-462q0 -43 -29 -70.5t-55 -27.5t-37.5 0.5t-27.5 3.5t-33 10l21 70q19 -3 33 -3q44 0 44 31v448zM84 392h84h-84z" />
<glyph unicode="&#x459;" horiz-adv-x="622" d="M367 77h52q20 0 34.5 15.5t14.5 33.5t-14.5 33.5t-34.5 15.5h-52v-98zM47 66q47 8 71 53q22 40 22 273h227v-140h45q69 0 103 -36.5t34 -89.5t-34 -89.5t-103 -36.5h-129v315h-66q-1 -19 -1.5 -55t-1.5 -58.5t-5 -55t-14 -54t-26 -44.5t-43 -38t-63 -24z" />
<glyph unicode="&#x45a;" horiz-adv-x="613" d="M91 0v392h84v-147h107v147h84v-140h54q69 0 103 -36.5t34 -89.5t-34 -89.5t-103 -36.5h-138v168h-107v-168h-84zM366 77h61q20 0 34.5 15.5t14.5 33.5t-14.5 33.5t-34.5 15.5h-61v-98z" />
<glyph unicode="&#x45b;" horiz-adv-x="518" d="M140 560h84v-49h84v-77h-84v-98q6 7 16 17.5t41 28t62 17.5q57 0 88 -32.5t31 -86.5v-280h-84v273q0 20 -14 38t-42 18q-29 0 -55 -22t-43 -55v-252h-84v434h-56v77h56v49z" />
<glyph unicode="&#x45c;" horiz-adv-x="504" d="M270 613h90l-110 -147h-52zM91 0v392h84v-140q3 -1 10 -1q21 0 46.5 22t47.5 49t52.5 51t60.5 26l21 -70q-22 -2 -42.5 -17t-33 -33t-30 -34.5t-34.5 -20.5q33 -7 58.5 -34.5t40 -58.5t37 -70t46.5 -61h-105q-14 22 -34 61t-32.5 62t-36 42t-51.5 19q-7 0 -21 -2v-182 h-84z" />
<glyph unicode="&#x45d;" horiz-adv-x="504" d="M206 613h-90l110 -147h52zM84 0v392h84v-266l161 266h91v-392h-84v266l-161 -266h-91z" />
<glyph unicode="&#x45e;" horiz-adv-x="448" d="M42 392h98l91 -259l77 259h98l-161 -483q-15 -35 -47 -56t-65 -21q-7 0 -29 4l-27 80q14 -7 35 -7q55 0 80 91zM91 560h70q5 -26 24 -41t46 -15q48 0 70 56h70l-2.5 -12.5t-10.5 -26.5t-23 -34t-41.5 -27t-62.5 -12t-62.5 11.5t-41.5 28t-23 33t-11 27.5z" />
<glyph unicode="&#x45f;" horiz-adv-x="497" d="M91 0v392h84v-315h147v315h84v-392h-112l-7 -84h-70l-7 84h-119z" />
<glyph unicode="&#x462;" horiz-adv-x="546" d="M0 420v84l91 -1v57h99l-1 -56h119v-84h-119v-84h119q50 0 87 -16t57 -42t29 -53.5t9 -56.5q0 -62 -50 -115t-146 -53h-203v419zM189 84h98q49 0 77 21.5t28 62.5t-28 62.5t-77 21.5h-98v-168z" />
<glyph unicode="&#x463;" horiz-adv-x="501" d="M42 315v77h91v168h84v-168h91v-77h-91v-63h91q69 0 103 -36.5t34 -89.5t-34 -89.5t-103 -36.5h-175v315h-91zM217 77h98q20 0 34.5 15.5t14.5 33.5t-14.5 33.5t-34.5 15.5h-98v-98z" />
<glyph unicode="&#x464;" horiz-adv-x="749" d="M693 483q-35 35 -53.5 50t-55.5 28t-87 13q-104 0 -164.5 -61.5t-71.5 -176.5h-72v224h-98v-560h98v252h71q8 -124 69.5 -195t167.5 -71q65 0 104.5 20.5t84.5 70.5l-70 70q-25 -45 -52 -61t-67 -16q-56 0 -95 46t-43 136h173v84h-172q16 154 137 154q39 0 63.5 -14 t55.5 -56z" />
<glyph unicode="&#x465;" horiz-adv-x="618" d="M84 0v392h84v-161h71q9 80 57 127.5t119 47.5q85 0 141 -67l-57 -52q-37 49 -84 49q-37 0 -64 -29.5t-27 -75.5h126v-63h-126q0 -47 26.5 -79.5t64.5 -32.5q47 0 84 49l60 -52q-50 -67 -144 -67q-73 0 -120.5 49.5t-55.5 132.5h-71v-168h-84z" />
<glyph unicode="&#x472;" d="M66 280q0 128 58.5 211t169.5 83q110 0 169 -82t59 -212q0 -128 -58.5 -211t-169.5 -83t-169.5 83t-58.5 211zM163 322h262q-8 75 -43.5 118t-87.5 43t-87.5 -43t-43.5 -118zM162 252q6 -81 42 -128t90 -47t90 47t42 128h-264z" />
<glyph unicode="&#x473;" horiz-adv-x="504" d="M70 196q0 94 51 152t131 58t131 -58t51 -152t-51 -152t-131 -58t-131 58t-51 152zM156 224h192q-6 51 -32 81.5t-64 30.5t-64 -30.5t-32 -81.5zM156 168q6 -51 32 -81.5t64 -30.5t64 30.5t32 81.5h-192z" />
<glyph unicode="&#x474;" horiz-adv-x="623" d="M70 560h112l112 -420l81 302q13 54 56.5 89.5t110.5 42.5l21 -98q-37 0 -60.5 -17.5t-31.5 -45.5l-114 -413h-126z" />
<glyph unicode="&#x475;" horiz-adv-x="490" d="M49 392h94l81 -273l48 161q13 45 51.5 79.5t103.5 39.5l21 -70q-75 -5 -92 -67l-83 -262h-98z" />
<glyph unicode="&#x476;" horiz-adv-x="623" d="M382 781h-91l101 -147h51zM242 781h-91l119 -147h56zM70 560h112l112 -420l81 302q13 54 56.5 89.5t110.5 42.5l21 -98q-37 0 -60.5 -17.5t-31.5 -45.5l-114 -413h-126z" />
<glyph unicode="&#x477;" horiz-adv-x="490" d="M284 613h-91l101 -147h51zM144 613h-91l119 -147h56zM49 392h94l81 -273l48 161q13 45 51.5 79.5t103.5 39.5l21 -70q-75 -5 -92 -67l-83 -262h-98z" />
<glyph unicode="&#x478;" horiz-adv-x="948" d="M542 392h98l91 -259l77 259h98l-161 -483q-15 -35 -47 -56t-65 -21q-7 0 -29 4l-27 80q14 -7 35 -7q55 0 80 91zM294 574q111 0 169.5 -83t58.5 -211t-58.5 -211t-169.5 -83t-169.5 83t-58.5 211t58.5 211t169.5 83zM294 483q-59 0 -96 -55t-37 -148t37 -148t96 -55 t96 55t37 148t-37 148t-96 55z" />
<glyph unicode="&#x479;" horiz-adv-x="848" d="M442 392h98l91 -259l77 259h98l-161 -483q-15 -35 -47 -56t-65 -21q-7 0 -29 4l-27 80q14 -7 35 -7q55 0 80 91zM252 406q80 0 131 -58t51 -152t-51 -152t-131 -58t-131 58t-51 152t51 152t131 58zM252 336q-43 0 -70.5 -39t-27.5 -101t27.5 -101t70.5 -39q42 0 70 39 t28 101t-28 101t-70 39z" />
<glyph unicode="&#x48c;" horiz-adv-x="546" d="M0 420v84l49 -1v57h99l-1 -56h56v-84h-56v-84h119q50 0 87 -16t57 -42t29 -53.5t9 -56.5q0 -25 -2.5 -45t-11.5 -44t-25 -40.5t-45.5 -27.5t-69.5 -11h-245v419zM147 84h98q49 0 77 21.5t28 62.5t-28 62.5t-77 21.5h-98v-168z" />
<glyph unicode="&#x48d;" horiz-adv-x="501" d="M42 315v77h49v168h84v-168h49v-77h-49v-63h91q69 0 103 -36.5t34 -89.5t-34 -89.5t-103 -36.5h-175v315h-49zM175 77h98q20 0 34.5 15.5t14.5 33.5t-14.5 33.5t-34.5 15.5h-98v-98z" />
<glyph unicode="&#x490;" horiz-adv-x="497" d="M91 0v560h266v112h84v-196h-252v-476h-98z" />
<glyph unicode="&#x491;" horiz-adv-x="420" d="M91 0v392h189v84h84v-161h-189v-315h-84z" />
<glyph unicode="&#x492;" horiz-adv-x="526" d="M65 252v56h55v252h350v-84h-252v-168h134v-56h-134v-252h-98v252h-55z" />
<glyph unicode="&#x493;" horiz-adv-x="428" d="M99 392h273v-77h-189v-91h101v-56h-101v-168h-84v168h-64v56h64v168z" />
<glyph unicode="&#x494;" horiz-adv-x="602" d="M273 -169q-71 0 -136 48l52 51q38 -23 73 -23q63 0 103 62.5t40 138.5q0 78 -28.5 122.5t-78.5 44.5q-69 0 -109 -61v-214h-98v560h322v-84h-224v-173q53 58 115 58q98 0 149 -71t51 -179q0 -117 -68 -198.5t-163 -81.5z" />
<glyph unicode="&#x495;" horiz-adv-x="476" d="M252 -169q-79 0 -130 64l60 35q5 -4 12.5 -11t11 -10t10 -6.5t13 -4.5t16.5 -1q41 0 64.5 38.5t23.5 94.5q0 58 -25 92.5t-63 34.5q-53 0 -77 -54v-103h-84v392h252v-77h-168v-123q41 46 100 46q66 0 109 -59.5t43 -150.5t-45 -144t-123 -53z" />
<glyph unicode="&#x496;" horiz-adv-x="910" d="M497 348q4 -2 10 -2q33 0 59 31.5t55.5 81t57.5 73.5q36 32 91 35l28 -94q-37 0 -55 -14.5t-43 -52.5q-63 -97 -95 -101q14 -1 25.5 -4t22 -11t17.5 -13t16.5 -19t13 -20t14.5 -24.5t14 -24.5q11 -19 29.5 -55.5t25.5 -49.5h71l-14 -196h-70l-8 112h-41l-105 189 q-40 70 -77 70l-42 -3v-256h-98v256q-28 3 -42 3q-37 0 -77 -70q-12 -21 -36.5 -65.5t-42 -76t-26.5 -47.5h-126q22 17 40.5 45t43 76.5t35.5 67.5q3 6 14 24.5t14.5 24.5t13 20t16.5 19t17.5 13t22 11t25.5 4q-32 4 -95 101q-18 26 -27 37t-27 20.5t-44 9.5l28 94 q55 -3 91 -35q28 -24 57.5 -73.5t55.5 -81t59 -31.5q6 0 10 2v212h98v-212z" />
<glyph unicode="&#x497;" horiz-adv-x="714" d="M98 399q30 -2 56 -18.5t45 -39t35.5 -44.5t33 -37.5t32.5 -15.5q5 0 8 1v147h84v-147q3 -1 8 -1q16 0 32.5 15.5t33 37.5t35.5 44.5t45 39t56 18.5l21 -84q-26 0 -48 -13.5t-35 -30.5t-30 -33.5t-34 -20.5q73 -5 112 -105q5 -13 17 -35h60l-7 -161h-65l-6 84h-34 q-14 22 -34 60.5t-32 59.5t-33.5 38.5t-46.5 17.5q-10 0 -15 -1v-175h-84v175q-5 1 -15 1q-25 0 -46.5 -17.5t-33.5 -38.5t-32 -59.5t-34 -60.5h-98q45 68 63 112q39 100 112 105q-17 4 -34 20.5t-30 33.5t-35 30.5t-48 13.5z" />
<glyph unicode="&#x498;" horiz-adv-x="524" d="M259 -189q-30 0 -48.5 25.5t-18.5 58.5q0 56 44 92q-48 3 -95 21.5t-69 35.5l-23 17l59 79q6 -7 17 -17.5t50.5 -28t86.5 -17.5q42 0 70.5 24t28.5 60q0 41 -24 66t-61 25h-63v84h63q37 0 56 24t19 46q0 10 -3.5 21t-12 25t-27.5 22.5t-46 8.5q-44 0 -79 -13.5t-48 -27.5 l-13 -13l-53 82q9 7 25.5 17.5t67 28t100.5 17.5q82 0 131 -44.5t49 -109.5q0 -29 -10 -53t-24 -37t-28 -21.5t-24 -11.5l-10 -3l12.5 -2.5t27.5 -11.5t35 -23.5t27.5 -41t12.5 -61.5q0 -56 -50 -108.5t-138 -58.5q-37 -21 -39 -62q10 5 25 5q25 0 42.5 -17.5t17.5 -42.5 t-17.5 -42t-42.5 -17z" />
<glyph unicode="&#x499;" horiz-adv-x="465" d="M248 -175q-27 0 -44.5 23.5t-17.5 53.5q0 50 46 84q-48 1 -95 18t-77 47l52 57q24 -26 60 -39t66 -13q29 0 52.5 15.5t23.5 40.5q0 22 -15 39t-40 17h-56v63h49q24 0 36.5 12.5t12.5 29.5q0 28 -25 42t-52 14q-8 0 -15.5 -0.5t-14 -2.5t-12 -3t-11.5 -4.5t-9.5 -5 t-10 -5.5t-8.5 -5.5t-8.5 -6.5t-8.5 -6l-48 70q65 39 146 39q74 0 117.5 -27.5t43.5 -77.5q0 -34 -20 -57t-48 -31q33 -7 59.5 -31t26.5 -66q0 -55 -40 -86t-103 -36q-34 -27 -35 -62q9 9 23 9q23 0 39.5 -16t16.5 -39q0 -22 -16.5 -38t-39.5 -16z" />
<glyph unicode="&#x49a;" horiz-adv-x="607" d="M182 351q2 -2 11 -2q28 0 53.5 22t47 53.5t44.5 64t57 57t74 28.5l21 -98q-11 0 -20.5 -1.5t-17.5 -5.5t-13.5 -7.5t-12.5 -11.5l-10.5 -12t-11.5 -15.5t-12 -16.5q-3 -4 -12.5 -16t-14.5 -19t-14 -18t-15.5 -17.5t-14.5 -13.5t-14.5 -10.5t-12.5 -3.5q17 -2 31.5 -8 t23.5 -11.5t20.5 -21t16 -22t16.5 -28.5t16 -28q6 -11 27 -48.5t32 -56.5h74l-14 -196h-75l-8 112h-32q-9 18 -51 88.5t-58 100.5q-21 36 -40.5 53t-48.5 17l-42 -3v-256h-98v560h98v-209z" />
<glyph unicode="&#x49b;" horiz-adv-x="508" d="M392 399l21 -70q-22 -2 -42.5 -17t-33 -33t-30 -34.5t-34.5 -20.5q16 -3 30.5 -12t23.5 -17t22 -27t17.5 -26.5t17.5 -33.5t16 -31h59l-7 -161h-69l-6 84h-27q-12 19 -27.5 49t-26.5 51t-25.5 41.5t-33 31.5t-41.5 11q-9 0 -14 -1v-183h-84v392h84v-141h7q23 0 49 23 t46 50.5t49.5 50.5t58.5 24z" />
<glyph unicode="&#x49c;" horiz-adv-x="645" d="M520 572l21 -96q-16 0 -27 -3t-20.5 -11t-14.5 -13.5t-14.5 -20.5t-15.5 -22q-3 -4 -12.5 -16t-14.5 -19t-14 -18t-15.5 -17.5t-14.5 -13.5t-14.5 -10.5t-12.5 -3.5q15 -1 27 -5t23 -12t17.5 -13.5t16.5 -19.5t13.5 -19.5t14.5 -25t14 -24.5q8 -14 29 -52t32 -56.5 t29.5 -43t35.5 -37.5h-122q-9 18 -51 88.5t-58 100.5q-18 31 -48 52.5t-56 21.5h-2v-102h-56v98h-49v-259h-98v560h98v-217h49v98h56v-97q29 7 58 43t51 74.5t60.5 72.5t84.5 38z" />
<glyph unicode="&#x49d;" horiz-adv-x="556" d="M448 399l14 -77q-22 -2 -41 -16.5t-30.5 -32t-30 -33.5t-39.5 -20q43 -7 72.5 -46t57.5 -93.5t56 -80.5h-105q-10 16 -37 71t-50.5 83.5t-52.5 28.5q-6 0 -10 -1v-70h-42v70h-35v-182h-84v392h84v-140h35v70h42v-70q4 0 8 1t8.5 3.5t8 5t8.5 7.5l8 8t9 9.5t9 10t9 11 t9 10.5q23 26 37 40.5t35 28t38 13.5q6 0 9 -1z" />
<glyph unicode="&#x49e;" horiz-adv-x="587" d="M476 574l21 -98q-11 0 -20.5 -1.5t-17.5 -5.5t-13.5 -7.5t-12.5 -11.5l-10.5 -12t-11.5 -15.5t-12 -16.5q-3 -4 -12.5 -16t-14.5 -19t-14 -18t-15.5 -17.5t-14.5 -13.5t-14.5 -10.5t-12.5 -3.5q20 -2 35 -8.5t27 -20.5t18.5 -23.5t19 -33t18.5 -33.5q8 -14 29 -52 t32 -56.5t29.5 -43t35.5 -37.5h-122q-9 18 -51 88.5t-58 100.5q-22 39 -38 54.5t-45 15.5l-42 -3v-256h-98v457h-77v59h77v44h98v-44h81v-59h-81v-106q4 -2 7 -2h4q28 0 53.5 22t47 53.5t44.5 64t57 57t74 28.5z" />
<glyph unicode="&#x49f;" horiz-adv-x="508" d="M95 560h84v-56h115v-56h-115v-196q3 -1 9 -1q17 0 36.5 15.5t38 37t38 44t44 38.5t49.5 17l19 -78h-3q-31 0 -70.5 -48t-62.5 -53q40 -7 66.5 -45t55 -93.5t60.5 -85.5h-107q-15 22 -43 78t-52 81t-59 25q-5 0 -19 -2v-182h-84v448h-70v56h70v56z" />
<glyph unicode="&#x4a0;" horiz-adv-x="638" d="M238 351q2 -2 11 -2q28 0 52.5 22t45.5 53.5t43 64t55.5 57t73.5 28.5l21 -98q-11 0 -20.5 -1.5t-17.5 -5.5t-13.5 -7.5t-12.5 -11.5l-10.5 -12t-11.5 -15.5t-12 -16.5q-3 -4 -12.5 -16t-14.5 -19t-14 -18t-15.5 -17.5t-14.5 -13.5t-14.5 -10.5t-12.5 -3.5q15 -1 27 -5 t23 -12t17.5 -13.5t16.5 -19.5t13.5 -19.5t14.5 -25t14 -24.5q8 -14 29 -52t32 -56.5t29.5 -43t35.5 -37.5h-122q-9 18 -51 88.5t-58 100.5q-22 38 -39 54t-46 16l-42 -3v-256h-98v476h-112v84h210v-209z" />
<glyph unicode="&#x4a1;" horiz-adv-x="518" d="M21 392h168v-140q4 -1 10 -1q19 0 39.5 15.5t40 38t39.5 44.5t46 38t52 16l13 -74q-36 -3 -77.5 -51.5t-64.5 -53.5q33 -7 58.5 -34.5t40 -58.5t37 -70t46.5 -61h-105q-12 19 -27.5 49t-26.5 51t-25.5 41.5t-33 31.5t-41.5 11q-7 0 -21 -2v-182h-84v315h-84v77z" />
<glyph unicode="&#x4a2;" d="M91 560h98v-224h210v224h98v-476h43l-14 -196h-72l-5 112h-50v256h-210v-256h-98v560z" />
<glyph unicode="&#x4a3;" horiz-adv-x="504" d="M91 392h84v-147h147v147h84v-308h49l-11 -168h-65l-8 84h-49v168h-147v-168h-84v392z" />
<glyph unicode="&#x4a4;" horiz-adv-x="685" d="M91 560h98v-224h202v224h238v-84h-140v-476h-98v256h-202v-256h-98v560z" />
<glyph unicode="&#x4a5;" horiz-adv-x="567" d="M91 392h84v-147h147v147h189v-77h-105v-315h-84v168h-147v-168h-84v392z" />
<glyph unicode="&#x4a6;" horiz-adv-x="897" d="M560 -169q-75 0 -140 55l56 51q38 -26 80 -26q64 0 104 63t40 148q0 77 -29.5 117.5t-82.5 40.5q-66 0 -105 -73v-207h-98v476h-196v-476h-98v560h392v-248q59 56 126 56q91 0 140.5 -69t49.5 -175q0 -117 -72 -205t-167 -88z" />
<glyph unicode="&#x4a7;" horiz-adv-x="697" d="M84 392h308v-199q36 41 92 41q67 0 112 -57t45 -141q0 -88 -51 -146.5t-122 -58.5q-79 0 -130 64l60 35q5 -4 12.5 -11t11 -10t10 -6.5t13 -4.5t16.5 -1q42 0 68 37t26 98q0 53 -23.5 90t-60.5 37q-54 0 -79 -47v-112h-84v315h-140v-315h-84v392z" />
<glyph unicode="&#x4a8;" horiz-adv-x="741" d="M203 590l52 -58q-94 -94 -94 -217q0 -60 19 -108.5t50.5 -77.5t66 -45t70.5 -20q-126 107 -126 251q0 112 53 175q28 34 72.5 55.5t84.5 21.5q49 0 80.5 -14.5t66.5 -48.5q34 -33 55.5 -84.5t21.5 -111.5q0 -52 -11.5 -94t-34.5 -74t-40.5 -49.5t-46.5 -41.5q6 -1 18 -1 q17 0 71 18l19 -57q-46 -23 -101 -23q-41 0 -84 17q-33 -17 -84 -17q-151 0 -233 97t-82 232q0 54 12 99t36.5 79.5t42 53t46.5 43.5zM444 490q-50 0 -90 -47q-43 -50 -43 -128q0 -161 139 -237q18 13 31 24t32.5 33t32 44.5t22 56.5t9.5 72q0 100 -49 147q-36 35 -84 35z " />
<glyph unicode="&#x4a9;" horiz-adv-x="579" d="M161 427l46 -53q-60 -63 -60 -150q0 -62 36.5 -106t82.5 -62q-35 35 -49 70.5t-14 97.5q0 65 46.5 122.5t114.5 57.5q75 0 117 -56t42 -131q0 -120 -102 -184h6q28 0 72 25l19 -44q-56 -28 -91 -28q-33 0 -67 14q-26 -14 -66 -14q-110 0 -170.5 69t-60.5 169 q0 53 18.5 97t34 61t45.5 45zM364 334q-37 0 -59.5 -20t-29 -42.5t-6.5 -47.5q0 -115 74 -161q48 19 73.5 61t25.5 93q0 48 -22.5 82.5t-55.5 34.5z" />
<glyph unicode="&#x4aa;" horiz-adv-x="560" d="M289 -188q-30 0 -48.5 25.5t-18.5 58.5q0 56 44 92q-97 11 -148.5 91.5t-51.5 200.5q0 128 58.5 211t169.5 83q64 0 126 -48t77 -127l-91 -31q-9 115 -112 115q-59 0 -96 -55t-37 -148t37 -148t96 -55q41 0 74 31t38 82l90 -30q-11 -74 -65.5 -123.5t-130.5 -50.5 q-34 -21 -36 -60q10 5 25 5q25 0 42.5 -17t17.5 -42t-17.5 -42.5t-42.5 -17.5z" />
<glyph unicode="&#x4ab;" horiz-adv-x="476" d="M248 -175q-28 0 -45 23t-17 54q0 53 40 86q-71 9 -117 66t-46 142q0 93 54.5 151.5t134.5 58.5q59 0 103.5 -31.5t64.5 -87.5l-79 -30q-23 79 -89 79q-43 0 -70.5 -39t-27.5 -101t27.5 -101t70.5 -39q66 0 89 79l79 -30q-20 -56 -64.5 -87.5t-103.5 -31.5h-1 q-24 -24 -26 -61q9 9 23 9q23 0 39.5 -16t16.5 -39q0 -22 -16.5 -38t-39.5 -16z" />
<glyph unicode="&#x4ac;" horiz-adv-x="532" d="M63 560h406v-84h-154v-392h42l-14 -196h-72l-5 112h-49v476h-154v84z" />
<glyph unicode="&#x4ad;" horiz-adv-x="419" d="M50 392h319v-77h-117v-238h47l-17 -161h-57l-7 84h-50v315h-118v77z" />
<glyph unicode="&#x4ae;" d="M245 0v224l-175 336h112l112 -231l112 231h112l-175 -336v-224h-98z" />
<glyph unicode="&#x4af;" horiz-adv-x="448" d="M182 0v168l-133 224h104l71 -143l71 143h104l-133 -224v-168h-84z" />
<glyph unicode="&#x4b0;" d="M70 560h112l112 -231l112 231h112l-175 -336h102v-56h-102v-168h-98v168h-101v56h101z" />
<glyph unicode="&#x4b1;" horiz-adv-x="448" d="M49 392h104l71 -143l71 143h104l-133 -224l-2 -4h72v-42h-70v-122h-84v122h-70v42h72z" />
<glyph unicode="&#x4b2;" horiz-adv-x="581" d="M63 560h126l91 -175l91 175h126l-161 -266l125 -210h64l-14 -196h-75l-8 112h-36l-112 203l-112 -203h-119l175 294z" />
<glyph unicode="&#x4b3;" horiz-adv-x="472" d="M56 392h105l63 -112l63 112h105l-119 -184l84 -131h66l-13 -161h-63l-7 84h-36l-80 140l-80 -140h-102l133 208z" />
<glyph unicode="&#x4b4;" horiz-adv-x="700" d="M63 476v84h350v-84h-126v-392h196v476h98v-476h63v-196h-84v112h-371v476h-126z" />
<glyph unicode="&#x4b5;" d="M70 315v77h280v-77h-98v-238h147v315h84v-315h77v-161h-84v84h-308v315h-98z" />
<glyph unicode="&#x4b6;" horiz-adv-x="573" d="M77 560h98v-209q0 -57 49 -57q89 0 147 35v231h98v-476h48l-14 -196h-75l-8 112h-49v238q-44 -35 -147 -35q-72 0 -109.5 29.5t-37.5 82.5v245z" />
<glyph unicode="&#x4b7;" horiz-adv-x="476" d="M77 392h84v-168q0 -15 13.5 -25t28.5 -10q42 0 98 28v175h84v-315h42l-7 -161h-65l-6 84h-48v147q-47 -28 -105 -28q-52 0 -85.5 25.5t-33.5 79.5v168z" />
<glyph unicode="&#x4b8;" d="M77 560h98v-209q0 -27 14.5 -42t40.5 -15q20 0 30 1v132h56v-125q53 10 83 27v231h98v-560h-98v238q-25 -19 -83 -28v-112h-56v106q-11 -1 -30 -1q-70 0 -111.5 34.5t-41.5 84.5v238z" />
<glyph unicode="&#x4b9;" horiz-adv-x="504" d="M77 392h84v-168q0 -15 15.5 -25t30.5 -10q3 0 10 0.5t11 0.5v90h42v-85q33 7 59 22v175h84v-392h-84v147q-26 -16 -59 -22v-76h-42v71q-4 0 -13.5 -0.5t-14.5 -0.5q-53 0 -88 25.5t-35 79.5v168z" />
<glyph unicode="&#x4ba;" horiz-adv-x="560" d="M469 245v-245h-98v209q0 57 -49 57q-89 0 -147 -35v-231h-98v560h98v-238q44 35 147 35q72 0 109.5 -29.5t37.5 -82.5z" />
<glyph unicode="&#x4bb;" horiz-adv-x="469" d="M294 399q57 0 88 -32.5t31 -86.5v-280h-84v273q0 20 -14 38t-42 18q-29 0 -55 -22t-43 -55v-252h-84v560h84v-224q6 7 16 17.5t41 28t62 17.5z" />
<glyph unicode="&#x4bc;" horiz-adv-x="696" d="M42 420l70 21v-84q0 -32 34 -32h30q10 111 68 180t158 69q111 0 169.5 -82t58.5 -210q0 -8 -6 -17.5t-14 -9.5h-338q4 -84 39.5 -133t90.5 -49q67 0 103 77l83 -42q-57 -122 -186 -122q-105 0 -163 75t-64 194h-55q-30 0 -54 20t-24 54v91zM532 325q-10 73 -45.5 116.5 t-84.5 43.5t-84.5 -43.5t-45.5 -116.5h260z" />
<glyph unicode="&#x4bd;" horiz-adv-x="566" d="M28 308l56 21v-70q0 -11 9 -19.5t19 -8.5h28q6 66 38 105q26 32 64.5 51t77.5 19q73 0 124.5 -58.5t51.5 -137.5q0 -16 -6 -29t-15 -13h-244q0 -56 34.5 -80.5t70.5 -24.5q25 0 43 12.5t41 40.5l70 -39q-29 -48 -73.5 -69.5t-87.5 -21.5q-74 0 -128 50.5t-62 131.5h-47 q-21 0 -42.5 19.5t-21.5 40.5v80zM320 336q-32 0 -60.5 -32t-28.5 -73h171q3 0 3 14q0 31 -27 61t-58 30z" />
<glyph unicode="&#x4be;" horiz-adv-x="696" d="M401 -188q-31 0 -48 24.5t-17 59.5q0 53 45 91q-95 8 -147.5 81.5t-58.5 186.5h-55q-30 0 -54 20t-24 54v91l70 21v-84q0 -32 34 -32h29q10 111 68.5 180t158.5 69q111 0 169.5 -82t58.5 -210q0 -8 -6 -17.5t-14 -9.5h-338q4 -84 39.5 -133t90.5 -49q67 0 103 77l83 -42 q-55 -116 -173 -122q-37 -26 -37 -60q10 5 25 5q24 0 39 -17t15 -42t-16 -42.5t-40 -17.5zM532 325q-10 73 -45.5 116.5t-84.5 43.5t-84.5 -43.5t-45.5 -116.5h260z" />
<glyph unicode="&#x4bf;" horiz-adv-x="566" d="M328 -175q-28 0 -45 23t-17 54q0 52 40 85q-67 8 -113.5 57.5t-53.5 123.5h-47q-21 0 -42.5 19.5t-21.5 40.5v80l56 21v-70q0 -11 9 -19.5t19 -8.5h28q6 66 38 105q26 32 64.5 51t77.5 19q73 0 124.5 -58.5t51.5 -137.5q0 -16 -6 -29t-15 -13h-244q0 -56 34.5 -80.5 t70.5 -24.5q25 0 43 12.5t41 40.5l70 -39q-28 -47 -71.5 -68.5t-86.5 -22.5h-1q-24 -24 -26 -61q9 9 23 9q23 0 39.5 -16t16.5 -39q0 -22 -16.5 -38t-39.5 -16zM320 336q-32 0 -60.5 -32t-28.5 -73h171q3 0 3 14q0 31 -27 61t-58 30z" />
<glyph unicode="&#x4c0;" horiz-adv-x="280" d="M91 0v560h98v-560h-98z" />
<glyph unicode="&#x4c1;" horiz-adv-x="896" d="M368 774q0 -33 21.5 -55t62 -22t62.5 22t22 55h62q0 -30 -15.5 -61t-50.5 -55t-80 -24q-68 0 -111 46t-43 94h70zM49 0q22 17 40.5 45t43 76.5t35.5 67.5q3 6 14 24.5t14.5 24.5t13 20t16.5 19t17.5 13t22 11t25.5 4q-32 4 -95 101q-18 26 -27 37t-27 20.5t-44 9.5l28 94 q55 -3 91 -35q27 -24 57 -73.5t56 -81t59 -31.5h3q3 0 7 2v212h98v-212q4 -2 7 -2h3q33 0 59 31.5t56 81t57 73.5q36 32 91 35l28 -94q-37 0 -55 -14.5t-43 -52.5q-63 -97 -95 -101q14 -1 25.5 -4t22 -11t17.5 -13t16.5 -19t13 -20t14.5 -24.5t14 -24.5q11 -19 35.5 -67.5 t43 -76.5t40.5 -45h-126l-105 189q-40 70 -77 70l-42 -3v-256h-98v256q-28 3 -42 3q-37 0 -77 -70q-12 -21 -36.5 -65.5t-42 -76t-26.5 -47.5h-126z" />
<glyph unicode="&#x4c2;" horiz-adv-x="700" d="M270 606q0 -33 21.5 -55t62 -22t62.5 22t22 55h62q0 -30 -15.5 -61t-50.5 -55t-80 -24q-68 0 -111 46t-43 94h70zM49 0q45 68 63 112q39 100 112 105q-17 4 -34 20.5t-30 33.5t-35 30.5t-48 13.5l21 84q30 -2 56 -18.5t45 -39t35.5 -44.5t33 -37.5t32.5 -15.5q5 0 8 1 v147h84v-147q3 -1 8 -1q16 0 32.5 15.5t33 37.5t35.5 44.5t45 39t56 18.5l21 -84q-26 0 -48 -13.5t-35 -30.5t-30 -33.5t-34 -20.5q73 -5 112 -105q18 -44 63 -112h-98q-15 22 -34.5 60t-32 59.5t-33.5 39t-46 17.5q-10 0 -15 -1v-175h-84v175q-5 1 -15 1q-25 0 -46 -17.5 t-33.5 -39t-32 -59.5t-34.5 -60h-98z" />
<glyph unicode="&#x4c3;" horiz-adv-x="595" d="M182 351q2 -2 11 -2q28 0 53.5 23t47 56t44.5 66.5t57 56.5t74 23l21 -98q-11 0 -20.5 -1.5t-17.5 -5.5t-13.5 -7.5t-12.5 -11.5l-10.5 -12t-11.5 -15.5t-12 -16.5q-3 -4 -12.5 -16t-14.5 -19t-14 -18t-15.5 -17.5t-14.5 -13.5t-14.5 -10.5t-12.5 -3.5q75 -8 142.5 -76.5 t67.5 -140.5v-87q0 -54 -42.5 -97t-111.5 -43q-16 0 -40.5 3.5t-41.5 6.5l-16 4v98q42 -14 91 -14q24 0 43.5 18t19.5 52v45q0 65 -58.5 119t-123.5 63l-42 -3v-256h-98v560h98v-209z" />
<glyph unicode="&#x4c4;" horiz-adv-x="504" d="M392 399l21 -70q-22 -2 -42.5 -17t-33 -33t-30 -34.5t-34.5 -20.5q22 -5 39 -16t33.5 -35t23 -35.5t24.5 -46.5q20 -37 20 -91v-70q0 -43 -29 -70.5t-55 -27.5q-63 0 -98 14l21 70q16 -3 33 -3q44 0 44 31v56q0 28 -21 77q-45 107 -115 107q-6 0 -18 -2v-182h-84v392h84 v-140q3 -1 10 -1q21 0 46.5 22t47 49t52.5 51t61 26z" />
<glyph unicode="&#x4c7;" d="M91 560h98v-224h210v224h98v-556q0 -54 -42.5 -97t-111.5 -43q-16 0 -42 3.5t-45 6.5l-18 4l7 98q42 -14 91 -14q24 0 43.5 18t19.5 52v224h-210v-256h-98v560z" />
<glyph unicode="&#x4c8;" horiz-adv-x="469" d="M98 392h84v-147h147v147h84l-1 -462q0 -43 -29 -70.5t-54 -27.5h-2q-36 0 -54.5 2.5t-42.5 11.5l22 70q19 -3 33 -3q43 0 43 31l1 224h-147v-168h-84v392z" />
<glyph unicode="&#x4cb;" horiz-adv-x="560" d="M77 560h98v-209q0 -57 49 -57q89 0 147 35v231h98v-560h-49l-8 -112h-77l-14 196h50v154q-44 -35 -147 -35q-72 0 -109.5 29.5t-37.5 82.5v245z" />
<glyph unicode="&#x4cc;" horiz-adv-x="476" d="M77 392h84v-168q0 -15 13.5 -25t28.5 -10q42 0 98 28v175h84v-392h-35l-4 -84h-65l-12 161h32v70q-47 -28 -105 -28q-52 0 -85.5 25.5t-33.5 79.5v168z" />
<glyph unicode="&#x4cf;" horiz-adv-x="280" d="M91 0v560h98v-560h-98z" />
<glyph unicode="&#x4d0;" horiz-adv-x="616" d="M228 774q0 -33 21.5 -55t62 -22t62.5 22t22 55h62q0 -30 -15.5 -61t-50.5 -55t-80 -24q-68 0 -111 46t-43 94h70zM238 196h140l-70 238zM252 560h112l182 -560h-105l-35 112h-196l-35 -112h-105z" />
<glyph unicode="&#x4d1;" horiz-adv-x="476" d="M144 606q0 -33 21.5 -55t62 -22t62.5 22t22 55h62q0 -30 -15.5 -61t-50.5 -55t-80 -24q-68 0 -111 46t-43 94h70zM238 406q66 0 110 -42.5t44 -97.5v-175q0 -16 6.5 -24.5t12.5 -9.5t16 -1l-35 -70q-41 0 -60 12t-24 51q-12 -24 -42.5 -43.5t-69.5 -19.5 q-47 0 -86.5 33.5t-39.5 92.5q0 32 14 55.5t35 36.5t49.5 22.5t52.5 12.5t50.5 6.5t36.5 6.5v21q0 23 -24.5 43t-59.5 20q-53 0 -105 -47l-42 68q82 49 161 49zM308 189q-8 -3 -50.5 -9t-69.5 -19.5t-27 -41.5q0 -32 19.5 -47.5t36.5 -15.5q19 0 41.5 14.5t36 29.5t13.5 19 v70z" />
<glyph unicode="&#x4d2;" horiz-adv-x="616" d="M461 695q0 -25 -18 -43t-43 -18t-43 18t-18 43t18 43t43 18t43 -18t18 -43zM277 695q0 -25 -18 -43t-43 -18t-43 18t-18 43t18 43t43 18t43 -18t18 -43zM238 196h140l-70 238zM252 560h112l182 -560h-105l-35 112h-196l-35 -112h-105z" />
<glyph unicode="&#x4d3;" horiz-adv-x="476" d="M377 527q0 -25 -18 -43t-43 -18t-43 18t-18 43t18 43t43 18t43 -18t18 -43zM193 527q0 -25 -18 -43t-43 -18t-43 18t-18 43t18 43t43 18t43 -18t18 -43zM238 406q66 0 110 -42.5t44 -97.5v-175q0 -16 6.5 -24.5t12.5 -9.5t16 -1l-35 -70q-41 0 -60 12t-24 51 q-12 -24 -42.5 -43.5t-69.5 -19.5q-47 0 -86.5 33.5t-39.5 92.5q0 32 14 55.5t35 36.5t49.5 22.5t52.5 12.5t50.5 6.5t36.5 6.5v21q0 23 -24.5 43t-59.5 20q-53 0 -105 -47l-42 68q82 49 161 49zM308 189q-8 -3 -50.5 -9t-69.5 -19.5t-27 -41.5q0 -32 19.5 -47.5t36.5 -15.5 q19 0 41.5 14.5t36 29.5t13.5 19v70z" />
<glyph unicode="&#x4d4;" horiz-adv-x="868" d="M371 560h406v-84h-252v-140h203v-84h-203v-168h252v-84h-343v112h-201l-58 -112h-112zM427 469l-149 -273h149v273z" />
<glyph unicode="&#x4d5;" horiz-adv-x="709" d="M238 406q58 0 103 -42q53 42 116 42q73 0 127.5 -58.5t54.5 -137.5q0 -16 -6 -29t-15 -13h-238v-56q26 -49 91 -49q50 0 92 53l68 -39q-35 -45 -78 -68t-82 -23q-87 0 -145 64q-42 -64 -130 -64q-47 0 -86.5 34t-39.5 92q0 32 12.5 54.5t30 34t45 18t48 8t50 2.5t40.5 2 v42q0 24 -19 43.5t-53 19.5q-53 0 -105 -47l-42 68q82 49 161 49zM546 231q0 42 -27.5 73.5t-62.5 31.5q-50 0 -76 -46v-59h166zM296 168q-11 -2 -33 -2t-38.5 -1t-34 -5t-27 -16t-9.5 -32q0 -28 18 -42t38 -14q19 0 40.5 12.5t33.5 26t12 17.5v56z" />
<glyph unicode="&#x4d6;" horiz-adv-x="539" d="M186 774q0 -33 21.5 -55t62 -22t62.5 22t22 55h62q0 -30 -15.5 -61t-50.5 -55t-80 -24q-68 0 -111 46t-43 94h70zM91 0v560h350v-91h-252v-133h203v-84h-203v-168h259v-84h-357z" />
<glyph unicode="&#x4d7;" horiz-adv-x="504" d="M172 606q0 -33 21.5 -55t62 -22t62.5 22t22 55h62q0 -30 -15.5 -61t-50.5 -55t-80 -24q-68 0 -111 46t-43 94h70zM252 336q-33 0 -62 -29t-29 -69h175q7 0 7 14q0 30 -29.5 57t-61.5 27zM413 168h-252q0 -56 34.5 -80.5t70.5 -24.5q25 0 43 12.5t41 40.5l70 -39 q-29 -48 -73.5 -69.5t-87.5 -21.5q-80 0 -135.5 57.5t-55.5 148.5q0 96 40 144q26 32 65 51t79 19q73 0 127.5 -58.5t54.5 -137.5q0 -16 -6 -29t-15 -13z" />
<glyph unicode="&#x4d8;" d="M294 574q111 0 169.5 -82.5t58.5 -211.5t-58.5 -211.5t-169.5 -82.5t-169.5 82.5t-58.5 211.5v21h360q-4 84 -40.5 133t-91.5 49q-36 0 -65 -21.5t-46 -61.5l-89 36q27 65 77.5 101.5t122.5 36.5zM164 231q10 -72 45 -113t85 -41t85 41t45 113h-260z" />
<glyph unicode="&#x4d9;" horiz-adv-x="504" d="M250 56q38 0 64.5 24.5t26.5 73.5h-182q0 -44 26.5 -71t64.5 -27zM72 224h269q0 56 -34.5 80.5t-70.5 24.5q-25 0 -43 -12.5t-41 -40.5l-68 39q71 91 152 91t139.5 -59t58.5 -151t-40 -140q-26 -32 -65 -51t-79 -19q-73 0 -127.5 58.5t-54.5 137.5q0 22 4 42z" />
<glyph unicode="&#x4da;" d="M447 695q0 -25 -18 -43t-43 -18t-43 18t-18 43t18 43t43 18t43 -18t18 -43zM263 695q0 -25 -18 -43t-43 -18t-43 18t-18 43t18 43t43 18t43 -18t18 -43zM294 574q111 0 169.5 -82.5t58.5 -211.5t-58.5 -211.5t-169.5 -82.5t-169.5 82.5t-58.5 211.5v21h360 q-4 84 -40.5 133t-91.5 49q-36 0 -65 -21.5t-46 -61.5l-89 36q27 65 77.5 101.5t122.5 36.5zM164 231q10 -72 45 -113t85 -41t85 41t45 113h-260z" />
<glyph unicode="&#x4db;" horiz-adv-x="504" d="M389 527q0 -25 -18 -43t-43 -18t-43 18t-18 43t18 43t43 18t43 -18t18 -43zM205 527q0 -25 -18 -43t-43 -18t-43 18t-18 43t18 43t43 18t43 -18t18 -43zM250 56q38 0 64.5 24.5t26.5 73.5h-182q0 -44 26.5 -71t64.5 -27zM72 224h269q0 56 -34.5 80.5t-70.5 24.5 q-25 0 -43 -12.5t-41 -40.5l-68 39q71 91 152 91t139.5 -59t58.5 -151t-40 -140q-26 -32 -65 -51t-79 -19q-73 0 -127.5 58.5t-54.5 137.5q0 22 4 42z" />
<glyph unicode="&#x4dc;" horiz-adv-x="896" d="M601 695q0 -25 -18 -43t-43 -18t-43 18t-18 43t18 43t43 18t43 -18t18 -43zM417 695q0 -25 -18 -43t-43 -18t-43 18t-18 43t18 43t43 18t43 -18t18 -43zM49 0q22 17 40.5 45t43 76.5t35.5 67.5q3 6 14 24.5t14.5 24.5t13 20t16.5 19t17.5 13t22 11t25.5 4q-32 4 -95 101 q-18 26 -27 37t-27 20.5t-44 9.5l28 94q55 -3 91 -35q27 -24 57 -73.5t56 -81t59 -31.5h3q3 0 7 2v212h98v-212q4 -2 7 -2h3q33 0 59 31.5t56 81t57 73.5q36 32 91 35l28 -94q-37 0 -55 -14.5t-43 -52.5q-63 -97 -95 -101q14 -1 25.5 -4t22 -11t17.5 -13t16.5 -19t13 -20 t14.5 -24.5t14 -24.5q11 -19 35.5 -67.5t43 -76.5t40.5 -45h-126l-105 189q-40 70 -77 70l-42 -3v-256h-98v256q-28 3 -42 3q-37 0 -77 -70q-12 -21 -36.5 -65.5t-42 -76t-26.5 -47.5h-126z" />
<glyph unicode="&#x4dd;" horiz-adv-x="700" d="M503 527q0 -25 -18 -43t-43 -18t-43 18t-18 43t18 43t43 18t43 -18t18 -43zM319 527q0 -25 -18 -43t-43 -18t-43 18t-18 43t18 43t43 18t43 -18t18 -43zM49 0q45 68 63 112q39 100 112 105q-17 4 -34 20.5t-30 33.5t-35 30.5t-48 13.5l21 84q30 -2 56 -18.5t45 -39 t35.5 -44.5t33 -37.5t32.5 -15.5q5 0 8 1v147h84v-147q3 -1 8 -1q16 0 32.5 15.5t33 37.5t35.5 44.5t45 39t56 18.5l21 -84q-26 0 -48 -13.5t-35 -30.5t-30 -33.5t-34 -20.5q73 -5 112 -105q18 -44 63 -112h-98q-15 22 -34.5 60t-32 59.5t-33.5 39t-46 17.5q-10 0 -15 -1 v-175h-84v175q-5 1 -15 1q-25 0 -46 -17.5t-33.5 -39t-32 -59.5t-34.5 -60h-98z" />
<glyph unicode="&#x4de;" horiz-adv-x="524" d="M419 695q0 -25 -18 -43t-43 -18t-43 18t-18 43t18 43t43 18t43 -18t18 -43zM235 695q0 -25 -18 -43t-43 -18t-43 18t-18 43t18 43t43 18t43 -18t18 -43zM213 252v84h63q37 0 56 24t19 46q0 10 -3.5 21t-12 25t-27.5 22.5t-46 8.5q-44 0 -79 -13.5t-48 -27.5l-13 -13 l-53 82q9 7 25.5 17.5t67 28t100.5 17.5q82 0 131 -44.5t49 -109.5q0 -29 -10 -53t-24 -37t-28 -21.5t-24 -11.5l-10 -3l12.5 -2.5t27.5 -11.5t35 -23.5t27.5 -41t12.5 -61.5q0 -59 -55 -113.5t-151 -54.5q-33 0 -66.5 7.5t-57.5 19t-43.5 22.5t-29.5 19l-9 7l59 79 q6 -7 17 -17.5t50.5 -28t86.5 -17.5q42 0 70.5 24t28.5 60q0 41 -24 66t-61 25h-63z" />
<glyph unicode="&#x4df;" horiz-adv-x="465" d="M377 527q0 -25 -18 -43t-43 -18t-43 18t-18 43t18 43t43 18t43 -18t18 -43zM193 527q0 -25 -18 -43t-43 -18t-43 18t-18 43t18 43t43 18t43 -18t18 -43zM224 399q74 0 117.5 -27.5t43.5 -77.5q0 -35 -20.5 -60.5t-47.5 -33.5q33 -7 57.5 -29.5t24.5 -65.5 q0 -60 -45 -89.5t-116 -29.5q-49 0 -98 17t-80 48l52 57q24 -26 60 -39t66 -13q28 0 50 15.5t22 40.5q0 23 -13 39.5t-38 16.5h-56v63h49q24 0 36.5 12.5t12.5 29.5q0 28 -25 42t-52 14q-48 0 -102 -39l-38 74q58 35 140 35z" />
<glyph unicode="&#x4e0;" horiz-adv-x="504" d="M238 -14q-53 0 -110.5 31.5t-78.5 73.5l84 42q42 -63 112 -63q45 0 78.5 33.5t33.5 92.5q0 48 -24.5 76.5t-66.5 28.5q-35 0 -56 -21l-56 49l126 147h-182v84h301v-91l-110 -110q19 3 26 3q64 0 98.5 -47.5t34.5 -111.5q0 -92 -58.5 -154.5t-151.5 -62.5z" />
<glyph unicode="&#x4e1;" horiz-adv-x="427" d="M196 -182q-97 0 -151 87l69 35q22 -33 37.5 -45t44.5 -12q41 0 66 39.5t25 98.5q0 49 -22 80.5t-62 31.5q-28 0 -49 -21l-56 49l140 154h-182v77h266v-84l-100 -117q2 0 5 0.5t5 1t3.5 0.5h2.5q66 0 99.5 -45.5t33.5 -126.5q0 -86 -54.5 -144.5t-120.5 -58.5z" />
<glyph unicode="&#x4e2;" d="M161 634v60h266v-60h-266zM91 0v560h98v-385l203 385h105v-560h-98v385l-203 -385h-105z" />
<glyph unicode="&#x4e3;" horiz-adv-x="504" d="M119 466v60h266v-60h-266zM84 0v392h84v-266l161 266h91v-392h-84v266l-161 -266h-91z" />
<glyph unicode="&#x4e4;" d="M447 695q0 -25 -18 -43t-43 -18t-43 18t-18 43t18 43t43 18t43 -18t18 -43zM263 695q0 -25 -18 -43t-43 -18t-43 18t-18 43t18 43t43 18t43 -18t18 -43zM91 0v560h98v-385l203 385h105v-560h-98v385l-203 -385h-105z" />
<glyph unicode="&#x4e5;" horiz-adv-x="504" d="M405 527q0 -25 -18 -43t-43 -18t-43 18t-18 43t18 43t43 18t43 -18t18 -43zM221 527q0 -25 -18 -43t-43 -18t-43 18t-18 43t18 43t43 18t43 -18t18 -43zM84 0v392h84v-266l161 266h91v-392h-84v266l-161 -266h-91z" />
<glyph unicode="&#x4e6;" d="M447 695q0 -25 -18 -43t-43 -18t-43 18t-18 43t18 43t43 18t43 -18t18 -43zM263 695q0 -25 -18 -43t-43 -18t-43 18t-18 43t18 43t43 18t43 -18t18 -43zM294 574q111 0 169.5 -83t58.5 -211t-58.5 -211t-169.5 -83t-169.5 83t-58.5 211t58.5 211t169.5 83zM294 483 q-59 0 -96 -55t-37 -148t37 -148t96 -55t96 55t37 148t-37 148t-96 55z" />
<glyph unicode="&#x4e7;" horiz-adv-x="504" d="M403 518q0 -25 -17.5 -43t-43 -18t-43.5 18t-18 43t18 43t43.5 18t43 -18t17.5 -43zM219 518q0 -25 -17.5 -43t-43 -18t-43.5 18t-18 43t18 43t43.5 18t43 -18t17.5 -43zM252 406q80 0 131 -58t51 -152t-51 -152t-131 -58t-131 58t-51 152t51 152t131 58zM252 336 q-43 0 -70.5 -39t-27.5 -101t27.5 -101t70.5 -39q42 0 70 39t28 101t-28 101t-70 39z" />
<glyph unicode="&#x4e8;" d="M66 280q0 128 58.5 211t169.5 83q110 0 169 -82t59 -212q0 -128 -58.5 -211t-169.5 -83t-169.5 83t-58.5 211zM163 322h262q-8 75 -43.5 118t-87.5 43t-87.5 -43t-43.5 -118zM162 252q6 -81 42 -128t90 -47t90 47t42 128h-264z" />
<glyph unicode="&#x4e9;" horiz-adv-x="504" d="M70 196q0 94 51 152t131 58t131 -58t51 -152t-51 -152t-131 -58t-131 58t-51 152zM156 224h192q-6 51 -32 81.5t-64 30.5t-64 -30.5t-32 -81.5zM156 168q6 -51 32 -81.5t64 -30.5t64 30.5t32 81.5h-192z" />
<glyph unicode="&#x4ea;" d="M447 695q0 -25 -18 -43t-43 -18t-43 18t-18 43t18 43t43 18t43 -18t18 -43zM263 695q0 -25 -18 -43t-43 -18t-43 18t-18 43t18 43t43 18t43 -18t18 -43zM66 280q0 128 58.5 211t169.5 83q110 0 169 -82t59 -212q0 -128 -58.5 -211t-169.5 -83t-169.5 83t-58.5 211z M163 322h262q-8 75 -43.5 118t-87.5 43t-87.5 -43t-43.5 -118zM162 252q6 -81 42 -128t90 -47t90 47t42 128h-264z" />
<glyph unicode="&#x4eb;" horiz-adv-x="504" d="M405 527q0 -25 -18 -43t-43 -18t-43 18t-18 43t18 43t43 18t43 -18t18 -43zM221 527q0 -25 -18 -43t-43 -18t-43 18t-18 43t18 43t43 18t43 -18t18 -43zM70 196q0 94 51 152t131 58t131 -58t51 -152t-51 -152t-131 -58t-131 58t-51 152zM156 224h192q-6 51 -32 81.5 t-64 30.5t-64 -30.5t-32 -81.5zM156 168q6 -51 32 -81.5t64 -30.5t64 30.5t32 81.5h-192z" />
<glyph unicode="&#x4ec;" horiz-adv-x="560" d="M405 695q0 -25 -18 -43t-43 -18t-43 18t-18 43t18 43t43 18t43 -18t18 -43zM221 695q0 -25 -18 -43t-43 -18t-43 18t-18 43t18 43t43 18t43 -18t18 -43zM56 483q35 35 53.5 50t55.5 28t87 13q115 0 176.5 -75t61.5 -212q0 -139 -62 -220t-176 -81q-65 0 -104.5 20.5 t-84.5 70.5l70 70q25 -45 52 -61t67 -16q56 0 95 46t43 136h-173v84h172q-16 154 -137 154q-39 0 -63.5 -14t-55.5 -56z" />
<glyph unicode="&#x4ed;" horiz-adv-x="450" d="M356 527q0 -25 -18 -43t-43 -18t-43 18t-18 43t18 43t43 18t43 -18t18 -43zM172 527q0 -25 -18 -43t-43 -18t-43 18t-18 43t18 43t43 18t43 -18t18 -43zM59 53l60 52q37 -49 84 -49q38 0 64.5 32.5t26.5 79.5h-126v63h126q0 46 -27 75.5t-64 29.5q-47 0 -84 -49l-57 52 q56 67 141 67q79 0 128 -58t49 -152t-49 -152t-128 -58q-94 0 -144 67z" />
<glyph unicode="&#x4ee;" horiz-adv-x="560" d="M150 634v60h266v-60h-266zM56 560h105l133 -294l112 294h105l-182 -469q-15 -39 -55 -66t-78 -27q-37 0 -49 5l-21 88q28 -7 56 -7q25 0 46 19.5t21 36.5q0 9 -48.5 114t-96.5 206z" />
<glyph unicode="&#x4ef;" horiz-adv-x="448" d="M91 466v60h266v-60h-266zM42 392h98l91 -259l77 259h98l-161 -483q-15 -35 -47 -56t-65 -21q-7 0 -29 4l-27 80q14 -7 35 -7q55 0 80 91z" />
<glyph unicode="&#x4f0;" horiz-adv-x="560" d="M426 686q0 -25 -18 -43t-43 -18t-43 18t-18 43t18 43t43 18t43 -18t18 -43zM242 686q0 -25 -18 -43t-43 -18t-43 18t-18 43t18 43t43 18t43 -18t18 -43zM56 560h105l133 -294l112 294h105l-182 -469q-15 -39 -55 -66t-78 -27q-37 0 -49 5l-21 88q28 -7 56 -7 q25 0 46 19.5t21 36.5q0 9 -48.5 114t-96.5 206z" />
<glyph unicode="&#x4f1;" horiz-adv-x="490" d="M390 518q0 -25 -18 -43t-43 -18t-43 18t-18 43t18 43t43 18t43 -18t18 -43zM206 518q0 -25 -18 -43t-43 -18t-43 18t-18 43t18 43t43 18t43 -18t18 -43zM84 -84q17 -8 33 -8q37 0 60 49q5 12 14 43l-135 392h98l84 -236l77 236h98l-161 -483q-15 -35 -47 -56t-65 -21 q-28 0 -70 7z" />
<glyph unicode="&#x4f2;" horiz-adv-x="560" d="M258 781h91l-101 -147h-51zM398 781h91l-119 -147h-56zM56 560h105l133 -294l112 294h105l-182 -469q-15 -39 -55 -66t-78 -27q-37 0 -49 5l-21 88q28 -7 56 -7q25 0 46 19.5t21 36.5q0 9 -48.5 114t-96.5 206z" />
<glyph unicode="&#x4f3;" horiz-adv-x="448" d="M198 613h92l-102 -147h-50zM338 613h92l-120 -147h-56zM42 392h98l91 -259l77 259h98l-161 -483q-15 -35 -47 -56t-65 -21q-7 0 -29 4l-27 80q14 -7 35 -7q55 0 80 91z" />
<glyph unicode="&#x4f4;" horiz-adv-x="560" d="M425 686q0 -25 -18 -43t-43 -18t-43 18t-18 43t18 43t43 18t43 -18t18 -43zM241 686q0 -25 -18 -43t-43 -18t-43 18t-18 43t18 43t43 18t43 -18t18 -43zM77 315v245h98v-209q0 -57 49 -57q89 0 147 35v231h98v-560h-98v238q-44 -35 -147 -35q-72 0 -109.5 29.5 t-37.5 82.5z" />
<glyph unicode="&#x4f5;" horiz-adv-x="476" d="M383 518q0 -25 -18 -43t-43 -18t-43 18t-18 43t18 43t43 18t43 -18t18 -43zM199 518q0 -25 -18 -43t-43 -18t-43 18t-18 43t18 43t43 18t43 -18t18 -43zM77 224v168h84v-168q0 -15 13.5 -25t28.5 -10q42 0 98 28v175h84v-392h-84v147q-47 -28 -105 -28q-52 0 -85.5 25.5 t-33.5 79.5z" />
<glyph unicode="&#x4f6;" horiz-adv-x="497" d="M91 560h350v-84h-252v-392h48l-14 -196h-75l-8 112h-49v560z" />
<glyph unicode="&#x4f7;" horiz-adv-x="420" d="M91 392h273v-77h-189v-238h42l-7 -161h-65l-6 84h-48v392z" />
<glyph unicode="&#x4f8;" horiz-adv-x="714" d="M510 695q0 -25 -18 -43t-43 -18t-43 18t-18 43t18 43t43 18t43 -18t18 -43zM326 695q0 -25 -18 -43t-43 -18t-43 18t-18 43t18 43t43 18t43 -18t18 -43zM525 0v560h98v-560h-98zM91 0v560h98v-217h119q50 0 86 -15t54.5 -40t26.5 -51t8 -55q0 -28 -10.5 -58t-31 -59 t-59 -47t-88.5 -18h-203zM189 84h98q98 0 98 84q0 42 -25.5 66.5t-72.5 24.5h-98v-175z" />
<glyph unicode="&#x4f9;" horiz-adv-x="656" d="M481 527q0 -25 -18 -43t-43 -18t-43 18t-18 43t18 43t43 18t43 -18t18 -43zM297 527q0 -25 -18 -43t-43 -18t-43 18t-18 43t18 43t43 18t43 -18t18 -43zM474 0v392h84v-392h-84zM98 0v392h84v-140h98q69 0 103 -36.5t34 -89.5t-34 -89.5t-103 -36.5h-182zM182 77h105 q20 0 34.5 15.5t14.5 33.5t-14.5 33.5t-34.5 15.5h-105v-98z" />
<glyph unicode="&#x4fc;" horiz-adv-x="595" d="M63 560h126l91 -175l91 175h126l-164 -259q74 -28 122.5 -103t48.5 -170q0 -19 -4 -34q-11 -54 -50.5 -92t-99.5 -38q-16 0 -42 3.5t-44 6.5l-19 4l7 98q42 -14 91 -14q24 0 43.5 18t19.5 52q0 62 -28 106t-90 88l-120 -226h-119l175 294z" />
<glyph unicode="&#x4fd;" horiz-adv-x="483" d="M56 392h105l63 -112l63 112h105l-119 -182l-2 -2q77 -93 100 -137q20 -37 20 -111v-30q0 -43 -29 -70.5t-55 -27.5q-63 0 -98 14l21 70q19 -3 33 -3q44 0 44 31v16q0 48 -21 97q-8 18 -58 86l-84 -143h-102l133 208z" />
<glyph unicode="&#x2000;" horiz-adv-x="390" />
<glyph unicode="&#x2001;" horiz-adv-x="781" />
<glyph unicode="&#x2002;" horiz-adv-x="390" />
<glyph unicode="&#x2003;" horiz-adv-x="781" />
<glyph unicode="&#x2004;" horiz-adv-x="260" />
<glyph unicode="&#x2005;" horiz-adv-x="195" />
<glyph unicode="&#x2006;" horiz-adv-x="130" />
<glyph unicode="&#x2007;" horiz-adv-x="130" />
<glyph unicode="&#x2008;" horiz-adv-x="97" />
<glyph unicode="&#x2009;" horiz-adv-x="156" />
<glyph unicode="&#x200a;" horiz-adv-x="43" />
<glyph unicode="&#x2010;" horiz-adv-x="336" d="M70 147v91h196v-91h-196z" />
<glyph unicode="&#x2011;" horiz-adv-x="336" d="M70 147v91h196v-91h-196z" />
<glyph unicode="&#x2012;" horiz-adv-x="336" d="M70 147v91h196v-91h-196z" />
<glyph unicode="&#x2013;" horiz-adv-x="491" d="M70 146v90h351v-90h-351z" />
<glyph unicode="&#x2014;" horiz-adv-x="505" d="M70 146v90h365v-90h-365z" />
<glyph unicode="&#x2018;" horiz-adv-x="245" d="M124 334q-20 0 -37 14q-22 18 -22 68q0 20 7.5 38.5t19 31.5t22.5 23t18 15l8 4l7 -17q-44 -27 -44 -62v-7q8 4 21 4q23 0 39.5 -16.5t16.5 -39.5t-16.5 -39.5t-39.5 -16.5z" />
<glyph unicode="&#x2019;" horiz-adv-x="245" d="M121 446q19 0 37 -14q22 -18 22 -68q0 -31 -19 -59t-37 -41l-19 -12l-7 17q44 27 44 62v7q-8 -4 -21 -4q-23 0 -39.5 16.5t-16.5 39.5t16.5 39.5t39.5 16.5z" />
<glyph unicode="&#x201a;" horiz-adv-x="245" d="M121 112q19 0 37 -14q22 -18 22 -68q0 -31 -19 -59t-37 -41l-19 -12l-7 17q44 27 44 62v7q-8 -4 -21 -4q-23 0 -39.5 16.5t-16.5 39.5t16.5 39.5t39.5 16.5z" />
<glyph unicode="&#x201c;" horiz-adv-x="385" d="M264 334q-19 0 -37 14q-22 18 -22 68q0 20 7.5 38.5t18.5 31.5t22.5 23t18.5 15l8 4l7 -17q-44 -27 -44 -62v-7q8 4 21 4q23 0 39.5 -16.5t16.5 -39.5t-16.5 -39.5t-39.5 -16.5zM124 334q-20 0 -37 14q-22 18 -22 68q0 20 7.5 38.5t19 31.5t22.5 23t18 15l8 4l7 -17 q-44 -27 -44 -62v-7q8 4 21 4q23 0 39.5 -16.5t16.5 -39.5t-16.5 -39.5t-39.5 -16.5z" />
<glyph unicode="&#x201d;" horiz-adv-x="385" d="M261 446q19 0 37 -14q22 -18 22 -68q0 -31 -19 -59t-37 -41l-19 -12l-7 17q44 27 44 62v7q-8 -4 -21 -4q-23 0 -39.5 16.5t-16.5 39.5t16.5 39.5t39.5 16.5zM121 446q19 0 37 -14q22 -18 22 -68q0 -31 -19 -59t-37 -41l-19 -12l-7 17q44 27 44 62v7q-8 -4 -21 -4 q-23 0 -39.5 16.5t-16.5 39.5t16.5 39.5t39.5 16.5z" />
<glyph unicode="&#x201e;" horiz-adv-x="385" d="M261 110q19 0 37 -14q22 -18 22 -68q0 -31 -19 -59t-37 -41l-19 -12l-7 17q44 27 44 62v7q-8 -4 -21 -4q-23 0 -39.5 16.5t-16.5 39.5t16.5 39.5t39.5 16.5zM121 110q19 0 37 -14q22 -18 22 -68q0 -31 -19 -59t-37 -41l-19 -12l-7 17q44 27 44 62v7q-8 -4 -21 -4 q-23 0 -39.5 16.5t-16.5 39.5t16.5 39.5t39.5 16.5z" />
<glyph unicode="&#x202f;" horiz-adv-x="156" />
<glyph unicode="&#x205f;" horiz-adv-x="195" />
<glyph unicode="&#x25fc;" horiz-adv-x="390" d="M0 390h390v-390h-390v390z" />
</font>
</defs>
</svg>
