<?xml version="1.0" standalone="no"?>
<!DOCTYPE svg PUBLIC "-//W3C//DTD SVG 1.1//EN" "http://www.w3.org/Graphics/SVG/1.1/DTD/svg11.dtd" >
<svg xmlns="http://www.w3.org/2000/svg" xmlns:xlink="http://www.w3.org/1999/xlink" version="1.1">
<metadata></metadata>
<defs>
<font id="rutacl_condensedregular" horiz-adv-x="520" >
<font-face units-per-em="1000" ascent="750" descent="-250" />
<missing-glyph horiz-adv-x="262" />
<glyph horiz-adv-x="0" />
<glyph unicode="&#xd;" horiz-adv-x="262" />
<glyph horiz-adv-x="0" />
<glyph horiz-adv-x="0" />
<glyph unicode=" "  horiz-adv-x="262" />
<glyph unicode="&#x09;" horiz-adv-x="262" />
<glyph unicode="&#xa0;" horiz-adv-x="262" />
<glyph unicode="!" horiz-adv-x="303" d="M97 750h110l-7 -537h-95zM81 63q0 34 19 54.5t51 20.5q31 0 50.5 -20.5t19.5 -54.5t-19 -54.5t-51 -20.5t-51 20.5t-19 54.5z" />
<glyph unicode="&#x22;" horiz-adv-x="405" d="M64 750h108l-9 -265h-90zM233 750h108l-9 -265h-90z" />
<glyph unicode="#" horiz-adv-x="510" d="M264 180h-72l-26 -180h-80l26 180h-57v96h71l23 156h-66v96h80l28 192h82l-29 -192h71l28 192h82l-29 -192h59v-96h-73l-23 -156h68v-96h-83l-26 -180h-80zM207 276h71l23 156h-71z" />
<glyph unicode="$" d="M226 69q-31 3 -55 13t-41 21q-19 12 -34 27l37 91q14 -15 32 -26q15 -10 34.5 -18t41.5 -8q66 0 66 55q0 20 -15 32.5t-37 23t-48 22.5t-48 30.5t-37 46.5t-15 72q0 54 33 94t89 52l-5 147h87l-7 -144q26 -4 46.5 -11.5t35.5 -15.5q18 -10 31 -20l-38 -96q-14 11 -31 21 q-14 8 -33 14.5t-40 6.5q-20 0 -35 -11t-15 -34q0 -22 14.5 -36t36.5 -25.5t48 -22.5t48 -28.5t36.5 -43t14.5 -64.5q0 -60 -34 -102.5t-88 -57.5l6 -158h-87z" />
<glyph unicode="%" d="M328 711h79l-214 -702h-78zM127 732q21 0 38 -9.5t29 -31.5t19 -57t7 -87q0 -101 -25 -144t-68 -43q-44 0 -68.5 43t-24.5 144q0 52 7 87t19.5 57t29.5 31.5t37 9.5zM127 424q19 1 19 123q0 63 -4.5 91.5t-14.5 28.5t-14 -28.5t-4 -91.5q0 -122 18 -123zM393 360 q21 0 38 -9.5t29 -31.5t19 -57t7 -87q0 -101 -25 -144t-68 -43q-44 0 -68.5 43t-24.5 144q0 52 7 87t19.5 57t29.5 31.5t37 9.5zM393 52q19 1 19 123q0 63 -4.5 91.5t-14.5 28.5t-14 -28.5t-4 -91.5q0 -122 18 -123z" />
<glyph unicode="&#x26;" horiz-adv-x="1285" d="M643 853q30 0 60 -7t61.5 -16t65 -16t70.5 -7q35 0 63 7t48 16q12 5 22.5 10.5t20.5 12.5l156 -188q-10 -10 -18 -21.5t-15 -24.5q-13 -23 -23 -55t-10 -74q0 -45 10.5 -75.5t22.5 -58t22.5 -58t10.5 -76.5q0 -67 -20.5 -119t-57.5 -90t-88.5 -62t-114.5 -35 q-52 -9 -94 -15.5t-76.5 -14t-62.5 -16.5t-53 -23q-25 14 -53.5 23t-63 16.5t-76.5 14t-94 15.5q-63 11 -114.5 35t-88.5 62t-57.5 90t-20.5 119q0 46 10.5 76.5t22.5 58t22.5 58t10.5 75.5q0 42 -10.5 74t-22.5 55q-8 13 -16 24.5t-17 21.5l156 188q9 -7 19.5 -12.5 t22.5 -10.5q20 -9 48.5 -16t63.5 -7q37 0 70.5 7t65 16t62 16t60.5 7zM643 773q-30 0 -60.5 -7t-62.5 -16t-65.5 -16t-69.5 -7q-26 0 -50 4t-42 9q-11 3 -20.5 6.5t-19.5 7.5l-76 -94q6 -11 11.5 -23t10.5 -25q8 -23 15 -53.5t7 -68.5t-10.5 -71t-22.5 -64.5t-22.5 -64 t-10.5 -68.5q0 -50 15.5 -88.5t44 -67t68 -46.5t87.5 -26q100 -17 167 -29t106 -29q38 17 105 29t167 29q48 8 87.5 26t68 46.5t44 67t15.5 88.5q0 36 -10.5 68.5t-22.5 64t-22.5 64.5t-10.5 71t7 68.5t15 53.5q5 13 10.5 25t11.5 23l-76 94q-10 -4 -19.5 -7.5t-20.5 -6.5 q-18 -5 -42 -9t-50 -4q-36 0 -69.5 7t-65.5 16t-62.5 16t-59.5 7z" />
<glyph unicode="'" horiz-adv-x="246" d="M69 750h108l-9 -265h-90z" />
<glyph unicode="(" horiz-adv-x="210" d="M64 729q0 32 9 57t24 42.5t35 26.5t42 9h43v-67h-30q-29 0 -41.5 -22.5t-12.5 -67.5v-694q0 -43 12.5 -66.5t41.5 -23.5h30v-67h-43q-22 0 -42 9.5t-35 26.5t-24 42t-9 57v738z" />
<glyph unicode=")" horiz-adv-x="210" d="M146 -9q0 -32 -9 -57t-24 -42t-35 -26.5t-42 -9.5h-44v67h31q29 0 41 23.5t12 66.5v694q0 45 -12 67.5t-41 22.5h-31v67h44q22 0 42 -9t35 -26.5t24 -42.5t9 -57v-738z" />
<glyph unicode="*" horiz-adv-x="620" d="M347 543l161 83l35 -108l-173 -46l108 -155l-92 -67l-76 178l-75 -178l-92 66l107 156l-173 45l35 108l160 -82l-19 197h114z" />
<glyph unicode="+" horiz-adv-x="511" d="M449 427v-108h-139v-204h-107v204h-141v108h141v204h107v-204h139z" />
<glyph unicode="," horiz-adv-x="272" d="M51 71q0 38 21.5 59t51.5 21q31 0 54 -25.5t23 -75.5q0 -60 -14.5 -108t-31.5 -81q-20 -40 -46 -69l-69 52q17 19 31 44q12 21 23.5 49t15.5 61q-17 3 -30 12q-11 8 -20 22.5t-9 38.5z" />
<glyph unicode="-" horiz-adv-x="421" d="M100 388h221v-113h-221v113z" />
<glyph unicode="." horiz-adv-x="270" d="M65 68q0 34 19 57t51 23q31 0 50.5 -23t19.5 -57t-19 -57t-51 -23t-51 23t-19 57z" />
<glyph unicode="/" horiz-adv-x="510" d="M318 731h97l-225 -750h-95z" />
<glyph unicode="0" d="M260 732q42 0 77 -19t61 -62.5t42 -114t16 -174.5q0 -101 -15.5 -172t-40.5 -116t-61 -65.5t-79 -20.5q-45 0 -80.5 20.5t-60.5 65.5t-40 116t-15 172q0 104 16.5 174.5t42.5 114t61 62.5t76 19zM260 94q22 0 36.5 13.5t23.5 45t12.5 83t3.5 126.5q0 78 -4.5 128.5 t-13.5 80.5t-23.5 42t-34.5 12t-34.5 -12t-23.5 -42t-13.5 -80.5t-4.5 -128.5q0 -75 3.5 -126.5t12.5 -83t23.5 -45t36.5 -13.5z" />
<glyph unicode="1" d="M211 533q-15 -16 -33 -29q-16 -11 -37.5 -21.5t-47.5 -14.5v107q30 8 57.5 23t49.5 34.5t36.5 42t19.5 45.5h73v-624h101v-96h-337v96h118v437z" />
<glyph unicode="2" d="M320 514q0 55 -26 82t-62 27q-25 0 -43.5 -7.5t-32.5 -16.5q-16 -11 -28 -24l-45 82q20 20 46 37q23 14 54 26t73 12t75.5 -16.5t58 -46t38 -69t13.5 -85.5q0 -67 -21.5 -123.5t-54.5 -105t-74 -91.5t-87 -84v-4l241 6v-113h-365v114q67 62 121 130q23 29 43.5 61.5 t37.5 67.5t27.5 70.5t10.5 70.5z" />
<glyph unicode="3" d="M446 210q0 -50 -15 -90.5t-42 -70t-64 -45.5t-80 -16q-42 0 -72.5 11t-51.5 25q-25 17 -43 38l43 87q14 -16 32 -27q16 -11 37.5 -18.5t48.5 -7.5q42 0 64 26t22 86q0 21 -4.5 41.5t-17.5 36.5t-36 26t-59 10h-11v94h22q56 0 76 30t20 78q0 51 -23.5 75.5t-58.5 24.5 q-24 0 -50.5 -11.5t-46.5 -32.5l-44 84q22 27 65 47.5t100 20.5q41 0 74 -14t56.5 -40t36 -62t12.5 -81q0 -33 -8 -60t-21.5 -48t-32 -35.5t-37.5 -21.5q21 -6 41 -19.5t35 -33.5t24 -46.5t9 -60.5z" />
<glyph unicode="4" d="M343 709q-2 -27 -7 -51t-14 -49.5t-22 -54.5t-32 -67l-105 -207h119v137l118 64v-201h60l-7 -97h-53v-183h-118v183h-232v86l109 226q35 73 58.5 131t29.5 103z" />
<glyph unicode="5" d="M330 233q0 67 -22 97.5t-54 30.5q-29 0 -49.5 -21t-29.5 -48l-85 19l14 409h321l-8 -107h-222l-10 -199q16 21 43 34t57 13q34 0 64 -13t53 -40.5t36 -69t13 -101.5q0 -59 -18 -104.5t-47 -77.5t-68 -49.5t-82 -17.5q-42 0 -73 11t-52 25q-25 16 -43 36l43 87 q15 -16 34 -27q16 -10 39 -18t50 -8q42 0 69 35.5t27 103.5z" />
<glyph unicode="6" d="M318 624q-23 0 -43.5 -6.5t-37.5 -27t-29.5 -59.5t-18.5 -104q20 11 45 18.5t54 7.5q37 0 68 -12.5t53 -39t34.5 -67.5t12.5 -97q0 -54 -15.5 -99.5t-42 -78.5t-62 -52t-75.5 -19q-42 0 -78 20t-62 60t-41 100.5t-16 141.5q1 131 26 213t62.5 128.5t81 63.5t81.5 17 q28 0 51 -5.5t40 -11.5q10 -4 18.5 -8t16.5 -9l-34 -102q-13 9 -37.5 18.5t-51.5 9.5zM262 361q-23 0 -42.5 -6t-34.5 -13v-30q0 -110 21 -166t60 -56q18 0 31.5 10.5t21.5 29.5t12 44t4 55q0 73 -19.5 102.5t-53.5 29.5z" />
<glyph unicode="7" d="M438 616q-34 -71 -63 -143.5t-50.5 -148.5t-35.5 -156.5t-19 -167.5h-122q7 96 23 178.5t38.5 157t51.5 142.5t61 135h-241l12 107h345v-104z" />
<glyph unicode="8" d="M260 732q36 0 69 -12t57.5 -36.5t39 -60.5t14.5 -84q0 -42 -14.5 -70.5t-31.5 -47.5q-20 -22 -45 -36q29 -13 52 -37q20 -20 36 -54t16 -86q0 -55 -16.5 -96.5t-43.5 -69t-61.5 -41t-71.5 -13.5t-71.5 13.5t-61.5 40.5t-43.5 68.5t-16.5 97.5q0 51 16 85t36 54 q23 24 53 38q-26 12 -46 33q-17 18 -31 47t-14 74q0 47 14.5 83t39 60.5t57 37t68.5 12.5zM260 90q38 0 57 33.5t19 87.5q0 61 -19.5 94t-56.5 33t-56.5 -34t-19.5 -93q0 -54 19 -87.5t57 -33.5zM260 433q35 0 49.5 29.5t14.5 72.5q0 48 -17.5 73.5t-46.5 25.5t-46 -25.5 t-17 -73.5q0 -43 14 -72.5t49 -29.5z" />
<glyph unicode="9" d="M96 82q48 11 90 40q36 24 74 69.5t60 121.5q-9 -9 -20 -15q-10 -5 -24.5 -9.5t-32.5 -4.5q-32 -1 -63 11.5t-57 39.5t-42.5 69t-16.5 101q0 53 15.5 95t41.5 71.5t60.5 45t74.5 15.5q90 0 145 -70.5t55 -197.5q0 -80 -16.5 -143t-39.5 -111.5t-53.5 -83.5t-61.5 -60 q-72 -58 -164 -78zM263 380q24 0 42.5 7.5t27.5 18.5q2 14 2.5 24.5t0.5 39.5q0 77 -21 117.5t-59 40.5q-37 0 -54.5 -33.5t-17.5 -88.5q0 -120 79 -126z" />
<glyph unicode=":" horiz-adv-x="270" d="M65 68q0 34 19 57t51 23q31 0 50.5 -23t19.5 -57t-19 -57t-51 -23t-51 23t-19 57zM65 442q0 34 19 57t51 23q31 0 50.5 -23t19.5 -57t-19 -57t-51 -23t-51 23t-19 57z" />
<glyph unicode=";" horiz-adv-x="270" d="M59 71q0 38 21.5 59t51.5 21q31 0 54 -25.5t23 -75.5q0 -60 -14.5 -108t-31.5 -81q-20 -40 -46 -69l-69 52q17 19 31 44q12 21 23.5 49t15.5 61q-17 3 -30 12q-11 8 -20 22.5t-9 38.5zM65 442q0 34 19 57t51 23q31 0 50.5 -23t19.5 -57t-19 -57t-51 -23t-51 23t-19 57z " />
<glyph unicode="&#x3c;" horiz-adv-x="900" d="M832 412v-193h-339l40 -72q21 -35 21 -69q0 -17 -13 -32t-34 -15q-19 0 -38.5 10.5t-47.5 28.5l-353 245l353 246q26 18 46.5 28.5t39.5 10.5q21 0 34 -15t13 -34q0 -31 -21 -68l-40 -71h339z" />
<glyph unicode="=" horiz-adv-x="510" d="M64 511h382v-127h-382v127zM64 276h382v-127h-382v127z" />
<glyph unicode="&#x3e;" horiz-adv-x="900" d="M407 412l-40 71q-21 37 -21 68q0 19 13 34t34 15q19 0 39.5 -10.5t46.5 -28.5l353 -246l-353 -245q-28 -18 -47.5 -28.5t-38.5 -10.5q-21 0 -34 15t-13 32q0 34 21 69l40 72h-339v193h339z" />
<glyph unicode="?" horiz-adv-x="472" d="M167 212q0 56 10 92.5t24.5 61t31.5 41.5t31.5 34t24.5 38t10 55q0 37 -17 62t-64 25q-23 0 -42.5 -7.5t-34.5 -16.5q-18 -11 -32 -23l-42 92q19 18 45 33q21 12 51 22.5t66 10.5q46 0 81 -14t58 -39t35 -59.5t12 -74.5q0 -51 -11 -84t-28 -56.5t-36.5 -41t-36.5 -37.5 t-28 -46.5t-11 -67.5h-97zM142 63q0 34 19 54.5t51 20.5q31 0 50.5 -20.5t19.5 -54.5t-19 -54.5t-51 -20.5t-51 20.5t-19 54.5z" />
<glyph unicode="@" horiz-adv-x="983" d="M663 -145q-29 -21 -64 -37q-30 -14 -72 -25.5t-93 -11.5q-67 0 -133 26.5t-117.5 82.5t-83 143t-31.5 208q0 129 38.5 223.5t101 156t142 91.5t162.5 30q85 0 158 -25t127 -76t85 -128t31 -180q0 -80 -21 -142t-55.5 -104.5t-78 -64.5t-89.5 -22h-60l-27 42 q-14 -16 -32 -27q-15 -11 -36 -19t-46 -8q-36 0 -67.5 15t-54.5 47t-36 82t-13 120q0 73 18.5 124.5t50 83.5t71.5 47t84 15q29 0 56.5 -3.5t47.5 -8.5q24 -5 44 -12v-373l21 -31q21 0 41.5 14t36 43t25 72.5t9.5 103.5q0 88 -22 149t-61.5 98.5t-93.5 54t-117 16.5 t-122.5 -24.5t-105 -74t-73.5 -123t-28 -171.5t22 -168.5t59 -116t84.5 -67.5t98.5 -22q38 0 70 8t55 19q27 12 50 28zM507 416q-18 0 -34 -8.5t-27.5 -27.5t-18.5 -51t-7 -78q0 -44 6 -73.5t16 -47.5t23.5 -26t29.5 -8q12 0 22.5 3t18.5 7q9 4 16 10v295q-5 1 -12 2 t-14.5 2t-18.5 1z" />
<glyph unicode="A" horiz-adv-x="550" d="M359 184h-176l-39 -184h-114l165 720h172l153 -720h-125zM204 286h135l-62 332h-4z" />
<glyph unicode="B" horiz-adv-x="535" d="M95 720h203q36 0 67 -12.5t54.5 -37t37 -60t13.5 -81.5q0 -33 -9.5 -58.5t-23.5 -43.5t-30.5 -29.5t-31.5 -17.5q16 -4 36.5 -15t38.5 -30.5t30.5 -48.5t12.5 -68q0 -51 -14.5 -91t-40 -68.5t-60.5 -43.5t-75 -15h-208v720zM212 110h80q41 0 59.5 29.5t18.5 78.5 q0 40 -22 69t-64 29h-72v-206zM212 422h62q35 0 54 28t19 70q0 39 -18 64.5t-48 25.5h-69v-188z" />
<glyph unicode="C" horiz-adv-x="481" d="M293 98q25 0 44.5 9t33.5 21q16 14 28 32l42 -81q-17 -27 -40 -47q-20 -17 -49.5 -30.5t-67.5 -13.5q-46 0 -87.5 20.5t-72.5 65t-49.5 115.5t-18.5 172t19.5 171.5t51 115t72.5 64.5t85 20q35 0 62.5 -12.5t46.5 -28.5q22 -19 39 -43l-53 -87q-10 17 -23 31 q-11 12 -28 21t-40 9q-22 0 -41.5 -11.5t-34 -41t-23 -80t-8.5 -128.5q0 -76 8 -126.5t22.5 -81t35 -43t46.5 -12.5z" />
<glyph unicode="D" horiz-adv-x="557" d="M95 720h182q42 0 84 -17t76.5 -58.5t56 -110.5t21.5 -173q0 -101 -20.5 -170t-54 -111.5t-76 -61t-86.5 -18.5h-183v720zM390 357q0 78 -11 127t-29 77.5t-40 39t-44 10.5h-55v-502h59q23 0 45 11t38.5 39.5t26.5 76t10 121.5z" />
<glyph unicode="E" horiz-adv-x="489" d="M95 720h324v-110h-207v-187h170l-7 -108h-163v-205h207v-110h-324v720z" />
<glyph unicode="F" horiz-adv-x="439" d="M95 720h324v-111h-207v-215h169l-7 -111h-162v-283h-117v720z" />
<glyph unicode="G" horiz-adv-x="523" d="M267 362h196v-315q-22 -17 -48 -30q-23 -11 -54.5 -20t-70.5 -9q-48 0 -90.5 20t-74.5 64t-50.5 114t-18.5 171q0 104 21 175.5t55 116t77 64t87 19.5q38 0 67.5 -12.5t49.5 -27.5q24 -18 42 -40l-52 -83q-13 16 -29 26q-14 10 -34 18.5t-44 8.5q-56 0 -85.5 -61.5 t-29.5 -203.5q0 -76 7.5 -126t21.5 -80t35.5 -42t49.5 -12q23 0 36 3.5t21 6.5v153h-76z" />
<glyph unicode="H" horiz-adv-x="598" d="M386 318h-174v-318h-117v720h117v-293h174v293h117v-720h-117v318z" />
<glyph unicode="I" horiz-adv-x="404" d="M144 93v534h-64v93h244v-93h-63v-534h63v-93h-244v93h64z" />
<glyph unicode="J" horiz-adv-x="312" d="M100 720h117v-669q0 -64 -15.5 -108.5t-43.5 -72t-65.5 -40t-82.5 -12.5v115q45 0 67.5 29t22.5 107v651z" />
<glyph unicode="K" horiz-adv-x="541" d="M319 419l202 -419h-132l-138 309l-39 -63v-246h-117v720h117v-299l168 299h125z" />
<glyph unicode="L" horiz-adv-x="430" d="M95 720h117v-610h188v-110h-305v720z" />
<glyph unicode="M" horiz-adv-x="685" d="M206 397v-397h-112v720h120l129 -361l130 361h118v-720h-112v397l9 71l-10 2l-18 -73l-90 -242h-56l-89 240l-18 75l-10 -2z" />
<glyph unicode="N" horiz-adv-x="601" d="M203 444l-6 -3l15 -66v-375h-117v720h112l191 -466l6 3l-15 83v380h117v-720h-112z" />
<glyph unicode="O" horiz-adv-x="558" d="M279 -12q-44 0 -84.5 20t-71.5 64t-49 114.5t-18 171.5q0 104 19 175.5t50.5 115.5t71.5 63.5t82 19.5t82 -19.5t71.5 -63.5t50.5 -115.5t19 -175.5q0 -101 -18 -171.5t-49 -114.5t-71 -64t-85 -20zM279 92q24 0 42 13.5t30.5 44.5t19 82t6.5 126q0 78 -7 129.5t-20 82.5 t-31 44t-40 13t-40 -13t-31 -44t-20 -82.5t-7 -129.5q0 -75 6.5 -126t19 -82t30.5 -44.5t42 -13.5z" />
<glyph unicode="P" horiz-adv-x="508" d="M95 720h209q35 0 66.5 -15t55.5 -43.5t38 -69t14 -91.5q0 -56 -15 -98.5t-39.5 -71.5t-55.5 -43.5t-63 -14.5h-93v-273h-117v720zM212 384h67q41 0 57.5 28t16.5 88q0 50 -20.5 79t-53.5 29h-67v-224z" />
<glyph unicode="Q" horiz-adv-x="558" d="M477 -176q-54 9 -95 36t-69 56q-33 33 -55 73q-41 4 -78 26.5t-64.5 67t-43.5 112.5t-16 163q0 104 19 175.5t50.5 115.5t71.5 63.5t82 19.5t82 -19.5t71.5 -63.5t50.5 -115.5t19 -175.5q0 -75 -10.5 -133.5t-29 -101.5t-44 -71.5t-55.5 -44.5q18 -18 39 -33 q18 -13 41.5 -24.5t49.5 -14.5zM279 92q24 0 42 13.5t30.5 44.5t19 82t6.5 126q0 78 -7 129.5t-20 82.5t-31 44t-40 13t-40 -13t-31 -44t-20 -82.5t-7 -129.5q0 -75 6.5 -126t19 -82t30.5 -44.5t42 -13.5z" />
<glyph unicode="R" horiz-adv-x="536" d="M95 720h228q36 0 66 -14.5t51.5 -42.5t33.5 -67.5t12 -88.5q0 -56 -16 -94t-36 -62q-23 -28 -51 -46l108 -305h-127l-91 289h-61v-289h-117v720zM212 397h81q35 0 51.5 30t16.5 80q0 48 -16.5 75.5t-47.5 27.5h-85v-213z" />
<glyph unicode="S" horiz-adv-x="471" d="M185 534q0 -33 18 -53t45.5 -36t59.5 -32.5t59.5 -41.5t45.5 -63t18 -98q0 -48 -15 -88.5t-42.5 -70.5t-65.5 -46.5t-83 -16.5q-44 0 -78 14t-58 31q-28 20 -49 46l55 89q15 -20 34 -35q16 -14 38.5 -24.5t49.5 -10.5q44 0 66.5 28t22.5 71q0 39 -18 61.5t-45.5 38.5 t-59 31t-59 39t-45.5 61.5t-18 99.5q0 41 13.5 78t38.5 65t61 44.5t80 16.5q40 0 69 -10t49 -21q23 -13 39 -30l-41 -94q-13 12 -30 22q-14 8 -33.5 15t-41.5 7q-42 0 -61 -25t-19 -62z" />
<glyph unicode="T" horiz-adv-x="322" d="M337 720v-111h-117v-609h-117v609h-118v111h352z" />
<glyph unicode="U" horiz-adv-x="586" d="M293 -12q-44 0 -80.5 15.5t-63.5 47t-42 78.5t-15 111v480h117v-480q0 -31 4 -57.5t13.5 -46t25.5 -30.5t41 -11t41 11t25.5 30.5t13.5 46t4 57.5v480h117v-480q0 -64 -16 -111t-43.5 -78.5t-64 -47t-77.5 -15.5z" />
<glyph unicode="V" horiz-adv-x="491" d="M0 720h127l119 -563h5l118 563h122l-175 -720h-141z" />
<glyph unicode="W" horiz-adv-x="728" d="M365 497h-4l-69 -497h-169l-98 720h119l58 -514v-68h18v63l70 458h153l70 -452v-69h18v61l57 521h115l-99 -720h-170z" />
<glyph unicode="X" horiz-adv-x="491" d="M153 720l90 -265h7l92 265h121l-136 -349l149 -371h-123l-104 290h-6l-107 -290h-121l149 371l-136 349h125z" />
<glyph unicode="Y" horiz-adv-x="432" d="M273 280v-280h-117v280l-171 440h123l107 -313h4l109 313h119z" />
<glyph unicode="Z" horiz-adv-x="489" d="M58 98l224 512h-207v110h349v-84l-231 -526h238v-110h-373v98z" />
<glyph unicode="[" horiz-adv-x="819" d="M506 381l71 40q18 11 36 15.5t32 4.5q19 0 34 -13t15 -34q0 -20 -10.5 -39.5t-28.5 -45.5l-246 -353l-245 353q-18 28 -28.5 46.5t-10.5 38.5q0 21 15 34t32 13q16 0 34 -4.5t35 -15.5l72 -40v339h193v-339z" />
<glyph unicode="\" horiz-adv-x="510" d="M420 -19h-90l-240 750h91z" />
<glyph unicode="]" horiz-adv-x="819" d="M313 295l-71 -40q-18 -11 -36 -15.5t-32 -4.5q-19 0 -34 13t-15 34q0 20 10.5 39.5t28.5 45.5l246 353l245 -353q18 -28 28.5 -46.5t10.5 -38.5q0 -21 -15 -34t-32 -13q-16 0 -34 4.5t-35 15.5l-72 40v-339h-193v339z" />
<glyph unicode="`" horiz-adv-x="334" d="M97 751h101l38 -160h-73z" />
<glyph unicode="a" horiz-adv-x="518" d="M229 409q-22 0 -40 -4.5t-32 -9.5q-17 -6 -32 -14l-25 105q19 10 45 18q21 7 51 12.5t67 5.5q85 0 125 -42.5t40 -117.5v-362h-107l-7 47q-11 -17 -27 -29q-14 -11 -33.5 -20t-46.5 -9t-51.5 11t-43 32t-29.5 50.5t-11 67.5q0 78 43.5 119t119.5 41q15 0 28.5 -2.5 t24.5 -5.5q12 -4 22 -7v56q0 28 -19 43t-62 15zM251 85q14 0 24.5 4t18.5 10l16 15v97l-18 4q-8 2 -17.5 3.5t-18.5 1.5q-29 0 -45.5 -17.5t-16.5 -49.5q0 -33 15.5 -50.5t41.5 -17.5z" />
<glyph unicode="b" horiz-adv-x="531" d="M464 264q0 -74 -15 -126.5t-39.5 -85.5t-55.5 -48.5t-62 -15.5q-21 0 -38 7t-29 15q-14 10 -24 23l-7 -33h-102v708l118 24v-254q11 12 26 22q13 8 31 15t42 7q27 0 55 -14.5t50 -46t36 -80t14 -117.5zM266 94q17 0 31 7.5t23.5 26t15 49.5t5.5 79q0 46 -5.5 76.5t-16 49 t-24.5 26t-30 7.5q-9 0 -18.5 -3t-17.5 -6q-10 -4 -19 -8v-281q7 -7 17 -13q10 -5 19 -7.5t20 -2.5z" />
<glyph unicode="c" horiz-adv-x="434" d="M269 417q-20 0 -35 -8.5t-26 -28t-16.5 -51t-5.5 -78.5q0 -85 20.5 -122t63.5 -37q29 0 53.5 13t33.5 26l30 -93q-17 -16 -37 -26q-18 -11 -42.5 -17.5t-54.5 -6.5q-38 0 -72 17.5t-59.5 51.5t-40 82.5t-14.5 111.5q0 71 16.5 122t44 84t62.5 49t72 16q29 0 53 -7t41 -17 q19 -11 35 -26l-41 -88q-22 15 -43 24t-38 9z" />
<glyph unicode="d" horiz-adv-x="531" d="M67 254q0 69 14.5 119.5t39 83.5t57 49t68.5 16q23 0 42 -7t33 -16v209l118 24v-732h-108l-6 48q-11 -17 -26 -30q-13 -11 -32.5 -20.5t-44.5 -9.5q-28 0 -55.5 15t-49.5 47t-36 82.5t-14 121.5zM266 416q-19 0 -33.5 -7.5t-24 -26.5t-14.5 -51.5t-5 -81.5 q0 -43 5.5 -72.5t15 -47.5t23.5 -26t32 -8q11 0 20.5 2.5t17.5 6.5q9 4 18 10v283q-8 5 -24.5 12t-30.5 7z" />
<glyph unicode="e" horiz-adv-x="499" d="M275 92q21 0 40 5.5t34 13.5q17 8 32 19l35 -84q-20 -17 -44 -29q-20 -11 -48 -20t-60 -9q-89 0 -143 66.5t-54 193.5q0 71 16.5 122.5t44.5 85.5t63 50t73 16q37 0 68 -14t53.5 -46t34.5 -83t12 -124v-33h-243q0 -66 20 -98t66 -32zM256 418q-57 0 -66 -118h123 q0 118 -57 118z" />
<glyph unicode="f" horiz-adv-x="320" d="M84 505v78q0 33 11.5 60t32 47t47.5 31t58 11q18 0 33 -3t26 -6q12 -4 22 -9l-10 -104q-6 3 -22 7t-26 4q-29 0 -41.5 -15t-12.5 -47v-54h92l-4 -101h-88v-404h-118v404h-44v101h44z" />
<glyph unicode="g" horiz-adv-x="530" d="M67 260q0 70 16 120t40.5 81.5t55.5 46t61 14.5q31 0 51 -11.5t41 -35.5l11 35h97v-495q0 -42 -14 -78.5t-39.5 -62.5t-62 -41t-81.5 -15q-38 0 -68.5 8.5t-53.5 19.5q-26 12 -48 29l33 91q19 -13 41 -24q19 -9 42.5 -16.5t49.5 -7.5q47 0 65.5 25t18.5 64v40 q-11 -11 -25 -19q-12 -7 -28 -12.5t-34 -5.5q-33 0 -64 13.5t-54 43.5t-37 77.5t-14 115.5zM261 417q-12 0 -25 -7t-23.5 -24.5t-17 -47.5t-6.5 -77q0 -81 20 -113t47 -32q16 0 28 4t20 9q10 6 17 14v257q-8 8 -23 12.5t-37 4.5z" />
<glyph unicode="h" horiz-adv-x="540" d="M210 477q14 12 31 22q14 8 34 15.5t44 7.5q28 0 51.5 -10.5t40.5 -31.5t27 -54t10 -78v-348h-118v329q0 51 -15.5 67.5t-45.5 16.5q-18 0 -33.5 -5t-25.5 -10v-398h-118v696l118 34v-253z" />
<glyph unicode="i" horiz-adv-x="308" d="M49 404v101h167v-505h-118v404h-49zM85 671q0 32 21.5 53t50.5 21t50.5 -21t21.5 -53t-21.5 -53t-50.5 -21t-50.5 21t-21.5 53z" />
<glyph unicode="j" horiz-adv-x="300" d="M40 404v101h167v-440q0 -62 -15.5 -109t-41.5 -77.5t-61.5 -46.5t-76.5 -16v117q26 0 40.5 9t23 26.5t11.5 42.5t3 57v336h-50zM77 671q0 32 21.5 53t50.5 21t50.5 -21t21.5 -53t-21.5 -53t-50.5 -21t-50.5 21t-21.5 53z" />
<glyph unicode="k" horiz-adv-x="504" d="M210 0h-118v708l118 24v-400l119 178h139l-138 -178l151 -332h-130l-101 228l-40 -52v-176z" />
<glyph unicode="l" horiz-adv-x="340" d="M90 708l118 24v-583q0 -26 10 -41t36 -15q10 0 18.5 0.5t14.5 1.5q7 1 13 3v-94q-13 -4 -28 -7q-13 -3 -29.5 -5t-35.5 -2q-56 0 -86.5 33.5t-30.5 96.5v588z" />
<glyph unicode="m" horiz-adv-x="750" d="M196 474q13 13 30 24q14 9 34 16.5t43 7.5q27 0 46 -8.5t32 -19.5q15 -12 25 -27q17 15 36 27q17 11 39 19.5t48 8.5q64 0 97.5 -45t33.5 -128v-349h-118v336q0 39 -13 55t-39 16q-17 0 -33 -6t-25 -13q1 -8 1.5 -16.5t0.5 -22.5v-349h-118v336q0 39 -13 55t-39 16 q-17 0 -33 -6t-23 -12v-389h-118v499l96 23z" />
<glyph unicode="n" horiz-adv-x="536" d="M196 474q13 14 47 31t67 17q69 0 102.5 -45t33.5 -128v-349h-118v336q0 39 -13 55t-44 16q-19 0 -36 -5.5t-27 -12.5v-389h-118v499l96 23z" />
<glyph unicode="o" horiz-adv-x="532" d="M266 522q43 0 79.5 -17t63 -51t41.5 -84t15 -116q0 -127 -52.5 -196.5t-146.5 -69.5t-146.5 69.5t-52.5 196.5q0 66 15 116t41.5 84t63 51t79.5 17zM266 90q43 0 60.5 41t17.5 123q0 87 -20 124.5t-58 37.5t-58 -37.5t-20 -124.5q0 -82 17.5 -123t60.5 -41z" />
<glyph unicode="p" horiz-adv-x="531" d="M464 269q0 -70 -13.5 -122.5t-37.5 -88t-55.5 -53t-68.5 -17.5q-18 0 -33 5t-25 12q-12 7 -21 17v-192h-118v668l102 24l8 -53q12 15 29 26q14 10 33.5 18.5t44.5 8.5q30 0 57.5 -15t49.5 -45.5t35 -78.5t13 -114zM268 94q17 0 30.5 7.5t23 26t14.5 49.5t5 79 q0 46 -5.5 76.5t-15 49t-23.5 26t-32 7.5q-11 0 -20.5 -3t-17.5 -6q-9 -4 -17 -8v-283q8 -7 18 -11q8 -4 18.5 -7t21.5 -3z" />
<glyph unicode="q" horiz-adv-x="532" d="M68 252q0 76 15.5 127.5t40.5 83t56 45.5t61 14q32 0 53 -15t35 -33l11 36h100v-680h-116v210q-10 -15 -25 -26q-13 -10 -31.5 -18t-43.5 -8q-27 0 -54.5 15t-50 47t-37 82t-14.5 120zM268 416q-36 0 -57 -36t-21 -129q0 -44 6 -73.5t16 -47.5t23.5 -26t29.5 -8 q13 0 23.5 3t18.5 8q9 5 15 12v277q-7 6 -16 10q-8 4 -17.5 7t-20.5 3z" />
<glyph unicode="r" horiz-adv-x="361" d="M338 394q-8 4 -19 8q-9 3 -20.5 4.5t-25.5 1.5q-21 0 -39 -6.5t-26 -12.5v-389h-118v499l96 23l11 -57q11 16 25 28q12 11 31 20t43 9q14 0 26 -3.5t22 -9.5z" />
<glyph unicode="s" horiz-adv-x="438" d="M343 387q-15 9 -33 16q-15 6 -35 11.5t-41 5.5q-20 0 -35 -10.5t-15 -31.5q0 -22 14.5 -35.5t37 -25.5t48 -23.5t48 -29.5t37 -44t14.5 -66q0 -35 -13.5 -66t-36.5 -53t-54.5 -34.5t-68.5 -12.5q-36 0 -65 9t-49 20q-24 13 -41 30l38 85q15 -12 33 -22q15 -8 34.5 -15 t41.5 -7q65 0 65 56q0 20 -14.5 33t-37 24.5t-48 24t-48 31.5t-37 47t-14.5 70q0 32 12 59.5t33.5 47t52 30.5t67.5 11q32 0 59 -7.5t46 -16.5q22 -11 39 -24z" />
<glyph unicode="t" horiz-adv-x="372" d="M93 505v98l118 33v-131h107l-7 -101h-100v-235q0 -38 11 -54.5t40 -16.5q22 0 37 5q8 3 15 6l8 -99q-13 -7 -28 -11q-14 -5 -31.5 -8t-39.5 -3q-61 0 -95.5 37t-34.5 108v271h-48v101h48z" />
<glyph unicode="u" horiz-adv-x="529" d="M205 510v-352q0 -66 55 -66q14 0 25 3t19 8q9 4 16 11v396h117v-510h-107l-6 52q-11 -18 -27 -32q-14 -12 -34.5 -22t-49.5 -10q-63 0 -94.5 44t-31.5 118v360h118z" />
<glyph unicode="v" horiz-adv-x="453" d="M227 131h5l80 379h120l-139 -510h-135l-137 510h126z" />
<glyph unicode="w" horiz-adv-x="695" d="M489 131h5l60 379h120l-114 -510h-143l-67 320h-6l-68 -320h-143l-112 510h126l60 -379h5l75 379h127z" />
<glyph unicode="x" horiz-adv-x="477" d="M236 194l-90 -194h-126l140 266l-122 244h124l75 -170h5l72 170h123l-119 -237l139 -273h-132l-84 194h-5z" />
<glyph unicode="y" horiz-adv-x="452" d="M227 130h4l82 380h118l-184 -680h-120l40 147l-146 533h126z" />
<glyph unicode="z" horiz-adv-x="434" d="M368 510v-96l-190 -314h206l-8 -100h-326v98l183 312h-168v100h303z" />
<glyph unicode="{" horiz-adv-x="860" d="M598 -6l-240 239l-22 -78q-2 -12 -8 -25t-14 -24.5t-19.5 -19.5t-25.5 -8q-20 0 -34 14q-14 15 -20 35t-13 53l-76 423l423 -78q33 -6 53 -11.5t35 -19.5q13 -13 13 -32q0 -28 -24.5 -45.5t-51.5 -23.5l-79 -22l240 -241z" />
<glyph unicode="|" horiz-adv-x="307" d="M100 759h107v-929h-107v929z" />
<glyph unicode="}" horiz-adv-x="860" d="M126 131l239 240l-78 22q-24 5 -50 22t-26 47q0 19 13 32q15 14 35 20t53 13l423 76l-78 -423q-6 -33 -11.5 -53t-19.5 -35q-13 -13 -32 -13q-28 0 -45.5 24.5t-23.5 51.5l-22 79l-241 -240z" />
<glyph unicode="~" horiz-adv-x="459" d="M387 434q0 -54 -25.5 -88.5t-67.5 -34.5q-17 0 -33 6t-31 12.5t-29 12.5t-26 6q-16 0 -26 -13t-11 -30l-67 15q0 26 7 48.5t20 39t29.5 26t36.5 9.5q17 0 33 -6t31 -12.5t29 -12.5t26 -6q19 0 29.5 11.5t15.5 31.5z" />
<glyph unicode="&#xa1;" horiz-adv-x="303" d="M206 -239h-110l7 536h95zM81 447q0 34 19 54.5t51 20.5q31 0 50.5 -20.5t19.5 -54.5t-19 -54.5t-51 -20.5t-51 20.5t-19 54.5z" />
<glyph unicode="&#xa7;" d="M380 377q-14 11 -31 21q-14 8 -33 14.5t-40 6.5q-20 0 -35 -11t-15 -34q0 -22 14.5 -36t36.5 -25.5t48 -22.5t48 -28.5t36.5 -43t14.5 -64.5q0 -36 -13.5 -66.5t-36.5 -52.5t-54.5 -34.5t-68.5 -12.5q-36 0 -64.5 9.5t-48.5 21.5q-24 13 -41 31l37 91q14 -15 32 -26 q15 -10 34.5 -18t41.5 -8q66 0 66 55q0 20 -15 32.5t-37 23t-48 22.5t-48 30.5t-37 46.5t-15 72q0 42 20 75t55 53q-20 35 -20 94q0 77 31.5 113t73.5 36t73 -36t31 -113q0 -26 -4.5 -47.5t-12.5 -38.5q15 -5 26.5 -11t19.5 -11q10 -6 17 -12zM271 522q17 2 26 17.5t9 53.5 q0 42 -11 58t-27 16q-17 0 -28 -16t-11 -58q0 -38 9.5 -53.5t25.5 -17.5h4h3z" />
<glyph unicode="&#xa8;" horiz-adv-x="451" d="M77 656q0 26 16 44.5t42 18.5t42 -18.5t16 -44.5t-16 -44.5t-42 -18.5t-42 18.5t-16 44.5zM257 656q0 26 16 44.5t42 18.5t42 -18.5t16 -44.5t-16 -44.5t-42 -18.5t-42 18.5t-16 44.5z" />
<glyph unicode="&#xa9;" horiz-adv-x="727" d="M72 351q0 87 21.5 156.5t60.5 117.5t92.5 74t116.5 26q64 0 117.5 -26t92 -74.5t60 -117.5t21.5 -156t-21.5 -156t-60 -117.5t-92 -74t-117.5 -25.5q-62 0 -115 25.5t-92 74t-61.5 117.5t-22.5 156zM378 477q-16 0 -30 -6t-24.5 -20.5t-16.5 -39.5t-6 -63q0 -69 20.5 -97 t55.5 -28q14 0 27 5.5t22 13.5q11 8 19 19l25 -76q-13 -14 -29 -25q-14 -10 -33.5 -17.5t-43.5 -7.5q-32 0 -58.5 14.5t-46 41.5t-30.5 66.5t-11 90.5q0 55 12.5 96.5t34 68.5t49 40.5t57.5 13.5q24 0 43 -7.5t32 -16.5q15 -11 26 -23l-32 -76q-8 9 -18 16q-8 6 -19.5 11.5 t-24.5 5.5zM134 351q0 -72 17 -128.5t47 -95.5t72 -60t93 -21q52 0 94.5 21.5t72.5 61t46 96t16 126.5q0 146 -61.5 226t-167.5 80q-51 0 -93 -20.5t-72 -59.5t-47 -96t-17 -130z" />
<glyph unicode="&#xaa;" horiz-adv-x="425" d="M202 666q-15 0 -30.5 -3.5t-29.5 -8.5q-16 -5 -30 -11l-16 76q18 8 39 15q17 6 40 11t48 5q57 0 94.5 -28.5t37.5 -85.5v-278h-85l-4 38q-10 -12 -23 -22q-11 -8 -27 -15t-37 -7q-48 0 -78.5 31.5t-30.5 87.5q0 60 36.5 92.5t96.5 32.5q11 0 22 -2.5t20 -4.5q10 -3 19 -6 v37q0 21 -13.5 33.5t-48.5 12.5zM211 433q12 0 21.5 3t16.5 8q8 4 15 11v58q-6 3 -12 7l-13.5 4.5t-16.5 2.5q-56 0 -56 -47q0 -23 12.5 -35t32.5 -12z" />
<glyph unicode="&#xad;" horiz-adv-x="421" d="M100 388h221v-113h-221v113z" />
<glyph unicode="&#xb4;" horiz-adv-x="330" d="M210 591h-93l39 160h120z" />
<glyph unicode="&#xb6;" horiz-adv-x="600" d="M415 610h-60v-792h-107v434h-5q-32 0 -62 14.5t-53 44.5t-37.5 74.5t-14.5 104.5q0 55 15 98t40 72t57.5 44.5t67.5 15.5h266v-902h-107v792z" />
<glyph unicode="&#xba;" horiz-adv-x="437" d="M219 750q28 0 54.5 -10.5t47.5 -34.5t33.5 -62.5t12.5 -93.5q0 -53 -11.5 -91t-32 -62t-47.5 -35t-57 -11t-57 11.5t-47.5 35.5t-32.5 61.5t-12 90.5q0 55 13 93.5t34 62.5t47.5 34.5t54.5 10.5zM219 429q29 0 42.5 26.5t13.5 93.5q0 35 -4 58.5t-11 37.5t-17.5 19.5 t-23.5 5.5q-26 0 -41 -25.5t-15 -95.5q0 -67 14 -93.5t42 -26.5z" />
<glyph unicode="&#xbf;" horiz-adv-x="472" d="M305 298q0 -56 -10 -92.5t-24.5 -61t-31.5 -41.5t-31.5 -34t-24.5 -38.5t-10 -54.5q0 -37 17 -62t64 -25q22 0 42 7t35 16q18 11 33 24l41 -92q-19 -19 -45 -33q-22 -13 -52 -23t-65 -10q-46 0 -81 15t-58 41.5t-35 61.5t-12 75q0 46 11 77t28 54t36.5 41t36.5 39t28 48 t11 68h97zM189 447q0 34 19 54.5t51 20.5q31 0 50.5 -20.5t19.5 -54.5t-19 -54.5t-51 -20.5t-51 20.5t-19 54.5z" />
<glyph unicode="&#xc1;" horiz-adv-x="550" d="M359 184h-176l-39 -184h-114l165 720h172l153 -720h-125zM204 286h135l-62 332h-4zM198 774l-10 77l219 48l13 -99z" />
<glyph unicode="&#xc9;" horiz-adv-x="504" d="M95 720h324v-110h-207v-187h170l-7 -108h-163v-205h207v-110h-324v720zM178 774l-10 77l219 48l13 -99z" />
<glyph unicode="&#xcd;" horiz-adv-x="404" d="M144 93v534h-64v93h244v-93h-63v-534h63v-93h-244v93h64zM108 774l-10 77l219 48l13 -99z" />
<glyph unicode="&#xd1;" horiz-adv-x="601" d="M203 444l-6 -3l15 -66v-375h-117v720h112l191 -466l6 3l-15 83v380h117v-720h-112zM458 888q0 -54 -25.5 -88.5t-67.5 -34.5q-17 0 -33 6t-31 12.5t-29 12.5t-26 6q-16 0 -26 -13t-11 -30l-67 15q0 26 7 48.5t20 39t29.5 26t36.5 9.5q17 0 33 -6t31 -12.5t29 -12.5t26 -6 q19 0 29.5 11.5t15.5 31.5z" />
<glyph unicode="&#xd3;" horiz-adv-x="556" d="M278 -12q-44 0 -84.5 20t-71.5 64t-49 114.5t-18 171.5q0 104 19 175.5t50.5 115.5t71.5 63.5t82 19.5t82 -19.5t71.5 -63.5t50.5 -115.5t19 -175.5q0 -101 -18 -171.5t-49 -114.5t-71 -64t-85 -20zM278 92q24 0 42 13.5t30.5 44.5t19 82t6.5 126q0 78 -7 129.5t-20 82.5 t-31 44t-40 13t-40 -13t-31 -44t-20 -82.5t-7 -129.5q0 -75 6.5 -126t19 -82t30.5 -44.5t42 -13.5zM198 774l-10 77l219 48l13 -99z" />
<glyph unicode="&#xda;" horiz-adv-x="586" d="M293 -12q-44 0 -80.5 15.5t-63.5 47t-42 78.5t-15 111v480h117v-480q0 -31 4 -57.5t13.5 -46t25.5 -30.5t41 -11t41 11t25.5 30.5t13.5 46t4 57.5v480h117v-480q0 -64 -16 -111t-43.5 -78.5t-64 -47t-77.5 -15.5zM204 774l-10 77l219 48l13 -99z" />
<glyph unicode="&#xdc;" horiz-adv-x="586" d="M293 -12q-44 0 -80.5 15.5t-63.5 47t-42 78.5t-15 111v480h117v-480q0 -31 4 -57.5t13.5 -46t25.5 -30.5t41 -11t41 11t25.5 30.5t13.5 46t4 57.5v480h117v-480q0 -64 -16 -111t-43.5 -78.5t-64 -47t-77.5 -15.5zM145 836q0 26 16 44.5t42 18.5t42 -18.5t16 -44.5 t-16 -44.5t-42 -18.5t-42 18.5t-16 44.5zM325 836q0 26 16 44.5t42 18.5t42 -18.5t16 -44.5t-16 -44.5t-42 -18.5t-42 18.5t-16 44.5z" />
<glyph unicode="&#xe1;" horiz-adv-x="518" d="M229 409q-22 0 -40 -4.5t-32 -9.5q-17 -6 -32 -14l-25 105q19 10 45 18q21 7 51 12.5t67 5.5q85 0 125 -42.5t40 -117.5v-362h-107l-7 47q-11 -17 -27 -29q-14 -11 -33.5 -20t-46.5 -9t-51.5 11t-43 32t-29.5 50.5t-11 67.5q0 78 43.5 119t119.5 41q15 0 28.5 -2.5 t24.5 -5.5q12 -4 22 -7v56q0 28 -19 43t-62 15zM251 85q14 0 24.5 4t18.5 10l16 15v97l-18 4q-8 2 -17.5 3.5t-18.5 1.5q-29 0 -45.5 -17.5t-16.5 -49.5q0 -33 15.5 -50.5t41.5 -17.5zM302 591h-93l39 160h120z" />
<glyph unicode="&#xe9;" horiz-adv-x="499" d="M275 92q21 0 40 5.5t34 13.5q17 8 32 19l35 -84q-20 -17 -44 -29q-20 -11 -48 -20t-60 -9q-89 0 -143 66.5t-54 193.5q0 71 16.5 122.5t44.5 85.5t63 50t73 16q37 0 68 -14t53.5 -46t34.5 -83t12 -124v-33h-243q0 -66 20 -98t66 -32zM256 418q-57 0 -66 -118h123 q0 118 -57 118zM305 591h-93l39 160h120z" />
<glyph unicode="&#xed;" horiz-adv-x="308" d="M49 404v101h167v-505h-118v404h-49zM198 591h-93l39 160h120z" />
<glyph unicode="&#xf1;" horiz-adv-x="536" d="M196 474q13 14 47 31t67 17q69 0 102.5 -45t33.5 -128v-349h-118v336q0 39 -13 55t-44 16q-19 0 -36 -5.5t-27 -12.5v-389h-118v499l96 23zM426 733q0 -54 -25.5 -88.5t-67.5 -34.5q-17 0 -33 6t-31 12.5t-29 12.5t-26 6q-16 0 -26 -13t-11 -30l-67 15q0 26 7 48.5t20 39 t29.5 26t36.5 9.5q17 0 33 -6t31 -12.5t29 -12.5t26 -6q19 0 29.5 11.5t15.5 31.5z" />
<glyph unicode="&#xf3;" horiz-adv-x="532" d="M266 522q43 0 79.5 -17t63 -51t41.5 -84t15 -116q0 -127 -52.5 -196.5t-146.5 -69.5t-146.5 69.5t-52.5 196.5q0 66 15 116t41.5 84t63 51t79.5 17zM266 90q43 0 60.5 41t17.5 123q0 87 -20 124.5t-58 37.5t-58 -37.5t-20 -124.5q0 -82 17.5 -123t60.5 -41zM312 591h-93 l39 160h120z" />
<glyph unicode="&#xfa;" horiz-adv-x="529" d="M205 510v-352q0 -66 55 -66q14 0 25 3t19 8q9 4 16 11v396h117v-510h-107l-6 52q-11 -18 -27 -32q-14 -12 -34.5 -22t-49.5 -10q-63 0 -94.5 44t-31.5 118v360h118zM305 591h-93l39 160h120z" />
<glyph unicode="&#xfc;" horiz-adv-x="529" d="M205 510v-352q0 -66 55 -66q14 0 25 3t19 8q9 4 16 11v396h117v-510h-107l-6 52q-11 -18 -27 -32q-14 -12 -34.5 -22t-49.5 -10q-63 0 -94.5 44t-31.5 118v360h118zM116 656q0 26 16 44.5t42 18.5t42 -18.5t16 -44.5t-16 -44.5t-42 -18.5t-42 18.5t-16 44.5zM296 656 q0 26 16 44.5t42 18.5t42 -18.5t16 -44.5t-16 -44.5t-42 -18.5t-42 18.5t-16 44.5z" />
<glyph unicode="&#x2c6;" horiz-adv-x="405" d="M91 587l60 164h102l61 -164l-32 -22l-81 106l-80 -106z" />
<glyph unicode="&#x2dc;" horiz-adv-x="459" d="M387 733q0 -54 -25.5 -88.5t-67.5 -34.5q-17 0 -33 6t-31 12.5t-29 12.5t-26 6q-16 0 -26 -13t-11 -30l-67 15q0 26 7 48.5t20 39t29.5 26t36.5 9.5q17 0 33 -6t31 -12.5t29 -12.5t26 -6q19 0 29.5 11.5t15.5 31.5z" />
<glyph unicode="&#x2000;" horiz-adv-x="451" />
<glyph unicode="&#x2001;" horiz-adv-x="903" />
<glyph unicode="&#x2002;" horiz-adv-x="451" />
<glyph unicode="&#x2003;" horiz-adv-x="903" />
<glyph unicode="&#x2004;" horiz-adv-x="301" />
<glyph unicode="&#x2005;" horiz-adv-x="225" />
<glyph unicode="&#x2006;" horiz-adv-x="150" />
<glyph unicode="&#x2007;" horiz-adv-x="150" />
<glyph unicode="&#x2008;" horiz-adv-x="112" />
<glyph unicode="&#x2009;" horiz-adv-x="180" />
<glyph unicode="&#x200a;" horiz-adv-x="50" />
<glyph unicode="&#x2010;" horiz-adv-x="421" d="M100 388h221v-113h-221v113z" />
<glyph unicode="&#x2011;" horiz-adv-x="421" d="M100 388h221v-113h-221v113z" />
<glyph unicode="&#x2012;" horiz-adv-x="421" d="M100 388h221v-113h-221v113z" />
<glyph unicode="&#x2013;" horiz-adv-x="700" d="M100 388h500v-113h-500v113z" />
<glyph unicode="&#x2014;" horiz-adv-x="1200" d="M100 388h1000v-113h-1000v113z" />
<glyph unicode="&#x2018;" horiz-adv-x="270" d="M195 471q0 -32 -17 -56t-42 -24q-26 0 -43.5 25.5t-17.5 74.5q0 81 22.5 146.5t66.5 112.5l29 -66q-20 -23 -30.5 -62t-5.5 -78q16 -8 27 -27.5t11 -45.5z" />
<glyph unicode="&#x2019;" horiz-adv-x="270" d="M75 670q0 32 17 56t42 24q26 0 43.5 -25.5t17.5 -74.5q0 -164 -89 -259l-30 66q20 23 31 62t6 78q-17 8 -27.5 27.5t-10.5 45.5z" />
<glyph unicode="&#x202f;" horiz-adv-x="180" />
<glyph unicode="&#x205f;" horiz-adv-x="225" />
<glyph unicode="&#x25fc;" horiz-adv-x="510" d="M0 510h510v-510h-510v510z" />
</font>
</defs>
</svg>
