<?xml version="1.0" standalone="no"?>
<!DOCTYPE svg PUBLIC "-//W3C//DTD SVG 1.1//EN" "http://www.w3.org/Graphics/SVG/1.1/DTD/svg11.dtd" >
<svg xmlns="http://www.w3.org/2000/svg" xmlns:xlink="http://www.w3.org/1999/xlink" version="1.1">
<metadata></metadata>
<defs>
<font id="tieregular" horiz-adv-x="668" >
<font-face units-per-em="1000" ascent="834" descent="-166" />
<missing-glyph horiz-adv-x="600" />
<glyph horiz-adv-x="0" />
<glyph horiz-adv-x="333" />
<glyph unicode=" "  horiz-adv-x="600" />
<glyph unicode="&#x09;" horiz-adv-x="600" />
<glyph unicode="&#xa0;" horiz-adv-x="600" />
<glyph unicode="!" horiz-adv-x="409" d="M142 834v-640h125v640h-125zM142 61q0 -25 18 -43t43 -18q26 0 45 18t19 43q0 27 -18.5 45.5t-45.5 18.5q-26 0 -43.5 -18t-17.5 -46z" />
<glyph unicode="(" horiz-adv-x="445" d="M395 841q-115 -98 -164 -238t-22 -286t125 -262q44 -48 61 -63q-139 191 -139 426t139 423z" />
<glyph unicode=")" horiz-adv-x="445" d="M50 -8q115 98 164 238t22 286t-125 262q-44 48 -61 63q140 -191 140 -426t-140 -423z" />
<glyph unicode="," horiz-adv-x="882" d="M546 -105v167q0 27 24 49q20 14 46 10.5t42 -23.5q17 -19 13.5 -45.5t-25.5 -42.5z" />
<glyph unicode="-" horiz-adv-x="693" d="M231 216v125h231v-125h-231z" />
<glyph unicode="." horiz-adv-x="417" d="M292 63q0 -25 19 -44t44 -19q26 0 44 18.5t18 44.5t-18 44t-44 18t-44.5 -18t-18.5 -44z" />
<glyph unicode="0" horiz-adv-x="674" d="M566 603v-375q0 -94 -67.5 -161t-162.5 -67q-94 0 -161 67t-67 161v375q0 96 67 163.5t161 67.5q95 0 162.5 -67.5t67.5 -163.5zM441 228v375q0 44 -30.5 75t-74.5 31q-43 0 -73 -31t-30 -75v-375q0 -42 30 -72.5t73 -30.5q44 0 74.5 30.5t30.5 72.5z" />
<glyph unicode="1" horiz-adv-x="437" d="M67 711l12 -85l91 17v-643h125v834h-125q-26 -84 -103 -123z" />
<glyph unicode="2" horiz-adv-x="633" d="M83 603q0 81 44 138q57 77 151 90t170 -44q77 -57 90.5 -150.5t-43.5 -170.5l-255 -341h301v-125h-458v125l311 417q26 35 20.5 77.5t-40.5 67.5q-34 26 -77.5 20.5t-69.5 -40.5q-23 -37 -19 -76v-29h-125v41z" />
<glyph unicode="3" horiz-adv-x="626" d="M526 228q0 -94 -67.5 -161t-162.5 -67q-94 0 -161.5 67t-67.5 161h126q0 -42 30 -72.5t73 -30.5t74 30.5t31 72.5v59q0 44 -30.5 75t-74.5 31h-32v115h32q34 0 58.5 24t24.5 59v35q0 34 -24.5 58.5t-58.5 24.5t-59 -24.5t-25 -58.5h-125q0 86 61 147t148 61q86 0 147 -61 t61 -147v-35q0 -79 -51 -137q73 -67 73 -167v-59z" />
<glyph unicode="4" horiz-adv-x="643" d="M477 834v-542h66v-125h-66v-167h-126v167h-309v125l309 542h126zM351 292v289l-164 -289h164z" />
<glyph unicode="5" horiz-adv-x="634" d="M238 530q37 19 90 19q96 0 163.5 -67t67.5 -161v-93q0 -94 -67.5 -161t-163.5 -67q-94 0 -161 67t-67 161h125q0 -42 30.5 -72.5t72.5 -30.5q44 0 75 30.5t31 72.5v93q0 43 -31 73t-75 30q-53 0 -83 -41l-145 34l42 417h334l7 -125h-228z" />
<glyph unicode="6" horiz-adv-x="650" d="M376 697q-85 -101 -118 -221q36 15 78 15q96 0 163.5 -66.5t67.5 -161.5v-42q-4 -94 -72 -158t-164 -63q-94 2 -159 71t-64 165v41l5 93l5 50q27 164 118 294q23 35 90 120h157zM444 221v42q0 43 -31.5 74t-73.5 29q-43 0 -73.5 -30t-32.5 -73v-42q6 -44 40 -72t78 -24 q37 4 63 30.5t30 65.5z" />
<glyph unicode="7" horiz-adv-x="524" d="M341 451q-41 -144 -41 -294v-157h-125v115q0 169 54 331l9 27q57 117 79 236h-275v125h390q-7 -175 -76 -343l-12 -30z" />
<glyph unicode="8" horiz-adv-x="659" d="M174 454q-52 58 -52 137v35q0 86 61 147t148 61q86 0 147 -61t61 -147v-35q0 -73 -51 -137q71 -68 71 -167v-59q0 -94 -67 -161t-161 -67q-96 0 -163.5 67t-67.5 161v59q0 101 74 167zM247 626v-35q0 -35 24.5 -59t59.5 -24q33 0 58 24.5t25 58.5v35q0 34 -25 58.5 t-58 24.5q-35 0 -59.5 -24t-24.5 -59zM225 228q0 -42 31 -72.5t75 -30.5q42 0 72.5 30.5t30.5 72.5v59q0 44 -30.5 75t-72.5 31q-44 0 -75 -31t-31 -75v-59z" />
<glyph unicode="9" horiz-adv-x="677" d="M569 557l-5 -93l-5 -52q-25 -157 -118 -292q-62 -87 -90 -120h-157l108 137q79 94 117 221q-36 -15 -78 -15q-96 0 -164 66.5t-69 162.5v41q5 94 73 158t162 63q96 -1 162 -70t64 -165v-42zM231 613v-41q2 -44 33 -75t74 -31q43 2 73 32.5t30 73.5v41q-3 44 -36.5 72 t-78.5 24q-37 -4 -64.5 -31t-30.5 -65z" />
<glyph unicode=":" horiz-adv-x="417" d="M292 281q0 -25 18.5 -43t44.5 -18t44 17.5t18 43.5t-18 45t-44 19t-44.5 -19t-18.5 -45zM292 63q0 -25 19 -44t44 -19q26 0 44 18.5t18 44.5t-18 44t-44 18t-44.5 -18t-18.5 -44z" />
<glyph unicode=";" horiz-adv-x="881" d="M546 277q0 -25 18 -43t43 -18q26 0 45 18t19 43q0 26 -19 45t-45 19q-25 0 -43 -19t-18 -45zM546 -108v167q0 32 24 49q20 16 46 13t40 -23q16 -22 13.5 -47.5t-22.5 -40.5z" />
<glyph unicode="?" horiz-adv-x="675" d="M401 277v-84h-124v84q0 88 51 149l142 120q22 38 8 83t-54 67q-20 12 -59 12q-60 11 -110 -23.5t-59 -93.5q-3 -11 -3 -27h-126q0 21 3 33q12 111 101 181t202 56q74 0 135 -42q79 -57 96 -153.5t-39 -176.5l-146 -123q-18 -30 -18 -62zM277 61q0 -25 17.5 -43t43.5 -18 t44.5 18t18.5 43q0 26 -18.5 44.5t-44.5 18.5q-25 0 -43 -18.5t-18 -44.5z" />
<glyph unicode="A" d="M405 834l221 -834h-125l-39 142h-253l-42 -142h-125l223 834h140zM334 586l-91 -319h182z" />
<glyph unicode="B" horiz-adv-x="766" d="M141 834h287q88 0 150.5 -62t62.5 -151v-32q0 -75 -46 -135q88 -65 88 -179v-50q0 -94 -65.5 -159.5t-159.5 -65.5h-317v834zM266 500h162q37 0 62.5 26t25.5 63v32q0 37 -25.5 62.5t-62.5 25.5h-162v-209zM266 375v-250h192q42 0 71 29t29 71v50q0 42 -29 71t-71 29 h-192z" />
<glyph unicode="C" d="M75 565q0 112 80 190.5t193 78.5q112 0 191 -78.5t79 -190.5h-126q0 59 -42 101.5t-102 42.5q-61 0 -104.5 -42.5t-43.5 -101.5v-293q0 -61 43.5 -104t104.5 -43q60 0 102 43t42 104v19h126v-19q0 -114 -79 -193t-191 -79q-113 0 -193 79t-80 193v293z" />
<glyph unicode="D" d="M58 0v834h292q104 0 177.5 -73t73.5 -177v-334q0 -104 -73.5 -177t-177.5 -73h-292zM184 125h166q52 0 88.5 36.5t36.5 88.5v334q0 52 -36.5 88.5t-88.5 36.5h-166v-584z" />
<glyph unicode="E" horiz-adv-x="683" d="M142 0v834h458v-125h-333v-208h225v-125h-225v-251h333v-125h-458z" />
<glyph unicode="F" horiz-adv-x="651" d="M142 834v-834h125v375h225v125h-225v209h334v125h-459z" />
<glyph unicode="G" horiz-adv-x="725" d="M75 564q0 112 79.5 191t192.5 79q112 0 191 -79t79 -191h-125q0 59 -42.5 102t-102.5 43q-61 0 -104 -43t-43 -102v-292q0 -61 43 -104t104 -43q60 0 102.5 43t42.5 104v8v54h-145v125h270v-459h-83l-33 48q-71 -48 -154 -48q-113 0 -192.5 80t-79.5 192v292z" />
<glyph unicode="H" horiz-adv-x="828" d="M562 0h124v834h-124v-332h-293v332h-127v-834h127v375h293v-375z" />
<glyph unicode="I" horiz-adv-x="409" d="M142 0h125v834h-125v-834z" />
<glyph unicode="J" horiz-adv-x="602" d="M125 229q0 -43 30.5 -73.5t73.5 -30.5t73.5 30.5t30.5 73.5v605h127v-605q0 -95 -68 -162t-163 -67t-162 67t-67 162h125z" />
<glyph unicode="K" horiz-adv-x="709" d="M267 208l100 150l175 -358h142l-238 479l238 355h-150l-267 -401v401h-125v-834h125v208z" />
<glyph unicode="L" horiz-adv-x="559" d="M142 0h417v125h-292v709h-125v-834z" />
<glyph unicode="M" horiz-adv-x="950" d="M473 0l-208 542v-542h-123v834h139l192 -475l193 475h142v-834h-125v542z" />
<glyph unicode="N" horiz-adv-x="826" d="M142 0h125v563l292 -563h125v834h-125v-562l-292 562h-125v-834z" />
<glyph unicode="O" horiz-adv-x="692" d="M617 272q0 -113 -79 -192.5t-191 -79.5q-113 0 -192.5 80t-79.5 192v292q0 112 79.5 191t192.5 79q112 0 191 -79t79 -191v-292zM492 272v292q0 59 -42.5 102t-102.5 43q-61 0 -104 -43t-43 -102v-292q0 -61 43 -104t104 -43q60 0 102.5 43t42.5 104z" />
<glyph unicode="P" horiz-adv-x="675" d="M267 375v-375h-125v834h288q88 0 150 -62t62 -150v-34q0 -88 -62 -150.5t-150 -62.5h-163zM267 500h163q36 0 61.5 26t25.5 62v34q0 35 -25.5 61t-61.5 26h-163v-209z" />
<glyph unicode="Q" horiz-adv-x="714" d="M619 272v292q0 112 -80 191t-192 79q-113 0 -192.5 -79t-79.5 -191v-292q0 -112 79.5 -192t192.5 -80q78 0 142 41q25 -37 65 -57.5t85 -20.5v125q-38 0 -76 19q56 77 56 165zM492 272q0 -61 -42 -104t-103 -43q-60 0 -103 43t-43 104v292q0 59 43 102.5t103 43.5 t102.5 -43t42.5 -103v-292z" />
<glyph unicode="R" horiz-adv-x="709" d="M267 375h106l136 -375h133l-140 388q63 22 101.5 77t38.5 122v33q0 89 -62 151.5t-150 62.5h-288v-834h125v375zM267 500v209h163q36 0 61.5 -26t25.5 -63v-33q0 -36 -25.5 -61.5t-61.5 -25.5h-163z" />
<glyph unicode="S" horiz-adv-x="676" d="M367 834q92 0 157 -65t65 -157h-125q0 40 -28 68.5t-69 28.5h-58q-39 0 -67 -28.5t-28 -68.5q0 -30 17.5 -54.5t46.5 -35.5l173 -60q71 -25 114.5 -87t43.5 -138q0 -98 -69.5 -167.5t-167.5 -69.5h-33q-112 0 -192 79.5t-80 190.5h125q0 -59 43 -102t104 -43 q46 0 84 26.5t53 70.5q13 37 -6 72q-22 36 -61 50l-173 60q-66 23 -106.5 80.5t-40.5 127.5q0 92 64.5 157t155.5 65h58z" />
<glyph unicode="T" horiz-adv-x="574" d="M17 834v-125h208v-709h124v709h208v125h-540z" />
<glyph unicode="U" horiz-adv-x="826" d="M142 270v564h125v-564q0 -59 43 -102t104 -43q59 0 102 43t43 102v564h125v-564q0 -111 -79.5 -190.5t-190.5 -79.5q-113 0 -192.5 79.5t-79.5 190.5z" />
<glyph unicode="V" d="M42 834l229 -834h125l230 834h-133l-159 -584l-158 584h-134z" />
<glyph unicode="W" horiz-adv-x="876" d="M437 484l-95 -484h-134l-166 834h133l100 -517l100 517h125l100 -517l101 517h133l-167 -834h-133z" />
<glyph unicode="X" horiz-adv-x="676" d="M267 440l-180 394h142l108 -238l109 238h142l-179 -394l200 -440h-142l-130 283l-128 -283h-142z" />
<glyph unicode="Y" horiz-adv-x="576" d="M226 0v334l-209 500h142l130 -310l129 310h141l-208 -500v-334h-125z" />
<glyph unicode="Z" horiz-adv-x="708" d="M83 0h542v125h-401l381 584v125h-501v-125h359l-380 -584v-125z" />
<glyph unicode="a" horiz-adv-x="533" d="M466 472v-472h-125v38q-79 -47 -164 -43q-47 0 -79 25q-37 40 -45.5 93t12.5 102q49 69 121.5 109t154.5 44v86q-10 26 -36 38t-52 2q-18 -8 -29.5 -25t-11.5 -36h-127q0 68 42.5 121.5t109.5 66.5q79 16 145.5 -27.5t83.5 -121.5zM341 299q-68 -16 -114 -59 q-34 -25 -45 -67q-6 -19 -3 -44q6 -22 26 -33.5t42 -6.5l6 1q39 6 88 36v173z" />
<glyph unicode="b" horiz-adv-x="567" d="M500 476q0 63 -43 106.5t-106 43.5q-70 -10 -143 -49v257h-125v-834h125v49q72 -42 143 -49q56 2 98.5 38t50.5 90v348zM208 442q0 34 25.5 58.5t58.5 24.5q35 0 59.5 -24.5t24.5 -58.5v-258q0 -34 -25 -59t-59 -25q-33 0 -58.5 25t-25.5 59v258z" />
<glyph unicode="c" horiz-adv-x="550" d="M67 416v10q4 86 66.5 144t148.5 55q87 -4 145 -67t56 -149h-125q2 35 -19.5 61t-56.5 30q-34 3 -60.5 -19t-29.5 -55v-10v-208q0 -33 24.5 -58t58.5 -25q33 0 58 25t25 58v10h125v-10q0 -86 -61 -147t-147 -61t-147 61t-61 147v208z" />
<glyph unicode="d" horiz-adv-x="570" d="M487 834v-834h-128v39q-71 -39 -145 -39q-61 2 -104 45.5t-43 104.5v326q0 25 12 54q22 59 78.5 83.5t115.5 2.5l49 -20q23 -9 37 -17v255h128zM359 177v265q0 34 -24.5 58.5t-58.5 24.5t-59 -24.5t-25 -58.5v-265q0 -35 25 -59.5t59 -24.5q35 0 59 24.5t24 59.5z" />
<glyph unicode="e" horiz-adv-x="541" d="M58 417q0 86 61 147t147 61t147 -61t61 -147v-116h-291v-93q0 -34 24 -58.5t59 -24.5q34 0 58.5 25t24.5 58h125q0 -86 -61 -147t-147 -61t-147 61t-61 147v209zM349 409q4 35 -18 61t-58 30q-33 4 -60 -18t-30 -56v-17h166z" />
<glyph unicode="f" horiz-adv-x="321" d="M296 625v-109h-77v-516h-127v516h-67v109h67v8q0 86 59 147.5t145 63.5v-127q-35 -1 -57 -28t-20 -64h77z" />
<glyph unicode="g" horiz-adv-x="544" d="M352 625h125v-615q0 -8 -5 -20q-26 -83 -102 -123.5t-159 -14.5l32 123q33 -13 64 1.5t45 47.5q0 2 1 2q-72 -29 -144 -29q-61 0 -106 45t-45 108v325q0 63 45 106.5t108 43.5q79 -3 141 -42v42zM352 175v262q0 36 -24.5 60.5t-59.5 24.5q-34 0 -59 -25t-25 -60v-262 q0 -35 25.5 -60t58.5 -25q35 0 59.5 25t24.5 60z" />
<glyph unicode="h" horiz-adv-x="567" d="M497 527q3 -5 3 -12v-515h-125v444q0 33 -24.5 58t-59.5 25q-34 0 -58.5 -25t-24.5 -58v-444h-125v834h125v-245q66 36 145 36q47 0 86.5 -27t57.5 -71z" />
<glyph unicode="i" horiz-adv-x="291" d="M83 833v-125h125v125h-125zM83 0h125v625h-125v-625z" />
<glyph unicode="j" horiz-adv-x="293" d="M210 834v-126h-125v126h125zM210 625v-626q0 -3 -1.5 -10.5t-1.5 -11.5q-9 -73 -66.5 -118.5t-132.5 -38.5l23 125q22 0 38 16t16 38v626h125z" />
<glyph unicode="k" horiz-adv-x="525" d="M500 618l-141 -216l141 -402h-132l-95 270l-64 -103v-167h-126v834h126v-436l12 19l130 201h149z" />
<glyph unicode="l" horiz-adv-x="291" d="M83 0h125v834h-125v-834z" />
<glyph unicode="m" horiz-adv-x="858" d="M632 625q66 0 112.5 -46.5t46.5 -112.5v-466h-125v441q0 35 -24 59.5t-59 24.5t-59 -24.5t-24 -59.5v-441h-125v441q0 35 -24.5 59.5t-59.5 24.5t-59 -24.5t-24 -59.5v-441h-125v625h125v-32q50 25 98 32h34q63 0 108 -42q76 42 159 42h25z" />
<glyph unicode="n" horiz-adv-x="567" d="M340 625q67 0 113.5 -46.5t46.5 -112.5v-466h-125v441q0 35 -24.5 59.5t-59.5 24.5t-59 -24.5t-24 -59.5v-441h-125v625h125v-32q48 25 98 32h34z" />
<glyph unicode="o" horiz-adv-x="550" d="M67 209v208q0 86 61 147t147 61t147 -61t61 -147v-208q0 -87 -61 -148t-147 -61t-147 61t-61 148zM192 209q0 -34 24.5 -59t58.5 -25t58.5 24.5t24.5 59.5v208q0 35 -24 59t-59 24q-34 0 -58.5 -24t-24.5 -59v-208z" />
<glyph unicode="p" horiz-adv-x="567" d="M353 625q61 -1 104 -45t43 -104v-326q0 -61 -43 -104.5t-104 -45.5q-73 0 -145 39v-205h-125v791h125v-39q72 39 145 39zM375 441q0 35 -24.5 59.5t-59.5 24.5t-59 -24.5t-24 -59.5v-262q0 -35 24 -59t59 -24t59.5 24t24.5 59v262z" />
<glyph unicode="q" horiz-adv-x="566" d="M214 625q-63 -1 -105 -44.5t-42 -104.5v-326q0 -61 42 -104.5t105 -44.5q75 0 144 39v-206h125v791h-125v-39q-69 39 -144 39zM192 442q0 35 24 59t59 24t59 -24t24 -59v-263q0 -35 -24 -59t-59 -24t-59 24t-24 59v263z" />
<glyph unicode="r" horiz-adv-x="356" d="M208 434q0 33 22 59q24 24 59 24t59 -24v132q-75 0 -140 -34v34h-125v-625h125v434z" />
<glyph unicode="s" horiz-adv-x="507" d="M273 625q70 0 118.5 -48.5t48.5 -118.5h-120q0 19 -13.5 33t-33.5 14h-25q-18 0 -32 -14t-14 -33q0 -27 24 -39l135 -76q60 -31 84 -94.5t2 -128.5q-26 -55 -77 -87.5t-112 -32.5q-86 0 -147 61t-61 147h115q0 -38 27 -64t66 -26q38 0 64 27q16 18 13.5 44.5t-20.5 40.5 q-8 5 -10 8l-137 73q-39 23 -62.5 62.5t-23.5 84.5q0 69 49 118t117 49h25z" />
<glyph unicode="t" horiz-adv-x="343" d="M301 625v-125h-67v-301q0 -29 18.5 -50.5t48.5 -25.5v-125q-82 4 -137 62t-55 139v301h-76v125h76v209h125v-209h67z" />
<glyph unicode="u" horiz-adv-x="570" d="M487 625v-625h-126v39q-75 -39 -147 -39q-60 2 -103.5 45.5t-43.5 103.5v476h125v-451q0 -33 26 -58t60 -25q33 0 58 25t25 58v451h126z" />
<glyph unicode="v" horiz-adv-x="508" d="M25 625h125l105 -392l103 392h125l-166 -625h-125z" />
<glyph unicode="w" horiz-adv-x="800" d="M484 0h125l166 625h-125l-103 -390l-105 390h-83l-103 -390l-106 390h-125l167 -625h125l83 314z" />
<glyph unicode="x" horiz-adv-x="493" d="M309 333l167 -333h-125l-106 208l-103 -208h-125l167 333l-147 292h125l83 -167l84 167h125z" />
<glyph unicode="y" horiz-adv-x="520" d="M495 625l-165 -619q-1 -4 -2.5 -9.5t-1.5 -7.5q-17 -78 -83 -122t-146 -29l40 119q43 0 65 40l9 17q5 13 0.5 25.5t-17.5 18.5l-10 5l-151 562h131l99 -376l101 376h131z" />
<glyph unicode="z" horiz-adv-x="542" d="M42 0h458v125h-316l296 375v125h-416v-125h274l-296 -375v-125z" />
<glyph unicode="&#xad;" horiz-adv-x="693" d="M231 216v125h231v-125h-231z" />
<glyph unicode="&#xc4;" horiz-adv-x="669" d="M277 936q0 -28 -20.5 -47.5t-47.5 -19.5q-28 0 -47.5 19.5t-19.5 47.5q0 27 19.5 46.5t47.5 19.5q27 0 47.5 -19.5t20.5 -46.5zM528 936q0 -28 -20 -47.5t-48 -19.5t-47.5 19.5t-19.5 47.5q0 27 19.5 46.5t47.5 19.5t48 -19.5t20 -46.5zM405 834l222 -834h-126l-40 143 h-252l-41 -143h-126l220 834h143zM333 587l-89 -319h181z" />
<glyph unicode="&#xc5;" d="M432 969q0 -40 -28.5 -68t-69.5 -28q-39 0 -67.5 28t-28.5 68q0 38 28.5 66.5t67.5 28.5q40 0 69 -28.5t29 -66.5zM302 969q0 -15 9.5 -25t22.5 -10q14 0 24 10t10 25q0 13 -10 22t-24 9q-13 0 -22.5 -9t-9.5 -22zM405 834l221 -834h-126l-39 142h-252l-42 -142h-125 l223 834h140zM424 267l-90 319l-91 -319h181z" />
<glyph unicode="&#xd6;" horiz-adv-x="692" d="M155 933q0 -27 20 -46t47 -19t46.5 19t19.5 46q0 28 -19.5 47.5t-46.5 19.5t-47 -19.5t-20 -47.5zM406 933q0 -27 19 -46t47 -19t47 19t19 46q0 28 -19 47.5t-47 19.5t-47 -19.5t-19 -47.5zM617 272q0 -112 -79 -192t-191 -80t-192 80t-80 192v291q0 112 80 191.5 t192 79.5t191 -79.5t79 -191.5v-291zM491 272v291q0 61 -41.5 103t-102.5 42q-60 0 -103.5 -42.5t-43.5 -102.5v-291q0 -61 43.5 -104t103.5 -43t102 43t42 104z" />
<glyph unicode="&#xe4;" horiz-adv-x="530" d="M96 834v-127h124v127h-124zM321 834v-127h124v127h-124zM463 470v-470h-125v39q-81 -45 -164 -41q-41 -4 -78 24q-35 41 -43.5 93.5t13.5 99.5q46 68 117.5 108t154.5 44v86q-11 26 -36 37t-50 2q-20 -7 -32 -24t-12 -37h-125q0 67 43 119t109 67q77 17 144.5 -26.5 t83.5 -120.5zM338 298q-63 -13 -115 -58q-28 -24 -42 -66q-8 -23 -5 -47q6 -20 25 -31t41 -5l5 1q40 6 91 35v171z" />
<glyph unicode="&#xe5;" horiz-adv-x="537" d="M360 750q0 -36 -25 -60.5t-60 -24.5q-34 0 -59.5 25t-25.5 60q0 33 26 58.5t59 25.5q35 0 60 -25.5t25 -58.5zM245 750q0 -13 9 -22t21 -9q13 0 21.5 9t8.5 22q0 11 -8.5 19t-21.5 8q-12 0 -21 -8t-9 -19zM470 476v-476h-127v37q-77 -45 -168 -42q-48 0 -79 25 q-36 41 -44 94.5t15 102.5q46 68 119 109t157 45v87q-11 26 -36.5 38t-51.5 2q-20 -7 -32 -24.5t-12 -38.5h-127q0 70 43.5 123.5t110.5 66.5q80 17 147.5 -26.5t84.5 -122.5zM343 301q-66 -15 -117 -59q-33 -30 -43 -68q-5 -15 -5 -44q7 -22 27 -33.5t43 -6.5l5 1 q55 15 90 36v174z" />
<glyph unicode="&#xf6;" horiz-adv-x="551" d="M101 834v-125h125v125h-125zM327 834v-125h125v125h-125zM67 208v209q0 86 61 147t148 61q86 0 147 -61t61 -147v-209q0 -86 -61 -147t-147 -61q-87 0 -148 61t-61 147zM192 208q0 -34 25 -58.5t59 -24.5t58.5 24.5t24.5 58.5v209q0 33 -24.5 58t-58.5 25t-59 -25 t-25 -58v-209z" />
<glyph unicode="&#x2000;" horiz-adv-x="532" />
<glyph unicode="&#x2001;" horiz-adv-x="1064" />
<glyph unicode="&#x2002;" horiz-adv-x="532" />
<glyph unicode="&#x2003;" horiz-adv-x="1064" />
<glyph unicode="&#x2004;" horiz-adv-x="354" />
<glyph unicode="&#x2005;" horiz-adv-x="266" />
<glyph unicode="&#x2006;" horiz-adv-x="177" />
<glyph unicode="&#x2007;" horiz-adv-x="177" />
<glyph unicode="&#x2008;" horiz-adv-x="133" />
<glyph unicode="&#x2009;" horiz-adv-x="212" />
<glyph unicode="&#x200a;" horiz-adv-x="59" />
<glyph unicode="&#x2010;" horiz-adv-x="693" d="M231 216v125h231v-125h-231z" />
<glyph unicode="&#x2011;" horiz-adv-x="693" d="M231 216v125h231v-125h-231z" />
<glyph unicode="&#x2012;" horiz-adv-x="693" d="M231 216v125h231v-125h-231z" />
<glyph unicode="&#x2013;" horiz-adv-x="962" d="M231 216v125h500v-125h-500z" />
<glyph unicode="&#x2014;" horiz-adv-x="1462" d="M231 216v125h1000v-125h-1000z" />
<glyph unicode="&#x202f;" horiz-adv-x="212" />
<glyph unicode="&#x205f;" horiz-adv-x="266" />
<glyph unicode="&#x25fc;" horiz-adv-x="625" d="M0 625h625v-625h-625v625z" />
</font>
</defs>
</svg>
