<?xml version="1.0" standalone="no"?>
<!DOCTYPE svg PUBLIC "-//W3C//DTD SVG 1.1//EN" "http://www.w3.org/Graphics/SVG/1.1/DTD/svg11.dtd" >
<svg xmlns="http://www.w3.org/2000/svg" xmlns:xlink="http://www.w3.org/1999/xlink" version="1.1">
<metadata></metadata>
<defs>
<font id="tratexsvartregular" horiz-adv-x="715" >
<font-face units-per-em="1000" ascent="800" descent="-200" />
<missing-glyph horiz-adv-x="367" />
<glyph horiz-adv-x="0" />
<glyph unicode="&#xd;" horiz-adv-x="367" />
<glyph unicode=" "  horiz-adv-x="367" />
<glyph unicode="&#x09;" horiz-adv-x="367" />
<glyph unicode="&#xa0;" horiz-adv-x="367" />
<glyph unicode="&#x26;" horiz-adv-x="809" d="M600 187q50 109 79 224l-132 49q-18 -74 -46 -145l-95 124q41 36 61 61q40 51 40 122q0 78 -51 137q-52 43 -120 43h-2.5h-2.5h-1q-54 0 -99.5 -30t-67.5 -80q-12 -38 -12 -78q0 -15 1 -27q17 -63 52 -116v-1q-64 -38 -101.5 -101.5t-37.5 -137.5q0 -53 17 -93 q28 -68 86.5 -106t131.5 -38q120 0 212 77l55 -71h177zM276 637q1 19 17 33t36 14q32 0 53 -31q4 -13 4 -27q0 -9 -2 -18q-16 -31 -42 -53q-12 -8 -22 -15v0v0v0q-22 21 -37 50q-9 17 -9 33q0 7 2 14zM305 135h-2q-5 -1 -6 -1q-61 0 -85 56q-6 20 -6 41q0 74 70 119l14 9 l136 -176q-49 -45 -121 -48z" />
<glyph unicode="(" horiz-adv-x="438" d="M224 -113q-137 238 -137 512t137 512v0l126 -72q-117 -204 -117 -440q0 -235 117 -439v0z" />
<glyph unicode=")" horiz-adv-x="438" d="M87 -40q118 204 118 439q0 236 -118 440v0l126 72q137 -237 137 -512q0 -274 -137 -512v0z" />
<glyph unicode="," horiz-adv-x="334" d="M240 -188v367h-146v-367h146z" />
<glyph unicode="-" horiz-adv-x="654" d="M584 226v146h-513v-146h513z" />
<glyph unicode="." horiz-adv-x="372" d="M280 97q0 39 -27.5 66.5t-66.5 27.5t-66.5 -27.5t-27.5 -66.5t27.5 -66.5t66.5 -27.5t66.5 27.5t27.5 66.5z" />
<glyph unicode="0" horiz-adv-x="824" d="M647 706q-91 104 -234 104h-1h-2q-142 0 -234 -104q-113 -128 -113 -303v-5q0 -176 113 -304q92 -103 234 -103h2h1q143 0 234 103q113 129 113 304v5q0 175 -113 303zM614 398q0 -120 -76 -207q-48 -54 -125 -54h-1h-2q-77 0 -124 54q-77 87 -77 207v5q0 120 77 207 q48 54 124 54h2h1q77 0 125 -54q76 -87 76 -207v-5z" />
<glyph unicode="1" horiz-adv-x="386" d="M165 0v569h-90v90l123 141h113v-800h-146z" />
<glyph unicode="2" horiz-adv-x="744" d="M266 145q29 46 75 76v0l197 112q75 43 108 127v0q15 43 15 89t-15 89v0q-43 111 -155 150v0q-56 15 -114 15q-66 0 -130 -19v0q-73 -26 -118.5 -89.5t-45.5 -141.5v-9v0h146q-1 2 -1 6q0 33 19.5 60t51.5 38v0q36 10 75 10q38 0 75 -10v0q45 -16 61 -62v0q7 -18 7 -37 q0 -20 -7 -38v0q-12 -33 -42 -51v0l-197 -113q-88 -50 -138 -139t-50 -192v-16v0h577v145h-394z" />
<glyph unicode="3" horiz-adv-x="706" d="M268 357h135q67 0 95 -61v0q9 -20 9 -42t-9 -42v0q-32 -60 -98 -71v0q-30 -5 -59 -5t-59 5v0q-66 17 -113 66v0l-108 -94q74 -88 188 -113v0q46 -9 90 -9q43 0 89 9v0q122 30 188 136v0q29 56 29 118q0 25 -5 52v0q-13 76 -71 127v0q47 62 47 140v15v0q-5 103 -89 160v0 q-83 59 -184 61v0q-142 0 -249 -94v0l94 -103q66 56 152 56q23 0 45 -5v0q53 -10 81 -56v0q6 -16 6 -33t-6 -33v0q-21 -47 -72 -47h-4v0h-122v-137z" />
<glyph unicode="4" horiz-adv-x="772" d="M597 800l-343 -471h205v109l146 75v-184h103v-141h-103v-188h-146v188h-395v127l352 485h181z" />
<glyph unicode="5" horiz-adv-x="692" d="M473 212q8 21 8 43q0 13 -3 27v0q-13 53 -61 76v0q-40 15 -82 15q-13 0 -27 -1v0q-69 -10 -122 -57v0l-122 61l89 424h438v-146h-319l-32 -148q32 8 64 12v0q20 2 39 2q65 0 126 -26v0q118 -49 150 -174v0q9 -33 9 -67q0 -56 -23 -107v0q-61 -115 -188 -146v0 q-39 -8 -78 -8q-158 0 -271 111v0l104 99q69 -66 165 -66q24 0 47 5v0q61 14 89 71z" />
<glyph unicode="6" horiz-adv-x="734" d="M646 356q-62 127 -201 152q-34 6 -77 6q-39 0 -77 -6q77 190 252 294h-205q-131 -117 -210 -285q-62 -130 -62 -261q0 -64 20 -108q29 -64 85 -104.5t127 -49.5q28 -4 65 -4q46 0 82 6q139 25 201 152q23 47 23 104q0 58 -23 104zM417 139q-26 -5 -51 -5t-52 5 q-44 7 -76 39q-35 34 -35 77q0 22 9 40q31 63 102 76q27 4 52 4t51 -4q71 -13 103 -76q9 -18 9 -40q0 -43 -34 -76t-78 -40z" />
<glyph unicode="7" horiz-adv-x="692" d="M366 418l98 236h-400v146h564v-132l-277 -668h-158z" />
<glyph unicode="8" horiz-adv-x="734" d="M635 388v0q-19 28 -47 47q47 62 47 145q0 62 -31.5 114t-86.5 79q-67 33 -150 33q-84 0 -150 -33q-55 -27 -86.5 -80t-31.5 -115q0 -83 47 -143q-28 -19 -47 -47v0q-38 -61 -38 -134q0 -70 33 -125q63 -103 184 -127q41 -8 89 -8t89 8q121 24 184 127q33 55 33 125 q0 73 -38 134zM282 646q38 19 85 19q46 0 86.5 -19.5t40.5 -68.5v-6q-1 -27 -20.5 -46.5t-46.5 -19.5h-121h-1q-27 0 -46 19t-19 46v1v6q0 48 42 69zM517 209q-46 -71 -150 -71t-150 71q-11 22 -11 45q0 42 30.5 71.5t71.5 29.5h117q56 0 88 -47q15 -24 15 -54 q0 -24 -11 -45z" />
<glyph unicode="9" horiz-adv-x="734" d="M453 799q-36 7 -82 7q-45 0 -83 -7q-140 -24 -202 -150q-23 -47 -23 -104t23 -103q62 -126 202 -150q36 -7 78 -7q40 0 78 7q-78 -189 -254 -292h207q131 117 211 282q63 130 63 259q0 61 -19 104q-57 129 -199 154zM420 428q-27 -5 -52 -5q-24 0 -51 5q-44 7 -77 39 q-36 33 -36 76q0 22 9 40q32 63 104 75q26 5 51 5q26 0 52 -5q72 -12 104 -75q8 -18 8 -40q0 -43 -34 -75.5t-78 -39.5z" />
<glyph unicode=":" horiz-adv-x="372" d="M280 97q0 39 -27.5 66.5t-66.5 27.5t-66.5 -27.5t-27.5 -66.5t27.5 -66.5t66.5 -27.5t66.5 27.5t27.5 66.5zM280 490q0 39 -27.5 66.5t-66.5 27.5t-66.5 -27.5t-27.5 -66.5t27.5 -66.5t66.5 -27.5t66.5 27.5t27.5 66.5z" />
<glyph unicode="A" horiz-adv-x="814" d="M515 800h-216l-254 -800h153l46 146h326l46 -146h153zM290 292l117 367l117 -367h-234z" />
<glyph unicode="B" horiz-adv-x="729" d="M224 485h169q35 0 60 24.5t25 59.5q0 36 -25 60.5t-60 24.5v0h-169v-169zM407 146q41 0 69.5 28.5t28.5 69.5q0 65 -60 90v0q-20 5 -42 5v0h-179v-193h183zM78 800h315q96 0 163.5 -67.5t67.5 -163.5q0 -82 -52 -145v0q79 -73 79 -180q0 -101 -71.5 -172.5t-172.5 -71.5 v0h-329v800z" />
<glyph unicode="C" horiz-adv-x="701" d="M631 723q-95 81 -220 81q-17 0 -35 -1v0q-170 -27 -255 -179v0q-51 -100 -51 -213v-12v0v-7q0 -121 56 -228v0q38 -72 106 -116.5t149 -52.5v0q16 -1 33 -1q124 0 217 81v0l-93 111q-54 -47 -124 -47q-11 0 -20 1v0q-95 8 -142 93v0q-38 74 -38 159v8v0v11q0 76 33 144v0 q50 86 148 103v0q8 1 16 1q72 0 127 -47v0z" />
<glyph unicode="D" horiz-adv-x="767" d="M684 508q-13 139 -118 226q-79 66 -180 66h-309v-800h307q102 0 182 71q102 89 118 221q6 57 6 108q0 34 -6 108zM539 309q-9 -76 -70 -129q-39 -34 -85 -34h-1h-160v508h161h2q48 0 87 -32q59 -49 65 -128q7 -71 7 -94q0 -41 -6 -91z" />
<glyph unicode="E" horiz-adv-x="607" d="M85 800h437v-146h-291v-160h244v-146h-244v-202h291v-146h-437v800z" />
<glyph unicode="F" horiz-adv-x="584" d="M73 800h438v-146h-292v-160h245v-146h-245v-348h-146v800z" />
<glyph unicode="G" horiz-adv-x="809" d="M572 585l103 103q-102 118 -258 118h-5h-2q-139 0 -234 -104v0q-113 -131 -113 -303v-5q0 -173 113 -303v0q95 -104 234 -104h2v0h15q124 0 216 84t103 208v0v150h-334v-145h188q-8 -62 -53 -104.5t-107 -46.5v0q-8 -1 -14 -1t-14 1v0h-3q-79 0 -129 61v0q-71 88 -71 200 v5q0 112 71 200v0q50 61 129 61h3h2.5h2.5q95 0 155 -75z" />
<glyph unicode="H" horiz-adv-x="772" d="M92 0v800h146v-301h296v301h146v-800h-146v353h-296v-353h-146z" />
<glyph unicode="I" horiz-adv-x="334" d="M240 0h-146v800h146v-800z" />
<glyph unicode="J" horiz-adv-x="447" d="M78 146h80q27 0 46 19.5t19 46.5v0v588h146v-588q0 -88 -62 -150t-149 -62v0h-80v146z" />
<glyph unicode="K" horiz-adv-x="748" d="M224 489l250 311h187l-254 -315l264 -485h-167l-196 362l-84 -105v-257h-146v800h146v-311z" />
<glyph unicode="L" horiz-adv-x="546" d="M219 146h254v-146h-400v800h146v-654z" />
<glyph unicode="M" horiz-adv-x="889" d="M242 0h-146v800h184l165 -226l164 226h184v-800h-146v604l-202 -278l-203 278v-604z" />
<glyph unicode="N" horiz-adv-x="809" d="M94 800h165l310 -532v532h146v-800h-158l-317 543v-543h-146v800z" />
<glyph unicode="O" horiz-adv-x="824" d="M647 706q-91 104 -234 104h-1h-2q-142 0 -234 -104q-113 -128 -113 -304v-4q0 -176 113 -304q92 -103 234 -103h2h1q143 0 234 103q113 128 113 304v4q0 176 -113 304zM614 398q0 -120 -76 -207q-48 -54 -125 -54h-1h-2q-77 0 -124 54q-77 87 -77 207v4q0 121 77 207 q48 55 124 55h2h1q77 0 125 -55q76 -86 76 -207v-4z" />
<glyph unicode="P" horiz-adv-x="687" d="M380 800h-311v-800h146v325h165q98 0 168 69.5t70 167.5q0 99 -70 168.5t-168 69.5zM380 471h-165v183h165q38 0 65 -27t27 -65t-27 -64.5t-65 -26.5z" />
<glyph unicode="Q" horiz-adv-x="824" d="M662 151q70 113 70 247v5q0 176 -113 304q-91 103 -234 103h-1h-2q-142 0 -234 -103q-113 -128 -113 -304v-4q0 -176 113 -304q92 -104 234 -104h2h3q95 0 174 52l39 -47h188zM586 398q0 -93 -49 -171h-125l56 -70q-38 -20 -81 -20h-5q-77 0 -124 54q-77 87 -77 208v4 q0 120 77 207q48 54 124 54h2h1q77 0 125 -54q76 -87 76 -207v-5z" />
<glyph unicode="R" d="M465 339q71 26 113.5 87.5t42.5 135.5q0 99 -69.5 168.5t-168.5 69.5h-310v-800h146v325h89l170 -325h164zM383 471h-164v183h164q38 0 65 -27t27 -65t-27 -64.5t-65 -26.5z" />
<glyph unicode="S" d="M258 527l214 -61q100 -29 151 -118v0q30 -52 30 -111q0 -60 -30 -111v0q-29 -55 -80.5 -89t-113.5 -38v0q-32 -5 -65 -5q-180 0 -302 132v0l107 99q79 -85 195 -85q25 0 49 4v0q58 1 82 54v0q12 17 12 39q0 20 -10 37v0q-22 39 -65 51v0l-212 61q-65 19 -105.5 72.5 t-40.5 120.5q0 68 42 123v0v0q66 83 171 101v0q36 7 74 7q155 0 273 -102v0l-96 -110q-76 65 -177 65q-25 0 -49 -4v0q-50 -8 -80 -47v0v0v0v0v0v0v0q-12 -15 -12 -33q0 -40 38 -52z" />
<glyph unicode="T" horiz-adv-x="612" d="M379 654v-654h-146v654h-179v146h504v-146h-179z" />
<glyph unicode="U" horiz-adv-x="772" d="M531 283v517h146v-517q0 -121 -85 -206t-206 -85t-206 85t-85 206v0v517h145v-517q0 -60 43 -103t103 -43t102.5 43t42.5 103z" />
<glyph unicode="V" horiz-adv-x="814" d="M769 800l-254 -800h-216l-254 800h153l209 -659l209 659h153z" />
<glyph unicode="W" horiz-adv-x="1205" d="M831 249l-153 551h-151l-153 -551l-178 551h-154l259 -800h155l146 527l146 -527h155l259 800h-153z" />
<glyph unicode="X" horiz-adv-x="748" d="M680 800l-221 -395l226 -405h-167l-144 257l-143 -257h-167l225 405l-221 395h167l139 -248l139 248h167z" />
<glyph unicode="Y" horiz-adv-x="701" d="M659 800l-235 -428v-372h-146v372l-236 428h167l142 -258l141 258h167z" />
<glyph unicode="Z" horiz-adv-x="692" d="M73 141v-141h546v146h-365l365 523v131h-546v-146h357z" />
<glyph unicode="a" d="M629 582h-146v-42q-41 33 -93 42v0q-26 6 -52 6q-43 0 -84 -15v0q-96 -42 -141 -136v0q-26 -71 -26 -148q0 -76 26 -147v0q50 -109 164 -145v0q28 -7 56 -7q29 0 57 7v0q51 10 93 42v0v-38h146v581zM483 226q-21 -76 -98 -94v0q-10 -2 -22 -2q-35 0 -62 21v0 q-52 42 -61 108v0q-3 16 -3 33t3 33v0q9 65 61 107v0q27 22 62 22q11 0 22 -3v0q77 -17 98 -94v0v-131z" />
<glyph unicode="b" d="M602 437q-41 95 -140 136q-36 15 -85 15q-85 0 -145 -48v258h-145v-797h145v38q65 -49 150 -49q70 0 131 42.5t89 109.5q27 63 27 147q0 86 -27 148zM415 151q-27 -21 -63 -21q-41 0 -75 28t-45 68v131q11 41 45 69t75 28q36 0 63 -22q63 -50 63 -140q0 -91 -63 -141z " />
<glyph unicode="c" horiz-adv-x="598" d="M196 44q-122 90 -122 241v7v0v7q0 151 122 241v0q73 54 164 54t164 -53v0l-85 -118q-34 25 -77 25t-77 -25v0q-66 -46 -66 -126v-5v0v-5q0 -80 66 -126v0q34 -25 77 -25t77 25v0l85 -118q-73 -53 -164 -53t-164 54z" />
<glyph unicode="d" d="M483 226q-21 -76 -98 -94v0q-11 -2 -22 -2q-35 0 -62 21v0q-52 42 -61 108v0q-3 17 -3 33q0 15 3 33v0q9 65 61 107v0q27 22 62 22q11 0 22 -3v0q77 -17 98 -94v0v-131zM629 798h-146v-258q-41 33 -93 42v0q-26 6 -52 6q-43 0 -84 -15v0q-96 -42 -141 -136v0 q-27 -71 -27 -148q0 -76 27 -147v0q50 -109 164 -145v0q28 -7 57 -7q28 0 56 7v0q51 10 93 42v0v-38h146v797z" />
<glyph unicode="e" horiz-adv-x="692" d="M625 304q0 145 -122 234q-70 52 -157 52t-157 -52q-122 -90 -122 -241v-3.5v-3.5v-3.5v-3.5q0 -152 122 -242q70 -51 158 -51h13q115 0 207 70l-85 117q-52 -45 -121 -45q-21 0 -36 3q-44 10 -73.5 44t-34.5 78h408v47zM222 351q7 45 42.5 75t81.5 30t81.5 -30t42.5 -75 h-248z" />
<glyph unicode="f" horiz-adv-x="452" d="M289 584v28q0 17 12.5 29.5t30.5 12.5v0h47v146h-137q-39 0 -67.5 -29t-30.5 -70v0v-117h-71v-146h71v-438h145v438h90v146h-90z" />
<glyph unicode="g" horiz-adv-x="701" d="M615 -9v593h-145v-42q-53 47 -135 47q-72 0 -132.5 -42t-90.5 -109q-27 -60 -27 -139q0 -77 27 -138q29 -66 89 -109.5t130 -43.5q82 0 139 45v-62q-5 -51 -52 -70q-35 -14 -84 -14q-85 0 -161 37l-61 -122q96 -43 201 -43t189 34q52 20 83 66t31 101q0 2 -1 6v5z M470 222q-9 -40 -40.5 -66t-71.5 -26q-37 0 -62 21q-50 41 -57 108q-2 12 -2 24t2 23q7 67 57 109q25 21 62 21q40 0 72 -28.5t40 -68.5v-117z" />
<glyph unicode="h" horiz-adv-x="664" d="M240 358v-358h-146v800h146v-240q52 32 113 32q88 0 151 -61.5t65 -149.5v0v-381h-145v358q0 37 -27.5 63t-64.5 26q-38 0 -64.5 -26t-27.5 -63z" />
<glyph unicode="i" horiz-adv-x="334" d="M240 582h-146v-582h146v582zM75 732q0 38 27 65t65 27t65 -27t27 -65v0q0 -38 -27 -64.5t-65 -26.5t-65 27t-27 64z" />
<glyph unicode="j" horiz-adv-x="372" d="M122 733q0 38 27 65t65 27t65 -27t27 -65v0q0 -38 -27 -65t-65 -27t-65 27t-27 65zM287 582h-146v-578q0 3 0 -4q0 -31 -22 -53.5t-53 -22.5v0v-146q91 0 156 65t65 157v582z" />
<glyph unicode="k" horiz-adv-x="701" d="M221 382v418h-146v-800h146v174l57 58l161 -232h177l-234 337l244 247h-205z" />
<glyph unicode="l" horiz-adv-x="334" d="M94 0h146v800h-146v-800z" />
<glyph unicode="m" horiz-adv-x="946" d="M94 0h146v362v1.5v1.5q0 33 23.5 56.5t56.5 23.5t56.5 -23.5t23.5 -56.5v-3v0v-362h146v365q0 33 23.5 56.5t56.5 23.5t56.5 -23.5t23.5 -56.5v-365h146v405q0 78 -55.5 133t-133.5 55q-98 0 -155 -80v0q-60 79 -159 79q-60 0 -109 -32v0v24h-146v-584z" />
<glyph unicode="n" horiz-adv-x="654" d="M89 0h146v353q0 38 27 65t65 27t65 -27t27 -65v0v-353h146v384q0 86 -62.5 146.5t-149.5 60.5q-64 0 -118 -36v0v29h-146v-584z" />
<glyph unicode="o" d="M635 389q-35 110 -136 169q-65 38 -136 38h-11q-71 0 -135 -38q-102 -59 -137 -169q-9 -43 -9 -86q0 -58 14 -106q26 -90 100.5 -148.5t166.5 -58.5h11q73 0 136 37q100 60 131 170q14 48 14 106q0 43 -9 86zM489 234q-17 -49 -66 -80q-29 -19 -62 -19h-7q-33 0 -62 19 q-48 31 -66 80q-9 26 -9 59t9 59q18 49 66 79q29 19 62 19h3.5h3.5q33 0 62 -19q49 -30 66 -79q9 -26 9 -59t-9 -59z" />
<glyph unicode="p" d="M231 226q22 -76 99 -94v0q11 -2 22 -2q35 0 63 21v0q52 42 61 108v0q2 17 2 33t-2 33v0q-9 66 -61 108v0q-28 21 -63 21q-11 0 -22 -2v0q-77 -18 -99 -94v0v-132zM603 142q-50 -110 -165 -146v0q-27 -7 -56 -7t-57 7v0q-51 11 -94 42v0v-254h-146v800h146v-43 q42 33 94 43v0q26 5 52 5q44 0 85 -15v0q96 -42 141 -136v0q27 -72 27 -148q0 -77 -27 -148z" />
<glyph unicode="q" d="M112 142q50 -110 165 -146v0q28 -7 56 -7q29 0 57 7v0q52 11 94 42v0v-254h146v800h-146v-43q-41 33 -94 43v0q-26 5 -52 5q-44 0 -84 -15v0q-97 -42 -142 -136v0q-26 -72 -26 -148q0 -77 26 -148zM484 226q-21 -76 -99 -94v0q-11 -2 -22 -2q-35 0 -62 21v0 q-52 42 -62 108v0q-2 17 -2 33t2 33v0q10 66 62 108v0q27 21 62 21q11 0 22 -2v0q78 -18 99 -94v0v-132z" />
<glyph unicode="r" horiz-adv-x="494" d="M64 0h145v292q12 84 85 127v0q37 23 81 23h9q24 0 47 -9v0v151q-29 5 -57 5q-89 0 -165 -48v0v43h-145v-584z" />
<glyph unicode="s" horiz-adv-x="640" d="M149 193q62 -42 137 -52v0q19 -2 35 -2q30 0 59 7v0q18 4 29 19v0q6 8 6 20q0 26 -25 32v0l-198 47q-51 12 -82.5 56t-31.5 98q0 48 27 88.5t72 59.5v0q50 20 104 24v0q21 2 41 2q134 0 243 -78v0l-81 -118q-77 49 -168 49q-14 0 -30 -2v0q-22 0 -42 -9v0q-15 -8 -15 -25 q0 -20 19 -27v0q6 -2 14 -5v0l185 -42q55 -13 89.5 -58.5t34.5 -102.5q0 -66 -44 -113v0q-55 -55 -132 -62v0q-40 -5 -78 -5t-78 5v0q-94 12 -170 71v0z" />
<glyph unicode="t" horiz-adv-x="400" d="M120 438v-339v-2.5v-1.5q0 -40 27.5 -67.5t67.5 -27.5h107v146h-23h-2q-31 0 -31 31v261h73v146h-73v216l-146 -71v-145h-59v-146h59z" />
<glyph unicode="u" horiz-adv-x="654" d="M235 581h-146v-383q0 -86 62.5 -147t149.5 -61q64 0 118 36v0v-28h146v583h-146v-353q0 -38 -27 -64.5t-65 -26.5t-65 26.5t-27 64.5v0v353z" />
<glyph unicode="v" horiz-adv-x="692" d="M638 584h-156l-136 -372l-137 372h-155l214 -584h156z" />
<glyph unicode="w" horiz-adv-x="955" d="M403 584l-93 -337l-109 337h-152l189 -584h153l87 314l87 -314h152l189 584h-151l-109 -337l-93 337h-150z" />
<glyph unicode="x" horiz-adv-x="692" d="M435 292l203 292h-178l-114 -164l-114 164h-178l203 -292l-203 -292h178l114 164l114 -164h178z" />
<glyph unicode="y" horiz-adv-x="692" d="M638 584h-156l-136 -372l-136 372h-156l214 -583l-79 -217h155z" />
<glyph unicode="z" horiz-adv-x="635" d="M555 447v137h-475v-146h271l-271 -302v-136h475v146h-270z" />
<glyph unicode="&#xad;" horiz-adv-x="654" d="M584 226v146h-513v-146h513z" />
<glyph unicode="&#xc4;" horiz-adv-x="814" d="M609 847q45 0 77 32t32 77q0 44 -32 76t-77 32q-44 0 -76 -31.5t-32 -76.5t32 -77t76 -32zM205 847q44 0 76 32t32 77q0 44 -32 76t-76 32q-45 0 -77 -31.5t-32 -76.5t32 -77t77 -32zM515 800h-216l-254 -800h153l46 146h326l46 -146h154zM290 292l117 367l117 -367h-234 z" />
<glyph unicode="&#xc5;" horiz-adv-x="814" d="M532 745q56 53 56 130q0 75 -53 128t-128 53t-128 -53t-53 -128q0 -77 56 -130l-236 -745h152l46 145h326l46 -145h152zM407 948q30 0 51.5 -21.5t21.5 -51.5t-21.5 -51t-51.5 -21t-51.5 21t-21.5 51t21.5 51.5t51.5 21.5zM291 291l116 366l116 -366h-232z" />
<glyph unicode="&#xc7;" horiz-adv-x="701" d="M634 724q-96 82 -222 82q-18 0 -36 -2v0q-173 -27 -259 -179v0q-52 -100 -52 -214v-12v0v-7q0 -121 57 -228v0q39 -72 107.5 -117t150.5 -52v0q17 -2 34 -2q126 0 220 82v0l-94 110q-55 -46 -126 -46q-11 0 -20 1v0q-97 8 -144 93v0q-39 75 -39 159v8v11q0 77 34 145v0 q51 86 150 103v0q8 1 17 1q72 0 128 -47v0zM423 847l202 217h-89l-186 -139l-187 139h-89l203 -217h146z" />
<glyph unicode="&#xd1;" horiz-adv-x="809" d="M92 799h164l310 -531v531h146v-799h-158l-317 542v-542h-145v799zM651 1062h-146l-143 -216h87z" />
<glyph unicode="&#xd6;" horiz-adv-x="824" d="M192 806q46 0 78 32t32 77q0 46 -32 78t-78 32q-45 0 -77.5 -32t-32.5 -78q0 -45 32.5 -77t77.5 -32zM627 806q45 0 77 32t32 77q0 46 -32 78t-77 32q-46 0 -78 -32t-32 -78q0 -45 32 -77t78 -32zM645 703q-91 103 -232 103h-1h-2q-141 0 -232 -103q-112 -127 -112 -302 v-4q0 -174 112 -301q91 -103 232 -103h2h1q141 0 232 103q112 127 112 301v4q0 175 -112 302zM612 397q0 -119 -75 -205q-48 -54 -124 -54h-1h-2q-76 0 -123 54q-76 86 -76 205v4q0 120 76 206q47 54 123 54h2h1q76 0 124 -54q75 -86 75 -206v-4z" />
<glyph unicode="&#xdf;" horiz-adv-x="640" d="M144 193q62 -42 137 -52v0q16 -2 35 -2q29 0 59 7v0q18 4 28 19v0q7 8 7 19q0 26 -25 33v0l-198 47q-51 12 -82 55.5t-31 97.5q0 48 27 88.5t72 59.5v0q49 20 103 23v0q21 3 41 3q133 0 242 -78v0l-80 -117q-77 48 -168 48q-15 0 -30 -1v0q-22 -1 -42 -10v0 q-15 -8 -15 -25q0 -20 19 -27v0q8 -2 14 -4v0l184 -43q55 -12 89.5 -57.5t34.5 -102.5q0 -65 -44 -113v0q-55 -54 -132 -61v0q-37 -5 -77 -5q-41 0 -78 5v0q-95 12 -170 71v0zM390 652l163 174h-107l-129 -109l-130 109h-106l163 -174h146z" />
<glyph unicode="&#xe4;" d="M212 822q36 0 61 -25.5t25 -61.5t-25 -61t-61 -25v0q-36 0 -61.5 25t-25.5 61t25.5 61.5t61.5 25.5zM521 822q35 0 60.5 -25.5t25.5 -61.5t-25.5 -61t-60.5 -25v0q-36 0 -61.5 25t-25.5 61t25.5 61.5t61.5 25.5zM628 581h-145v-42q-41 33 -93 42v0q-26 5 -52 5 q-43 0 -84 -15v0q-96 -41 -140 -135v0q-27 -71 -27 -147q0 -77 27 -148v0q49 -109 163 -145v0q28 -6 57 -6q28 0 56 6v0q51 11 93 42v0v-37h145v580zM483 225q-21 -76 -98 -93v0q-11 -2 -22 -2q-35 0 -62 21v0q-52 41 -61 107v0q-2 16 -2 33t2 33v0q9 65 61 107v0 q28 21 62 21q11 0 22 -2v0q77 -18 98 -94v0v-131z" />
<glyph unicode="&#xe5;" d="M483 582v-42q-31 25 -70 37q70 33 70 111v2q0 51 -36 87.5t-88 36.5q-51 0 -87.5 -36.5t-36.5 -87.5q0 -71 61 -108q-24 -2 -42 -9q-100 -43 -141 -136q-26 -62 -26 -148q0 -84 26 -147q29 -67 89.5 -109.5t131.5 -42.5q84 0 149 49v-38h146v581h-146zM359 739 q21 0 35 -14.5t14 -34.5q0 -21 -14 -35.5t-35 -14.5q-20 0 -34.5 14.5t-14.5 35.5q0 20 14.5 34.5t34.5 14.5zM483 226q-11 -40 -45 -68t-75 -28q-36 0 -62 21q-63 50 -63 140q0 91 63 141q26 21 62 21q41 0 75 -28t45 -68v-131z" />
<glyph unicode="&#xe7;" horiz-adv-x="598" d="M193 42q-122 90 -122 242v14q0 152 122 242v0q74 54 166 54q90 0 164 -53v0l-85 -118q-35 25 -78 25t-77 -25v0q-66 -47 -66 -127v-10q0 -80 66 -127v0q35 -25 77 -25q43 0 78 25v0l85 -118q-74 -53 -164 -53q-92 0 -166 54zM299 716l-129 109h-107l163 -174h146l163 174 h-107z" />
<glyph unicode="&#xf1;" horiz-adv-x="654" d="M94 0h146v354q0 38 27 65t65 27t65 -27t27 -65v0v-354h146v384q0 87 -62 148t-149 61q-65 0 -119 -37v0v29h-146v-585zM517 827h-134l-116 -174h88z" />
<glyph unicode="&#xf6;" d="M526 648q36 0 61.5 25.5t25.5 61.5t-25.5 61.5t-61.5 25.5t-61 -25.5t-25 -61.5t25 -61.5t61 -25.5zM189 648q36 0 61.5 25.5t25.5 61.5t-25.5 61.5t-61.5 25.5t-61.5 -25.5t-25.5 -61.5t25.5 -61.5t61.5 -25.5zM634 388q-34 110 -136 169q-64 37 -135 37h-11 q-91 0 -167 -58.5t-104 -147.5q-9 -43 -9 -86q0 -58 14 -106q25 -89 100 -147.5t166 -58.5q11 0 5.5 0t5.5 0q91 0 166 58.5t100 147.5q14 48 14 106q0 43 -9 86zM489 233q-18 -48 -66 -79q-29 -19 -62 -19h-7q-33 0 -62 19q-48 31 -66 79q-9 26 -9 59t9 59q18 49 66 79 q30 19 62 19h3.5h3.5q33 0 62 -19q48 -30 66 -79q9 -26 9 -59t-9 -59z" />
<glyph unicode="&#xf7;" horiz-adv-x="635" d="M552 447v137h-475v-146h271l-271 -301v-137h475v146h-270zM388 652l163 174h-107l-129 -109l-130 109h-106l163 -174h146z" />
<glyph unicode="&#x2000;" horiz-adv-x="532" />
<glyph unicode="&#x2001;" horiz-adv-x="1064" />
<glyph unicode="&#x2002;" horiz-adv-x="532" />
<glyph unicode="&#x2003;" horiz-adv-x="1064" />
<glyph unicode="&#x2004;" horiz-adv-x="354" />
<glyph unicode="&#x2005;" horiz-adv-x="266" />
<glyph unicode="&#x2006;" horiz-adv-x="177" />
<glyph unicode="&#x2007;" horiz-adv-x="177" />
<glyph unicode="&#x2008;" horiz-adv-x="133" />
<glyph unicode="&#x2009;" horiz-adv-x="212" />
<glyph unicode="&#x200a;" horiz-adv-x="59" />
<glyph unicode="&#x2010;" horiz-adv-x="654" d="M584 226v146h-513v-146h513z" />
<glyph unicode="&#x2011;" horiz-adv-x="654" d="M584 226v146h-513v-146h513z" />
<glyph unicode="&#x2012;" horiz-adv-x="654" d="M584 226v146h-513v-146h513z" />
<glyph unicode="&#x2013;" horiz-adv-x="641" d="M571 226v146h-500v-146h500z" />
<glyph unicode="&#x2014;" horiz-adv-x="1141" d="M1071 226v146h-1000v-146h1000z" />
<glyph unicode="&#x2018;" horiz-adv-x="654" d="M359 591q-65 0 -119 -36v28h-146v-584h146v353q0 38 27 65t65 27t65 -27t27 -65v-353v-1q0 -77 -98 -91l12 -126q64 8 119 29q51 21 82 67t31 102v1v0v403q0 86 -62.5 147t-148.5 61z" />
<glyph unicode="&#x201c;" horiz-adv-x="809" d="M571 267l-312 533h-165v-802h147v544l317 -544q6 -10 6 -23q0 -39 -45 -57q-37 -15 -85 -15h-3l6 -127q2 0 1 0q88 2 165 33q52 20 83 66.5t31 101.5v823h-146v-533z" />
<glyph unicode="&#x202f;" horiz-adv-x="212" />
<glyph unicode="&#x205f;" horiz-adv-x="266" />
<glyph unicode="&#x25fc;" horiz-adv-x="585" d="M0 585h585v-585h-585v585z" />
</font>
</defs>
</svg>
