<?xml version="1.0" encoding="UTF-8" standalone="no"?>
<svg
   xmlns:dc="http://purl.org/dc/elements/1.1/"
   xmlns:cc="http://creativecommons.org/ns#"
   xmlns:rdf="http://www.w3.org/1999/02/22-rdf-syntax-ns#"
   xmlns:svg="http://www.w3.org/2000/svg"
   xmlns="http://www.w3.org/2000/svg"
   viewBox="0 0 749.99982 600"
   version="1.1"
   width="750"
   height="600"
   xml:space="preserve"
   id="Layer_1"><defs
     id="defs13" /><metadata
     id="metadata24"><rdf:RDF><cc:Work
         rdf:about=""><dc:format>image/svg+xml</dc:format><dc:type
           rdf:resource="http://purl.org/dc/dcmitype/StillImage" /><dc:title /></cc:Work></rdf:RDF></metadata><path
     d="m0 37.5c0-20.711 16.789-37.5 37.5-37.5h675c20.711 0 37.5 16.789 37.5 37.5v525c0 20.71-16.79 37.5-37.5 37.5h-675c-20.711 0-37.5-16.79-37.5-37.5v-525z"
     id="path7" /><path
     d="m375 300"
     id="path9" /><path
     d="m650 25c41.421 0 75 33.578 75 75 0 15.192-4.5181 29.328-12.28 41.14l-254.09 388.71c-17.873 27.194-48.653 45.148-83.626 45.148-34.975 0-65.755-17.953-83.627-45.148l-254.1-388.71c-7.763-11.81-12.28-25.95-12.28-41.14 0-41.422 33.578-75 75-75h550z"
     fill="#fff"
     fill-rule="evenodd"
     id="path11" />
  <text letter-spacing="0px" text-anchor="middle" word-spacing="0px" text-align="center" font-size="400px" line-height="100%" font-family="&apos;Roadgeek 2014 Series C&apos;" fill="#000">
     <tspan y="290" x="375">***NUMBER***</tspan></text>       
</svg>